<?xml version="1.0" encoding="utf-8"?>
<!-- Generator: Adobe Illustrator 16.0.0, SVG Export Plug-In . SVG Version: 6.00 Build 0)  -->
<!DOCTYPE svg PUBLIC "-//W3C//DTD SVG 1.1//EN" "http://www.w3.org/Graphics/SVG/1.1/DTD/svg11.dtd">
<svg version="1.1" id="_x30_" xmlns="http://www.w3.org/2000/svg" xmlns:xlink="http://www.w3.org/1999/xlink" x="0px" y="0px"
	 width="269.801px" height="269.801px" viewBox="0 0 269.801 269.801" enable-background="new 0 0 269.801 269.801"
	 xml:space="preserve">
<g id="LINE_144_">
	
		<line fill="none" stroke="#000000" stroke-width="0.5102" stroke-linecap="round" stroke-linejoin="round" stroke-miterlimit="10" x1="21.515" y1="0.255" x2="0.255" y2="21.515"/>
</g>
<g id="LINE_145_">
	
		<line fill="none" stroke="#000000" stroke-width="0.5102" stroke-linecap="round" stroke-linejoin="round" stroke-miterlimit="10" x1="0.255" y1="21.515" x2="0.255" y2="248.286"/>
</g>
<g id="LINE_146_">
	
		<line fill="none" stroke="#000000" stroke-width="0.5102" stroke-linecap="round" stroke-linejoin="round" stroke-miterlimit="10" x1="0.255" y1="248.286" x2="21.515" y2="269.546"/>
</g>
<g id="LINE_147_">
	
		<line fill="none" stroke="#000000" stroke-width="0.5102" stroke-linecap="round" stroke-linejoin="round" stroke-miterlimit="10" x1="21.515" y1="269.546" x2="248.286" y2="269.546"/>
</g>
<g id="LINE_148_">
	
		<line fill="none" stroke="#000000" stroke-width="0.5102" stroke-linecap="round" stroke-linejoin="round" stroke-miterlimit="10" x1="248.286" y1="269.546" x2="269.546" y2="248.286"/>
</g>
<g id="LINE_149_">
	
		<line fill="none" stroke="#000000" stroke-width="0.5102" stroke-linecap="round" stroke-linejoin="round" stroke-miterlimit="10" x1="269.546" y1="248.286" x2="269.546" y2="21.515"/>
</g>
<g id="LINE_150_">
	
		<line fill="none" stroke="#000000" stroke-width="0.5102" stroke-linecap="round" stroke-linejoin="round" stroke-miterlimit="10" x1="269.546" y1="21.515" x2="248.286" y2="0.255"/>
</g>
<g id="LINE_151_">
	
		<line fill="none" stroke="#000000" stroke-width="0.5102" stroke-linecap="round" stroke-linejoin="round" stroke-miterlimit="10" x1="248.286" y1="0.255" x2="21.515" y2="0.255"/>
</g>
<text transform="matrix(0.75 0 0 1 119.6279 61.8149)" font-family="'Perpetua'" font-size="33">XII</text>
<text transform="matrix(0.6432 0.3857 -0.5143 0.8576 168.6201 69.7866)" font-family="'Perpetua'" font-size="33">I</text>
<text transform="matrix(0.3803 0.6464 -0.8619 0.5071 194.9805 92.7573)" font-family="'Perpetua'" font-size="33">II</text>
<text transform="matrix(-0.0039 0.75 -1 -0.0051 208.2773 125.2852)" font-family="'Perpetua'" font-size="33">III</text>
<text transform="matrix(-0.38 0.6466 -0.8621 -0.5067 203.2168 163.584)" font-family="'Perpetua'" font-size="33">IV</text>
<text transform="matrix(-0.6489 0.3761 -0.5015 -0.8651 178.8936 195.499)" font-family="'Perpetua'" font-size="33">V</text>
<text transform="matrix(-0.75 0.0043 -0.0057 -1 145.5654 208.5107)" font-family="'Perpetua'" font-size="33">VI</text>
<text transform="matrix(-0.6494 -0.3752 0.5003 -0.8659 109.918 205.5527)" font-family="'Perpetua'" font-size="33">VII</text>
<text transform="matrix(-0.3777 -0.6479 0.8639 -0.5036 79.8545 186.874)" font-family="'Perpetua'" font-size="33">VIII</text>
<text transform="matrix(-0.0063 -0.75 1 -0.0084 61.2656 146.0459)" font-family="'Perpetua'" font-size="33">IX</text>
<text transform="matrix(0.3755 -0.6492 0.8656 0.5007 67.3506 104.3403)" font-family="'Perpetua'" font-size="33">X</text>
<text transform="matrix(0.6523 -0.3701 0.4935 0.8698 88.4258 76.0542)" font-family="'Perpetua'" font-size="33">XI</text>
<line fill="none" stroke="#000000" stroke-width="2" stroke-linecap="round" stroke-miterlimit="10" x1="120.727" y1="134.9" x2="87.325" y2="134.9"/>
<line fill="none" stroke="#000000" stroke-width="2" stroke-linecap="round" stroke-miterlimit="10" x1="182.162" y1="134.855" x2="148.761" y2="134.855"/>
<line fill="none" stroke="#000000" stroke-width="2" stroke-linecap="round" stroke-miterlimit="10" x1="134.742" y1="87.325" x2="134.742" y2="120.727"/>
<line fill="none" stroke="#000000" stroke-width="2" stroke-linecap="round" stroke-miterlimit="10" x1="134.9" y1="149.073" x2="134.9" y2="182.475"/>
</svg>
