G75*
%MOIN*%
%OFA0B0*%
%FSLAX25Y25*%
%IPPOS*%
%LPD*%
%AMOC8*
5,1,8,0,0,1.08239X$1,22.5*
%
%ADD10C,0.00000*%
%ADD11C,0.00600*%
%ADD12C,0.00400*%
%ADD13R,0.01378X0.03150*%
%ADD14C,0.00300*%
%ADD15R,0.03150X0.01378*%
%ADD16C,0.00500*%
%ADD17C,0.00800*%
%ADD18C,0.01600*%
%ADD19R,0.01600X0.03400*%
%ADD20R,0.02000X0.04050*%
%ADD21R,0.02000X0.04250*%
%ADD22R,0.02000X0.04000*%
%ADD23C,0.00200*%
%ADD24C,0.01000*%
%ADD25R,0.03400X0.01600*%
%ADD26C,0.00020*%
%ADD27R,0.02362X0.01181*%
%ADD28R,0.01800X0.02300*%
%ADD29R,0.02000X0.04500*%
%ADD30C,0.02000*%
%ADD31C,0.01181*%
%ADD32R,0.01969X0.01181*%
%ADD33R,0.02559X0.01969*%
%ADD34C,0.00100*%
D10*
X0077633Y0106830D02*
X0077633Y0476909D01*
X0388657Y0476909D01*
X0388657Y0106830D01*
X0077633Y0106830D01*
X0091216Y0130452D02*
X0091218Y0130608D01*
X0091224Y0130764D01*
X0091234Y0130919D01*
X0091248Y0131074D01*
X0091266Y0131229D01*
X0091288Y0131383D01*
X0091313Y0131537D01*
X0091343Y0131690D01*
X0091377Y0131842D01*
X0091414Y0131994D01*
X0091455Y0132144D01*
X0091500Y0132293D01*
X0091549Y0132441D01*
X0091602Y0132588D01*
X0091658Y0132733D01*
X0091718Y0132877D01*
X0091782Y0133019D01*
X0091850Y0133160D01*
X0091921Y0133298D01*
X0091995Y0133435D01*
X0092073Y0133570D01*
X0092154Y0133703D01*
X0092239Y0133834D01*
X0092327Y0133963D01*
X0092418Y0134089D01*
X0092513Y0134213D01*
X0092610Y0134334D01*
X0092711Y0134453D01*
X0092815Y0134570D01*
X0092921Y0134683D01*
X0093031Y0134794D01*
X0093143Y0134902D01*
X0093258Y0135007D01*
X0093376Y0135110D01*
X0093496Y0135209D01*
X0093619Y0135305D01*
X0093744Y0135398D01*
X0093871Y0135487D01*
X0094001Y0135574D01*
X0094133Y0135657D01*
X0094267Y0135736D01*
X0094403Y0135813D01*
X0094541Y0135885D01*
X0094680Y0135955D01*
X0094822Y0136020D01*
X0094965Y0136082D01*
X0095109Y0136140D01*
X0095255Y0136195D01*
X0095403Y0136246D01*
X0095551Y0136293D01*
X0095701Y0136336D01*
X0095852Y0136375D01*
X0096004Y0136411D01*
X0096156Y0136442D01*
X0096310Y0136470D01*
X0096464Y0136494D01*
X0096618Y0136514D01*
X0096773Y0136530D01*
X0096929Y0136542D01*
X0097084Y0136550D01*
X0097240Y0136554D01*
X0097396Y0136554D01*
X0097552Y0136550D01*
X0097707Y0136542D01*
X0097863Y0136530D01*
X0098018Y0136514D01*
X0098172Y0136494D01*
X0098326Y0136470D01*
X0098480Y0136442D01*
X0098632Y0136411D01*
X0098784Y0136375D01*
X0098935Y0136336D01*
X0099085Y0136293D01*
X0099233Y0136246D01*
X0099381Y0136195D01*
X0099527Y0136140D01*
X0099671Y0136082D01*
X0099814Y0136020D01*
X0099956Y0135955D01*
X0100095Y0135885D01*
X0100233Y0135813D01*
X0100369Y0135736D01*
X0100503Y0135657D01*
X0100635Y0135574D01*
X0100765Y0135487D01*
X0100892Y0135398D01*
X0101017Y0135305D01*
X0101140Y0135209D01*
X0101260Y0135110D01*
X0101378Y0135007D01*
X0101493Y0134902D01*
X0101605Y0134794D01*
X0101715Y0134683D01*
X0101821Y0134570D01*
X0101925Y0134453D01*
X0102026Y0134334D01*
X0102123Y0134213D01*
X0102218Y0134089D01*
X0102309Y0133963D01*
X0102397Y0133834D01*
X0102482Y0133703D01*
X0102563Y0133570D01*
X0102641Y0133435D01*
X0102715Y0133298D01*
X0102786Y0133160D01*
X0102854Y0133019D01*
X0102918Y0132877D01*
X0102978Y0132733D01*
X0103034Y0132588D01*
X0103087Y0132441D01*
X0103136Y0132293D01*
X0103181Y0132144D01*
X0103222Y0131994D01*
X0103259Y0131842D01*
X0103293Y0131690D01*
X0103323Y0131537D01*
X0103348Y0131383D01*
X0103370Y0131229D01*
X0103388Y0131074D01*
X0103402Y0130919D01*
X0103412Y0130764D01*
X0103418Y0130608D01*
X0103420Y0130452D01*
X0103418Y0130296D01*
X0103412Y0130140D01*
X0103402Y0129985D01*
X0103388Y0129830D01*
X0103370Y0129675D01*
X0103348Y0129521D01*
X0103323Y0129367D01*
X0103293Y0129214D01*
X0103259Y0129062D01*
X0103222Y0128910D01*
X0103181Y0128760D01*
X0103136Y0128611D01*
X0103087Y0128463D01*
X0103034Y0128316D01*
X0102978Y0128171D01*
X0102918Y0128027D01*
X0102854Y0127885D01*
X0102786Y0127744D01*
X0102715Y0127606D01*
X0102641Y0127469D01*
X0102563Y0127334D01*
X0102482Y0127201D01*
X0102397Y0127070D01*
X0102309Y0126941D01*
X0102218Y0126815D01*
X0102123Y0126691D01*
X0102026Y0126570D01*
X0101925Y0126451D01*
X0101821Y0126334D01*
X0101715Y0126221D01*
X0101605Y0126110D01*
X0101493Y0126002D01*
X0101378Y0125897D01*
X0101260Y0125794D01*
X0101140Y0125695D01*
X0101017Y0125599D01*
X0100892Y0125506D01*
X0100765Y0125417D01*
X0100635Y0125330D01*
X0100503Y0125247D01*
X0100369Y0125168D01*
X0100233Y0125091D01*
X0100095Y0125019D01*
X0099956Y0124949D01*
X0099814Y0124884D01*
X0099671Y0124822D01*
X0099527Y0124764D01*
X0099381Y0124709D01*
X0099233Y0124658D01*
X0099085Y0124611D01*
X0098935Y0124568D01*
X0098784Y0124529D01*
X0098632Y0124493D01*
X0098480Y0124462D01*
X0098326Y0124434D01*
X0098172Y0124410D01*
X0098018Y0124390D01*
X0097863Y0124374D01*
X0097707Y0124362D01*
X0097552Y0124354D01*
X0097396Y0124350D01*
X0097240Y0124350D01*
X0097084Y0124354D01*
X0096929Y0124362D01*
X0096773Y0124374D01*
X0096618Y0124390D01*
X0096464Y0124410D01*
X0096310Y0124434D01*
X0096156Y0124462D01*
X0096004Y0124493D01*
X0095852Y0124529D01*
X0095701Y0124568D01*
X0095551Y0124611D01*
X0095403Y0124658D01*
X0095255Y0124709D01*
X0095109Y0124764D01*
X0094965Y0124822D01*
X0094822Y0124884D01*
X0094680Y0124949D01*
X0094541Y0125019D01*
X0094403Y0125091D01*
X0094267Y0125168D01*
X0094133Y0125247D01*
X0094001Y0125330D01*
X0093871Y0125417D01*
X0093744Y0125506D01*
X0093619Y0125599D01*
X0093496Y0125695D01*
X0093376Y0125794D01*
X0093258Y0125897D01*
X0093143Y0126002D01*
X0093031Y0126110D01*
X0092921Y0126221D01*
X0092815Y0126334D01*
X0092711Y0126451D01*
X0092610Y0126570D01*
X0092513Y0126691D01*
X0092418Y0126815D01*
X0092327Y0126941D01*
X0092239Y0127070D01*
X0092154Y0127201D01*
X0092073Y0127334D01*
X0091995Y0127469D01*
X0091921Y0127606D01*
X0091850Y0127744D01*
X0091782Y0127885D01*
X0091718Y0128027D01*
X0091658Y0128171D01*
X0091602Y0128316D01*
X0091549Y0128463D01*
X0091500Y0128611D01*
X0091455Y0128760D01*
X0091414Y0128910D01*
X0091377Y0129062D01*
X0091343Y0129214D01*
X0091313Y0129367D01*
X0091288Y0129521D01*
X0091266Y0129675D01*
X0091248Y0129830D01*
X0091234Y0129985D01*
X0091224Y0130140D01*
X0091218Y0130296D01*
X0091216Y0130452D01*
X0362870Y0130452D02*
X0362872Y0130608D01*
X0362878Y0130764D01*
X0362888Y0130919D01*
X0362902Y0131074D01*
X0362920Y0131229D01*
X0362942Y0131383D01*
X0362967Y0131537D01*
X0362997Y0131690D01*
X0363031Y0131842D01*
X0363068Y0131994D01*
X0363109Y0132144D01*
X0363154Y0132293D01*
X0363203Y0132441D01*
X0363256Y0132588D01*
X0363312Y0132733D01*
X0363372Y0132877D01*
X0363436Y0133019D01*
X0363504Y0133160D01*
X0363575Y0133298D01*
X0363649Y0133435D01*
X0363727Y0133570D01*
X0363808Y0133703D01*
X0363893Y0133834D01*
X0363981Y0133963D01*
X0364072Y0134089D01*
X0364167Y0134213D01*
X0364264Y0134334D01*
X0364365Y0134453D01*
X0364469Y0134570D01*
X0364575Y0134683D01*
X0364685Y0134794D01*
X0364797Y0134902D01*
X0364912Y0135007D01*
X0365030Y0135110D01*
X0365150Y0135209D01*
X0365273Y0135305D01*
X0365398Y0135398D01*
X0365525Y0135487D01*
X0365655Y0135574D01*
X0365787Y0135657D01*
X0365921Y0135736D01*
X0366057Y0135813D01*
X0366195Y0135885D01*
X0366334Y0135955D01*
X0366476Y0136020D01*
X0366619Y0136082D01*
X0366763Y0136140D01*
X0366909Y0136195D01*
X0367057Y0136246D01*
X0367205Y0136293D01*
X0367355Y0136336D01*
X0367506Y0136375D01*
X0367658Y0136411D01*
X0367810Y0136442D01*
X0367964Y0136470D01*
X0368118Y0136494D01*
X0368272Y0136514D01*
X0368427Y0136530D01*
X0368583Y0136542D01*
X0368738Y0136550D01*
X0368894Y0136554D01*
X0369050Y0136554D01*
X0369206Y0136550D01*
X0369361Y0136542D01*
X0369517Y0136530D01*
X0369672Y0136514D01*
X0369826Y0136494D01*
X0369980Y0136470D01*
X0370134Y0136442D01*
X0370286Y0136411D01*
X0370438Y0136375D01*
X0370589Y0136336D01*
X0370739Y0136293D01*
X0370887Y0136246D01*
X0371035Y0136195D01*
X0371181Y0136140D01*
X0371325Y0136082D01*
X0371468Y0136020D01*
X0371610Y0135955D01*
X0371749Y0135885D01*
X0371887Y0135813D01*
X0372023Y0135736D01*
X0372157Y0135657D01*
X0372289Y0135574D01*
X0372419Y0135487D01*
X0372546Y0135398D01*
X0372671Y0135305D01*
X0372794Y0135209D01*
X0372914Y0135110D01*
X0373032Y0135007D01*
X0373147Y0134902D01*
X0373259Y0134794D01*
X0373369Y0134683D01*
X0373475Y0134570D01*
X0373579Y0134453D01*
X0373680Y0134334D01*
X0373777Y0134213D01*
X0373872Y0134089D01*
X0373963Y0133963D01*
X0374051Y0133834D01*
X0374136Y0133703D01*
X0374217Y0133570D01*
X0374295Y0133435D01*
X0374369Y0133298D01*
X0374440Y0133160D01*
X0374508Y0133019D01*
X0374572Y0132877D01*
X0374632Y0132733D01*
X0374688Y0132588D01*
X0374741Y0132441D01*
X0374790Y0132293D01*
X0374835Y0132144D01*
X0374876Y0131994D01*
X0374913Y0131842D01*
X0374947Y0131690D01*
X0374977Y0131537D01*
X0375002Y0131383D01*
X0375024Y0131229D01*
X0375042Y0131074D01*
X0375056Y0130919D01*
X0375066Y0130764D01*
X0375072Y0130608D01*
X0375074Y0130452D01*
X0375072Y0130296D01*
X0375066Y0130140D01*
X0375056Y0129985D01*
X0375042Y0129830D01*
X0375024Y0129675D01*
X0375002Y0129521D01*
X0374977Y0129367D01*
X0374947Y0129214D01*
X0374913Y0129062D01*
X0374876Y0128910D01*
X0374835Y0128760D01*
X0374790Y0128611D01*
X0374741Y0128463D01*
X0374688Y0128316D01*
X0374632Y0128171D01*
X0374572Y0128027D01*
X0374508Y0127885D01*
X0374440Y0127744D01*
X0374369Y0127606D01*
X0374295Y0127469D01*
X0374217Y0127334D01*
X0374136Y0127201D01*
X0374051Y0127070D01*
X0373963Y0126941D01*
X0373872Y0126815D01*
X0373777Y0126691D01*
X0373680Y0126570D01*
X0373579Y0126451D01*
X0373475Y0126334D01*
X0373369Y0126221D01*
X0373259Y0126110D01*
X0373147Y0126002D01*
X0373032Y0125897D01*
X0372914Y0125794D01*
X0372794Y0125695D01*
X0372671Y0125599D01*
X0372546Y0125506D01*
X0372419Y0125417D01*
X0372289Y0125330D01*
X0372157Y0125247D01*
X0372023Y0125168D01*
X0371887Y0125091D01*
X0371749Y0125019D01*
X0371610Y0124949D01*
X0371468Y0124884D01*
X0371325Y0124822D01*
X0371181Y0124764D01*
X0371035Y0124709D01*
X0370887Y0124658D01*
X0370739Y0124611D01*
X0370589Y0124568D01*
X0370438Y0124529D01*
X0370286Y0124493D01*
X0370134Y0124462D01*
X0369980Y0124434D01*
X0369826Y0124410D01*
X0369672Y0124390D01*
X0369517Y0124374D01*
X0369361Y0124362D01*
X0369206Y0124354D01*
X0369050Y0124350D01*
X0368894Y0124350D01*
X0368738Y0124354D01*
X0368583Y0124362D01*
X0368427Y0124374D01*
X0368272Y0124390D01*
X0368118Y0124410D01*
X0367964Y0124434D01*
X0367810Y0124462D01*
X0367658Y0124493D01*
X0367506Y0124529D01*
X0367355Y0124568D01*
X0367205Y0124611D01*
X0367057Y0124658D01*
X0366909Y0124709D01*
X0366763Y0124764D01*
X0366619Y0124822D01*
X0366476Y0124884D01*
X0366334Y0124949D01*
X0366195Y0125019D01*
X0366057Y0125091D01*
X0365921Y0125168D01*
X0365787Y0125247D01*
X0365655Y0125330D01*
X0365525Y0125417D01*
X0365398Y0125506D01*
X0365273Y0125599D01*
X0365150Y0125695D01*
X0365030Y0125794D01*
X0364912Y0125897D01*
X0364797Y0126002D01*
X0364685Y0126110D01*
X0364575Y0126221D01*
X0364469Y0126334D01*
X0364365Y0126451D01*
X0364264Y0126570D01*
X0364167Y0126691D01*
X0364072Y0126815D01*
X0363981Y0126941D01*
X0363893Y0127070D01*
X0363808Y0127201D01*
X0363727Y0127334D01*
X0363649Y0127469D01*
X0363575Y0127606D01*
X0363504Y0127744D01*
X0363436Y0127885D01*
X0363372Y0128027D01*
X0363312Y0128171D01*
X0363256Y0128316D01*
X0363203Y0128463D01*
X0363154Y0128611D01*
X0363109Y0128760D01*
X0363068Y0128910D01*
X0363031Y0129062D01*
X0362997Y0129214D01*
X0362967Y0129367D01*
X0362942Y0129521D01*
X0362920Y0129675D01*
X0362902Y0129830D01*
X0362888Y0129985D01*
X0362878Y0130140D01*
X0362872Y0130296D01*
X0362870Y0130452D01*
X0362870Y0453287D02*
X0362872Y0453443D01*
X0362878Y0453599D01*
X0362888Y0453754D01*
X0362902Y0453909D01*
X0362920Y0454064D01*
X0362942Y0454218D01*
X0362967Y0454372D01*
X0362997Y0454525D01*
X0363031Y0454677D01*
X0363068Y0454829D01*
X0363109Y0454979D01*
X0363154Y0455128D01*
X0363203Y0455276D01*
X0363256Y0455423D01*
X0363312Y0455568D01*
X0363372Y0455712D01*
X0363436Y0455854D01*
X0363504Y0455995D01*
X0363575Y0456133D01*
X0363649Y0456270D01*
X0363727Y0456405D01*
X0363808Y0456538D01*
X0363893Y0456669D01*
X0363981Y0456798D01*
X0364072Y0456924D01*
X0364167Y0457048D01*
X0364264Y0457169D01*
X0364365Y0457288D01*
X0364469Y0457405D01*
X0364575Y0457518D01*
X0364685Y0457629D01*
X0364797Y0457737D01*
X0364912Y0457842D01*
X0365030Y0457945D01*
X0365150Y0458044D01*
X0365273Y0458140D01*
X0365398Y0458233D01*
X0365525Y0458322D01*
X0365655Y0458409D01*
X0365787Y0458492D01*
X0365921Y0458571D01*
X0366057Y0458648D01*
X0366195Y0458720D01*
X0366334Y0458790D01*
X0366476Y0458855D01*
X0366619Y0458917D01*
X0366763Y0458975D01*
X0366909Y0459030D01*
X0367057Y0459081D01*
X0367205Y0459128D01*
X0367355Y0459171D01*
X0367506Y0459210D01*
X0367658Y0459246D01*
X0367810Y0459277D01*
X0367964Y0459305D01*
X0368118Y0459329D01*
X0368272Y0459349D01*
X0368427Y0459365D01*
X0368583Y0459377D01*
X0368738Y0459385D01*
X0368894Y0459389D01*
X0369050Y0459389D01*
X0369206Y0459385D01*
X0369361Y0459377D01*
X0369517Y0459365D01*
X0369672Y0459349D01*
X0369826Y0459329D01*
X0369980Y0459305D01*
X0370134Y0459277D01*
X0370286Y0459246D01*
X0370438Y0459210D01*
X0370589Y0459171D01*
X0370739Y0459128D01*
X0370887Y0459081D01*
X0371035Y0459030D01*
X0371181Y0458975D01*
X0371325Y0458917D01*
X0371468Y0458855D01*
X0371610Y0458790D01*
X0371749Y0458720D01*
X0371887Y0458648D01*
X0372023Y0458571D01*
X0372157Y0458492D01*
X0372289Y0458409D01*
X0372419Y0458322D01*
X0372546Y0458233D01*
X0372671Y0458140D01*
X0372794Y0458044D01*
X0372914Y0457945D01*
X0373032Y0457842D01*
X0373147Y0457737D01*
X0373259Y0457629D01*
X0373369Y0457518D01*
X0373475Y0457405D01*
X0373579Y0457288D01*
X0373680Y0457169D01*
X0373777Y0457048D01*
X0373872Y0456924D01*
X0373963Y0456798D01*
X0374051Y0456669D01*
X0374136Y0456538D01*
X0374217Y0456405D01*
X0374295Y0456270D01*
X0374369Y0456133D01*
X0374440Y0455995D01*
X0374508Y0455854D01*
X0374572Y0455712D01*
X0374632Y0455568D01*
X0374688Y0455423D01*
X0374741Y0455276D01*
X0374790Y0455128D01*
X0374835Y0454979D01*
X0374876Y0454829D01*
X0374913Y0454677D01*
X0374947Y0454525D01*
X0374977Y0454372D01*
X0375002Y0454218D01*
X0375024Y0454064D01*
X0375042Y0453909D01*
X0375056Y0453754D01*
X0375066Y0453599D01*
X0375072Y0453443D01*
X0375074Y0453287D01*
X0375072Y0453131D01*
X0375066Y0452975D01*
X0375056Y0452820D01*
X0375042Y0452665D01*
X0375024Y0452510D01*
X0375002Y0452356D01*
X0374977Y0452202D01*
X0374947Y0452049D01*
X0374913Y0451897D01*
X0374876Y0451745D01*
X0374835Y0451595D01*
X0374790Y0451446D01*
X0374741Y0451298D01*
X0374688Y0451151D01*
X0374632Y0451006D01*
X0374572Y0450862D01*
X0374508Y0450720D01*
X0374440Y0450579D01*
X0374369Y0450441D01*
X0374295Y0450304D01*
X0374217Y0450169D01*
X0374136Y0450036D01*
X0374051Y0449905D01*
X0373963Y0449776D01*
X0373872Y0449650D01*
X0373777Y0449526D01*
X0373680Y0449405D01*
X0373579Y0449286D01*
X0373475Y0449169D01*
X0373369Y0449056D01*
X0373259Y0448945D01*
X0373147Y0448837D01*
X0373032Y0448732D01*
X0372914Y0448629D01*
X0372794Y0448530D01*
X0372671Y0448434D01*
X0372546Y0448341D01*
X0372419Y0448252D01*
X0372289Y0448165D01*
X0372157Y0448082D01*
X0372023Y0448003D01*
X0371887Y0447926D01*
X0371749Y0447854D01*
X0371610Y0447784D01*
X0371468Y0447719D01*
X0371325Y0447657D01*
X0371181Y0447599D01*
X0371035Y0447544D01*
X0370887Y0447493D01*
X0370739Y0447446D01*
X0370589Y0447403D01*
X0370438Y0447364D01*
X0370286Y0447328D01*
X0370134Y0447297D01*
X0369980Y0447269D01*
X0369826Y0447245D01*
X0369672Y0447225D01*
X0369517Y0447209D01*
X0369361Y0447197D01*
X0369206Y0447189D01*
X0369050Y0447185D01*
X0368894Y0447185D01*
X0368738Y0447189D01*
X0368583Y0447197D01*
X0368427Y0447209D01*
X0368272Y0447225D01*
X0368118Y0447245D01*
X0367964Y0447269D01*
X0367810Y0447297D01*
X0367658Y0447328D01*
X0367506Y0447364D01*
X0367355Y0447403D01*
X0367205Y0447446D01*
X0367057Y0447493D01*
X0366909Y0447544D01*
X0366763Y0447599D01*
X0366619Y0447657D01*
X0366476Y0447719D01*
X0366334Y0447784D01*
X0366195Y0447854D01*
X0366057Y0447926D01*
X0365921Y0448003D01*
X0365787Y0448082D01*
X0365655Y0448165D01*
X0365525Y0448252D01*
X0365398Y0448341D01*
X0365273Y0448434D01*
X0365150Y0448530D01*
X0365030Y0448629D01*
X0364912Y0448732D01*
X0364797Y0448837D01*
X0364685Y0448945D01*
X0364575Y0449056D01*
X0364469Y0449169D01*
X0364365Y0449286D01*
X0364264Y0449405D01*
X0364167Y0449526D01*
X0364072Y0449650D01*
X0363981Y0449776D01*
X0363893Y0449905D01*
X0363808Y0450036D01*
X0363727Y0450169D01*
X0363649Y0450304D01*
X0363575Y0450441D01*
X0363504Y0450579D01*
X0363436Y0450720D01*
X0363372Y0450862D01*
X0363312Y0451006D01*
X0363256Y0451151D01*
X0363203Y0451298D01*
X0363154Y0451446D01*
X0363109Y0451595D01*
X0363068Y0451745D01*
X0363031Y0451897D01*
X0362997Y0452049D01*
X0362967Y0452202D01*
X0362942Y0452356D01*
X0362920Y0452510D01*
X0362902Y0452665D01*
X0362888Y0452820D01*
X0362878Y0452975D01*
X0362872Y0453131D01*
X0362870Y0453287D01*
X0091216Y0453287D02*
X0091218Y0453443D01*
X0091224Y0453599D01*
X0091234Y0453754D01*
X0091248Y0453909D01*
X0091266Y0454064D01*
X0091288Y0454218D01*
X0091313Y0454372D01*
X0091343Y0454525D01*
X0091377Y0454677D01*
X0091414Y0454829D01*
X0091455Y0454979D01*
X0091500Y0455128D01*
X0091549Y0455276D01*
X0091602Y0455423D01*
X0091658Y0455568D01*
X0091718Y0455712D01*
X0091782Y0455854D01*
X0091850Y0455995D01*
X0091921Y0456133D01*
X0091995Y0456270D01*
X0092073Y0456405D01*
X0092154Y0456538D01*
X0092239Y0456669D01*
X0092327Y0456798D01*
X0092418Y0456924D01*
X0092513Y0457048D01*
X0092610Y0457169D01*
X0092711Y0457288D01*
X0092815Y0457405D01*
X0092921Y0457518D01*
X0093031Y0457629D01*
X0093143Y0457737D01*
X0093258Y0457842D01*
X0093376Y0457945D01*
X0093496Y0458044D01*
X0093619Y0458140D01*
X0093744Y0458233D01*
X0093871Y0458322D01*
X0094001Y0458409D01*
X0094133Y0458492D01*
X0094267Y0458571D01*
X0094403Y0458648D01*
X0094541Y0458720D01*
X0094680Y0458790D01*
X0094822Y0458855D01*
X0094965Y0458917D01*
X0095109Y0458975D01*
X0095255Y0459030D01*
X0095403Y0459081D01*
X0095551Y0459128D01*
X0095701Y0459171D01*
X0095852Y0459210D01*
X0096004Y0459246D01*
X0096156Y0459277D01*
X0096310Y0459305D01*
X0096464Y0459329D01*
X0096618Y0459349D01*
X0096773Y0459365D01*
X0096929Y0459377D01*
X0097084Y0459385D01*
X0097240Y0459389D01*
X0097396Y0459389D01*
X0097552Y0459385D01*
X0097707Y0459377D01*
X0097863Y0459365D01*
X0098018Y0459349D01*
X0098172Y0459329D01*
X0098326Y0459305D01*
X0098480Y0459277D01*
X0098632Y0459246D01*
X0098784Y0459210D01*
X0098935Y0459171D01*
X0099085Y0459128D01*
X0099233Y0459081D01*
X0099381Y0459030D01*
X0099527Y0458975D01*
X0099671Y0458917D01*
X0099814Y0458855D01*
X0099956Y0458790D01*
X0100095Y0458720D01*
X0100233Y0458648D01*
X0100369Y0458571D01*
X0100503Y0458492D01*
X0100635Y0458409D01*
X0100765Y0458322D01*
X0100892Y0458233D01*
X0101017Y0458140D01*
X0101140Y0458044D01*
X0101260Y0457945D01*
X0101378Y0457842D01*
X0101493Y0457737D01*
X0101605Y0457629D01*
X0101715Y0457518D01*
X0101821Y0457405D01*
X0101925Y0457288D01*
X0102026Y0457169D01*
X0102123Y0457048D01*
X0102218Y0456924D01*
X0102309Y0456798D01*
X0102397Y0456669D01*
X0102482Y0456538D01*
X0102563Y0456405D01*
X0102641Y0456270D01*
X0102715Y0456133D01*
X0102786Y0455995D01*
X0102854Y0455854D01*
X0102918Y0455712D01*
X0102978Y0455568D01*
X0103034Y0455423D01*
X0103087Y0455276D01*
X0103136Y0455128D01*
X0103181Y0454979D01*
X0103222Y0454829D01*
X0103259Y0454677D01*
X0103293Y0454525D01*
X0103323Y0454372D01*
X0103348Y0454218D01*
X0103370Y0454064D01*
X0103388Y0453909D01*
X0103402Y0453754D01*
X0103412Y0453599D01*
X0103418Y0453443D01*
X0103420Y0453287D01*
X0103418Y0453131D01*
X0103412Y0452975D01*
X0103402Y0452820D01*
X0103388Y0452665D01*
X0103370Y0452510D01*
X0103348Y0452356D01*
X0103323Y0452202D01*
X0103293Y0452049D01*
X0103259Y0451897D01*
X0103222Y0451745D01*
X0103181Y0451595D01*
X0103136Y0451446D01*
X0103087Y0451298D01*
X0103034Y0451151D01*
X0102978Y0451006D01*
X0102918Y0450862D01*
X0102854Y0450720D01*
X0102786Y0450579D01*
X0102715Y0450441D01*
X0102641Y0450304D01*
X0102563Y0450169D01*
X0102482Y0450036D01*
X0102397Y0449905D01*
X0102309Y0449776D01*
X0102218Y0449650D01*
X0102123Y0449526D01*
X0102026Y0449405D01*
X0101925Y0449286D01*
X0101821Y0449169D01*
X0101715Y0449056D01*
X0101605Y0448945D01*
X0101493Y0448837D01*
X0101378Y0448732D01*
X0101260Y0448629D01*
X0101140Y0448530D01*
X0101017Y0448434D01*
X0100892Y0448341D01*
X0100765Y0448252D01*
X0100635Y0448165D01*
X0100503Y0448082D01*
X0100369Y0448003D01*
X0100233Y0447926D01*
X0100095Y0447854D01*
X0099956Y0447784D01*
X0099814Y0447719D01*
X0099671Y0447657D01*
X0099527Y0447599D01*
X0099381Y0447544D01*
X0099233Y0447493D01*
X0099085Y0447446D01*
X0098935Y0447403D01*
X0098784Y0447364D01*
X0098632Y0447328D01*
X0098480Y0447297D01*
X0098326Y0447269D01*
X0098172Y0447245D01*
X0098018Y0447225D01*
X0097863Y0447209D01*
X0097707Y0447197D01*
X0097552Y0447189D01*
X0097396Y0447185D01*
X0097240Y0447185D01*
X0097084Y0447189D01*
X0096929Y0447197D01*
X0096773Y0447209D01*
X0096618Y0447225D01*
X0096464Y0447245D01*
X0096310Y0447269D01*
X0096156Y0447297D01*
X0096004Y0447328D01*
X0095852Y0447364D01*
X0095701Y0447403D01*
X0095551Y0447446D01*
X0095403Y0447493D01*
X0095255Y0447544D01*
X0095109Y0447599D01*
X0094965Y0447657D01*
X0094822Y0447719D01*
X0094680Y0447784D01*
X0094541Y0447854D01*
X0094403Y0447926D01*
X0094267Y0448003D01*
X0094133Y0448082D01*
X0094001Y0448165D01*
X0093871Y0448252D01*
X0093744Y0448341D01*
X0093619Y0448434D01*
X0093496Y0448530D01*
X0093376Y0448629D01*
X0093258Y0448732D01*
X0093143Y0448837D01*
X0093031Y0448945D01*
X0092921Y0449056D01*
X0092815Y0449169D01*
X0092711Y0449286D01*
X0092610Y0449405D01*
X0092513Y0449526D01*
X0092418Y0449650D01*
X0092327Y0449776D01*
X0092239Y0449905D01*
X0092154Y0450036D01*
X0092073Y0450169D01*
X0091995Y0450304D01*
X0091921Y0450441D01*
X0091850Y0450579D01*
X0091782Y0450720D01*
X0091718Y0450862D01*
X0091658Y0451006D01*
X0091602Y0451151D01*
X0091549Y0451298D01*
X0091500Y0451446D01*
X0091455Y0451595D01*
X0091414Y0451745D01*
X0091377Y0451897D01*
X0091343Y0452049D01*
X0091313Y0452202D01*
X0091288Y0452356D01*
X0091266Y0452510D01*
X0091248Y0452665D01*
X0091234Y0452820D01*
X0091224Y0452975D01*
X0091218Y0453131D01*
X0091216Y0453287D01*
D11*
X0103433Y0346982D02*
X0106834Y0346982D01*
X0106834Y0344179D02*
X0103433Y0344179D01*
X0108732Y0326031D02*
X0108732Y0322629D01*
X0111535Y0322629D02*
X0111535Y0326031D01*
X0111535Y0313531D02*
X0111535Y0310129D01*
X0108732Y0310129D02*
X0108732Y0313531D01*
X0118732Y0306031D02*
X0118732Y0302629D01*
X0121535Y0302629D02*
X0121535Y0306031D01*
X0130933Y0305732D02*
X0134334Y0305732D01*
X0134334Y0302929D02*
X0130933Y0302929D01*
X0124334Y0325429D02*
X0120933Y0325429D01*
X0120933Y0328232D02*
X0124334Y0328232D01*
X0153883Y0279281D02*
X0163883Y0279281D01*
X0163883Y0266879D01*
X0153883Y0266879D01*
X0153883Y0279281D01*
X0155183Y0279580D02*
X0162584Y0279580D01*
X0173234Y0278592D02*
X0179533Y0278592D01*
X0179533Y0267568D01*
X0173234Y0267568D01*
X0173234Y0278592D01*
X0181813Y0279448D02*
X0186083Y0283718D01*
X0183948Y0283718D02*
X0183948Y0279448D01*
X0186083Y0279448D02*
X0181813Y0283718D01*
X0181813Y0281583D02*
X0186083Y0281583D01*
X0194982Y0274781D02*
X0194982Y0271379D01*
X0197785Y0271379D02*
X0197785Y0274781D01*
X0219982Y0266031D02*
X0219982Y0262629D01*
X0222785Y0262629D02*
X0222785Y0266031D01*
X0227033Y0264980D02*
X0227033Y0268180D01*
X0229233Y0268180D01*
X0227033Y0268180D02*
X0227033Y0262980D01*
X0238233Y0262980D01*
X0238233Y0268180D01*
X0236033Y0268180D01*
X0238233Y0268180D02*
X0238233Y0264980D01*
X0238233Y0268180D02*
X0227033Y0268180D01*
X0245563Y0303198D02*
X0249833Y0307468D01*
X0247698Y0307468D02*
X0247698Y0303198D01*
X0249833Y0303198D02*
X0245563Y0307468D01*
X0245563Y0305333D02*
X0249833Y0305333D01*
X0264183Y0293536D02*
X0264183Y0288198D01*
X0265251Y0287130D01*
X0267386Y0287130D01*
X0268454Y0288198D01*
X0268454Y0293536D01*
X0270629Y0290333D02*
X0274899Y0290333D01*
X0273832Y0287130D02*
X0273832Y0293536D01*
X0270629Y0290333D01*
X0224035Y0308879D02*
X0224035Y0312281D01*
X0221232Y0312281D02*
X0221232Y0308879D01*
X0162584Y0266580D02*
X0155183Y0266580D01*
X0125733Y0264980D02*
X0125733Y0268180D01*
X0123533Y0268180D01*
X0125733Y0268180D02*
X0125733Y0262980D01*
X0114533Y0262980D01*
X0114533Y0268180D01*
X0116733Y0268180D01*
X0114533Y0268180D02*
X0114533Y0264980D01*
X0111535Y0263879D02*
X0111535Y0267281D01*
X0108732Y0267281D02*
X0108732Y0263879D01*
X0114533Y0268180D02*
X0125733Y0268180D01*
X0114334Y0251982D02*
X0110933Y0251982D01*
X0110933Y0249179D02*
X0114334Y0249179D01*
X0139683Y0219482D02*
X0143084Y0219482D01*
X0143084Y0216679D02*
X0139683Y0216679D01*
X0139833Y0199786D02*
X0139833Y0194448D01*
X0138766Y0193380D01*
X0136631Y0193380D01*
X0135563Y0194448D01*
X0135563Y0199786D01*
X0133388Y0197651D02*
X0131253Y0199786D01*
X0131253Y0193380D01*
X0133388Y0193380D02*
X0129118Y0193380D01*
X0186751Y0181545D02*
X0186751Y0179616D01*
X0188515Y0179616D02*
X0188515Y0181545D01*
X0193133Y0185830D02*
X0193133Y0142830D01*
X0193135Y0142770D01*
X0193140Y0142709D01*
X0193149Y0142650D01*
X0193162Y0142591D01*
X0193178Y0142532D01*
X0193198Y0142475D01*
X0193221Y0142420D01*
X0193248Y0142365D01*
X0193277Y0142313D01*
X0193310Y0142262D01*
X0193346Y0142213D01*
X0193384Y0142167D01*
X0193426Y0142123D01*
X0193470Y0142081D01*
X0193516Y0142043D01*
X0193565Y0142007D01*
X0193616Y0141974D01*
X0193668Y0141945D01*
X0193723Y0141918D01*
X0193778Y0141895D01*
X0193835Y0141875D01*
X0193894Y0141859D01*
X0193953Y0141846D01*
X0194012Y0141837D01*
X0194073Y0141832D01*
X0194133Y0141830D01*
X0198133Y0141830D01*
X0201133Y0141830D01*
X0201133Y0138830D01*
X0204133Y0138830D01*
X0204133Y0141830D01*
X0207133Y0141830D01*
X0211133Y0141830D01*
X0211193Y0141832D01*
X0211254Y0141837D01*
X0211313Y0141846D01*
X0211372Y0141859D01*
X0211431Y0141875D01*
X0211488Y0141895D01*
X0211543Y0141918D01*
X0211598Y0141945D01*
X0211650Y0141974D01*
X0211701Y0142007D01*
X0211750Y0142043D01*
X0211796Y0142081D01*
X0211840Y0142123D01*
X0211882Y0142167D01*
X0211920Y0142213D01*
X0211956Y0142262D01*
X0211989Y0142313D01*
X0212018Y0142365D01*
X0212045Y0142420D01*
X0212068Y0142475D01*
X0212088Y0142532D01*
X0212104Y0142591D01*
X0212117Y0142650D01*
X0212126Y0142709D01*
X0212131Y0142770D01*
X0212133Y0142830D01*
X0212133Y0185830D01*
X0212131Y0185890D01*
X0212126Y0185951D01*
X0212117Y0186010D01*
X0212104Y0186069D01*
X0212088Y0186128D01*
X0212068Y0186185D01*
X0212045Y0186240D01*
X0212018Y0186295D01*
X0211989Y0186347D01*
X0211956Y0186398D01*
X0211920Y0186447D01*
X0211882Y0186493D01*
X0211840Y0186537D01*
X0211796Y0186579D01*
X0211750Y0186617D01*
X0211701Y0186653D01*
X0211650Y0186686D01*
X0211598Y0186715D01*
X0211543Y0186742D01*
X0211488Y0186765D01*
X0211431Y0186785D01*
X0211372Y0186801D01*
X0211313Y0186814D01*
X0211254Y0186823D01*
X0211193Y0186828D01*
X0211133Y0186830D01*
X0207133Y0186830D01*
X0198133Y0186830D01*
X0194133Y0186830D01*
X0194073Y0186828D01*
X0194012Y0186823D01*
X0193953Y0186814D01*
X0193894Y0186801D01*
X0193835Y0186785D01*
X0193778Y0186765D01*
X0193723Y0186742D01*
X0193668Y0186715D01*
X0193616Y0186686D01*
X0193565Y0186653D01*
X0193516Y0186617D01*
X0193470Y0186579D01*
X0193426Y0186537D01*
X0193384Y0186493D01*
X0193346Y0186447D01*
X0193310Y0186398D01*
X0193277Y0186347D01*
X0193248Y0186295D01*
X0193221Y0186240D01*
X0193198Y0186185D01*
X0193178Y0186128D01*
X0193162Y0186069D01*
X0193149Y0186010D01*
X0193140Y0185951D01*
X0193135Y0185890D01*
X0193133Y0185830D01*
X0201133Y0186830D02*
X0201133Y0189830D01*
X0204133Y0189830D01*
X0204133Y0186830D01*
X0219118Y0179968D02*
X0219118Y0178901D01*
X0220185Y0177833D01*
X0219118Y0176765D01*
X0219118Y0175698D01*
X0220185Y0174630D01*
X0222320Y0174630D01*
X0223388Y0175698D01*
X0225563Y0175698D02*
X0225563Y0181036D01*
X0223388Y0179968D02*
X0222320Y0181036D01*
X0220185Y0181036D01*
X0219118Y0179968D01*
X0220185Y0177833D02*
X0221253Y0177833D01*
X0225563Y0175698D02*
X0226631Y0174630D01*
X0228766Y0174630D01*
X0229833Y0175698D01*
X0229833Y0181036D01*
X0229035Y0157281D02*
X0229035Y0153879D01*
X0226232Y0153879D02*
X0226232Y0157281D01*
X0225584Y0153232D02*
X0222183Y0153232D01*
X0222183Y0150429D02*
X0225584Y0150429D01*
X0234982Y0153879D02*
X0234982Y0157281D01*
X0237785Y0157281D02*
X0237785Y0153879D01*
X0238433Y0153232D02*
X0241834Y0153232D01*
X0241834Y0150429D02*
X0238433Y0150429D01*
X0264683Y0172929D02*
X0268084Y0172929D01*
X0268084Y0175732D02*
X0264683Y0175732D01*
X0264683Y0182929D02*
X0268084Y0182929D01*
X0268084Y0185732D02*
X0264683Y0185732D01*
X0266033Y0194230D02*
X0268233Y0194230D01*
X0268233Y0197430D01*
X0268233Y0199430D02*
X0257033Y0199430D01*
X0257033Y0194230D01*
X0259233Y0194230D01*
X0257033Y0194230D02*
X0257033Y0197430D01*
X0257033Y0194230D02*
X0268233Y0194230D01*
X0268233Y0199430D01*
X0205133Y0166830D02*
X0202633Y0166830D01*
X0200133Y0166830D01*
X0200133Y0165330D02*
X0205133Y0165330D01*
X0205133Y0163330D01*
X0200133Y0163330D01*
X0200133Y0165330D01*
X0200133Y0161830D02*
X0202633Y0161830D01*
X0205133Y0161830D01*
X0204133Y0141830D02*
X0201133Y0141830D01*
X0188515Y0147116D02*
X0188515Y0149045D01*
X0186751Y0149045D02*
X0186751Y0147116D01*
X0344982Y0203879D02*
X0344982Y0207281D01*
X0347785Y0207281D02*
X0347785Y0203879D01*
X0362183Y0214179D02*
X0365584Y0214179D01*
X0365584Y0216982D02*
X0362183Y0216982D01*
X0362183Y0224179D02*
X0365584Y0224179D01*
X0365584Y0226982D02*
X0362183Y0226982D01*
X0348084Y0235429D02*
X0344683Y0235429D01*
X0344683Y0238232D02*
X0348084Y0238232D01*
X0368732Y0198531D02*
X0368732Y0195129D01*
X0371535Y0195129D02*
X0371535Y0198531D01*
X0378732Y0198531D02*
X0378732Y0195129D01*
X0381535Y0195129D02*
X0381535Y0198531D01*
X0342785Y0348879D02*
X0342785Y0352281D01*
X0339982Y0352281D02*
X0339982Y0348879D01*
X0330584Y0347929D02*
X0327183Y0347929D01*
X0327183Y0350732D02*
X0330584Y0350732D01*
X0330584Y0357929D02*
X0327183Y0357929D01*
X0327183Y0360732D02*
X0330584Y0360732D01*
X0234035Y0405129D02*
X0234035Y0408531D01*
X0231232Y0408531D02*
X0231232Y0405129D01*
D12*
X0240333Y0404134D02*
X0243403Y0407203D01*
X0244170Y0407203D01*
X0244937Y0406436D01*
X0244937Y0404901D01*
X0244170Y0404134D01*
X0244170Y0402599D02*
X0242635Y0402599D01*
X0241868Y0401832D01*
X0241868Y0399530D01*
X0240333Y0399530D02*
X0244937Y0399530D01*
X0244937Y0401832D01*
X0244170Y0402599D01*
X0241868Y0401065D02*
X0240333Y0402599D01*
X0240333Y0404134D02*
X0240333Y0407203D01*
X0242635Y0408738D02*
X0242635Y0411807D01*
X0240333Y0411040D02*
X0244937Y0411040D01*
X0242635Y0408738D01*
X0235488Y0389458D02*
X0229779Y0389458D01*
X0229779Y0386702D02*
X0235488Y0386702D01*
X0235488Y0455452D02*
X0229779Y0455452D01*
X0229779Y0458208D02*
X0235488Y0458208D01*
X0322174Y0371634D02*
X0321406Y0370867D01*
X0321406Y0370099D01*
X0322174Y0369332D01*
X0323708Y0369332D01*
X0324475Y0370099D01*
X0324475Y0370867D01*
X0323708Y0371634D01*
X0322174Y0371634D01*
X0322174Y0369332D02*
X0321406Y0368565D01*
X0321406Y0367798D01*
X0322174Y0367030D01*
X0323708Y0367030D01*
X0324475Y0367798D01*
X0324475Y0368565D01*
X0323708Y0369332D01*
X0326010Y0369332D02*
X0329079Y0369332D01*
X0326777Y0371634D01*
X0326777Y0367030D01*
X0330614Y0367030D02*
X0332149Y0368565D01*
X0331381Y0368565D02*
X0333683Y0368565D01*
X0333683Y0367030D02*
X0333683Y0371634D01*
X0331381Y0371634D01*
X0330614Y0370867D01*
X0330614Y0369332D01*
X0331381Y0368565D01*
X0346583Y0353478D02*
X0346583Y0351944D01*
X0347351Y0351176D01*
X0350420Y0354246D01*
X0347351Y0354246D01*
X0346583Y0353478D01*
X0347351Y0351176D02*
X0350420Y0351176D01*
X0351187Y0351944D01*
X0351187Y0353478D01*
X0350420Y0354246D01*
X0351187Y0349642D02*
X0351187Y0346572D01*
X0348885Y0346572D01*
X0349653Y0348107D01*
X0349653Y0348874D01*
X0348885Y0349642D01*
X0347351Y0349642D01*
X0346583Y0348874D01*
X0346583Y0347340D01*
X0347351Y0346572D01*
X0346583Y0345038D02*
X0348118Y0343503D01*
X0348118Y0344270D02*
X0348118Y0341968D01*
X0346583Y0341968D02*
X0351187Y0341968D01*
X0351187Y0344270D01*
X0350420Y0345038D01*
X0348885Y0345038D01*
X0348118Y0344270D01*
X0332433Y0341634D02*
X0332433Y0337030D01*
X0332433Y0338565D02*
X0330131Y0338565D01*
X0329364Y0339332D01*
X0329364Y0340867D01*
X0330131Y0341634D01*
X0332433Y0341634D01*
X0330899Y0338565D02*
X0329364Y0337030D01*
X0327829Y0339332D02*
X0324760Y0339332D01*
X0323225Y0340099D02*
X0323225Y0340867D01*
X0322458Y0341634D01*
X0320924Y0341634D01*
X0320156Y0340867D01*
X0320156Y0337798D01*
X0320924Y0337030D01*
X0322458Y0337030D01*
X0323225Y0337798D01*
X0322458Y0339332D02*
X0320156Y0339332D01*
X0322458Y0339332D02*
X0323225Y0340099D01*
X0325527Y0341634D02*
X0327829Y0339332D01*
X0325527Y0337030D02*
X0325527Y0341634D01*
X0342235Y0247884D02*
X0341468Y0247117D01*
X0341468Y0246349D01*
X0342235Y0245582D01*
X0343770Y0245582D01*
X0344537Y0246349D01*
X0344537Y0247117D01*
X0343770Y0247884D01*
X0342235Y0247884D01*
X0342235Y0245582D02*
X0341468Y0244815D01*
X0341468Y0244048D01*
X0342235Y0243280D01*
X0343770Y0243280D01*
X0344537Y0244048D01*
X0344537Y0244815D01*
X0343770Y0245582D01*
X0346072Y0246349D02*
X0346072Y0247117D01*
X0346839Y0247884D01*
X0348374Y0247884D01*
X0349141Y0247117D01*
X0350676Y0247117D02*
X0350676Y0245582D01*
X0351443Y0244815D01*
X0353745Y0244815D01*
X0352210Y0244815D02*
X0350676Y0243280D01*
X0349141Y0243280D02*
X0346072Y0246349D01*
X0346072Y0243280D02*
X0349141Y0243280D01*
X0350676Y0247117D02*
X0351443Y0247884D01*
X0353745Y0247884D01*
X0353745Y0243280D01*
X0357174Y0235384D02*
X0358708Y0235384D01*
X0359475Y0234617D01*
X0359475Y0233849D01*
X0358708Y0233082D01*
X0356406Y0233082D01*
X0356406Y0231548D02*
X0356406Y0234617D01*
X0357174Y0235384D01*
X0361010Y0234617D02*
X0361777Y0235384D01*
X0363312Y0235384D01*
X0364079Y0234617D01*
X0365614Y0234617D02*
X0366381Y0235384D01*
X0368683Y0235384D01*
X0368683Y0230780D01*
X0368683Y0232315D02*
X0366381Y0232315D01*
X0365614Y0233082D01*
X0365614Y0234617D01*
X0367149Y0232315D02*
X0365614Y0230780D01*
X0364079Y0230780D02*
X0361010Y0233849D01*
X0361010Y0234617D01*
X0359475Y0231548D02*
X0358708Y0230780D01*
X0357174Y0230780D01*
X0356406Y0231548D01*
X0361010Y0230780D02*
X0364079Y0230780D01*
X0371406Y0216634D02*
X0371406Y0215867D01*
X0374475Y0212798D01*
X0374475Y0212030D01*
X0376010Y0212030D02*
X0379079Y0212030D01*
X0376010Y0215099D01*
X0376010Y0215867D01*
X0376777Y0216634D01*
X0378312Y0216634D01*
X0379079Y0215867D01*
X0380614Y0215867D02*
X0380614Y0214332D01*
X0381381Y0213565D01*
X0383683Y0213565D01*
X0382149Y0213565D02*
X0380614Y0212030D01*
X0383683Y0212030D02*
X0383683Y0216634D01*
X0381381Y0216634D01*
X0380614Y0215867D01*
X0374475Y0216634D02*
X0371406Y0216634D01*
X0357437Y0211807D02*
X0357437Y0208738D01*
X0355135Y0208738D01*
X0355903Y0210273D01*
X0355903Y0211040D01*
X0355135Y0211807D01*
X0353601Y0211807D01*
X0352833Y0211040D01*
X0352833Y0209505D01*
X0353601Y0208738D01*
X0352833Y0207203D02*
X0352833Y0204134D01*
X0352833Y0202599D02*
X0354368Y0201065D01*
X0354368Y0201832D02*
X0354368Y0199530D01*
X0352833Y0199530D02*
X0357437Y0199530D01*
X0357437Y0201832D01*
X0356670Y0202599D01*
X0355135Y0202599D01*
X0354368Y0201832D01*
X0355903Y0204134D02*
X0357437Y0205669D01*
X0352833Y0205669D01*
X0344238Y0194458D02*
X0338529Y0194458D01*
X0338529Y0191702D02*
X0344238Y0191702D01*
X0339011Y0202726D02*
X0339011Y0208435D01*
X0336255Y0208435D02*
X0336255Y0202726D01*
X0336511Y0220226D02*
X0336511Y0225935D01*
X0333755Y0225935D02*
X0333755Y0220226D01*
X0341255Y0220226D02*
X0341255Y0225935D01*
X0344011Y0225935D02*
X0344011Y0220226D01*
X0367351Y0181807D02*
X0366583Y0181040D01*
X0366583Y0179505D01*
X0367351Y0178738D01*
X0366583Y0177203D02*
X0366583Y0174134D01*
X0366583Y0172599D02*
X0368118Y0171065D01*
X0368118Y0171832D02*
X0368118Y0169530D01*
X0366583Y0169530D02*
X0371187Y0169530D01*
X0371187Y0171832D01*
X0370420Y0172599D01*
X0368885Y0172599D01*
X0368118Y0171832D01*
X0369653Y0174134D02*
X0371187Y0175669D01*
X0366583Y0175669D01*
X0370420Y0178738D02*
X0371187Y0179505D01*
X0371187Y0181040D01*
X0370420Y0181807D01*
X0369653Y0181807D01*
X0368885Y0181040D01*
X0368118Y0181807D01*
X0367351Y0181807D01*
X0368885Y0181040D02*
X0368885Y0180273D01*
X0376583Y0181807D02*
X0376583Y0178738D01*
X0379653Y0181807D01*
X0380420Y0181807D01*
X0381187Y0181040D01*
X0381187Y0179505D01*
X0380420Y0178738D01*
X0381187Y0175669D02*
X0376583Y0175669D01*
X0376583Y0177203D02*
X0376583Y0174134D01*
X0376583Y0172599D02*
X0378118Y0171065D01*
X0378118Y0171832D02*
X0378118Y0169530D01*
X0376583Y0169530D02*
X0381187Y0169530D01*
X0381187Y0171832D01*
X0380420Y0172599D01*
X0378885Y0172599D01*
X0378118Y0171832D01*
X0379653Y0174134D02*
X0381187Y0175669D01*
X0288745Y0180780D02*
X0288745Y0185384D01*
X0286443Y0185384D01*
X0285676Y0184617D01*
X0285676Y0183082D01*
X0286443Y0182315D01*
X0288745Y0182315D01*
X0287210Y0182315D02*
X0285676Y0180780D01*
X0284141Y0180780D02*
X0281072Y0180780D01*
X0282607Y0180780D02*
X0282607Y0185384D01*
X0284141Y0183849D01*
X0279537Y0184617D02*
X0279537Y0181548D01*
X0276468Y0184617D01*
X0276468Y0181548D01*
X0277235Y0180780D01*
X0278770Y0180780D01*
X0279537Y0181548D01*
X0279537Y0184617D02*
X0278770Y0185384D01*
X0277235Y0185384D01*
X0276468Y0184617D01*
X0276468Y0177884D02*
X0276468Y0177117D01*
X0279537Y0174048D01*
X0279537Y0173280D01*
X0281072Y0173280D02*
X0282607Y0174815D01*
X0281839Y0174815D02*
X0284141Y0174815D01*
X0284141Y0173280D02*
X0284141Y0177884D01*
X0281839Y0177884D01*
X0281072Y0177117D01*
X0281072Y0175582D01*
X0281839Y0174815D01*
X0279537Y0177884D02*
X0276468Y0177884D01*
X0254238Y0160708D02*
X0248529Y0160708D01*
X0248529Y0157952D02*
X0254238Y0157952D01*
X0254170Y0148453D02*
X0253403Y0148453D01*
X0252635Y0147686D01*
X0252635Y0146151D01*
X0253403Y0145384D01*
X0254170Y0145384D01*
X0254937Y0146151D01*
X0254937Y0147686D01*
X0254170Y0148453D01*
X0252635Y0147686D02*
X0251868Y0148453D01*
X0251101Y0148453D01*
X0250333Y0147686D01*
X0250333Y0146151D01*
X0251101Y0145384D01*
X0251868Y0145384D01*
X0252635Y0146151D01*
X0252635Y0143849D02*
X0251868Y0143082D01*
X0251868Y0140780D01*
X0250333Y0140780D02*
X0254937Y0140780D01*
X0254937Y0143082D01*
X0254170Y0143849D01*
X0252635Y0143849D01*
X0251868Y0142315D02*
X0250333Y0143849D01*
X0247891Y0143565D02*
X0245589Y0143565D01*
X0244822Y0144332D01*
X0244822Y0145867D01*
X0245589Y0146634D01*
X0247891Y0146634D01*
X0247891Y0142030D01*
X0246357Y0143565D02*
X0244822Y0142030D01*
X0243287Y0142798D02*
X0242520Y0142030D01*
X0240985Y0142030D01*
X0240218Y0142798D01*
X0240218Y0144332D01*
X0240985Y0145099D01*
X0241753Y0145099D01*
X0243287Y0144332D01*
X0243287Y0146634D01*
X0240218Y0146634D01*
X0221183Y0140384D02*
X0221183Y0135780D01*
X0221183Y0137315D02*
X0218881Y0137315D01*
X0218114Y0138082D01*
X0218114Y0139617D01*
X0218881Y0140384D01*
X0221183Y0140384D01*
X0219649Y0137315D02*
X0218114Y0135780D01*
X0216579Y0136548D02*
X0215812Y0135780D01*
X0214277Y0135780D01*
X0213510Y0136548D01*
X0213510Y0137315D01*
X0214277Y0138082D01*
X0216579Y0138082D01*
X0216579Y0136548D01*
X0216579Y0138082D02*
X0215045Y0139617D01*
X0213510Y0140384D01*
X0215527Y0157030D02*
X0214760Y0157798D01*
X0214760Y0160867D01*
X0215527Y0161634D01*
X0217062Y0161634D01*
X0217829Y0160867D01*
X0217829Y0160099D01*
X0217062Y0159332D01*
X0214760Y0159332D01*
X0215527Y0157030D02*
X0217062Y0157030D01*
X0217829Y0157798D01*
X0219364Y0157030D02*
X0220899Y0158565D01*
X0220131Y0158565D02*
X0222433Y0158565D01*
X0222433Y0157030D02*
X0222433Y0161634D01*
X0220131Y0161634D01*
X0219364Y0160867D01*
X0219364Y0159332D01*
X0220131Y0158565D01*
X0222505Y0201476D02*
X0222505Y0207185D01*
X0225261Y0207185D02*
X0225261Y0201476D01*
X0232505Y0201476D02*
X0232505Y0207185D01*
X0235261Y0207185D02*
X0235261Y0201476D01*
X0241255Y0201476D02*
X0241255Y0207185D01*
X0244011Y0207185D02*
X0244011Y0201476D01*
X0216511Y0201476D02*
X0216511Y0207185D01*
X0213755Y0207185D02*
X0213755Y0201476D01*
X0181187Y0182228D02*
X0180420Y0182996D01*
X0179653Y0182996D01*
X0178885Y0182228D01*
X0178885Y0180694D01*
X0179653Y0179926D01*
X0180420Y0179926D01*
X0181187Y0180694D01*
X0181187Y0182228D01*
X0178885Y0182228D02*
X0178118Y0182996D01*
X0177351Y0182996D01*
X0176583Y0182228D01*
X0176583Y0180694D01*
X0177351Y0179926D01*
X0178118Y0179926D01*
X0178885Y0180694D01*
X0177351Y0178392D02*
X0176583Y0177624D01*
X0176583Y0176090D01*
X0177351Y0175322D01*
X0180420Y0175322D01*
X0181187Y0176090D01*
X0181187Y0177624D01*
X0180420Y0178392D01*
X0181670Y0152203D02*
X0178601Y0149134D01*
X0177833Y0149134D01*
X0178601Y0147599D02*
X0177833Y0146832D01*
X0177833Y0145298D01*
X0178601Y0144530D01*
X0181670Y0144530D01*
X0182437Y0145298D01*
X0182437Y0146832D01*
X0181670Y0147599D01*
X0182437Y0149134D02*
X0182437Y0152203D01*
X0181670Y0152203D01*
X0155261Y0192726D02*
X0155261Y0198435D01*
X0152505Y0198435D02*
X0152505Y0192726D01*
X0152235Y0215780D02*
X0151468Y0216548D01*
X0151468Y0217315D01*
X0152235Y0218082D01*
X0154537Y0218082D01*
X0154537Y0216548D01*
X0153770Y0215780D01*
X0152235Y0215780D01*
X0154537Y0218082D02*
X0153003Y0219617D01*
X0151468Y0220384D01*
X0157607Y0220384D02*
X0157607Y0215780D01*
X0159141Y0215780D02*
X0156072Y0215780D01*
X0159141Y0218849D02*
X0157607Y0220384D01*
X0160676Y0219617D02*
X0160676Y0218082D01*
X0161443Y0217315D01*
X0163745Y0217315D01*
X0162210Y0217315D02*
X0160676Y0215780D01*
X0163745Y0215780D02*
X0163745Y0220384D01*
X0161443Y0220384D01*
X0160676Y0219617D01*
X0173529Y0261702D02*
X0179238Y0261702D01*
X0179238Y0264458D02*
X0173529Y0264458D01*
X0187505Y0270226D02*
X0187505Y0275935D01*
X0190261Y0275935D02*
X0190261Y0270226D01*
X0201583Y0271349D02*
X0203118Y0269815D01*
X0203118Y0270582D02*
X0203118Y0268280D01*
X0201583Y0268280D02*
X0206187Y0268280D01*
X0206187Y0270582D01*
X0205420Y0271349D01*
X0203885Y0271349D01*
X0203118Y0270582D01*
X0203885Y0272884D02*
X0203885Y0275953D01*
X0204653Y0277488D02*
X0206187Y0279023D01*
X0201583Y0279023D01*
X0201583Y0280557D02*
X0201583Y0277488D01*
X0201583Y0275186D02*
X0206187Y0275186D01*
X0203885Y0272884D01*
X0210333Y0265557D02*
X0210333Y0262488D01*
X0213403Y0265557D01*
X0214170Y0265557D01*
X0214937Y0264790D01*
X0214937Y0263255D01*
X0214170Y0262488D01*
X0214170Y0260953D02*
X0214937Y0260186D01*
X0214937Y0258651D01*
X0214170Y0257884D01*
X0214170Y0256349D02*
X0212635Y0256349D01*
X0211868Y0255582D01*
X0211868Y0253280D01*
X0210333Y0253280D02*
X0214937Y0253280D01*
X0214937Y0255582D01*
X0214170Y0256349D01*
X0211868Y0254815D02*
X0210333Y0256349D01*
X0210333Y0257884D02*
X0213403Y0260953D01*
X0214170Y0260953D01*
X0210333Y0260953D02*
X0210333Y0257884D01*
X0224779Y0275452D02*
X0230488Y0275452D01*
X0230488Y0278208D02*
X0224779Y0278208D01*
X0217437Y0301968D02*
X0212833Y0301968D01*
X0214368Y0301968D02*
X0214368Y0304270D01*
X0215135Y0305038D01*
X0216670Y0305038D01*
X0217437Y0304270D01*
X0217437Y0301968D01*
X0214368Y0303503D02*
X0212833Y0305038D01*
X0212833Y0306572D02*
X0215903Y0309642D01*
X0216670Y0309642D01*
X0217437Y0308874D01*
X0217437Y0307340D01*
X0216670Y0306572D01*
X0212833Y0306572D02*
X0212833Y0309642D01*
X0213601Y0311176D02*
X0212833Y0311944D01*
X0212833Y0313478D01*
X0213601Y0314246D01*
X0214368Y0314246D01*
X0215135Y0313478D01*
X0215135Y0312711D01*
X0215135Y0313478D02*
X0215903Y0314246D01*
X0216670Y0314246D01*
X0217437Y0313478D01*
X0217437Y0311944D01*
X0216670Y0311176D01*
X0149937Y0268961D02*
X0145333Y0268961D01*
X0145333Y0267426D02*
X0145333Y0270496D01*
X0148403Y0267426D02*
X0149937Y0268961D01*
X0145333Y0265892D02*
X0145333Y0262822D01*
X0149937Y0262822D01*
X0141245Y0293280D02*
X0141245Y0297884D01*
X0138943Y0297884D01*
X0138176Y0297117D01*
X0138176Y0295582D01*
X0138943Y0294815D01*
X0141245Y0294815D01*
X0139710Y0294815D02*
X0138176Y0293280D01*
X0136641Y0294048D02*
X0135874Y0293280D01*
X0134339Y0293280D01*
X0133572Y0294048D01*
X0133572Y0294815D01*
X0134339Y0295582D01*
X0135107Y0295582D01*
X0134339Y0295582D02*
X0133572Y0296349D01*
X0133572Y0297117D01*
X0134339Y0297884D01*
X0135874Y0297884D01*
X0136641Y0297117D01*
X0132037Y0297117D02*
X0131270Y0297884D01*
X0129735Y0297884D01*
X0128968Y0297117D01*
X0128968Y0296349D01*
X0132037Y0293280D01*
X0128968Y0293280D01*
X0114937Y0293280D02*
X0114937Y0295582D01*
X0114170Y0296349D01*
X0112635Y0296349D01*
X0111868Y0295582D01*
X0111868Y0293280D01*
X0110333Y0293280D02*
X0114937Y0293280D01*
X0111868Y0294815D02*
X0110333Y0296349D01*
X0111101Y0297884D02*
X0110333Y0298651D01*
X0110333Y0300186D01*
X0111101Y0300953D01*
X0111868Y0300953D01*
X0112635Y0300186D01*
X0112635Y0299419D01*
X0112635Y0300186D02*
X0113403Y0300953D01*
X0114170Y0300953D01*
X0114937Y0300186D01*
X0114937Y0298651D01*
X0114170Y0297884D01*
X0112635Y0302488D02*
X0112635Y0305557D01*
X0110333Y0304790D02*
X0114937Y0304790D01*
X0112635Y0302488D01*
X0104937Y0302426D02*
X0102635Y0302426D01*
X0103403Y0303961D01*
X0103403Y0304728D01*
X0102635Y0305496D01*
X0101101Y0305496D01*
X0100333Y0304728D01*
X0100333Y0303194D01*
X0101101Y0302426D01*
X0101101Y0300892D02*
X0100333Y0300124D01*
X0100333Y0298590D01*
X0101101Y0297822D01*
X0100333Y0296288D02*
X0101868Y0294753D01*
X0101868Y0295520D02*
X0101868Y0293218D01*
X0100333Y0293218D02*
X0104937Y0293218D01*
X0104937Y0295520D01*
X0104170Y0296288D01*
X0102635Y0296288D01*
X0101868Y0295520D01*
X0104170Y0297822D02*
X0104937Y0298590D01*
X0104937Y0300124D01*
X0104170Y0300892D01*
X0103403Y0300892D01*
X0102635Y0300124D01*
X0101868Y0300892D01*
X0101101Y0300892D01*
X0102635Y0300124D02*
X0102635Y0299357D01*
X0104937Y0302426D02*
X0104937Y0305496D01*
X0101511Y0321476D02*
X0101511Y0327185D01*
X0098755Y0327185D02*
X0098755Y0321476D01*
X0102279Y0334202D02*
X0107988Y0334202D01*
X0107988Y0336958D02*
X0102279Y0336958D01*
X0103027Y0352030D02*
X0104562Y0352030D01*
X0105329Y0352798D01*
X0106864Y0352030D02*
X0108399Y0353565D01*
X0107631Y0353565D02*
X0109933Y0353565D01*
X0109933Y0352030D02*
X0109933Y0356634D01*
X0107631Y0356634D01*
X0106864Y0355867D01*
X0106864Y0354332D01*
X0107631Y0353565D01*
X0105329Y0355867D02*
X0104562Y0356634D01*
X0103027Y0356634D01*
X0102260Y0355867D01*
X0102260Y0355099D01*
X0103027Y0354332D01*
X0102260Y0353565D01*
X0102260Y0352798D01*
X0103027Y0352030D01*
X0103027Y0354332D02*
X0103795Y0354332D01*
X0100725Y0352798D02*
X0099958Y0352030D01*
X0098424Y0352030D01*
X0097656Y0352798D01*
X0097656Y0353565D01*
X0098424Y0354332D01*
X0099191Y0354332D01*
X0098424Y0354332D02*
X0097656Y0355099D01*
X0097656Y0355867D01*
X0098424Y0356634D01*
X0099958Y0356634D01*
X0100725Y0355867D01*
X0116583Y0342488D02*
X0117351Y0342488D01*
X0120420Y0345557D01*
X0121187Y0345557D01*
X0121187Y0342488D01*
X0120420Y0340953D02*
X0119653Y0340953D01*
X0118885Y0340186D01*
X0118118Y0340953D01*
X0117351Y0340953D01*
X0116583Y0340186D01*
X0116583Y0338651D01*
X0117351Y0337884D01*
X0116583Y0336349D02*
X0118118Y0334815D01*
X0118118Y0335582D02*
X0118118Y0333280D01*
X0116583Y0333280D02*
X0121187Y0333280D01*
X0121187Y0335582D01*
X0120420Y0336349D01*
X0118885Y0336349D01*
X0118118Y0335582D01*
X0120420Y0337884D02*
X0121187Y0338651D01*
X0121187Y0340186D01*
X0120420Y0340953D01*
X0118885Y0340186D02*
X0118885Y0339419D01*
X0125156Y0336634D02*
X0126691Y0335867D01*
X0128225Y0334332D01*
X0125924Y0334332D01*
X0125156Y0333565D01*
X0125156Y0332798D01*
X0125924Y0332030D01*
X0127458Y0332030D01*
X0128225Y0332798D01*
X0128225Y0334332D01*
X0129760Y0333565D02*
X0129760Y0332798D01*
X0130527Y0332030D01*
X0132062Y0332030D01*
X0132829Y0332798D01*
X0134364Y0332030D02*
X0135899Y0333565D01*
X0135131Y0333565D02*
X0137433Y0333565D01*
X0137433Y0332030D02*
X0137433Y0336634D01*
X0135131Y0336634D01*
X0134364Y0335867D01*
X0134364Y0334332D01*
X0135131Y0333565D01*
X0132829Y0335867D02*
X0132062Y0336634D01*
X0130527Y0336634D01*
X0129760Y0335867D01*
X0129760Y0335099D01*
X0130527Y0334332D01*
X0129760Y0333565D01*
X0130527Y0334332D02*
X0131295Y0334332D01*
X0133755Y0319685D02*
X0133755Y0313976D01*
X0136511Y0313976D02*
X0136511Y0319685D01*
X0102920Y0270496D02*
X0102153Y0270496D01*
X0101385Y0269728D01*
X0101385Y0268194D01*
X0102153Y0267426D01*
X0102920Y0267426D01*
X0103687Y0268194D01*
X0103687Y0269728D01*
X0102920Y0270496D01*
X0101385Y0269728D02*
X0100618Y0270496D01*
X0099851Y0270496D01*
X0099083Y0269728D01*
X0099083Y0268194D01*
X0099851Y0267426D01*
X0100618Y0267426D01*
X0101385Y0268194D01*
X0100618Y0265892D02*
X0099851Y0265892D01*
X0099083Y0265124D01*
X0099083Y0263590D01*
X0099851Y0262822D01*
X0099083Y0261288D02*
X0100618Y0259753D01*
X0100618Y0260520D02*
X0100618Y0258218D01*
X0099083Y0258218D02*
X0103687Y0258218D01*
X0103687Y0260520D01*
X0102920Y0261288D01*
X0101385Y0261288D01*
X0100618Y0260520D01*
X0102920Y0262822D02*
X0103687Y0263590D01*
X0103687Y0265124D01*
X0102920Y0265892D01*
X0102153Y0265892D01*
X0101385Y0265124D01*
X0100618Y0265892D01*
X0101385Y0265124D02*
X0101385Y0264357D01*
X0105924Y0245384D02*
X0107458Y0245384D01*
X0108225Y0244617D01*
X0108225Y0243849D01*
X0107458Y0243082D01*
X0105156Y0243082D01*
X0105156Y0241548D02*
X0105156Y0244617D01*
X0105924Y0245384D01*
X0109760Y0244617D02*
X0109760Y0243849D01*
X0110527Y0243082D01*
X0109760Y0242315D01*
X0109760Y0241548D01*
X0110527Y0240780D01*
X0112062Y0240780D01*
X0112829Y0241548D01*
X0114364Y0240780D02*
X0115899Y0242315D01*
X0115131Y0242315D02*
X0117433Y0242315D01*
X0117433Y0240780D02*
X0117433Y0245384D01*
X0115131Y0245384D01*
X0114364Y0244617D01*
X0114364Y0243082D01*
X0115131Y0242315D01*
X0112829Y0244617D02*
X0112062Y0245384D01*
X0110527Y0245384D01*
X0109760Y0244617D01*
X0110527Y0243082D02*
X0111295Y0243082D01*
X0108225Y0241548D02*
X0107458Y0240780D01*
X0105924Y0240780D01*
X0105156Y0241548D01*
D13*
X0173923Y0263080D03*
X0178844Y0263080D03*
X0225173Y0276830D03*
X0230094Y0276830D03*
X0230173Y0388080D03*
X0235094Y0388080D03*
X0235094Y0456830D03*
X0230173Y0456830D03*
X0107594Y0335580D03*
X0102673Y0335580D03*
X0248923Y0159330D03*
X0253844Y0159330D03*
X0338923Y0193080D03*
X0343844Y0193080D03*
D14*
X0343766Y0181992D02*
X0344383Y0181375D01*
X0344383Y0178906D01*
X0343766Y0178289D01*
X0342531Y0178289D01*
X0341914Y0178906D01*
X0340700Y0178289D02*
X0338231Y0178289D01*
X0339465Y0178289D02*
X0339465Y0181992D01*
X0340700Y0180758D01*
X0341914Y0181375D02*
X0342531Y0181992D01*
X0343766Y0181992D01*
X0337017Y0180141D02*
X0335165Y0180141D01*
X0334548Y0179524D01*
X0334548Y0178906D01*
X0335165Y0178289D01*
X0336399Y0178289D01*
X0337017Y0178906D01*
X0337017Y0180141D01*
X0335782Y0181375D01*
X0334548Y0181992D01*
X0319678Y0201331D02*
X0317210Y0201331D01*
X0316592Y0201948D01*
X0316592Y0203182D01*
X0317210Y0203799D01*
X0317210Y0205014D02*
X0316592Y0205631D01*
X0316592Y0206865D01*
X0317210Y0207483D01*
X0317827Y0207483D01*
X0318444Y0206865D01*
X0318444Y0206248D01*
X0318444Y0206865D02*
X0319061Y0207483D01*
X0319678Y0207483D01*
X0320296Y0206865D01*
X0320296Y0205631D01*
X0319678Y0205014D01*
X0319678Y0203799D02*
X0320296Y0203182D01*
X0320296Y0201948D01*
X0319678Y0201331D01*
X0319061Y0208697D02*
X0320296Y0209931D01*
X0316592Y0209931D01*
X0316592Y0208697D02*
X0316592Y0211166D01*
X0321224Y0210932D02*
X0321841Y0211549D01*
X0321224Y0210932D02*
X0321224Y0209698D01*
X0321841Y0209080D01*
X0324310Y0209080D01*
X0324927Y0209698D01*
X0324927Y0210932D01*
X0324310Y0211549D01*
X0323693Y0212764D02*
X0324927Y0213998D01*
X0321224Y0213998D01*
X0321224Y0212764D02*
X0321224Y0215232D01*
X0321224Y0216447D02*
X0321224Y0218915D01*
X0321224Y0217681D02*
X0324927Y0217681D01*
X0323693Y0216447D01*
X0327474Y0216447D02*
X0329943Y0218915D01*
X0330560Y0218915D01*
X0331177Y0218298D01*
X0331177Y0217064D01*
X0330560Y0216447D01*
X0331177Y0213998D02*
X0327474Y0213998D01*
X0327474Y0212764D02*
X0327474Y0215232D01*
X0327474Y0216447D02*
X0327474Y0218915D01*
X0331177Y0213998D02*
X0329943Y0212764D01*
X0330560Y0211549D02*
X0331177Y0210932D01*
X0331177Y0209698D01*
X0330560Y0209080D01*
X0328091Y0209080D01*
X0327474Y0209698D01*
X0327474Y0210932D01*
X0328091Y0211549D01*
X0274766Y0152874D02*
X0275383Y0152257D01*
X0275383Y0149788D01*
X0274766Y0149171D01*
X0273532Y0149171D01*
X0272914Y0149788D01*
X0271700Y0149171D02*
X0269231Y0149171D01*
X0270466Y0149171D02*
X0270466Y0152874D01*
X0271700Y0151640D01*
X0272914Y0152257D02*
X0273532Y0152874D01*
X0274766Y0152874D01*
X0268017Y0152257D02*
X0267400Y0152874D01*
X0266165Y0152874D01*
X0265548Y0152257D01*
X0265548Y0151640D01*
X0266165Y0151023D01*
X0265548Y0150406D01*
X0265548Y0149788D01*
X0266165Y0149171D01*
X0267400Y0149171D01*
X0268017Y0149788D01*
X0266782Y0151023D02*
X0266165Y0151023D01*
X0265256Y0208614D02*
X0264649Y0209221D01*
X0264649Y0211647D01*
X0265256Y0212254D01*
X0267076Y0212254D01*
X0267076Y0208614D01*
X0265256Y0208614D01*
X0263451Y0210434D02*
X0261024Y0210434D01*
X0261631Y0208614D02*
X0261631Y0212254D01*
X0263451Y0210434D01*
X0250296Y0210682D02*
X0250296Y0209448D01*
X0249678Y0208831D01*
X0247210Y0208831D01*
X0246592Y0209448D01*
X0246592Y0210682D01*
X0247210Y0211299D01*
X0247210Y0212514D02*
X0246592Y0213131D01*
X0246592Y0214365D01*
X0247210Y0214983D01*
X0248444Y0214983D01*
X0249061Y0214365D01*
X0249061Y0213748D01*
X0248444Y0212514D01*
X0250296Y0212514D01*
X0250296Y0214983D01*
X0249678Y0211299D02*
X0250296Y0210682D01*
X0236546Y0213198D02*
X0235928Y0212581D01*
X0233460Y0212581D01*
X0232842Y0213198D01*
X0232842Y0214432D01*
X0233460Y0215049D01*
X0234694Y0216264D02*
X0234694Y0218733D01*
X0236546Y0218115D02*
X0234694Y0216264D01*
X0235928Y0215049D02*
X0236546Y0214432D01*
X0236546Y0213198D01*
X0236546Y0218115D02*
X0232842Y0218115D01*
X0226546Y0216865D02*
X0226546Y0215631D01*
X0225928Y0215014D01*
X0225928Y0213799D02*
X0226546Y0213182D01*
X0226546Y0211948D01*
X0225928Y0211331D01*
X0223460Y0211331D01*
X0222842Y0211948D01*
X0222842Y0213182D01*
X0223460Y0213799D01*
X0223460Y0215014D02*
X0222842Y0215631D01*
X0222842Y0216865D01*
X0223460Y0217483D01*
X0224077Y0217483D01*
X0224694Y0216865D01*
X0224694Y0216248D01*
X0224694Y0216865D02*
X0225311Y0217483D01*
X0225928Y0217483D01*
X0226546Y0216865D01*
X0217796Y0216865D02*
X0217796Y0215631D01*
X0217178Y0215014D01*
X0217178Y0213799D02*
X0217796Y0213182D01*
X0217796Y0211948D01*
X0217178Y0211331D01*
X0214710Y0211331D01*
X0214092Y0211948D01*
X0214092Y0213182D01*
X0214710Y0213799D01*
X0214092Y0215014D02*
X0216561Y0217483D01*
X0217178Y0217483D01*
X0217796Y0216865D01*
X0214092Y0217483D02*
X0214092Y0215014D01*
X0186016Y0254171D02*
X0184782Y0254171D01*
X0184164Y0254788D01*
X0182950Y0254171D02*
X0180481Y0254171D01*
X0179267Y0254171D02*
X0176798Y0254171D01*
X0178032Y0254171D02*
X0178032Y0257874D01*
X0179267Y0256640D01*
X0180481Y0256640D02*
X0180481Y0257257D01*
X0181098Y0257874D01*
X0182333Y0257874D01*
X0182950Y0257257D01*
X0184164Y0257257D02*
X0184782Y0257874D01*
X0186016Y0257874D01*
X0186633Y0257257D01*
X0186633Y0254788D01*
X0186016Y0254171D01*
X0186841Y0255330D02*
X0186224Y0255948D01*
X0186224Y0257182D01*
X0186841Y0257799D01*
X0186224Y0259014D02*
X0186224Y0261482D01*
X0186224Y0262697D02*
X0188693Y0265165D01*
X0189310Y0265165D01*
X0189927Y0264548D01*
X0189927Y0263314D01*
X0189310Y0262697D01*
X0189310Y0261482D02*
X0189927Y0260865D01*
X0189927Y0259631D01*
X0189310Y0259014D01*
X0189310Y0257799D02*
X0189927Y0257182D01*
X0189927Y0255948D01*
X0189310Y0255330D01*
X0186841Y0255330D01*
X0186224Y0259014D02*
X0188693Y0261482D01*
X0189310Y0261482D01*
X0186224Y0262697D02*
X0186224Y0265165D01*
X0180481Y0256640D02*
X0182950Y0254171D01*
X0136391Y0267549D02*
X0133964Y0267549D01*
X0135177Y0267549D02*
X0135177Y0263909D01*
X0132766Y0264516D02*
X0132159Y0263909D01*
X0130946Y0263909D01*
X0130339Y0264516D01*
X0130339Y0265123D01*
X0130946Y0265729D01*
X0131552Y0265729D01*
X0130946Y0265729D02*
X0130339Y0266336D01*
X0130339Y0266943D01*
X0130946Y0267549D01*
X0132159Y0267549D01*
X0132766Y0266943D01*
X0140960Y0312581D02*
X0140342Y0313198D01*
X0140342Y0314432D01*
X0140960Y0315049D01*
X0140342Y0316264D02*
X0142811Y0318733D01*
X0143428Y0318733D01*
X0144046Y0318115D01*
X0144046Y0316881D01*
X0143428Y0316264D01*
X0143428Y0315049D02*
X0144046Y0314432D01*
X0144046Y0313198D01*
X0143428Y0312581D01*
X0140960Y0312581D01*
X0140342Y0316264D02*
X0140342Y0318733D01*
X0140960Y0319947D02*
X0143428Y0322416D01*
X0140960Y0322416D01*
X0140342Y0321798D01*
X0140342Y0320564D01*
X0140960Y0319947D01*
X0143428Y0319947D01*
X0144046Y0320564D01*
X0144046Y0321798D01*
X0143428Y0322416D01*
X0141848Y0329756D02*
X0141848Y0330990D01*
X0141848Y0330373D02*
X0145551Y0330373D01*
X0145551Y0329756D02*
X0145551Y0330990D01*
X0144934Y0332211D02*
X0145551Y0332828D01*
X0145551Y0334063D01*
X0144934Y0334680D01*
X0144934Y0335894D02*
X0145551Y0336512D01*
X0145551Y0337746D01*
X0144934Y0338363D01*
X0144317Y0338363D01*
X0141848Y0335894D01*
X0141848Y0338363D01*
X0142465Y0334680D02*
X0141848Y0334063D01*
X0141848Y0332828D01*
X0142465Y0332211D01*
X0144934Y0332211D01*
X0095633Y0333906D02*
X0095016Y0333289D01*
X0093781Y0333289D01*
X0093164Y0333906D01*
X0091950Y0333289D02*
X0089481Y0333289D01*
X0090715Y0333289D02*
X0090715Y0336992D01*
X0091950Y0335758D01*
X0093164Y0336375D02*
X0093781Y0336992D01*
X0095016Y0336992D01*
X0095633Y0336375D01*
X0095633Y0333906D01*
X0093428Y0329916D02*
X0092811Y0329916D01*
X0092194Y0329298D01*
X0092194Y0328064D01*
X0092811Y0327447D01*
X0093428Y0327447D01*
X0094046Y0328064D01*
X0094046Y0329298D01*
X0093428Y0329916D01*
X0092194Y0329298D02*
X0091577Y0329916D01*
X0090960Y0329916D01*
X0090342Y0329298D01*
X0090342Y0328064D01*
X0090960Y0327447D01*
X0091577Y0327447D01*
X0092194Y0328064D01*
X0090342Y0326233D02*
X0090342Y0323764D01*
X0090342Y0324998D02*
X0094046Y0324998D01*
X0092811Y0323764D01*
X0093428Y0322549D02*
X0094046Y0321932D01*
X0094046Y0320698D01*
X0093428Y0320081D01*
X0090960Y0320081D01*
X0090342Y0320698D01*
X0090342Y0321932D01*
X0090960Y0322549D01*
X0087649Y0333289D02*
X0086415Y0333289D01*
X0085798Y0333906D01*
X0085798Y0336375D01*
X0086415Y0336992D01*
X0087649Y0336992D01*
X0088267Y0336375D01*
X0088267Y0335758D01*
X0087649Y0335141D01*
X0085798Y0335141D01*
X0087649Y0333289D02*
X0088267Y0333906D01*
X0155591Y0186415D02*
X0154974Y0185798D01*
X0154974Y0184564D01*
X0155591Y0183947D01*
X0158060Y0186415D01*
X0155591Y0186415D01*
X0155591Y0183947D02*
X0158060Y0183947D01*
X0158677Y0184564D01*
X0158677Y0185798D01*
X0158060Y0186415D01*
X0154974Y0182732D02*
X0154974Y0180264D01*
X0154974Y0181498D02*
X0158677Y0181498D01*
X0157443Y0180264D01*
X0158060Y0179049D02*
X0158677Y0178432D01*
X0158677Y0177198D01*
X0158060Y0176580D01*
X0155591Y0176580D01*
X0154974Y0177198D01*
X0154974Y0178432D01*
X0155591Y0179049D01*
X0240946Y0265159D02*
X0240339Y0265766D01*
X0240339Y0266373D01*
X0240946Y0266979D01*
X0241552Y0266979D01*
X0240946Y0266979D02*
X0240339Y0267586D01*
X0240339Y0268193D01*
X0240946Y0268799D01*
X0242159Y0268799D01*
X0242766Y0268193D01*
X0243964Y0268193D02*
X0244571Y0268799D01*
X0246391Y0268799D01*
X0246391Y0265159D01*
X0244571Y0265159D01*
X0243964Y0265766D01*
X0243964Y0268193D01*
X0242766Y0265766D02*
X0242159Y0265159D01*
X0240946Y0265159D01*
X0241281Y0274539D02*
X0240664Y0275156D01*
X0241281Y0274539D02*
X0242516Y0274539D01*
X0243133Y0275156D01*
X0243133Y0277625D01*
X0242516Y0278242D01*
X0241281Y0278242D01*
X0240664Y0277625D01*
X0239450Y0277008D02*
X0238215Y0278242D01*
X0238215Y0274539D01*
X0236981Y0274539D02*
X0239450Y0274539D01*
X0243665Y0386671D02*
X0243048Y0387288D01*
X0243048Y0389757D01*
X0243665Y0390374D01*
X0244900Y0390374D01*
X0245517Y0389757D01*
X0245517Y0389140D01*
X0244900Y0388523D01*
X0243048Y0388523D01*
X0243665Y0386671D02*
X0244900Y0386671D01*
X0245517Y0387288D01*
X0246731Y0387288D02*
X0247348Y0386671D01*
X0248583Y0386671D01*
X0249200Y0387288D01*
X0249200Y0389757D01*
X0248583Y0390374D01*
X0247348Y0390374D01*
X0246731Y0389757D01*
X0237333Y0461671D02*
X0236098Y0461671D01*
X0235481Y0462288D01*
X0234267Y0462288D02*
X0233650Y0461671D01*
X0232415Y0461671D01*
X0231798Y0462288D01*
X0231798Y0462906D01*
X0232415Y0463523D01*
X0234267Y0463523D01*
X0234267Y0462288D01*
X0234267Y0463523D02*
X0233032Y0464757D01*
X0231798Y0465374D01*
X0235481Y0464757D02*
X0236098Y0465374D01*
X0237333Y0465374D01*
X0237950Y0464757D01*
X0237950Y0462288D01*
X0237333Y0461671D01*
D15*
X0135133Y0319291D03*
X0135133Y0314370D03*
X0100133Y0321870D03*
X0100133Y0326791D03*
X0188883Y0275541D03*
X0188883Y0270620D03*
X0215133Y0206791D03*
X0215133Y0201870D03*
X0223883Y0201870D03*
X0223883Y0206791D03*
X0233883Y0206791D03*
X0233883Y0201870D03*
X0242633Y0201870D03*
X0242633Y0206791D03*
X0153883Y0198041D03*
X0153883Y0193120D03*
X0335133Y0220620D03*
X0335133Y0225541D03*
X0342633Y0225541D03*
X0342633Y0220620D03*
X0337633Y0208041D03*
X0337633Y0203120D03*
D16*
X0242476Y0281988D02*
X0222791Y0281988D01*
X0222791Y0301673D01*
X0242476Y0301673D01*
X0242476Y0281988D01*
X0234593Y0303080D02*
X0233642Y0303080D01*
X0233325Y0303397D01*
X0233325Y0304665D01*
X0233642Y0304982D01*
X0234593Y0304982D01*
X0234593Y0303080D01*
X0232383Y0303080D02*
X0231116Y0303080D01*
X0231749Y0303080D02*
X0231749Y0304982D01*
X0232383Y0304348D01*
X0124535Y0196464D02*
X0122633Y0196464D01*
X0122633Y0195830D02*
X0122633Y0197098D01*
X0123901Y0195830D02*
X0124535Y0196464D01*
X0124535Y0194888D02*
X0122950Y0194888D01*
X0122633Y0194571D01*
X0122633Y0193937D01*
X0122950Y0193620D01*
X0124535Y0193620D01*
X0137584Y0176033D02*
X0137584Y0170127D01*
X0150183Y0170127D01*
X0150183Y0176033D01*
X0137584Y0176033D01*
X0142683Y0168726D02*
X0143316Y0168726D01*
X0143633Y0168409D01*
X0144575Y0168409D02*
X0144575Y0168726D01*
X0144575Y0168409D02*
X0145209Y0167775D01*
X0145843Y0168409D01*
X0145843Y0168726D01*
X0145209Y0167775D02*
X0145209Y0166824D01*
X0143633Y0166824D02*
X0142366Y0168092D01*
X0142366Y0168409D01*
X0142683Y0168726D01*
X0142366Y0166824D02*
X0143633Y0166824D01*
X0199681Y0170629D02*
X0199681Y0158031D01*
X0205586Y0158031D01*
X0205586Y0170629D01*
X0199681Y0170629D01*
X0206990Y0165531D02*
X0208891Y0165531D01*
X0207940Y0164580D01*
X0207940Y0165848D01*
X0208383Y0166098D02*
X0208383Y0164830D01*
X0208383Y0165464D02*
X0210285Y0165464D01*
X0209651Y0164830D01*
X0209968Y0163888D02*
X0210285Y0163888D01*
X0209968Y0163888D02*
X0209334Y0163254D01*
X0208383Y0163254D01*
X0208574Y0163638D02*
X0208891Y0163638D01*
X0208574Y0163638D02*
X0207940Y0163004D01*
X0206990Y0163004D01*
X0207940Y0163004D02*
X0208574Y0162370D01*
X0208891Y0162370D01*
X0209334Y0163254D02*
X0209968Y0162620D01*
X0210285Y0162620D01*
D17*
X0205980Y0162362D02*
X0205980Y0166299D01*
X0199287Y0166299D02*
X0199287Y0162362D01*
X0216933Y0171918D02*
X0216933Y0184243D01*
X0216935Y0184319D01*
X0216941Y0184394D01*
X0216950Y0184470D01*
X0216964Y0184545D01*
X0216981Y0184619D01*
X0217002Y0184692D01*
X0217026Y0184764D01*
X0217054Y0184834D01*
X0217086Y0184903D01*
X0217121Y0184971D01*
X0217160Y0185036D01*
X0217202Y0185100D01*
X0217247Y0185161D01*
X0217295Y0185220D01*
X0217346Y0185276D01*
X0217400Y0185330D01*
X0217456Y0185381D01*
X0217515Y0185429D01*
X0217576Y0185474D01*
X0217640Y0185516D01*
X0217705Y0185555D01*
X0217773Y0185590D01*
X0217842Y0185622D01*
X0217912Y0185650D01*
X0217984Y0185674D01*
X0218057Y0185695D01*
X0218131Y0185712D01*
X0218206Y0185726D01*
X0218282Y0185735D01*
X0218357Y0185741D01*
X0218433Y0185743D01*
X0256833Y0185743D01*
X0256914Y0185731D01*
X0256994Y0185716D01*
X0257073Y0185697D01*
X0257151Y0185675D01*
X0257228Y0185648D01*
X0257304Y0185619D01*
X0257378Y0185585D01*
X0257450Y0185548D01*
X0257521Y0185508D01*
X0257589Y0185464D01*
X0257656Y0185417D01*
X0257720Y0185367D01*
X0257781Y0185314D01*
X0257840Y0185258D01*
X0257897Y0185199D01*
X0257950Y0185138D01*
X0258001Y0185074D01*
X0258048Y0185008D01*
X0258092Y0184940D01*
X0258133Y0184870D01*
X0258171Y0184798D01*
X0258205Y0184724D01*
X0258235Y0184648D01*
X0258262Y0184572D01*
X0258285Y0184494D01*
X0258305Y0184415D01*
X0258320Y0184335D01*
X0258332Y0184254D01*
X0258340Y0184174D01*
X0258344Y0184092D01*
X0258345Y0184011D01*
X0258341Y0183930D01*
X0258334Y0183849D01*
X0258333Y0183799D02*
X0258333Y0180480D01*
X0258133Y0180480D02*
X0258035Y0180478D01*
X0257937Y0180472D01*
X0257839Y0180463D01*
X0257742Y0180449D01*
X0257645Y0180432D01*
X0257549Y0180411D01*
X0257454Y0180386D01*
X0257360Y0180358D01*
X0257268Y0180325D01*
X0257176Y0180290D01*
X0257086Y0180250D01*
X0256998Y0180208D01*
X0256911Y0180161D01*
X0256827Y0180112D01*
X0256744Y0180059D01*
X0256664Y0180003D01*
X0256585Y0179943D01*
X0256509Y0179881D01*
X0256436Y0179816D01*
X0256365Y0179748D01*
X0256297Y0179677D01*
X0256232Y0179604D01*
X0256170Y0179528D01*
X0256110Y0179449D01*
X0256054Y0179369D01*
X0256001Y0179286D01*
X0255952Y0179202D01*
X0255905Y0179115D01*
X0255863Y0179027D01*
X0255823Y0178937D01*
X0255788Y0178845D01*
X0255755Y0178753D01*
X0255727Y0178659D01*
X0255702Y0178564D01*
X0255681Y0178468D01*
X0255664Y0178371D01*
X0255650Y0178274D01*
X0255641Y0178176D01*
X0255635Y0178078D01*
X0255633Y0177980D01*
X0255635Y0177882D01*
X0255641Y0177784D01*
X0255650Y0177686D01*
X0255664Y0177589D01*
X0255681Y0177492D01*
X0255702Y0177396D01*
X0255727Y0177301D01*
X0255755Y0177207D01*
X0255788Y0177115D01*
X0255823Y0177023D01*
X0255863Y0176933D01*
X0255905Y0176845D01*
X0255952Y0176758D01*
X0256001Y0176674D01*
X0256054Y0176591D01*
X0256110Y0176511D01*
X0256170Y0176432D01*
X0256232Y0176356D01*
X0256297Y0176283D01*
X0256365Y0176212D01*
X0256436Y0176144D01*
X0256509Y0176079D01*
X0256585Y0176017D01*
X0256664Y0175957D01*
X0256744Y0175901D01*
X0256827Y0175848D01*
X0256911Y0175799D01*
X0256998Y0175752D01*
X0257086Y0175710D01*
X0257176Y0175670D01*
X0257268Y0175635D01*
X0257360Y0175602D01*
X0257454Y0175574D01*
X0257549Y0175549D01*
X0257645Y0175528D01*
X0257742Y0175511D01*
X0257839Y0175497D01*
X0257937Y0175488D01*
X0258035Y0175482D01*
X0258133Y0175480D01*
X0258333Y0175480D02*
X0258333Y0171524D01*
X0258321Y0171454D01*
X0258304Y0171384D01*
X0258284Y0171316D01*
X0258261Y0171248D01*
X0258233Y0171182D01*
X0258202Y0171118D01*
X0258168Y0171056D01*
X0258130Y0170995D01*
X0258090Y0170936D01*
X0258046Y0170880D01*
X0257999Y0170827D01*
X0257949Y0170775D01*
X0257896Y0170727D01*
X0257841Y0170682D01*
X0257784Y0170639D01*
X0257724Y0170600D01*
X0257662Y0170564D01*
X0257599Y0170532D01*
X0257534Y0170503D01*
X0257467Y0170477D01*
X0257399Y0170455D01*
X0257330Y0170437D01*
X0257260Y0170423D01*
X0257189Y0170413D01*
X0257118Y0170406D01*
X0257047Y0170403D01*
X0256976Y0170404D01*
X0256904Y0170409D01*
X0256834Y0170418D01*
X0256833Y0170418D02*
X0218040Y0170418D01*
X0218039Y0170418D02*
X0217969Y0170430D01*
X0217899Y0170447D01*
X0217831Y0170467D01*
X0217764Y0170491D01*
X0217698Y0170518D01*
X0217633Y0170549D01*
X0217571Y0170583D01*
X0217510Y0170621D01*
X0217452Y0170662D01*
X0217395Y0170706D01*
X0217342Y0170753D01*
X0217291Y0170803D01*
X0217242Y0170855D01*
X0217197Y0170910D01*
X0217154Y0170968D01*
X0217115Y0171027D01*
X0217079Y0171089D01*
X0217047Y0171153D01*
X0217018Y0171218D01*
X0216992Y0171284D01*
X0216971Y0171352D01*
X0216952Y0171422D01*
X0216938Y0171491D01*
X0216928Y0171562D01*
X0216921Y0171633D01*
X0216918Y0171704D01*
X0216919Y0171776D01*
X0216924Y0171847D01*
X0216933Y0171918D01*
X0145852Y0169734D02*
X0141915Y0169734D01*
X0141915Y0176427D02*
X0145852Y0176427D01*
X0144883Y0187880D02*
X0127883Y0187880D01*
X0127807Y0187882D01*
X0127731Y0187888D01*
X0127656Y0187897D01*
X0127581Y0187911D01*
X0127507Y0187928D01*
X0127434Y0187949D01*
X0127362Y0187973D01*
X0127291Y0188002D01*
X0127222Y0188033D01*
X0127155Y0188068D01*
X0127090Y0188107D01*
X0127026Y0188149D01*
X0126965Y0188194D01*
X0126906Y0188242D01*
X0126850Y0188293D01*
X0126796Y0188347D01*
X0126745Y0188403D01*
X0126697Y0188462D01*
X0126652Y0188523D01*
X0126610Y0188587D01*
X0126571Y0188652D01*
X0126536Y0188719D01*
X0126505Y0188788D01*
X0126476Y0188859D01*
X0126452Y0188931D01*
X0126431Y0189004D01*
X0126414Y0189078D01*
X0126400Y0189153D01*
X0126391Y0189228D01*
X0126385Y0189304D01*
X0126383Y0189380D01*
X0126383Y0201780D01*
X0126385Y0201856D01*
X0126391Y0201932D01*
X0126400Y0202007D01*
X0126414Y0202082D01*
X0126431Y0202156D01*
X0126452Y0202229D01*
X0126476Y0202301D01*
X0126505Y0202372D01*
X0126536Y0202441D01*
X0126571Y0202508D01*
X0126610Y0202573D01*
X0126652Y0202637D01*
X0126697Y0202698D01*
X0126745Y0202757D01*
X0126796Y0202813D01*
X0126850Y0202867D01*
X0126906Y0202918D01*
X0126965Y0202966D01*
X0127026Y0203011D01*
X0127090Y0203053D01*
X0127155Y0203092D01*
X0127222Y0203127D01*
X0127291Y0203158D01*
X0127362Y0203187D01*
X0127434Y0203211D01*
X0127507Y0203232D01*
X0127581Y0203249D01*
X0127656Y0203263D01*
X0127731Y0203272D01*
X0127807Y0203278D01*
X0127883Y0203280D01*
X0144883Y0203280D01*
X0144959Y0203278D01*
X0145035Y0203272D01*
X0145110Y0203263D01*
X0145185Y0203249D01*
X0145259Y0203232D01*
X0145332Y0203211D01*
X0145404Y0203187D01*
X0145475Y0203158D01*
X0145544Y0203127D01*
X0145611Y0203092D01*
X0145676Y0203053D01*
X0145740Y0203011D01*
X0145801Y0202966D01*
X0145860Y0202918D01*
X0145916Y0202867D01*
X0145970Y0202813D01*
X0146021Y0202757D01*
X0146069Y0202698D01*
X0146114Y0202637D01*
X0146156Y0202573D01*
X0146195Y0202508D01*
X0146230Y0202441D01*
X0146261Y0202372D01*
X0146290Y0202301D01*
X0146314Y0202229D01*
X0146335Y0202156D01*
X0146352Y0202082D01*
X0146366Y0202007D01*
X0146375Y0201932D01*
X0146381Y0201856D01*
X0146383Y0201780D01*
X0146383Y0197580D01*
X0146383Y0193580D01*
X0146383Y0189380D01*
X0146383Y0189280D02*
X0126383Y0189280D01*
X0144883Y0187880D02*
X0144959Y0187882D01*
X0145035Y0187888D01*
X0145110Y0187897D01*
X0145185Y0187911D01*
X0145259Y0187928D01*
X0145332Y0187949D01*
X0145404Y0187973D01*
X0145475Y0188002D01*
X0145544Y0188033D01*
X0145611Y0188068D01*
X0145676Y0188107D01*
X0145740Y0188149D01*
X0145801Y0188194D01*
X0145860Y0188242D01*
X0145916Y0188293D01*
X0145970Y0188347D01*
X0146021Y0188403D01*
X0146069Y0188462D01*
X0146114Y0188523D01*
X0146156Y0188587D01*
X0146195Y0188652D01*
X0146230Y0188719D01*
X0146261Y0188788D01*
X0146290Y0188859D01*
X0146314Y0188931D01*
X0146335Y0189004D01*
X0146352Y0189078D01*
X0146366Y0189153D01*
X0146375Y0189228D01*
X0146381Y0189304D01*
X0146383Y0189380D01*
X0146383Y0193580D02*
X0146295Y0193582D01*
X0146206Y0193588D01*
X0146118Y0193598D01*
X0146031Y0193611D01*
X0145944Y0193629D01*
X0145858Y0193650D01*
X0145773Y0193675D01*
X0145690Y0193704D01*
X0145607Y0193737D01*
X0145527Y0193773D01*
X0145448Y0193812D01*
X0145370Y0193855D01*
X0145295Y0193902D01*
X0145222Y0193952D01*
X0145151Y0194005D01*
X0145082Y0194061D01*
X0145016Y0194120D01*
X0144953Y0194182D01*
X0144893Y0194246D01*
X0144835Y0194313D01*
X0144781Y0194383D01*
X0144729Y0194455D01*
X0144681Y0194529D01*
X0144636Y0194606D01*
X0144595Y0194684D01*
X0144557Y0194764D01*
X0144523Y0194845D01*
X0144492Y0194928D01*
X0144465Y0195013D01*
X0144442Y0195098D01*
X0144423Y0195184D01*
X0144407Y0195272D01*
X0144395Y0195359D01*
X0144387Y0195447D01*
X0144383Y0195536D01*
X0144383Y0195624D01*
X0144387Y0195713D01*
X0144395Y0195801D01*
X0144407Y0195888D01*
X0144423Y0195976D01*
X0144442Y0196062D01*
X0144465Y0196147D01*
X0144492Y0196232D01*
X0144523Y0196315D01*
X0144557Y0196396D01*
X0144595Y0196476D01*
X0144636Y0196554D01*
X0144681Y0196631D01*
X0144729Y0196705D01*
X0144781Y0196777D01*
X0144835Y0196847D01*
X0144893Y0196914D01*
X0144953Y0196978D01*
X0145016Y0197040D01*
X0145082Y0197099D01*
X0145151Y0197155D01*
X0145222Y0197208D01*
X0145295Y0197258D01*
X0145370Y0197305D01*
X0145448Y0197348D01*
X0145527Y0197387D01*
X0145607Y0197423D01*
X0145690Y0197456D01*
X0145773Y0197485D01*
X0145858Y0197510D01*
X0145944Y0197531D01*
X0146031Y0197549D01*
X0146118Y0197562D01*
X0146206Y0197572D01*
X0146295Y0197578D01*
X0146383Y0197580D01*
X0174693Y0267480D02*
X0178074Y0267480D01*
X0173193Y0272024D02*
X0173193Y0274137D01*
X0174693Y0278680D02*
X0178074Y0278680D01*
X0222833Y0281530D02*
X0223033Y0281530D01*
X0223033Y0281550D01*
X0242523Y0281550D01*
X0242523Y0282460D01*
X0242633Y0288430D02*
X0242633Y0291830D01*
X0232633Y0301830D01*
X0222953Y0302040D02*
X0242513Y0302040D01*
X0242513Y0301150D01*
X0242633Y0295230D02*
X0242633Y0291830D01*
X0222633Y0288630D02*
X0222633Y0295330D01*
X0222753Y0300960D02*
X0222753Y0302030D01*
X0222953Y0302030D01*
X0222953Y0302040D01*
X0222833Y0282530D02*
X0222833Y0281530D01*
X0124602Y0312499D02*
X0124602Y0321161D01*
X0120665Y0321161D01*
X0120665Y0312499D01*
X0124602Y0312499D01*
D18*
X0237633Y0299330D03*
X0243883Y0303080D03*
D19*
X0326383Y0349330D03*
X0331383Y0349330D03*
X0331383Y0359330D03*
X0326383Y0359330D03*
X0343883Y0236830D03*
X0348883Y0236830D03*
X0361383Y0225580D03*
X0366383Y0225580D03*
X0366383Y0215580D03*
X0361383Y0215580D03*
X0268883Y0184330D03*
X0263883Y0184330D03*
X0263883Y0174330D03*
X0268883Y0174330D03*
X0242633Y0151830D03*
X0237633Y0151830D03*
X0226383Y0151830D03*
X0221383Y0151830D03*
X0143883Y0218080D03*
X0138883Y0218080D03*
X0115133Y0250580D03*
X0110133Y0250580D03*
X0130133Y0304330D03*
X0135133Y0304330D03*
X0125133Y0326830D03*
X0120133Y0326830D03*
X0107633Y0345580D03*
X0102633Y0345580D03*
D20*
X0220133Y0167105D03*
X0225133Y0167105D03*
X0230133Y0167105D03*
X0235133Y0167105D03*
X0240133Y0167105D03*
X0245133Y0167105D03*
X0250133Y0167105D03*
X0255133Y0167105D03*
D21*
X0255133Y0189205D03*
D22*
X0250133Y0189080D03*
X0245133Y0189080D03*
X0240133Y0189080D03*
X0235133Y0189080D03*
X0230133Y0189080D03*
X0225133Y0189080D03*
X0220133Y0189080D03*
D23*
X0210633Y0177830D02*
X0210633Y0150830D01*
X0207633Y0150830D02*
X0207633Y0177830D01*
X0202633Y0168330D02*
X0202633Y0166830D01*
X0202633Y0161830D02*
X0202633Y0160330D01*
X0197633Y0150830D02*
X0197633Y0177830D01*
X0194633Y0177830D02*
X0194633Y0150830D01*
X0248856Y0178547D02*
X0249223Y0178180D01*
X0249956Y0178180D01*
X0250323Y0178547D01*
X0251065Y0178547D02*
X0251065Y0180382D01*
X0250323Y0180015D02*
X0249956Y0180382D01*
X0249223Y0180382D01*
X0248856Y0180015D01*
X0248856Y0179648D01*
X0249223Y0179281D01*
X0248856Y0178914D01*
X0248856Y0178547D01*
X0249223Y0179281D02*
X0249589Y0179281D01*
X0251065Y0178547D02*
X0251432Y0178180D01*
X0252166Y0178180D01*
X0252533Y0178547D01*
X0252533Y0180382D01*
D24*
X0259633Y0168080D02*
X0259635Y0168124D01*
X0259641Y0168168D01*
X0259651Y0168211D01*
X0259664Y0168253D01*
X0259681Y0168294D01*
X0259702Y0168333D01*
X0259726Y0168370D01*
X0259753Y0168405D01*
X0259783Y0168437D01*
X0259816Y0168467D01*
X0259852Y0168493D01*
X0259889Y0168517D01*
X0259929Y0168536D01*
X0259970Y0168553D01*
X0260013Y0168565D01*
X0260056Y0168574D01*
X0260100Y0168579D01*
X0260144Y0168580D01*
X0260188Y0168577D01*
X0260232Y0168570D01*
X0260275Y0168559D01*
X0260317Y0168545D01*
X0260357Y0168527D01*
X0260396Y0168505D01*
X0260432Y0168481D01*
X0260466Y0168453D01*
X0260498Y0168422D01*
X0260527Y0168388D01*
X0260553Y0168352D01*
X0260575Y0168314D01*
X0260594Y0168274D01*
X0260609Y0168232D01*
X0260621Y0168190D01*
X0260629Y0168146D01*
X0260633Y0168102D01*
X0260633Y0168058D01*
X0260629Y0168014D01*
X0260621Y0167970D01*
X0260609Y0167928D01*
X0260594Y0167886D01*
X0260575Y0167846D01*
X0260553Y0167808D01*
X0260527Y0167772D01*
X0260498Y0167738D01*
X0260466Y0167707D01*
X0260432Y0167679D01*
X0260396Y0167655D01*
X0260357Y0167633D01*
X0260317Y0167615D01*
X0260275Y0167601D01*
X0260232Y0167590D01*
X0260188Y0167583D01*
X0260144Y0167580D01*
X0260100Y0167581D01*
X0260056Y0167586D01*
X0260013Y0167595D01*
X0259970Y0167607D01*
X0259929Y0167624D01*
X0259889Y0167643D01*
X0259852Y0167667D01*
X0259816Y0167693D01*
X0259783Y0167723D01*
X0259753Y0167755D01*
X0259726Y0167790D01*
X0259702Y0167827D01*
X0259681Y0167866D01*
X0259664Y0167907D01*
X0259651Y0167949D01*
X0259641Y0167992D01*
X0259635Y0168036D01*
X0259633Y0168080D01*
D25*
X0236383Y0158080D03*
X0236383Y0153080D03*
X0227633Y0153080D03*
X0227633Y0158080D03*
X0221383Y0261830D03*
X0221383Y0266830D03*
X0196383Y0270580D03*
X0196383Y0275580D03*
X0222633Y0308080D03*
X0222633Y0313080D03*
X0232633Y0404330D03*
X0232633Y0409330D03*
X0341383Y0353080D03*
X0341383Y0348080D03*
X0346383Y0208080D03*
X0346383Y0203080D03*
X0370133Y0199330D03*
X0370133Y0194330D03*
X0380133Y0194330D03*
X0380133Y0199330D03*
X0120133Y0301830D03*
X0120133Y0306830D03*
X0110133Y0309330D03*
X0110133Y0314330D03*
X0110133Y0321830D03*
X0110133Y0326830D03*
X0110133Y0268080D03*
X0110133Y0263080D03*
D26*
X0210722Y0177839D02*
X0210542Y0177839D01*
X0210543Y0177840D02*
X0210540Y0178032D01*
X0210533Y0178224D01*
X0210521Y0178415D01*
X0210505Y0178607D01*
X0210484Y0178797D01*
X0210458Y0178988D01*
X0210427Y0179177D01*
X0210392Y0179366D01*
X0210353Y0179554D01*
X0210309Y0179741D01*
X0210260Y0179926D01*
X0210207Y0180111D01*
X0210149Y0180294D01*
X0210087Y0180476D01*
X0210021Y0180656D01*
X0209950Y0180834D01*
X0209875Y0181011D01*
X0209796Y0181186D01*
X0209712Y0181359D01*
X0209625Y0181529D01*
X0209533Y0181698D01*
X0209437Y0181864D01*
X0209337Y0182028D01*
X0209233Y0182190D01*
X0209125Y0182349D01*
X0209014Y0182505D01*
X0208898Y0182658D01*
X0208779Y0182809D01*
X0208657Y0182957D01*
X0208530Y0183101D01*
X0208401Y0183243D01*
X0208268Y0183381D01*
X0208131Y0183517D01*
X0207992Y0183648D01*
X0207849Y0183777D01*
X0207703Y0183901D01*
X0207554Y0184023D01*
X0207402Y0184140D01*
X0207248Y0184254D01*
X0207091Y0184364D01*
X0207191Y0184513D01*
X0207192Y0184513D01*
X0207353Y0184401D01*
X0207511Y0184284D01*
X0207666Y0184164D01*
X0207818Y0184040D01*
X0207967Y0183912D01*
X0208114Y0183781D01*
X0208256Y0183646D01*
X0208396Y0183508D01*
X0208532Y0183366D01*
X0208665Y0183221D01*
X0208794Y0183073D01*
X0208919Y0182922D01*
X0209041Y0182768D01*
X0209159Y0182611D01*
X0209273Y0182452D01*
X0209383Y0182289D01*
X0209489Y0182124D01*
X0209592Y0181956D01*
X0209690Y0181786D01*
X0209784Y0181614D01*
X0209873Y0181439D01*
X0209959Y0181262D01*
X0210040Y0181083D01*
X0210117Y0180903D01*
X0210189Y0180720D01*
X0210257Y0180536D01*
X0210320Y0180350D01*
X0210379Y0180163D01*
X0210434Y0179974D01*
X0210483Y0179784D01*
X0210529Y0179593D01*
X0210569Y0179401D01*
X0210605Y0179208D01*
X0210636Y0179014D01*
X0210662Y0178819D01*
X0210684Y0178624D01*
X0210701Y0178428D01*
X0210713Y0178232D01*
X0210720Y0178036D01*
X0210723Y0177840D01*
X0210705Y0177840D01*
X0210702Y0178036D01*
X0210695Y0178232D01*
X0210683Y0178427D01*
X0210666Y0178622D01*
X0210644Y0178817D01*
X0210618Y0179011D01*
X0210587Y0179205D01*
X0210551Y0179397D01*
X0210511Y0179589D01*
X0210466Y0179780D01*
X0210416Y0179969D01*
X0210362Y0180158D01*
X0210303Y0180344D01*
X0210240Y0180530D01*
X0210172Y0180714D01*
X0210100Y0180896D01*
X0210024Y0181076D01*
X0209943Y0181255D01*
X0209857Y0181431D01*
X0209768Y0181605D01*
X0209674Y0181777D01*
X0209576Y0181947D01*
X0209474Y0182114D01*
X0209368Y0182279D01*
X0209258Y0182441D01*
X0209144Y0182601D01*
X0209027Y0182757D01*
X0208905Y0182911D01*
X0208780Y0183062D01*
X0208651Y0183209D01*
X0208519Y0183354D01*
X0208383Y0183495D01*
X0208244Y0183633D01*
X0208101Y0183768D01*
X0207956Y0183899D01*
X0207807Y0184026D01*
X0207655Y0184150D01*
X0207500Y0184270D01*
X0207342Y0184386D01*
X0207182Y0184498D01*
X0207172Y0184483D01*
X0207332Y0184371D01*
X0207489Y0184255D01*
X0207644Y0184136D01*
X0207795Y0184012D01*
X0207944Y0183885D01*
X0208089Y0183754D01*
X0208231Y0183620D01*
X0208370Y0183483D01*
X0208506Y0183342D01*
X0208638Y0183197D01*
X0208766Y0183050D01*
X0208891Y0182900D01*
X0209012Y0182746D01*
X0209130Y0182590D01*
X0209243Y0182431D01*
X0209353Y0182269D01*
X0209459Y0182105D01*
X0209561Y0181938D01*
X0209658Y0181769D01*
X0209752Y0181597D01*
X0209841Y0181423D01*
X0209926Y0181247D01*
X0210007Y0181069D01*
X0210083Y0180889D01*
X0210156Y0180707D01*
X0210223Y0180524D01*
X0210286Y0180339D01*
X0210345Y0180152D01*
X0210399Y0179964D01*
X0210449Y0179775D01*
X0210493Y0179585D01*
X0210534Y0179394D01*
X0210569Y0179202D01*
X0210600Y0179009D01*
X0210627Y0178815D01*
X0210648Y0178621D01*
X0210665Y0178426D01*
X0210677Y0178231D01*
X0210684Y0178035D01*
X0210687Y0177840D01*
X0210669Y0177840D01*
X0210666Y0178035D01*
X0210659Y0178230D01*
X0210647Y0178424D01*
X0210630Y0178619D01*
X0210609Y0178813D01*
X0210582Y0179006D01*
X0210552Y0179199D01*
X0210516Y0179390D01*
X0210476Y0179581D01*
X0210431Y0179771D01*
X0210382Y0179960D01*
X0210328Y0180147D01*
X0210269Y0180333D01*
X0210206Y0180518D01*
X0210139Y0180701D01*
X0210067Y0180882D01*
X0209991Y0181062D01*
X0209910Y0181239D01*
X0209825Y0181415D01*
X0209736Y0181588D01*
X0209643Y0181760D01*
X0209545Y0181929D01*
X0209444Y0182095D01*
X0209338Y0182259D01*
X0209229Y0182421D01*
X0209115Y0182579D01*
X0208998Y0182735D01*
X0208877Y0182888D01*
X0208753Y0183038D01*
X0208624Y0183185D01*
X0208493Y0183329D01*
X0208357Y0183470D01*
X0208219Y0183607D01*
X0208077Y0183741D01*
X0207932Y0183871D01*
X0207784Y0183998D01*
X0207632Y0184121D01*
X0207478Y0184241D01*
X0207321Y0184357D01*
X0207162Y0184469D01*
X0207151Y0184454D01*
X0207311Y0184342D01*
X0207467Y0184227D01*
X0207621Y0184107D01*
X0207772Y0183984D01*
X0207920Y0183858D01*
X0208065Y0183728D01*
X0208206Y0183594D01*
X0208345Y0183457D01*
X0208479Y0183317D01*
X0208611Y0183173D01*
X0208739Y0183027D01*
X0208863Y0182877D01*
X0208984Y0182724D01*
X0209101Y0182569D01*
X0209214Y0182410D01*
X0209323Y0182249D01*
X0209428Y0182086D01*
X0209530Y0181919D01*
X0209627Y0181751D01*
X0209720Y0181580D01*
X0209809Y0181407D01*
X0209894Y0181232D01*
X0209974Y0181054D01*
X0210050Y0180875D01*
X0210122Y0180694D01*
X0210189Y0180512D01*
X0210252Y0180328D01*
X0210310Y0180142D01*
X0210364Y0179955D01*
X0210414Y0179767D01*
X0210458Y0179577D01*
X0210498Y0179387D01*
X0210534Y0179195D01*
X0210565Y0179003D01*
X0210591Y0178810D01*
X0210612Y0178617D01*
X0210629Y0178423D01*
X0210641Y0178229D01*
X0210648Y0178034D01*
X0210651Y0177840D01*
X0210633Y0177840D01*
X0210630Y0178034D01*
X0210623Y0178228D01*
X0210611Y0178422D01*
X0210594Y0178615D01*
X0210573Y0178808D01*
X0210547Y0179001D01*
X0210516Y0179192D01*
X0210481Y0179383D01*
X0210441Y0179573D01*
X0210396Y0179762D01*
X0210347Y0179950D01*
X0210293Y0180137D01*
X0210235Y0180322D01*
X0210172Y0180506D01*
X0210105Y0180688D01*
X0210034Y0180868D01*
X0209958Y0181047D01*
X0209877Y0181224D01*
X0209793Y0181399D01*
X0209704Y0181572D01*
X0209611Y0181742D01*
X0209514Y0181910D01*
X0209413Y0182076D01*
X0209308Y0182239D01*
X0209199Y0182400D01*
X0209086Y0182558D01*
X0208970Y0182713D01*
X0208849Y0182866D01*
X0208725Y0183015D01*
X0208598Y0183161D01*
X0208466Y0183305D01*
X0208332Y0183445D01*
X0208194Y0183581D01*
X0208053Y0183715D01*
X0207908Y0183844D01*
X0207761Y0183971D01*
X0207610Y0184093D01*
X0207457Y0184212D01*
X0207300Y0184327D01*
X0207141Y0184439D01*
X0207131Y0184424D01*
X0207290Y0184313D01*
X0207446Y0184198D01*
X0207599Y0184079D01*
X0207749Y0183957D01*
X0207896Y0183831D01*
X0208040Y0183701D01*
X0208181Y0183568D01*
X0208319Y0183432D01*
X0208453Y0183292D01*
X0208584Y0183149D01*
X0208711Y0183003D01*
X0208835Y0182854D01*
X0208955Y0182702D01*
X0209072Y0182547D01*
X0209184Y0182390D01*
X0209293Y0182229D01*
X0209398Y0182067D01*
X0209499Y0181901D01*
X0209596Y0181733D01*
X0209688Y0181563D01*
X0209777Y0181391D01*
X0209861Y0181216D01*
X0209941Y0181040D01*
X0210017Y0180862D01*
X0210088Y0180682D01*
X0210155Y0180500D01*
X0210218Y0180316D01*
X0210276Y0180132D01*
X0210330Y0179945D01*
X0210379Y0179758D01*
X0210423Y0179569D01*
X0210463Y0179380D01*
X0210498Y0179189D01*
X0210529Y0178998D01*
X0210555Y0178806D01*
X0210576Y0178614D01*
X0210593Y0178421D01*
X0210605Y0178227D01*
X0210612Y0178034D01*
X0210615Y0177840D01*
X0210597Y0177840D01*
X0210594Y0178033D01*
X0210587Y0178226D01*
X0210575Y0178419D01*
X0210559Y0178612D01*
X0210537Y0178804D01*
X0210511Y0178995D01*
X0210481Y0179186D01*
X0210445Y0179376D01*
X0210406Y0179566D01*
X0210361Y0179754D01*
X0210312Y0179941D01*
X0210259Y0180126D01*
X0210201Y0180311D01*
X0210138Y0180494D01*
X0210071Y0180675D01*
X0210000Y0180855D01*
X0209925Y0181033D01*
X0209845Y0181209D01*
X0209761Y0181383D01*
X0209672Y0181555D01*
X0209580Y0181724D01*
X0209483Y0181892D01*
X0209383Y0182057D01*
X0209278Y0182220D01*
X0209170Y0182380D01*
X0209057Y0182537D01*
X0208941Y0182691D01*
X0208821Y0182843D01*
X0208698Y0182992D01*
X0208571Y0183137D01*
X0208440Y0183280D01*
X0208306Y0183419D01*
X0208169Y0183555D01*
X0208028Y0183688D01*
X0207884Y0183817D01*
X0207738Y0183943D01*
X0207588Y0184065D01*
X0207435Y0184183D01*
X0207279Y0184298D01*
X0207121Y0184409D01*
X0207111Y0184394D01*
X0207269Y0184283D01*
X0207424Y0184169D01*
X0207577Y0184051D01*
X0207726Y0183929D01*
X0207873Y0183804D01*
X0208016Y0183675D01*
X0208156Y0183542D01*
X0208293Y0183407D01*
X0208427Y0183268D01*
X0208557Y0183125D01*
X0208684Y0182980D01*
X0208807Y0182832D01*
X0208927Y0182680D01*
X0209043Y0182526D01*
X0209155Y0182369D01*
X0209263Y0182210D01*
X0209367Y0182047D01*
X0209468Y0181883D01*
X0209564Y0181716D01*
X0209656Y0181546D01*
X0209745Y0181375D01*
X0209828Y0181201D01*
X0209908Y0181025D01*
X0209984Y0180848D01*
X0210055Y0180669D01*
X0210121Y0180488D01*
X0210184Y0180305D01*
X0210241Y0180121D01*
X0210295Y0179936D01*
X0210344Y0179749D01*
X0210388Y0179562D01*
X0210428Y0179373D01*
X0210463Y0179183D01*
X0210493Y0178993D01*
X0210519Y0178802D01*
X0210541Y0178610D01*
X0210557Y0178418D01*
X0210569Y0178225D01*
X0210576Y0178033D01*
X0210579Y0177840D01*
X0210561Y0177840D01*
X0210558Y0178032D01*
X0210551Y0178225D01*
X0210539Y0178417D01*
X0210523Y0178608D01*
X0210501Y0178800D01*
X0210476Y0178990D01*
X0210445Y0179180D01*
X0210410Y0179369D01*
X0210370Y0179558D01*
X0210326Y0179745D01*
X0210278Y0179931D01*
X0210224Y0180116D01*
X0210167Y0180300D01*
X0210104Y0180482D01*
X0210038Y0180662D01*
X0209967Y0180841D01*
X0209892Y0181018D01*
X0209812Y0181193D01*
X0209728Y0181367D01*
X0209640Y0181538D01*
X0209548Y0181707D01*
X0209452Y0181874D01*
X0209352Y0182038D01*
X0209248Y0182200D01*
X0209140Y0182359D01*
X0209028Y0182516D01*
X0208913Y0182669D01*
X0208793Y0182820D01*
X0208670Y0182968D01*
X0208544Y0183113D01*
X0208414Y0183255D01*
X0208281Y0183394D01*
X0208144Y0183529D01*
X0208004Y0183662D01*
X0207861Y0183790D01*
X0207715Y0183915D01*
X0207565Y0184037D01*
X0207413Y0184155D01*
X0207258Y0184269D01*
X0207101Y0184379D01*
X0207722Y0177839D02*
X0207542Y0177839D01*
X0207543Y0177840D02*
X0207541Y0177977D01*
X0207535Y0178114D01*
X0207525Y0178251D01*
X0207511Y0178387D01*
X0207494Y0178523D01*
X0207473Y0178659D01*
X0207447Y0178794D01*
X0207419Y0178928D01*
X0207386Y0179061D01*
X0207350Y0179193D01*
X0207310Y0179325D01*
X0207266Y0179455D01*
X0207219Y0179583D01*
X0207168Y0179711D01*
X0207114Y0179837D01*
X0207056Y0179961D01*
X0207218Y0180039D01*
X0207218Y0180040D01*
X0207275Y0179918D01*
X0207328Y0179796D01*
X0207378Y0179671D01*
X0207425Y0179546D01*
X0207469Y0179419D01*
X0207509Y0179292D01*
X0207545Y0179163D01*
X0207579Y0179033D01*
X0207609Y0178903D01*
X0207635Y0178772D01*
X0207658Y0178640D01*
X0207678Y0178507D01*
X0207694Y0178374D01*
X0207706Y0178241D01*
X0207715Y0178108D01*
X0207721Y0177974D01*
X0207723Y0177840D01*
X0207705Y0177840D01*
X0207703Y0177982D01*
X0207697Y0178123D01*
X0207686Y0178265D01*
X0207672Y0178406D01*
X0207654Y0178546D01*
X0207632Y0178686D01*
X0207606Y0178826D01*
X0207577Y0178964D01*
X0207543Y0179102D01*
X0207506Y0179238D01*
X0207464Y0179374D01*
X0207419Y0179508D01*
X0207370Y0179642D01*
X0207318Y0179773D01*
X0207262Y0179903D01*
X0207202Y0180032D01*
X0207186Y0180024D01*
X0207245Y0179896D01*
X0207301Y0179766D01*
X0207354Y0179635D01*
X0207402Y0179502D01*
X0207447Y0179369D01*
X0207488Y0179233D01*
X0207526Y0179097D01*
X0207559Y0178960D01*
X0207589Y0178822D01*
X0207614Y0178683D01*
X0207636Y0178544D01*
X0207654Y0178404D01*
X0207668Y0178263D01*
X0207679Y0178122D01*
X0207685Y0177981D01*
X0207687Y0177840D01*
X0207669Y0177840D01*
X0207667Y0177981D01*
X0207661Y0178121D01*
X0207650Y0178262D01*
X0207636Y0178402D01*
X0207619Y0178541D01*
X0207597Y0178680D01*
X0207571Y0178818D01*
X0207541Y0178956D01*
X0207508Y0179093D01*
X0207471Y0179228D01*
X0207430Y0179363D01*
X0207385Y0179496D01*
X0207337Y0179629D01*
X0207285Y0179759D01*
X0207229Y0179889D01*
X0207170Y0180016D01*
X0207154Y0180008D01*
X0207213Y0179881D01*
X0207268Y0179752D01*
X0207320Y0179622D01*
X0207368Y0179491D01*
X0207413Y0179358D01*
X0207454Y0179223D01*
X0207491Y0179088D01*
X0207524Y0178952D01*
X0207553Y0178815D01*
X0207579Y0178677D01*
X0207601Y0178539D01*
X0207619Y0178400D01*
X0207633Y0178260D01*
X0207643Y0178120D01*
X0207649Y0177980D01*
X0207651Y0177840D01*
X0207633Y0177840D01*
X0207631Y0177980D01*
X0207625Y0178119D01*
X0207615Y0178258D01*
X0207601Y0178397D01*
X0207583Y0178536D01*
X0207561Y0178674D01*
X0207536Y0178811D01*
X0207506Y0178948D01*
X0207473Y0179084D01*
X0207436Y0179218D01*
X0207396Y0179352D01*
X0207351Y0179485D01*
X0207303Y0179616D01*
X0207252Y0179745D01*
X0207196Y0179874D01*
X0207137Y0180000D01*
X0207121Y0179993D01*
X0207180Y0179866D01*
X0207235Y0179739D01*
X0207286Y0179609D01*
X0207334Y0179479D01*
X0207379Y0179347D01*
X0207419Y0179213D01*
X0207456Y0179079D01*
X0207489Y0178944D01*
X0207518Y0178808D01*
X0207543Y0178671D01*
X0207565Y0178534D01*
X0207583Y0178395D01*
X0207597Y0178257D01*
X0207607Y0178118D01*
X0207613Y0177979D01*
X0207615Y0177840D01*
X0207597Y0177840D01*
X0207595Y0177979D01*
X0207589Y0178117D01*
X0207579Y0178255D01*
X0207565Y0178393D01*
X0207547Y0178531D01*
X0207526Y0178668D01*
X0207500Y0178804D01*
X0207471Y0178940D01*
X0207438Y0179075D01*
X0207402Y0179208D01*
X0207361Y0179341D01*
X0207317Y0179473D01*
X0207270Y0179603D01*
X0207218Y0179732D01*
X0207163Y0179859D01*
X0207105Y0179985D01*
X0207089Y0179977D01*
X0207147Y0179852D01*
X0207202Y0179725D01*
X0207253Y0179596D01*
X0207300Y0179467D01*
X0207344Y0179336D01*
X0207384Y0179203D01*
X0207421Y0179070D01*
X0207454Y0178936D01*
X0207483Y0178801D01*
X0207508Y0178665D01*
X0207529Y0178528D01*
X0207547Y0178391D01*
X0207561Y0178254D01*
X0207571Y0178116D01*
X0207577Y0177978D01*
X0207579Y0177840D01*
X0207561Y0177840D01*
X0207559Y0177978D01*
X0207553Y0178115D01*
X0207543Y0178252D01*
X0207529Y0178389D01*
X0207512Y0178526D01*
X0207490Y0178662D01*
X0207465Y0178797D01*
X0207436Y0178932D01*
X0207404Y0179066D01*
X0207367Y0179198D01*
X0207327Y0179330D01*
X0207283Y0179461D01*
X0207236Y0179590D01*
X0207185Y0179718D01*
X0207131Y0179844D01*
X0207073Y0179969D01*
X0198048Y0180039D02*
X0198210Y0179961D01*
X0198152Y0179837D01*
X0198098Y0179711D01*
X0198047Y0179583D01*
X0198000Y0179455D01*
X0197956Y0179325D01*
X0197916Y0179193D01*
X0197880Y0179061D01*
X0197847Y0178928D01*
X0197819Y0178794D01*
X0197793Y0178659D01*
X0197772Y0178523D01*
X0197755Y0178387D01*
X0197741Y0178251D01*
X0197731Y0178114D01*
X0197725Y0177977D01*
X0197723Y0177840D01*
X0197544Y0177839D01*
X0197543Y0177840D01*
X0197545Y0177974D01*
X0197551Y0178108D01*
X0197560Y0178241D01*
X0197572Y0178374D01*
X0197588Y0178507D01*
X0197608Y0178640D01*
X0197631Y0178772D01*
X0197657Y0178903D01*
X0197687Y0179033D01*
X0197721Y0179163D01*
X0197757Y0179292D01*
X0197797Y0179419D01*
X0197841Y0179546D01*
X0197888Y0179671D01*
X0197938Y0179796D01*
X0197991Y0179918D01*
X0198048Y0180040D01*
X0198064Y0180032D01*
X0198004Y0179903D01*
X0197948Y0179773D01*
X0197896Y0179642D01*
X0197847Y0179508D01*
X0197802Y0179374D01*
X0197760Y0179238D01*
X0197723Y0179102D01*
X0197689Y0178964D01*
X0197660Y0178826D01*
X0197634Y0178686D01*
X0197612Y0178546D01*
X0197594Y0178406D01*
X0197580Y0178265D01*
X0197569Y0178123D01*
X0197563Y0177982D01*
X0197561Y0177840D01*
X0197579Y0177840D01*
X0197581Y0177981D01*
X0197587Y0178122D01*
X0197598Y0178263D01*
X0197612Y0178404D01*
X0197630Y0178544D01*
X0197652Y0178683D01*
X0197677Y0178822D01*
X0197707Y0178960D01*
X0197740Y0179097D01*
X0197778Y0179233D01*
X0197819Y0179369D01*
X0197864Y0179502D01*
X0197912Y0179635D01*
X0197965Y0179766D01*
X0198021Y0179896D01*
X0198080Y0180024D01*
X0198096Y0180016D01*
X0198037Y0179889D01*
X0197981Y0179759D01*
X0197929Y0179629D01*
X0197881Y0179496D01*
X0197836Y0179363D01*
X0197795Y0179228D01*
X0197758Y0179093D01*
X0197725Y0178956D01*
X0197695Y0178818D01*
X0197669Y0178680D01*
X0197647Y0178541D01*
X0197630Y0178402D01*
X0197616Y0178262D01*
X0197605Y0178121D01*
X0197599Y0177981D01*
X0197597Y0177840D01*
X0197615Y0177840D01*
X0197617Y0177980D01*
X0197623Y0178120D01*
X0197633Y0178260D01*
X0197647Y0178400D01*
X0197665Y0178539D01*
X0197687Y0178677D01*
X0197713Y0178815D01*
X0197742Y0178952D01*
X0197775Y0179088D01*
X0197812Y0179223D01*
X0197853Y0179358D01*
X0197898Y0179491D01*
X0197946Y0179622D01*
X0197998Y0179752D01*
X0198053Y0179881D01*
X0198112Y0180008D01*
X0198129Y0180000D01*
X0198070Y0179874D01*
X0198014Y0179745D01*
X0197963Y0179616D01*
X0197915Y0179485D01*
X0197870Y0179352D01*
X0197830Y0179218D01*
X0197793Y0179084D01*
X0197760Y0178948D01*
X0197730Y0178811D01*
X0197705Y0178674D01*
X0197683Y0178536D01*
X0197665Y0178397D01*
X0197651Y0178258D01*
X0197641Y0178119D01*
X0197635Y0177980D01*
X0197633Y0177840D01*
X0197651Y0177840D01*
X0197653Y0177979D01*
X0197659Y0178118D01*
X0197669Y0178257D01*
X0197683Y0178395D01*
X0197701Y0178534D01*
X0197723Y0178671D01*
X0197748Y0178808D01*
X0197777Y0178944D01*
X0197810Y0179079D01*
X0197847Y0179213D01*
X0197887Y0179347D01*
X0197932Y0179479D01*
X0197980Y0179609D01*
X0198031Y0179739D01*
X0198086Y0179866D01*
X0198145Y0179993D01*
X0198161Y0179985D01*
X0198103Y0179859D01*
X0198048Y0179732D01*
X0197996Y0179603D01*
X0197949Y0179473D01*
X0197905Y0179341D01*
X0197864Y0179208D01*
X0197828Y0179075D01*
X0197795Y0178940D01*
X0197766Y0178804D01*
X0197740Y0178668D01*
X0197719Y0178531D01*
X0197701Y0178393D01*
X0197687Y0178255D01*
X0197677Y0178117D01*
X0197671Y0177979D01*
X0197669Y0177840D01*
X0197687Y0177840D01*
X0197689Y0177978D01*
X0197695Y0178116D01*
X0197705Y0178254D01*
X0197719Y0178391D01*
X0197737Y0178528D01*
X0197758Y0178665D01*
X0197783Y0178801D01*
X0197812Y0178936D01*
X0197845Y0179070D01*
X0197882Y0179203D01*
X0197922Y0179336D01*
X0197966Y0179467D01*
X0198013Y0179596D01*
X0198064Y0179725D01*
X0198119Y0179852D01*
X0198177Y0179977D01*
X0198193Y0179969D01*
X0198135Y0179844D01*
X0198081Y0179718D01*
X0198030Y0179590D01*
X0197983Y0179461D01*
X0197939Y0179330D01*
X0197899Y0179198D01*
X0197862Y0179066D01*
X0197830Y0178932D01*
X0197801Y0178797D01*
X0197776Y0178662D01*
X0197754Y0178526D01*
X0197737Y0178389D01*
X0197723Y0178252D01*
X0197713Y0178115D01*
X0197707Y0177978D01*
X0197705Y0177840D01*
X0207175Y0184524D02*
X0207074Y0184375D01*
X0207074Y0184376D02*
X0206913Y0184482D01*
X0206750Y0184584D01*
X0206585Y0184682D01*
X0206417Y0184776D01*
X0206247Y0184866D01*
X0206075Y0184952D01*
X0205900Y0185034D01*
X0205724Y0185111D01*
X0205546Y0185184D01*
X0205366Y0185253D01*
X0205185Y0185317D01*
X0205002Y0185377D01*
X0204818Y0185432D01*
X0204632Y0185483D01*
X0204445Y0185530D01*
X0204257Y0185571D01*
X0204068Y0185609D01*
X0203879Y0185641D01*
X0203688Y0185669D01*
X0203497Y0185693D01*
X0203306Y0185711D01*
X0203114Y0185725D01*
X0202922Y0185735D01*
X0202729Y0185739D01*
X0202537Y0185739D01*
X0202344Y0185735D01*
X0202152Y0185725D01*
X0201960Y0185711D01*
X0201769Y0185693D01*
X0201578Y0185669D01*
X0201387Y0185641D01*
X0201198Y0185609D01*
X0201009Y0185571D01*
X0200821Y0185530D01*
X0200634Y0185483D01*
X0200448Y0185432D01*
X0200264Y0185377D01*
X0200081Y0185317D01*
X0199900Y0185253D01*
X0199720Y0185184D01*
X0199542Y0185111D01*
X0199366Y0185034D01*
X0199191Y0184952D01*
X0199019Y0184866D01*
X0198849Y0184776D01*
X0198681Y0184682D01*
X0198516Y0184584D01*
X0198353Y0184482D01*
X0198192Y0184376D01*
X0198091Y0184524D01*
X0198255Y0184633D01*
X0198422Y0184738D01*
X0198591Y0184838D01*
X0198763Y0184934D01*
X0198937Y0185026D01*
X0199113Y0185114D01*
X0199291Y0185198D01*
X0199471Y0185277D01*
X0199654Y0185351D01*
X0199837Y0185422D01*
X0200023Y0185487D01*
X0200210Y0185549D01*
X0200399Y0185605D01*
X0200588Y0185657D01*
X0200780Y0185705D01*
X0200972Y0185748D01*
X0201165Y0185786D01*
X0201359Y0185819D01*
X0201554Y0185848D01*
X0201749Y0185872D01*
X0201945Y0185891D01*
X0202141Y0185905D01*
X0202338Y0185915D01*
X0202535Y0185919D01*
X0202731Y0185919D01*
X0202928Y0185915D01*
X0203125Y0185905D01*
X0203321Y0185891D01*
X0203517Y0185872D01*
X0203712Y0185848D01*
X0203907Y0185819D01*
X0204101Y0185786D01*
X0204294Y0185748D01*
X0204486Y0185705D01*
X0204678Y0185657D01*
X0204867Y0185605D01*
X0205056Y0185549D01*
X0205243Y0185487D01*
X0205429Y0185422D01*
X0205612Y0185351D01*
X0205795Y0185277D01*
X0205975Y0185198D01*
X0206153Y0185114D01*
X0206329Y0185026D01*
X0206503Y0184934D01*
X0206675Y0184838D01*
X0206844Y0184738D01*
X0207011Y0184633D01*
X0207175Y0184524D01*
X0207165Y0184510D01*
X0207001Y0184618D01*
X0206835Y0184722D01*
X0206666Y0184822D01*
X0206495Y0184918D01*
X0206321Y0185010D01*
X0206145Y0185098D01*
X0205967Y0185181D01*
X0205787Y0185260D01*
X0205606Y0185335D01*
X0205422Y0185405D01*
X0205237Y0185470D01*
X0205051Y0185531D01*
X0204862Y0185588D01*
X0204673Y0185640D01*
X0204482Y0185687D01*
X0204291Y0185730D01*
X0204098Y0185768D01*
X0203904Y0185801D01*
X0203710Y0185830D01*
X0203515Y0185854D01*
X0203320Y0185873D01*
X0203124Y0185887D01*
X0202928Y0185897D01*
X0202731Y0185901D01*
X0202535Y0185901D01*
X0202338Y0185897D01*
X0202142Y0185887D01*
X0201946Y0185873D01*
X0201751Y0185854D01*
X0201556Y0185830D01*
X0201362Y0185801D01*
X0201168Y0185768D01*
X0200975Y0185730D01*
X0200784Y0185687D01*
X0200593Y0185640D01*
X0200404Y0185588D01*
X0200215Y0185531D01*
X0200029Y0185470D01*
X0199844Y0185405D01*
X0199660Y0185335D01*
X0199479Y0185260D01*
X0199299Y0185181D01*
X0199121Y0185098D01*
X0198945Y0185010D01*
X0198771Y0184918D01*
X0198600Y0184822D01*
X0198431Y0184722D01*
X0198265Y0184618D01*
X0198101Y0184510D01*
X0198111Y0184495D01*
X0198274Y0184603D01*
X0198441Y0184707D01*
X0198609Y0184807D01*
X0198780Y0184903D01*
X0198953Y0184994D01*
X0199129Y0185082D01*
X0199306Y0185165D01*
X0199486Y0185244D01*
X0199667Y0185318D01*
X0199850Y0185388D01*
X0200035Y0185453D01*
X0200221Y0185514D01*
X0200409Y0185571D01*
X0200598Y0185623D01*
X0200788Y0185670D01*
X0200979Y0185712D01*
X0201171Y0185750D01*
X0201364Y0185783D01*
X0201558Y0185812D01*
X0201753Y0185836D01*
X0201948Y0185855D01*
X0202143Y0185869D01*
X0202339Y0185879D01*
X0202535Y0185883D01*
X0202731Y0185883D01*
X0202927Y0185879D01*
X0203123Y0185869D01*
X0203318Y0185855D01*
X0203513Y0185836D01*
X0203708Y0185812D01*
X0203902Y0185783D01*
X0204095Y0185750D01*
X0204287Y0185712D01*
X0204478Y0185670D01*
X0204668Y0185623D01*
X0204857Y0185571D01*
X0205045Y0185514D01*
X0205231Y0185453D01*
X0205416Y0185388D01*
X0205599Y0185318D01*
X0205780Y0185244D01*
X0205960Y0185165D01*
X0206137Y0185082D01*
X0206313Y0184994D01*
X0206486Y0184903D01*
X0206657Y0184807D01*
X0206825Y0184707D01*
X0206992Y0184603D01*
X0207155Y0184495D01*
X0207145Y0184480D01*
X0206982Y0184588D01*
X0206816Y0184691D01*
X0206648Y0184791D01*
X0206477Y0184887D01*
X0206304Y0184978D01*
X0206129Y0185065D01*
X0205952Y0185148D01*
X0205773Y0185227D01*
X0205592Y0185301D01*
X0205410Y0185371D01*
X0205226Y0185436D01*
X0205040Y0185497D01*
X0204852Y0185553D01*
X0204664Y0185605D01*
X0204474Y0185652D01*
X0204283Y0185695D01*
X0204091Y0185733D01*
X0203899Y0185766D01*
X0203705Y0185794D01*
X0203511Y0185818D01*
X0203317Y0185837D01*
X0203122Y0185851D01*
X0202926Y0185861D01*
X0202731Y0185865D01*
X0202535Y0185865D01*
X0202340Y0185861D01*
X0202144Y0185851D01*
X0201949Y0185837D01*
X0201755Y0185818D01*
X0201561Y0185794D01*
X0201367Y0185766D01*
X0201175Y0185733D01*
X0200983Y0185695D01*
X0200792Y0185652D01*
X0200602Y0185605D01*
X0200414Y0185553D01*
X0200226Y0185497D01*
X0200040Y0185436D01*
X0199856Y0185371D01*
X0199674Y0185301D01*
X0199493Y0185227D01*
X0199314Y0185148D01*
X0199137Y0185065D01*
X0198962Y0184978D01*
X0198789Y0184887D01*
X0198618Y0184791D01*
X0198450Y0184691D01*
X0198284Y0184588D01*
X0198121Y0184480D01*
X0198131Y0184465D01*
X0198294Y0184573D01*
X0198459Y0184676D01*
X0198627Y0184776D01*
X0198797Y0184871D01*
X0198970Y0184962D01*
X0199144Y0185049D01*
X0199321Y0185132D01*
X0199500Y0185210D01*
X0199680Y0185284D01*
X0199862Y0185354D01*
X0200046Y0185419D01*
X0200232Y0185480D01*
X0200419Y0185536D01*
X0200607Y0185588D01*
X0200796Y0185635D01*
X0200986Y0185677D01*
X0201178Y0185715D01*
X0201370Y0185748D01*
X0201563Y0185776D01*
X0201757Y0185800D01*
X0201951Y0185819D01*
X0202146Y0185833D01*
X0202340Y0185843D01*
X0202535Y0185847D01*
X0202731Y0185847D01*
X0202926Y0185843D01*
X0203120Y0185833D01*
X0203315Y0185819D01*
X0203509Y0185800D01*
X0203703Y0185776D01*
X0203896Y0185748D01*
X0204088Y0185715D01*
X0204280Y0185677D01*
X0204470Y0185635D01*
X0204659Y0185588D01*
X0204847Y0185536D01*
X0205034Y0185480D01*
X0205220Y0185419D01*
X0205404Y0185354D01*
X0205586Y0185284D01*
X0205766Y0185210D01*
X0205945Y0185132D01*
X0206122Y0185049D01*
X0206296Y0184962D01*
X0206469Y0184871D01*
X0206639Y0184776D01*
X0206807Y0184676D01*
X0206972Y0184573D01*
X0207135Y0184465D01*
X0207125Y0184450D01*
X0206962Y0184557D01*
X0206797Y0184661D01*
X0206630Y0184760D01*
X0206460Y0184855D01*
X0206288Y0184946D01*
X0206114Y0185033D01*
X0205938Y0185116D01*
X0205759Y0185194D01*
X0205579Y0185268D01*
X0205397Y0185337D01*
X0205214Y0185402D01*
X0205029Y0185463D01*
X0204842Y0185519D01*
X0204655Y0185570D01*
X0204466Y0185617D01*
X0204276Y0185660D01*
X0204085Y0185697D01*
X0203893Y0185730D01*
X0203700Y0185758D01*
X0203507Y0185782D01*
X0203313Y0185801D01*
X0203119Y0185815D01*
X0202925Y0185825D01*
X0202730Y0185829D01*
X0202536Y0185829D01*
X0202341Y0185825D01*
X0202147Y0185815D01*
X0201953Y0185801D01*
X0201759Y0185782D01*
X0201566Y0185758D01*
X0201373Y0185730D01*
X0201181Y0185697D01*
X0200990Y0185660D01*
X0200800Y0185617D01*
X0200611Y0185570D01*
X0200424Y0185519D01*
X0200237Y0185463D01*
X0200052Y0185402D01*
X0199869Y0185337D01*
X0199687Y0185268D01*
X0199507Y0185194D01*
X0199328Y0185116D01*
X0199152Y0185033D01*
X0198978Y0184946D01*
X0198806Y0184855D01*
X0198636Y0184760D01*
X0198469Y0184661D01*
X0198304Y0184557D01*
X0198141Y0184450D01*
X0198151Y0184435D01*
X0198314Y0184542D01*
X0198478Y0184645D01*
X0198645Y0184744D01*
X0198815Y0184839D01*
X0198986Y0184930D01*
X0199160Y0185017D01*
X0199336Y0185099D01*
X0199514Y0185177D01*
X0199693Y0185251D01*
X0199875Y0185320D01*
X0200058Y0185385D01*
X0200243Y0185446D01*
X0200429Y0185502D01*
X0200616Y0185553D01*
X0200804Y0185600D01*
X0200994Y0185642D01*
X0201184Y0185679D01*
X0201376Y0185712D01*
X0201568Y0185741D01*
X0201761Y0185764D01*
X0201954Y0185783D01*
X0202148Y0185797D01*
X0202342Y0185807D01*
X0202536Y0185811D01*
X0202730Y0185811D01*
X0202924Y0185807D01*
X0203118Y0185797D01*
X0203312Y0185783D01*
X0203505Y0185764D01*
X0203698Y0185741D01*
X0203890Y0185712D01*
X0204082Y0185679D01*
X0204272Y0185642D01*
X0204462Y0185600D01*
X0204650Y0185553D01*
X0204837Y0185502D01*
X0205023Y0185446D01*
X0205208Y0185385D01*
X0205391Y0185320D01*
X0205573Y0185251D01*
X0205752Y0185177D01*
X0205930Y0185099D01*
X0206106Y0185017D01*
X0206280Y0184930D01*
X0206451Y0184839D01*
X0206621Y0184744D01*
X0206788Y0184645D01*
X0206952Y0184542D01*
X0207115Y0184435D01*
X0207104Y0184420D01*
X0206943Y0184527D01*
X0206779Y0184630D01*
X0206612Y0184729D01*
X0206443Y0184824D01*
X0206272Y0184914D01*
X0206098Y0185001D01*
X0205923Y0185083D01*
X0205745Y0185161D01*
X0205566Y0185234D01*
X0205385Y0185303D01*
X0205202Y0185368D01*
X0205018Y0185428D01*
X0204833Y0185484D01*
X0204646Y0185535D01*
X0204458Y0185582D01*
X0204268Y0185624D01*
X0204078Y0185662D01*
X0203887Y0185695D01*
X0203696Y0185723D01*
X0203503Y0185746D01*
X0203310Y0185765D01*
X0203117Y0185779D01*
X0202924Y0185789D01*
X0202730Y0185793D01*
X0202536Y0185793D01*
X0202342Y0185789D01*
X0202149Y0185779D01*
X0201956Y0185765D01*
X0201763Y0185746D01*
X0201570Y0185723D01*
X0201379Y0185695D01*
X0201188Y0185662D01*
X0200998Y0185624D01*
X0200808Y0185582D01*
X0200620Y0185535D01*
X0200433Y0185484D01*
X0200248Y0185428D01*
X0200064Y0185368D01*
X0199881Y0185303D01*
X0199700Y0185234D01*
X0199521Y0185161D01*
X0199343Y0185083D01*
X0199168Y0185001D01*
X0198994Y0184914D01*
X0198823Y0184824D01*
X0198654Y0184729D01*
X0198487Y0184630D01*
X0198323Y0184527D01*
X0198162Y0184420D01*
X0198172Y0184405D01*
X0198333Y0184512D01*
X0198497Y0184615D01*
X0198663Y0184713D01*
X0198832Y0184808D01*
X0199003Y0184898D01*
X0199176Y0184984D01*
X0199351Y0185066D01*
X0199528Y0185144D01*
X0199707Y0185218D01*
X0199887Y0185287D01*
X0200070Y0185351D01*
X0200253Y0185411D01*
X0200438Y0185467D01*
X0200625Y0185518D01*
X0200813Y0185565D01*
X0201001Y0185607D01*
X0201191Y0185644D01*
X0201382Y0185677D01*
X0201573Y0185705D01*
X0201765Y0185728D01*
X0201957Y0185747D01*
X0202150Y0185761D01*
X0202343Y0185771D01*
X0202536Y0185775D01*
X0202730Y0185775D01*
X0202923Y0185771D01*
X0203116Y0185761D01*
X0203309Y0185747D01*
X0203501Y0185728D01*
X0203693Y0185705D01*
X0203884Y0185677D01*
X0204075Y0185644D01*
X0204265Y0185607D01*
X0204453Y0185565D01*
X0204641Y0185518D01*
X0204828Y0185467D01*
X0205013Y0185411D01*
X0205196Y0185351D01*
X0205379Y0185287D01*
X0205559Y0185218D01*
X0205738Y0185144D01*
X0205915Y0185066D01*
X0206090Y0184984D01*
X0206263Y0184898D01*
X0206434Y0184808D01*
X0206603Y0184713D01*
X0206769Y0184615D01*
X0206933Y0184512D01*
X0207094Y0184405D01*
X0207084Y0184391D01*
X0206923Y0184497D01*
X0206760Y0184599D01*
X0206594Y0184698D01*
X0206426Y0184792D01*
X0206255Y0184882D01*
X0206082Y0184968D01*
X0205908Y0185050D01*
X0205731Y0185128D01*
X0205553Y0185201D01*
X0205372Y0185270D01*
X0205191Y0185334D01*
X0205007Y0185394D01*
X0204823Y0185450D01*
X0204637Y0185501D01*
X0204449Y0185547D01*
X0204261Y0185589D01*
X0204072Y0185626D01*
X0203882Y0185659D01*
X0203691Y0185687D01*
X0203499Y0185711D01*
X0203307Y0185729D01*
X0203115Y0185743D01*
X0202922Y0185753D01*
X0202729Y0185757D01*
X0202537Y0185757D01*
X0202344Y0185753D01*
X0202151Y0185743D01*
X0201959Y0185729D01*
X0201767Y0185711D01*
X0201575Y0185687D01*
X0201384Y0185659D01*
X0201194Y0185626D01*
X0201005Y0185589D01*
X0200817Y0185547D01*
X0200629Y0185501D01*
X0200443Y0185450D01*
X0200259Y0185394D01*
X0200075Y0185334D01*
X0199894Y0185270D01*
X0199713Y0185201D01*
X0199535Y0185128D01*
X0199358Y0185050D01*
X0199184Y0184968D01*
X0199011Y0184882D01*
X0198840Y0184792D01*
X0198672Y0184698D01*
X0198506Y0184599D01*
X0198343Y0184497D01*
X0198182Y0184391D01*
X0207209Y0180057D02*
X0207047Y0179979D01*
X0207048Y0179979D02*
X0206985Y0180103D01*
X0206919Y0180226D01*
X0206849Y0180346D01*
X0206777Y0180464D01*
X0206700Y0180580D01*
X0206621Y0180694D01*
X0206538Y0180806D01*
X0206453Y0180915D01*
X0206364Y0181022D01*
X0206272Y0181126D01*
X0206177Y0181228D01*
X0206080Y0181327D01*
X0205979Y0181423D01*
X0205876Y0181516D01*
X0205771Y0181607D01*
X0205663Y0181694D01*
X0205552Y0181778D01*
X0205439Y0181859D01*
X0205324Y0181937D01*
X0205207Y0182011D01*
X0205088Y0182082D01*
X0204966Y0182150D01*
X0204843Y0182214D01*
X0204718Y0182275D01*
X0204592Y0182332D01*
X0204463Y0182386D01*
X0204334Y0182436D01*
X0204203Y0182482D01*
X0204070Y0182525D01*
X0203937Y0182564D01*
X0203803Y0182599D01*
X0203667Y0182630D01*
X0203531Y0182657D01*
X0203394Y0182681D01*
X0203257Y0182700D01*
X0203118Y0182716D01*
X0202980Y0182728D01*
X0202841Y0182736D01*
X0202702Y0182740D01*
X0202564Y0182740D01*
X0202425Y0182736D01*
X0202286Y0182728D01*
X0202148Y0182716D01*
X0202009Y0182700D01*
X0201872Y0182681D01*
X0201735Y0182657D01*
X0201599Y0182630D01*
X0201463Y0182599D01*
X0201329Y0182564D01*
X0201196Y0182525D01*
X0201063Y0182482D01*
X0200932Y0182436D01*
X0200803Y0182386D01*
X0200674Y0182332D01*
X0200548Y0182275D01*
X0200423Y0182214D01*
X0200300Y0182150D01*
X0200178Y0182082D01*
X0200059Y0182011D01*
X0199942Y0181937D01*
X0199827Y0181859D01*
X0199714Y0181778D01*
X0199603Y0181694D01*
X0199495Y0181607D01*
X0199390Y0181516D01*
X0199287Y0181423D01*
X0199186Y0181327D01*
X0199089Y0181228D01*
X0198994Y0181126D01*
X0198902Y0181022D01*
X0198813Y0180915D01*
X0198728Y0180806D01*
X0198645Y0180694D01*
X0198566Y0180580D01*
X0198489Y0180464D01*
X0198417Y0180346D01*
X0198347Y0180226D01*
X0198281Y0180103D01*
X0198218Y0179979D01*
X0198057Y0180057D01*
X0198056Y0180058D01*
X0198120Y0180183D01*
X0198186Y0180307D01*
X0198256Y0180429D01*
X0198330Y0180548D01*
X0198406Y0180666D01*
X0198486Y0180782D01*
X0198569Y0180895D01*
X0198655Y0181006D01*
X0198745Y0181115D01*
X0198837Y0181221D01*
X0198932Y0181324D01*
X0199030Y0181425D01*
X0199130Y0181523D01*
X0199233Y0181618D01*
X0199339Y0181711D01*
X0199448Y0181800D01*
X0199558Y0181886D01*
X0199671Y0181970D01*
X0199787Y0182050D01*
X0199904Y0182127D01*
X0200024Y0182200D01*
X0200146Y0182271D01*
X0200269Y0182338D01*
X0200394Y0182401D01*
X0200521Y0182461D01*
X0200650Y0182518D01*
X0200780Y0182571D01*
X0200912Y0182620D01*
X0201044Y0182666D01*
X0201178Y0182708D01*
X0201314Y0182746D01*
X0201450Y0182781D01*
X0201587Y0182811D01*
X0201725Y0182838D01*
X0201863Y0182861D01*
X0202002Y0182881D01*
X0202142Y0182896D01*
X0202282Y0182908D01*
X0202422Y0182916D01*
X0202563Y0182920D01*
X0202703Y0182920D01*
X0202844Y0182916D01*
X0202984Y0182908D01*
X0203124Y0182896D01*
X0203264Y0182881D01*
X0203403Y0182861D01*
X0203541Y0182838D01*
X0203679Y0182811D01*
X0203816Y0182781D01*
X0203952Y0182746D01*
X0204088Y0182708D01*
X0204222Y0182666D01*
X0204354Y0182620D01*
X0204486Y0182571D01*
X0204616Y0182518D01*
X0204745Y0182461D01*
X0204872Y0182401D01*
X0204997Y0182338D01*
X0205120Y0182271D01*
X0205242Y0182200D01*
X0205362Y0182127D01*
X0205479Y0182050D01*
X0205595Y0181970D01*
X0205708Y0181886D01*
X0205818Y0181800D01*
X0205927Y0181711D01*
X0206033Y0181618D01*
X0206136Y0181523D01*
X0206236Y0181425D01*
X0206334Y0181324D01*
X0206429Y0181221D01*
X0206521Y0181115D01*
X0206611Y0181006D01*
X0206697Y0180895D01*
X0206780Y0180782D01*
X0206860Y0180666D01*
X0206936Y0180548D01*
X0207010Y0180429D01*
X0207080Y0180307D01*
X0207146Y0180183D01*
X0207210Y0180058D01*
X0207193Y0180050D01*
X0207130Y0180176D01*
X0207062Y0180301D01*
X0206992Y0180424D01*
X0206917Y0180545D01*
X0206840Y0180663D01*
X0206759Y0180780D01*
X0206675Y0180894D01*
X0206588Y0181006D01*
X0206497Y0181115D01*
X0206404Y0181222D01*
X0206308Y0181326D01*
X0206209Y0181427D01*
X0206107Y0181526D01*
X0206002Y0181621D01*
X0205895Y0181714D01*
X0205785Y0181803D01*
X0205673Y0181890D01*
X0205558Y0181973D01*
X0205442Y0182053D01*
X0205322Y0182130D01*
X0205201Y0182204D01*
X0205078Y0182274D01*
X0204953Y0182340D01*
X0204826Y0182403D01*
X0204697Y0182463D01*
X0204567Y0182519D01*
X0204435Y0182571D01*
X0204302Y0182619D01*
X0204168Y0182664D01*
X0204032Y0182705D01*
X0203895Y0182742D01*
X0203757Y0182776D01*
X0203619Y0182805D01*
X0203479Y0182831D01*
X0203339Y0182853D01*
X0203199Y0182870D01*
X0203058Y0182884D01*
X0202916Y0182894D01*
X0202775Y0182900D01*
X0202633Y0182902D01*
X0202491Y0182900D01*
X0202350Y0182894D01*
X0202208Y0182884D01*
X0202067Y0182870D01*
X0201927Y0182853D01*
X0201787Y0182831D01*
X0201647Y0182805D01*
X0201509Y0182776D01*
X0201371Y0182742D01*
X0201234Y0182705D01*
X0201098Y0182664D01*
X0200964Y0182619D01*
X0200831Y0182571D01*
X0200699Y0182519D01*
X0200569Y0182463D01*
X0200440Y0182403D01*
X0200313Y0182340D01*
X0200188Y0182274D01*
X0200065Y0182204D01*
X0199944Y0182130D01*
X0199824Y0182053D01*
X0199708Y0181973D01*
X0199593Y0181890D01*
X0199481Y0181803D01*
X0199371Y0181714D01*
X0199264Y0181621D01*
X0199159Y0181526D01*
X0199057Y0181427D01*
X0198958Y0181326D01*
X0198862Y0181222D01*
X0198769Y0181115D01*
X0198678Y0181006D01*
X0198591Y0180894D01*
X0198507Y0180780D01*
X0198426Y0180663D01*
X0198349Y0180545D01*
X0198274Y0180424D01*
X0198204Y0180301D01*
X0198136Y0180176D01*
X0198073Y0180050D01*
X0198089Y0180042D01*
X0198152Y0180168D01*
X0198219Y0180292D01*
X0198290Y0180415D01*
X0198364Y0180535D01*
X0198441Y0180653D01*
X0198522Y0180769D01*
X0198605Y0180883D01*
X0198692Y0180994D01*
X0198782Y0181103D01*
X0198875Y0181210D01*
X0198971Y0181313D01*
X0199070Y0181414D01*
X0199171Y0181512D01*
X0199276Y0181608D01*
X0199382Y0181700D01*
X0199492Y0181789D01*
X0199604Y0181876D01*
X0199718Y0181959D01*
X0199834Y0182038D01*
X0199953Y0182115D01*
X0200074Y0182188D01*
X0200197Y0182258D01*
X0200321Y0182324D01*
X0200448Y0182387D01*
X0200576Y0182446D01*
X0200706Y0182502D01*
X0200837Y0182554D01*
X0200970Y0182602D01*
X0201104Y0182647D01*
X0201239Y0182688D01*
X0201375Y0182725D01*
X0201513Y0182758D01*
X0201651Y0182788D01*
X0201790Y0182813D01*
X0201929Y0182835D01*
X0202069Y0182852D01*
X0202210Y0182866D01*
X0202351Y0182876D01*
X0202492Y0182882D01*
X0202633Y0182884D01*
X0202774Y0182882D01*
X0202915Y0182876D01*
X0203056Y0182866D01*
X0203197Y0182852D01*
X0203337Y0182835D01*
X0203476Y0182813D01*
X0203615Y0182788D01*
X0203753Y0182758D01*
X0203891Y0182725D01*
X0204027Y0182688D01*
X0204162Y0182647D01*
X0204296Y0182602D01*
X0204429Y0182554D01*
X0204560Y0182502D01*
X0204690Y0182446D01*
X0204818Y0182387D01*
X0204945Y0182324D01*
X0205069Y0182258D01*
X0205192Y0182188D01*
X0205313Y0182115D01*
X0205432Y0182038D01*
X0205548Y0181959D01*
X0205662Y0181876D01*
X0205774Y0181789D01*
X0205884Y0181700D01*
X0205990Y0181608D01*
X0206095Y0181512D01*
X0206196Y0181414D01*
X0206295Y0181313D01*
X0206391Y0181210D01*
X0206484Y0181103D01*
X0206574Y0180994D01*
X0206661Y0180883D01*
X0206744Y0180769D01*
X0206825Y0180653D01*
X0206902Y0180535D01*
X0206976Y0180415D01*
X0207047Y0180292D01*
X0207114Y0180168D01*
X0207177Y0180042D01*
X0207161Y0180034D01*
X0207098Y0180160D01*
X0207031Y0180284D01*
X0206961Y0180406D01*
X0206887Y0180526D01*
X0206810Y0180643D01*
X0206730Y0180759D01*
X0206646Y0180872D01*
X0206560Y0180983D01*
X0206470Y0181092D01*
X0206377Y0181198D01*
X0206282Y0181301D01*
X0206183Y0181402D01*
X0206082Y0181499D01*
X0205978Y0181594D01*
X0205872Y0181686D01*
X0205763Y0181775D01*
X0205651Y0181861D01*
X0205538Y0181944D01*
X0205422Y0182023D01*
X0205303Y0182100D01*
X0205183Y0182173D01*
X0205061Y0182242D01*
X0204936Y0182308D01*
X0204810Y0182371D01*
X0204683Y0182430D01*
X0204553Y0182486D01*
X0204422Y0182537D01*
X0204290Y0182586D01*
X0204157Y0182630D01*
X0204022Y0182671D01*
X0203886Y0182708D01*
X0203749Y0182741D01*
X0203612Y0182770D01*
X0203473Y0182795D01*
X0203334Y0182817D01*
X0203195Y0182835D01*
X0203055Y0182848D01*
X0202914Y0182858D01*
X0202774Y0182864D01*
X0202633Y0182866D01*
X0202492Y0182864D01*
X0202352Y0182858D01*
X0202211Y0182848D01*
X0202071Y0182835D01*
X0201932Y0182817D01*
X0201793Y0182795D01*
X0201654Y0182770D01*
X0201517Y0182741D01*
X0201380Y0182708D01*
X0201244Y0182671D01*
X0201109Y0182630D01*
X0200976Y0182586D01*
X0200844Y0182537D01*
X0200713Y0182486D01*
X0200583Y0182430D01*
X0200456Y0182371D01*
X0200330Y0182308D01*
X0200205Y0182242D01*
X0200083Y0182173D01*
X0199963Y0182100D01*
X0199844Y0182023D01*
X0199728Y0181944D01*
X0199615Y0181861D01*
X0199503Y0181775D01*
X0199394Y0181686D01*
X0199288Y0181594D01*
X0199184Y0181499D01*
X0199083Y0181402D01*
X0198984Y0181301D01*
X0198889Y0181198D01*
X0198796Y0181092D01*
X0198706Y0180983D01*
X0198620Y0180872D01*
X0198536Y0180759D01*
X0198456Y0180643D01*
X0198379Y0180526D01*
X0198305Y0180406D01*
X0198235Y0180284D01*
X0198168Y0180160D01*
X0198105Y0180034D01*
X0198121Y0180026D01*
X0198184Y0180152D01*
X0198251Y0180275D01*
X0198321Y0180396D01*
X0198394Y0180516D01*
X0198471Y0180633D01*
X0198551Y0180748D01*
X0198634Y0180861D01*
X0198720Y0180972D01*
X0198810Y0181080D01*
X0198902Y0181186D01*
X0198997Y0181289D01*
X0199095Y0181389D01*
X0199196Y0181486D01*
X0199300Y0181581D01*
X0199406Y0181672D01*
X0199514Y0181761D01*
X0199625Y0181847D01*
X0199739Y0181929D01*
X0199854Y0182009D01*
X0199972Y0182085D01*
X0200092Y0182157D01*
X0200214Y0182226D01*
X0200338Y0182292D01*
X0200463Y0182355D01*
X0200591Y0182414D01*
X0200720Y0182469D01*
X0200850Y0182521D01*
X0200982Y0182569D01*
X0201115Y0182613D01*
X0201249Y0182653D01*
X0201384Y0182690D01*
X0201521Y0182723D01*
X0201658Y0182752D01*
X0201796Y0182778D01*
X0201934Y0182799D01*
X0202073Y0182817D01*
X0202213Y0182830D01*
X0202353Y0182840D01*
X0202493Y0182846D01*
X0202633Y0182848D01*
X0202773Y0182846D01*
X0202913Y0182840D01*
X0203053Y0182830D01*
X0203193Y0182817D01*
X0203332Y0182799D01*
X0203470Y0182778D01*
X0203608Y0182752D01*
X0203745Y0182723D01*
X0203882Y0182690D01*
X0204017Y0182653D01*
X0204151Y0182613D01*
X0204284Y0182569D01*
X0204416Y0182521D01*
X0204546Y0182469D01*
X0204675Y0182414D01*
X0204803Y0182355D01*
X0204928Y0182292D01*
X0205052Y0182226D01*
X0205174Y0182157D01*
X0205294Y0182085D01*
X0205412Y0182009D01*
X0205527Y0181929D01*
X0205641Y0181847D01*
X0205752Y0181761D01*
X0205860Y0181672D01*
X0205966Y0181581D01*
X0206070Y0181486D01*
X0206171Y0181389D01*
X0206269Y0181289D01*
X0206364Y0181186D01*
X0206456Y0181080D01*
X0206546Y0180972D01*
X0206632Y0180861D01*
X0206715Y0180748D01*
X0206795Y0180633D01*
X0206872Y0180516D01*
X0206945Y0180396D01*
X0207015Y0180275D01*
X0207082Y0180152D01*
X0207145Y0180026D01*
X0207129Y0180019D01*
X0207066Y0180143D01*
X0206999Y0180266D01*
X0206930Y0180387D01*
X0206856Y0180506D01*
X0206780Y0180623D01*
X0206700Y0180738D01*
X0206618Y0180851D01*
X0206532Y0180961D01*
X0206443Y0181068D01*
X0206351Y0181174D01*
X0206256Y0181276D01*
X0206158Y0181376D01*
X0206058Y0181473D01*
X0205954Y0181567D01*
X0205849Y0181659D01*
X0205740Y0181747D01*
X0205630Y0181832D01*
X0205517Y0181915D01*
X0205402Y0181994D01*
X0205284Y0182069D01*
X0205165Y0182142D01*
X0205043Y0182211D01*
X0204920Y0182276D01*
X0204795Y0182339D01*
X0204668Y0182397D01*
X0204540Y0182452D01*
X0204410Y0182504D01*
X0204278Y0182552D01*
X0204146Y0182596D01*
X0204012Y0182636D01*
X0203877Y0182673D01*
X0203741Y0182706D01*
X0203605Y0182735D01*
X0203467Y0182760D01*
X0203329Y0182781D01*
X0203191Y0182799D01*
X0203052Y0182812D01*
X0202912Y0182822D01*
X0202773Y0182828D01*
X0202633Y0182830D01*
X0202493Y0182828D01*
X0202354Y0182822D01*
X0202214Y0182812D01*
X0202075Y0182799D01*
X0201937Y0182781D01*
X0201799Y0182760D01*
X0201661Y0182735D01*
X0201525Y0182706D01*
X0201389Y0182673D01*
X0201254Y0182636D01*
X0201120Y0182596D01*
X0200988Y0182552D01*
X0200856Y0182504D01*
X0200726Y0182452D01*
X0200598Y0182397D01*
X0200471Y0182339D01*
X0200346Y0182276D01*
X0200223Y0182211D01*
X0200101Y0182142D01*
X0199982Y0182069D01*
X0199864Y0181994D01*
X0199749Y0181915D01*
X0199636Y0181832D01*
X0199526Y0181747D01*
X0199417Y0181659D01*
X0199312Y0181567D01*
X0199208Y0181473D01*
X0199108Y0181376D01*
X0199010Y0181276D01*
X0198915Y0181174D01*
X0198823Y0181068D01*
X0198734Y0180961D01*
X0198648Y0180851D01*
X0198566Y0180738D01*
X0198486Y0180623D01*
X0198410Y0180506D01*
X0198336Y0180387D01*
X0198267Y0180266D01*
X0198200Y0180143D01*
X0198137Y0180019D01*
X0198154Y0180011D01*
X0198217Y0180137D01*
X0198284Y0180261D01*
X0198355Y0180383D01*
X0198429Y0180503D01*
X0198506Y0180621D01*
X0198586Y0180736D01*
X0198670Y0180850D01*
X0198757Y0180960D01*
X0198847Y0181069D01*
X0198941Y0181175D01*
X0199037Y0181278D01*
X0199136Y0181378D01*
X0199238Y0181476D01*
X0199342Y0181570D01*
X0199449Y0181662D01*
X0199559Y0181750D01*
X0199671Y0181836D01*
X0199786Y0181918D01*
X0199902Y0181997D01*
X0200021Y0182073D01*
X0200142Y0182145D01*
X0200265Y0182214D01*
X0200390Y0182279D01*
X0200517Y0182340D01*
X0200646Y0182398D01*
X0200776Y0182453D01*
X0200907Y0182504D01*
X0201040Y0182551D01*
X0201174Y0182594D01*
X0201310Y0182633D01*
X0201446Y0182669D01*
X0201584Y0182700D01*
X0201722Y0182728D01*
X0201861Y0182752D01*
X0202000Y0182772D01*
X0202140Y0182788D01*
X0202281Y0182800D01*
X0202422Y0182808D01*
X0202563Y0182812D01*
X0202703Y0182812D01*
X0202844Y0182808D01*
X0202985Y0182800D01*
X0203126Y0182788D01*
X0203266Y0182772D01*
X0203405Y0182752D01*
X0203544Y0182728D01*
X0203682Y0182700D01*
X0203820Y0182669D01*
X0203956Y0182633D01*
X0204092Y0182594D01*
X0204226Y0182551D01*
X0204359Y0182504D01*
X0204490Y0182453D01*
X0204620Y0182398D01*
X0204749Y0182340D01*
X0204876Y0182279D01*
X0205001Y0182214D01*
X0205124Y0182145D01*
X0205245Y0182073D01*
X0205364Y0181997D01*
X0205480Y0181918D01*
X0205595Y0181836D01*
X0205707Y0181750D01*
X0205817Y0181662D01*
X0205924Y0181570D01*
X0206028Y0181476D01*
X0206130Y0181378D01*
X0206229Y0181278D01*
X0206325Y0181175D01*
X0206419Y0181069D01*
X0206509Y0180960D01*
X0206596Y0180850D01*
X0206680Y0180736D01*
X0206760Y0180621D01*
X0206837Y0180503D01*
X0206911Y0180383D01*
X0206982Y0180261D01*
X0207049Y0180137D01*
X0207112Y0180011D01*
X0207096Y0180003D01*
X0207033Y0180128D01*
X0206966Y0180252D01*
X0206896Y0180373D01*
X0206822Y0180493D01*
X0206745Y0180610D01*
X0206665Y0180726D01*
X0206581Y0180839D01*
X0206495Y0180949D01*
X0206405Y0181057D01*
X0206312Y0181163D01*
X0206216Y0181265D01*
X0206118Y0181365D01*
X0206016Y0181463D01*
X0205912Y0181557D01*
X0205805Y0181648D01*
X0205696Y0181736D01*
X0205584Y0181821D01*
X0205470Y0181903D01*
X0205354Y0181982D01*
X0205235Y0182057D01*
X0205115Y0182129D01*
X0204992Y0182198D01*
X0204867Y0182263D01*
X0204741Y0182324D01*
X0204613Y0182382D01*
X0204484Y0182436D01*
X0204352Y0182487D01*
X0204220Y0182533D01*
X0204086Y0182576D01*
X0203951Y0182616D01*
X0203815Y0182651D01*
X0203679Y0182683D01*
X0203541Y0182710D01*
X0203402Y0182734D01*
X0203263Y0182754D01*
X0203124Y0182770D01*
X0202984Y0182782D01*
X0202844Y0182790D01*
X0202703Y0182794D01*
X0202563Y0182794D01*
X0202422Y0182790D01*
X0202282Y0182782D01*
X0202142Y0182770D01*
X0202003Y0182754D01*
X0201864Y0182734D01*
X0201725Y0182710D01*
X0201587Y0182683D01*
X0201451Y0182651D01*
X0201315Y0182616D01*
X0201180Y0182576D01*
X0201046Y0182533D01*
X0200914Y0182487D01*
X0200782Y0182436D01*
X0200653Y0182382D01*
X0200525Y0182324D01*
X0200399Y0182263D01*
X0200274Y0182198D01*
X0200151Y0182129D01*
X0200031Y0182057D01*
X0199912Y0181982D01*
X0199796Y0181903D01*
X0199682Y0181821D01*
X0199570Y0181736D01*
X0199461Y0181648D01*
X0199354Y0181557D01*
X0199250Y0181463D01*
X0199148Y0181365D01*
X0199050Y0181265D01*
X0198954Y0181163D01*
X0198861Y0181057D01*
X0198771Y0180949D01*
X0198685Y0180839D01*
X0198601Y0180726D01*
X0198521Y0180610D01*
X0198444Y0180493D01*
X0198370Y0180373D01*
X0198300Y0180252D01*
X0198233Y0180128D01*
X0198170Y0180003D01*
X0198186Y0179995D01*
X0198249Y0180120D01*
X0198316Y0180243D01*
X0198386Y0180364D01*
X0198459Y0180483D01*
X0198536Y0180600D01*
X0198616Y0180715D01*
X0198699Y0180828D01*
X0198785Y0180938D01*
X0198875Y0181045D01*
X0198967Y0181151D01*
X0199063Y0181253D01*
X0199161Y0181353D01*
X0199262Y0181449D01*
X0199366Y0181543D01*
X0199472Y0181634D01*
X0199581Y0181722D01*
X0199692Y0181807D01*
X0199806Y0181889D01*
X0199922Y0181967D01*
X0200040Y0182042D01*
X0200160Y0182114D01*
X0200283Y0182182D01*
X0200407Y0182247D01*
X0200533Y0182308D01*
X0200660Y0182365D01*
X0200789Y0182419D01*
X0200920Y0182470D01*
X0201052Y0182516D01*
X0201185Y0182559D01*
X0201319Y0182598D01*
X0201455Y0182634D01*
X0201591Y0182665D01*
X0201728Y0182693D01*
X0201866Y0182716D01*
X0202005Y0182736D01*
X0202144Y0182752D01*
X0202283Y0182764D01*
X0202423Y0182772D01*
X0202563Y0182776D01*
X0202703Y0182776D01*
X0202843Y0182772D01*
X0202983Y0182764D01*
X0203122Y0182752D01*
X0203261Y0182736D01*
X0203400Y0182716D01*
X0203538Y0182693D01*
X0203675Y0182665D01*
X0203811Y0182634D01*
X0203947Y0182598D01*
X0204081Y0182559D01*
X0204214Y0182516D01*
X0204346Y0182470D01*
X0204477Y0182419D01*
X0204606Y0182365D01*
X0204733Y0182308D01*
X0204859Y0182247D01*
X0204983Y0182182D01*
X0205106Y0182114D01*
X0205226Y0182042D01*
X0205344Y0181967D01*
X0205460Y0181889D01*
X0205574Y0181807D01*
X0205685Y0181722D01*
X0205794Y0181634D01*
X0205900Y0181543D01*
X0206004Y0181449D01*
X0206105Y0181353D01*
X0206203Y0181253D01*
X0206299Y0181151D01*
X0206391Y0181045D01*
X0206481Y0180938D01*
X0206567Y0180828D01*
X0206650Y0180715D01*
X0206730Y0180600D01*
X0206807Y0180483D01*
X0206880Y0180364D01*
X0206950Y0180243D01*
X0207017Y0180120D01*
X0207080Y0179995D01*
X0207064Y0179987D01*
X0207001Y0180112D01*
X0206935Y0180234D01*
X0206865Y0180355D01*
X0206792Y0180474D01*
X0206715Y0180590D01*
X0206636Y0180705D01*
X0206553Y0180817D01*
X0206467Y0180927D01*
X0206377Y0181034D01*
X0206285Y0181138D01*
X0206190Y0181240D01*
X0206092Y0181340D01*
X0205992Y0181436D01*
X0205888Y0181530D01*
X0205782Y0181620D01*
X0205674Y0181708D01*
X0205563Y0181792D01*
X0205450Y0181874D01*
X0205334Y0181952D01*
X0205216Y0182027D01*
X0205097Y0182098D01*
X0204975Y0182166D01*
X0204851Y0182231D01*
X0204726Y0182292D01*
X0204599Y0182349D01*
X0204470Y0182403D01*
X0204340Y0182453D01*
X0204208Y0182499D01*
X0204076Y0182542D01*
X0203942Y0182581D01*
X0203807Y0182616D01*
X0203671Y0182647D01*
X0203534Y0182675D01*
X0203397Y0182698D01*
X0203259Y0182718D01*
X0203120Y0182734D01*
X0202981Y0182746D01*
X0202842Y0182754D01*
X0202703Y0182758D01*
X0202563Y0182758D01*
X0202424Y0182754D01*
X0202285Y0182746D01*
X0202146Y0182734D01*
X0202007Y0182718D01*
X0201869Y0182698D01*
X0201732Y0182675D01*
X0201595Y0182647D01*
X0201459Y0182616D01*
X0201324Y0182581D01*
X0201190Y0182542D01*
X0201058Y0182499D01*
X0200926Y0182453D01*
X0200796Y0182403D01*
X0200667Y0182349D01*
X0200540Y0182292D01*
X0200415Y0182231D01*
X0200291Y0182166D01*
X0200169Y0182098D01*
X0200050Y0182027D01*
X0199932Y0181952D01*
X0199816Y0181874D01*
X0199703Y0181792D01*
X0199592Y0181708D01*
X0199484Y0181620D01*
X0199378Y0181530D01*
X0199274Y0181436D01*
X0199174Y0181340D01*
X0199076Y0181240D01*
X0198981Y0181138D01*
X0198889Y0181034D01*
X0198799Y0180927D01*
X0198713Y0180817D01*
X0198630Y0180705D01*
X0198551Y0180590D01*
X0198474Y0180474D01*
X0198401Y0180355D01*
X0198331Y0180234D01*
X0198265Y0180112D01*
X0198202Y0179987D01*
X0198075Y0184513D02*
X0198176Y0184364D01*
X0198176Y0184365D02*
X0198018Y0184255D01*
X0197864Y0184141D01*
X0197712Y0184023D01*
X0197563Y0183902D01*
X0197417Y0183777D01*
X0197275Y0183649D01*
X0197135Y0183517D01*
X0196999Y0183382D01*
X0196866Y0183243D01*
X0196736Y0183102D01*
X0196610Y0182957D01*
X0196487Y0182809D01*
X0196368Y0182659D01*
X0196253Y0182505D01*
X0196141Y0182349D01*
X0196033Y0182190D01*
X0195929Y0182029D01*
X0195829Y0181865D01*
X0195734Y0181699D01*
X0195642Y0181530D01*
X0195554Y0181359D01*
X0195470Y0181186D01*
X0195391Y0181012D01*
X0195316Y0180835D01*
X0195245Y0180656D01*
X0195179Y0180476D01*
X0195117Y0180295D01*
X0195059Y0180111D01*
X0195006Y0179927D01*
X0194957Y0179741D01*
X0194913Y0179554D01*
X0194874Y0179367D01*
X0194839Y0179178D01*
X0194808Y0178988D01*
X0194782Y0178798D01*
X0194761Y0178607D01*
X0194745Y0178416D01*
X0194733Y0178224D01*
X0194726Y0178032D01*
X0194723Y0177840D01*
X0194544Y0177840D01*
X0194543Y0177840D01*
X0194546Y0178037D01*
X0194553Y0178233D01*
X0194565Y0178429D01*
X0194582Y0178625D01*
X0194604Y0178820D01*
X0194630Y0179014D01*
X0194661Y0179208D01*
X0194697Y0179401D01*
X0194738Y0179594D01*
X0194783Y0179785D01*
X0194832Y0179975D01*
X0194887Y0180163D01*
X0194946Y0180351D01*
X0195009Y0180536D01*
X0195077Y0180721D01*
X0195149Y0180903D01*
X0195226Y0181084D01*
X0195307Y0181263D01*
X0195393Y0181440D01*
X0195483Y0181614D01*
X0195577Y0181787D01*
X0195675Y0181957D01*
X0195777Y0182124D01*
X0195883Y0182290D01*
X0195993Y0182452D01*
X0196107Y0182612D01*
X0196225Y0182769D01*
X0196347Y0182923D01*
X0196473Y0183074D01*
X0196602Y0183222D01*
X0196734Y0183367D01*
X0196871Y0183508D01*
X0197010Y0183646D01*
X0197153Y0183781D01*
X0197299Y0183912D01*
X0197448Y0184040D01*
X0197600Y0184164D01*
X0197756Y0184284D01*
X0197914Y0184401D01*
X0198075Y0184513D01*
X0198085Y0184499D01*
X0197924Y0184386D01*
X0197766Y0184270D01*
X0197612Y0184150D01*
X0197460Y0184026D01*
X0197311Y0183899D01*
X0197165Y0183768D01*
X0197023Y0183633D01*
X0196883Y0183496D01*
X0196748Y0183354D01*
X0196615Y0183210D01*
X0196486Y0183062D01*
X0196361Y0182911D01*
X0196240Y0182758D01*
X0196122Y0182601D01*
X0196008Y0182442D01*
X0195898Y0182280D01*
X0195792Y0182115D01*
X0195690Y0181948D01*
X0195592Y0181778D01*
X0195499Y0181606D01*
X0195409Y0181431D01*
X0195324Y0181255D01*
X0195243Y0181077D01*
X0195166Y0180896D01*
X0195094Y0180714D01*
X0195026Y0180530D01*
X0194963Y0180345D01*
X0194904Y0180158D01*
X0194850Y0179970D01*
X0194800Y0179780D01*
X0194755Y0179590D01*
X0194715Y0179398D01*
X0194679Y0179205D01*
X0194648Y0179012D01*
X0194622Y0178818D01*
X0194600Y0178623D01*
X0194583Y0178428D01*
X0194571Y0178232D01*
X0194564Y0178036D01*
X0194561Y0177840D01*
X0194579Y0177840D01*
X0194582Y0178036D01*
X0194589Y0178231D01*
X0194601Y0178426D01*
X0194618Y0178621D01*
X0194640Y0178815D01*
X0194666Y0179009D01*
X0194697Y0179202D01*
X0194732Y0179394D01*
X0194773Y0179586D01*
X0194818Y0179776D01*
X0194867Y0179965D01*
X0194921Y0180153D01*
X0194980Y0180339D01*
X0195043Y0180524D01*
X0195111Y0180708D01*
X0195183Y0180890D01*
X0195259Y0181069D01*
X0195340Y0181247D01*
X0195425Y0181423D01*
X0195514Y0181597D01*
X0195608Y0181769D01*
X0195706Y0181938D01*
X0195807Y0182105D01*
X0195913Y0182270D01*
X0196023Y0182431D01*
X0196137Y0182591D01*
X0196254Y0182747D01*
X0196375Y0182900D01*
X0196500Y0183051D01*
X0196629Y0183198D01*
X0196761Y0183342D01*
X0196896Y0183483D01*
X0197035Y0183620D01*
X0197177Y0183755D01*
X0197323Y0183885D01*
X0197471Y0184012D01*
X0197623Y0184136D01*
X0197777Y0184256D01*
X0197935Y0184372D01*
X0198095Y0184484D01*
X0198105Y0184469D01*
X0197945Y0184357D01*
X0197788Y0184241D01*
X0197634Y0184122D01*
X0197483Y0183999D01*
X0197334Y0183872D01*
X0197189Y0183741D01*
X0197048Y0183608D01*
X0196909Y0183470D01*
X0196774Y0183330D01*
X0196642Y0183186D01*
X0196514Y0183039D01*
X0196389Y0182889D01*
X0196268Y0182736D01*
X0196151Y0182580D01*
X0196038Y0182421D01*
X0195928Y0182260D01*
X0195823Y0182096D01*
X0195721Y0181929D01*
X0195624Y0181760D01*
X0195530Y0181589D01*
X0195441Y0181415D01*
X0195356Y0181240D01*
X0195276Y0181062D01*
X0195199Y0180883D01*
X0195128Y0180701D01*
X0195060Y0180518D01*
X0194997Y0180334D01*
X0194938Y0180148D01*
X0194885Y0179960D01*
X0194835Y0179772D01*
X0194790Y0179582D01*
X0194750Y0179391D01*
X0194714Y0179199D01*
X0194684Y0179007D01*
X0194657Y0178813D01*
X0194636Y0178619D01*
X0194619Y0178425D01*
X0194607Y0178230D01*
X0194600Y0178036D01*
X0194597Y0177840D01*
X0194615Y0177840D01*
X0194618Y0178035D01*
X0194625Y0178230D01*
X0194637Y0178424D01*
X0194654Y0178618D01*
X0194675Y0178811D01*
X0194701Y0179004D01*
X0194732Y0179196D01*
X0194768Y0179387D01*
X0194808Y0179578D01*
X0194853Y0179767D01*
X0194902Y0179956D01*
X0194956Y0180143D01*
X0195014Y0180328D01*
X0195077Y0180512D01*
X0195144Y0180695D01*
X0195216Y0180876D01*
X0195292Y0181055D01*
X0195373Y0181232D01*
X0195457Y0181407D01*
X0195546Y0181580D01*
X0195639Y0181751D01*
X0195737Y0181920D01*
X0195838Y0182086D01*
X0195943Y0182250D01*
X0196052Y0182411D01*
X0196166Y0182569D01*
X0196282Y0182725D01*
X0196403Y0182877D01*
X0196527Y0183027D01*
X0196655Y0183174D01*
X0196787Y0183317D01*
X0196922Y0183458D01*
X0197060Y0183595D01*
X0197202Y0183728D01*
X0197346Y0183858D01*
X0197494Y0183985D01*
X0197645Y0184108D01*
X0197799Y0184227D01*
X0197956Y0184342D01*
X0198115Y0184454D01*
X0198125Y0184439D01*
X0197966Y0184328D01*
X0197810Y0184212D01*
X0197656Y0184094D01*
X0197506Y0183971D01*
X0197358Y0183845D01*
X0197214Y0183715D01*
X0197073Y0183582D01*
X0196935Y0183445D01*
X0196800Y0183305D01*
X0196669Y0183162D01*
X0196541Y0183016D01*
X0196417Y0182866D01*
X0196297Y0182714D01*
X0196180Y0182559D01*
X0196067Y0182401D01*
X0195958Y0182240D01*
X0195853Y0182077D01*
X0195752Y0181911D01*
X0195655Y0181743D01*
X0195562Y0181572D01*
X0195473Y0181399D01*
X0195389Y0181225D01*
X0195309Y0181048D01*
X0195233Y0180869D01*
X0195161Y0180689D01*
X0195094Y0180506D01*
X0195031Y0180323D01*
X0194973Y0180137D01*
X0194919Y0179951D01*
X0194870Y0179763D01*
X0194825Y0179574D01*
X0194785Y0179384D01*
X0194750Y0179193D01*
X0194719Y0179001D01*
X0194693Y0178809D01*
X0194672Y0178616D01*
X0194655Y0178422D01*
X0194643Y0178229D01*
X0194636Y0178035D01*
X0194633Y0177840D01*
X0194651Y0177840D01*
X0194654Y0178034D01*
X0194661Y0178228D01*
X0194673Y0178421D01*
X0194690Y0178614D01*
X0194711Y0178807D01*
X0194737Y0178999D01*
X0194768Y0179190D01*
X0194803Y0179380D01*
X0194843Y0179570D01*
X0194887Y0179759D01*
X0194937Y0179946D01*
X0194990Y0180132D01*
X0195048Y0180317D01*
X0195111Y0180500D01*
X0195178Y0180682D01*
X0195249Y0180862D01*
X0195325Y0181041D01*
X0195405Y0181217D01*
X0195490Y0181391D01*
X0195578Y0181564D01*
X0195671Y0181734D01*
X0195768Y0181902D01*
X0195868Y0182067D01*
X0195973Y0182230D01*
X0196082Y0182390D01*
X0196195Y0182548D01*
X0196311Y0182703D01*
X0196431Y0182855D01*
X0196555Y0183004D01*
X0196682Y0183150D01*
X0196813Y0183293D01*
X0196947Y0183432D01*
X0197085Y0183569D01*
X0197226Y0183702D01*
X0197370Y0183831D01*
X0197517Y0183957D01*
X0197667Y0184079D01*
X0197821Y0184198D01*
X0197977Y0184313D01*
X0198135Y0184424D01*
X0198145Y0184409D01*
X0197987Y0184298D01*
X0197831Y0184184D01*
X0197679Y0184065D01*
X0197529Y0183943D01*
X0197382Y0183818D01*
X0197238Y0183688D01*
X0197098Y0183556D01*
X0196960Y0183420D01*
X0196826Y0183280D01*
X0196696Y0183138D01*
X0196569Y0182992D01*
X0196445Y0182843D01*
X0196325Y0182692D01*
X0196209Y0182537D01*
X0196097Y0182380D01*
X0195988Y0182220D01*
X0195884Y0182057D01*
X0195783Y0181892D01*
X0195686Y0181725D01*
X0195594Y0181555D01*
X0195506Y0181383D01*
X0195421Y0181209D01*
X0195342Y0181033D01*
X0195266Y0180855D01*
X0195195Y0180676D01*
X0195128Y0180494D01*
X0195065Y0180311D01*
X0195007Y0180127D01*
X0194954Y0179941D01*
X0194905Y0179754D01*
X0194861Y0179566D01*
X0194821Y0179377D01*
X0194785Y0179187D01*
X0194755Y0178996D01*
X0194729Y0178805D01*
X0194708Y0178612D01*
X0194691Y0178420D01*
X0194679Y0178227D01*
X0194672Y0178034D01*
X0194669Y0177840D01*
X0194687Y0177840D01*
X0194690Y0178033D01*
X0194697Y0178226D01*
X0194709Y0178419D01*
X0194725Y0178611D01*
X0194747Y0178802D01*
X0194773Y0178993D01*
X0194803Y0179184D01*
X0194838Y0179374D01*
X0194878Y0179562D01*
X0194922Y0179750D01*
X0194971Y0179936D01*
X0195025Y0180122D01*
X0195083Y0180306D01*
X0195145Y0180488D01*
X0195212Y0180669D01*
X0195283Y0180849D01*
X0195358Y0181026D01*
X0195438Y0181202D01*
X0195522Y0181375D01*
X0195610Y0181547D01*
X0195702Y0181716D01*
X0195799Y0181883D01*
X0195899Y0182048D01*
X0196003Y0182210D01*
X0196112Y0182370D01*
X0196224Y0182527D01*
X0196339Y0182681D01*
X0196459Y0182832D01*
X0196582Y0182980D01*
X0196709Y0183126D01*
X0196839Y0183268D01*
X0196973Y0183407D01*
X0197110Y0183543D01*
X0197250Y0183675D01*
X0197394Y0183804D01*
X0197540Y0183929D01*
X0197690Y0184051D01*
X0197842Y0184169D01*
X0197998Y0184284D01*
X0198156Y0184394D01*
X0198166Y0184379D01*
X0198008Y0184269D01*
X0197853Y0184155D01*
X0197701Y0184037D01*
X0197552Y0183916D01*
X0197406Y0183790D01*
X0197262Y0183662D01*
X0197123Y0183530D01*
X0196986Y0183394D01*
X0196852Y0183256D01*
X0196722Y0183114D01*
X0196596Y0182969D01*
X0196473Y0182821D01*
X0196354Y0182670D01*
X0196238Y0182516D01*
X0196126Y0182359D01*
X0196018Y0182200D01*
X0195914Y0182038D01*
X0195814Y0181874D01*
X0195718Y0181707D01*
X0195626Y0181538D01*
X0195538Y0181367D01*
X0195454Y0181194D01*
X0195375Y0181019D01*
X0195299Y0180842D01*
X0195228Y0180663D01*
X0195162Y0180482D01*
X0195100Y0180300D01*
X0195042Y0180117D01*
X0194989Y0179932D01*
X0194940Y0179746D01*
X0194896Y0179558D01*
X0194856Y0179370D01*
X0194821Y0179181D01*
X0194790Y0178991D01*
X0194765Y0178800D01*
X0194743Y0178609D01*
X0194727Y0178417D01*
X0194715Y0178225D01*
X0194708Y0178033D01*
X0194705Y0177840D01*
X0207191Y0144147D02*
X0207090Y0144296D01*
X0207248Y0144406D01*
X0207402Y0144520D01*
X0207554Y0144637D01*
X0207703Y0144758D01*
X0207849Y0144883D01*
X0207991Y0145012D01*
X0208131Y0145143D01*
X0208268Y0145278D01*
X0208401Y0145417D01*
X0208530Y0145558D01*
X0208656Y0145703D01*
X0208779Y0145851D01*
X0208898Y0146001D01*
X0209013Y0146155D01*
X0209125Y0146311D01*
X0209233Y0146470D01*
X0209337Y0146631D01*
X0209437Y0146795D01*
X0209533Y0146962D01*
X0209624Y0147130D01*
X0209712Y0147301D01*
X0209796Y0147474D01*
X0209875Y0147649D01*
X0209950Y0147825D01*
X0210021Y0148004D01*
X0210087Y0148184D01*
X0210149Y0148366D01*
X0210207Y0148549D01*
X0210260Y0148733D01*
X0210309Y0148919D01*
X0210353Y0149106D01*
X0210392Y0149294D01*
X0210427Y0149482D01*
X0210458Y0149672D01*
X0210484Y0149862D01*
X0210505Y0150053D01*
X0210521Y0150244D01*
X0210533Y0150436D01*
X0210540Y0150628D01*
X0210543Y0150820D01*
X0210722Y0150820D01*
X0210723Y0150820D01*
X0210720Y0150623D01*
X0210713Y0150427D01*
X0210701Y0150231D01*
X0210684Y0150036D01*
X0210662Y0149840D01*
X0210636Y0149646D01*
X0210605Y0149452D01*
X0210569Y0149259D01*
X0210528Y0149067D01*
X0210483Y0148876D01*
X0210434Y0148686D01*
X0210379Y0148497D01*
X0210320Y0148310D01*
X0210257Y0148124D01*
X0210189Y0147940D01*
X0210117Y0147757D01*
X0210040Y0147576D01*
X0209959Y0147397D01*
X0209873Y0147221D01*
X0209783Y0147046D01*
X0209690Y0146874D01*
X0209591Y0146703D01*
X0209489Y0146536D01*
X0209383Y0146371D01*
X0209273Y0146208D01*
X0209159Y0146048D01*
X0209041Y0145891D01*
X0208919Y0145737D01*
X0208793Y0145586D01*
X0208664Y0145438D01*
X0208532Y0145293D01*
X0208396Y0145152D01*
X0208256Y0145014D01*
X0208113Y0144879D01*
X0207967Y0144748D01*
X0207818Y0144620D01*
X0207666Y0144496D01*
X0207511Y0144376D01*
X0207353Y0144259D01*
X0207192Y0144147D01*
X0207182Y0144162D01*
X0207342Y0144274D01*
X0207500Y0144390D01*
X0207655Y0144510D01*
X0207807Y0144634D01*
X0207955Y0144761D01*
X0208101Y0144892D01*
X0208244Y0145027D01*
X0208383Y0145165D01*
X0208519Y0145306D01*
X0208651Y0145450D01*
X0208780Y0145598D01*
X0208905Y0145749D01*
X0209026Y0145902D01*
X0209144Y0146059D01*
X0209258Y0146218D01*
X0209368Y0146381D01*
X0209474Y0146545D01*
X0209576Y0146713D01*
X0209674Y0146882D01*
X0209768Y0147054D01*
X0209857Y0147229D01*
X0209942Y0147405D01*
X0210023Y0147583D01*
X0210100Y0147764D01*
X0210172Y0147946D01*
X0210240Y0148130D01*
X0210303Y0148315D01*
X0210362Y0148502D01*
X0210416Y0148690D01*
X0210466Y0148880D01*
X0210511Y0149071D01*
X0210551Y0149262D01*
X0210587Y0149455D01*
X0210618Y0149648D01*
X0210644Y0149843D01*
X0210666Y0150037D01*
X0210683Y0150232D01*
X0210695Y0150428D01*
X0210702Y0150624D01*
X0210705Y0150820D01*
X0210687Y0150820D01*
X0210684Y0150624D01*
X0210677Y0150429D01*
X0210665Y0150234D01*
X0210648Y0150039D01*
X0210627Y0149845D01*
X0210600Y0149651D01*
X0210569Y0149458D01*
X0210534Y0149266D01*
X0210493Y0149074D01*
X0210448Y0148884D01*
X0210399Y0148695D01*
X0210345Y0148507D01*
X0210286Y0148321D01*
X0210223Y0148136D01*
X0210155Y0147952D01*
X0210083Y0147771D01*
X0210007Y0147591D01*
X0209926Y0147413D01*
X0209841Y0147237D01*
X0209752Y0147063D01*
X0209658Y0146891D01*
X0209560Y0146722D01*
X0209459Y0146555D01*
X0209353Y0146391D01*
X0209243Y0146229D01*
X0209130Y0146070D01*
X0209012Y0145913D01*
X0208891Y0145760D01*
X0208766Y0145610D01*
X0208638Y0145462D01*
X0208506Y0145318D01*
X0208370Y0145177D01*
X0208231Y0145040D01*
X0208089Y0144906D01*
X0207944Y0144775D01*
X0207795Y0144648D01*
X0207643Y0144524D01*
X0207489Y0144405D01*
X0207332Y0144289D01*
X0207171Y0144176D01*
X0207161Y0144191D01*
X0207321Y0144303D01*
X0207478Y0144419D01*
X0207632Y0144538D01*
X0207784Y0144662D01*
X0207932Y0144788D01*
X0208077Y0144919D01*
X0208219Y0145053D01*
X0208357Y0145190D01*
X0208492Y0145330D01*
X0208624Y0145474D01*
X0208752Y0145621D01*
X0208877Y0145771D01*
X0208998Y0145924D01*
X0209115Y0146080D01*
X0209228Y0146239D01*
X0209338Y0146400D01*
X0209443Y0146564D01*
X0209545Y0146731D01*
X0209642Y0146900D01*
X0209736Y0147071D01*
X0209825Y0147245D01*
X0209910Y0147420D01*
X0209990Y0147598D01*
X0210067Y0147777D01*
X0210139Y0147959D01*
X0210206Y0148142D01*
X0210269Y0148326D01*
X0210328Y0148512D01*
X0210382Y0148700D01*
X0210431Y0148889D01*
X0210476Y0149078D01*
X0210516Y0149269D01*
X0210552Y0149461D01*
X0210582Y0149654D01*
X0210609Y0149847D01*
X0210630Y0150041D01*
X0210647Y0150235D01*
X0210659Y0150430D01*
X0210666Y0150625D01*
X0210669Y0150820D01*
X0210651Y0150820D01*
X0210648Y0150625D01*
X0210641Y0150431D01*
X0210629Y0150236D01*
X0210612Y0150043D01*
X0210591Y0149849D01*
X0210565Y0149656D01*
X0210534Y0149464D01*
X0210498Y0149273D01*
X0210458Y0149082D01*
X0210413Y0148893D01*
X0210364Y0148705D01*
X0210310Y0148518D01*
X0210252Y0148332D01*
X0210189Y0148148D01*
X0210122Y0147965D01*
X0210050Y0147784D01*
X0209974Y0147605D01*
X0209893Y0147428D01*
X0209809Y0147253D01*
X0209720Y0147080D01*
X0209627Y0146909D01*
X0209530Y0146740D01*
X0209428Y0146574D01*
X0209323Y0146410D01*
X0209214Y0146249D01*
X0209101Y0146091D01*
X0208984Y0145935D01*
X0208863Y0145783D01*
X0208739Y0145633D01*
X0208611Y0145486D01*
X0208479Y0145343D01*
X0208344Y0145203D01*
X0208206Y0145066D01*
X0208065Y0144932D01*
X0207920Y0144802D01*
X0207772Y0144675D01*
X0207621Y0144552D01*
X0207467Y0144433D01*
X0207311Y0144318D01*
X0207151Y0144206D01*
X0207141Y0144221D01*
X0207300Y0144332D01*
X0207456Y0144448D01*
X0207610Y0144567D01*
X0207760Y0144689D01*
X0207908Y0144815D01*
X0208052Y0144945D01*
X0208194Y0145079D01*
X0208332Y0145215D01*
X0208466Y0145355D01*
X0208597Y0145498D01*
X0208725Y0145645D01*
X0208849Y0145794D01*
X0208969Y0145946D01*
X0209086Y0146102D01*
X0209199Y0146260D01*
X0209308Y0146420D01*
X0209413Y0146584D01*
X0209514Y0146749D01*
X0209611Y0146918D01*
X0209704Y0147088D01*
X0209793Y0147261D01*
X0209877Y0147436D01*
X0209957Y0147612D01*
X0210033Y0147791D01*
X0210105Y0147972D01*
X0210172Y0148154D01*
X0210235Y0148338D01*
X0210293Y0148523D01*
X0210347Y0148709D01*
X0210396Y0148897D01*
X0210441Y0149086D01*
X0210481Y0149276D01*
X0210516Y0149467D01*
X0210547Y0149659D01*
X0210573Y0149851D01*
X0210594Y0150044D01*
X0210611Y0150238D01*
X0210623Y0150432D01*
X0210630Y0150626D01*
X0210633Y0150820D01*
X0210615Y0150820D01*
X0210612Y0150626D01*
X0210605Y0150432D01*
X0210593Y0150239D01*
X0210576Y0150046D01*
X0210555Y0149853D01*
X0210529Y0149661D01*
X0210498Y0149470D01*
X0210463Y0149280D01*
X0210423Y0149090D01*
X0210379Y0148902D01*
X0210329Y0148714D01*
X0210276Y0148528D01*
X0210218Y0148343D01*
X0210155Y0148160D01*
X0210088Y0147978D01*
X0210017Y0147798D01*
X0209941Y0147620D01*
X0209861Y0147443D01*
X0209777Y0147269D01*
X0209688Y0147097D01*
X0209595Y0146926D01*
X0209499Y0146759D01*
X0209398Y0146593D01*
X0209293Y0146430D01*
X0209184Y0146270D01*
X0209072Y0146112D01*
X0208955Y0145957D01*
X0208835Y0145805D01*
X0208711Y0145656D01*
X0208584Y0145510D01*
X0208453Y0145367D01*
X0208319Y0145228D01*
X0208181Y0145091D01*
X0208040Y0144959D01*
X0207896Y0144829D01*
X0207749Y0144703D01*
X0207599Y0144581D01*
X0207446Y0144462D01*
X0207290Y0144347D01*
X0207131Y0144236D01*
X0207121Y0144251D01*
X0207279Y0144362D01*
X0207435Y0144476D01*
X0207588Y0144595D01*
X0207737Y0144717D01*
X0207884Y0144843D01*
X0208028Y0144972D01*
X0208169Y0145104D01*
X0208306Y0145240D01*
X0208440Y0145380D01*
X0208570Y0145522D01*
X0208698Y0145668D01*
X0208821Y0145817D01*
X0208941Y0145968D01*
X0209057Y0146123D01*
X0209169Y0146280D01*
X0209278Y0146440D01*
X0209382Y0146603D01*
X0209483Y0146768D01*
X0209580Y0146935D01*
X0209672Y0147105D01*
X0209760Y0147277D01*
X0209845Y0147451D01*
X0209924Y0147627D01*
X0210000Y0147805D01*
X0210071Y0147985D01*
X0210138Y0148166D01*
X0210201Y0148349D01*
X0210259Y0148533D01*
X0210312Y0148719D01*
X0210361Y0148906D01*
X0210406Y0149094D01*
X0210445Y0149283D01*
X0210481Y0149473D01*
X0210511Y0149664D01*
X0210537Y0149856D01*
X0210558Y0150048D01*
X0210575Y0150240D01*
X0210587Y0150433D01*
X0210594Y0150626D01*
X0210597Y0150820D01*
X0210579Y0150820D01*
X0210576Y0150627D01*
X0210569Y0150434D01*
X0210557Y0150242D01*
X0210541Y0150050D01*
X0210519Y0149858D01*
X0210493Y0149667D01*
X0210463Y0149476D01*
X0210428Y0149287D01*
X0210388Y0149098D01*
X0210344Y0148910D01*
X0210295Y0148724D01*
X0210241Y0148538D01*
X0210184Y0148354D01*
X0210121Y0148172D01*
X0210054Y0147991D01*
X0209983Y0147812D01*
X0209908Y0147634D01*
X0209828Y0147459D01*
X0209744Y0147285D01*
X0209656Y0147113D01*
X0209564Y0146944D01*
X0209468Y0146777D01*
X0209367Y0146612D01*
X0209263Y0146450D01*
X0209155Y0146290D01*
X0209043Y0146134D01*
X0208927Y0145979D01*
X0208807Y0145828D01*
X0208684Y0145680D01*
X0208557Y0145534D01*
X0208427Y0145392D01*
X0208293Y0145253D01*
X0208156Y0145117D01*
X0208016Y0144985D01*
X0207872Y0144856D01*
X0207726Y0144731D01*
X0207576Y0144609D01*
X0207424Y0144491D01*
X0207269Y0144376D01*
X0207111Y0144266D01*
X0207101Y0144281D01*
X0207258Y0144391D01*
X0207413Y0144505D01*
X0207565Y0144623D01*
X0207714Y0144745D01*
X0207861Y0144870D01*
X0208004Y0144998D01*
X0208144Y0145130D01*
X0208280Y0145266D01*
X0208414Y0145404D01*
X0208544Y0145546D01*
X0208670Y0145691D01*
X0208793Y0145839D01*
X0208912Y0145990D01*
X0209028Y0146144D01*
X0209140Y0146301D01*
X0209248Y0146460D01*
X0209352Y0146622D01*
X0209452Y0146786D01*
X0209548Y0146953D01*
X0209640Y0147122D01*
X0209728Y0147293D01*
X0209812Y0147466D01*
X0209892Y0147641D01*
X0209967Y0147818D01*
X0210038Y0147997D01*
X0210104Y0148178D01*
X0210166Y0148360D01*
X0210224Y0148544D01*
X0210277Y0148728D01*
X0210326Y0148915D01*
X0210370Y0149102D01*
X0210410Y0149290D01*
X0210445Y0149479D01*
X0210476Y0149669D01*
X0210501Y0149860D01*
X0210523Y0150051D01*
X0210539Y0150243D01*
X0210551Y0150435D01*
X0210558Y0150627D01*
X0210561Y0150820D01*
X0198091Y0144136D02*
X0198192Y0144285D01*
X0198192Y0144284D02*
X0198353Y0144178D01*
X0198516Y0144076D01*
X0198681Y0143978D01*
X0198849Y0143884D01*
X0199019Y0143794D01*
X0199191Y0143708D01*
X0199366Y0143626D01*
X0199542Y0143549D01*
X0199720Y0143476D01*
X0199900Y0143407D01*
X0200081Y0143343D01*
X0200264Y0143283D01*
X0200448Y0143228D01*
X0200634Y0143177D01*
X0200821Y0143130D01*
X0201009Y0143089D01*
X0201198Y0143051D01*
X0201387Y0143019D01*
X0201578Y0142991D01*
X0201769Y0142967D01*
X0201960Y0142949D01*
X0202152Y0142935D01*
X0202344Y0142925D01*
X0202537Y0142921D01*
X0202729Y0142921D01*
X0202922Y0142925D01*
X0203114Y0142935D01*
X0203306Y0142949D01*
X0203497Y0142967D01*
X0203688Y0142991D01*
X0203879Y0143019D01*
X0204068Y0143051D01*
X0204257Y0143089D01*
X0204445Y0143130D01*
X0204632Y0143177D01*
X0204818Y0143228D01*
X0205002Y0143283D01*
X0205185Y0143343D01*
X0205366Y0143407D01*
X0205546Y0143476D01*
X0205724Y0143549D01*
X0205900Y0143626D01*
X0206075Y0143708D01*
X0206247Y0143794D01*
X0206417Y0143884D01*
X0206585Y0143978D01*
X0206750Y0144076D01*
X0206913Y0144178D01*
X0207074Y0144284D01*
X0207175Y0144136D01*
X0207011Y0144027D01*
X0206844Y0143922D01*
X0206675Y0143822D01*
X0206503Y0143726D01*
X0206329Y0143634D01*
X0206153Y0143546D01*
X0205975Y0143462D01*
X0205795Y0143383D01*
X0205612Y0143309D01*
X0205429Y0143238D01*
X0205243Y0143173D01*
X0205056Y0143111D01*
X0204867Y0143055D01*
X0204678Y0143003D01*
X0204486Y0142955D01*
X0204294Y0142912D01*
X0204101Y0142874D01*
X0203907Y0142841D01*
X0203712Y0142812D01*
X0203517Y0142788D01*
X0203321Y0142769D01*
X0203125Y0142755D01*
X0202928Y0142745D01*
X0202731Y0142741D01*
X0202535Y0142741D01*
X0202338Y0142745D01*
X0202141Y0142755D01*
X0201945Y0142769D01*
X0201749Y0142788D01*
X0201554Y0142812D01*
X0201359Y0142841D01*
X0201165Y0142874D01*
X0200972Y0142912D01*
X0200780Y0142955D01*
X0200588Y0143003D01*
X0200399Y0143055D01*
X0200210Y0143111D01*
X0200023Y0143173D01*
X0199837Y0143238D01*
X0199654Y0143309D01*
X0199471Y0143383D01*
X0199291Y0143462D01*
X0199113Y0143546D01*
X0198937Y0143634D01*
X0198763Y0143726D01*
X0198591Y0143822D01*
X0198422Y0143922D01*
X0198255Y0144027D01*
X0198091Y0144136D01*
X0198101Y0144150D01*
X0198265Y0144042D01*
X0198431Y0143938D01*
X0198600Y0143838D01*
X0198771Y0143742D01*
X0198945Y0143650D01*
X0199121Y0143562D01*
X0199299Y0143479D01*
X0199479Y0143400D01*
X0199660Y0143325D01*
X0199844Y0143255D01*
X0200029Y0143190D01*
X0200215Y0143129D01*
X0200404Y0143072D01*
X0200593Y0143020D01*
X0200784Y0142973D01*
X0200975Y0142930D01*
X0201168Y0142892D01*
X0201362Y0142859D01*
X0201556Y0142830D01*
X0201751Y0142806D01*
X0201946Y0142787D01*
X0202142Y0142773D01*
X0202338Y0142763D01*
X0202535Y0142759D01*
X0202731Y0142759D01*
X0202928Y0142763D01*
X0203124Y0142773D01*
X0203320Y0142787D01*
X0203515Y0142806D01*
X0203710Y0142830D01*
X0203904Y0142859D01*
X0204098Y0142892D01*
X0204291Y0142930D01*
X0204482Y0142973D01*
X0204673Y0143020D01*
X0204862Y0143072D01*
X0205051Y0143129D01*
X0205237Y0143190D01*
X0205422Y0143255D01*
X0205606Y0143325D01*
X0205787Y0143400D01*
X0205967Y0143479D01*
X0206145Y0143562D01*
X0206321Y0143650D01*
X0206495Y0143742D01*
X0206666Y0143838D01*
X0206835Y0143938D01*
X0207001Y0144042D01*
X0207165Y0144150D01*
X0207155Y0144165D01*
X0206992Y0144057D01*
X0206825Y0143953D01*
X0206657Y0143853D01*
X0206486Y0143757D01*
X0206313Y0143666D01*
X0206137Y0143578D01*
X0205960Y0143495D01*
X0205780Y0143416D01*
X0205599Y0143342D01*
X0205416Y0143272D01*
X0205231Y0143207D01*
X0205045Y0143146D01*
X0204857Y0143089D01*
X0204668Y0143037D01*
X0204478Y0142990D01*
X0204287Y0142948D01*
X0204095Y0142910D01*
X0203902Y0142877D01*
X0203708Y0142848D01*
X0203513Y0142824D01*
X0203318Y0142805D01*
X0203123Y0142791D01*
X0202927Y0142781D01*
X0202731Y0142777D01*
X0202535Y0142777D01*
X0202339Y0142781D01*
X0202143Y0142791D01*
X0201948Y0142805D01*
X0201753Y0142824D01*
X0201558Y0142848D01*
X0201364Y0142877D01*
X0201171Y0142910D01*
X0200979Y0142948D01*
X0200788Y0142990D01*
X0200598Y0143037D01*
X0200409Y0143089D01*
X0200221Y0143146D01*
X0200035Y0143207D01*
X0199850Y0143272D01*
X0199667Y0143342D01*
X0199486Y0143416D01*
X0199306Y0143495D01*
X0199129Y0143578D01*
X0198953Y0143666D01*
X0198780Y0143757D01*
X0198609Y0143853D01*
X0198441Y0143953D01*
X0198274Y0144057D01*
X0198111Y0144165D01*
X0198121Y0144180D01*
X0198284Y0144072D01*
X0198450Y0143969D01*
X0198618Y0143869D01*
X0198789Y0143773D01*
X0198962Y0143682D01*
X0199137Y0143595D01*
X0199314Y0143512D01*
X0199493Y0143433D01*
X0199674Y0143359D01*
X0199856Y0143289D01*
X0200040Y0143224D01*
X0200226Y0143163D01*
X0200414Y0143107D01*
X0200602Y0143055D01*
X0200792Y0143008D01*
X0200983Y0142965D01*
X0201175Y0142927D01*
X0201367Y0142894D01*
X0201561Y0142866D01*
X0201755Y0142842D01*
X0201949Y0142823D01*
X0202144Y0142809D01*
X0202340Y0142799D01*
X0202535Y0142795D01*
X0202731Y0142795D01*
X0202926Y0142799D01*
X0203122Y0142809D01*
X0203317Y0142823D01*
X0203511Y0142842D01*
X0203705Y0142866D01*
X0203899Y0142894D01*
X0204091Y0142927D01*
X0204283Y0142965D01*
X0204474Y0143008D01*
X0204664Y0143055D01*
X0204852Y0143107D01*
X0205040Y0143163D01*
X0205226Y0143224D01*
X0205410Y0143289D01*
X0205592Y0143359D01*
X0205773Y0143433D01*
X0205952Y0143512D01*
X0206129Y0143595D01*
X0206304Y0143682D01*
X0206477Y0143773D01*
X0206648Y0143869D01*
X0206816Y0143969D01*
X0206982Y0144072D01*
X0207145Y0144180D01*
X0207135Y0144195D01*
X0206972Y0144087D01*
X0206807Y0143984D01*
X0206639Y0143884D01*
X0206469Y0143789D01*
X0206296Y0143698D01*
X0206122Y0143611D01*
X0205945Y0143528D01*
X0205766Y0143450D01*
X0205586Y0143376D01*
X0205404Y0143306D01*
X0205220Y0143241D01*
X0205034Y0143180D01*
X0204847Y0143124D01*
X0204659Y0143072D01*
X0204470Y0143025D01*
X0204280Y0142983D01*
X0204088Y0142945D01*
X0203896Y0142912D01*
X0203703Y0142884D01*
X0203509Y0142860D01*
X0203315Y0142841D01*
X0203120Y0142827D01*
X0202926Y0142817D01*
X0202731Y0142813D01*
X0202535Y0142813D01*
X0202340Y0142817D01*
X0202146Y0142827D01*
X0201951Y0142841D01*
X0201757Y0142860D01*
X0201563Y0142884D01*
X0201370Y0142912D01*
X0201178Y0142945D01*
X0200986Y0142983D01*
X0200796Y0143025D01*
X0200607Y0143072D01*
X0200419Y0143124D01*
X0200232Y0143180D01*
X0200046Y0143241D01*
X0199862Y0143306D01*
X0199680Y0143376D01*
X0199500Y0143450D01*
X0199321Y0143528D01*
X0199144Y0143611D01*
X0198970Y0143698D01*
X0198797Y0143789D01*
X0198627Y0143884D01*
X0198459Y0143984D01*
X0198294Y0144087D01*
X0198131Y0144195D01*
X0198141Y0144210D01*
X0198304Y0144103D01*
X0198469Y0143999D01*
X0198636Y0143900D01*
X0198806Y0143805D01*
X0198978Y0143714D01*
X0199152Y0143627D01*
X0199328Y0143544D01*
X0199507Y0143466D01*
X0199687Y0143392D01*
X0199869Y0143323D01*
X0200052Y0143258D01*
X0200237Y0143197D01*
X0200424Y0143141D01*
X0200611Y0143090D01*
X0200800Y0143043D01*
X0200990Y0143000D01*
X0201181Y0142963D01*
X0201373Y0142930D01*
X0201566Y0142902D01*
X0201759Y0142878D01*
X0201953Y0142859D01*
X0202147Y0142845D01*
X0202341Y0142835D01*
X0202536Y0142831D01*
X0202730Y0142831D01*
X0202925Y0142835D01*
X0203119Y0142845D01*
X0203313Y0142859D01*
X0203507Y0142878D01*
X0203700Y0142902D01*
X0203893Y0142930D01*
X0204085Y0142963D01*
X0204276Y0143000D01*
X0204466Y0143043D01*
X0204655Y0143090D01*
X0204842Y0143141D01*
X0205029Y0143197D01*
X0205214Y0143258D01*
X0205397Y0143323D01*
X0205579Y0143392D01*
X0205759Y0143466D01*
X0205938Y0143544D01*
X0206114Y0143627D01*
X0206288Y0143714D01*
X0206460Y0143805D01*
X0206630Y0143900D01*
X0206797Y0143999D01*
X0206962Y0144103D01*
X0207125Y0144210D01*
X0207115Y0144225D01*
X0206952Y0144118D01*
X0206788Y0144015D01*
X0206621Y0143916D01*
X0206451Y0143821D01*
X0206280Y0143730D01*
X0206106Y0143643D01*
X0205930Y0143561D01*
X0205752Y0143483D01*
X0205573Y0143409D01*
X0205391Y0143340D01*
X0205208Y0143275D01*
X0205023Y0143214D01*
X0204837Y0143158D01*
X0204650Y0143107D01*
X0204462Y0143060D01*
X0204272Y0143018D01*
X0204082Y0142981D01*
X0203890Y0142948D01*
X0203698Y0142919D01*
X0203505Y0142896D01*
X0203312Y0142877D01*
X0203118Y0142863D01*
X0202924Y0142853D01*
X0202730Y0142849D01*
X0202536Y0142849D01*
X0202342Y0142853D01*
X0202148Y0142863D01*
X0201954Y0142877D01*
X0201761Y0142896D01*
X0201568Y0142919D01*
X0201376Y0142948D01*
X0201184Y0142981D01*
X0200994Y0143018D01*
X0200804Y0143060D01*
X0200616Y0143107D01*
X0200429Y0143158D01*
X0200243Y0143214D01*
X0200058Y0143275D01*
X0199875Y0143340D01*
X0199693Y0143409D01*
X0199514Y0143483D01*
X0199336Y0143561D01*
X0199160Y0143643D01*
X0198986Y0143730D01*
X0198815Y0143821D01*
X0198645Y0143916D01*
X0198478Y0144015D01*
X0198314Y0144118D01*
X0198151Y0144225D01*
X0198162Y0144240D01*
X0198323Y0144133D01*
X0198487Y0144030D01*
X0198654Y0143931D01*
X0198823Y0143836D01*
X0198994Y0143746D01*
X0199168Y0143659D01*
X0199343Y0143577D01*
X0199521Y0143499D01*
X0199700Y0143426D01*
X0199881Y0143357D01*
X0200064Y0143292D01*
X0200248Y0143232D01*
X0200433Y0143176D01*
X0200620Y0143125D01*
X0200808Y0143078D01*
X0200998Y0143036D01*
X0201188Y0142998D01*
X0201379Y0142965D01*
X0201570Y0142937D01*
X0201763Y0142914D01*
X0201956Y0142895D01*
X0202149Y0142881D01*
X0202342Y0142871D01*
X0202536Y0142867D01*
X0202730Y0142867D01*
X0202924Y0142871D01*
X0203117Y0142881D01*
X0203310Y0142895D01*
X0203503Y0142914D01*
X0203696Y0142937D01*
X0203887Y0142965D01*
X0204078Y0142998D01*
X0204268Y0143036D01*
X0204458Y0143078D01*
X0204646Y0143125D01*
X0204833Y0143176D01*
X0205018Y0143232D01*
X0205202Y0143292D01*
X0205385Y0143357D01*
X0205566Y0143426D01*
X0205745Y0143499D01*
X0205923Y0143577D01*
X0206098Y0143659D01*
X0206272Y0143746D01*
X0206443Y0143836D01*
X0206612Y0143931D01*
X0206779Y0144030D01*
X0206943Y0144133D01*
X0207104Y0144240D01*
X0207094Y0144255D01*
X0206933Y0144148D01*
X0206769Y0144045D01*
X0206603Y0143947D01*
X0206434Y0143852D01*
X0206263Y0143762D01*
X0206090Y0143676D01*
X0205915Y0143594D01*
X0205738Y0143516D01*
X0205559Y0143442D01*
X0205379Y0143373D01*
X0205196Y0143309D01*
X0205013Y0143249D01*
X0204828Y0143193D01*
X0204641Y0143142D01*
X0204453Y0143095D01*
X0204265Y0143053D01*
X0204075Y0143016D01*
X0203884Y0142983D01*
X0203693Y0142955D01*
X0203501Y0142932D01*
X0203309Y0142913D01*
X0203116Y0142899D01*
X0202923Y0142889D01*
X0202730Y0142885D01*
X0202536Y0142885D01*
X0202343Y0142889D01*
X0202150Y0142899D01*
X0201957Y0142913D01*
X0201765Y0142932D01*
X0201573Y0142955D01*
X0201382Y0142983D01*
X0201191Y0143016D01*
X0201001Y0143053D01*
X0200813Y0143095D01*
X0200625Y0143142D01*
X0200438Y0143193D01*
X0200253Y0143249D01*
X0200070Y0143309D01*
X0199887Y0143373D01*
X0199707Y0143442D01*
X0199528Y0143516D01*
X0199351Y0143594D01*
X0199176Y0143676D01*
X0199003Y0143762D01*
X0198832Y0143852D01*
X0198663Y0143947D01*
X0198497Y0144045D01*
X0198333Y0144148D01*
X0198172Y0144255D01*
X0198182Y0144269D01*
X0198343Y0144163D01*
X0198506Y0144061D01*
X0198672Y0143962D01*
X0198840Y0143868D01*
X0199011Y0143778D01*
X0199184Y0143692D01*
X0199358Y0143610D01*
X0199535Y0143532D01*
X0199713Y0143459D01*
X0199894Y0143390D01*
X0200075Y0143326D01*
X0200259Y0143266D01*
X0200443Y0143210D01*
X0200629Y0143159D01*
X0200817Y0143113D01*
X0201005Y0143071D01*
X0201194Y0143034D01*
X0201384Y0143001D01*
X0201575Y0142973D01*
X0201767Y0142949D01*
X0201959Y0142931D01*
X0202151Y0142917D01*
X0202344Y0142907D01*
X0202537Y0142903D01*
X0202729Y0142903D01*
X0202922Y0142907D01*
X0203115Y0142917D01*
X0203307Y0142931D01*
X0203499Y0142949D01*
X0203691Y0142973D01*
X0203882Y0143001D01*
X0204072Y0143034D01*
X0204261Y0143071D01*
X0204449Y0143113D01*
X0204637Y0143159D01*
X0204823Y0143210D01*
X0205007Y0143266D01*
X0205191Y0143326D01*
X0205372Y0143390D01*
X0205553Y0143459D01*
X0205731Y0143532D01*
X0205908Y0143610D01*
X0206082Y0143692D01*
X0206255Y0143778D01*
X0206426Y0143868D01*
X0206594Y0143962D01*
X0206760Y0144061D01*
X0206923Y0144163D01*
X0207084Y0144269D01*
X0194544Y0150821D02*
X0194724Y0150821D01*
X0194723Y0150820D02*
X0194726Y0150628D01*
X0194733Y0150436D01*
X0194745Y0150245D01*
X0194761Y0150053D01*
X0194782Y0149863D01*
X0194808Y0149672D01*
X0194839Y0149483D01*
X0194874Y0149294D01*
X0194913Y0149106D01*
X0194957Y0148919D01*
X0195006Y0148734D01*
X0195059Y0148549D01*
X0195117Y0148366D01*
X0195179Y0148184D01*
X0195245Y0148004D01*
X0195316Y0147826D01*
X0195391Y0147649D01*
X0195470Y0147474D01*
X0195554Y0147301D01*
X0195641Y0147131D01*
X0195733Y0146962D01*
X0195829Y0146796D01*
X0195929Y0146632D01*
X0196033Y0146470D01*
X0196141Y0146311D01*
X0196252Y0146155D01*
X0196368Y0146002D01*
X0196487Y0145851D01*
X0196609Y0145703D01*
X0196736Y0145559D01*
X0196865Y0145417D01*
X0196998Y0145279D01*
X0197135Y0145143D01*
X0197274Y0145012D01*
X0197417Y0144883D01*
X0197563Y0144759D01*
X0197712Y0144637D01*
X0197864Y0144520D01*
X0198018Y0144406D01*
X0198175Y0144296D01*
X0198075Y0144147D01*
X0198074Y0144147D01*
X0197913Y0144259D01*
X0197755Y0144376D01*
X0197600Y0144496D01*
X0197448Y0144620D01*
X0197299Y0144748D01*
X0197152Y0144879D01*
X0197010Y0145014D01*
X0196870Y0145152D01*
X0196734Y0145294D01*
X0196601Y0145439D01*
X0196472Y0145587D01*
X0196347Y0145738D01*
X0196225Y0145892D01*
X0196107Y0146049D01*
X0195993Y0146208D01*
X0195883Y0146371D01*
X0195777Y0146536D01*
X0195674Y0146704D01*
X0195576Y0146874D01*
X0195482Y0147046D01*
X0195393Y0147221D01*
X0195307Y0147398D01*
X0195226Y0147577D01*
X0195149Y0147757D01*
X0195077Y0147940D01*
X0195009Y0148124D01*
X0194946Y0148310D01*
X0194887Y0148497D01*
X0194832Y0148686D01*
X0194783Y0148876D01*
X0194737Y0149067D01*
X0194697Y0149259D01*
X0194661Y0149452D01*
X0194630Y0149646D01*
X0194604Y0149841D01*
X0194582Y0150036D01*
X0194565Y0150232D01*
X0194553Y0150428D01*
X0194546Y0150624D01*
X0194543Y0150820D01*
X0194561Y0150820D01*
X0194564Y0150624D01*
X0194571Y0150428D01*
X0194583Y0150233D01*
X0194600Y0150038D01*
X0194622Y0149843D01*
X0194648Y0149649D01*
X0194679Y0149455D01*
X0194715Y0149263D01*
X0194755Y0149071D01*
X0194800Y0148880D01*
X0194850Y0148691D01*
X0194904Y0148502D01*
X0194963Y0148316D01*
X0195026Y0148130D01*
X0195094Y0147946D01*
X0195166Y0147764D01*
X0195242Y0147584D01*
X0195323Y0147405D01*
X0195409Y0147229D01*
X0195498Y0147055D01*
X0195592Y0146883D01*
X0195690Y0146713D01*
X0195792Y0146546D01*
X0195898Y0146381D01*
X0196008Y0146219D01*
X0196122Y0146059D01*
X0196239Y0145903D01*
X0196361Y0145749D01*
X0196486Y0145598D01*
X0196615Y0145451D01*
X0196747Y0145306D01*
X0196883Y0145165D01*
X0197022Y0145027D01*
X0197165Y0144892D01*
X0197310Y0144761D01*
X0197459Y0144634D01*
X0197611Y0144510D01*
X0197766Y0144390D01*
X0197924Y0144274D01*
X0198084Y0144162D01*
X0198094Y0144177D01*
X0197934Y0144289D01*
X0197777Y0144405D01*
X0197622Y0144524D01*
X0197471Y0144648D01*
X0197322Y0144775D01*
X0197177Y0144906D01*
X0197035Y0145040D01*
X0196896Y0145177D01*
X0196760Y0145318D01*
X0196628Y0145463D01*
X0196500Y0145610D01*
X0196375Y0145760D01*
X0196254Y0145914D01*
X0196136Y0146070D01*
X0196023Y0146229D01*
X0195913Y0146391D01*
X0195807Y0146555D01*
X0195705Y0146722D01*
X0195608Y0146891D01*
X0195514Y0147063D01*
X0195425Y0147237D01*
X0195340Y0147413D01*
X0195259Y0147591D01*
X0195183Y0147771D01*
X0195110Y0147953D01*
X0195043Y0148136D01*
X0194980Y0148321D01*
X0194921Y0148508D01*
X0194867Y0148696D01*
X0194817Y0148885D01*
X0194773Y0149075D01*
X0194732Y0149266D01*
X0194697Y0149458D01*
X0194666Y0149651D01*
X0194639Y0149845D01*
X0194618Y0150039D01*
X0194601Y0150234D01*
X0194589Y0150429D01*
X0194582Y0150625D01*
X0194579Y0150820D01*
X0194597Y0150820D01*
X0194600Y0150625D01*
X0194607Y0150430D01*
X0194619Y0150236D01*
X0194636Y0150041D01*
X0194657Y0149847D01*
X0194684Y0149654D01*
X0194714Y0149461D01*
X0194750Y0149270D01*
X0194790Y0149079D01*
X0194835Y0148889D01*
X0194884Y0148700D01*
X0194938Y0148513D01*
X0194997Y0148327D01*
X0195060Y0148142D01*
X0195127Y0147959D01*
X0195199Y0147778D01*
X0195275Y0147598D01*
X0195356Y0147421D01*
X0195441Y0147245D01*
X0195530Y0147072D01*
X0195623Y0146900D01*
X0195721Y0146731D01*
X0195822Y0146565D01*
X0195928Y0146401D01*
X0196037Y0146239D01*
X0196151Y0146081D01*
X0196268Y0145925D01*
X0196389Y0145772D01*
X0196513Y0145622D01*
X0196642Y0145475D01*
X0196773Y0145331D01*
X0196909Y0145190D01*
X0197047Y0145053D01*
X0197189Y0144919D01*
X0197334Y0144789D01*
X0197482Y0144662D01*
X0197634Y0144539D01*
X0197788Y0144419D01*
X0197945Y0144303D01*
X0198104Y0144191D01*
X0198115Y0144206D01*
X0197955Y0144318D01*
X0197799Y0144433D01*
X0197645Y0144553D01*
X0197494Y0144676D01*
X0197346Y0144802D01*
X0197201Y0144932D01*
X0197060Y0145066D01*
X0196921Y0145203D01*
X0196787Y0145343D01*
X0196655Y0145487D01*
X0196527Y0145633D01*
X0196403Y0145783D01*
X0196282Y0145936D01*
X0196165Y0146091D01*
X0196052Y0146250D01*
X0195943Y0146411D01*
X0195838Y0146574D01*
X0195736Y0146741D01*
X0195639Y0146909D01*
X0195546Y0147080D01*
X0195457Y0147253D01*
X0195372Y0147428D01*
X0195292Y0147606D01*
X0195216Y0147785D01*
X0195144Y0147966D01*
X0195077Y0148148D01*
X0195014Y0148332D01*
X0194956Y0148518D01*
X0194902Y0148705D01*
X0194852Y0148893D01*
X0194808Y0149083D01*
X0194768Y0149273D01*
X0194732Y0149465D01*
X0194701Y0149657D01*
X0194675Y0149850D01*
X0194654Y0150043D01*
X0194637Y0150237D01*
X0194625Y0150431D01*
X0194618Y0150626D01*
X0194615Y0150820D01*
X0194633Y0150820D01*
X0194636Y0150626D01*
X0194643Y0150432D01*
X0194655Y0150238D01*
X0194672Y0150045D01*
X0194693Y0149852D01*
X0194719Y0149659D01*
X0194750Y0149468D01*
X0194785Y0149277D01*
X0194825Y0149087D01*
X0194870Y0148898D01*
X0194919Y0148710D01*
X0194973Y0148523D01*
X0195031Y0148338D01*
X0195094Y0148154D01*
X0195161Y0147972D01*
X0195232Y0147792D01*
X0195308Y0147613D01*
X0195389Y0147436D01*
X0195473Y0147261D01*
X0195562Y0147088D01*
X0195655Y0146918D01*
X0195752Y0146750D01*
X0195853Y0146584D01*
X0195958Y0146421D01*
X0196067Y0146260D01*
X0196180Y0146102D01*
X0196296Y0145947D01*
X0196417Y0145794D01*
X0196541Y0145645D01*
X0196668Y0145499D01*
X0196800Y0145355D01*
X0196934Y0145215D01*
X0197072Y0145079D01*
X0197213Y0144945D01*
X0197358Y0144816D01*
X0197505Y0144689D01*
X0197656Y0144567D01*
X0197809Y0144448D01*
X0197966Y0144333D01*
X0198125Y0144221D01*
X0198135Y0144236D01*
X0197976Y0144347D01*
X0197820Y0144462D01*
X0197667Y0144581D01*
X0197517Y0144703D01*
X0197370Y0144829D01*
X0197226Y0144959D01*
X0197085Y0145092D01*
X0196947Y0145228D01*
X0196813Y0145368D01*
X0196682Y0145511D01*
X0196555Y0145657D01*
X0196431Y0145806D01*
X0196311Y0145958D01*
X0196194Y0146113D01*
X0196082Y0146270D01*
X0195973Y0146431D01*
X0195868Y0146593D01*
X0195767Y0146759D01*
X0195670Y0146927D01*
X0195578Y0147097D01*
X0195489Y0147269D01*
X0195405Y0147444D01*
X0195325Y0147620D01*
X0195249Y0147798D01*
X0195178Y0147978D01*
X0195111Y0148160D01*
X0195048Y0148344D01*
X0194990Y0148528D01*
X0194936Y0148715D01*
X0194887Y0148902D01*
X0194843Y0149091D01*
X0194803Y0149280D01*
X0194768Y0149471D01*
X0194737Y0149662D01*
X0194711Y0149854D01*
X0194690Y0150046D01*
X0194673Y0150239D01*
X0194661Y0150433D01*
X0194654Y0150626D01*
X0194651Y0150820D01*
X0194669Y0150820D01*
X0194672Y0150627D01*
X0194679Y0150434D01*
X0194691Y0150241D01*
X0194707Y0150048D01*
X0194729Y0149856D01*
X0194755Y0149665D01*
X0194785Y0149474D01*
X0194821Y0149284D01*
X0194860Y0149094D01*
X0194905Y0148906D01*
X0194954Y0148719D01*
X0195007Y0148534D01*
X0195065Y0148349D01*
X0195128Y0148166D01*
X0195195Y0147985D01*
X0195266Y0147805D01*
X0195341Y0147627D01*
X0195421Y0147451D01*
X0195505Y0147277D01*
X0195594Y0147105D01*
X0195686Y0146936D01*
X0195783Y0146768D01*
X0195883Y0146603D01*
X0195988Y0146440D01*
X0196096Y0146280D01*
X0196209Y0146123D01*
X0196325Y0145969D01*
X0196445Y0145817D01*
X0196568Y0145668D01*
X0196695Y0145523D01*
X0196826Y0145380D01*
X0196960Y0145241D01*
X0197097Y0145105D01*
X0197238Y0144972D01*
X0197382Y0144843D01*
X0197528Y0144717D01*
X0197678Y0144595D01*
X0197831Y0144477D01*
X0197987Y0144362D01*
X0198145Y0144251D01*
X0198155Y0144266D01*
X0197997Y0144377D01*
X0197842Y0144491D01*
X0197689Y0144609D01*
X0197540Y0144731D01*
X0197393Y0144856D01*
X0197250Y0144985D01*
X0197110Y0145118D01*
X0196973Y0145253D01*
X0196839Y0145392D01*
X0196709Y0145535D01*
X0196582Y0145680D01*
X0196459Y0145828D01*
X0196339Y0145980D01*
X0196223Y0146134D01*
X0196111Y0146291D01*
X0196003Y0146450D01*
X0195899Y0146613D01*
X0195798Y0146777D01*
X0195702Y0146944D01*
X0195610Y0147114D01*
X0195521Y0147285D01*
X0195438Y0147459D01*
X0195358Y0147635D01*
X0195282Y0147812D01*
X0195211Y0147991D01*
X0195145Y0148172D01*
X0195082Y0148355D01*
X0195025Y0148539D01*
X0194971Y0148724D01*
X0194922Y0148911D01*
X0194878Y0149098D01*
X0194838Y0149287D01*
X0194803Y0149477D01*
X0194773Y0149667D01*
X0194747Y0149858D01*
X0194725Y0150050D01*
X0194709Y0150242D01*
X0194697Y0150435D01*
X0194690Y0150627D01*
X0194687Y0150820D01*
X0194705Y0150820D01*
X0194708Y0150628D01*
X0194715Y0150435D01*
X0194727Y0150243D01*
X0194743Y0150052D01*
X0194765Y0149860D01*
X0194790Y0149670D01*
X0194821Y0149480D01*
X0194856Y0149291D01*
X0194896Y0149102D01*
X0194940Y0148915D01*
X0194988Y0148729D01*
X0195042Y0148544D01*
X0195099Y0148360D01*
X0195162Y0148178D01*
X0195228Y0147998D01*
X0195299Y0147819D01*
X0195374Y0147642D01*
X0195454Y0147467D01*
X0195538Y0147293D01*
X0195626Y0147122D01*
X0195718Y0146953D01*
X0195814Y0146786D01*
X0195914Y0146622D01*
X0196018Y0146460D01*
X0196126Y0146301D01*
X0196238Y0146144D01*
X0196353Y0145991D01*
X0196473Y0145840D01*
X0196596Y0145692D01*
X0196722Y0145547D01*
X0196852Y0145405D01*
X0196985Y0145266D01*
X0197122Y0145131D01*
X0197262Y0144998D01*
X0197405Y0144870D01*
X0197551Y0144745D01*
X0197701Y0144623D01*
X0197853Y0144505D01*
X0198008Y0144391D01*
X0198165Y0144281D01*
X0207218Y0148621D02*
X0207056Y0148699D01*
X0207114Y0148823D01*
X0207168Y0148949D01*
X0207219Y0149077D01*
X0207266Y0149205D01*
X0207310Y0149335D01*
X0207350Y0149467D01*
X0207386Y0149599D01*
X0207419Y0149732D01*
X0207447Y0149866D01*
X0207473Y0150001D01*
X0207494Y0150137D01*
X0207511Y0150273D01*
X0207525Y0150409D01*
X0207535Y0150546D01*
X0207541Y0150683D01*
X0207543Y0150820D01*
X0207722Y0150821D01*
X0207723Y0150820D01*
X0207721Y0150686D01*
X0207715Y0150552D01*
X0207706Y0150419D01*
X0207694Y0150286D01*
X0207678Y0150153D01*
X0207658Y0150020D01*
X0207635Y0149888D01*
X0207609Y0149757D01*
X0207579Y0149627D01*
X0207545Y0149497D01*
X0207509Y0149368D01*
X0207469Y0149241D01*
X0207425Y0149114D01*
X0207378Y0148989D01*
X0207328Y0148864D01*
X0207275Y0148742D01*
X0207218Y0148620D01*
X0207202Y0148628D01*
X0207262Y0148757D01*
X0207318Y0148887D01*
X0207370Y0149018D01*
X0207419Y0149152D01*
X0207464Y0149286D01*
X0207506Y0149422D01*
X0207543Y0149558D01*
X0207577Y0149696D01*
X0207606Y0149834D01*
X0207632Y0149974D01*
X0207654Y0150114D01*
X0207672Y0150254D01*
X0207686Y0150395D01*
X0207697Y0150537D01*
X0207703Y0150678D01*
X0207705Y0150820D01*
X0207687Y0150820D01*
X0207685Y0150679D01*
X0207679Y0150538D01*
X0207668Y0150397D01*
X0207654Y0150256D01*
X0207636Y0150116D01*
X0207614Y0149977D01*
X0207589Y0149838D01*
X0207559Y0149700D01*
X0207526Y0149563D01*
X0207488Y0149427D01*
X0207447Y0149291D01*
X0207402Y0149158D01*
X0207354Y0149025D01*
X0207301Y0148894D01*
X0207245Y0148764D01*
X0207186Y0148636D01*
X0207170Y0148644D01*
X0207229Y0148771D01*
X0207285Y0148901D01*
X0207337Y0149031D01*
X0207385Y0149164D01*
X0207430Y0149297D01*
X0207471Y0149432D01*
X0207508Y0149567D01*
X0207541Y0149704D01*
X0207571Y0149842D01*
X0207597Y0149980D01*
X0207619Y0150119D01*
X0207636Y0150258D01*
X0207650Y0150398D01*
X0207661Y0150539D01*
X0207667Y0150679D01*
X0207669Y0150820D01*
X0207651Y0150820D01*
X0207649Y0150680D01*
X0207643Y0150540D01*
X0207633Y0150400D01*
X0207619Y0150260D01*
X0207601Y0150121D01*
X0207579Y0149983D01*
X0207553Y0149845D01*
X0207524Y0149708D01*
X0207491Y0149572D01*
X0207454Y0149437D01*
X0207413Y0149302D01*
X0207368Y0149169D01*
X0207320Y0149038D01*
X0207268Y0148908D01*
X0207213Y0148779D01*
X0207154Y0148652D01*
X0207137Y0148660D01*
X0207196Y0148786D01*
X0207252Y0148915D01*
X0207303Y0149044D01*
X0207351Y0149175D01*
X0207396Y0149308D01*
X0207436Y0149442D01*
X0207473Y0149576D01*
X0207506Y0149712D01*
X0207536Y0149849D01*
X0207561Y0149986D01*
X0207583Y0150124D01*
X0207601Y0150263D01*
X0207615Y0150402D01*
X0207625Y0150541D01*
X0207631Y0150680D01*
X0207633Y0150820D01*
X0207615Y0150820D01*
X0207613Y0150681D01*
X0207607Y0150542D01*
X0207597Y0150403D01*
X0207583Y0150265D01*
X0207565Y0150126D01*
X0207543Y0149989D01*
X0207518Y0149852D01*
X0207489Y0149716D01*
X0207456Y0149581D01*
X0207419Y0149447D01*
X0207379Y0149313D01*
X0207334Y0149181D01*
X0207286Y0149051D01*
X0207235Y0148921D01*
X0207180Y0148794D01*
X0207121Y0148667D01*
X0207105Y0148675D01*
X0207163Y0148801D01*
X0207218Y0148928D01*
X0207270Y0149057D01*
X0207317Y0149187D01*
X0207361Y0149319D01*
X0207402Y0149452D01*
X0207438Y0149585D01*
X0207471Y0149720D01*
X0207500Y0149856D01*
X0207526Y0149992D01*
X0207547Y0150129D01*
X0207565Y0150267D01*
X0207579Y0150405D01*
X0207589Y0150543D01*
X0207595Y0150681D01*
X0207597Y0150820D01*
X0207579Y0150820D01*
X0207577Y0150682D01*
X0207571Y0150544D01*
X0207561Y0150406D01*
X0207547Y0150269D01*
X0207529Y0150132D01*
X0207508Y0149995D01*
X0207483Y0149859D01*
X0207454Y0149724D01*
X0207421Y0149590D01*
X0207384Y0149457D01*
X0207344Y0149324D01*
X0207300Y0149193D01*
X0207253Y0149064D01*
X0207202Y0148935D01*
X0207147Y0148808D01*
X0207089Y0148683D01*
X0207073Y0148691D01*
X0207131Y0148816D01*
X0207185Y0148942D01*
X0207236Y0149070D01*
X0207283Y0149199D01*
X0207327Y0149330D01*
X0207367Y0149462D01*
X0207404Y0149594D01*
X0207436Y0149728D01*
X0207465Y0149863D01*
X0207490Y0149998D01*
X0207512Y0150134D01*
X0207529Y0150271D01*
X0207543Y0150408D01*
X0207553Y0150545D01*
X0207559Y0150682D01*
X0207561Y0150820D01*
X0198057Y0148603D02*
X0198219Y0148681D01*
X0198218Y0148681D02*
X0198281Y0148557D01*
X0198347Y0148434D01*
X0198417Y0148314D01*
X0198489Y0148196D01*
X0198566Y0148080D01*
X0198645Y0147966D01*
X0198728Y0147854D01*
X0198813Y0147745D01*
X0198902Y0147638D01*
X0198994Y0147534D01*
X0199089Y0147432D01*
X0199186Y0147333D01*
X0199287Y0147237D01*
X0199390Y0147144D01*
X0199495Y0147053D01*
X0199603Y0146966D01*
X0199714Y0146882D01*
X0199827Y0146801D01*
X0199942Y0146723D01*
X0200059Y0146649D01*
X0200178Y0146578D01*
X0200300Y0146510D01*
X0200423Y0146446D01*
X0200548Y0146385D01*
X0200674Y0146328D01*
X0200803Y0146274D01*
X0200932Y0146224D01*
X0201063Y0146178D01*
X0201196Y0146135D01*
X0201329Y0146096D01*
X0201463Y0146061D01*
X0201599Y0146030D01*
X0201735Y0146003D01*
X0201872Y0145979D01*
X0202009Y0145960D01*
X0202148Y0145944D01*
X0202286Y0145932D01*
X0202425Y0145924D01*
X0202564Y0145920D01*
X0202702Y0145920D01*
X0202841Y0145924D01*
X0202980Y0145932D01*
X0203118Y0145944D01*
X0203257Y0145960D01*
X0203394Y0145979D01*
X0203531Y0146003D01*
X0203667Y0146030D01*
X0203803Y0146061D01*
X0203937Y0146096D01*
X0204070Y0146135D01*
X0204203Y0146178D01*
X0204334Y0146224D01*
X0204463Y0146274D01*
X0204592Y0146328D01*
X0204718Y0146385D01*
X0204843Y0146446D01*
X0204966Y0146510D01*
X0205088Y0146578D01*
X0205207Y0146649D01*
X0205324Y0146723D01*
X0205439Y0146801D01*
X0205552Y0146882D01*
X0205663Y0146966D01*
X0205771Y0147053D01*
X0205876Y0147144D01*
X0205979Y0147237D01*
X0206080Y0147333D01*
X0206177Y0147432D01*
X0206272Y0147534D01*
X0206364Y0147638D01*
X0206453Y0147745D01*
X0206538Y0147854D01*
X0206621Y0147966D01*
X0206700Y0148080D01*
X0206777Y0148196D01*
X0206849Y0148314D01*
X0206919Y0148434D01*
X0206985Y0148557D01*
X0207048Y0148681D01*
X0207209Y0148603D01*
X0207210Y0148602D01*
X0207146Y0148477D01*
X0207080Y0148353D01*
X0207010Y0148231D01*
X0206936Y0148112D01*
X0206860Y0147994D01*
X0206780Y0147878D01*
X0206697Y0147765D01*
X0206611Y0147654D01*
X0206521Y0147545D01*
X0206429Y0147439D01*
X0206334Y0147336D01*
X0206236Y0147235D01*
X0206136Y0147137D01*
X0206033Y0147042D01*
X0205927Y0146949D01*
X0205818Y0146860D01*
X0205708Y0146774D01*
X0205595Y0146690D01*
X0205479Y0146610D01*
X0205362Y0146533D01*
X0205242Y0146460D01*
X0205120Y0146389D01*
X0204997Y0146322D01*
X0204872Y0146259D01*
X0204745Y0146199D01*
X0204616Y0146142D01*
X0204486Y0146089D01*
X0204354Y0146040D01*
X0204222Y0145994D01*
X0204088Y0145952D01*
X0203952Y0145914D01*
X0203816Y0145879D01*
X0203679Y0145849D01*
X0203541Y0145822D01*
X0203403Y0145799D01*
X0203264Y0145779D01*
X0203124Y0145764D01*
X0202984Y0145752D01*
X0202844Y0145744D01*
X0202703Y0145740D01*
X0202563Y0145740D01*
X0202422Y0145744D01*
X0202282Y0145752D01*
X0202142Y0145764D01*
X0202002Y0145779D01*
X0201863Y0145799D01*
X0201725Y0145822D01*
X0201587Y0145849D01*
X0201450Y0145879D01*
X0201314Y0145914D01*
X0201178Y0145952D01*
X0201044Y0145994D01*
X0200912Y0146040D01*
X0200780Y0146089D01*
X0200650Y0146142D01*
X0200521Y0146199D01*
X0200394Y0146259D01*
X0200269Y0146322D01*
X0200146Y0146389D01*
X0200024Y0146460D01*
X0199904Y0146533D01*
X0199787Y0146610D01*
X0199671Y0146690D01*
X0199558Y0146774D01*
X0199448Y0146860D01*
X0199339Y0146949D01*
X0199233Y0147042D01*
X0199130Y0147137D01*
X0199030Y0147235D01*
X0198932Y0147336D01*
X0198837Y0147439D01*
X0198745Y0147545D01*
X0198655Y0147654D01*
X0198569Y0147765D01*
X0198486Y0147878D01*
X0198406Y0147994D01*
X0198330Y0148112D01*
X0198256Y0148231D01*
X0198186Y0148353D01*
X0198120Y0148477D01*
X0198056Y0148602D01*
X0198073Y0148610D01*
X0198136Y0148484D01*
X0198204Y0148359D01*
X0198274Y0148236D01*
X0198349Y0148115D01*
X0198426Y0147997D01*
X0198507Y0147880D01*
X0198591Y0147766D01*
X0198678Y0147654D01*
X0198769Y0147545D01*
X0198862Y0147438D01*
X0198958Y0147334D01*
X0199057Y0147233D01*
X0199159Y0147134D01*
X0199264Y0147039D01*
X0199371Y0146946D01*
X0199481Y0146857D01*
X0199593Y0146770D01*
X0199708Y0146687D01*
X0199824Y0146607D01*
X0199944Y0146530D01*
X0200065Y0146456D01*
X0200188Y0146386D01*
X0200313Y0146320D01*
X0200440Y0146257D01*
X0200569Y0146197D01*
X0200699Y0146141D01*
X0200831Y0146089D01*
X0200964Y0146041D01*
X0201098Y0145996D01*
X0201234Y0145955D01*
X0201371Y0145918D01*
X0201509Y0145884D01*
X0201647Y0145855D01*
X0201787Y0145829D01*
X0201927Y0145807D01*
X0202067Y0145790D01*
X0202208Y0145776D01*
X0202350Y0145766D01*
X0202491Y0145760D01*
X0202633Y0145758D01*
X0202775Y0145760D01*
X0202916Y0145766D01*
X0203058Y0145776D01*
X0203199Y0145790D01*
X0203339Y0145807D01*
X0203479Y0145829D01*
X0203619Y0145855D01*
X0203757Y0145884D01*
X0203895Y0145918D01*
X0204032Y0145955D01*
X0204168Y0145996D01*
X0204302Y0146041D01*
X0204435Y0146089D01*
X0204567Y0146141D01*
X0204697Y0146197D01*
X0204826Y0146257D01*
X0204953Y0146320D01*
X0205078Y0146386D01*
X0205201Y0146456D01*
X0205322Y0146530D01*
X0205442Y0146607D01*
X0205558Y0146687D01*
X0205673Y0146770D01*
X0205785Y0146857D01*
X0205895Y0146946D01*
X0206002Y0147039D01*
X0206107Y0147134D01*
X0206209Y0147233D01*
X0206308Y0147334D01*
X0206404Y0147438D01*
X0206497Y0147545D01*
X0206588Y0147654D01*
X0206675Y0147766D01*
X0206759Y0147880D01*
X0206840Y0147997D01*
X0206917Y0148115D01*
X0206992Y0148236D01*
X0207062Y0148359D01*
X0207130Y0148484D01*
X0207193Y0148610D01*
X0207177Y0148618D01*
X0207114Y0148492D01*
X0207047Y0148368D01*
X0206976Y0148245D01*
X0206902Y0148125D01*
X0206825Y0148007D01*
X0206744Y0147891D01*
X0206661Y0147777D01*
X0206574Y0147666D01*
X0206484Y0147557D01*
X0206391Y0147450D01*
X0206295Y0147347D01*
X0206196Y0147246D01*
X0206095Y0147148D01*
X0205990Y0147052D01*
X0205884Y0146960D01*
X0205774Y0146871D01*
X0205662Y0146784D01*
X0205548Y0146701D01*
X0205432Y0146622D01*
X0205313Y0146545D01*
X0205192Y0146472D01*
X0205069Y0146402D01*
X0204945Y0146336D01*
X0204818Y0146273D01*
X0204690Y0146214D01*
X0204560Y0146158D01*
X0204429Y0146106D01*
X0204296Y0146058D01*
X0204162Y0146013D01*
X0204027Y0145972D01*
X0203891Y0145935D01*
X0203753Y0145902D01*
X0203615Y0145872D01*
X0203476Y0145847D01*
X0203337Y0145825D01*
X0203197Y0145808D01*
X0203056Y0145794D01*
X0202915Y0145784D01*
X0202774Y0145778D01*
X0202633Y0145776D01*
X0202492Y0145778D01*
X0202351Y0145784D01*
X0202210Y0145794D01*
X0202069Y0145808D01*
X0201929Y0145825D01*
X0201790Y0145847D01*
X0201651Y0145872D01*
X0201513Y0145902D01*
X0201375Y0145935D01*
X0201239Y0145972D01*
X0201104Y0146013D01*
X0200970Y0146058D01*
X0200837Y0146106D01*
X0200706Y0146158D01*
X0200576Y0146214D01*
X0200448Y0146273D01*
X0200321Y0146336D01*
X0200197Y0146402D01*
X0200074Y0146472D01*
X0199953Y0146545D01*
X0199834Y0146622D01*
X0199718Y0146701D01*
X0199604Y0146784D01*
X0199492Y0146871D01*
X0199382Y0146960D01*
X0199276Y0147052D01*
X0199171Y0147148D01*
X0199070Y0147246D01*
X0198971Y0147347D01*
X0198875Y0147450D01*
X0198782Y0147557D01*
X0198692Y0147666D01*
X0198605Y0147777D01*
X0198522Y0147891D01*
X0198441Y0148007D01*
X0198364Y0148125D01*
X0198290Y0148245D01*
X0198219Y0148368D01*
X0198152Y0148492D01*
X0198089Y0148618D01*
X0198105Y0148626D01*
X0198168Y0148500D01*
X0198235Y0148376D01*
X0198305Y0148254D01*
X0198379Y0148134D01*
X0198456Y0148017D01*
X0198536Y0147901D01*
X0198620Y0147788D01*
X0198706Y0147677D01*
X0198796Y0147568D01*
X0198889Y0147462D01*
X0198984Y0147359D01*
X0199083Y0147258D01*
X0199184Y0147161D01*
X0199288Y0147066D01*
X0199394Y0146974D01*
X0199503Y0146885D01*
X0199615Y0146799D01*
X0199728Y0146716D01*
X0199844Y0146637D01*
X0199963Y0146560D01*
X0200083Y0146487D01*
X0200205Y0146418D01*
X0200330Y0146352D01*
X0200456Y0146289D01*
X0200583Y0146230D01*
X0200713Y0146174D01*
X0200844Y0146123D01*
X0200976Y0146074D01*
X0201109Y0146030D01*
X0201244Y0145989D01*
X0201380Y0145952D01*
X0201517Y0145919D01*
X0201654Y0145890D01*
X0201793Y0145865D01*
X0201932Y0145843D01*
X0202071Y0145825D01*
X0202211Y0145812D01*
X0202352Y0145802D01*
X0202492Y0145796D01*
X0202633Y0145794D01*
X0202774Y0145796D01*
X0202914Y0145802D01*
X0203055Y0145812D01*
X0203195Y0145825D01*
X0203334Y0145843D01*
X0203473Y0145865D01*
X0203612Y0145890D01*
X0203749Y0145919D01*
X0203886Y0145952D01*
X0204022Y0145989D01*
X0204157Y0146030D01*
X0204290Y0146074D01*
X0204422Y0146123D01*
X0204553Y0146174D01*
X0204683Y0146230D01*
X0204810Y0146289D01*
X0204936Y0146352D01*
X0205061Y0146418D01*
X0205183Y0146487D01*
X0205303Y0146560D01*
X0205422Y0146637D01*
X0205538Y0146716D01*
X0205651Y0146799D01*
X0205763Y0146885D01*
X0205872Y0146974D01*
X0205978Y0147066D01*
X0206082Y0147161D01*
X0206183Y0147258D01*
X0206282Y0147359D01*
X0206377Y0147462D01*
X0206470Y0147568D01*
X0206560Y0147677D01*
X0206646Y0147788D01*
X0206730Y0147901D01*
X0206810Y0148017D01*
X0206887Y0148134D01*
X0206961Y0148254D01*
X0207031Y0148376D01*
X0207098Y0148500D01*
X0207161Y0148626D01*
X0207145Y0148634D01*
X0207082Y0148508D01*
X0207015Y0148385D01*
X0206945Y0148264D01*
X0206872Y0148144D01*
X0206795Y0148027D01*
X0206715Y0147912D01*
X0206632Y0147799D01*
X0206546Y0147688D01*
X0206456Y0147580D01*
X0206364Y0147474D01*
X0206269Y0147371D01*
X0206171Y0147271D01*
X0206070Y0147174D01*
X0205966Y0147079D01*
X0205860Y0146988D01*
X0205752Y0146899D01*
X0205641Y0146813D01*
X0205527Y0146731D01*
X0205412Y0146651D01*
X0205294Y0146575D01*
X0205174Y0146503D01*
X0205052Y0146434D01*
X0204928Y0146368D01*
X0204803Y0146305D01*
X0204675Y0146246D01*
X0204546Y0146191D01*
X0204416Y0146139D01*
X0204284Y0146091D01*
X0204151Y0146047D01*
X0204017Y0146007D01*
X0203882Y0145970D01*
X0203745Y0145937D01*
X0203608Y0145908D01*
X0203470Y0145882D01*
X0203332Y0145861D01*
X0203193Y0145843D01*
X0203053Y0145830D01*
X0202913Y0145820D01*
X0202773Y0145814D01*
X0202633Y0145812D01*
X0202493Y0145814D01*
X0202353Y0145820D01*
X0202213Y0145830D01*
X0202073Y0145843D01*
X0201934Y0145861D01*
X0201796Y0145882D01*
X0201658Y0145908D01*
X0201521Y0145937D01*
X0201384Y0145970D01*
X0201249Y0146007D01*
X0201115Y0146047D01*
X0200982Y0146091D01*
X0200850Y0146139D01*
X0200720Y0146191D01*
X0200591Y0146246D01*
X0200463Y0146305D01*
X0200338Y0146368D01*
X0200214Y0146434D01*
X0200092Y0146503D01*
X0199972Y0146575D01*
X0199854Y0146651D01*
X0199739Y0146731D01*
X0199625Y0146813D01*
X0199514Y0146899D01*
X0199406Y0146988D01*
X0199300Y0147079D01*
X0199196Y0147174D01*
X0199095Y0147271D01*
X0198997Y0147371D01*
X0198902Y0147474D01*
X0198810Y0147580D01*
X0198720Y0147688D01*
X0198634Y0147799D01*
X0198551Y0147912D01*
X0198471Y0148027D01*
X0198394Y0148144D01*
X0198321Y0148264D01*
X0198251Y0148385D01*
X0198184Y0148508D01*
X0198121Y0148634D01*
X0198137Y0148641D01*
X0198200Y0148517D01*
X0198267Y0148394D01*
X0198336Y0148273D01*
X0198410Y0148154D01*
X0198486Y0148037D01*
X0198566Y0147922D01*
X0198648Y0147809D01*
X0198734Y0147699D01*
X0198823Y0147592D01*
X0198915Y0147486D01*
X0199010Y0147384D01*
X0199108Y0147284D01*
X0199208Y0147187D01*
X0199312Y0147093D01*
X0199417Y0147001D01*
X0199526Y0146913D01*
X0199636Y0146828D01*
X0199749Y0146745D01*
X0199864Y0146666D01*
X0199982Y0146591D01*
X0200101Y0146518D01*
X0200223Y0146449D01*
X0200346Y0146384D01*
X0200471Y0146321D01*
X0200598Y0146263D01*
X0200726Y0146208D01*
X0200856Y0146156D01*
X0200988Y0146108D01*
X0201120Y0146064D01*
X0201254Y0146024D01*
X0201389Y0145987D01*
X0201525Y0145954D01*
X0201661Y0145925D01*
X0201799Y0145900D01*
X0201937Y0145879D01*
X0202075Y0145861D01*
X0202214Y0145848D01*
X0202354Y0145838D01*
X0202493Y0145832D01*
X0202633Y0145830D01*
X0202773Y0145832D01*
X0202912Y0145838D01*
X0203052Y0145848D01*
X0203191Y0145861D01*
X0203329Y0145879D01*
X0203467Y0145900D01*
X0203605Y0145925D01*
X0203741Y0145954D01*
X0203877Y0145987D01*
X0204012Y0146024D01*
X0204146Y0146064D01*
X0204278Y0146108D01*
X0204410Y0146156D01*
X0204540Y0146208D01*
X0204668Y0146263D01*
X0204795Y0146321D01*
X0204920Y0146384D01*
X0205043Y0146449D01*
X0205165Y0146518D01*
X0205284Y0146591D01*
X0205402Y0146666D01*
X0205517Y0146745D01*
X0205630Y0146828D01*
X0205740Y0146913D01*
X0205849Y0147001D01*
X0205954Y0147093D01*
X0206058Y0147187D01*
X0206158Y0147284D01*
X0206256Y0147384D01*
X0206351Y0147486D01*
X0206443Y0147592D01*
X0206532Y0147699D01*
X0206618Y0147809D01*
X0206700Y0147922D01*
X0206780Y0148037D01*
X0206856Y0148154D01*
X0206930Y0148273D01*
X0206999Y0148394D01*
X0207066Y0148517D01*
X0207129Y0148641D01*
X0207112Y0148649D01*
X0207049Y0148523D01*
X0206982Y0148399D01*
X0206911Y0148277D01*
X0206837Y0148157D01*
X0206760Y0148039D01*
X0206680Y0147924D01*
X0206596Y0147810D01*
X0206509Y0147700D01*
X0206419Y0147591D01*
X0206325Y0147485D01*
X0206229Y0147382D01*
X0206130Y0147282D01*
X0206028Y0147184D01*
X0205924Y0147090D01*
X0205817Y0146998D01*
X0205707Y0146910D01*
X0205595Y0146824D01*
X0205480Y0146742D01*
X0205364Y0146663D01*
X0205245Y0146587D01*
X0205124Y0146515D01*
X0205001Y0146446D01*
X0204876Y0146381D01*
X0204749Y0146320D01*
X0204620Y0146262D01*
X0204490Y0146207D01*
X0204359Y0146156D01*
X0204226Y0146109D01*
X0204092Y0146066D01*
X0203956Y0146027D01*
X0203820Y0145991D01*
X0203682Y0145960D01*
X0203544Y0145932D01*
X0203405Y0145908D01*
X0203266Y0145888D01*
X0203126Y0145872D01*
X0202985Y0145860D01*
X0202844Y0145852D01*
X0202703Y0145848D01*
X0202563Y0145848D01*
X0202422Y0145852D01*
X0202281Y0145860D01*
X0202140Y0145872D01*
X0202000Y0145888D01*
X0201861Y0145908D01*
X0201722Y0145932D01*
X0201584Y0145960D01*
X0201446Y0145991D01*
X0201310Y0146027D01*
X0201174Y0146066D01*
X0201040Y0146109D01*
X0200907Y0146156D01*
X0200776Y0146207D01*
X0200646Y0146262D01*
X0200517Y0146320D01*
X0200390Y0146381D01*
X0200265Y0146446D01*
X0200142Y0146515D01*
X0200021Y0146587D01*
X0199902Y0146663D01*
X0199786Y0146742D01*
X0199671Y0146824D01*
X0199559Y0146910D01*
X0199449Y0146998D01*
X0199342Y0147090D01*
X0199238Y0147184D01*
X0199136Y0147282D01*
X0199037Y0147382D01*
X0198941Y0147485D01*
X0198847Y0147591D01*
X0198757Y0147700D01*
X0198670Y0147810D01*
X0198586Y0147924D01*
X0198506Y0148039D01*
X0198429Y0148157D01*
X0198355Y0148277D01*
X0198284Y0148399D01*
X0198217Y0148523D01*
X0198154Y0148649D01*
X0198170Y0148657D01*
X0198233Y0148532D01*
X0198300Y0148408D01*
X0198370Y0148287D01*
X0198444Y0148167D01*
X0198521Y0148050D01*
X0198601Y0147934D01*
X0198685Y0147821D01*
X0198771Y0147711D01*
X0198861Y0147603D01*
X0198954Y0147497D01*
X0199050Y0147395D01*
X0199148Y0147295D01*
X0199250Y0147197D01*
X0199354Y0147103D01*
X0199461Y0147012D01*
X0199570Y0146924D01*
X0199682Y0146839D01*
X0199796Y0146757D01*
X0199912Y0146678D01*
X0200031Y0146603D01*
X0200151Y0146531D01*
X0200274Y0146462D01*
X0200399Y0146397D01*
X0200525Y0146336D01*
X0200653Y0146278D01*
X0200782Y0146224D01*
X0200914Y0146173D01*
X0201046Y0146127D01*
X0201180Y0146084D01*
X0201315Y0146044D01*
X0201451Y0146009D01*
X0201587Y0145977D01*
X0201725Y0145950D01*
X0201864Y0145926D01*
X0202003Y0145906D01*
X0202142Y0145890D01*
X0202282Y0145878D01*
X0202422Y0145870D01*
X0202563Y0145866D01*
X0202703Y0145866D01*
X0202844Y0145870D01*
X0202984Y0145878D01*
X0203124Y0145890D01*
X0203263Y0145906D01*
X0203402Y0145926D01*
X0203541Y0145950D01*
X0203679Y0145977D01*
X0203815Y0146009D01*
X0203951Y0146044D01*
X0204086Y0146084D01*
X0204220Y0146127D01*
X0204352Y0146173D01*
X0204484Y0146224D01*
X0204613Y0146278D01*
X0204741Y0146336D01*
X0204867Y0146397D01*
X0204992Y0146462D01*
X0205115Y0146531D01*
X0205235Y0146603D01*
X0205354Y0146678D01*
X0205470Y0146757D01*
X0205584Y0146839D01*
X0205696Y0146924D01*
X0205805Y0147012D01*
X0205912Y0147103D01*
X0206016Y0147197D01*
X0206118Y0147295D01*
X0206216Y0147395D01*
X0206312Y0147497D01*
X0206405Y0147603D01*
X0206495Y0147711D01*
X0206581Y0147821D01*
X0206665Y0147934D01*
X0206745Y0148050D01*
X0206822Y0148167D01*
X0206896Y0148287D01*
X0206966Y0148408D01*
X0207033Y0148532D01*
X0207096Y0148657D01*
X0207080Y0148665D01*
X0207017Y0148540D01*
X0206950Y0148417D01*
X0206880Y0148296D01*
X0206807Y0148177D01*
X0206730Y0148060D01*
X0206650Y0147945D01*
X0206567Y0147832D01*
X0206481Y0147722D01*
X0206391Y0147615D01*
X0206299Y0147509D01*
X0206203Y0147407D01*
X0206105Y0147307D01*
X0206004Y0147211D01*
X0205900Y0147117D01*
X0205794Y0147026D01*
X0205685Y0146938D01*
X0205574Y0146853D01*
X0205460Y0146771D01*
X0205344Y0146693D01*
X0205226Y0146618D01*
X0205106Y0146546D01*
X0204983Y0146478D01*
X0204859Y0146413D01*
X0204733Y0146352D01*
X0204606Y0146295D01*
X0204477Y0146241D01*
X0204346Y0146190D01*
X0204214Y0146144D01*
X0204081Y0146101D01*
X0203947Y0146062D01*
X0203811Y0146026D01*
X0203675Y0145995D01*
X0203538Y0145967D01*
X0203400Y0145944D01*
X0203261Y0145924D01*
X0203122Y0145908D01*
X0202983Y0145896D01*
X0202843Y0145888D01*
X0202703Y0145884D01*
X0202563Y0145884D01*
X0202423Y0145888D01*
X0202283Y0145896D01*
X0202144Y0145908D01*
X0202005Y0145924D01*
X0201866Y0145944D01*
X0201728Y0145967D01*
X0201591Y0145995D01*
X0201455Y0146026D01*
X0201319Y0146062D01*
X0201185Y0146101D01*
X0201052Y0146144D01*
X0200920Y0146190D01*
X0200789Y0146241D01*
X0200660Y0146295D01*
X0200533Y0146352D01*
X0200407Y0146413D01*
X0200283Y0146478D01*
X0200160Y0146546D01*
X0200040Y0146618D01*
X0199922Y0146693D01*
X0199806Y0146771D01*
X0199692Y0146853D01*
X0199581Y0146938D01*
X0199472Y0147026D01*
X0199366Y0147117D01*
X0199262Y0147211D01*
X0199161Y0147307D01*
X0199063Y0147407D01*
X0198967Y0147509D01*
X0198875Y0147615D01*
X0198785Y0147722D01*
X0198699Y0147832D01*
X0198616Y0147945D01*
X0198536Y0148060D01*
X0198459Y0148177D01*
X0198386Y0148296D01*
X0198316Y0148417D01*
X0198249Y0148540D01*
X0198186Y0148665D01*
X0198202Y0148673D01*
X0198265Y0148548D01*
X0198331Y0148426D01*
X0198401Y0148305D01*
X0198474Y0148186D01*
X0198551Y0148070D01*
X0198630Y0147955D01*
X0198713Y0147843D01*
X0198799Y0147733D01*
X0198889Y0147626D01*
X0198981Y0147522D01*
X0199076Y0147420D01*
X0199174Y0147320D01*
X0199274Y0147224D01*
X0199378Y0147130D01*
X0199484Y0147040D01*
X0199592Y0146952D01*
X0199703Y0146868D01*
X0199816Y0146786D01*
X0199932Y0146708D01*
X0200050Y0146633D01*
X0200169Y0146562D01*
X0200291Y0146494D01*
X0200415Y0146429D01*
X0200540Y0146368D01*
X0200667Y0146311D01*
X0200796Y0146257D01*
X0200926Y0146207D01*
X0201058Y0146161D01*
X0201190Y0146118D01*
X0201324Y0146079D01*
X0201459Y0146044D01*
X0201595Y0146013D01*
X0201732Y0145985D01*
X0201869Y0145962D01*
X0202007Y0145942D01*
X0202146Y0145926D01*
X0202285Y0145914D01*
X0202424Y0145906D01*
X0202563Y0145902D01*
X0202703Y0145902D01*
X0202842Y0145906D01*
X0202981Y0145914D01*
X0203120Y0145926D01*
X0203259Y0145942D01*
X0203397Y0145962D01*
X0203534Y0145985D01*
X0203671Y0146013D01*
X0203807Y0146044D01*
X0203942Y0146079D01*
X0204076Y0146118D01*
X0204208Y0146161D01*
X0204340Y0146207D01*
X0204470Y0146257D01*
X0204599Y0146311D01*
X0204726Y0146368D01*
X0204851Y0146429D01*
X0204975Y0146494D01*
X0205097Y0146562D01*
X0205216Y0146633D01*
X0205334Y0146708D01*
X0205450Y0146786D01*
X0205563Y0146868D01*
X0205674Y0146952D01*
X0205782Y0147040D01*
X0205888Y0147130D01*
X0205992Y0147224D01*
X0206092Y0147320D01*
X0206190Y0147420D01*
X0206285Y0147522D01*
X0206377Y0147626D01*
X0206467Y0147733D01*
X0206553Y0147843D01*
X0206636Y0147955D01*
X0206715Y0148070D01*
X0206792Y0148186D01*
X0206865Y0148305D01*
X0206935Y0148426D01*
X0207001Y0148548D01*
X0207064Y0148673D01*
X0197544Y0150821D02*
X0197724Y0150821D01*
X0197723Y0150820D02*
X0197725Y0150683D01*
X0197731Y0150546D01*
X0197741Y0150409D01*
X0197755Y0150273D01*
X0197772Y0150137D01*
X0197793Y0150001D01*
X0197819Y0149866D01*
X0197847Y0149732D01*
X0197880Y0149599D01*
X0197916Y0149467D01*
X0197956Y0149335D01*
X0198000Y0149205D01*
X0198047Y0149077D01*
X0198098Y0148949D01*
X0198152Y0148823D01*
X0198210Y0148699D01*
X0198048Y0148621D01*
X0198048Y0148620D01*
X0197991Y0148742D01*
X0197938Y0148864D01*
X0197888Y0148989D01*
X0197841Y0149114D01*
X0197797Y0149241D01*
X0197757Y0149368D01*
X0197721Y0149497D01*
X0197687Y0149627D01*
X0197657Y0149757D01*
X0197631Y0149888D01*
X0197608Y0150020D01*
X0197588Y0150153D01*
X0197572Y0150286D01*
X0197560Y0150419D01*
X0197551Y0150552D01*
X0197545Y0150686D01*
X0197543Y0150820D01*
X0197561Y0150820D01*
X0197563Y0150678D01*
X0197569Y0150537D01*
X0197580Y0150395D01*
X0197594Y0150254D01*
X0197612Y0150114D01*
X0197634Y0149974D01*
X0197660Y0149834D01*
X0197689Y0149696D01*
X0197723Y0149558D01*
X0197760Y0149422D01*
X0197802Y0149286D01*
X0197847Y0149152D01*
X0197896Y0149018D01*
X0197948Y0148887D01*
X0198004Y0148757D01*
X0198064Y0148628D01*
X0198080Y0148636D01*
X0198021Y0148764D01*
X0197965Y0148894D01*
X0197912Y0149025D01*
X0197864Y0149158D01*
X0197819Y0149291D01*
X0197778Y0149427D01*
X0197740Y0149563D01*
X0197707Y0149700D01*
X0197677Y0149838D01*
X0197652Y0149977D01*
X0197630Y0150116D01*
X0197612Y0150256D01*
X0197598Y0150397D01*
X0197587Y0150538D01*
X0197581Y0150679D01*
X0197579Y0150820D01*
X0197597Y0150820D01*
X0197599Y0150679D01*
X0197605Y0150539D01*
X0197616Y0150398D01*
X0197630Y0150258D01*
X0197647Y0150119D01*
X0197669Y0149980D01*
X0197695Y0149842D01*
X0197725Y0149704D01*
X0197758Y0149567D01*
X0197795Y0149432D01*
X0197836Y0149297D01*
X0197881Y0149164D01*
X0197929Y0149031D01*
X0197981Y0148901D01*
X0198037Y0148771D01*
X0198096Y0148644D01*
X0198112Y0148652D01*
X0198053Y0148779D01*
X0197998Y0148908D01*
X0197946Y0149038D01*
X0197898Y0149169D01*
X0197853Y0149302D01*
X0197812Y0149437D01*
X0197775Y0149572D01*
X0197742Y0149708D01*
X0197713Y0149845D01*
X0197687Y0149983D01*
X0197665Y0150121D01*
X0197647Y0150260D01*
X0197633Y0150400D01*
X0197623Y0150540D01*
X0197617Y0150680D01*
X0197615Y0150820D01*
X0197633Y0150820D01*
X0197635Y0150680D01*
X0197641Y0150541D01*
X0197651Y0150402D01*
X0197665Y0150263D01*
X0197683Y0150124D01*
X0197705Y0149986D01*
X0197730Y0149849D01*
X0197760Y0149712D01*
X0197793Y0149576D01*
X0197830Y0149442D01*
X0197870Y0149308D01*
X0197915Y0149175D01*
X0197963Y0149044D01*
X0198014Y0148915D01*
X0198070Y0148786D01*
X0198129Y0148660D01*
X0198145Y0148667D01*
X0198086Y0148794D01*
X0198031Y0148921D01*
X0197980Y0149051D01*
X0197932Y0149181D01*
X0197887Y0149313D01*
X0197847Y0149447D01*
X0197810Y0149581D01*
X0197777Y0149716D01*
X0197748Y0149852D01*
X0197723Y0149989D01*
X0197701Y0150126D01*
X0197683Y0150265D01*
X0197669Y0150403D01*
X0197659Y0150542D01*
X0197653Y0150681D01*
X0197651Y0150820D01*
X0197669Y0150820D01*
X0197671Y0150681D01*
X0197677Y0150543D01*
X0197687Y0150405D01*
X0197701Y0150267D01*
X0197719Y0150129D01*
X0197740Y0149992D01*
X0197766Y0149856D01*
X0197795Y0149720D01*
X0197828Y0149585D01*
X0197864Y0149452D01*
X0197905Y0149319D01*
X0197949Y0149187D01*
X0197996Y0149057D01*
X0198048Y0148928D01*
X0198103Y0148801D01*
X0198161Y0148675D01*
X0198177Y0148683D01*
X0198119Y0148808D01*
X0198064Y0148935D01*
X0198013Y0149064D01*
X0197966Y0149193D01*
X0197922Y0149324D01*
X0197882Y0149457D01*
X0197845Y0149590D01*
X0197812Y0149724D01*
X0197783Y0149859D01*
X0197758Y0149995D01*
X0197737Y0150132D01*
X0197719Y0150269D01*
X0197705Y0150406D01*
X0197695Y0150544D01*
X0197689Y0150682D01*
X0197687Y0150820D01*
X0197705Y0150820D01*
X0197707Y0150682D01*
X0197713Y0150545D01*
X0197723Y0150408D01*
X0197737Y0150271D01*
X0197754Y0150134D01*
X0197776Y0149998D01*
X0197801Y0149863D01*
X0197830Y0149728D01*
X0197862Y0149594D01*
X0197899Y0149462D01*
X0197939Y0149330D01*
X0197983Y0149199D01*
X0198030Y0149070D01*
X0198081Y0148942D01*
X0198135Y0148816D01*
X0198193Y0148691D01*
D27*
X0187614Y0149690D03*
X0187614Y0146490D03*
X0187652Y0178971D03*
X0187652Y0182171D03*
D28*
X0258933Y0200780D03*
X0262633Y0192880D03*
X0266333Y0200780D03*
X0236333Y0261630D03*
X0228933Y0261630D03*
X0232633Y0269530D03*
X0123833Y0261630D03*
X0116433Y0261630D03*
X0120133Y0269530D03*
D29*
X0128883Y0205530D03*
X0133883Y0205530D03*
X0138883Y0205530D03*
X0143883Y0205530D03*
X0143883Y0185630D03*
X0138883Y0185630D03*
X0133883Y0185730D03*
X0128883Y0185630D03*
D30*
X0147883Y0188080D03*
D31*
X0121846Y0314271D03*
D32*
X0119287Y0314271D03*
X0119287Y0316830D03*
X0119287Y0319389D03*
X0125980Y0319389D03*
X0125980Y0314271D03*
D33*
X0171757Y0276820D03*
X0171757Y0269340D03*
X0181009Y0269340D03*
X0181009Y0273080D03*
X0181009Y0276820D03*
D34*
X0180335Y0279710D02*
X0179084Y0279710D01*
X0178833Y0279961D01*
X0178833Y0280461D01*
X0179084Y0280711D01*
X0180335Y0280711D01*
X0180084Y0281184D02*
X0180335Y0281434D01*
X0180335Y0281934D01*
X0180084Y0282185D01*
X0179834Y0282657D02*
X0180335Y0283157D01*
X0178833Y0283157D01*
X0178833Y0282657D02*
X0178833Y0283658D01*
X0179084Y0282185D02*
X0179334Y0282185D01*
X0179584Y0281934D01*
X0179584Y0281434D01*
X0179834Y0281184D01*
X0180084Y0281184D01*
X0180585Y0281684D02*
X0178583Y0281684D01*
X0178833Y0281434D02*
X0178833Y0281934D01*
X0179084Y0282185D01*
X0178833Y0281434D02*
X0179084Y0281184D01*
M02*
