G75*
%MOIN*%
%OFA0B0*%
%FSLAX25Y25*%
%IPPOS*%
%LPD*%
%AMOC8*
5,1,8,0,0,1.08239X$1,22.5*
%
%ADD10C,0.13005*%
%ADD11R,0.04934X0.05052*%
%ADD12R,0.05052X0.04934*%
%ADD13R,0.07300X0.04737*%
%ADD14R,0.04737X0.05131*%
%ADD15R,0.03162X0.05524*%
%ADD16R,0.05131X0.04737*%
%ADD17R,0.08400X0.21800*%
%ADD18R,0.04343X0.03556*%
%ADD19C,0.08200*%
%ADD20C,0.00500*%
%ADD21R,0.04737X0.06312*%
%ADD22C,0.06800*%
%ADD23R,0.04737X0.07887*%
%ADD24C,0.00600*%
%ADD25R,0.03950X0.02178*%
%ADD26R,0.05524X0.02965*%
%ADD27R,0.09461X0.07099*%
%ADD28R,0.07887X0.04737*%
%ADD29C,0.07400*%
%ADD30C,0.05156*%
%ADD31C,0.06706*%
D10*
X0097318Y0130452D03*
X0368972Y0130452D03*
X0368972Y0453287D03*
X0097318Y0453287D03*
D11*
X0101688Y0335580D03*
X0108578Y0335580D03*
X0172938Y0263080D03*
X0179828Y0263080D03*
X0224188Y0276830D03*
X0231078Y0276830D03*
X0229188Y0388080D03*
X0236078Y0388080D03*
X0236078Y0456830D03*
X0229188Y0456830D03*
X0337938Y0193080D03*
X0344828Y0193080D03*
X0254828Y0159330D03*
X0247938Y0159330D03*
D12*
X0242633Y0200885D03*
X0242633Y0207775D03*
X0233883Y0207775D03*
X0233883Y0200885D03*
X0223883Y0200885D03*
X0223883Y0207775D03*
X0215133Y0207775D03*
X0215133Y0200885D03*
X0153883Y0199025D03*
X0153883Y0192135D03*
X0188883Y0269635D03*
X0188883Y0276525D03*
X0135133Y0313385D03*
X0135133Y0320275D03*
X0100133Y0320885D03*
X0100133Y0327775D03*
X0335133Y0226525D03*
X0335133Y0219635D03*
X0342633Y0219635D03*
X0342633Y0226525D03*
X0337633Y0209025D03*
X0337633Y0202135D03*
D13*
X0242779Y0285531D03*
X0242779Y0298129D03*
X0222488Y0298129D03*
X0222488Y0285531D03*
D14*
X0144730Y0218080D03*
X0138037Y0218080D03*
X0115980Y0250580D03*
X0109287Y0250580D03*
X0129287Y0304330D03*
X0135980Y0304330D03*
X0125980Y0326830D03*
X0119287Y0326830D03*
X0108480Y0345580D03*
X0101787Y0345580D03*
X0263037Y0184330D03*
X0269730Y0184330D03*
X0269730Y0174330D03*
X0263037Y0174330D03*
X0243480Y0151830D03*
X0236787Y0151830D03*
X0227230Y0151830D03*
X0220537Y0151830D03*
X0343037Y0236830D03*
X0349730Y0236830D03*
X0360537Y0225580D03*
X0367230Y0225580D03*
X0367230Y0215580D03*
X0360537Y0215580D03*
X0332230Y0349330D03*
X0325537Y0349330D03*
X0325537Y0359330D03*
X0332230Y0359330D03*
D15*
X0255133Y0189104D03*
X0250133Y0189104D03*
X0245133Y0189104D03*
X0240133Y0189104D03*
X0235133Y0189104D03*
X0230133Y0189104D03*
X0225133Y0189104D03*
X0220133Y0189104D03*
X0220133Y0167057D03*
X0225133Y0167057D03*
X0230133Y0167057D03*
X0235133Y0167057D03*
X0240133Y0167057D03*
X0245133Y0167057D03*
X0250133Y0167057D03*
X0255133Y0167057D03*
X0143883Y0184557D03*
X0138883Y0184557D03*
X0133883Y0184557D03*
X0128883Y0184557D03*
X0128883Y0206604D03*
X0133883Y0206604D03*
X0138883Y0206604D03*
X0143883Y0206604D03*
D16*
X0110133Y0262234D03*
X0110133Y0268927D03*
X0120133Y0300984D03*
X0120133Y0307677D03*
X0110133Y0308484D03*
X0110133Y0315177D03*
X0110133Y0320984D03*
X0110133Y0327677D03*
X0196383Y0276427D03*
X0196383Y0269734D03*
X0221383Y0267677D03*
X0221383Y0260984D03*
X0222633Y0307234D03*
X0222633Y0313927D03*
X0232633Y0403484D03*
X0232633Y0410177D03*
X0341383Y0353927D03*
X0341383Y0347234D03*
X0346383Y0208927D03*
X0346383Y0202234D03*
X0370133Y0200177D03*
X0370133Y0193484D03*
X0380133Y0193484D03*
X0380133Y0200177D03*
X0236383Y0158927D03*
X0236383Y0152234D03*
X0227633Y0152234D03*
X0227633Y0158927D03*
D17*
X0202633Y0145330D03*
X0202633Y0183330D03*
D18*
X0187633Y0183139D03*
X0187633Y0178021D03*
X0187633Y0150639D03*
X0187633Y0145521D03*
D19*
X0215133Y0234380D02*
X0215133Y0241780D01*
X0225133Y0241780D02*
X0225133Y0234380D01*
X0235133Y0234380D02*
X0235133Y0241780D01*
X0245133Y0241780D02*
X0245133Y0234380D01*
X0255133Y0234380D02*
X0255133Y0241780D01*
X0265133Y0241780D02*
X0265133Y0234380D01*
D20*
X0138877Y0284071D02*
X0138530Y0283437D01*
X0138064Y0282882D01*
X0137500Y0282430D01*
X0136859Y0282096D01*
X0136164Y0281893D01*
X0135443Y0281830D01*
X0134718Y0281892D01*
X0134020Y0282094D01*
X0133374Y0282428D01*
X0132805Y0282882D01*
X0132337Y0283438D01*
X0131985Y0284075D01*
X0131765Y0284768D01*
X0131684Y0285490D01*
X0131733Y0286150D01*
X0131897Y0286791D01*
X0132169Y0287394D01*
X0132542Y0287940D01*
X0133005Y0288414D01*
X0133542Y0288800D01*
X0134138Y0289086D01*
X0134775Y0289265D01*
X0135433Y0289331D01*
X0136092Y0289263D01*
X0136728Y0289083D01*
X0137324Y0288795D01*
X0137860Y0288407D01*
X0138321Y0287933D01*
X0138693Y0287385D01*
X0138963Y0286782D01*
X0139125Y0286140D01*
X0139173Y0285480D01*
X0139095Y0284761D01*
X0138877Y0284071D01*
X0138950Y0284300D02*
X0131913Y0284300D01*
X0131761Y0284799D02*
X0139099Y0284799D01*
X0139153Y0285297D02*
X0131705Y0285297D01*
X0131707Y0285796D02*
X0139150Y0285796D01*
X0139086Y0286294D02*
X0131770Y0286294D01*
X0131898Y0286793D02*
X0138958Y0286793D01*
X0138735Y0287291D02*
X0132123Y0287291D01*
X0132440Y0287790D02*
X0138418Y0287790D01*
X0137976Y0288288D02*
X0132882Y0288288D01*
X0133524Y0288787D02*
X0137334Y0288787D01*
X0135876Y0289285D02*
X0134978Y0289285D01*
X0132136Y0283802D02*
X0138730Y0283802D01*
X0138418Y0283303D02*
X0132450Y0283303D01*
X0132902Y0282805D02*
X0137968Y0282805D01*
X0137263Y0282306D02*
X0133609Y0282306D01*
X0113495Y0284761D02*
X0113277Y0284071D01*
X0112930Y0283437D01*
X0112464Y0282882D01*
X0111900Y0282430D01*
X0111259Y0282096D01*
X0110564Y0281893D01*
X0109843Y0281830D01*
X0109118Y0281892D01*
X0108420Y0282094D01*
X0107774Y0282428D01*
X0107205Y0282882D01*
X0106737Y0283438D01*
X0106385Y0284075D01*
X0106165Y0284768D01*
X0106084Y0285490D01*
X0106133Y0286150D01*
X0106297Y0286791D01*
X0106569Y0287394D01*
X0106942Y0287940D01*
X0107405Y0288414D01*
X0107942Y0288800D01*
X0108538Y0289086D01*
X0109175Y0289265D01*
X0109833Y0289331D01*
X0110492Y0289263D01*
X0111128Y0289083D01*
X0111724Y0288795D01*
X0112260Y0288407D01*
X0112721Y0287933D01*
X0113093Y0287385D01*
X0113363Y0286782D01*
X0113525Y0286140D01*
X0113573Y0285480D01*
X0113495Y0284761D01*
X0113499Y0284799D02*
X0106161Y0284799D01*
X0106105Y0285297D02*
X0113553Y0285297D01*
X0113550Y0285796D02*
X0106107Y0285796D01*
X0106170Y0286294D02*
X0113486Y0286294D01*
X0113358Y0286793D02*
X0106298Y0286793D01*
X0106523Y0287291D02*
X0113135Y0287291D01*
X0112818Y0287790D02*
X0106840Y0287790D01*
X0107282Y0288288D02*
X0112376Y0288288D01*
X0111734Y0288787D02*
X0107924Y0288787D01*
X0109378Y0289285D02*
X0110276Y0289285D01*
X0113350Y0284300D02*
X0106313Y0284300D01*
X0106536Y0283802D02*
X0113130Y0283802D01*
X0112818Y0283303D02*
X0106850Y0283303D01*
X0107302Y0282805D02*
X0112368Y0282805D01*
X0111663Y0282306D02*
X0108009Y0282306D01*
D21*
X0120133Y0269911D03*
X0116393Y0261249D03*
X0123873Y0261249D03*
X0228893Y0261249D03*
X0236373Y0261249D03*
X0232633Y0269911D03*
X0258893Y0201161D03*
X0262633Y0192499D03*
X0266373Y0201161D03*
D22*
X0159415Y0122820D02*
X0159415Y0116820D01*
X0149415Y0116820D02*
X0149415Y0122820D01*
X0217766Y0371989D02*
X0217766Y0377989D01*
X0227766Y0377989D02*
X0227766Y0371989D01*
X0237766Y0371989D02*
X0237766Y0377989D01*
X0247766Y0377989D02*
X0247766Y0371989D01*
X0247764Y0442724D02*
X0247764Y0448724D01*
X0237764Y0448724D02*
X0237764Y0442724D01*
X0227764Y0442724D02*
X0227764Y0448724D01*
X0217764Y0448724D02*
X0217764Y0442724D01*
D23*
X0148805Y0173080D03*
X0138962Y0173080D03*
D24*
X0135186Y0165233D02*
X0135833Y0164931D01*
X0136419Y0164521D01*
X0136924Y0164016D01*
X0137334Y0163430D01*
X0137636Y0162782D01*
X0137821Y0162092D01*
X0137883Y0161380D01*
X0137823Y0160686D01*
X0137642Y0160012D01*
X0137347Y0159380D01*
X0136948Y0158809D01*
X0136454Y0158316D01*
X0135883Y0157916D01*
X0135251Y0157621D01*
X0134578Y0157441D01*
X0133883Y0157380D01*
X0133189Y0157441D01*
X0132515Y0157621D01*
X0131883Y0157916D01*
X0131312Y0158316D01*
X0130819Y0158809D01*
X0130419Y0159380D01*
X0130125Y0160012D01*
X0129944Y0160686D01*
X0129883Y0161380D01*
X0129927Y0162076D01*
X0130090Y0162754D01*
X0130369Y0163394D01*
X0130755Y0163975D01*
X0131236Y0164480D01*
X0131797Y0164894D01*
X0132421Y0165205D01*
X0133090Y0165402D01*
X0133783Y0165480D01*
X0134495Y0165418D01*
X0135186Y0165233D01*
X0135898Y0164886D02*
X0131785Y0164886D01*
X0131052Y0164287D02*
X0136652Y0164287D01*
X0137153Y0163689D02*
X0130565Y0163689D01*
X0130237Y0163090D02*
X0137493Y0163090D01*
X0137714Y0162492D02*
X0130027Y0162492D01*
X0129915Y0161893D02*
X0137838Y0161893D01*
X0137876Y0161295D02*
X0129891Y0161295D01*
X0129943Y0160696D02*
X0137823Y0160696D01*
X0137665Y0160098D02*
X0130102Y0160098D01*
X0130364Y0159499D02*
X0137403Y0159499D01*
X0137012Y0158901D02*
X0130755Y0158901D01*
X0131332Y0158302D02*
X0136435Y0158302D01*
X0135428Y0157704D02*
X0132339Y0157704D01*
X0133883Y0236080D02*
X0133189Y0236141D01*
X0132515Y0236321D01*
X0131883Y0236616D01*
X0131312Y0237016D01*
X0130819Y0237509D01*
X0130419Y0238080D01*
X0130125Y0238712D01*
X0129944Y0239386D01*
X0129883Y0240080D01*
X0129927Y0240776D01*
X0130090Y0241454D01*
X0130369Y0242094D01*
X0137351Y0242094D01*
X0137334Y0242130D02*
X0137636Y0241482D01*
X0137821Y0240792D01*
X0137883Y0240080D01*
X0137823Y0239386D01*
X0137642Y0238712D01*
X0137347Y0238080D01*
X0136948Y0237509D01*
X0136454Y0237016D01*
X0135883Y0236616D01*
X0135251Y0236321D01*
X0134578Y0236141D01*
X0133883Y0236080D01*
X0133558Y0236109D02*
X0134208Y0236109D01*
X0136013Y0236707D02*
X0131753Y0236707D01*
X0131023Y0237306D02*
X0136744Y0237306D01*
X0137224Y0237904D02*
X0130542Y0237904D01*
X0130222Y0238503D02*
X0137544Y0238503D01*
X0137746Y0239101D02*
X0130020Y0239101D01*
X0129917Y0239700D02*
X0137850Y0239700D01*
X0137864Y0240298D02*
X0129897Y0240298D01*
X0129956Y0240897D02*
X0137793Y0240897D01*
X0137630Y0241495D02*
X0130108Y0241495D01*
X0130369Y0242094D02*
X0130755Y0242675D01*
X0131236Y0243180D01*
X0131797Y0243594D01*
X0132421Y0243905D01*
X0133090Y0244102D01*
X0133783Y0244180D01*
X0134495Y0244118D01*
X0135186Y0243933D01*
X0135833Y0243631D01*
X0136419Y0243221D01*
X0136924Y0242716D01*
X0137334Y0242130D01*
X0136940Y0242692D02*
X0130772Y0242692D01*
X0131386Y0243291D02*
X0136319Y0243291D01*
X0135279Y0243889D02*
X0132390Y0243889D01*
D25*
X0125980Y0314271D03*
X0125980Y0319389D03*
X0119287Y0319389D03*
X0119287Y0316830D03*
X0119287Y0314271D03*
D26*
X0171265Y0276820D03*
X0171265Y0269340D03*
X0181502Y0269340D03*
X0181502Y0273080D03*
X0181502Y0276820D03*
D27*
X0158883Y0278592D03*
X0158883Y0267568D03*
D28*
X0202633Y0169251D03*
X0202633Y0159409D03*
D29*
X0283883Y0151830D03*
D30*
X0242664Y0127212D03*
X0223365Y0127395D03*
D31*
X0222183Y0115240D03*
X0243625Y0115372D03*
M02*
