G75*
%MOIN*%
%OFA0B0*%
%FSLAX25Y25*%
%IPPOS*%
%LPD*%
%AMOC8*
5,1,8,0,0,1.08239X$1,22.5*
%
%ADD10C,0.13005*%
%ADD11R,0.04134X0.01575*%
%ADD12R,0.01969X0.01969*%
%ADD13R,0.11811X0.11811*%
%ADD14R,0.01575X0.04134*%
%ADD15R,0.05131X0.04737*%
%ADD16R,0.04737X0.05131*%
%ADD17R,0.04737X0.06312*%
%ADD18R,0.04343X0.06706*%
%ADD19R,0.06706X0.04343*%
%ADD20R,0.24422X0.24422*%
%ADD21C,0.08200*%
%ADD22C,0.00500*%
%ADD23C,0.06800*%
%ADD24R,0.14580X0.07099*%
%ADD25R,0.05524X0.08674*%
%ADD26R,0.08674X0.05524*%
%ADD27C,0.04737*%
%ADD28C,0.00600*%
%ADD29R,0.03200X0.07500*%
%ADD30R,0.05052X0.04934*%
%ADD31R,0.02375X0.07690*%
%ADD32R,0.08674X0.06548*%
%ADD33R,0.06410X0.10643*%
%ADD34C,0.00400*%
%ADD35R,0.04934X0.05052*%
%ADD36R,0.06706X0.01784*%
%ADD37R,0.01784X0.06706*%
%ADD38R,0.04737X0.07887*%
%ADD39R,0.04343X0.03556*%
%ADD40C,0.07400*%
%ADD41C,0.05156*%
%ADD42C,0.06706*%
D10*
X0097318Y0130452D03*
X0368972Y0130452D03*
X0368972Y0453287D03*
X0097318Y0453287D03*
D11*
X0273942Y0157736D03*
X0273942Y0155767D03*
X0273942Y0153799D03*
X0273942Y0151830D03*
X0273942Y0149862D03*
X0273942Y0147893D03*
X0273942Y0145925D03*
X0293824Y0145925D03*
X0293824Y0147893D03*
X0293824Y0149862D03*
X0293824Y0151830D03*
X0293824Y0153799D03*
X0293824Y0155767D03*
X0293824Y0157736D03*
D12*
X0275606Y0160108D03*
D13*
X0283883Y0151830D03*
D14*
X0283883Y0141889D03*
X0281915Y0141889D03*
X0279946Y0141889D03*
X0277978Y0141889D03*
X0285852Y0141889D03*
X0287820Y0141889D03*
X0289789Y0141889D03*
X0289789Y0161771D03*
X0287820Y0161771D03*
X0285852Y0161771D03*
X0283883Y0161771D03*
X0281915Y0161771D03*
X0279946Y0161771D03*
X0277978Y0161771D03*
D15*
X0266383Y0145177D03*
X0266383Y0138484D03*
X0253883Y0127677D03*
X0253883Y0120984D03*
X0235133Y0200984D03*
X0235133Y0207677D03*
X0288883Y0272234D03*
X0288883Y0278927D03*
X0352633Y0268927D03*
X0352633Y0262234D03*
X0365133Y0270984D03*
X0365133Y0277677D03*
X0380133Y0277677D03*
X0380133Y0270984D03*
X0371383Y0262677D03*
X0371383Y0255984D03*
X0371383Y0314734D03*
X0371383Y0321427D03*
X0380133Y0321427D03*
X0380133Y0314734D03*
X0355133Y0314734D03*
X0355133Y0321427D03*
X0336383Y0153927D03*
X0336383Y0147234D03*
X0341383Y0118927D03*
X0341383Y0112234D03*
X0132633Y0115984D03*
X0132633Y0122677D03*
X0132633Y0130984D03*
X0132633Y0137677D03*
X0122633Y0122677D03*
X0122633Y0115984D03*
X0128883Y0373484D03*
X0128883Y0380177D03*
D16*
X0138037Y0381830D03*
X0144730Y0381830D03*
X0290537Y0304330D03*
X0297230Y0304330D03*
X0289730Y0184330D03*
X0283037Y0184330D03*
X0285537Y0174330D03*
X0292230Y0174330D03*
X0293037Y0134330D03*
X0299730Y0134330D03*
X0284730Y0129330D03*
X0278037Y0129330D03*
X0277230Y0120580D03*
X0270537Y0120580D03*
X0325537Y0118080D03*
X0332230Y0118080D03*
X0334730Y0161830D03*
X0328037Y0161830D03*
D17*
X0321383Y0136161D03*
X0317643Y0127499D03*
X0325123Y0127499D03*
X0332643Y0127499D03*
X0340123Y0127499D03*
X0336383Y0136161D03*
D18*
X0336570Y0336397D03*
X0341570Y0336397D03*
X0346570Y0336397D03*
X0351570Y0336397D03*
X0356570Y0336397D03*
X0361570Y0336397D03*
X0366570Y0336397D03*
X0371570Y0336397D03*
X0376570Y0336397D03*
X0381570Y0336397D03*
X0331570Y0336397D03*
X0326570Y0336397D03*
X0321570Y0336397D03*
X0316570Y0336397D03*
X0316570Y0407263D03*
X0321570Y0407263D03*
X0326570Y0407263D03*
X0331570Y0407263D03*
X0336570Y0407263D03*
X0341570Y0407263D03*
X0346570Y0407263D03*
X0351570Y0407263D03*
X0356570Y0407263D03*
X0361570Y0407263D03*
X0366570Y0407263D03*
X0371570Y0407263D03*
X0376570Y0407263D03*
X0381570Y0407263D03*
D19*
X0310704Y0394330D03*
X0310704Y0389330D03*
X0310704Y0384330D03*
X0310704Y0379330D03*
X0310704Y0374330D03*
X0310704Y0369330D03*
X0310704Y0364330D03*
X0310704Y0359330D03*
X0310704Y0354330D03*
X0310704Y0349330D03*
D20*
X0351255Y0371830D03*
D21*
X0265133Y0241780D02*
X0265133Y0234380D01*
X0255133Y0234380D02*
X0255133Y0241780D01*
X0245133Y0241780D02*
X0245133Y0234380D01*
X0235133Y0234380D02*
X0235133Y0241780D01*
X0225133Y0241780D02*
X0225133Y0234380D01*
X0215133Y0234380D02*
X0215133Y0241780D01*
D22*
X0136996Y0284793D02*
X0136788Y0284468D01*
X0136512Y0284197D01*
X0136183Y0283995D01*
X0135818Y0283870D01*
X0135433Y0283830D01*
X0135052Y0283864D01*
X0134687Y0283982D01*
X0134358Y0284178D01*
X0134081Y0284443D01*
X0133870Y0284762D01*
X0133735Y0285121D01*
X0133683Y0285500D01*
X0133718Y0285901D01*
X0133842Y0286284D01*
X0134047Y0286629D01*
X0134324Y0286920D01*
X0134659Y0287143D01*
X0135035Y0287285D01*
X0135433Y0287340D01*
X0135826Y0287289D01*
X0136198Y0287152D01*
X0136530Y0286935D01*
X0136806Y0286650D01*
X0137011Y0286311D01*
X0137135Y0285935D01*
X0137173Y0285540D01*
X0137127Y0285157D01*
X0136996Y0284793D01*
X0136998Y0284799D02*
X0133856Y0284799D01*
X0133711Y0285297D02*
X0137144Y0285297D01*
X0137149Y0285796D02*
X0133709Y0285796D01*
X0133848Y0286294D02*
X0137016Y0286294D01*
X0136668Y0286793D02*
X0134203Y0286793D01*
X0135080Y0287291D02*
X0135809Y0287291D01*
X0136617Y0284300D02*
X0134231Y0284300D01*
X0111573Y0285540D02*
X0111527Y0285157D01*
X0111396Y0284793D01*
X0111188Y0284468D01*
X0110912Y0284197D01*
X0110583Y0283995D01*
X0110218Y0283870D01*
X0109833Y0283830D01*
X0109452Y0283864D01*
X0109087Y0283982D01*
X0108758Y0284178D01*
X0108481Y0284443D01*
X0108270Y0284762D01*
X0108135Y0285121D01*
X0108083Y0285500D01*
X0108118Y0285901D01*
X0108242Y0286284D01*
X0108447Y0286629D01*
X0108724Y0286920D01*
X0109059Y0287143D01*
X0109435Y0287285D01*
X0109833Y0287340D01*
X0110226Y0287289D01*
X0110598Y0287152D01*
X0110930Y0286935D01*
X0111206Y0286650D01*
X0111411Y0286311D01*
X0111535Y0285935D01*
X0111573Y0285540D01*
X0111544Y0285297D02*
X0108111Y0285297D01*
X0108109Y0285796D02*
X0111549Y0285796D01*
X0111416Y0286294D02*
X0108248Y0286294D01*
X0108603Y0286793D02*
X0111068Y0286793D01*
X0110209Y0287291D02*
X0109480Y0287291D01*
X0108256Y0284799D02*
X0111398Y0284799D01*
X0111017Y0284300D02*
X0108631Y0284300D01*
D23*
X0217766Y0371989D02*
X0217766Y0377989D01*
X0227766Y0377989D02*
X0227766Y0371989D01*
X0237766Y0371989D02*
X0237766Y0377989D01*
X0247766Y0377989D02*
X0247766Y0371989D01*
X0247764Y0442724D02*
X0247764Y0448724D01*
X0237764Y0448724D02*
X0237764Y0442724D01*
X0227764Y0442724D02*
X0227764Y0448724D01*
X0217764Y0448724D02*
X0217764Y0442724D01*
X0159415Y0122820D02*
X0159415Y0116820D01*
X0149415Y0116820D02*
X0149415Y0122820D01*
D24*
X0165753Y0258080D03*
X0187013Y0258080D03*
X0222003Y0351830D03*
X0243263Y0351830D03*
X0243263Y0421830D03*
X0222003Y0421830D03*
D25*
X0326757Y0241830D03*
X0334631Y0241830D03*
X0342505Y0241830D03*
X0350379Y0241830D03*
X0358253Y0241830D03*
X0366127Y0241830D03*
X0374001Y0241830D03*
X0381875Y0241830D03*
X0381875Y0178051D03*
X0374001Y0178051D03*
X0366127Y0178051D03*
X0358253Y0178051D03*
X0350379Y0178051D03*
X0342505Y0178051D03*
X0334631Y0178051D03*
X0326757Y0178051D03*
D26*
X0318883Y0190649D03*
X0318883Y0198523D03*
X0318883Y0206397D03*
X0318883Y0214271D03*
X0318883Y0222145D03*
X0318883Y0230019D03*
D27*
X0310133Y0214330D03*
X0310133Y0206830D03*
X0310133Y0198080D03*
X0350133Y0168080D03*
X0360133Y0169330D03*
X0367633Y0169330D03*
X0360133Y0251830D03*
X0352633Y0251830D03*
X0333883Y0251830D03*
X0326383Y0320580D03*
X0321383Y0328080D03*
X0316383Y0320580D03*
X0331383Y0328080D03*
X0302633Y0359330D03*
X0297633Y0364330D03*
X0302633Y0369330D03*
X0297633Y0374330D03*
X0302633Y0379330D03*
X0297633Y0384330D03*
X0302633Y0389330D03*
X0316383Y0416830D03*
X0321383Y0424330D03*
X0352633Y0416830D03*
X0357633Y0414330D03*
X0362633Y0416830D03*
X0201383Y0255580D03*
X0153883Y0258080D03*
X0182633Y0116830D03*
X0192633Y0116830D03*
X0255133Y0113080D03*
D28*
X0135992Y0160723D02*
X0135824Y0160324D01*
X0135580Y0159966D01*
X0135272Y0159662D01*
X0134910Y0159424D01*
X0134509Y0159261D01*
X0134083Y0159180D01*
X0133612Y0159198D01*
X0133155Y0159314D01*
X0132732Y0159522D01*
X0132362Y0159813D01*
X0132060Y0160175D01*
X0131840Y0160592D01*
X0131711Y0161046D01*
X0131680Y0161516D01*
X0131747Y0161983D01*
X0131910Y0162425D01*
X0132161Y0162824D01*
X0132489Y0163162D01*
X0132881Y0163425D01*
X0133319Y0163600D01*
X0133783Y0163680D01*
X0134214Y0163657D01*
X0134633Y0163551D01*
X0135022Y0163365D01*
X0135368Y0163107D01*
X0135657Y0162786D01*
X0135878Y0162414D01*
X0136022Y0162007D01*
X0136083Y0161580D01*
X0136080Y0161147D01*
X0135992Y0160723D01*
X0135981Y0160696D02*
X0131810Y0160696D01*
X0131695Y0161295D02*
X0136081Y0161295D01*
X0136038Y0161893D02*
X0131734Y0161893D01*
X0131952Y0162492D02*
X0135832Y0162492D01*
X0135383Y0163090D02*
X0132419Y0163090D01*
X0132124Y0160098D02*
X0135670Y0160098D01*
X0135024Y0159499D02*
X0132778Y0159499D01*
X0134083Y0237880D02*
X0133612Y0237898D01*
X0133155Y0238014D01*
X0132732Y0238222D01*
X0132362Y0238513D01*
X0132060Y0238875D01*
X0131840Y0239292D01*
X0131711Y0239746D01*
X0131680Y0240216D01*
X0131747Y0240683D01*
X0131910Y0241125D01*
X0132161Y0241524D01*
X0132489Y0241862D01*
X0132881Y0242125D01*
X0133319Y0242300D01*
X0133783Y0242380D01*
X0134214Y0242357D01*
X0134633Y0242251D01*
X0135022Y0242065D01*
X0135368Y0241807D01*
X0135657Y0241486D01*
X0135878Y0241114D01*
X0136022Y0240707D01*
X0136083Y0240280D01*
X0136080Y0239847D01*
X0135992Y0239423D01*
X0135824Y0239024D01*
X0135580Y0238666D01*
X0135272Y0238362D01*
X0134910Y0238124D01*
X0134509Y0237961D01*
X0134083Y0237880D01*
X0134209Y0237904D02*
X0133589Y0237904D01*
X0132375Y0238503D02*
X0135415Y0238503D01*
X0135856Y0239101D02*
X0131941Y0239101D01*
X0131724Y0239700D02*
X0136050Y0239700D01*
X0136081Y0240298D02*
X0131692Y0240298D01*
X0131826Y0240897D02*
X0135955Y0240897D01*
X0135648Y0241495D02*
X0132143Y0241495D01*
X0132835Y0242094D02*
X0134962Y0242094D01*
D29*
X0262633Y0277780D03*
X0267633Y0277780D03*
X0272633Y0277780D03*
X0277633Y0277780D03*
X0277633Y0303380D03*
X0272633Y0303380D03*
X0267633Y0303380D03*
X0262633Y0303380D03*
D30*
X0251383Y0294025D03*
X0251383Y0287135D03*
D31*
X0238139Y0126414D03*
X0235580Y0126414D03*
X0233021Y0126414D03*
X0230462Y0126414D03*
X0227903Y0126414D03*
D32*
X0221604Y0127497D03*
X0244438Y0127497D03*
D33*
X0236810Y0115883D03*
X0229231Y0115883D03*
D34*
X0225147Y0115996D02*
X0219635Y0115996D01*
X0219635Y0116394D02*
X0225147Y0116394D01*
X0225147Y0116793D02*
X0219635Y0116793D01*
X0219635Y0117191D02*
X0225147Y0117191D01*
X0225147Y0117590D02*
X0219635Y0117590D01*
X0219635Y0117989D02*
X0225147Y0117989D01*
X0225147Y0118387D02*
X0219635Y0118387D01*
X0219635Y0118786D02*
X0225147Y0118786D01*
X0225147Y0119184D02*
X0219635Y0119184D01*
X0219635Y0119583D02*
X0225147Y0119583D01*
X0225147Y0119981D02*
X0219635Y0119981D01*
X0219635Y0120380D02*
X0225147Y0120380D01*
X0225147Y0120778D02*
X0219635Y0120778D01*
X0219635Y0120804D02*
X0218060Y0120804D01*
X0218060Y0123954D01*
X0225147Y0123954D01*
X0225147Y0113717D01*
X0225156Y0113406D01*
X0225096Y0113100D01*
X0224969Y0112815D01*
X0224782Y0112566D01*
X0224544Y0112364D01*
X0224267Y0112221D01*
X0223966Y0112143D01*
X0221210Y0112143D01*
X0220859Y0112182D01*
X0220527Y0112299D01*
X0220228Y0112486D01*
X0219979Y0112735D01*
X0219791Y0113034D01*
X0219674Y0113367D01*
X0219635Y0113717D01*
X0219635Y0120804D01*
X0218060Y0121177D02*
X0225147Y0121177D01*
X0225147Y0121575D02*
X0218060Y0121575D01*
X0218060Y0121974D02*
X0225147Y0121974D01*
X0225147Y0122372D02*
X0218060Y0122372D01*
X0218060Y0122771D02*
X0225147Y0122771D01*
X0225147Y0123169D02*
X0218060Y0123169D01*
X0218060Y0123568D02*
X0225147Y0123568D01*
X0225147Y0115597D02*
X0219635Y0115597D01*
X0219635Y0115199D02*
X0225147Y0115199D01*
X0225147Y0114800D02*
X0219635Y0114800D01*
X0219635Y0114402D02*
X0225147Y0114402D01*
X0225147Y0114003D02*
X0219635Y0114003D01*
X0219648Y0113605D02*
X0225150Y0113605D01*
X0225117Y0113206D02*
X0219731Y0113206D01*
X0219933Y0112808D02*
X0224963Y0112808D01*
X0224597Y0112409D02*
X0220350Y0112409D01*
X0240895Y0113324D02*
X0240895Y0123954D01*
X0247981Y0123954D01*
X0247981Y0120804D01*
X0246800Y0120804D01*
X0246800Y0113324D01*
X0246722Y0113022D01*
X0246578Y0112745D01*
X0246377Y0112507D01*
X0246128Y0112320D01*
X0245843Y0112194D01*
X0245537Y0112133D01*
X0245226Y0112143D01*
X0242076Y0112143D01*
X0241813Y0112172D01*
X0241563Y0112260D01*
X0241340Y0112400D01*
X0241153Y0112587D01*
X0241012Y0112811D01*
X0240924Y0113061D01*
X0240895Y0113324D01*
X0240908Y0113206D02*
X0246770Y0113206D01*
X0246800Y0113605D02*
X0240895Y0113605D01*
X0240895Y0114003D02*
X0246800Y0114003D01*
X0246800Y0114402D02*
X0240895Y0114402D01*
X0240895Y0114800D02*
X0246800Y0114800D01*
X0246800Y0115199D02*
X0240895Y0115199D01*
X0240895Y0115597D02*
X0246800Y0115597D01*
X0246800Y0115996D02*
X0240895Y0115996D01*
X0240895Y0116394D02*
X0246800Y0116394D01*
X0246800Y0116793D02*
X0240895Y0116793D01*
X0240895Y0117191D02*
X0246800Y0117191D01*
X0246800Y0117590D02*
X0240895Y0117590D01*
X0240895Y0117989D02*
X0246800Y0117989D01*
X0246800Y0118387D02*
X0240895Y0118387D01*
X0240895Y0118786D02*
X0246800Y0118786D01*
X0246800Y0119184D02*
X0240895Y0119184D01*
X0240895Y0119583D02*
X0246800Y0119583D01*
X0246800Y0119981D02*
X0240895Y0119981D01*
X0240895Y0120380D02*
X0246800Y0120380D01*
X0246800Y0120778D02*
X0240895Y0120778D01*
X0240895Y0121177D02*
X0247981Y0121177D01*
X0247981Y0121575D02*
X0240895Y0121575D01*
X0240895Y0121974D02*
X0247981Y0121974D01*
X0247981Y0122372D02*
X0240895Y0122372D01*
X0240895Y0122771D02*
X0247981Y0122771D01*
X0247981Y0123169D02*
X0240895Y0123169D01*
X0240895Y0123568D02*
X0247981Y0123568D01*
X0246611Y0112808D02*
X0241014Y0112808D01*
X0241330Y0112409D02*
X0246246Y0112409D01*
D35*
X0144828Y0358080D03*
X0137938Y0358080D03*
X0137938Y0365580D03*
X0144828Y0365580D03*
X0144828Y0373080D03*
X0137938Y0373080D03*
X0372938Y0418080D03*
X0379828Y0418080D03*
X0379828Y0429330D03*
X0372938Y0429330D03*
D36*
X0170143Y0360767D03*
X0170143Y0358799D03*
X0170143Y0356830D03*
X0170143Y0354862D03*
X0170143Y0352893D03*
X0157623Y0352893D03*
X0157623Y0354862D03*
X0157623Y0356830D03*
X0157623Y0358799D03*
X0157623Y0360767D03*
D37*
X0161915Y0363090D03*
X0163883Y0363090D03*
X0165852Y0363090D03*
X0165852Y0350570D03*
X0163883Y0350570D03*
X0161915Y0350570D03*
D38*
X0337712Y0425580D03*
X0347555Y0425580D03*
D39*
X0347633Y0434271D03*
X0347633Y0439389D03*
X0337633Y0439389D03*
X0337633Y0434271D03*
D40*
X0283883Y0151830D03*
D41*
X0242664Y0127212D03*
X0223365Y0127395D03*
D42*
X0222183Y0115240D03*
X0243625Y0115372D03*
M02*
