G75*
%MOIN*%
%OFA0B0*%
%FSLAX25Y25*%
%IPPOS*%
%LPD*%
%AMOC8*
5,1,8,0,0,1.08239X$1,22.5*
%
%ADD10C,0.00000*%
%ADD11C,0.00600*%
%ADD12C,0.00300*%
%ADD13C,0.00800*%
%ADD14C,0.00500*%
%ADD15R,0.03400X0.01600*%
%ADD16C,0.00400*%
%ADD17R,0.01600X0.03400*%
%ADD18R,0.01800X0.02300*%
%ADD19R,0.02000X0.02000*%
%ADD20C,0.02362*%
%ADD21R,0.01400X0.05157*%
%ADD22R,0.03150X0.01378*%
%ADD23C,0.00200*%
%ADD24R,0.01378X0.03150*%
%ADD25C,0.00700*%
%ADD26R,0.00984X0.01841*%
%ADD27R,0.00982X0.01846*%
%ADD28R,0.00988X0.01847*%
%ADD29R,0.00985X0.01832*%
%ADD30R,0.00983X0.01837*%
%ADD31R,0.00986X0.01836*%
%ADD32R,0.01844X0.00985*%
%ADD33R,0.01842X0.00983*%
%ADD34R,0.01842X0.00982*%
%ADD35R,0.01847X0.00988*%
%ADD36R,0.01847X0.00991*%
%ADD37R,0.01832X0.00985*%
%ADD38R,0.01832X0.00981*%
%ADD39R,0.01838X0.00983*%
%ADD40R,0.01832X0.00989*%
%ADD41R,0.01836X0.00987*%
%ADD42C,0.00100*%
%ADD43R,0.02362X0.01181*%
D10*
X0077633Y0106830D02*
X0077633Y0476909D01*
X0388657Y0476909D01*
X0388657Y0106830D01*
X0077633Y0106830D01*
X0091216Y0130452D02*
X0091218Y0130608D01*
X0091224Y0130764D01*
X0091234Y0130919D01*
X0091248Y0131074D01*
X0091266Y0131229D01*
X0091288Y0131383D01*
X0091313Y0131537D01*
X0091343Y0131690D01*
X0091377Y0131842D01*
X0091414Y0131994D01*
X0091455Y0132144D01*
X0091500Y0132293D01*
X0091549Y0132441D01*
X0091602Y0132588D01*
X0091658Y0132733D01*
X0091718Y0132877D01*
X0091782Y0133019D01*
X0091850Y0133160D01*
X0091921Y0133298D01*
X0091995Y0133435D01*
X0092073Y0133570D01*
X0092154Y0133703D01*
X0092239Y0133834D01*
X0092327Y0133963D01*
X0092418Y0134089D01*
X0092513Y0134213D01*
X0092610Y0134334D01*
X0092711Y0134453D01*
X0092815Y0134570D01*
X0092921Y0134683D01*
X0093031Y0134794D01*
X0093143Y0134902D01*
X0093258Y0135007D01*
X0093376Y0135110D01*
X0093496Y0135209D01*
X0093619Y0135305D01*
X0093744Y0135398D01*
X0093871Y0135487D01*
X0094001Y0135574D01*
X0094133Y0135657D01*
X0094267Y0135736D01*
X0094403Y0135813D01*
X0094541Y0135885D01*
X0094680Y0135955D01*
X0094822Y0136020D01*
X0094965Y0136082D01*
X0095109Y0136140D01*
X0095255Y0136195D01*
X0095403Y0136246D01*
X0095551Y0136293D01*
X0095701Y0136336D01*
X0095852Y0136375D01*
X0096004Y0136411D01*
X0096156Y0136442D01*
X0096310Y0136470D01*
X0096464Y0136494D01*
X0096618Y0136514D01*
X0096773Y0136530D01*
X0096929Y0136542D01*
X0097084Y0136550D01*
X0097240Y0136554D01*
X0097396Y0136554D01*
X0097552Y0136550D01*
X0097707Y0136542D01*
X0097863Y0136530D01*
X0098018Y0136514D01*
X0098172Y0136494D01*
X0098326Y0136470D01*
X0098480Y0136442D01*
X0098632Y0136411D01*
X0098784Y0136375D01*
X0098935Y0136336D01*
X0099085Y0136293D01*
X0099233Y0136246D01*
X0099381Y0136195D01*
X0099527Y0136140D01*
X0099671Y0136082D01*
X0099814Y0136020D01*
X0099956Y0135955D01*
X0100095Y0135885D01*
X0100233Y0135813D01*
X0100369Y0135736D01*
X0100503Y0135657D01*
X0100635Y0135574D01*
X0100765Y0135487D01*
X0100892Y0135398D01*
X0101017Y0135305D01*
X0101140Y0135209D01*
X0101260Y0135110D01*
X0101378Y0135007D01*
X0101493Y0134902D01*
X0101605Y0134794D01*
X0101715Y0134683D01*
X0101821Y0134570D01*
X0101925Y0134453D01*
X0102026Y0134334D01*
X0102123Y0134213D01*
X0102218Y0134089D01*
X0102309Y0133963D01*
X0102397Y0133834D01*
X0102482Y0133703D01*
X0102563Y0133570D01*
X0102641Y0133435D01*
X0102715Y0133298D01*
X0102786Y0133160D01*
X0102854Y0133019D01*
X0102918Y0132877D01*
X0102978Y0132733D01*
X0103034Y0132588D01*
X0103087Y0132441D01*
X0103136Y0132293D01*
X0103181Y0132144D01*
X0103222Y0131994D01*
X0103259Y0131842D01*
X0103293Y0131690D01*
X0103323Y0131537D01*
X0103348Y0131383D01*
X0103370Y0131229D01*
X0103388Y0131074D01*
X0103402Y0130919D01*
X0103412Y0130764D01*
X0103418Y0130608D01*
X0103420Y0130452D01*
X0103418Y0130296D01*
X0103412Y0130140D01*
X0103402Y0129985D01*
X0103388Y0129830D01*
X0103370Y0129675D01*
X0103348Y0129521D01*
X0103323Y0129367D01*
X0103293Y0129214D01*
X0103259Y0129062D01*
X0103222Y0128910D01*
X0103181Y0128760D01*
X0103136Y0128611D01*
X0103087Y0128463D01*
X0103034Y0128316D01*
X0102978Y0128171D01*
X0102918Y0128027D01*
X0102854Y0127885D01*
X0102786Y0127744D01*
X0102715Y0127606D01*
X0102641Y0127469D01*
X0102563Y0127334D01*
X0102482Y0127201D01*
X0102397Y0127070D01*
X0102309Y0126941D01*
X0102218Y0126815D01*
X0102123Y0126691D01*
X0102026Y0126570D01*
X0101925Y0126451D01*
X0101821Y0126334D01*
X0101715Y0126221D01*
X0101605Y0126110D01*
X0101493Y0126002D01*
X0101378Y0125897D01*
X0101260Y0125794D01*
X0101140Y0125695D01*
X0101017Y0125599D01*
X0100892Y0125506D01*
X0100765Y0125417D01*
X0100635Y0125330D01*
X0100503Y0125247D01*
X0100369Y0125168D01*
X0100233Y0125091D01*
X0100095Y0125019D01*
X0099956Y0124949D01*
X0099814Y0124884D01*
X0099671Y0124822D01*
X0099527Y0124764D01*
X0099381Y0124709D01*
X0099233Y0124658D01*
X0099085Y0124611D01*
X0098935Y0124568D01*
X0098784Y0124529D01*
X0098632Y0124493D01*
X0098480Y0124462D01*
X0098326Y0124434D01*
X0098172Y0124410D01*
X0098018Y0124390D01*
X0097863Y0124374D01*
X0097707Y0124362D01*
X0097552Y0124354D01*
X0097396Y0124350D01*
X0097240Y0124350D01*
X0097084Y0124354D01*
X0096929Y0124362D01*
X0096773Y0124374D01*
X0096618Y0124390D01*
X0096464Y0124410D01*
X0096310Y0124434D01*
X0096156Y0124462D01*
X0096004Y0124493D01*
X0095852Y0124529D01*
X0095701Y0124568D01*
X0095551Y0124611D01*
X0095403Y0124658D01*
X0095255Y0124709D01*
X0095109Y0124764D01*
X0094965Y0124822D01*
X0094822Y0124884D01*
X0094680Y0124949D01*
X0094541Y0125019D01*
X0094403Y0125091D01*
X0094267Y0125168D01*
X0094133Y0125247D01*
X0094001Y0125330D01*
X0093871Y0125417D01*
X0093744Y0125506D01*
X0093619Y0125599D01*
X0093496Y0125695D01*
X0093376Y0125794D01*
X0093258Y0125897D01*
X0093143Y0126002D01*
X0093031Y0126110D01*
X0092921Y0126221D01*
X0092815Y0126334D01*
X0092711Y0126451D01*
X0092610Y0126570D01*
X0092513Y0126691D01*
X0092418Y0126815D01*
X0092327Y0126941D01*
X0092239Y0127070D01*
X0092154Y0127201D01*
X0092073Y0127334D01*
X0091995Y0127469D01*
X0091921Y0127606D01*
X0091850Y0127744D01*
X0091782Y0127885D01*
X0091718Y0128027D01*
X0091658Y0128171D01*
X0091602Y0128316D01*
X0091549Y0128463D01*
X0091500Y0128611D01*
X0091455Y0128760D01*
X0091414Y0128910D01*
X0091377Y0129062D01*
X0091343Y0129214D01*
X0091313Y0129367D01*
X0091288Y0129521D01*
X0091266Y0129675D01*
X0091248Y0129830D01*
X0091234Y0129985D01*
X0091224Y0130140D01*
X0091218Y0130296D01*
X0091216Y0130452D01*
X0362870Y0130452D02*
X0362872Y0130608D01*
X0362878Y0130764D01*
X0362888Y0130919D01*
X0362902Y0131074D01*
X0362920Y0131229D01*
X0362942Y0131383D01*
X0362967Y0131537D01*
X0362997Y0131690D01*
X0363031Y0131842D01*
X0363068Y0131994D01*
X0363109Y0132144D01*
X0363154Y0132293D01*
X0363203Y0132441D01*
X0363256Y0132588D01*
X0363312Y0132733D01*
X0363372Y0132877D01*
X0363436Y0133019D01*
X0363504Y0133160D01*
X0363575Y0133298D01*
X0363649Y0133435D01*
X0363727Y0133570D01*
X0363808Y0133703D01*
X0363893Y0133834D01*
X0363981Y0133963D01*
X0364072Y0134089D01*
X0364167Y0134213D01*
X0364264Y0134334D01*
X0364365Y0134453D01*
X0364469Y0134570D01*
X0364575Y0134683D01*
X0364685Y0134794D01*
X0364797Y0134902D01*
X0364912Y0135007D01*
X0365030Y0135110D01*
X0365150Y0135209D01*
X0365273Y0135305D01*
X0365398Y0135398D01*
X0365525Y0135487D01*
X0365655Y0135574D01*
X0365787Y0135657D01*
X0365921Y0135736D01*
X0366057Y0135813D01*
X0366195Y0135885D01*
X0366334Y0135955D01*
X0366476Y0136020D01*
X0366619Y0136082D01*
X0366763Y0136140D01*
X0366909Y0136195D01*
X0367057Y0136246D01*
X0367205Y0136293D01*
X0367355Y0136336D01*
X0367506Y0136375D01*
X0367658Y0136411D01*
X0367810Y0136442D01*
X0367964Y0136470D01*
X0368118Y0136494D01*
X0368272Y0136514D01*
X0368427Y0136530D01*
X0368583Y0136542D01*
X0368738Y0136550D01*
X0368894Y0136554D01*
X0369050Y0136554D01*
X0369206Y0136550D01*
X0369361Y0136542D01*
X0369517Y0136530D01*
X0369672Y0136514D01*
X0369826Y0136494D01*
X0369980Y0136470D01*
X0370134Y0136442D01*
X0370286Y0136411D01*
X0370438Y0136375D01*
X0370589Y0136336D01*
X0370739Y0136293D01*
X0370887Y0136246D01*
X0371035Y0136195D01*
X0371181Y0136140D01*
X0371325Y0136082D01*
X0371468Y0136020D01*
X0371610Y0135955D01*
X0371749Y0135885D01*
X0371887Y0135813D01*
X0372023Y0135736D01*
X0372157Y0135657D01*
X0372289Y0135574D01*
X0372419Y0135487D01*
X0372546Y0135398D01*
X0372671Y0135305D01*
X0372794Y0135209D01*
X0372914Y0135110D01*
X0373032Y0135007D01*
X0373147Y0134902D01*
X0373259Y0134794D01*
X0373369Y0134683D01*
X0373475Y0134570D01*
X0373579Y0134453D01*
X0373680Y0134334D01*
X0373777Y0134213D01*
X0373872Y0134089D01*
X0373963Y0133963D01*
X0374051Y0133834D01*
X0374136Y0133703D01*
X0374217Y0133570D01*
X0374295Y0133435D01*
X0374369Y0133298D01*
X0374440Y0133160D01*
X0374508Y0133019D01*
X0374572Y0132877D01*
X0374632Y0132733D01*
X0374688Y0132588D01*
X0374741Y0132441D01*
X0374790Y0132293D01*
X0374835Y0132144D01*
X0374876Y0131994D01*
X0374913Y0131842D01*
X0374947Y0131690D01*
X0374977Y0131537D01*
X0375002Y0131383D01*
X0375024Y0131229D01*
X0375042Y0131074D01*
X0375056Y0130919D01*
X0375066Y0130764D01*
X0375072Y0130608D01*
X0375074Y0130452D01*
X0375072Y0130296D01*
X0375066Y0130140D01*
X0375056Y0129985D01*
X0375042Y0129830D01*
X0375024Y0129675D01*
X0375002Y0129521D01*
X0374977Y0129367D01*
X0374947Y0129214D01*
X0374913Y0129062D01*
X0374876Y0128910D01*
X0374835Y0128760D01*
X0374790Y0128611D01*
X0374741Y0128463D01*
X0374688Y0128316D01*
X0374632Y0128171D01*
X0374572Y0128027D01*
X0374508Y0127885D01*
X0374440Y0127744D01*
X0374369Y0127606D01*
X0374295Y0127469D01*
X0374217Y0127334D01*
X0374136Y0127201D01*
X0374051Y0127070D01*
X0373963Y0126941D01*
X0373872Y0126815D01*
X0373777Y0126691D01*
X0373680Y0126570D01*
X0373579Y0126451D01*
X0373475Y0126334D01*
X0373369Y0126221D01*
X0373259Y0126110D01*
X0373147Y0126002D01*
X0373032Y0125897D01*
X0372914Y0125794D01*
X0372794Y0125695D01*
X0372671Y0125599D01*
X0372546Y0125506D01*
X0372419Y0125417D01*
X0372289Y0125330D01*
X0372157Y0125247D01*
X0372023Y0125168D01*
X0371887Y0125091D01*
X0371749Y0125019D01*
X0371610Y0124949D01*
X0371468Y0124884D01*
X0371325Y0124822D01*
X0371181Y0124764D01*
X0371035Y0124709D01*
X0370887Y0124658D01*
X0370739Y0124611D01*
X0370589Y0124568D01*
X0370438Y0124529D01*
X0370286Y0124493D01*
X0370134Y0124462D01*
X0369980Y0124434D01*
X0369826Y0124410D01*
X0369672Y0124390D01*
X0369517Y0124374D01*
X0369361Y0124362D01*
X0369206Y0124354D01*
X0369050Y0124350D01*
X0368894Y0124350D01*
X0368738Y0124354D01*
X0368583Y0124362D01*
X0368427Y0124374D01*
X0368272Y0124390D01*
X0368118Y0124410D01*
X0367964Y0124434D01*
X0367810Y0124462D01*
X0367658Y0124493D01*
X0367506Y0124529D01*
X0367355Y0124568D01*
X0367205Y0124611D01*
X0367057Y0124658D01*
X0366909Y0124709D01*
X0366763Y0124764D01*
X0366619Y0124822D01*
X0366476Y0124884D01*
X0366334Y0124949D01*
X0366195Y0125019D01*
X0366057Y0125091D01*
X0365921Y0125168D01*
X0365787Y0125247D01*
X0365655Y0125330D01*
X0365525Y0125417D01*
X0365398Y0125506D01*
X0365273Y0125599D01*
X0365150Y0125695D01*
X0365030Y0125794D01*
X0364912Y0125897D01*
X0364797Y0126002D01*
X0364685Y0126110D01*
X0364575Y0126221D01*
X0364469Y0126334D01*
X0364365Y0126451D01*
X0364264Y0126570D01*
X0364167Y0126691D01*
X0364072Y0126815D01*
X0363981Y0126941D01*
X0363893Y0127070D01*
X0363808Y0127201D01*
X0363727Y0127334D01*
X0363649Y0127469D01*
X0363575Y0127606D01*
X0363504Y0127744D01*
X0363436Y0127885D01*
X0363372Y0128027D01*
X0363312Y0128171D01*
X0363256Y0128316D01*
X0363203Y0128463D01*
X0363154Y0128611D01*
X0363109Y0128760D01*
X0363068Y0128910D01*
X0363031Y0129062D01*
X0362997Y0129214D01*
X0362967Y0129367D01*
X0362942Y0129521D01*
X0362920Y0129675D01*
X0362902Y0129830D01*
X0362888Y0129985D01*
X0362878Y0130140D01*
X0362872Y0130296D01*
X0362870Y0130452D01*
X0362870Y0453287D02*
X0362872Y0453443D01*
X0362878Y0453599D01*
X0362888Y0453754D01*
X0362902Y0453909D01*
X0362920Y0454064D01*
X0362942Y0454218D01*
X0362967Y0454372D01*
X0362997Y0454525D01*
X0363031Y0454677D01*
X0363068Y0454829D01*
X0363109Y0454979D01*
X0363154Y0455128D01*
X0363203Y0455276D01*
X0363256Y0455423D01*
X0363312Y0455568D01*
X0363372Y0455712D01*
X0363436Y0455854D01*
X0363504Y0455995D01*
X0363575Y0456133D01*
X0363649Y0456270D01*
X0363727Y0456405D01*
X0363808Y0456538D01*
X0363893Y0456669D01*
X0363981Y0456798D01*
X0364072Y0456924D01*
X0364167Y0457048D01*
X0364264Y0457169D01*
X0364365Y0457288D01*
X0364469Y0457405D01*
X0364575Y0457518D01*
X0364685Y0457629D01*
X0364797Y0457737D01*
X0364912Y0457842D01*
X0365030Y0457945D01*
X0365150Y0458044D01*
X0365273Y0458140D01*
X0365398Y0458233D01*
X0365525Y0458322D01*
X0365655Y0458409D01*
X0365787Y0458492D01*
X0365921Y0458571D01*
X0366057Y0458648D01*
X0366195Y0458720D01*
X0366334Y0458790D01*
X0366476Y0458855D01*
X0366619Y0458917D01*
X0366763Y0458975D01*
X0366909Y0459030D01*
X0367057Y0459081D01*
X0367205Y0459128D01*
X0367355Y0459171D01*
X0367506Y0459210D01*
X0367658Y0459246D01*
X0367810Y0459277D01*
X0367964Y0459305D01*
X0368118Y0459329D01*
X0368272Y0459349D01*
X0368427Y0459365D01*
X0368583Y0459377D01*
X0368738Y0459385D01*
X0368894Y0459389D01*
X0369050Y0459389D01*
X0369206Y0459385D01*
X0369361Y0459377D01*
X0369517Y0459365D01*
X0369672Y0459349D01*
X0369826Y0459329D01*
X0369980Y0459305D01*
X0370134Y0459277D01*
X0370286Y0459246D01*
X0370438Y0459210D01*
X0370589Y0459171D01*
X0370739Y0459128D01*
X0370887Y0459081D01*
X0371035Y0459030D01*
X0371181Y0458975D01*
X0371325Y0458917D01*
X0371468Y0458855D01*
X0371610Y0458790D01*
X0371749Y0458720D01*
X0371887Y0458648D01*
X0372023Y0458571D01*
X0372157Y0458492D01*
X0372289Y0458409D01*
X0372419Y0458322D01*
X0372546Y0458233D01*
X0372671Y0458140D01*
X0372794Y0458044D01*
X0372914Y0457945D01*
X0373032Y0457842D01*
X0373147Y0457737D01*
X0373259Y0457629D01*
X0373369Y0457518D01*
X0373475Y0457405D01*
X0373579Y0457288D01*
X0373680Y0457169D01*
X0373777Y0457048D01*
X0373872Y0456924D01*
X0373963Y0456798D01*
X0374051Y0456669D01*
X0374136Y0456538D01*
X0374217Y0456405D01*
X0374295Y0456270D01*
X0374369Y0456133D01*
X0374440Y0455995D01*
X0374508Y0455854D01*
X0374572Y0455712D01*
X0374632Y0455568D01*
X0374688Y0455423D01*
X0374741Y0455276D01*
X0374790Y0455128D01*
X0374835Y0454979D01*
X0374876Y0454829D01*
X0374913Y0454677D01*
X0374947Y0454525D01*
X0374977Y0454372D01*
X0375002Y0454218D01*
X0375024Y0454064D01*
X0375042Y0453909D01*
X0375056Y0453754D01*
X0375066Y0453599D01*
X0375072Y0453443D01*
X0375074Y0453287D01*
X0375072Y0453131D01*
X0375066Y0452975D01*
X0375056Y0452820D01*
X0375042Y0452665D01*
X0375024Y0452510D01*
X0375002Y0452356D01*
X0374977Y0452202D01*
X0374947Y0452049D01*
X0374913Y0451897D01*
X0374876Y0451745D01*
X0374835Y0451595D01*
X0374790Y0451446D01*
X0374741Y0451298D01*
X0374688Y0451151D01*
X0374632Y0451006D01*
X0374572Y0450862D01*
X0374508Y0450720D01*
X0374440Y0450579D01*
X0374369Y0450441D01*
X0374295Y0450304D01*
X0374217Y0450169D01*
X0374136Y0450036D01*
X0374051Y0449905D01*
X0373963Y0449776D01*
X0373872Y0449650D01*
X0373777Y0449526D01*
X0373680Y0449405D01*
X0373579Y0449286D01*
X0373475Y0449169D01*
X0373369Y0449056D01*
X0373259Y0448945D01*
X0373147Y0448837D01*
X0373032Y0448732D01*
X0372914Y0448629D01*
X0372794Y0448530D01*
X0372671Y0448434D01*
X0372546Y0448341D01*
X0372419Y0448252D01*
X0372289Y0448165D01*
X0372157Y0448082D01*
X0372023Y0448003D01*
X0371887Y0447926D01*
X0371749Y0447854D01*
X0371610Y0447784D01*
X0371468Y0447719D01*
X0371325Y0447657D01*
X0371181Y0447599D01*
X0371035Y0447544D01*
X0370887Y0447493D01*
X0370739Y0447446D01*
X0370589Y0447403D01*
X0370438Y0447364D01*
X0370286Y0447328D01*
X0370134Y0447297D01*
X0369980Y0447269D01*
X0369826Y0447245D01*
X0369672Y0447225D01*
X0369517Y0447209D01*
X0369361Y0447197D01*
X0369206Y0447189D01*
X0369050Y0447185D01*
X0368894Y0447185D01*
X0368738Y0447189D01*
X0368583Y0447197D01*
X0368427Y0447209D01*
X0368272Y0447225D01*
X0368118Y0447245D01*
X0367964Y0447269D01*
X0367810Y0447297D01*
X0367658Y0447328D01*
X0367506Y0447364D01*
X0367355Y0447403D01*
X0367205Y0447446D01*
X0367057Y0447493D01*
X0366909Y0447544D01*
X0366763Y0447599D01*
X0366619Y0447657D01*
X0366476Y0447719D01*
X0366334Y0447784D01*
X0366195Y0447854D01*
X0366057Y0447926D01*
X0365921Y0448003D01*
X0365787Y0448082D01*
X0365655Y0448165D01*
X0365525Y0448252D01*
X0365398Y0448341D01*
X0365273Y0448434D01*
X0365150Y0448530D01*
X0365030Y0448629D01*
X0364912Y0448732D01*
X0364797Y0448837D01*
X0364685Y0448945D01*
X0364575Y0449056D01*
X0364469Y0449169D01*
X0364365Y0449286D01*
X0364264Y0449405D01*
X0364167Y0449526D01*
X0364072Y0449650D01*
X0363981Y0449776D01*
X0363893Y0449905D01*
X0363808Y0450036D01*
X0363727Y0450169D01*
X0363649Y0450304D01*
X0363575Y0450441D01*
X0363504Y0450579D01*
X0363436Y0450720D01*
X0363372Y0450862D01*
X0363312Y0451006D01*
X0363256Y0451151D01*
X0363203Y0451298D01*
X0363154Y0451446D01*
X0363109Y0451595D01*
X0363068Y0451745D01*
X0363031Y0451897D01*
X0362997Y0452049D01*
X0362967Y0452202D01*
X0362942Y0452356D01*
X0362920Y0452510D01*
X0362902Y0452665D01*
X0362888Y0452820D01*
X0362878Y0452975D01*
X0362872Y0453131D01*
X0362870Y0453287D01*
X0091216Y0453287D02*
X0091218Y0453443D01*
X0091224Y0453599D01*
X0091234Y0453754D01*
X0091248Y0453909D01*
X0091266Y0454064D01*
X0091288Y0454218D01*
X0091313Y0454372D01*
X0091343Y0454525D01*
X0091377Y0454677D01*
X0091414Y0454829D01*
X0091455Y0454979D01*
X0091500Y0455128D01*
X0091549Y0455276D01*
X0091602Y0455423D01*
X0091658Y0455568D01*
X0091718Y0455712D01*
X0091782Y0455854D01*
X0091850Y0455995D01*
X0091921Y0456133D01*
X0091995Y0456270D01*
X0092073Y0456405D01*
X0092154Y0456538D01*
X0092239Y0456669D01*
X0092327Y0456798D01*
X0092418Y0456924D01*
X0092513Y0457048D01*
X0092610Y0457169D01*
X0092711Y0457288D01*
X0092815Y0457405D01*
X0092921Y0457518D01*
X0093031Y0457629D01*
X0093143Y0457737D01*
X0093258Y0457842D01*
X0093376Y0457945D01*
X0093496Y0458044D01*
X0093619Y0458140D01*
X0093744Y0458233D01*
X0093871Y0458322D01*
X0094001Y0458409D01*
X0094133Y0458492D01*
X0094267Y0458571D01*
X0094403Y0458648D01*
X0094541Y0458720D01*
X0094680Y0458790D01*
X0094822Y0458855D01*
X0094965Y0458917D01*
X0095109Y0458975D01*
X0095255Y0459030D01*
X0095403Y0459081D01*
X0095551Y0459128D01*
X0095701Y0459171D01*
X0095852Y0459210D01*
X0096004Y0459246D01*
X0096156Y0459277D01*
X0096310Y0459305D01*
X0096464Y0459329D01*
X0096618Y0459349D01*
X0096773Y0459365D01*
X0096929Y0459377D01*
X0097084Y0459385D01*
X0097240Y0459389D01*
X0097396Y0459389D01*
X0097552Y0459385D01*
X0097707Y0459377D01*
X0097863Y0459365D01*
X0098018Y0459349D01*
X0098172Y0459329D01*
X0098326Y0459305D01*
X0098480Y0459277D01*
X0098632Y0459246D01*
X0098784Y0459210D01*
X0098935Y0459171D01*
X0099085Y0459128D01*
X0099233Y0459081D01*
X0099381Y0459030D01*
X0099527Y0458975D01*
X0099671Y0458917D01*
X0099814Y0458855D01*
X0099956Y0458790D01*
X0100095Y0458720D01*
X0100233Y0458648D01*
X0100369Y0458571D01*
X0100503Y0458492D01*
X0100635Y0458409D01*
X0100765Y0458322D01*
X0100892Y0458233D01*
X0101017Y0458140D01*
X0101140Y0458044D01*
X0101260Y0457945D01*
X0101378Y0457842D01*
X0101493Y0457737D01*
X0101605Y0457629D01*
X0101715Y0457518D01*
X0101821Y0457405D01*
X0101925Y0457288D01*
X0102026Y0457169D01*
X0102123Y0457048D01*
X0102218Y0456924D01*
X0102309Y0456798D01*
X0102397Y0456669D01*
X0102482Y0456538D01*
X0102563Y0456405D01*
X0102641Y0456270D01*
X0102715Y0456133D01*
X0102786Y0455995D01*
X0102854Y0455854D01*
X0102918Y0455712D01*
X0102978Y0455568D01*
X0103034Y0455423D01*
X0103087Y0455276D01*
X0103136Y0455128D01*
X0103181Y0454979D01*
X0103222Y0454829D01*
X0103259Y0454677D01*
X0103293Y0454525D01*
X0103323Y0454372D01*
X0103348Y0454218D01*
X0103370Y0454064D01*
X0103388Y0453909D01*
X0103402Y0453754D01*
X0103412Y0453599D01*
X0103418Y0453443D01*
X0103420Y0453287D01*
X0103418Y0453131D01*
X0103412Y0452975D01*
X0103402Y0452820D01*
X0103388Y0452665D01*
X0103370Y0452510D01*
X0103348Y0452356D01*
X0103323Y0452202D01*
X0103293Y0452049D01*
X0103259Y0451897D01*
X0103222Y0451745D01*
X0103181Y0451595D01*
X0103136Y0451446D01*
X0103087Y0451298D01*
X0103034Y0451151D01*
X0102978Y0451006D01*
X0102918Y0450862D01*
X0102854Y0450720D01*
X0102786Y0450579D01*
X0102715Y0450441D01*
X0102641Y0450304D01*
X0102563Y0450169D01*
X0102482Y0450036D01*
X0102397Y0449905D01*
X0102309Y0449776D01*
X0102218Y0449650D01*
X0102123Y0449526D01*
X0102026Y0449405D01*
X0101925Y0449286D01*
X0101821Y0449169D01*
X0101715Y0449056D01*
X0101605Y0448945D01*
X0101493Y0448837D01*
X0101378Y0448732D01*
X0101260Y0448629D01*
X0101140Y0448530D01*
X0101017Y0448434D01*
X0100892Y0448341D01*
X0100765Y0448252D01*
X0100635Y0448165D01*
X0100503Y0448082D01*
X0100369Y0448003D01*
X0100233Y0447926D01*
X0100095Y0447854D01*
X0099956Y0447784D01*
X0099814Y0447719D01*
X0099671Y0447657D01*
X0099527Y0447599D01*
X0099381Y0447544D01*
X0099233Y0447493D01*
X0099085Y0447446D01*
X0098935Y0447403D01*
X0098784Y0447364D01*
X0098632Y0447328D01*
X0098480Y0447297D01*
X0098326Y0447269D01*
X0098172Y0447245D01*
X0098018Y0447225D01*
X0097863Y0447209D01*
X0097707Y0447197D01*
X0097552Y0447189D01*
X0097396Y0447185D01*
X0097240Y0447185D01*
X0097084Y0447189D01*
X0096929Y0447197D01*
X0096773Y0447209D01*
X0096618Y0447225D01*
X0096464Y0447245D01*
X0096310Y0447269D01*
X0096156Y0447297D01*
X0096004Y0447328D01*
X0095852Y0447364D01*
X0095701Y0447403D01*
X0095551Y0447446D01*
X0095403Y0447493D01*
X0095255Y0447544D01*
X0095109Y0447599D01*
X0094965Y0447657D01*
X0094822Y0447719D01*
X0094680Y0447784D01*
X0094541Y0447854D01*
X0094403Y0447926D01*
X0094267Y0448003D01*
X0094133Y0448082D01*
X0094001Y0448165D01*
X0093871Y0448252D01*
X0093744Y0448341D01*
X0093619Y0448434D01*
X0093496Y0448530D01*
X0093376Y0448629D01*
X0093258Y0448732D01*
X0093143Y0448837D01*
X0093031Y0448945D01*
X0092921Y0449056D01*
X0092815Y0449169D01*
X0092711Y0449286D01*
X0092610Y0449405D01*
X0092513Y0449526D01*
X0092418Y0449650D01*
X0092327Y0449776D01*
X0092239Y0449905D01*
X0092154Y0450036D01*
X0092073Y0450169D01*
X0091995Y0450304D01*
X0091921Y0450441D01*
X0091850Y0450579D01*
X0091782Y0450720D01*
X0091718Y0450862D01*
X0091658Y0451006D01*
X0091602Y0451151D01*
X0091549Y0451298D01*
X0091500Y0451446D01*
X0091455Y0451595D01*
X0091414Y0451745D01*
X0091377Y0451897D01*
X0091343Y0452049D01*
X0091313Y0452202D01*
X0091288Y0452356D01*
X0091266Y0452510D01*
X0091248Y0452665D01*
X0091234Y0452820D01*
X0091224Y0452975D01*
X0091218Y0453131D01*
X0091216Y0453287D01*
D11*
X0092204Y0427286D02*
X0087933Y0420880D01*
X0092204Y0420880D02*
X0087933Y0427286D01*
X0106683Y0427286D02*
X0110954Y0427286D01*
X0110954Y0426218D01*
X0106683Y0421948D01*
X0106683Y0420880D01*
X0110954Y0420880D01*
X0110954Y0407286D02*
X0110954Y0406218D01*
X0108818Y0404083D01*
X0108818Y0400880D01*
X0108818Y0404083D02*
X0106683Y0406218D01*
X0106683Y0407286D01*
X0112933Y0434630D02*
X0117204Y0434630D01*
X0115068Y0434630D02*
X0115068Y0441036D01*
X0112933Y0438901D01*
X0119379Y0439968D02*
X0120446Y0441036D01*
X0122582Y0441036D01*
X0123649Y0439968D01*
X0123649Y0438901D01*
X0119379Y0434630D01*
X0123649Y0434630D01*
X0125824Y0434630D02*
X0130095Y0441036D01*
X0132270Y0439968D02*
X0133337Y0441036D01*
X0135473Y0441036D01*
X0136540Y0439968D01*
X0136540Y0438901D01*
X0132270Y0434630D01*
X0136540Y0434630D01*
X0138715Y0435698D02*
X0138715Y0439968D01*
X0139783Y0441036D01*
X0141918Y0441036D01*
X0142986Y0439968D01*
X0138715Y0435698D01*
X0139783Y0434630D01*
X0141918Y0434630D01*
X0142986Y0435698D01*
X0142986Y0439968D01*
X0145161Y0438901D02*
X0147296Y0441036D01*
X0147296Y0434630D01*
X0145161Y0434630D02*
X0149431Y0434630D01*
X0151606Y0435698D02*
X0151606Y0436765D01*
X0152674Y0437833D01*
X0154809Y0437833D01*
X0155877Y0436765D01*
X0155877Y0435698D01*
X0154809Y0434630D01*
X0152674Y0434630D01*
X0151606Y0435698D01*
X0152674Y0437833D02*
X0151606Y0438901D01*
X0151606Y0439968D01*
X0152674Y0441036D01*
X0154809Y0441036D01*
X0155877Y0439968D01*
X0155877Y0438901D01*
X0154809Y0437833D01*
X0155897Y0445880D02*
X0154829Y0446948D01*
X0154829Y0449083D01*
X0155897Y0450151D01*
X0158032Y0450151D01*
X0159099Y0449083D01*
X0159099Y0448015D01*
X0154829Y0448015D01*
X0155897Y0445880D02*
X0158032Y0445880D01*
X0161275Y0445880D02*
X0164477Y0445880D01*
X0165545Y0446948D01*
X0165545Y0449083D01*
X0164477Y0450151D01*
X0161275Y0450151D01*
X0161275Y0443745D01*
X0167720Y0446948D02*
X0168788Y0445880D01*
X0171990Y0445880D01*
X0174166Y0445880D02*
X0176301Y0445880D01*
X0175233Y0445880D02*
X0175233Y0450151D01*
X0174166Y0450151D01*
X0171990Y0450151D02*
X0168788Y0450151D01*
X0167720Y0449083D01*
X0167720Y0446948D01*
X0175233Y0452286D02*
X0175233Y0453353D01*
X0178463Y0452286D02*
X0178463Y0445880D01*
X0178463Y0448015D02*
X0181665Y0445880D01*
X0178463Y0448015D02*
X0181665Y0450151D01*
X0152654Y0451218D02*
X0152654Y0449083D01*
X0151586Y0448015D01*
X0148384Y0448015D01*
X0150519Y0448015D02*
X0152654Y0445880D01*
X0148384Y0445880D02*
X0148384Y0452286D01*
X0151586Y0452286D01*
X0152654Y0451218D01*
X0139776Y0450151D02*
X0139776Y0444813D01*
X0138709Y0443745D01*
X0137641Y0443745D01*
X0135466Y0445880D02*
X0135466Y0449083D01*
X0134398Y0450151D01*
X0132263Y0450151D01*
X0132263Y0448015D02*
X0135466Y0448015D01*
X0135466Y0445880D02*
X0132263Y0445880D01*
X0131196Y0446948D01*
X0132263Y0448015D01*
X0129027Y0450151D02*
X0127959Y0450151D01*
X0125824Y0448015D01*
X0125824Y0445880D02*
X0125824Y0450151D01*
X0123649Y0450151D02*
X0123649Y0445880D01*
X0120446Y0445880D01*
X0119379Y0446948D01*
X0119379Y0450151D01*
X0117204Y0452286D02*
X0115068Y0452286D01*
X0116136Y0452286D02*
X0116136Y0446948D01*
X0115068Y0445880D01*
X0114001Y0445880D01*
X0112933Y0446948D01*
X0139776Y0452286D02*
X0139776Y0453353D01*
X0139683Y0383232D02*
X0143084Y0383232D01*
X0143084Y0380429D02*
X0139683Y0380429D01*
X0130285Y0378531D02*
X0130285Y0375129D01*
X0127482Y0375129D02*
X0127482Y0378531D01*
X0152933Y0366218D02*
X0157204Y0361948D01*
X0157204Y0364083D02*
X0152933Y0364083D01*
X0152933Y0361948D02*
X0157204Y0366218D01*
X0155068Y0366218D02*
X0155068Y0361948D01*
X0177933Y0347286D02*
X0177933Y0341948D01*
X0179001Y0340880D01*
X0181136Y0340880D01*
X0182204Y0341948D01*
X0182204Y0347286D01*
X0184379Y0344083D02*
X0187582Y0344083D01*
X0188649Y0343015D01*
X0188649Y0341948D01*
X0187582Y0340880D01*
X0185446Y0340880D01*
X0184379Y0341948D01*
X0184379Y0344083D01*
X0186514Y0346218D01*
X0188649Y0347286D01*
X0212766Y0372489D02*
X0212766Y0377489D01*
X0215266Y0379989D01*
X0220266Y0379989D01*
X0222766Y0377489D01*
X0225266Y0379989D01*
X0230266Y0379989D01*
X0232766Y0377489D01*
X0232766Y0372489D01*
X0230266Y0369989D01*
X0225266Y0369989D01*
X0222766Y0372489D01*
X0220266Y0369989D01*
X0215266Y0369989D01*
X0212766Y0372489D01*
X0222766Y0372489D02*
X0222766Y0377489D01*
X0232766Y0377489D02*
X0235266Y0379989D01*
X0240266Y0379989D01*
X0242766Y0377489D01*
X0245266Y0379989D01*
X0250266Y0379989D01*
X0252766Y0377489D01*
X0252766Y0372489D01*
X0250266Y0369989D01*
X0245266Y0369989D01*
X0242766Y0372489D01*
X0240266Y0369989D01*
X0235266Y0369989D01*
X0232766Y0372489D01*
X0242766Y0372489D02*
X0242766Y0377489D01*
X0245264Y0440724D02*
X0250264Y0440724D01*
X0252764Y0443224D01*
X0252764Y0448224D01*
X0250264Y0450724D01*
X0245264Y0450724D01*
X0242764Y0448224D01*
X0242764Y0443224D01*
X0245264Y0440724D01*
X0242764Y0443224D02*
X0240264Y0440724D01*
X0235264Y0440724D01*
X0232764Y0443224D01*
X0230264Y0440724D01*
X0225264Y0440724D01*
X0222764Y0443224D01*
X0220264Y0440724D01*
X0215264Y0440724D01*
X0212764Y0443224D01*
X0212764Y0448224D01*
X0215264Y0450724D01*
X0220264Y0450724D01*
X0222764Y0448224D01*
X0225264Y0450724D01*
X0230264Y0450724D01*
X0232764Y0448224D01*
X0232764Y0443224D01*
X0232764Y0448224D02*
X0235264Y0450724D01*
X0240264Y0450724D01*
X0242764Y0448224D01*
X0222764Y0448224D02*
X0222764Y0443224D01*
X0336751Y0437795D02*
X0336751Y0435866D01*
X0338515Y0435866D02*
X0338515Y0437795D01*
X0346751Y0437795D02*
X0346751Y0435866D01*
X0348515Y0435866D02*
X0348515Y0437795D01*
X0353732Y0319781D02*
X0353732Y0316379D01*
X0356535Y0316379D02*
X0356535Y0319781D01*
X0369982Y0319781D02*
X0369982Y0316379D01*
X0372785Y0316379D02*
X0372785Y0319781D01*
X0378732Y0319781D02*
X0378732Y0316379D01*
X0381535Y0316379D02*
X0381535Y0319781D01*
X0381535Y0276031D02*
X0381535Y0272629D01*
X0378732Y0272629D02*
X0378732Y0276031D01*
X0366535Y0276031D02*
X0366535Y0272629D01*
X0363732Y0272629D02*
X0363732Y0276031D01*
X0354035Y0267281D02*
X0354035Y0263879D01*
X0351232Y0263879D02*
X0351232Y0267281D01*
X0369982Y0261031D02*
X0369982Y0257629D01*
X0372785Y0257629D02*
X0372785Y0261031D01*
X0295584Y0302929D02*
X0292183Y0302929D01*
X0292183Y0305732D02*
X0295584Y0305732D01*
X0280527Y0300974D02*
X0280527Y0280187D01*
X0259740Y0280187D01*
X0259740Y0300974D01*
X0280527Y0300974D01*
X0287482Y0277281D02*
X0287482Y0273879D01*
X0290285Y0273879D02*
X0290285Y0277281D01*
X0236535Y0206031D02*
X0236535Y0202629D01*
X0233732Y0202629D02*
X0233732Y0206031D01*
X0215095Y0223198D02*
X0215095Y0227468D01*
X0214027Y0228536D01*
X0210824Y0228536D01*
X0210824Y0222130D01*
X0214027Y0222130D01*
X0215095Y0223198D01*
X0208649Y0222130D02*
X0208649Y0228536D01*
X0204379Y0228536D02*
X0204379Y0222130D01*
X0202204Y0223198D02*
X0202204Y0225333D01*
X0200068Y0225333D01*
X0197933Y0227468D02*
X0197933Y0223198D01*
X0199001Y0222130D01*
X0201136Y0222130D01*
X0202204Y0223198D01*
X0202204Y0227468D02*
X0201136Y0228536D01*
X0199001Y0228536D01*
X0197933Y0227468D01*
X0204379Y0228536D02*
X0208649Y0222130D01*
X0200095Y0141036D02*
X0200095Y0136765D01*
X0197959Y0134630D01*
X0195824Y0136765D01*
X0195824Y0141036D01*
X0193649Y0141036D02*
X0189379Y0141036D01*
X0189379Y0137833D01*
X0191514Y0138901D01*
X0192582Y0138901D01*
X0193649Y0137833D01*
X0193649Y0135698D01*
X0192582Y0134630D01*
X0190446Y0134630D01*
X0189379Y0135698D01*
X0187204Y0137833D02*
X0182933Y0137833D01*
X0185068Y0139968D02*
X0185068Y0135698D01*
X0164415Y0122320D02*
X0164415Y0117320D01*
X0161915Y0114820D01*
X0156915Y0114820D01*
X0154415Y0117320D01*
X0151915Y0114820D01*
X0146915Y0114820D01*
X0144415Y0117320D01*
X0144415Y0122320D01*
X0146915Y0124820D01*
X0151915Y0124820D01*
X0154415Y0122320D01*
X0156915Y0124820D01*
X0161915Y0124820D01*
X0164415Y0122320D01*
X0154415Y0122320D02*
X0154415Y0117320D01*
X0134035Y0117629D02*
X0134035Y0121031D01*
X0131232Y0121031D02*
X0131232Y0117629D01*
X0124035Y0117629D02*
X0124035Y0121031D01*
X0121232Y0121031D02*
X0121232Y0117629D01*
X0131232Y0132629D02*
X0131232Y0136031D01*
X0134035Y0136031D02*
X0134035Y0132629D01*
X0218257Y0126316D02*
X0218257Y0109131D01*
X0247785Y0109131D01*
X0247785Y0126316D01*
X0218257Y0126316D01*
X0252482Y0126031D02*
X0252482Y0122629D01*
X0255285Y0122629D02*
X0255285Y0126031D01*
X0264982Y0140129D02*
X0264982Y0143531D01*
X0267785Y0143531D02*
X0267785Y0140129D01*
X0279683Y0130732D02*
X0283084Y0130732D01*
X0283084Y0127929D02*
X0279683Y0127929D01*
X0275584Y0121982D02*
X0272183Y0121982D01*
X0272183Y0119179D02*
X0275584Y0119179D01*
X0294683Y0132929D02*
X0298084Y0132929D01*
X0298084Y0135732D02*
X0294683Y0135732D01*
X0299183Y0150880D02*
X0301318Y0150880D01*
X0300251Y0150880D02*
X0300251Y0157286D01*
X0301318Y0157286D02*
X0299183Y0157286D01*
X0303480Y0156218D02*
X0303480Y0151948D01*
X0304548Y0150880D01*
X0306683Y0150880D01*
X0307751Y0151948D01*
X0309926Y0150880D02*
X0314196Y0150880D01*
X0312061Y0150880D02*
X0312061Y0157286D01*
X0309926Y0155151D01*
X0307751Y0156218D02*
X0306683Y0157286D01*
X0304548Y0157286D01*
X0303480Y0156218D01*
X0290584Y0172929D02*
X0287183Y0172929D01*
X0287183Y0175732D02*
X0290584Y0175732D01*
X0288084Y0182929D02*
X0284683Y0182929D01*
X0284683Y0185732D02*
X0288084Y0185732D01*
X0329683Y0163232D02*
X0333084Y0163232D01*
X0333084Y0160429D02*
X0329683Y0160429D01*
X0334982Y0152281D02*
X0334982Y0148879D01*
X0337785Y0148879D02*
X0337785Y0152281D01*
X0341983Y0134430D02*
X0330783Y0134430D01*
X0330783Y0129230D01*
X0341983Y0129230D01*
X0341983Y0134430D01*
X0326983Y0134430D02*
X0326983Y0129230D01*
X0315783Y0129230D01*
X0315783Y0134430D01*
X0326983Y0134430D01*
X0327183Y0119482D02*
X0330584Y0119482D01*
X0330584Y0116679D02*
X0327183Y0116679D01*
X0339982Y0117281D02*
X0339982Y0113879D01*
X0342785Y0113879D02*
X0342785Y0117281D01*
X0137704Y0293583D02*
X0133433Y0293583D01*
X0135568Y0295718D02*
X0135568Y0291448D01*
D12*
X0150901Y0274433D02*
X0152135Y0274433D01*
X0152752Y0273816D01*
X0152752Y0273199D01*
X0152135Y0272582D01*
X0152752Y0271965D01*
X0152752Y0271347D01*
X0152135Y0270730D01*
X0150901Y0270730D01*
X0150283Y0271347D01*
X0151518Y0272582D02*
X0152135Y0272582D01*
X0153966Y0271965D02*
X0153966Y0274433D01*
X0153966Y0271965D02*
X0155201Y0270730D01*
X0156435Y0271965D01*
X0156435Y0274433D01*
X0157650Y0273816D02*
X0158267Y0274433D01*
X0159501Y0274433D01*
X0160118Y0273816D01*
X0160118Y0273199D01*
X0159501Y0272582D01*
X0160118Y0271965D01*
X0160118Y0271347D01*
X0159501Y0270730D01*
X0158267Y0270730D01*
X0157650Y0271347D01*
X0158884Y0272582D02*
X0159501Y0272582D01*
X0150901Y0274433D02*
X0150283Y0273816D01*
X0207783Y0270066D02*
X0207783Y0267597D01*
X0208401Y0266980D01*
X0209635Y0266980D01*
X0210252Y0267597D01*
X0210252Y0268832D01*
X0209018Y0268832D01*
X0210252Y0270066D02*
X0209635Y0270683D01*
X0208401Y0270683D01*
X0207783Y0270066D01*
X0211466Y0270683D02*
X0213935Y0266980D01*
X0213935Y0270683D01*
X0215150Y0270683D02*
X0217001Y0270683D01*
X0217618Y0270066D01*
X0217618Y0267597D01*
X0217001Y0266980D01*
X0215150Y0266980D01*
X0215150Y0270683D01*
X0211466Y0270683D02*
X0211466Y0266980D01*
X0248721Y0300698D02*
X0249338Y0300081D01*
X0251807Y0300081D01*
X0252424Y0300698D01*
X0252424Y0301932D01*
X0251807Y0302549D01*
X0252424Y0303764D02*
X0252424Y0306233D01*
X0252424Y0307447D02*
X0251807Y0307447D01*
X0249338Y0309916D01*
X0248721Y0309916D01*
X0248721Y0307447D01*
X0248721Y0304998D02*
X0252424Y0304998D01*
X0249955Y0303764D02*
X0248721Y0304998D01*
X0249338Y0302549D02*
X0248721Y0301932D01*
X0248721Y0300698D01*
X0319252Y0369034D02*
X0321670Y0369034D01*
X0322154Y0369517D01*
X0322154Y0370485D01*
X0321670Y0370969D01*
X0319252Y0370969D01*
X0319735Y0371980D02*
X0319252Y0372464D01*
X0319252Y0373431D01*
X0319735Y0373915D01*
X0320219Y0373915D01*
X0322154Y0371980D01*
X0322154Y0373915D01*
X0374001Y0435789D02*
X0373384Y0436406D01*
X0373384Y0438875D01*
X0374001Y0439492D01*
X0375235Y0439492D01*
X0375852Y0438875D01*
X0377067Y0438875D02*
X0377684Y0439492D01*
X0378918Y0439492D01*
X0379536Y0438875D01*
X0379536Y0438258D01*
X0377067Y0435789D01*
X0379536Y0435789D01*
X0380750Y0437641D02*
X0383219Y0437641D01*
X0382602Y0439492D02*
X0380750Y0437641D01*
X0382602Y0439492D02*
X0382602Y0435789D01*
X0382602Y0440789D02*
X0381367Y0440789D01*
X0380750Y0441406D01*
X0380750Y0442641D02*
X0381984Y0443258D01*
X0382602Y0443258D01*
X0383219Y0442641D01*
X0383219Y0441406D01*
X0382602Y0440789D01*
X0380750Y0442641D02*
X0380750Y0444492D01*
X0383219Y0444492D01*
X0379536Y0443875D02*
X0378918Y0444492D01*
X0377684Y0444492D01*
X0377067Y0443875D01*
X0375852Y0443875D02*
X0375235Y0444492D01*
X0374001Y0444492D01*
X0373384Y0443875D01*
X0373384Y0441406D01*
X0374001Y0440789D01*
X0375235Y0440789D01*
X0375852Y0441406D01*
X0377067Y0440789D02*
X0379536Y0443258D01*
X0379536Y0443875D01*
X0379536Y0440789D02*
X0377067Y0440789D01*
X0375852Y0436406D02*
X0375235Y0435789D01*
X0374001Y0435789D01*
X0157219Y0374757D02*
X0157219Y0374140D01*
X0156601Y0373523D01*
X0155367Y0373523D01*
X0154750Y0374140D01*
X0154750Y0374757D01*
X0155367Y0375374D01*
X0156601Y0375374D01*
X0157219Y0374757D01*
X0156601Y0373523D02*
X0157219Y0372906D01*
X0157219Y0372288D01*
X0156601Y0371671D01*
X0155367Y0371671D01*
X0154750Y0372288D01*
X0154750Y0372906D01*
X0155367Y0373523D01*
X0153535Y0374140D02*
X0153535Y0374757D01*
X0152918Y0375374D01*
X0151684Y0375374D01*
X0151067Y0374757D01*
X0149852Y0374757D02*
X0149235Y0375374D01*
X0148001Y0375374D01*
X0147384Y0374757D01*
X0147384Y0372288D01*
X0148001Y0371671D01*
X0149235Y0371671D01*
X0149852Y0372288D01*
X0151067Y0371671D02*
X0153535Y0374140D01*
X0153535Y0371671D02*
X0151067Y0371671D01*
X0132219Y0366624D02*
X0132219Y0366007D01*
X0129750Y0363538D01*
X0129750Y0362921D01*
X0128535Y0362921D02*
X0126067Y0362921D01*
X0128535Y0365390D01*
X0128535Y0366007D01*
X0127918Y0366624D01*
X0126684Y0366624D01*
X0126067Y0366007D01*
X0124852Y0366007D02*
X0124235Y0366624D01*
X0123001Y0366624D01*
X0122384Y0366007D01*
X0122384Y0363538D01*
X0123001Y0362921D01*
X0124235Y0362921D01*
X0124852Y0363538D01*
X0124235Y0359124D02*
X0123001Y0359124D01*
X0122384Y0358507D01*
X0122384Y0356038D01*
X0123001Y0355421D01*
X0124235Y0355421D01*
X0124852Y0356038D01*
X0126067Y0355421D02*
X0128535Y0357890D01*
X0128535Y0358507D01*
X0127918Y0359124D01*
X0126684Y0359124D01*
X0126067Y0358507D01*
X0124852Y0358507D02*
X0124235Y0359124D01*
X0126067Y0355421D02*
X0128535Y0355421D01*
X0129750Y0356038D02*
X0130367Y0355421D01*
X0131601Y0355421D01*
X0132219Y0356038D01*
X0132219Y0356656D01*
X0131601Y0357273D01*
X0129750Y0357273D01*
X0129750Y0356038D01*
X0129750Y0357273D02*
X0130984Y0358507D01*
X0132219Y0359124D01*
X0132219Y0366624D02*
X0129750Y0366624D01*
D13*
X0102633Y0400580D02*
X0105133Y0406830D01*
X0100133Y0406830D02*
X0102633Y0400580D01*
X0102633Y0415580D01*
X0099838Y0415580D02*
X0099840Y0415685D01*
X0099846Y0415790D01*
X0099856Y0415895D01*
X0099870Y0415999D01*
X0099887Y0416103D01*
X0099909Y0416206D01*
X0099934Y0416308D01*
X0099964Y0416409D01*
X0099997Y0416508D01*
X0100034Y0416607D01*
X0100074Y0416704D01*
X0100118Y0416799D01*
X0100166Y0416893D01*
X0100217Y0416985D01*
X0100271Y0417075D01*
X0100329Y0417163D01*
X0100390Y0417248D01*
X0100455Y0417331D01*
X0100522Y0417412D01*
X0100593Y0417490D01*
X0100666Y0417566D01*
X0100742Y0417638D01*
X0100821Y0417708D01*
X0100902Y0417775D01*
X0100986Y0417838D01*
X0101072Y0417898D01*
X0101160Y0417956D01*
X0101251Y0418009D01*
X0101343Y0418060D01*
X0101437Y0418106D01*
X0101533Y0418149D01*
X0101631Y0418189D01*
X0101729Y0418225D01*
X0101830Y0418257D01*
X0101931Y0418285D01*
X0102033Y0418310D01*
X0102136Y0418330D01*
X0102240Y0418347D01*
X0102344Y0418360D01*
X0102449Y0418369D01*
X0102554Y0418374D01*
X0102659Y0418375D01*
X0102764Y0418372D01*
X0102869Y0418365D01*
X0102974Y0418354D01*
X0103078Y0418339D01*
X0103182Y0418321D01*
X0103284Y0418298D01*
X0103386Y0418272D01*
X0103487Y0418241D01*
X0103586Y0418207D01*
X0103684Y0418170D01*
X0103781Y0418128D01*
X0103876Y0418083D01*
X0103969Y0418035D01*
X0104061Y0417983D01*
X0104150Y0417927D01*
X0104237Y0417869D01*
X0104322Y0417807D01*
X0104405Y0417742D01*
X0104485Y0417673D01*
X0104562Y0417602D01*
X0104637Y0417528D01*
X0104709Y0417452D01*
X0104778Y0417372D01*
X0104844Y0417290D01*
X0104907Y0417206D01*
X0104966Y0417119D01*
X0105022Y0417030D01*
X0105075Y0416939D01*
X0105125Y0416847D01*
X0105170Y0416752D01*
X0105213Y0416656D01*
X0105251Y0416558D01*
X0105286Y0416459D01*
X0105317Y0416358D01*
X0105345Y0416257D01*
X0105368Y0416154D01*
X0105388Y0416051D01*
X0105404Y0415947D01*
X0105416Y0415843D01*
X0105424Y0415738D01*
X0105428Y0415633D01*
X0105428Y0415527D01*
X0105424Y0415422D01*
X0105416Y0415317D01*
X0105404Y0415213D01*
X0105388Y0415109D01*
X0105368Y0415006D01*
X0105345Y0414903D01*
X0105317Y0414802D01*
X0105286Y0414701D01*
X0105251Y0414602D01*
X0105213Y0414504D01*
X0105170Y0414408D01*
X0105125Y0414313D01*
X0105075Y0414221D01*
X0105022Y0414130D01*
X0104966Y0414041D01*
X0104907Y0413954D01*
X0104844Y0413870D01*
X0104778Y0413788D01*
X0104709Y0413708D01*
X0104637Y0413632D01*
X0104562Y0413558D01*
X0104485Y0413487D01*
X0104405Y0413418D01*
X0104322Y0413353D01*
X0104237Y0413291D01*
X0104150Y0413233D01*
X0104061Y0413177D01*
X0103969Y0413125D01*
X0103876Y0413077D01*
X0103781Y0413032D01*
X0103684Y0412990D01*
X0103586Y0412953D01*
X0103487Y0412919D01*
X0103386Y0412888D01*
X0103284Y0412862D01*
X0103182Y0412839D01*
X0103078Y0412821D01*
X0102974Y0412806D01*
X0102869Y0412795D01*
X0102764Y0412788D01*
X0102659Y0412785D01*
X0102554Y0412786D01*
X0102449Y0412791D01*
X0102344Y0412800D01*
X0102240Y0412813D01*
X0102136Y0412830D01*
X0102033Y0412850D01*
X0101931Y0412875D01*
X0101830Y0412903D01*
X0101729Y0412935D01*
X0101631Y0412971D01*
X0101533Y0413011D01*
X0101437Y0413054D01*
X0101343Y0413100D01*
X0101251Y0413151D01*
X0101160Y0413204D01*
X0101072Y0413262D01*
X0100986Y0413322D01*
X0100902Y0413385D01*
X0100821Y0413452D01*
X0100742Y0413522D01*
X0100666Y0413594D01*
X0100593Y0413670D01*
X0100522Y0413748D01*
X0100455Y0413829D01*
X0100390Y0413912D01*
X0100329Y0413997D01*
X0100271Y0414085D01*
X0100217Y0414175D01*
X0100166Y0414267D01*
X0100118Y0414361D01*
X0100074Y0414456D01*
X0100034Y0414553D01*
X0099997Y0414652D01*
X0099964Y0414751D01*
X0099934Y0414852D01*
X0099909Y0414954D01*
X0099887Y0415057D01*
X0099870Y0415161D01*
X0099856Y0415265D01*
X0099846Y0415370D01*
X0099840Y0415475D01*
X0099838Y0415580D01*
X0101383Y0415580D02*
X0101385Y0415650D01*
X0101391Y0415720D01*
X0101401Y0415789D01*
X0101414Y0415858D01*
X0101432Y0415926D01*
X0101453Y0415993D01*
X0101478Y0416058D01*
X0101507Y0416122D01*
X0101539Y0416185D01*
X0101575Y0416245D01*
X0101614Y0416303D01*
X0101656Y0416359D01*
X0101701Y0416413D01*
X0101749Y0416464D01*
X0101800Y0416512D01*
X0101854Y0416557D01*
X0101910Y0416599D01*
X0101968Y0416638D01*
X0102028Y0416674D01*
X0102091Y0416706D01*
X0102155Y0416735D01*
X0102220Y0416760D01*
X0102287Y0416781D01*
X0102355Y0416799D01*
X0102424Y0416812D01*
X0102493Y0416822D01*
X0102563Y0416828D01*
X0102633Y0416830D01*
X0102703Y0416828D01*
X0102773Y0416822D01*
X0102842Y0416812D01*
X0102911Y0416799D01*
X0102979Y0416781D01*
X0103046Y0416760D01*
X0103111Y0416735D01*
X0103175Y0416706D01*
X0103238Y0416674D01*
X0103298Y0416638D01*
X0103356Y0416599D01*
X0103412Y0416557D01*
X0103466Y0416512D01*
X0103517Y0416464D01*
X0103565Y0416413D01*
X0103610Y0416359D01*
X0103652Y0416303D01*
X0103691Y0416245D01*
X0103727Y0416185D01*
X0103759Y0416122D01*
X0103788Y0416058D01*
X0103813Y0415993D01*
X0103834Y0415926D01*
X0103852Y0415858D01*
X0103865Y0415789D01*
X0103875Y0415720D01*
X0103881Y0415650D01*
X0103883Y0415580D01*
X0103881Y0415510D01*
X0103875Y0415440D01*
X0103865Y0415371D01*
X0103852Y0415302D01*
X0103834Y0415234D01*
X0103813Y0415167D01*
X0103788Y0415102D01*
X0103759Y0415038D01*
X0103727Y0414975D01*
X0103691Y0414915D01*
X0103652Y0414857D01*
X0103610Y0414801D01*
X0103565Y0414747D01*
X0103517Y0414696D01*
X0103466Y0414648D01*
X0103412Y0414603D01*
X0103356Y0414561D01*
X0103298Y0414522D01*
X0103238Y0414486D01*
X0103175Y0414454D01*
X0103111Y0414425D01*
X0103046Y0414400D01*
X0102979Y0414379D01*
X0102911Y0414361D01*
X0102842Y0414348D01*
X0102773Y0414338D01*
X0102703Y0414332D01*
X0102633Y0414330D01*
X0102563Y0414332D01*
X0102493Y0414338D01*
X0102424Y0414348D01*
X0102355Y0414361D01*
X0102287Y0414379D01*
X0102220Y0414400D01*
X0102155Y0414425D01*
X0102091Y0414454D01*
X0102028Y0414486D01*
X0101968Y0414522D01*
X0101910Y0414561D01*
X0101854Y0414603D01*
X0101800Y0414648D01*
X0101749Y0414696D01*
X0101701Y0414747D01*
X0101656Y0414801D01*
X0101614Y0414857D01*
X0101575Y0414915D01*
X0101539Y0414975D01*
X0101507Y0415038D01*
X0101478Y0415102D01*
X0101453Y0415167D01*
X0101432Y0415234D01*
X0101414Y0415302D01*
X0101401Y0415371D01*
X0101391Y0415440D01*
X0101385Y0415510D01*
X0101383Y0415580D01*
X0102633Y0415580D02*
X0086383Y0415580D01*
X0091383Y0413080D01*
X0091383Y0418080D02*
X0086383Y0415580D01*
X0113033Y0458480D02*
X0113033Y0464514D01*
X0116050Y0467530D01*
X0119067Y0464514D01*
X0119067Y0458480D01*
X0122096Y0458480D02*
X0125113Y0458480D01*
X0123605Y0458480D02*
X0123605Y0467530D01*
X0122096Y0467530D01*
X0119067Y0463005D02*
X0113033Y0463005D01*
X0128138Y0459989D02*
X0129646Y0461497D01*
X0134172Y0461497D01*
X0134172Y0463005D02*
X0134172Y0458480D01*
X0129646Y0458480D01*
X0128138Y0459989D01*
X0129646Y0464514D02*
X0132663Y0464514D01*
X0134172Y0463005D01*
X0137201Y0461497D02*
X0140218Y0464514D01*
X0141726Y0464514D01*
X0144753Y0464514D02*
X0146262Y0464514D01*
X0147770Y0463005D01*
X0149278Y0464514D01*
X0150787Y0463005D01*
X0150787Y0458480D01*
X0147770Y0458480D02*
X0147770Y0463005D01*
X0144753Y0464514D02*
X0144753Y0458480D01*
X0137201Y0458480D02*
X0137201Y0464514D01*
X0162879Y0467530D02*
X0162879Y0458480D01*
X0168913Y0458480D01*
X0171942Y0458480D02*
X0174959Y0458480D01*
X0173450Y0458480D02*
X0173450Y0464514D01*
X0171942Y0464514D01*
X0173450Y0467530D02*
X0173450Y0469039D01*
X0177984Y0463005D02*
X0177984Y0459989D01*
X0179492Y0458480D01*
X0184017Y0458480D01*
X0184017Y0456972D02*
X0184017Y0464514D01*
X0179492Y0464514D01*
X0177984Y0463005D01*
X0181001Y0455463D02*
X0182509Y0455463D01*
X0184017Y0456972D01*
X0187047Y0458480D02*
X0187047Y0467530D01*
X0188555Y0464514D02*
X0191572Y0464514D01*
X0193080Y0463005D01*
X0193080Y0458480D01*
X0197618Y0459989D02*
X0199126Y0458480D01*
X0197618Y0459989D02*
X0197618Y0466022D01*
X0196110Y0464514D02*
X0199126Y0464514D01*
X0188555Y0464514D02*
X0187047Y0463005D01*
X0211214Y0464514D02*
X0214231Y0458480D01*
X0217248Y0464514D01*
X0220277Y0466022D02*
X0221785Y0467530D01*
X0224802Y0467530D01*
X0226311Y0466022D01*
X0226311Y0464514D01*
X0220277Y0458480D01*
X0226311Y0458480D01*
X0223185Y0434822D02*
X0219641Y0431279D01*
X0219641Y0426161D01*
X0219641Y0417499D01*
X0219641Y0412381D01*
X0223185Y0408838D01*
X0245625Y0408838D01*
X0245625Y0417499D01*
X0245625Y0426161D01*
X0245625Y0434822D01*
X0223185Y0434822D01*
X0221019Y0425571D02*
X0220933Y0425287D01*
X0220855Y0425002D01*
X0220784Y0424715D01*
X0220720Y0424426D01*
X0220663Y0424136D01*
X0220613Y0423844D01*
X0220570Y0423551D01*
X0220534Y0423258D01*
X0220505Y0422963D01*
X0220483Y0422668D01*
X0220469Y0422373D01*
X0220462Y0422077D01*
X0220462Y0421781D01*
X0220469Y0421485D01*
X0220483Y0421190D01*
X0220505Y0420895D01*
X0220534Y0420600D01*
X0220570Y0420307D01*
X0220613Y0420014D01*
X0220663Y0419722D01*
X0220720Y0419432D01*
X0220784Y0419143D01*
X0220855Y0418856D01*
X0220933Y0418571D01*
X0221019Y0418287D01*
X0221019Y0425570D02*
X0221113Y0425851D01*
X0221215Y0426130D01*
X0221323Y0426406D01*
X0221438Y0426679D01*
X0221559Y0426950D01*
X0221687Y0427217D01*
X0221822Y0427482D01*
X0221963Y0427743D01*
X0222110Y0428000D01*
X0222263Y0428254D01*
X0222423Y0428504D01*
X0222588Y0428750D01*
X0222760Y0428992D01*
X0222937Y0429229D01*
X0223120Y0429463D01*
X0223309Y0429691D01*
X0223504Y0429916D01*
X0223703Y0430135D01*
X0223908Y0430349D01*
X0224118Y0430558D01*
X0224333Y0430762D01*
X0224554Y0430961D01*
X0224778Y0431155D01*
X0225008Y0431342D01*
X0225242Y0431525D01*
X0225480Y0431701D01*
X0225723Y0431872D01*
X0225969Y0432036D01*
X0226220Y0432195D01*
X0226474Y0432347D01*
X0226733Y0432493D01*
X0226994Y0432633D01*
X0227259Y0432767D01*
X0227527Y0432894D01*
X0227798Y0433014D01*
X0228072Y0433128D01*
X0228348Y0433235D01*
X0228628Y0433335D01*
X0228909Y0433428D01*
X0229193Y0433515D01*
X0229478Y0433594D01*
X0229766Y0433667D01*
X0230055Y0433733D01*
X0230346Y0433791D01*
X0230638Y0433842D01*
X0230931Y0433887D01*
X0231225Y0433924D01*
X0231520Y0433954D01*
X0231816Y0433977D01*
X0232112Y0433992D01*
X0232409Y0434000D01*
X0232705Y0434002D01*
X0233002Y0433995D01*
X0233298Y0433982D01*
X0233594Y0433962D01*
X0233889Y0433934D01*
X0234183Y0433899D01*
X0234477Y0433857D01*
X0234769Y0433807D01*
X0235061Y0433751D01*
X0235350Y0433688D01*
X0235638Y0433617D01*
X0235925Y0433540D01*
X0236209Y0433455D01*
X0236491Y0433364D01*
X0236771Y0433266D01*
X0237048Y0433161D01*
X0237323Y0433049D01*
X0237595Y0432931D01*
X0237864Y0432806D01*
X0238130Y0432674D01*
X0238392Y0432537D01*
X0238651Y0432392D01*
X0238907Y0432242D01*
X0239159Y0432085D01*
X0239407Y0431922D01*
X0239650Y0431754D01*
X0239890Y0431579D01*
X0240125Y0431398D01*
X0240356Y0431212D01*
X0240583Y0431021D01*
X0240804Y0430824D01*
X0241021Y0430621D01*
X0241232Y0430413D01*
X0241439Y0430201D01*
X0241640Y0429983D01*
X0241836Y0429760D01*
X0242027Y0429533D01*
X0242212Y0429301D01*
X0242391Y0429065D01*
X0242564Y0428824D01*
X0242731Y0428579D01*
X0242893Y0428330D01*
X0243048Y0428078D01*
X0243197Y0427821D01*
X0243340Y0427562D01*
X0243477Y0427298D01*
X0243607Y0427032D01*
X0243730Y0426762D01*
X0243847Y0426490D01*
X0243957Y0426214D01*
X0244060Y0425936D01*
X0244157Y0425656D01*
X0244247Y0425373D01*
X0244247Y0418090D02*
X0244153Y0417809D01*
X0244051Y0417530D01*
X0243943Y0417254D01*
X0243828Y0416981D01*
X0243707Y0416710D01*
X0243579Y0416443D01*
X0243444Y0416178D01*
X0243303Y0415917D01*
X0243156Y0415660D01*
X0243003Y0415406D01*
X0242843Y0415156D01*
X0242678Y0414910D01*
X0242506Y0414668D01*
X0242329Y0414431D01*
X0242146Y0414197D01*
X0241957Y0413969D01*
X0241762Y0413744D01*
X0241563Y0413525D01*
X0241358Y0413311D01*
X0241148Y0413102D01*
X0240933Y0412898D01*
X0240712Y0412699D01*
X0240488Y0412505D01*
X0240258Y0412318D01*
X0240024Y0412135D01*
X0239786Y0411959D01*
X0239543Y0411788D01*
X0239297Y0411624D01*
X0239046Y0411465D01*
X0238792Y0411313D01*
X0238533Y0411167D01*
X0238272Y0411027D01*
X0238007Y0410893D01*
X0237739Y0410766D01*
X0237468Y0410646D01*
X0237194Y0410532D01*
X0236918Y0410425D01*
X0236638Y0410325D01*
X0236357Y0410232D01*
X0236073Y0410145D01*
X0235788Y0410066D01*
X0235500Y0409993D01*
X0235211Y0409927D01*
X0234920Y0409869D01*
X0234628Y0409818D01*
X0234335Y0409773D01*
X0234041Y0409736D01*
X0233746Y0409706D01*
X0233450Y0409683D01*
X0233154Y0409668D01*
X0232857Y0409660D01*
X0232561Y0409658D01*
X0232264Y0409665D01*
X0231968Y0409678D01*
X0231672Y0409698D01*
X0231377Y0409726D01*
X0231083Y0409761D01*
X0230789Y0409803D01*
X0230497Y0409853D01*
X0230205Y0409909D01*
X0229916Y0409972D01*
X0229628Y0410043D01*
X0229341Y0410120D01*
X0229057Y0410205D01*
X0228775Y0410296D01*
X0228495Y0410394D01*
X0228218Y0410499D01*
X0227943Y0410611D01*
X0227671Y0410729D01*
X0227402Y0410854D01*
X0227136Y0410986D01*
X0226874Y0411123D01*
X0226615Y0411268D01*
X0226359Y0411418D01*
X0226107Y0411575D01*
X0225859Y0411738D01*
X0225616Y0411906D01*
X0225376Y0412081D01*
X0225141Y0412262D01*
X0224910Y0412448D01*
X0224683Y0412639D01*
X0224462Y0412836D01*
X0224245Y0413039D01*
X0224034Y0413247D01*
X0223827Y0413459D01*
X0223626Y0413677D01*
X0223430Y0413900D01*
X0223239Y0414127D01*
X0223054Y0414359D01*
X0222875Y0414595D01*
X0222702Y0414836D01*
X0222535Y0415081D01*
X0222373Y0415330D01*
X0222218Y0415582D01*
X0222069Y0415839D01*
X0221926Y0416098D01*
X0221789Y0416362D01*
X0221659Y0416628D01*
X0221536Y0416898D01*
X0221419Y0417170D01*
X0221309Y0417446D01*
X0221206Y0417724D01*
X0221109Y0418004D01*
X0221019Y0418287D01*
X0244247Y0418090D02*
X0244333Y0418374D01*
X0244411Y0418659D01*
X0244482Y0418946D01*
X0244546Y0419235D01*
X0244603Y0419525D01*
X0244653Y0419817D01*
X0244696Y0420110D01*
X0244732Y0420403D01*
X0244761Y0420698D01*
X0244783Y0420993D01*
X0244797Y0421288D01*
X0244804Y0421584D01*
X0244804Y0421880D01*
X0244797Y0422176D01*
X0244783Y0422471D01*
X0244761Y0422766D01*
X0244732Y0423061D01*
X0244696Y0423354D01*
X0244653Y0423647D01*
X0244603Y0423939D01*
X0244546Y0424229D01*
X0244482Y0424518D01*
X0244411Y0424805D01*
X0244333Y0425090D01*
X0244247Y0425374D01*
X0245625Y0364822D02*
X0223185Y0364822D01*
X0219641Y0361279D01*
X0219641Y0356161D01*
X0219641Y0347499D01*
X0219641Y0342381D01*
X0223185Y0338838D01*
X0245625Y0338838D01*
X0245625Y0347499D01*
X0245625Y0356161D01*
X0245625Y0364822D01*
X0221019Y0355571D02*
X0220933Y0355287D01*
X0220855Y0355002D01*
X0220784Y0354715D01*
X0220720Y0354426D01*
X0220663Y0354136D01*
X0220613Y0353844D01*
X0220570Y0353551D01*
X0220534Y0353258D01*
X0220505Y0352963D01*
X0220483Y0352668D01*
X0220469Y0352373D01*
X0220462Y0352077D01*
X0220462Y0351781D01*
X0220469Y0351485D01*
X0220483Y0351190D01*
X0220505Y0350895D01*
X0220534Y0350600D01*
X0220570Y0350307D01*
X0220613Y0350014D01*
X0220663Y0349722D01*
X0220720Y0349432D01*
X0220784Y0349143D01*
X0220855Y0348856D01*
X0220933Y0348571D01*
X0221019Y0348287D01*
X0221019Y0355570D02*
X0221113Y0355851D01*
X0221215Y0356130D01*
X0221323Y0356406D01*
X0221438Y0356679D01*
X0221559Y0356950D01*
X0221687Y0357217D01*
X0221822Y0357482D01*
X0221963Y0357743D01*
X0222110Y0358000D01*
X0222263Y0358254D01*
X0222423Y0358504D01*
X0222588Y0358750D01*
X0222760Y0358992D01*
X0222937Y0359229D01*
X0223120Y0359463D01*
X0223309Y0359691D01*
X0223504Y0359916D01*
X0223703Y0360135D01*
X0223908Y0360349D01*
X0224118Y0360558D01*
X0224333Y0360762D01*
X0224554Y0360961D01*
X0224778Y0361155D01*
X0225008Y0361342D01*
X0225242Y0361525D01*
X0225480Y0361701D01*
X0225723Y0361872D01*
X0225969Y0362036D01*
X0226220Y0362195D01*
X0226474Y0362347D01*
X0226733Y0362493D01*
X0226994Y0362633D01*
X0227259Y0362767D01*
X0227527Y0362894D01*
X0227798Y0363014D01*
X0228072Y0363128D01*
X0228348Y0363235D01*
X0228628Y0363335D01*
X0228909Y0363428D01*
X0229193Y0363515D01*
X0229478Y0363594D01*
X0229766Y0363667D01*
X0230055Y0363733D01*
X0230346Y0363791D01*
X0230638Y0363842D01*
X0230931Y0363887D01*
X0231225Y0363924D01*
X0231520Y0363954D01*
X0231816Y0363977D01*
X0232112Y0363992D01*
X0232409Y0364000D01*
X0232705Y0364002D01*
X0233002Y0363995D01*
X0233298Y0363982D01*
X0233594Y0363962D01*
X0233889Y0363934D01*
X0234183Y0363899D01*
X0234477Y0363857D01*
X0234769Y0363807D01*
X0235061Y0363751D01*
X0235350Y0363688D01*
X0235638Y0363617D01*
X0235925Y0363540D01*
X0236209Y0363455D01*
X0236491Y0363364D01*
X0236771Y0363266D01*
X0237048Y0363161D01*
X0237323Y0363049D01*
X0237595Y0362931D01*
X0237864Y0362806D01*
X0238130Y0362674D01*
X0238392Y0362537D01*
X0238651Y0362392D01*
X0238907Y0362242D01*
X0239159Y0362085D01*
X0239407Y0361922D01*
X0239650Y0361754D01*
X0239890Y0361579D01*
X0240125Y0361398D01*
X0240356Y0361212D01*
X0240583Y0361021D01*
X0240804Y0360824D01*
X0241021Y0360621D01*
X0241232Y0360413D01*
X0241439Y0360201D01*
X0241640Y0359983D01*
X0241836Y0359760D01*
X0242027Y0359533D01*
X0242212Y0359301D01*
X0242391Y0359065D01*
X0242564Y0358824D01*
X0242731Y0358579D01*
X0242893Y0358330D01*
X0243048Y0358078D01*
X0243197Y0357821D01*
X0243340Y0357562D01*
X0243477Y0357298D01*
X0243607Y0357032D01*
X0243730Y0356762D01*
X0243847Y0356490D01*
X0243957Y0356214D01*
X0244060Y0355936D01*
X0244157Y0355656D01*
X0244247Y0355373D01*
X0244247Y0348090D02*
X0244153Y0347809D01*
X0244051Y0347530D01*
X0243943Y0347254D01*
X0243828Y0346981D01*
X0243707Y0346710D01*
X0243579Y0346443D01*
X0243444Y0346178D01*
X0243303Y0345917D01*
X0243156Y0345660D01*
X0243003Y0345406D01*
X0242843Y0345156D01*
X0242678Y0344910D01*
X0242506Y0344668D01*
X0242329Y0344431D01*
X0242146Y0344197D01*
X0241957Y0343969D01*
X0241762Y0343744D01*
X0241563Y0343525D01*
X0241358Y0343311D01*
X0241148Y0343102D01*
X0240933Y0342898D01*
X0240712Y0342699D01*
X0240488Y0342505D01*
X0240258Y0342318D01*
X0240024Y0342135D01*
X0239786Y0341959D01*
X0239543Y0341788D01*
X0239297Y0341624D01*
X0239046Y0341465D01*
X0238792Y0341313D01*
X0238533Y0341167D01*
X0238272Y0341027D01*
X0238007Y0340893D01*
X0237739Y0340766D01*
X0237468Y0340646D01*
X0237194Y0340532D01*
X0236918Y0340425D01*
X0236638Y0340325D01*
X0236357Y0340232D01*
X0236073Y0340145D01*
X0235788Y0340066D01*
X0235500Y0339993D01*
X0235211Y0339927D01*
X0234920Y0339869D01*
X0234628Y0339818D01*
X0234335Y0339773D01*
X0234041Y0339736D01*
X0233746Y0339706D01*
X0233450Y0339683D01*
X0233154Y0339668D01*
X0232857Y0339660D01*
X0232561Y0339658D01*
X0232264Y0339665D01*
X0231968Y0339678D01*
X0231672Y0339698D01*
X0231377Y0339726D01*
X0231083Y0339761D01*
X0230789Y0339803D01*
X0230497Y0339853D01*
X0230205Y0339909D01*
X0229916Y0339972D01*
X0229628Y0340043D01*
X0229341Y0340120D01*
X0229057Y0340205D01*
X0228775Y0340296D01*
X0228495Y0340394D01*
X0228218Y0340499D01*
X0227943Y0340611D01*
X0227671Y0340729D01*
X0227402Y0340854D01*
X0227136Y0340986D01*
X0226874Y0341123D01*
X0226615Y0341268D01*
X0226359Y0341418D01*
X0226107Y0341575D01*
X0225859Y0341738D01*
X0225616Y0341906D01*
X0225376Y0342081D01*
X0225141Y0342262D01*
X0224910Y0342448D01*
X0224683Y0342639D01*
X0224462Y0342836D01*
X0224245Y0343039D01*
X0224034Y0343247D01*
X0223827Y0343459D01*
X0223626Y0343677D01*
X0223430Y0343900D01*
X0223239Y0344127D01*
X0223054Y0344359D01*
X0222875Y0344595D01*
X0222702Y0344836D01*
X0222535Y0345081D01*
X0222373Y0345330D01*
X0222218Y0345582D01*
X0222069Y0345839D01*
X0221926Y0346098D01*
X0221789Y0346362D01*
X0221659Y0346628D01*
X0221536Y0346898D01*
X0221419Y0347170D01*
X0221309Y0347446D01*
X0221206Y0347724D01*
X0221109Y0348004D01*
X0221019Y0348287D01*
X0244247Y0348090D02*
X0244333Y0348374D01*
X0244411Y0348659D01*
X0244482Y0348946D01*
X0244546Y0349235D01*
X0244603Y0349525D01*
X0244653Y0349817D01*
X0244696Y0350110D01*
X0244732Y0350403D01*
X0244761Y0350698D01*
X0244783Y0350993D01*
X0244797Y0351288D01*
X0244804Y0351584D01*
X0244804Y0351880D01*
X0244797Y0352176D01*
X0244783Y0352471D01*
X0244761Y0352766D01*
X0244732Y0353061D01*
X0244696Y0353354D01*
X0244653Y0353647D01*
X0244603Y0353939D01*
X0244546Y0354229D01*
X0244482Y0354518D01*
X0244411Y0354805D01*
X0244333Y0355090D01*
X0244247Y0355374D01*
X0259240Y0301474D02*
X0260527Y0301474D01*
X0259240Y0301474D02*
X0259240Y0279687D01*
X0260527Y0279687D01*
X0279740Y0279687D02*
X0281027Y0279687D01*
X0281027Y0301474D01*
X0279740Y0301474D01*
X0310204Y0335897D02*
X0314248Y0335897D01*
X0310204Y0335897D02*
X0310204Y0346830D01*
X0310204Y0396830D02*
X0310204Y0407763D01*
X0314248Y0407763D01*
X0340665Y0422234D02*
X0344602Y0422234D01*
X0344602Y0428927D02*
X0340665Y0428927D01*
X0383976Y0407763D02*
X0386598Y0407763D01*
X0386598Y0335897D01*
X0383976Y0335897D01*
X0270133Y0240580D02*
X0270133Y0235580D01*
X0210133Y0235580D02*
X0210133Y0240580D01*
X0189375Y0245088D02*
X0166935Y0245088D01*
X0163391Y0248631D01*
X0163391Y0253749D01*
X0163391Y0262411D01*
X0163391Y0267529D01*
X0166935Y0271072D01*
X0189375Y0271072D01*
X0189375Y0262411D01*
X0189375Y0253749D01*
X0189375Y0245088D01*
X0187997Y0254340D02*
X0188083Y0254624D01*
X0188161Y0254909D01*
X0188232Y0255196D01*
X0188296Y0255485D01*
X0188353Y0255775D01*
X0188403Y0256067D01*
X0188446Y0256360D01*
X0188482Y0256653D01*
X0188511Y0256948D01*
X0188533Y0257243D01*
X0188547Y0257538D01*
X0188554Y0257834D01*
X0188554Y0258130D01*
X0188547Y0258426D01*
X0188533Y0258721D01*
X0188511Y0259016D01*
X0188482Y0259311D01*
X0188446Y0259604D01*
X0188403Y0259897D01*
X0188353Y0260189D01*
X0188296Y0260479D01*
X0188232Y0260768D01*
X0188161Y0261055D01*
X0188083Y0261340D01*
X0187997Y0261624D01*
X0187997Y0254340D02*
X0187903Y0254059D01*
X0187801Y0253780D01*
X0187693Y0253504D01*
X0187578Y0253231D01*
X0187457Y0252960D01*
X0187329Y0252693D01*
X0187194Y0252428D01*
X0187053Y0252167D01*
X0186906Y0251910D01*
X0186753Y0251656D01*
X0186593Y0251406D01*
X0186428Y0251160D01*
X0186256Y0250918D01*
X0186079Y0250681D01*
X0185896Y0250447D01*
X0185707Y0250219D01*
X0185512Y0249994D01*
X0185313Y0249775D01*
X0185108Y0249561D01*
X0184898Y0249352D01*
X0184683Y0249148D01*
X0184462Y0248949D01*
X0184238Y0248755D01*
X0184008Y0248568D01*
X0183774Y0248385D01*
X0183536Y0248209D01*
X0183293Y0248038D01*
X0183047Y0247874D01*
X0182796Y0247715D01*
X0182542Y0247563D01*
X0182283Y0247417D01*
X0182022Y0247277D01*
X0181757Y0247143D01*
X0181489Y0247016D01*
X0181218Y0246896D01*
X0180944Y0246782D01*
X0180668Y0246675D01*
X0180388Y0246575D01*
X0180107Y0246482D01*
X0179823Y0246395D01*
X0179538Y0246316D01*
X0179250Y0246243D01*
X0178961Y0246177D01*
X0178670Y0246119D01*
X0178378Y0246068D01*
X0178085Y0246023D01*
X0177791Y0245986D01*
X0177496Y0245956D01*
X0177200Y0245933D01*
X0176904Y0245918D01*
X0176607Y0245910D01*
X0176311Y0245908D01*
X0176014Y0245915D01*
X0175718Y0245928D01*
X0175422Y0245948D01*
X0175127Y0245976D01*
X0174833Y0246011D01*
X0174539Y0246053D01*
X0174247Y0246103D01*
X0173955Y0246159D01*
X0173666Y0246222D01*
X0173378Y0246293D01*
X0173091Y0246370D01*
X0172807Y0246455D01*
X0172525Y0246546D01*
X0172245Y0246644D01*
X0171968Y0246749D01*
X0171693Y0246861D01*
X0171421Y0246979D01*
X0171152Y0247104D01*
X0170886Y0247236D01*
X0170624Y0247373D01*
X0170365Y0247518D01*
X0170109Y0247668D01*
X0169857Y0247825D01*
X0169609Y0247988D01*
X0169366Y0248156D01*
X0169126Y0248331D01*
X0168891Y0248512D01*
X0168660Y0248698D01*
X0168433Y0248889D01*
X0168212Y0249086D01*
X0167995Y0249289D01*
X0167784Y0249497D01*
X0167577Y0249709D01*
X0167376Y0249927D01*
X0167180Y0250150D01*
X0166989Y0250377D01*
X0166804Y0250609D01*
X0166625Y0250845D01*
X0166452Y0251086D01*
X0166285Y0251331D01*
X0166123Y0251580D01*
X0165968Y0251832D01*
X0165819Y0252089D01*
X0165676Y0252348D01*
X0165539Y0252612D01*
X0165409Y0252878D01*
X0165286Y0253148D01*
X0165169Y0253420D01*
X0165059Y0253696D01*
X0164956Y0253974D01*
X0164859Y0254254D01*
X0164769Y0254537D01*
X0164769Y0261820D02*
X0164863Y0262101D01*
X0164965Y0262380D01*
X0165073Y0262656D01*
X0165188Y0262929D01*
X0165309Y0263200D01*
X0165437Y0263467D01*
X0165572Y0263732D01*
X0165713Y0263993D01*
X0165860Y0264250D01*
X0166013Y0264504D01*
X0166173Y0264754D01*
X0166338Y0265000D01*
X0166510Y0265242D01*
X0166687Y0265479D01*
X0166870Y0265713D01*
X0167059Y0265941D01*
X0167254Y0266166D01*
X0167453Y0266385D01*
X0167658Y0266599D01*
X0167868Y0266808D01*
X0168083Y0267012D01*
X0168304Y0267211D01*
X0168528Y0267405D01*
X0168758Y0267592D01*
X0168992Y0267775D01*
X0169230Y0267951D01*
X0169473Y0268122D01*
X0169719Y0268286D01*
X0169970Y0268445D01*
X0170224Y0268597D01*
X0170483Y0268743D01*
X0170744Y0268883D01*
X0171009Y0269017D01*
X0171277Y0269144D01*
X0171548Y0269264D01*
X0171822Y0269378D01*
X0172098Y0269485D01*
X0172378Y0269585D01*
X0172659Y0269678D01*
X0172943Y0269765D01*
X0173228Y0269844D01*
X0173516Y0269917D01*
X0173805Y0269983D01*
X0174096Y0270041D01*
X0174388Y0270092D01*
X0174681Y0270137D01*
X0174975Y0270174D01*
X0175270Y0270204D01*
X0175566Y0270227D01*
X0175862Y0270242D01*
X0176159Y0270250D01*
X0176455Y0270252D01*
X0176752Y0270245D01*
X0177048Y0270232D01*
X0177344Y0270212D01*
X0177639Y0270184D01*
X0177933Y0270149D01*
X0178227Y0270107D01*
X0178519Y0270057D01*
X0178811Y0270001D01*
X0179100Y0269938D01*
X0179388Y0269867D01*
X0179675Y0269790D01*
X0179959Y0269705D01*
X0180241Y0269614D01*
X0180521Y0269516D01*
X0180798Y0269411D01*
X0181073Y0269299D01*
X0181345Y0269181D01*
X0181614Y0269056D01*
X0181880Y0268924D01*
X0182142Y0268787D01*
X0182401Y0268642D01*
X0182657Y0268492D01*
X0182909Y0268335D01*
X0183157Y0268172D01*
X0183400Y0268004D01*
X0183640Y0267829D01*
X0183875Y0267648D01*
X0184106Y0267462D01*
X0184333Y0267271D01*
X0184554Y0267074D01*
X0184771Y0266871D01*
X0184982Y0266663D01*
X0185189Y0266451D01*
X0185390Y0266233D01*
X0185586Y0266010D01*
X0185777Y0265783D01*
X0185962Y0265551D01*
X0186141Y0265315D01*
X0186314Y0265074D01*
X0186481Y0264829D01*
X0186643Y0264580D01*
X0186798Y0264328D01*
X0186947Y0264071D01*
X0187090Y0263812D01*
X0187227Y0263548D01*
X0187357Y0263282D01*
X0187480Y0263012D01*
X0187597Y0262740D01*
X0187707Y0262464D01*
X0187810Y0262186D01*
X0187907Y0261906D01*
X0187997Y0261623D01*
X0164769Y0261821D02*
X0164683Y0261537D01*
X0164605Y0261252D01*
X0164534Y0260965D01*
X0164470Y0260676D01*
X0164413Y0260386D01*
X0164363Y0260094D01*
X0164320Y0259801D01*
X0164284Y0259508D01*
X0164255Y0259213D01*
X0164233Y0258918D01*
X0164219Y0258623D01*
X0164212Y0258327D01*
X0164212Y0258031D01*
X0164219Y0257735D01*
X0164233Y0257440D01*
X0164255Y0257145D01*
X0164284Y0256850D01*
X0164320Y0256557D01*
X0164363Y0256264D01*
X0164413Y0255972D01*
X0164470Y0255682D01*
X0164534Y0255393D01*
X0164605Y0255106D01*
X0164683Y0254821D01*
X0164769Y0254537D01*
X0148844Y0249576D02*
X0118923Y0249576D01*
X0117633Y0285580D02*
X0117635Y0285721D01*
X0117641Y0285862D01*
X0117651Y0286002D01*
X0117665Y0286142D01*
X0117683Y0286282D01*
X0117704Y0286421D01*
X0117730Y0286560D01*
X0117759Y0286698D01*
X0117793Y0286834D01*
X0117830Y0286970D01*
X0117871Y0287105D01*
X0117916Y0287239D01*
X0117965Y0287371D01*
X0118017Y0287502D01*
X0118073Y0287631D01*
X0118133Y0287758D01*
X0118196Y0287884D01*
X0118262Y0288008D01*
X0118333Y0288131D01*
X0118406Y0288251D01*
X0118483Y0288369D01*
X0118563Y0288485D01*
X0118647Y0288598D01*
X0118733Y0288709D01*
X0118823Y0288818D01*
X0118916Y0288924D01*
X0119011Y0289027D01*
X0119110Y0289128D01*
X0119211Y0289226D01*
X0119315Y0289321D01*
X0119422Y0289413D01*
X0119531Y0289502D01*
X0119643Y0289587D01*
X0119757Y0289670D01*
X0119873Y0289750D01*
X0119992Y0289826D01*
X0120113Y0289898D01*
X0120235Y0289968D01*
X0120360Y0290033D01*
X0120486Y0290096D01*
X0120614Y0290154D01*
X0120744Y0290209D01*
X0120875Y0290261D01*
X0121008Y0290308D01*
X0121142Y0290352D01*
X0121277Y0290393D01*
X0121413Y0290429D01*
X0121550Y0290461D01*
X0121688Y0290490D01*
X0121826Y0290515D01*
X0121966Y0290535D01*
X0122106Y0290552D01*
X0122246Y0290565D01*
X0122387Y0290574D01*
X0122527Y0290579D01*
X0122668Y0290580D01*
X0122809Y0290577D01*
X0122950Y0290570D01*
X0123090Y0290559D01*
X0123230Y0290544D01*
X0123370Y0290525D01*
X0123509Y0290503D01*
X0123647Y0290476D01*
X0123785Y0290446D01*
X0123921Y0290411D01*
X0124057Y0290373D01*
X0124191Y0290331D01*
X0124325Y0290285D01*
X0124457Y0290236D01*
X0124587Y0290182D01*
X0124716Y0290125D01*
X0124843Y0290065D01*
X0124969Y0290001D01*
X0125092Y0289933D01*
X0125214Y0289862D01*
X0125334Y0289788D01*
X0125451Y0289710D01*
X0125566Y0289629D01*
X0125679Y0289545D01*
X0125790Y0289458D01*
X0125898Y0289367D01*
X0126003Y0289274D01*
X0126106Y0289177D01*
X0126206Y0289078D01*
X0126303Y0288976D01*
X0126397Y0288871D01*
X0126488Y0288764D01*
X0126576Y0288654D01*
X0126661Y0288542D01*
X0126743Y0288427D01*
X0126822Y0288310D01*
X0126897Y0288191D01*
X0126969Y0288070D01*
X0127037Y0287947D01*
X0127102Y0287822D01*
X0127164Y0287695D01*
X0127221Y0287566D01*
X0127276Y0287436D01*
X0127326Y0287305D01*
X0127373Y0287172D01*
X0127416Y0287038D01*
X0127455Y0286902D01*
X0127490Y0286766D01*
X0127522Y0286629D01*
X0127549Y0286491D01*
X0127573Y0286352D01*
X0127593Y0286212D01*
X0127609Y0286072D01*
X0127621Y0285932D01*
X0127629Y0285791D01*
X0127633Y0285650D01*
X0127633Y0285510D01*
X0127629Y0285369D01*
X0127621Y0285228D01*
X0127609Y0285088D01*
X0127593Y0284948D01*
X0127573Y0284808D01*
X0127549Y0284669D01*
X0127522Y0284531D01*
X0127490Y0284394D01*
X0127455Y0284258D01*
X0127416Y0284122D01*
X0127373Y0283988D01*
X0127326Y0283855D01*
X0127276Y0283724D01*
X0127221Y0283594D01*
X0127164Y0283465D01*
X0127102Y0283338D01*
X0127037Y0283213D01*
X0126969Y0283090D01*
X0126897Y0282969D01*
X0126822Y0282850D01*
X0126743Y0282733D01*
X0126661Y0282618D01*
X0126576Y0282506D01*
X0126488Y0282396D01*
X0126397Y0282289D01*
X0126303Y0282184D01*
X0126206Y0282082D01*
X0126106Y0281983D01*
X0126003Y0281886D01*
X0125898Y0281793D01*
X0125790Y0281702D01*
X0125679Y0281615D01*
X0125566Y0281531D01*
X0125451Y0281450D01*
X0125334Y0281372D01*
X0125214Y0281298D01*
X0125092Y0281227D01*
X0124969Y0281159D01*
X0124843Y0281095D01*
X0124716Y0281035D01*
X0124587Y0280978D01*
X0124457Y0280924D01*
X0124325Y0280875D01*
X0124191Y0280829D01*
X0124057Y0280787D01*
X0123921Y0280749D01*
X0123785Y0280714D01*
X0123647Y0280684D01*
X0123509Y0280657D01*
X0123370Y0280635D01*
X0123230Y0280616D01*
X0123090Y0280601D01*
X0122950Y0280590D01*
X0122809Y0280583D01*
X0122668Y0280580D01*
X0122527Y0280581D01*
X0122387Y0280586D01*
X0122246Y0280595D01*
X0122106Y0280608D01*
X0121966Y0280625D01*
X0121826Y0280645D01*
X0121688Y0280670D01*
X0121550Y0280699D01*
X0121413Y0280731D01*
X0121277Y0280767D01*
X0121142Y0280808D01*
X0121008Y0280852D01*
X0120875Y0280899D01*
X0120744Y0280951D01*
X0120614Y0281006D01*
X0120486Y0281064D01*
X0120360Y0281127D01*
X0120235Y0281192D01*
X0120113Y0281262D01*
X0119992Y0281334D01*
X0119873Y0281410D01*
X0119757Y0281490D01*
X0119643Y0281573D01*
X0119531Y0281658D01*
X0119422Y0281747D01*
X0119315Y0281839D01*
X0119211Y0281934D01*
X0119110Y0282032D01*
X0119011Y0282133D01*
X0118916Y0282236D01*
X0118823Y0282342D01*
X0118733Y0282451D01*
X0118647Y0282562D01*
X0118563Y0282675D01*
X0118483Y0282791D01*
X0118406Y0282909D01*
X0118333Y0283029D01*
X0118262Y0283152D01*
X0118196Y0283276D01*
X0118133Y0283402D01*
X0118073Y0283529D01*
X0118017Y0283658D01*
X0117965Y0283789D01*
X0117916Y0283921D01*
X0117871Y0284055D01*
X0117830Y0284190D01*
X0117793Y0284326D01*
X0117759Y0284462D01*
X0117730Y0284600D01*
X0117704Y0284739D01*
X0117683Y0284878D01*
X0117665Y0285018D01*
X0117651Y0285158D01*
X0117641Y0285298D01*
X0117635Y0285439D01*
X0117633Y0285580D01*
X0099405Y0285580D02*
X0099412Y0286150D01*
X0099433Y0286720D01*
X0099468Y0287289D01*
X0099517Y0287857D01*
X0099580Y0288423D01*
X0099656Y0288988D01*
X0099747Y0289551D01*
X0099851Y0290112D01*
X0099969Y0290669D01*
X0100101Y0291224D01*
X0100246Y0291775D01*
X0100405Y0292323D01*
X0100577Y0292866D01*
X0100763Y0293405D01*
X0100961Y0293940D01*
X0101173Y0294469D01*
X0101398Y0294993D01*
X0101635Y0295511D01*
X0101885Y0296024D01*
X0102148Y0296530D01*
X0102423Y0297029D01*
X0102710Y0297522D01*
X0103009Y0298007D01*
X0103320Y0298485D01*
X0103642Y0298955D01*
X0103976Y0299417D01*
X0104321Y0299871D01*
X0104678Y0300316D01*
X0105045Y0300752D01*
X0105422Y0301179D01*
X0105810Y0301597D01*
X0106208Y0302005D01*
X0106616Y0302403D01*
X0107034Y0302791D01*
X0107461Y0303168D01*
X0107897Y0303535D01*
X0108342Y0303892D01*
X0108796Y0304237D01*
X0109258Y0304571D01*
X0109728Y0304893D01*
X0110206Y0305204D01*
X0110691Y0305503D01*
X0111184Y0305790D01*
X0111683Y0306065D01*
X0112189Y0306328D01*
X0112702Y0306578D01*
X0113220Y0306815D01*
X0113744Y0307040D01*
X0114273Y0307252D01*
X0114808Y0307450D01*
X0115347Y0307636D01*
X0115890Y0307808D01*
X0116438Y0307967D01*
X0116989Y0308112D01*
X0117544Y0308244D01*
X0118101Y0308362D01*
X0118662Y0308466D01*
X0119225Y0308557D01*
X0119790Y0308633D01*
X0120356Y0308696D01*
X0120924Y0308745D01*
X0121493Y0308780D01*
X0122063Y0308801D01*
X0122633Y0308808D01*
X0123203Y0308801D01*
X0123773Y0308780D01*
X0124342Y0308745D01*
X0124910Y0308696D01*
X0125476Y0308633D01*
X0126041Y0308557D01*
X0126604Y0308466D01*
X0127165Y0308362D01*
X0127722Y0308244D01*
X0128277Y0308112D01*
X0128828Y0307967D01*
X0129376Y0307808D01*
X0129919Y0307636D01*
X0130458Y0307450D01*
X0130993Y0307252D01*
X0131522Y0307040D01*
X0132046Y0306815D01*
X0132564Y0306578D01*
X0133077Y0306328D01*
X0133583Y0306065D01*
X0134082Y0305790D01*
X0134575Y0305503D01*
X0135060Y0305204D01*
X0135538Y0304893D01*
X0136008Y0304571D01*
X0136470Y0304237D01*
X0136924Y0303892D01*
X0137369Y0303535D01*
X0137805Y0303168D01*
X0138232Y0302791D01*
X0138650Y0302403D01*
X0139058Y0302005D01*
X0139456Y0301597D01*
X0139844Y0301179D01*
X0140221Y0300752D01*
X0140588Y0300316D01*
X0140945Y0299871D01*
X0141290Y0299417D01*
X0141624Y0298955D01*
X0141946Y0298485D01*
X0142257Y0298007D01*
X0142556Y0297522D01*
X0142843Y0297029D01*
X0143118Y0296530D01*
X0143381Y0296024D01*
X0143631Y0295511D01*
X0143868Y0294993D01*
X0144093Y0294469D01*
X0144305Y0293940D01*
X0144503Y0293405D01*
X0144689Y0292866D01*
X0144861Y0292323D01*
X0145020Y0291775D01*
X0145165Y0291224D01*
X0145297Y0290669D01*
X0145415Y0290112D01*
X0145519Y0289551D01*
X0145610Y0288988D01*
X0145686Y0288423D01*
X0145749Y0287857D01*
X0145798Y0287289D01*
X0145833Y0286720D01*
X0145854Y0286150D01*
X0145861Y0285580D01*
X0145854Y0285010D01*
X0145833Y0284440D01*
X0145798Y0283871D01*
X0145749Y0283303D01*
X0145686Y0282737D01*
X0145610Y0282172D01*
X0145519Y0281609D01*
X0145415Y0281048D01*
X0145297Y0280491D01*
X0145165Y0279936D01*
X0145020Y0279385D01*
X0144861Y0278837D01*
X0144689Y0278294D01*
X0144503Y0277755D01*
X0144305Y0277220D01*
X0144093Y0276691D01*
X0143868Y0276167D01*
X0143631Y0275649D01*
X0143381Y0275136D01*
X0143118Y0274630D01*
X0142843Y0274131D01*
X0142556Y0273638D01*
X0142257Y0273153D01*
X0141946Y0272675D01*
X0141624Y0272205D01*
X0141290Y0271743D01*
X0140945Y0271289D01*
X0140588Y0270844D01*
X0140221Y0270408D01*
X0139844Y0269981D01*
X0139456Y0269563D01*
X0139058Y0269155D01*
X0138650Y0268757D01*
X0138232Y0268369D01*
X0137805Y0267992D01*
X0137369Y0267625D01*
X0136924Y0267268D01*
X0136470Y0266923D01*
X0136008Y0266589D01*
X0135538Y0266267D01*
X0135060Y0265956D01*
X0134575Y0265657D01*
X0134082Y0265370D01*
X0133583Y0265095D01*
X0133077Y0264832D01*
X0132564Y0264582D01*
X0132046Y0264345D01*
X0131522Y0264120D01*
X0130993Y0263908D01*
X0130458Y0263710D01*
X0129919Y0263524D01*
X0129376Y0263352D01*
X0128828Y0263193D01*
X0128277Y0263048D01*
X0127722Y0262916D01*
X0127165Y0262798D01*
X0126604Y0262694D01*
X0126041Y0262603D01*
X0125476Y0262527D01*
X0124910Y0262464D01*
X0124342Y0262415D01*
X0123773Y0262380D01*
X0123203Y0262359D01*
X0122633Y0262352D01*
X0122063Y0262359D01*
X0121493Y0262380D01*
X0120924Y0262415D01*
X0120356Y0262464D01*
X0119790Y0262527D01*
X0119225Y0262603D01*
X0118662Y0262694D01*
X0118101Y0262798D01*
X0117544Y0262916D01*
X0116989Y0263048D01*
X0116438Y0263193D01*
X0115890Y0263352D01*
X0115347Y0263524D01*
X0114808Y0263710D01*
X0114273Y0263908D01*
X0113744Y0264120D01*
X0113220Y0264345D01*
X0112702Y0264582D01*
X0112189Y0264832D01*
X0111683Y0265095D01*
X0111184Y0265370D01*
X0110691Y0265657D01*
X0110206Y0265956D01*
X0109728Y0266267D01*
X0109258Y0266589D01*
X0108796Y0266923D01*
X0108342Y0267268D01*
X0107897Y0267625D01*
X0107461Y0267992D01*
X0107034Y0268369D01*
X0106616Y0268757D01*
X0106208Y0269155D01*
X0105810Y0269563D01*
X0105422Y0269981D01*
X0105045Y0270408D01*
X0104678Y0270844D01*
X0104321Y0271289D01*
X0103976Y0271743D01*
X0103642Y0272205D01*
X0103320Y0272675D01*
X0103009Y0273153D01*
X0102710Y0273638D01*
X0102423Y0274131D01*
X0102148Y0274630D01*
X0101885Y0275136D01*
X0101635Y0275649D01*
X0101398Y0276167D01*
X0101173Y0276691D01*
X0100961Y0277220D01*
X0100763Y0277755D01*
X0100577Y0278294D01*
X0100405Y0278837D01*
X0100246Y0279385D01*
X0100101Y0279936D01*
X0099969Y0280491D01*
X0099851Y0281048D01*
X0099747Y0281609D01*
X0099656Y0282172D01*
X0099580Y0282737D01*
X0099517Y0283303D01*
X0099468Y0283871D01*
X0099433Y0284440D01*
X0099412Y0285010D01*
X0099405Y0285580D01*
X0148844Y0249576D02*
X0149843Y0249197D01*
X0150832Y0248794D01*
X0151811Y0248367D01*
X0152779Y0247916D01*
X0153736Y0247442D01*
X0154682Y0246945D01*
X0155614Y0246424D01*
X0156534Y0245881D01*
X0157440Y0245316D01*
X0158333Y0244728D01*
X0159210Y0244119D01*
X0160073Y0243489D01*
X0160919Y0242838D01*
X0161750Y0242167D01*
X0162564Y0241475D01*
X0163361Y0240764D01*
X0164140Y0240033D01*
X0164901Y0239284D01*
X0165644Y0238516D01*
X0166368Y0237731D01*
X0167072Y0236928D01*
X0167757Y0236108D01*
X0168421Y0235271D01*
X0169065Y0234419D01*
X0169688Y0233551D01*
X0170289Y0232669D01*
X0170869Y0231771D01*
X0171426Y0230860D01*
X0171962Y0229936D01*
X0172474Y0228999D01*
X0172963Y0228049D01*
X0173430Y0227088D01*
X0173872Y0226116D01*
X0174291Y0225133D01*
X0174685Y0224141D01*
X0175056Y0223139D01*
X0175401Y0222128D01*
X0175722Y0221109D01*
X0176018Y0220083D01*
X0176289Y0219050D01*
X0176534Y0218010D01*
X0176754Y0216965D01*
X0176949Y0215915D01*
X0177118Y0214860D01*
X0177260Y0213802D01*
X0177378Y0212740D01*
X0177469Y0211676D01*
X0177534Y0210609D01*
X0177573Y0209542D01*
X0177586Y0208474D01*
X0177573Y0207406D01*
X0177534Y0206339D01*
X0177469Y0205272D01*
X0177378Y0204208D01*
X0177260Y0203146D01*
X0177118Y0202088D01*
X0176949Y0201033D01*
X0176754Y0199983D01*
X0176534Y0198938D01*
X0176289Y0197898D01*
X0176018Y0196865D01*
X0175722Y0195839D01*
X0175401Y0194820D01*
X0175056Y0193809D01*
X0174685Y0192807D01*
X0174291Y0191815D01*
X0173872Y0190832D01*
X0173430Y0189860D01*
X0172963Y0188899D01*
X0172474Y0187949D01*
X0171962Y0187012D01*
X0171426Y0186088D01*
X0170869Y0185177D01*
X0170289Y0184279D01*
X0169688Y0183397D01*
X0169065Y0182529D01*
X0168421Y0181677D01*
X0167757Y0180840D01*
X0167072Y0180020D01*
X0166368Y0179217D01*
X0165644Y0178432D01*
X0164901Y0177664D01*
X0164140Y0176915D01*
X0163361Y0176184D01*
X0162564Y0175473D01*
X0161750Y0174781D01*
X0160919Y0174110D01*
X0160073Y0173459D01*
X0159210Y0172829D01*
X0158333Y0172220D01*
X0157440Y0171632D01*
X0156534Y0171067D01*
X0155614Y0170524D01*
X0154682Y0170003D01*
X0153736Y0169506D01*
X0152779Y0169032D01*
X0151811Y0168581D01*
X0150832Y0168154D01*
X0149843Y0167751D01*
X0148844Y0167372D01*
X0148844Y0155639D01*
X0118923Y0155639D01*
X0118923Y0167372D01*
X0117924Y0167751D01*
X0116935Y0168154D01*
X0115956Y0168581D01*
X0114988Y0169032D01*
X0114031Y0169506D01*
X0113085Y0170003D01*
X0112153Y0170524D01*
X0111233Y0171067D01*
X0110327Y0171632D01*
X0109434Y0172220D01*
X0108557Y0172829D01*
X0107694Y0173459D01*
X0106848Y0174110D01*
X0106017Y0174781D01*
X0105203Y0175473D01*
X0104406Y0176184D01*
X0103627Y0176915D01*
X0102866Y0177664D01*
X0102123Y0178432D01*
X0101399Y0179217D01*
X0100695Y0180020D01*
X0100010Y0180840D01*
X0099346Y0181677D01*
X0098702Y0182529D01*
X0098079Y0183397D01*
X0097478Y0184279D01*
X0096898Y0185177D01*
X0096341Y0186088D01*
X0095805Y0187012D01*
X0095293Y0187949D01*
X0094804Y0188899D01*
X0094337Y0189860D01*
X0093895Y0190832D01*
X0093476Y0191815D01*
X0093082Y0192807D01*
X0092711Y0193809D01*
X0092366Y0194820D01*
X0092045Y0195839D01*
X0091749Y0196865D01*
X0091478Y0197898D01*
X0091233Y0198938D01*
X0091013Y0199983D01*
X0090818Y0201033D01*
X0090649Y0202088D01*
X0090507Y0203146D01*
X0090389Y0204208D01*
X0090298Y0205272D01*
X0090233Y0206339D01*
X0090194Y0207406D01*
X0090181Y0208474D01*
X0090194Y0209542D01*
X0090233Y0210609D01*
X0090298Y0211676D01*
X0090389Y0212740D01*
X0090507Y0213802D01*
X0090649Y0214860D01*
X0090818Y0215915D01*
X0091013Y0216965D01*
X0091233Y0218010D01*
X0091478Y0219050D01*
X0091749Y0220083D01*
X0092045Y0221109D01*
X0092366Y0222128D01*
X0092711Y0223139D01*
X0093082Y0224141D01*
X0093476Y0225133D01*
X0093895Y0226116D01*
X0094337Y0227088D01*
X0094804Y0228049D01*
X0095293Y0228999D01*
X0095805Y0229936D01*
X0096341Y0230860D01*
X0096898Y0231771D01*
X0097478Y0232669D01*
X0098079Y0233551D01*
X0098702Y0234419D01*
X0099346Y0235271D01*
X0100010Y0236108D01*
X0100695Y0236928D01*
X0101399Y0237731D01*
X0102123Y0238516D01*
X0102866Y0239284D01*
X0103627Y0240033D01*
X0104406Y0240764D01*
X0105203Y0241475D01*
X0106017Y0242167D01*
X0106848Y0242838D01*
X0107694Y0243489D01*
X0108557Y0244119D01*
X0109434Y0244728D01*
X0110327Y0245316D01*
X0111233Y0245881D01*
X0112153Y0246424D01*
X0113085Y0246945D01*
X0114031Y0247442D01*
X0114988Y0247916D01*
X0115956Y0248367D01*
X0116935Y0248794D01*
X0117924Y0249197D01*
X0118923Y0249576D01*
X0272258Y0162455D02*
X0272260Y0162518D01*
X0272266Y0162580D01*
X0272276Y0162642D01*
X0272289Y0162704D01*
X0272307Y0162764D01*
X0272328Y0162823D01*
X0272353Y0162881D01*
X0272382Y0162937D01*
X0272414Y0162991D01*
X0272449Y0163043D01*
X0272487Y0163092D01*
X0272529Y0163140D01*
X0272573Y0163184D01*
X0272621Y0163226D01*
X0272670Y0163264D01*
X0272722Y0163299D01*
X0272776Y0163331D01*
X0272832Y0163360D01*
X0272890Y0163385D01*
X0272949Y0163406D01*
X0273009Y0163424D01*
X0273071Y0163437D01*
X0273133Y0163447D01*
X0273195Y0163453D01*
X0273258Y0163455D01*
X0273321Y0163453D01*
X0273383Y0163447D01*
X0273445Y0163437D01*
X0273507Y0163424D01*
X0273567Y0163406D01*
X0273626Y0163385D01*
X0273684Y0163360D01*
X0273740Y0163331D01*
X0273794Y0163299D01*
X0273846Y0163264D01*
X0273895Y0163226D01*
X0273943Y0163184D01*
X0273987Y0163140D01*
X0274029Y0163092D01*
X0274067Y0163043D01*
X0274102Y0162991D01*
X0274134Y0162937D01*
X0274163Y0162881D01*
X0274188Y0162823D01*
X0274209Y0162764D01*
X0274227Y0162704D01*
X0274240Y0162642D01*
X0274250Y0162580D01*
X0274256Y0162518D01*
X0274258Y0162455D01*
X0274256Y0162392D01*
X0274250Y0162330D01*
X0274240Y0162268D01*
X0274227Y0162206D01*
X0274209Y0162146D01*
X0274188Y0162087D01*
X0274163Y0162029D01*
X0274134Y0161973D01*
X0274102Y0161919D01*
X0274067Y0161867D01*
X0274029Y0161818D01*
X0273987Y0161770D01*
X0273943Y0161726D01*
X0273895Y0161684D01*
X0273846Y0161646D01*
X0273794Y0161611D01*
X0273740Y0161579D01*
X0273684Y0161550D01*
X0273626Y0161525D01*
X0273567Y0161504D01*
X0273507Y0161486D01*
X0273445Y0161473D01*
X0273383Y0161463D01*
X0273321Y0161457D01*
X0273258Y0161455D01*
X0273195Y0161457D01*
X0273133Y0161463D01*
X0273071Y0161473D01*
X0273009Y0161486D01*
X0272949Y0161504D01*
X0272890Y0161525D01*
X0272832Y0161550D01*
X0272776Y0161579D01*
X0272722Y0161611D01*
X0272670Y0161646D01*
X0272621Y0161684D01*
X0272573Y0161726D01*
X0272529Y0161770D01*
X0272487Y0161818D01*
X0272449Y0161867D01*
X0272414Y0161919D01*
X0272382Y0161973D01*
X0272353Y0162029D01*
X0272328Y0162087D01*
X0272307Y0162146D01*
X0272289Y0162206D01*
X0272276Y0162268D01*
X0272266Y0162330D01*
X0272260Y0162392D01*
X0272258Y0162455D01*
X0274435Y0144350D02*
X0274435Y0142381D01*
X0276403Y0142381D01*
X0290970Y0142381D02*
X0293332Y0142381D01*
X0293332Y0144350D01*
X0293332Y0159311D02*
X0293332Y0161279D01*
X0291364Y0161279D01*
D14*
X0286138Y0164580D02*
X0284870Y0164580D01*
X0285504Y0164580D02*
X0285504Y0166482D01*
X0284870Y0165848D01*
X0283928Y0166165D02*
X0283611Y0166482D01*
X0282977Y0166482D01*
X0282660Y0166165D01*
X0282660Y0164897D01*
X0282977Y0164580D01*
X0283611Y0164580D01*
X0283928Y0164897D01*
X0281821Y0164580D02*
X0281187Y0164580D01*
X0281504Y0164580D02*
X0281504Y0166482D01*
X0281187Y0166482D02*
X0281821Y0166482D01*
X0318883Y0178051D02*
X0318883Y0241830D01*
X0386265Y0241830D01*
X0386265Y0178051D01*
X0318883Y0178051D01*
X0269441Y0227930D02*
X0268173Y0227930D01*
X0268807Y0227930D02*
X0268807Y0229832D01*
X0268173Y0229198D01*
X0267231Y0229832D02*
X0266597Y0229832D01*
X0266914Y0229832D02*
X0266914Y0228247D01*
X0266597Y0227930D01*
X0266280Y0227930D01*
X0265964Y0228247D01*
X0282132Y0288620D02*
X0283716Y0288620D01*
X0284033Y0288937D01*
X0284033Y0289571D01*
X0283716Y0289888D01*
X0282132Y0289888D01*
X0283083Y0290830D02*
X0283083Y0292098D01*
X0284033Y0291781D02*
X0282132Y0291781D01*
X0283083Y0290830D01*
X0247488Y0386189D02*
X0244486Y0386189D01*
X0247488Y0389191D01*
X0247488Y0389942D01*
X0246738Y0390693D01*
X0245236Y0390693D01*
X0244486Y0389942D01*
X0241383Y0390693D02*
X0241383Y0386189D01*
X0239882Y0386189D02*
X0242884Y0386189D01*
X0239882Y0389191D02*
X0241383Y0390693D01*
X0238280Y0385438D02*
X0235278Y0385438D01*
X0233676Y0386939D02*
X0233676Y0389942D01*
X0232926Y0390693D01*
X0230674Y0390693D01*
X0230674Y0386189D01*
X0232926Y0386189D01*
X0233676Y0386939D01*
X0229073Y0386189D02*
X0226070Y0386189D01*
X0226070Y0390693D01*
X0229073Y0390693D01*
X0227571Y0388441D02*
X0226070Y0388441D01*
X0224469Y0386189D02*
X0221466Y0386189D01*
X0221466Y0390693D01*
X0256464Y0444424D02*
X0259466Y0444424D01*
X0261068Y0444424D02*
X0264070Y0444424D01*
X0265672Y0444424D02*
X0265672Y0448928D01*
X0267924Y0448928D01*
X0268674Y0448177D01*
X0268674Y0445175D01*
X0267924Y0444424D01*
X0265672Y0444424D01*
X0262569Y0446676D02*
X0261068Y0446676D01*
X0261068Y0448928D02*
X0261068Y0444424D01*
X0261068Y0448928D02*
X0264070Y0448928D01*
X0256464Y0448928D02*
X0256464Y0444424D01*
X0270276Y0443674D02*
X0273278Y0443674D01*
X0274880Y0444424D02*
X0277882Y0447427D01*
X0277882Y0448177D01*
X0277131Y0448928D01*
X0275630Y0448928D01*
X0274880Y0448177D01*
X0274880Y0444424D02*
X0277882Y0444424D01*
X0279484Y0446676D02*
X0282486Y0446676D01*
X0281735Y0444424D02*
X0281735Y0448928D01*
X0279484Y0446676D01*
X0336334Y0428533D02*
X0336334Y0422627D01*
X0348933Y0422627D01*
X0348933Y0428533D01*
X0336334Y0428533D01*
X0341307Y0429937D02*
X0341307Y0430887D01*
X0341941Y0431521D01*
X0341941Y0431838D01*
X0342883Y0431521D02*
X0343200Y0431838D01*
X0343834Y0431838D01*
X0344151Y0431521D01*
X0344151Y0431204D01*
X0343834Y0430887D01*
X0344151Y0430570D01*
X0344151Y0430253D01*
X0343834Y0429937D01*
X0343200Y0429937D01*
X0342883Y0430253D01*
X0343517Y0430887D02*
X0343834Y0430887D01*
X0341307Y0430887D02*
X0340673Y0431521D01*
X0340673Y0431838D01*
X0169789Y0362736D02*
X0169789Y0350925D01*
X0157978Y0350925D01*
X0157978Y0362736D01*
X0169789Y0362736D01*
X0155909Y0362836D02*
X0155911Y0362875D01*
X0155917Y0362914D01*
X0155927Y0362952D01*
X0155940Y0362989D01*
X0155957Y0363024D01*
X0155977Y0363058D01*
X0156001Y0363089D01*
X0156028Y0363118D01*
X0156057Y0363144D01*
X0156089Y0363167D01*
X0156123Y0363187D01*
X0156159Y0363203D01*
X0156196Y0363215D01*
X0156235Y0363224D01*
X0156274Y0363229D01*
X0156313Y0363230D01*
X0156352Y0363227D01*
X0156391Y0363220D01*
X0156428Y0363209D01*
X0156465Y0363195D01*
X0156500Y0363177D01*
X0156533Y0363156D01*
X0156564Y0363131D01*
X0156592Y0363104D01*
X0156617Y0363074D01*
X0156639Y0363041D01*
X0156658Y0363007D01*
X0156673Y0362971D01*
X0156685Y0362933D01*
X0156693Y0362895D01*
X0156697Y0362856D01*
X0156697Y0362816D01*
X0156693Y0362777D01*
X0156685Y0362739D01*
X0156673Y0362701D01*
X0156658Y0362665D01*
X0156639Y0362631D01*
X0156617Y0362598D01*
X0156592Y0362568D01*
X0156564Y0362541D01*
X0156533Y0362516D01*
X0156500Y0362495D01*
X0156465Y0362477D01*
X0156428Y0362463D01*
X0156391Y0362452D01*
X0156352Y0362445D01*
X0156313Y0362442D01*
X0156274Y0362443D01*
X0156235Y0362448D01*
X0156196Y0362457D01*
X0156159Y0362469D01*
X0156123Y0362485D01*
X0156089Y0362505D01*
X0156057Y0362528D01*
X0156028Y0362554D01*
X0156001Y0362583D01*
X0155977Y0362614D01*
X0155957Y0362648D01*
X0155940Y0362683D01*
X0155927Y0362720D01*
X0155917Y0362758D01*
X0155911Y0362797D01*
X0155909Y0362836D01*
X0124622Y0311732D02*
X0123988Y0311098D01*
X0124622Y0311732D02*
X0124622Y0309830D01*
X0123988Y0309830D02*
X0125256Y0309830D01*
X0123046Y0310147D02*
X0122729Y0309830D01*
X0122095Y0309830D01*
X0121778Y0310147D01*
X0122095Y0310781D02*
X0122729Y0310781D01*
X0123046Y0310464D01*
X0123046Y0310147D01*
X0122095Y0310781D02*
X0121778Y0311098D01*
X0121778Y0311415D01*
X0122095Y0311732D01*
X0122729Y0311732D01*
X0123046Y0311415D01*
X0120836Y0309830D02*
X0119569Y0309830D01*
X0119569Y0311732D01*
X0130819Y0252732D02*
X0131769Y0252732D01*
X0132086Y0252415D01*
X0132086Y0252098D01*
X0131769Y0251781D01*
X0130819Y0251781D01*
X0131769Y0251781D02*
X0132086Y0251464D01*
X0132086Y0251147D01*
X0131769Y0250830D01*
X0130819Y0250830D01*
X0130819Y0252732D01*
X0133028Y0252732D02*
X0134296Y0252732D01*
X0133662Y0252732D02*
X0133662Y0250830D01*
X0135238Y0250830D02*
X0136506Y0250830D01*
X0135872Y0250830D02*
X0135872Y0252732D01*
X0135238Y0252098D01*
X0094907Y0207844D02*
X0094919Y0208810D01*
X0094954Y0209776D01*
X0095014Y0210740D01*
X0095097Y0211703D01*
X0095203Y0212663D01*
X0095333Y0213621D01*
X0095487Y0214575D01*
X0095663Y0215525D01*
X0095864Y0216470D01*
X0096087Y0217410D01*
X0096333Y0218344D01*
X0096602Y0219273D01*
X0096894Y0220194D01*
X0097208Y0221107D01*
X0097545Y0222013D01*
X0097904Y0222910D01*
X0098285Y0223798D01*
X0098687Y0224677D01*
X0099111Y0225545D01*
X0099556Y0226403D01*
X0100022Y0227249D01*
X0100508Y0228084D01*
X0101015Y0228907D01*
X0101542Y0229717D01*
X0102089Y0230514D01*
X0102655Y0231297D01*
X0103240Y0232066D01*
X0103844Y0232820D01*
X0104466Y0233559D01*
X0105106Y0234283D01*
X0105763Y0234991D01*
X0106438Y0235683D01*
X0107130Y0236358D01*
X0107838Y0237015D01*
X0108562Y0237655D01*
X0109301Y0238277D01*
X0110055Y0238881D01*
X0110824Y0239466D01*
X0111607Y0240032D01*
X0112404Y0240579D01*
X0113214Y0241106D01*
X0114037Y0241613D01*
X0114872Y0242099D01*
X0115718Y0242565D01*
X0116576Y0243010D01*
X0117444Y0243434D01*
X0118323Y0243836D01*
X0119211Y0244217D01*
X0120108Y0244576D01*
X0121014Y0244913D01*
X0121927Y0245227D01*
X0122848Y0245519D01*
X0123777Y0245788D01*
X0124711Y0246034D01*
X0125651Y0246257D01*
X0126596Y0246458D01*
X0127546Y0246634D01*
X0128500Y0246788D01*
X0129458Y0246918D01*
X0130418Y0247024D01*
X0131381Y0247107D01*
X0132345Y0247167D01*
X0133311Y0247202D01*
X0134277Y0247214D01*
X0135243Y0247202D01*
X0136209Y0247167D01*
X0137173Y0247107D01*
X0138136Y0247024D01*
X0139096Y0246918D01*
X0140054Y0246788D01*
X0141008Y0246634D01*
X0141958Y0246458D01*
X0142903Y0246257D01*
X0143843Y0246034D01*
X0144777Y0245788D01*
X0145706Y0245519D01*
X0146627Y0245227D01*
X0147540Y0244913D01*
X0148446Y0244576D01*
X0149343Y0244217D01*
X0150231Y0243836D01*
X0151110Y0243434D01*
X0151978Y0243010D01*
X0152836Y0242565D01*
X0153682Y0242099D01*
X0154517Y0241613D01*
X0155340Y0241106D01*
X0156150Y0240579D01*
X0156947Y0240032D01*
X0157730Y0239466D01*
X0158499Y0238881D01*
X0159253Y0238277D01*
X0159992Y0237655D01*
X0160716Y0237015D01*
X0161424Y0236358D01*
X0162116Y0235683D01*
X0162791Y0234991D01*
X0163448Y0234283D01*
X0164088Y0233559D01*
X0164710Y0232820D01*
X0165314Y0232066D01*
X0165899Y0231297D01*
X0166465Y0230514D01*
X0167012Y0229717D01*
X0167539Y0228907D01*
X0168046Y0228084D01*
X0168532Y0227249D01*
X0168998Y0226403D01*
X0169443Y0225545D01*
X0169867Y0224677D01*
X0170269Y0223798D01*
X0170650Y0222910D01*
X0171009Y0222013D01*
X0171346Y0221107D01*
X0171660Y0220194D01*
X0171952Y0219273D01*
X0172221Y0218344D01*
X0172467Y0217410D01*
X0172690Y0216470D01*
X0172891Y0215525D01*
X0173067Y0214575D01*
X0173221Y0213621D01*
X0173351Y0212663D01*
X0173457Y0211703D01*
X0173540Y0210740D01*
X0173600Y0209776D01*
X0173635Y0208810D01*
X0173647Y0207844D01*
X0173635Y0206878D01*
X0173600Y0205912D01*
X0173540Y0204948D01*
X0173457Y0203985D01*
X0173351Y0203025D01*
X0173221Y0202067D01*
X0173067Y0201113D01*
X0172891Y0200163D01*
X0172690Y0199218D01*
X0172467Y0198278D01*
X0172221Y0197344D01*
X0171952Y0196415D01*
X0171660Y0195494D01*
X0171346Y0194581D01*
X0171009Y0193675D01*
X0170650Y0192778D01*
X0170269Y0191890D01*
X0169867Y0191011D01*
X0169443Y0190143D01*
X0168998Y0189285D01*
X0168532Y0188439D01*
X0168046Y0187604D01*
X0167539Y0186781D01*
X0167012Y0185971D01*
X0166465Y0185174D01*
X0165899Y0184391D01*
X0165314Y0183622D01*
X0164710Y0182868D01*
X0164088Y0182129D01*
X0163448Y0181405D01*
X0162791Y0180697D01*
X0162116Y0180005D01*
X0161424Y0179330D01*
X0160716Y0178673D01*
X0159992Y0178033D01*
X0159253Y0177411D01*
X0158499Y0176807D01*
X0157730Y0176222D01*
X0156947Y0175656D01*
X0156150Y0175109D01*
X0155340Y0174582D01*
X0154517Y0174075D01*
X0153682Y0173589D01*
X0152836Y0173123D01*
X0151978Y0172678D01*
X0151110Y0172254D01*
X0150231Y0171852D01*
X0149343Y0171471D01*
X0148446Y0171112D01*
X0147540Y0170775D01*
X0146627Y0170461D01*
X0145706Y0170169D01*
X0144777Y0169900D01*
X0143843Y0169654D01*
X0142903Y0169431D01*
X0141958Y0169230D01*
X0141008Y0169054D01*
X0140054Y0168900D01*
X0139096Y0168770D01*
X0138136Y0168664D01*
X0137173Y0168581D01*
X0136209Y0168521D01*
X0135243Y0168486D01*
X0134277Y0168474D01*
X0133311Y0168486D01*
X0132345Y0168521D01*
X0131381Y0168581D01*
X0130418Y0168664D01*
X0129458Y0168770D01*
X0128500Y0168900D01*
X0127546Y0169054D01*
X0126596Y0169230D01*
X0125651Y0169431D01*
X0124711Y0169654D01*
X0123777Y0169900D01*
X0122848Y0170169D01*
X0121927Y0170461D01*
X0121014Y0170775D01*
X0120108Y0171112D01*
X0119211Y0171471D01*
X0118323Y0171852D01*
X0117444Y0172254D01*
X0116576Y0172678D01*
X0115718Y0173123D01*
X0114872Y0173589D01*
X0114037Y0174075D01*
X0113214Y0174582D01*
X0112404Y0175109D01*
X0111607Y0175656D01*
X0110824Y0176222D01*
X0110055Y0176807D01*
X0109301Y0177411D01*
X0108562Y0178033D01*
X0107838Y0178673D01*
X0107130Y0179330D01*
X0106438Y0180005D01*
X0105763Y0180697D01*
X0105106Y0181405D01*
X0104466Y0182129D01*
X0103844Y0182868D01*
X0103240Y0183622D01*
X0102655Y0184391D01*
X0102089Y0185174D01*
X0101542Y0185971D01*
X0101015Y0186781D01*
X0100508Y0187604D01*
X0100022Y0188439D01*
X0099556Y0189285D01*
X0099111Y0190143D01*
X0098687Y0191011D01*
X0098285Y0191890D01*
X0097904Y0192778D01*
X0097545Y0193675D01*
X0097208Y0194581D01*
X0096894Y0195494D01*
X0096602Y0196415D01*
X0096333Y0197344D01*
X0096087Y0198278D01*
X0095864Y0199218D01*
X0095663Y0200163D01*
X0095487Y0201113D01*
X0095333Y0202067D01*
X0095203Y0203025D01*
X0095097Y0203985D01*
X0095014Y0204948D01*
X0094954Y0205912D01*
X0094919Y0206878D01*
X0094907Y0207844D01*
X0139365Y0133024D02*
X0139365Y0128520D01*
X0142367Y0128520D01*
X0143969Y0128520D02*
X0145470Y0128520D01*
X0144719Y0128520D02*
X0144719Y0133024D01*
X0143969Y0133024D02*
X0145470Y0133024D01*
X0147038Y0132274D02*
X0147038Y0129271D01*
X0147789Y0128520D01*
X0149290Y0128520D01*
X0150041Y0129271D01*
X0150041Y0130772D01*
X0148539Y0130772D01*
X0147038Y0132274D02*
X0147789Y0133024D01*
X0149290Y0133024D01*
X0150041Y0132274D01*
X0151642Y0133024D02*
X0151642Y0128520D01*
X0151642Y0130772D02*
X0154645Y0130772D01*
X0154645Y0133024D02*
X0154645Y0128520D01*
X0157747Y0128520D02*
X0157747Y0133024D01*
X0156246Y0133024D02*
X0159248Y0133024D01*
X0160850Y0127770D02*
X0163852Y0127770D01*
X0165454Y0128520D02*
X0167706Y0128520D01*
X0168456Y0129271D01*
X0168456Y0132274D01*
X0167706Y0133024D01*
X0165454Y0133024D01*
X0165454Y0128520D01*
X0170058Y0128520D02*
X0170058Y0133024D01*
X0172310Y0133024D01*
X0173060Y0132274D01*
X0173060Y0130772D01*
X0172310Y0130022D01*
X0170058Y0130022D01*
X0171559Y0130022D02*
X0173060Y0128520D01*
D15*
X0132633Y0131830D03*
X0132633Y0136830D03*
X0132633Y0121830D03*
X0132633Y0116830D03*
X0122633Y0116830D03*
X0122633Y0121830D03*
X0235133Y0201830D03*
X0235133Y0206830D03*
X0266383Y0144330D03*
X0266383Y0139330D03*
X0253883Y0126830D03*
X0253883Y0121830D03*
X0336383Y0148080D03*
X0336383Y0153080D03*
X0341383Y0118080D03*
X0341383Y0113080D03*
X0371383Y0256830D03*
X0371383Y0261830D03*
X0365133Y0271830D03*
X0365133Y0276830D03*
X0380133Y0276830D03*
X0380133Y0271830D03*
X0352633Y0268080D03*
X0352633Y0263080D03*
X0355133Y0315580D03*
X0355133Y0320580D03*
X0371383Y0320580D03*
X0371383Y0315580D03*
X0380133Y0315580D03*
X0380133Y0320580D03*
X0288883Y0278080D03*
X0288883Y0273080D03*
X0128883Y0374330D03*
X0128883Y0379330D03*
D16*
X0122433Y0378936D02*
X0117829Y0378936D01*
X0120131Y0376634D01*
X0120131Y0379703D01*
X0120131Y0381238D02*
X0119364Y0382773D01*
X0119364Y0383540D01*
X0120131Y0384307D01*
X0121666Y0384307D01*
X0122433Y0383540D01*
X0122433Y0382005D01*
X0121666Y0381238D01*
X0120131Y0381238D02*
X0117829Y0381238D01*
X0117829Y0384307D01*
X0118597Y0375099D02*
X0120131Y0375099D01*
X0120899Y0374332D01*
X0120899Y0372030D01*
X0122433Y0372030D02*
X0117829Y0372030D01*
X0117829Y0374332D01*
X0118597Y0375099D01*
X0120899Y0373565D02*
X0122433Y0375099D01*
X0138529Y0374458D02*
X0144238Y0374458D01*
X0144238Y0371702D02*
X0138529Y0371702D01*
X0138529Y0366958D02*
X0144238Y0366958D01*
X0144238Y0364202D02*
X0138529Y0364202D01*
X0138529Y0359458D02*
X0144238Y0359458D01*
X0144238Y0356702D02*
X0138529Y0356702D01*
X0150333Y0382030D02*
X0150333Y0386634D01*
X0152635Y0386634D01*
X0153403Y0385867D01*
X0153403Y0384332D01*
X0152635Y0383565D01*
X0150333Y0383565D01*
X0151868Y0383565D02*
X0153403Y0382030D01*
X0154937Y0384332D02*
X0158007Y0384332D01*
X0159541Y0384332D02*
X0161843Y0384332D01*
X0162610Y0383565D01*
X0162610Y0382798D01*
X0161843Y0382030D01*
X0160308Y0382030D01*
X0159541Y0382798D01*
X0159541Y0384332D01*
X0161076Y0385867D01*
X0162610Y0386634D01*
X0157239Y0386634D02*
X0157239Y0382030D01*
X0154937Y0384332D02*
X0157239Y0386634D01*
X0232368Y0403506D02*
X0233135Y0402739D01*
X0234670Y0402739D01*
X0235437Y0403506D01*
X0236972Y0402739D02*
X0240041Y0402739D01*
X0238507Y0402739D02*
X0238507Y0407343D01*
X0236972Y0405808D01*
X0235437Y0406575D02*
X0234670Y0407343D01*
X0233135Y0407343D01*
X0232368Y0406575D01*
X0232368Y0403506D01*
X0241576Y0403506D02*
X0242343Y0402739D01*
X0243878Y0402739D01*
X0244645Y0403506D01*
X0244645Y0405041D01*
X0243878Y0405808D01*
X0243110Y0405808D01*
X0241576Y0405041D01*
X0241576Y0407343D01*
X0244645Y0407343D01*
X0270864Y0387549D02*
X0273934Y0387549D01*
X0275468Y0387549D02*
X0277770Y0387549D01*
X0278538Y0386782D01*
X0278538Y0385247D01*
X0277770Y0384480D01*
X0275468Y0384480D01*
X0275468Y0382945D02*
X0275468Y0387549D01*
X0272399Y0387549D02*
X0272399Y0382945D01*
X0277114Y0381299D02*
X0280184Y0381299D01*
X0281718Y0381299D02*
X0284020Y0381299D01*
X0284788Y0380532D01*
X0284788Y0378997D01*
X0284020Y0378230D01*
X0281718Y0378230D01*
X0281718Y0376695D02*
X0281718Y0381299D01*
X0281607Y0382945D02*
X0281607Y0387549D01*
X0280072Y0386014D01*
X0280072Y0382945D02*
X0283142Y0382945D01*
X0284676Y0383712D02*
X0284676Y0384480D01*
X0285444Y0385247D01*
X0286978Y0385247D01*
X0287745Y0384480D01*
X0287745Y0383712D01*
X0286978Y0382945D01*
X0285444Y0382945D01*
X0284676Y0383712D01*
X0285444Y0385247D02*
X0284676Y0386014D01*
X0284676Y0386782D01*
X0285444Y0387549D01*
X0286978Y0387549D01*
X0287745Y0386782D01*
X0287745Y0386014D01*
X0286978Y0385247D01*
X0287572Y0389195D02*
X0290642Y0389195D01*
X0292176Y0389195D02*
X0295245Y0392264D01*
X0295245Y0393032D01*
X0294478Y0393799D01*
X0292944Y0393799D01*
X0292176Y0393032D01*
X0289107Y0393799D02*
X0289107Y0389195D01*
X0292176Y0389195D02*
X0295245Y0389195D01*
X0289107Y0393799D02*
X0287572Y0392264D01*
X0286038Y0391497D02*
X0285270Y0390730D01*
X0282968Y0390730D01*
X0282968Y0389195D02*
X0282968Y0393799D01*
X0285270Y0393799D01*
X0286038Y0393032D01*
X0286038Y0391497D01*
X0281434Y0393799D02*
X0278364Y0393799D01*
X0279899Y0393799D02*
X0279899Y0389195D01*
X0278649Y0381299D02*
X0278649Y0376695D01*
X0277770Y0375049D02*
X0278538Y0374282D01*
X0278538Y0372747D01*
X0277770Y0371980D01*
X0275468Y0371980D01*
X0275468Y0370445D02*
X0275468Y0375049D01*
X0277770Y0375049D01*
X0280072Y0374282D02*
X0280840Y0375049D01*
X0282374Y0375049D01*
X0283142Y0374282D01*
X0283142Y0373514D01*
X0280072Y0370445D01*
X0283142Y0370445D01*
X0284676Y0371212D02*
X0287745Y0374282D01*
X0287745Y0371212D01*
X0286978Y0370445D01*
X0285444Y0370445D01*
X0284676Y0371212D01*
X0284676Y0374282D01*
X0285444Y0375049D01*
X0286978Y0375049D01*
X0287745Y0374282D01*
X0287857Y0376695D02*
X0287857Y0381299D01*
X0286322Y0379764D01*
X0286322Y0376695D02*
X0289392Y0376695D01*
X0290926Y0377462D02*
X0291694Y0376695D01*
X0293228Y0376695D01*
X0293995Y0377462D01*
X0293995Y0380532D01*
X0293228Y0381299D01*
X0291694Y0381299D01*
X0290926Y0380532D01*
X0290926Y0379764D01*
X0291694Y0378997D01*
X0293995Y0378997D01*
X0292461Y0368799D02*
X0292461Y0364195D01*
X0293995Y0364195D02*
X0290926Y0364195D01*
X0289392Y0364195D02*
X0286322Y0364195D01*
X0289392Y0367264D01*
X0289392Y0368032D01*
X0288624Y0368799D01*
X0287090Y0368799D01*
X0286322Y0368032D01*
X0284788Y0368032D02*
X0284788Y0366497D01*
X0284020Y0365730D01*
X0281718Y0365730D01*
X0281718Y0364195D02*
X0281718Y0368799D01*
X0284020Y0368799D01*
X0284788Y0368032D01*
X0280184Y0368799D02*
X0277114Y0368799D01*
X0278649Y0368799D02*
X0278649Y0364195D01*
X0277770Y0362549D02*
X0278538Y0361782D01*
X0278538Y0360247D01*
X0277770Y0359480D01*
X0275468Y0359480D01*
X0275468Y0357945D02*
X0275468Y0362549D01*
X0277770Y0362549D01*
X0280072Y0361782D02*
X0280840Y0362549D01*
X0282374Y0362549D01*
X0283142Y0361782D01*
X0283142Y0361014D01*
X0280072Y0357945D01*
X0283142Y0357945D01*
X0284676Y0357945D02*
X0287745Y0361014D01*
X0287745Y0361782D01*
X0286978Y0362549D01*
X0285444Y0362549D01*
X0284676Y0361782D01*
X0284676Y0357945D02*
X0287745Y0357945D01*
X0287090Y0356299D02*
X0286322Y0355532D01*
X0287090Y0356299D02*
X0288624Y0356299D01*
X0289392Y0355532D01*
X0289392Y0354764D01*
X0286322Y0351695D01*
X0289392Y0351695D01*
X0290926Y0352462D02*
X0291694Y0351695D01*
X0293228Y0351695D01*
X0293995Y0352462D01*
X0293995Y0353230D01*
X0293228Y0353997D01*
X0292461Y0353997D01*
X0293228Y0353997D02*
X0293995Y0354764D01*
X0293995Y0355532D01*
X0293228Y0356299D01*
X0291694Y0356299D01*
X0290926Y0355532D01*
X0284788Y0355532D02*
X0284788Y0353997D01*
X0284020Y0353230D01*
X0281718Y0353230D01*
X0281718Y0351695D02*
X0281718Y0356299D01*
X0284020Y0356299D01*
X0284788Y0355532D01*
X0280184Y0356299D02*
X0277114Y0356299D01*
X0278649Y0356299D02*
X0278649Y0351695D01*
X0272399Y0357945D02*
X0272399Y0362549D01*
X0270864Y0362549D02*
X0273934Y0362549D01*
X0272399Y0370445D02*
X0272399Y0375049D01*
X0270864Y0375049D02*
X0273934Y0375049D01*
X0290926Y0367264D02*
X0292461Y0368799D01*
X0297114Y0331299D02*
X0300184Y0331299D01*
X0301718Y0331299D02*
X0304020Y0331299D01*
X0304788Y0330532D01*
X0304788Y0328997D01*
X0304020Y0328230D01*
X0301718Y0328230D01*
X0301718Y0326695D02*
X0301718Y0331299D01*
X0298649Y0331299D02*
X0298649Y0326695D01*
X0297968Y0322549D02*
X0300270Y0322549D01*
X0301038Y0321782D01*
X0301038Y0320247D01*
X0300270Y0319480D01*
X0297968Y0319480D01*
X0297968Y0317945D02*
X0297968Y0322549D01*
X0296434Y0322549D02*
X0293364Y0322549D01*
X0294899Y0322549D02*
X0294899Y0317945D01*
X0302572Y0317945D02*
X0305642Y0321014D01*
X0305642Y0321782D01*
X0304874Y0322549D01*
X0303340Y0322549D01*
X0302572Y0321782D01*
X0302572Y0317945D02*
X0305642Y0317945D01*
X0307176Y0317945D02*
X0307176Y0318712D01*
X0310245Y0321782D01*
X0310245Y0322549D01*
X0307176Y0322549D01*
X0307857Y0326695D02*
X0307857Y0331299D01*
X0306322Y0329764D01*
X0306322Y0326695D02*
X0309392Y0326695D01*
X0310926Y0326695D02*
X0310926Y0327462D01*
X0313995Y0330532D01*
X0313995Y0331299D01*
X0310926Y0331299D01*
X0311520Y0315049D02*
X0309218Y0315049D01*
X0309218Y0310445D01*
X0309218Y0311980D02*
X0311520Y0311980D01*
X0312288Y0312747D01*
X0312288Y0314282D01*
X0311520Y0315049D01*
X0313822Y0314282D02*
X0314590Y0315049D01*
X0316124Y0315049D01*
X0316892Y0314282D01*
X0316892Y0313514D01*
X0313822Y0310445D01*
X0316892Y0310445D01*
X0318426Y0311212D02*
X0319194Y0310445D01*
X0320728Y0310445D01*
X0321495Y0311212D01*
X0321495Y0312747D01*
X0320728Y0313514D01*
X0319961Y0313514D01*
X0318426Y0312747D01*
X0318426Y0315049D01*
X0321495Y0315049D01*
X0320864Y0315049D02*
X0323934Y0315049D01*
X0325468Y0315049D02*
X0327770Y0315049D01*
X0328538Y0314282D01*
X0328538Y0312747D01*
X0327770Y0311980D01*
X0325468Y0311980D01*
X0325468Y0310445D02*
X0325468Y0315049D01*
X0322399Y0315049D02*
X0322399Y0310445D01*
X0330072Y0310445D02*
X0333142Y0313514D01*
X0333142Y0314282D01*
X0332374Y0315049D01*
X0330840Y0315049D01*
X0330072Y0314282D01*
X0330072Y0310445D02*
X0333142Y0310445D01*
X0334676Y0311212D02*
X0335444Y0310445D01*
X0336978Y0310445D01*
X0337745Y0311212D01*
X0337745Y0311980D01*
X0336978Y0312747D01*
X0334676Y0312747D01*
X0334676Y0311212D01*
X0334676Y0312747D02*
X0336211Y0314282D01*
X0337745Y0315049D01*
X0340272Y0310384D02*
X0342573Y0310384D01*
X0343341Y0309617D01*
X0343341Y0308082D01*
X0342573Y0307315D01*
X0340272Y0307315D01*
X0341806Y0307315D02*
X0343341Y0305780D01*
X0344875Y0306548D02*
X0345643Y0305780D01*
X0347177Y0305780D01*
X0347945Y0306548D01*
X0347945Y0308082D01*
X0347177Y0308849D01*
X0346410Y0308849D01*
X0344875Y0308082D01*
X0344875Y0310384D01*
X0347945Y0310384D01*
X0349479Y0308849D02*
X0351014Y0310384D01*
X0351014Y0305780D01*
X0349479Y0305780D02*
X0352549Y0305780D01*
X0340272Y0305780D02*
X0340272Y0310384D01*
X0361579Y0317030D02*
X0361579Y0319332D01*
X0362347Y0320099D01*
X0363881Y0320099D01*
X0364649Y0319332D01*
X0364649Y0317030D01*
X0366183Y0317030D02*
X0361579Y0317030D01*
X0364649Y0318565D02*
X0366183Y0320099D01*
X0365416Y0321634D02*
X0366183Y0322401D01*
X0366183Y0323936D01*
X0365416Y0324703D01*
X0363881Y0324703D01*
X0363114Y0323936D01*
X0363114Y0323169D01*
X0363881Y0321634D01*
X0361579Y0321634D01*
X0361579Y0324703D01*
X0362347Y0326238D02*
X0361579Y0327005D01*
X0361579Y0328540D01*
X0362347Y0329307D01*
X0363114Y0329307D01*
X0366183Y0326238D01*
X0366183Y0329307D01*
X0374847Y0304307D02*
X0375614Y0304307D01*
X0376381Y0303540D01*
X0377149Y0304307D01*
X0377916Y0304307D01*
X0378683Y0303540D01*
X0378683Y0302005D01*
X0377916Y0301238D01*
X0377916Y0299703D02*
X0378683Y0298936D01*
X0378683Y0297401D01*
X0377916Y0296634D01*
X0376381Y0296634D02*
X0375614Y0298169D01*
X0375614Y0298936D01*
X0376381Y0299703D01*
X0377916Y0299703D01*
X0376381Y0296634D02*
X0374079Y0296634D01*
X0374079Y0299703D01*
X0374847Y0301238D02*
X0374079Y0302005D01*
X0374079Y0303540D01*
X0374847Y0304307D01*
X0376381Y0303540D02*
X0376381Y0302773D01*
X0376381Y0295099D02*
X0377149Y0294332D01*
X0377149Y0292030D01*
X0378683Y0292030D02*
X0374079Y0292030D01*
X0374079Y0294332D01*
X0374847Y0295099D01*
X0376381Y0295099D01*
X0377149Y0293565D02*
X0378683Y0295099D01*
X0361183Y0284790D02*
X0360416Y0285557D01*
X0359649Y0285557D01*
X0358881Y0284790D01*
X0358881Y0282488D01*
X0360416Y0282488D01*
X0361183Y0283255D01*
X0361183Y0284790D01*
X0358881Y0282488D02*
X0357347Y0284023D01*
X0356579Y0285557D01*
X0357347Y0280953D02*
X0356579Y0280186D01*
X0356579Y0278651D01*
X0357347Y0277884D01*
X0357347Y0276349D02*
X0358881Y0276349D01*
X0359649Y0275582D01*
X0359649Y0273280D01*
X0361183Y0273280D02*
X0356579Y0273280D01*
X0356579Y0275582D01*
X0357347Y0276349D01*
X0359649Y0274815D02*
X0361183Y0276349D01*
X0361183Y0277884D02*
X0358114Y0280953D01*
X0357347Y0280953D01*
X0361183Y0280953D02*
X0361183Y0277884D01*
X0361646Y0263219D02*
X0359344Y0263219D01*
X0359344Y0258615D01*
X0359344Y0260150D02*
X0361646Y0260150D01*
X0362414Y0260917D01*
X0362414Y0262452D01*
X0361646Y0263219D01*
X0363948Y0261685D02*
X0365483Y0263219D01*
X0365483Y0258615D01*
X0363948Y0258615D02*
X0367018Y0258615D01*
X0374079Y0259728D02*
X0376381Y0257426D01*
X0376381Y0260496D01*
X0378683Y0259728D02*
X0374079Y0259728D01*
X0374079Y0254357D02*
X0378683Y0254357D01*
X0378683Y0252822D02*
X0378683Y0255892D01*
X0380329Y0256090D02*
X0381097Y0255322D01*
X0380329Y0256090D02*
X0380329Y0257624D01*
X0381097Y0258392D01*
X0381864Y0258392D01*
X0384933Y0255322D01*
X0384933Y0258392D01*
X0384166Y0259926D02*
X0384933Y0260694D01*
X0384933Y0262228D01*
X0384166Y0262996D01*
X0382631Y0262996D01*
X0381864Y0262228D01*
X0381864Y0261461D01*
X0382631Y0259926D01*
X0380329Y0259926D01*
X0380329Y0262996D01*
X0374079Y0254357D02*
X0375614Y0252822D01*
X0374847Y0251288D02*
X0376381Y0251288D01*
X0377149Y0250520D01*
X0377149Y0248218D01*
X0378683Y0248218D02*
X0374079Y0248218D01*
X0374079Y0250520D01*
X0374847Y0251288D01*
X0377149Y0249753D02*
X0378683Y0251288D01*
X0380329Y0250718D02*
X0380329Y0253020D01*
X0381097Y0253788D01*
X0382631Y0253788D01*
X0383399Y0253020D01*
X0383399Y0250718D01*
X0384933Y0250718D02*
X0380329Y0250718D01*
X0383399Y0252253D02*
X0384933Y0253788D01*
X0357810Y0263219D02*
X0354740Y0263219D01*
X0356275Y0263219D02*
X0356275Y0258615D01*
X0351892Y0258032D02*
X0351892Y0257264D01*
X0351124Y0256497D01*
X0351892Y0255730D01*
X0351892Y0254962D01*
X0351124Y0254195D01*
X0349590Y0254195D01*
X0348822Y0254962D01*
X0347288Y0256497D02*
X0346520Y0255730D01*
X0344218Y0255730D01*
X0344218Y0254195D02*
X0344218Y0258799D01*
X0346520Y0258799D01*
X0347288Y0258032D01*
X0347288Y0256497D01*
X0348822Y0258032D02*
X0349590Y0258799D01*
X0351124Y0258799D01*
X0351892Y0258032D01*
X0351124Y0256497D02*
X0350357Y0256497D01*
X0347433Y0263280D02*
X0342829Y0263280D01*
X0342829Y0265582D01*
X0343597Y0266349D01*
X0345131Y0266349D01*
X0345899Y0265582D01*
X0345899Y0263280D01*
X0345899Y0264815D02*
X0347433Y0266349D01*
X0346666Y0267884D02*
X0347433Y0268651D01*
X0347433Y0270186D01*
X0346666Y0270953D01*
X0345899Y0270953D01*
X0345131Y0270186D01*
X0345131Y0269419D01*
X0345131Y0270186D02*
X0344364Y0270953D01*
X0343597Y0270953D01*
X0342829Y0270186D01*
X0342829Y0268651D01*
X0343597Y0267884D01*
X0344364Y0272488D02*
X0342829Y0274023D01*
X0347433Y0274023D01*
X0347433Y0275557D02*
X0347433Y0272488D01*
X0342684Y0258799D02*
X0339614Y0258799D01*
X0341149Y0258799D02*
X0341149Y0254195D01*
X0330642Y0251497D02*
X0327572Y0251497D01*
X0329874Y0253799D01*
X0329874Y0249195D01*
X0326038Y0251497D02*
X0325270Y0250730D01*
X0322968Y0250730D01*
X0322968Y0249195D02*
X0322968Y0253799D01*
X0325270Y0253799D01*
X0326038Y0253032D01*
X0326038Y0251497D01*
X0321434Y0253799D02*
X0318364Y0253799D01*
X0319899Y0253799D02*
X0319899Y0249195D01*
X0297433Y0260718D02*
X0292829Y0260718D01*
X0292829Y0263020D01*
X0293597Y0263788D01*
X0295131Y0263788D01*
X0295899Y0263020D01*
X0295899Y0260718D01*
X0295899Y0262253D02*
X0297433Y0263788D01*
X0296666Y0265322D02*
X0297433Y0266090D01*
X0297433Y0267624D01*
X0296666Y0268392D01*
X0295131Y0268392D01*
X0294364Y0267624D01*
X0294364Y0266857D01*
X0295131Y0265322D01*
X0292829Y0265322D01*
X0292829Y0268392D01*
X0295131Y0269926D02*
X0292829Y0272228D01*
X0297433Y0272228D01*
X0295131Y0272996D02*
X0295131Y0269926D01*
X0306149Y0310445D02*
X0306149Y0315049D01*
X0304614Y0315049D02*
X0307684Y0315049D01*
X0285049Y0315384D02*
X0285049Y0314617D01*
X0281979Y0311548D01*
X0281979Y0310780D01*
X0280445Y0310780D02*
X0277375Y0310780D01*
X0275841Y0310780D02*
X0274306Y0312315D01*
X0275073Y0312315D02*
X0272772Y0312315D01*
X0272772Y0310780D02*
X0272772Y0315384D01*
X0275073Y0315384D01*
X0275841Y0314617D01*
X0275841Y0313082D01*
X0275073Y0312315D01*
X0277375Y0313849D02*
X0278910Y0315384D01*
X0278910Y0310780D01*
X0281979Y0315384D02*
X0285049Y0315384D01*
X0252761Y0293435D02*
X0252761Y0287726D01*
X0250005Y0287726D02*
X0250005Y0293435D01*
X0224478Y0265049D02*
X0225245Y0264282D01*
X0225245Y0263514D01*
X0224478Y0262747D01*
X0225245Y0261980D01*
X0225245Y0261212D01*
X0224478Y0260445D01*
X0222944Y0260445D01*
X0222176Y0261212D01*
X0220642Y0260445D02*
X0217572Y0260445D01*
X0219107Y0260445D02*
X0219107Y0265049D01*
X0217572Y0263514D01*
X0216038Y0262747D02*
X0215270Y0261980D01*
X0212968Y0261980D01*
X0212968Y0260445D02*
X0212968Y0265049D01*
X0215270Y0265049D01*
X0216038Y0264282D01*
X0216038Y0262747D01*
X0222176Y0264282D02*
X0222944Y0265049D01*
X0224478Y0265049D01*
X0224478Y0262747D02*
X0223711Y0262747D01*
X0211434Y0265049D02*
X0208364Y0265049D01*
X0209899Y0265049D02*
X0209899Y0260445D01*
X0182145Y0273506D02*
X0181378Y0272739D01*
X0179843Y0272739D01*
X0179076Y0273506D01*
X0177541Y0272739D02*
X0174472Y0272739D01*
X0177541Y0275808D01*
X0177541Y0276575D01*
X0176774Y0277343D01*
X0175239Y0277343D01*
X0174472Y0276575D01*
X0172937Y0276575D02*
X0172170Y0277343D01*
X0170635Y0277343D01*
X0169868Y0276575D01*
X0169868Y0273506D01*
X0170635Y0272739D01*
X0172170Y0272739D01*
X0172937Y0273506D01*
X0179076Y0276575D02*
X0179843Y0277343D01*
X0181378Y0277343D01*
X0182145Y0276575D01*
X0182145Y0275808D01*
X0181378Y0275041D01*
X0182145Y0274273D01*
X0182145Y0273506D01*
X0181378Y0275041D02*
X0180610Y0275041D01*
X0159961Y0268799D02*
X0159961Y0264195D01*
X0161495Y0264195D02*
X0158426Y0264195D01*
X0156892Y0264195D02*
X0153822Y0264195D01*
X0155357Y0264195D02*
X0155357Y0268799D01*
X0153822Y0267264D01*
X0152288Y0266497D02*
X0151520Y0265730D01*
X0149218Y0265730D01*
X0149218Y0264195D02*
X0149218Y0268799D01*
X0151520Y0268799D01*
X0152288Y0268032D01*
X0152288Y0266497D01*
X0147684Y0268799D02*
X0144614Y0268799D01*
X0146149Y0268799D02*
X0146149Y0264195D01*
X0158426Y0267264D02*
X0159961Y0268799D01*
X0133625Y0231942D02*
X0133625Y0228873D01*
X0133625Y0172887D02*
X0133625Y0169818D01*
X0132091Y0171353D02*
X0135160Y0171353D01*
X0125416Y0140496D02*
X0122347Y0140496D01*
X0121579Y0139728D01*
X0121579Y0138194D01*
X0122347Y0137426D01*
X0123114Y0137426D01*
X0123881Y0138194D01*
X0123881Y0140496D01*
X0125416Y0140496D02*
X0126183Y0139728D01*
X0126183Y0138194D01*
X0125416Y0137426D01*
X0126183Y0135892D02*
X0126183Y0132822D01*
X0126183Y0131288D02*
X0124649Y0129753D01*
X0124649Y0130520D02*
X0124649Y0128218D01*
X0126183Y0128218D02*
X0121579Y0128218D01*
X0121579Y0130520D01*
X0122347Y0131288D01*
X0123881Y0131288D01*
X0124649Y0130520D01*
X0123114Y0132822D02*
X0121579Y0134357D01*
X0126183Y0134357D01*
X0115416Y0122996D02*
X0116183Y0122228D01*
X0116183Y0120694D01*
X0115416Y0119926D01*
X0114649Y0119926D01*
X0113881Y0120694D01*
X0113881Y0122228D01*
X0114649Y0122996D01*
X0115416Y0122996D01*
X0113881Y0122228D02*
X0113114Y0122996D01*
X0112347Y0122996D01*
X0111579Y0122228D01*
X0111579Y0120694D01*
X0112347Y0119926D01*
X0113114Y0119926D01*
X0113881Y0120694D01*
X0116183Y0118392D02*
X0116183Y0115322D01*
X0116183Y0113788D02*
X0114649Y0112253D01*
X0114649Y0113020D02*
X0114649Y0110718D01*
X0116183Y0110718D02*
X0111579Y0110718D01*
X0111579Y0113020D01*
X0112347Y0113788D01*
X0113881Y0113788D01*
X0114649Y0113020D01*
X0113114Y0115322D02*
X0111579Y0116857D01*
X0116183Y0116857D01*
X0136579Y0118194D02*
X0136579Y0119728D01*
X0137347Y0120496D01*
X0140416Y0117426D01*
X0141183Y0118194D01*
X0141183Y0119728D01*
X0140416Y0120496D01*
X0137347Y0120496D01*
X0136579Y0118194D02*
X0137347Y0117426D01*
X0140416Y0117426D01*
X0141183Y0115892D02*
X0141183Y0112822D01*
X0138114Y0115892D01*
X0137347Y0115892D01*
X0136579Y0115124D01*
X0136579Y0113590D01*
X0137347Y0112822D01*
X0137347Y0111288D02*
X0138881Y0111288D01*
X0139649Y0110520D01*
X0139649Y0108218D01*
X0141183Y0108218D02*
X0136579Y0108218D01*
X0136579Y0110520D01*
X0137347Y0111288D01*
X0139649Y0109753D02*
X0141183Y0111288D01*
X0171914Y0111596D02*
X0176518Y0111596D01*
X0176518Y0114665D02*
X0171914Y0114665D01*
X0171914Y0116967D01*
X0172682Y0117735D01*
X0174216Y0117735D01*
X0174984Y0116967D01*
X0174984Y0114665D01*
X0171914Y0113131D02*
X0171914Y0110061D01*
X0172682Y0119269D02*
X0171914Y0120036D01*
X0171914Y0121571D01*
X0172682Y0122338D01*
X0173449Y0122338D01*
X0176518Y0119269D01*
X0176518Y0122338D01*
X0175751Y0123873D02*
X0174984Y0123873D01*
X0174216Y0124640D01*
X0174216Y0126175D01*
X0174984Y0126942D01*
X0175751Y0126942D01*
X0176518Y0126175D01*
X0176518Y0124640D01*
X0175751Y0123873D01*
X0174216Y0124640D02*
X0173449Y0123873D01*
X0172682Y0123873D01*
X0171914Y0124640D01*
X0171914Y0126175D01*
X0172682Y0126942D01*
X0173449Y0126942D01*
X0174216Y0126175D01*
X0224079Y0200718D02*
X0224079Y0203020D01*
X0224847Y0203788D01*
X0226381Y0203788D01*
X0227149Y0203020D01*
X0227149Y0200718D01*
X0228683Y0200718D02*
X0224079Y0200718D01*
X0227149Y0202253D02*
X0228683Y0203788D01*
X0228683Y0205322D02*
X0228683Y0208392D01*
X0228683Y0209926D02*
X0228683Y0212996D01*
X0228683Y0211461D02*
X0224079Y0211461D01*
X0225614Y0209926D01*
X0224079Y0206857D02*
X0228683Y0206857D01*
X0225614Y0205322D02*
X0224079Y0206857D01*
X0266125Y0177884D02*
X0266125Y0173280D01*
X0266125Y0174815D02*
X0268427Y0174815D01*
X0269195Y0175582D01*
X0269195Y0177117D01*
X0268427Y0177884D01*
X0266125Y0177884D01*
X0267660Y0174815D02*
X0269195Y0173280D01*
X0270729Y0175582D02*
X0273031Y0177884D01*
X0273031Y0173280D01*
X0273799Y0175582D02*
X0270729Y0175582D01*
X0269875Y0180780D02*
X0269875Y0185384D01*
X0272177Y0185384D01*
X0272945Y0184617D01*
X0272945Y0183082D01*
X0272177Y0182315D01*
X0269875Y0182315D01*
X0271410Y0182315D02*
X0272945Y0180780D01*
X0274479Y0181548D02*
X0275247Y0180780D01*
X0276781Y0180780D01*
X0277549Y0181548D01*
X0277549Y0182315D01*
X0276781Y0183082D01*
X0276014Y0183082D01*
X0276781Y0183082D02*
X0277549Y0183849D01*
X0277549Y0184617D01*
X0276781Y0185384D01*
X0275247Y0185384D01*
X0274479Y0184617D01*
X0293364Y0202549D02*
X0296434Y0202549D01*
X0297968Y0202549D02*
X0300270Y0202549D01*
X0301038Y0201782D01*
X0301038Y0200247D01*
X0300270Y0199480D01*
X0297968Y0199480D01*
X0297968Y0197945D02*
X0297968Y0202549D01*
X0297968Y0204195D02*
X0297968Y0208799D01*
X0300270Y0208799D01*
X0301038Y0208032D01*
X0301038Y0206497D01*
X0300270Y0205730D01*
X0297968Y0205730D01*
X0296434Y0208799D02*
X0293364Y0208799D01*
X0294899Y0208799D02*
X0294899Y0204195D01*
X0294899Y0202549D02*
X0294899Y0197945D01*
X0302572Y0198712D02*
X0303340Y0197945D01*
X0304874Y0197945D01*
X0305642Y0198712D01*
X0305642Y0200247D01*
X0304874Y0201014D01*
X0304107Y0201014D01*
X0302572Y0200247D01*
X0302572Y0202549D01*
X0305642Y0202549D01*
X0304874Y0204195D02*
X0303340Y0204195D01*
X0302572Y0204962D01*
X0302572Y0205730D01*
X0303340Y0206497D01*
X0304874Y0206497D01*
X0305642Y0205730D01*
X0305642Y0204962D01*
X0304874Y0204195D01*
X0304874Y0206497D02*
X0305642Y0207264D01*
X0305642Y0208032D01*
X0304874Y0208799D01*
X0303340Y0208799D01*
X0302572Y0208032D01*
X0302572Y0207264D01*
X0303340Y0206497D01*
X0302572Y0210445D02*
X0302572Y0211212D01*
X0305642Y0214282D01*
X0305642Y0215049D01*
X0302572Y0215049D01*
X0301038Y0214282D02*
X0301038Y0212747D01*
X0300270Y0211980D01*
X0297968Y0211980D01*
X0297968Y0210445D02*
X0297968Y0215049D01*
X0300270Y0215049D01*
X0301038Y0214282D01*
X0296434Y0215049D02*
X0293364Y0215049D01*
X0294899Y0215049D02*
X0294899Y0210445D01*
X0312772Y0164134D02*
X0315073Y0164134D01*
X0315841Y0163367D01*
X0315841Y0161832D01*
X0315073Y0161065D01*
X0312772Y0161065D01*
X0314306Y0161065D02*
X0315841Y0159530D01*
X0317375Y0160298D02*
X0318143Y0159530D01*
X0319677Y0159530D01*
X0320445Y0160298D01*
X0320445Y0161065D01*
X0319677Y0161832D01*
X0318910Y0161832D01*
X0319677Y0161832D02*
X0320445Y0162599D01*
X0320445Y0163367D01*
X0319677Y0164134D01*
X0318143Y0164134D01*
X0317375Y0163367D01*
X0321979Y0163367D02*
X0321979Y0160298D01*
X0325049Y0163367D01*
X0325049Y0160298D01*
X0324281Y0159530D01*
X0322747Y0159530D01*
X0321979Y0160298D01*
X0321979Y0163367D02*
X0322747Y0164134D01*
X0324281Y0164134D01*
X0325049Y0163367D01*
X0312772Y0164134D02*
X0312772Y0159530D01*
X0313403Y0141634D02*
X0310333Y0141634D01*
X0311868Y0141634D02*
X0311868Y0137030D01*
X0314937Y0137030D02*
X0318007Y0140099D01*
X0318007Y0140867D01*
X0317239Y0141634D01*
X0315705Y0141634D01*
X0314937Y0140867D01*
X0314937Y0137030D02*
X0318007Y0137030D01*
X0318031Y0119134D02*
X0316497Y0119134D01*
X0315729Y0118367D01*
X0314195Y0118367D02*
X0314195Y0116832D01*
X0313427Y0116065D01*
X0311125Y0116065D01*
X0311125Y0114530D02*
X0311125Y0119134D01*
X0313427Y0119134D01*
X0314195Y0118367D01*
X0312660Y0116065D02*
X0314195Y0114530D01*
X0315729Y0114530D02*
X0318799Y0117599D01*
X0318799Y0118367D01*
X0318031Y0119134D01*
X0318799Y0114530D02*
X0315729Y0114530D01*
X0300049Y0125298D02*
X0299281Y0124530D01*
X0297747Y0124530D01*
X0296979Y0125298D01*
X0300049Y0128367D01*
X0300049Y0125298D01*
X0300049Y0128367D02*
X0299281Y0129134D01*
X0297747Y0129134D01*
X0296979Y0128367D01*
X0296979Y0125298D01*
X0295445Y0126832D02*
X0292375Y0126832D01*
X0294677Y0129134D01*
X0294677Y0124530D01*
X0290841Y0124530D02*
X0289306Y0126065D01*
X0290073Y0126065D02*
X0287772Y0126065D01*
X0287772Y0124530D02*
X0287772Y0129134D01*
X0290073Y0129134D01*
X0290841Y0128367D01*
X0290841Y0126832D01*
X0290073Y0126065D01*
X0289739Y0116634D02*
X0287437Y0114332D01*
X0290507Y0114332D01*
X0292041Y0112798D02*
X0292808Y0112030D01*
X0294343Y0112030D01*
X0295110Y0112798D01*
X0295110Y0113565D01*
X0294343Y0114332D01*
X0293576Y0114332D01*
X0294343Y0114332D02*
X0295110Y0115099D01*
X0295110Y0115867D01*
X0294343Y0116634D01*
X0292808Y0116634D01*
X0292041Y0115867D01*
X0289739Y0116634D02*
X0289739Y0112030D01*
X0285903Y0112030D02*
X0284368Y0113565D01*
X0285135Y0113565D02*
X0282833Y0113565D01*
X0282833Y0112030D02*
X0282833Y0116634D01*
X0285135Y0116634D01*
X0285903Y0115867D01*
X0285903Y0114332D01*
X0285135Y0113565D01*
X0280110Y0114332D02*
X0277041Y0114332D01*
X0279343Y0116634D01*
X0279343Y0112030D01*
X0275507Y0114332D02*
X0272437Y0114332D01*
X0274739Y0116634D01*
X0274739Y0112030D01*
X0270903Y0112030D02*
X0269368Y0113565D01*
X0270135Y0113565D02*
X0267833Y0113565D01*
X0267833Y0112030D02*
X0267833Y0116634D01*
X0270135Y0116634D01*
X0270903Y0115867D01*
X0270903Y0114332D01*
X0270135Y0113565D01*
X0262433Y0113218D02*
X0257829Y0113218D01*
X0257829Y0115520D01*
X0258597Y0116288D01*
X0260131Y0116288D01*
X0260899Y0115520D01*
X0260899Y0113218D01*
X0260899Y0114753D02*
X0262433Y0116288D01*
X0262433Y0117822D02*
X0259364Y0120892D01*
X0258597Y0120892D01*
X0257829Y0120124D01*
X0257829Y0118590D01*
X0258597Y0117822D01*
X0262433Y0117822D02*
X0262433Y0120892D01*
X0262433Y0122426D02*
X0262433Y0125496D01*
X0262433Y0123961D02*
X0257829Y0123961D01*
X0259364Y0122426D01*
X0259022Y0129530D02*
X0259022Y0134134D01*
X0261323Y0134134D01*
X0262091Y0133367D01*
X0262091Y0131832D01*
X0261323Y0131065D01*
X0259022Y0131065D01*
X0260556Y0131065D02*
X0262091Y0129530D01*
X0263625Y0131832D02*
X0266695Y0131832D01*
X0268229Y0133367D02*
X0268997Y0134134D01*
X0270531Y0134134D01*
X0271299Y0133367D01*
X0271299Y0132599D01*
X0268229Y0129530D01*
X0271299Y0129530D01*
X0265927Y0129530D02*
X0265927Y0134134D01*
X0263625Y0131832D01*
X0339022Y0145780D02*
X0339022Y0150384D01*
X0341323Y0150384D01*
X0342091Y0149617D01*
X0342091Y0148082D01*
X0341323Y0147315D01*
X0339022Y0147315D01*
X0340556Y0147315D02*
X0342091Y0145780D01*
X0343625Y0146548D02*
X0344393Y0145780D01*
X0345927Y0145780D01*
X0346695Y0146548D01*
X0346695Y0148082D01*
X0345927Y0148849D01*
X0345160Y0148849D01*
X0343625Y0148082D01*
X0343625Y0150384D01*
X0346695Y0150384D01*
X0348229Y0150384D02*
X0348229Y0148082D01*
X0349764Y0148849D01*
X0350531Y0148849D01*
X0351299Y0148082D01*
X0351299Y0146548D01*
X0350531Y0145780D01*
X0348997Y0145780D01*
X0348229Y0146548D01*
X0348229Y0150384D02*
X0351299Y0150384D01*
X0352090Y0157945D02*
X0353624Y0157945D01*
X0354392Y0158712D01*
X0354392Y0159480D01*
X0353624Y0160247D01*
X0351322Y0160247D01*
X0351322Y0158712D01*
X0352090Y0157945D01*
X0351322Y0160247D02*
X0352857Y0161782D01*
X0354392Y0162549D01*
X0349788Y0161782D02*
X0349788Y0160247D01*
X0349020Y0159480D01*
X0346718Y0159480D01*
X0346718Y0157945D02*
X0346718Y0162549D01*
X0349020Y0162549D01*
X0349788Y0161782D01*
X0345184Y0162549D02*
X0342114Y0162549D01*
X0343649Y0162549D02*
X0343649Y0157945D01*
X0344083Y0140384D02*
X0347153Y0140384D01*
X0345618Y0140384D02*
X0345618Y0135780D01*
X0348687Y0135780D02*
X0351757Y0135780D01*
X0350222Y0135780D02*
X0350222Y0140384D01*
X0348687Y0138849D01*
X0359899Y0147945D02*
X0359899Y0152549D01*
X0358364Y0152549D02*
X0361434Y0152549D01*
X0362968Y0152549D02*
X0365270Y0152549D01*
X0366038Y0151782D01*
X0366038Y0150247D01*
X0365270Y0149480D01*
X0362968Y0149480D01*
X0362968Y0147945D02*
X0362968Y0152549D01*
X0367572Y0151782D02*
X0367572Y0151014D01*
X0368340Y0150247D01*
X0370642Y0150247D01*
X0370642Y0148712D02*
X0370642Y0151782D01*
X0369874Y0152549D01*
X0368340Y0152549D01*
X0367572Y0151782D01*
X0367572Y0148712D02*
X0368340Y0147945D01*
X0369874Y0147945D01*
X0370642Y0148712D01*
X0376149Y0164195D02*
X0376149Y0168799D01*
X0374614Y0168799D02*
X0377684Y0168799D01*
X0379218Y0168799D02*
X0381520Y0168799D01*
X0382288Y0168032D01*
X0382288Y0166497D01*
X0381520Y0165730D01*
X0379218Y0165730D01*
X0379218Y0164195D02*
X0379218Y0168799D01*
X0383822Y0168032D02*
X0384590Y0168799D01*
X0386124Y0168799D01*
X0386892Y0168032D01*
X0386892Y0167264D01*
X0383822Y0164195D01*
X0386892Y0164195D01*
X0367423Y0190118D02*
X0367423Y0193187D01*
X0366656Y0194722D02*
X0367423Y0195489D01*
X0367423Y0197024D01*
X0366656Y0197791D01*
X0365889Y0197791D01*
X0365122Y0197024D01*
X0365122Y0195489D01*
X0364354Y0194722D01*
X0363587Y0194722D01*
X0362820Y0195489D01*
X0362820Y0197024D01*
X0363587Y0197791D01*
X0362820Y0199325D02*
X0362820Y0201627D01*
X0363587Y0202395D01*
X0365122Y0202395D01*
X0365889Y0201627D01*
X0365889Y0199325D01*
X0367423Y0199325D02*
X0362820Y0199325D01*
X0365122Y0203929D02*
X0365122Y0206999D01*
X0364354Y0208533D02*
X0362820Y0210068D01*
X0367423Y0210068D01*
X0367423Y0208533D02*
X0367423Y0211603D01*
X0367423Y0213137D02*
X0364354Y0216207D01*
X0363587Y0216207D01*
X0362820Y0215439D01*
X0362820Y0213905D01*
X0363587Y0213137D01*
X0367423Y0213137D02*
X0367423Y0216207D01*
X0367423Y0217741D02*
X0367423Y0220810D01*
X0365122Y0219276D02*
X0365122Y0217741D01*
X0367423Y0217741D02*
X0362820Y0217741D01*
X0362820Y0220810D01*
X0356054Y0214449D02*
X0356054Y0209845D01*
X0357588Y0209845D02*
X0354519Y0209845D01*
X0352984Y0209845D02*
X0351450Y0211380D01*
X0352217Y0211380D02*
X0349915Y0211380D01*
X0349915Y0209845D02*
X0349915Y0214449D01*
X0352217Y0214449D01*
X0352984Y0213682D01*
X0352984Y0212147D01*
X0352217Y0211380D01*
X0354519Y0212914D02*
X0356054Y0214449D01*
X0348381Y0214449D02*
X0346846Y0214449D01*
X0347613Y0214449D02*
X0347613Y0210612D01*
X0346846Y0209845D01*
X0346079Y0209845D01*
X0345311Y0210612D01*
X0343777Y0210612D02*
X0343777Y0211380D01*
X0343009Y0212147D01*
X0341475Y0212147D01*
X0340707Y0212914D01*
X0340707Y0213682D01*
X0341475Y0214449D01*
X0343009Y0214449D01*
X0343777Y0213682D01*
X0343777Y0210612D02*
X0343009Y0209845D01*
X0341475Y0209845D01*
X0340707Y0210612D01*
X0362820Y0193187D02*
X0362820Y0190118D01*
X0367423Y0190118D01*
X0365122Y0190118D02*
X0365122Y0191652D01*
X0352264Y0117884D02*
X0352264Y0113280D01*
X0350729Y0113280D02*
X0353799Y0113280D01*
X0350729Y0116349D02*
X0352264Y0117884D01*
X0349195Y0117117D02*
X0349195Y0115582D01*
X0348427Y0114815D01*
X0346125Y0114815D01*
X0346125Y0113280D02*
X0346125Y0117884D01*
X0348427Y0117884D01*
X0349195Y0117117D01*
X0347660Y0114815D02*
X0349195Y0113280D01*
X0243878Y0332739D02*
X0243878Y0337343D01*
X0241576Y0335041D01*
X0244645Y0335041D01*
X0240041Y0332739D02*
X0236972Y0332739D01*
X0238507Y0332739D02*
X0238507Y0337343D01*
X0236972Y0335808D01*
X0235437Y0336575D02*
X0234670Y0337343D01*
X0233135Y0337343D01*
X0232368Y0336575D01*
X0232368Y0333506D01*
X0233135Y0332739D01*
X0234670Y0332739D01*
X0235437Y0333506D01*
X0296149Y0415445D02*
X0296149Y0420049D01*
X0294614Y0420049D02*
X0297684Y0420049D01*
X0299218Y0420049D02*
X0299218Y0415445D01*
X0299218Y0416980D02*
X0301520Y0416980D01*
X0302288Y0417747D01*
X0302288Y0419282D01*
X0301520Y0420049D01*
X0299218Y0420049D01*
X0303822Y0418514D02*
X0305357Y0420049D01*
X0305357Y0415445D01*
X0303822Y0415445D02*
X0306892Y0415445D01*
X0308426Y0416212D02*
X0308426Y0419282D01*
X0309194Y0420049D01*
X0310728Y0420049D01*
X0311495Y0419282D01*
X0308426Y0416212D01*
X0309194Y0415445D01*
X0310728Y0415445D01*
X0311495Y0416212D01*
X0311495Y0419282D01*
X0312572Y0429195D02*
X0315642Y0432264D01*
X0315642Y0433032D01*
X0314874Y0433799D01*
X0313340Y0433799D01*
X0312572Y0433032D01*
X0311038Y0433032D02*
X0311038Y0431497D01*
X0310270Y0430730D01*
X0307968Y0430730D01*
X0307968Y0429195D02*
X0307968Y0433799D01*
X0310270Y0433799D01*
X0311038Y0433032D01*
X0312572Y0429195D02*
X0315642Y0429195D01*
X0317176Y0431497D02*
X0320245Y0431497D01*
X0319478Y0429195D02*
X0319478Y0433799D01*
X0317176Y0431497D01*
X0306434Y0433799D02*
X0303364Y0433799D01*
X0304899Y0433799D02*
X0304899Y0429195D01*
X0341579Y0445298D02*
X0342347Y0444530D01*
X0345416Y0444530D01*
X0346183Y0445298D01*
X0346183Y0446832D01*
X0345416Y0447599D01*
X0346183Y0449134D02*
X0343114Y0452203D01*
X0342347Y0452203D01*
X0341579Y0451436D01*
X0341579Y0449901D01*
X0342347Y0449134D01*
X0342347Y0447599D02*
X0341579Y0446832D01*
X0341579Y0445298D01*
X0346183Y0449134D02*
X0346183Y0452203D01*
X0345416Y0453738D02*
X0346183Y0454505D01*
X0346183Y0456040D01*
X0345416Y0456807D01*
X0342347Y0456807D01*
X0341579Y0456040D01*
X0341579Y0454505D01*
X0342347Y0453738D01*
X0343114Y0453738D01*
X0343881Y0454505D01*
X0343881Y0456807D01*
X0343164Y0458811D02*
X0343164Y0461881D01*
X0343164Y0463415D02*
X0343164Y0465717D01*
X0343932Y0466485D01*
X0345466Y0466485D01*
X0346234Y0465717D01*
X0346234Y0463415D01*
X0347768Y0463415D02*
X0343164Y0463415D01*
X0343164Y0460346D02*
X0347768Y0460346D01*
X0350664Y0460346D02*
X0355268Y0460346D01*
X0358164Y0460346D02*
X0362768Y0460346D01*
X0362768Y0463415D02*
X0358164Y0463415D01*
X0358164Y0465717D01*
X0358932Y0466485D01*
X0360466Y0466485D01*
X0361234Y0465717D01*
X0361234Y0463415D01*
X0358164Y0461881D02*
X0358164Y0458811D01*
X0355416Y0456807D02*
X0356183Y0456040D01*
X0356183Y0454505D01*
X0355416Y0453738D01*
X0352347Y0456807D01*
X0355416Y0456807D01*
X0355416Y0453738D02*
X0352347Y0453738D01*
X0351579Y0454505D01*
X0351579Y0456040D01*
X0352347Y0456807D01*
X0350664Y0458811D02*
X0350664Y0461881D01*
X0350664Y0463415D02*
X0350664Y0465717D01*
X0351432Y0466485D01*
X0352966Y0466485D01*
X0353734Y0465717D01*
X0353734Y0463415D01*
X0355268Y0463415D02*
X0350664Y0463415D01*
X0352199Y0468019D02*
X0350664Y0469554D01*
X0355268Y0469554D01*
X0355268Y0471088D02*
X0355268Y0468019D01*
X0358164Y0469554D02*
X0362768Y0469554D01*
X0362768Y0471088D02*
X0362768Y0468019D01*
X0359699Y0468019D02*
X0358164Y0469554D01*
X0360466Y0472623D02*
X0360466Y0474925D01*
X0361234Y0475692D01*
X0362001Y0475692D01*
X0362768Y0474925D01*
X0362768Y0473390D01*
X0362001Y0472623D01*
X0360466Y0472623D01*
X0358932Y0474158D01*
X0358164Y0475692D01*
X0355268Y0474925D02*
X0355268Y0473390D01*
X0354501Y0472623D01*
X0352966Y0472623D02*
X0352199Y0474158D01*
X0352199Y0474925D01*
X0352966Y0475692D01*
X0354501Y0475692D01*
X0355268Y0474925D01*
X0352966Y0472623D02*
X0350664Y0472623D01*
X0350664Y0475692D01*
X0347768Y0474925D02*
X0343164Y0474925D01*
X0345466Y0472623D01*
X0345466Y0475692D01*
X0347768Y0471088D02*
X0347768Y0468019D01*
X0347768Y0469554D02*
X0343164Y0469554D01*
X0344699Y0468019D01*
X0352347Y0452203D02*
X0353114Y0452203D01*
X0353881Y0451436D01*
X0354649Y0452203D01*
X0355416Y0452203D01*
X0356183Y0451436D01*
X0356183Y0449901D01*
X0355416Y0449134D01*
X0355416Y0447599D02*
X0356183Y0446832D01*
X0356183Y0445298D01*
X0355416Y0444530D01*
X0352347Y0444530D01*
X0351579Y0445298D01*
X0351579Y0446832D01*
X0352347Y0447599D01*
X0352347Y0449134D02*
X0351579Y0449901D01*
X0351579Y0451436D01*
X0352347Y0452203D01*
X0353881Y0451436D02*
X0353881Y0450669D01*
X0373529Y0430708D02*
X0379238Y0430708D01*
X0379238Y0427952D02*
X0373529Y0427952D01*
X0373529Y0419458D02*
X0379238Y0419458D01*
X0379238Y0416702D02*
X0373529Y0416702D01*
D17*
X0296383Y0304330D03*
X0291383Y0304330D03*
X0288883Y0184330D03*
X0283883Y0184330D03*
X0286383Y0174330D03*
X0291383Y0174330D03*
X0293883Y0134330D03*
X0298883Y0134330D03*
X0283883Y0129330D03*
X0278883Y0129330D03*
X0276383Y0120580D03*
X0271383Y0120580D03*
X0326383Y0118080D03*
X0331383Y0118080D03*
X0328883Y0161830D03*
X0333883Y0161830D03*
X0143883Y0381830D03*
X0138883Y0381830D03*
D18*
X0321383Y0135780D03*
X0317683Y0127880D03*
X0325083Y0127880D03*
X0332683Y0127880D03*
X0340083Y0127880D03*
X0336383Y0135780D03*
D19*
X0265133Y0238080D03*
X0255133Y0238080D03*
X0245133Y0238080D03*
X0235133Y0238080D03*
X0225133Y0238080D03*
X0215133Y0238080D03*
X0159415Y0119820D03*
X0149415Y0119820D03*
X0217766Y0374989D03*
X0227766Y0374989D03*
X0237766Y0374989D03*
X0247766Y0374989D03*
X0247764Y0445724D03*
X0237764Y0445724D03*
X0227764Y0445724D03*
X0217764Y0445724D03*
D20*
X0282708Y0298655D03*
D21*
X0277633Y0303553D03*
X0272633Y0303553D03*
X0267633Y0303553D03*
X0262633Y0303553D03*
X0262633Y0277608D03*
X0267633Y0277608D03*
X0272633Y0277608D03*
X0277633Y0277608D03*
D22*
X0251383Y0288120D03*
X0251383Y0293041D03*
D23*
X0165246Y0354968D02*
X0164246Y0354968D01*
X0164746Y0355468D01*
X0164246Y0354968D02*
X0164746Y0354468D01*
X0163469Y0354566D02*
X0162801Y0355568D01*
X0163469Y0355568D02*
X0162801Y0354566D01*
X0163135Y0356536D02*
X0163135Y0357037D01*
X0163469Y0357371D01*
X0163469Y0357538D01*
X0163135Y0357037D02*
X0162801Y0357371D01*
X0162801Y0357538D01*
X0162802Y0358506D02*
X0163469Y0358506D01*
X0162802Y0358506D02*
X0162802Y0358673D01*
X0163469Y0359340D01*
X0163469Y0359507D01*
X0162802Y0359507D01*
X0164390Y0359011D02*
X0164392Y0359031D01*
X0164398Y0359049D01*
X0164407Y0359067D01*
X0164419Y0359082D01*
X0164434Y0359094D01*
X0164452Y0359103D01*
X0164470Y0359109D01*
X0164490Y0359111D01*
X0164510Y0359109D01*
X0164528Y0359103D01*
X0164546Y0359094D01*
X0164561Y0359082D01*
X0164573Y0359067D01*
X0164582Y0359049D01*
X0164588Y0359031D01*
X0164590Y0359011D01*
X0164588Y0358991D01*
X0164582Y0358973D01*
X0164573Y0358955D01*
X0164561Y0358940D01*
X0164546Y0358928D01*
X0164528Y0358919D01*
X0164510Y0358913D01*
X0164490Y0358911D01*
X0164470Y0358913D01*
X0164452Y0358919D01*
X0164434Y0358928D01*
X0164419Y0358940D01*
X0164407Y0358955D01*
X0164398Y0358973D01*
X0164392Y0358991D01*
X0164390Y0359011D01*
X0163990Y0359011D02*
X0163992Y0359055D01*
X0163998Y0359099D01*
X0164008Y0359142D01*
X0164021Y0359184D01*
X0164038Y0359225D01*
X0164059Y0359264D01*
X0164083Y0359301D01*
X0164110Y0359336D01*
X0164140Y0359368D01*
X0164173Y0359398D01*
X0164209Y0359424D01*
X0164246Y0359448D01*
X0164286Y0359467D01*
X0164327Y0359484D01*
X0164370Y0359496D01*
X0164413Y0359505D01*
X0164457Y0359510D01*
X0164501Y0359511D01*
X0164545Y0359508D01*
X0164589Y0359501D01*
X0164632Y0359490D01*
X0164674Y0359476D01*
X0164714Y0359458D01*
X0164753Y0359436D01*
X0164789Y0359412D01*
X0164823Y0359384D01*
X0164855Y0359353D01*
X0164884Y0359319D01*
X0164910Y0359283D01*
X0164932Y0359245D01*
X0164951Y0359205D01*
X0164966Y0359163D01*
X0164978Y0359121D01*
X0164986Y0359077D01*
X0164990Y0359033D01*
X0164990Y0358989D01*
X0164986Y0358945D01*
X0164978Y0358901D01*
X0164966Y0358859D01*
X0164951Y0358817D01*
X0164932Y0358777D01*
X0164910Y0358739D01*
X0164884Y0358703D01*
X0164855Y0358669D01*
X0164823Y0358638D01*
X0164789Y0358610D01*
X0164753Y0358586D01*
X0164714Y0358564D01*
X0164674Y0358546D01*
X0164632Y0358532D01*
X0164589Y0358521D01*
X0164545Y0358514D01*
X0164501Y0358511D01*
X0164457Y0358512D01*
X0164413Y0358517D01*
X0164370Y0358526D01*
X0164327Y0358538D01*
X0164286Y0358555D01*
X0164246Y0358574D01*
X0164209Y0358598D01*
X0164173Y0358624D01*
X0164140Y0358654D01*
X0164110Y0358686D01*
X0164083Y0358721D01*
X0164059Y0358758D01*
X0164038Y0358797D01*
X0164021Y0358838D01*
X0164008Y0358880D01*
X0163998Y0358923D01*
X0163992Y0358967D01*
X0163990Y0359011D01*
X0164596Y0357511D02*
X0164596Y0356511D01*
X0164096Y0357011D01*
X0164596Y0356511D02*
X0165096Y0357011D01*
X0232221Y0119816D02*
X0232822Y0119816D01*
X0232522Y0119816D02*
X0232522Y0118314D01*
X0232221Y0118014D01*
X0231921Y0118014D01*
X0231621Y0118314D01*
X0233462Y0118314D02*
X0233763Y0118014D01*
X0234363Y0118014D01*
X0234663Y0118314D01*
X0234663Y0118615D01*
X0234363Y0118915D01*
X0234063Y0118915D01*
X0234363Y0118915D02*
X0234663Y0119215D01*
X0234663Y0119516D01*
X0234363Y0119816D01*
X0233763Y0119816D01*
X0233462Y0119516D01*
D24*
X0143844Y0358080D03*
X0138923Y0358080D03*
X0138923Y0365580D03*
X0143844Y0365580D03*
X0143844Y0373080D03*
X0138923Y0373080D03*
X0373923Y0418080D03*
X0378844Y0418080D03*
X0378844Y0429330D03*
X0373923Y0429330D03*
D25*
X0169789Y0362736D02*
X0167203Y0362736D01*
X0169789Y0362736D02*
X0169789Y0362118D01*
X0160564Y0362736D02*
X0157978Y0362736D01*
X0157978Y0362118D01*
X0157978Y0351542D02*
X0157978Y0350925D01*
X0160564Y0350925D01*
X0167203Y0350925D02*
X0169789Y0350925D01*
X0169789Y0351542D01*
D26*
X0163883Y0352237D03*
D27*
X0165853Y0352234D03*
D28*
X0161913Y0352233D03*
D29*
X0163883Y0361426D03*
D30*
X0165852Y0361424D03*
D31*
X0161914Y0361424D03*
D32*
X0159288Y0356830D03*
D33*
X0159289Y0358799D03*
D34*
X0159289Y0360768D03*
D35*
X0159287Y0354860D03*
D36*
X0159287Y0352890D03*
D37*
X0168479Y0356830D03*
D38*
X0168479Y0358800D03*
D39*
X0168476Y0360768D03*
D40*
X0168479Y0354859D03*
D41*
X0168477Y0352892D03*
D42*
X0161154Y0366892D02*
X0161405Y0367142D01*
X0161405Y0367393D01*
X0161154Y0367643D01*
X0160403Y0367643D01*
X0160403Y0367142D01*
X0160653Y0366892D01*
X0161154Y0366892D01*
X0160403Y0367643D02*
X0160904Y0368144D01*
X0161405Y0368395D01*
X0159930Y0368395D02*
X0159930Y0367142D01*
X0159679Y0366892D01*
X0159178Y0366892D01*
X0158928Y0367142D01*
X0158928Y0368395D01*
D43*
X0337652Y0435240D03*
X0337652Y0438440D03*
X0347652Y0438440D03*
X0347652Y0435240D03*
M02*
