%
M48
M72
T01C0.01575
T02C0.02756
T03C0.03543
T04C0.03937
T05C0.04000
T06C0.04400
T07C0.05118
T08C0.12205
%
T01
X111383Y153080
X132633Y148080
X161383Y141830
X182633Y130580
X182633Y123080
X192633Y123080
X192633Y130580
X202633Y130580
X202633Y123080
X213883Y113080
X229999Y140580
X235268Y141830
X241383Y138080
X246383Y138080
X251383Y138080
X256383Y138080
X260133Y145580
X260133Y155580
X263883Y159330
X271477Y168174
X277633Y169330
X291383Y166830
X306383Y175580
X311383Y180580
X298883Y189330
X290133Y191830
X282633Y201830
X272633Y191830
X251383Y200580
X241383Y214330
X228883Y195580
X245133Y183080
X240133Y175580
X233883Y175580
X251383Y151830
X272633Y136830
X281383Y136830
X285133Y120580
X298883Y140580
X321383Y148080
X328883Y139330
X346383Y128080
X360133Y158080
X373883Y158080
X373883Y185580
X366383Y185580
X360133Y186830
X355133Y190580
X346383Y186830
X340133Y188080
X332633Y199330
X327633Y206830
X327633Y224330
X330133Y231830
X336383Y233080
X347633Y224330
X353883Y221830
X375133Y229330
X358883Y266830
X352633Y278080
X351383Y289330
X342633Y291830
X351383Y300580
X357633Y306830
X365133Y306830
X380133Y308080
X383883Y295580
X372633Y288080
X365133Y284330
X372633Y271830
X337633Y266830
X325133Y281830
X312633Y278080
X305133Y269330
X300133Y279330
X293883Y285580
X275133Y269330
X262633Y264330
X257633Y260580
X250133Y260580
X257633Y286830
X237633Y315580
X246383Y316830
X282633Y324330
X300133Y311830
X326383Y304330
X341383Y314330
X346383Y324330
X340133Y326830
X318883Y348080
X318883Y354330
X318883Y361830
X371383Y351830
X376383Y345580
X371383Y399330
X360133Y426830
X355133Y433080
X365133Y433080
X337633Y445580
X320133Y445580
X203883Y291830
X185133Y296830
X176383Y285580
X201383Y263080
X193883Y249330
X187633Y249330
X187633Y241830
X181383Y241830
X181383Y249330
X172633Y248080
X168883Y243080
X165133Y248080
X148883Y235580
X145133Y241830
X131383Y216830
X126383Y213080
X162633Y201830
X193883Y195580
X193883Y164330
X221383Y145580
X287633Y220580
X295133Y220580
X302633Y220580
X310133Y226830
X311383Y241830
X318883Y261830
X288883Y250580
X342633Y169330
X185133Y356830
X178883Y363080
X176383Y369330
X170133Y369330
X167633Y375580
X173883Y375580
X180133Y375580
X155133Y346830
X170133Y341830
X170133Y336830
X166383Y325580
X172633Y320580
X160133Y320580
X160133Y329330
X139070Y352893
X133883Y389330
X145133Y400580
X151383Y408080
X151383Y416830
X137633Y416830
X137633Y408080
T02
X223365Y127395
X242664Y127212
T03
X135429Y285580
X109838Y285580
T04
X222183Y115240
X243625Y115372
X283883Y151830
T05
X159415Y119820
X149415Y119820
X217766Y374989
X227766Y374989
X237766Y374989
X247766Y374989
X247764Y445724
X237764Y445724
X227764Y445724
X217764Y445724
T06
X215133Y238080
X225133Y238080
X235133Y238080
X245133Y238080
X255133Y238080
X265133Y238080
T07
X133883Y240167
X133883Y161427
T08
X97318Y130452
X368972Y130452
X368972Y453287
X97318Y453287
M30
