G75*
%MOIN*%
%OFA0B0*%
%FSLAX25Y25*%
%IPPOS*%
%LPD*%
%AMOC8*
5,1,8,0,0,1.08239X$1,22.5*
%
%ADD10R,0.03937X0.01181*%
%ADD11R,0.10630X0.10630*%
%ADD12R,0.01713X0.01713*%
%ADD13R,0.01181X0.03937*%
%ADD14R,0.04331X0.03937*%
%ADD15R,0.03937X0.04331*%
%ADD16R,0.03937X0.05512*%
%ADD17R,0.03543X0.05906*%
%ADD18R,0.05906X0.03543*%
%ADD19R,0.23622X0.23622*%
%ADD20C,0.07400*%
%ADD21C,0.07400*%
%ADD22C,0.06000*%
%ADD23R,0.13780X0.06299*%
%ADD24R,0.04724X0.07874*%
%ADD25R,0.07874X0.04724*%
%ADD26C,0.03937*%
%ADD27C,0.07677*%
%ADD28R,0.02400X0.06700*%
%ADD29R,0.04252X0.04134*%
%ADD30R,0.01575X0.06890*%
%ADD31R,0.07874X0.05748*%
%ADD32R,0.05610X0.09843*%
%ADD33C,0.04331*%
%ADD34C,0.00800*%
%ADD35R,0.04134X0.04252*%
%ADD36R,0.05906X0.00984*%
%ADD37R,0.00984X0.05906*%
%ADD38R,0.03937X0.07087*%
%ADD39R,0.03543X0.02756*%
%ADD40C,0.01600*%
%ADD41C,0.01200*%
%ADD42C,0.03200*%
%ADD43C,0.06600*%
%ADD44C,0.02400*%
%ADD45C,0.05000*%
%ADD46C,0.01000*%
%ADD47C,0.03200*%
%ADD48C,0.04000*%
%ADD49C,0.04724*%
%ADD50C,0.03189*%
%ADD51C,0.01969*%
%ADD52C,0.03232*%
%ADD53C,0.04356*%
%ADD54C,0.05906*%
D10*
X0274041Y0145925D03*
X0274041Y0147893D03*
X0274041Y0149862D03*
X0274041Y0151830D03*
X0274041Y0153799D03*
X0274041Y0155767D03*
X0274041Y0157736D03*
X0293726Y0157736D03*
X0293726Y0155767D03*
X0293726Y0153799D03*
X0293726Y0151830D03*
X0293726Y0149862D03*
X0293726Y0147893D03*
X0293726Y0145925D03*
D11*
X0283883Y0151830D03*
D12*
X0275606Y0160108D03*
D13*
X0277978Y0161673D03*
X0279946Y0161673D03*
X0281915Y0161673D03*
X0283883Y0161673D03*
X0285852Y0161673D03*
X0287820Y0161673D03*
X0289789Y0161673D03*
X0289789Y0141988D03*
X0287820Y0141988D03*
X0285852Y0141988D03*
X0283883Y0141988D03*
X0281915Y0141988D03*
X0279946Y0141988D03*
X0277978Y0141988D03*
D14*
X0266383Y0145177D03*
X0266383Y0138484D03*
X0253883Y0127677D03*
X0253883Y0120984D03*
X0235133Y0200984D03*
X0235133Y0207677D03*
X0288883Y0272234D03*
X0288883Y0278927D03*
X0352633Y0268927D03*
X0352633Y0262234D03*
X0365133Y0270984D03*
X0365133Y0277677D03*
X0380133Y0277677D03*
X0380133Y0270984D03*
X0371383Y0262677D03*
X0371383Y0255984D03*
X0371383Y0314734D03*
X0371383Y0321427D03*
X0380133Y0321427D03*
X0380133Y0314734D03*
X0355133Y0314734D03*
X0355133Y0321427D03*
X0336383Y0153927D03*
X0336383Y0147234D03*
X0341383Y0118927D03*
X0341383Y0112234D03*
X0132633Y0115984D03*
X0132633Y0122677D03*
X0132633Y0130984D03*
X0132633Y0137677D03*
X0122633Y0122677D03*
X0122633Y0115984D03*
X0128883Y0373484D03*
X0128883Y0380177D03*
D15*
X0138037Y0381830D03*
X0144730Y0381830D03*
X0290537Y0304330D03*
X0297230Y0304330D03*
X0289730Y0184330D03*
X0283037Y0184330D03*
X0285537Y0174330D03*
X0292230Y0174330D03*
X0293037Y0134330D03*
X0299730Y0134330D03*
X0284730Y0129330D03*
X0278037Y0129330D03*
X0277230Y0120580D03*
X0270537Y0120580D03*
X0325537Y0118080D03*
X0332230Y0118080D03*
X0334730Y0161830D03*
X0328037Y0161830D03*
D16*
X0321383Y0136161D03*
X0317643Y0127499D03*
X0325123Y0127499D03*
X0332643Y0127499D03*
X0340123Y0127499D03*
X0336383Y0136161D03*
D17*
X0336570Y0336397D03*
X0341570Y0336397D03*
X0346570Y0336397D03*
X0351570Y0336397D03*
X0356570Y0336397D03*
X0361570Y0336397D03*
X0366570Y0336397D03*
X0371570Y0336397D03*
X0376570Y0336397D03*
X0381570Y0336397D03*
X0331570Y0336397D03*
X0326570Y0336397D03*
X0321570Y0336397D03*
X0316570Y0336397D03*
X0316570Y0407263D03*
X0321570Y0407263D03*
X0326570Y0407263D03*
X0331570Y0407263D03*
X0336570Y0407263D03*
X0341570Y0407263D03*
X0346570Y0407263D03*
X0351570Y0407263D03*
X0356570Y0407263D03*
X0361570Y0407263D03*
X0366570Y0407263D03*
X0371570Y0407263D03*
X0376570Y0407263D03*
X0381570Y0407263D03*
D18*
X0310704Y0394330D03*
X0310704Y0389330D03*
X0310704Y0384330D03*
X0310704Y0379330D03*
X0310704Y0374330D03*
X0310704Y0369330D03*
X0310704Y0364330D03*
X0310704Y0359330D03*
X0310704Y0354330D03*
X0310704Y0349330D03*
D19*
X0351255Y0371830D03*
D20*
X0265133Y0241780D02*
X0265133Y0234380D01*
X0255133Y0234380D02*
X0255133Y0241780D01*
X0245133Y0241780D02*
X0245133Y0234380D01*
X0235133Y0234380D02*
X0235133Y0241780D01*
X0225133Y0241780D02*
X0225133Y0234380D01*
X0215133Y0234380D02*
X0215133Y0241780D01*
D21*
X0135429Y0285580D03*
X0109838Y0285580D03*
D22*
X0217766Y0371989D02*
X0217766Y0377989D01*
X0227766Y0377989D02*
X0227766Y0371989D01*
X0237766Y0371989D02*
X0237766Y0377989D01*
X0247766Y0377989D02*
X0247766Y0371989D01*
X0247764Y0442724D02*
X0247764Y0448724D01*
X0237764Y0448724D02*
X0237764Y0442724D01*
X0227764Y0442724D02*
X0227764Y0448724D01*
X0217764Y0448724D02*
X0217764Y0442724D01*
X0159415Y0122820D02*
X0159415Y0116820D01*
X0149415Y0116820D02*
X0149415Y0122820D01*
D23*
X0165753Y0258080D03*
X0187013Y0258080D03*
X0222003Y0351830D03*
X0243263Y0351830D03*
X0243263Y0421830D03*
X0222003Y0421830D03*
D24*
X0326757Y0241830D03*
X0334631Y0241830D03*
X0342505Y0241830D03*
X0350379Y0241830D03*
X0358253Y0241830D03*
X0366127Y0241830D03*
X0374001Y0241830D03*
X0381875Y0241830D03*
X0381875Y0178051D03*
X0374001Y0178051D03*
X0366127Y0178051D03*
X0358253Y0178051D03*
X0350379Y0178051D03*
X0342505Y0178051D03*
X0334631Y0178051D03*
X0326757Y0178051D03*
D25*
X0318883Y0190649D03*
X0318883Y0198523D03*
X0318883Y0206397D03*
X0318883Y0214271D03*
X0318883Y0222145D03*
X0318883Y0230019D03*
D26*
X0310133Y0214330D03*
X0310133Y0206830D03*
X0310133Y0198080D03*
X0350133Y0168080D03*
X0360133Y0169330D03*
X0367633Y0169330D03*
X0360133Y0251830D03*
X0352633Y0251830D03*
X0333883Y0251830D03*
X0326383Y0320580D03*
X0321383Y0328080D03*
X0316383Y0320580D03*
X0331383Y0328080D03*
X0302633Y0359330D03*
X0297633Y0364330D03*
X0302633Y0369330D03*
X0297633Y0374330D03*
X0302633Y0379330D03*
X0297633Y0384330D03*
X0302633Y0389330D03*
X0316383Y0416830D03*
X0321383Y0424330D03*
X0352633Y0416830D03*
X0357633Y0414330D03*
X0362633Y0416830D03*
X0201383Y0255580D03*
X0153883Y0258080D03*
X0182633Y0116830D03*
X0192633Y0116830D03*
X0243651Y0116276D03*
X0255133Y0113080D03*
D27*
X0133883Y0161427D03*
X0133883Y0240167D03*
D28*
X0262633Y0277780D03*
X0267633Y0277780D03*
X0272633Y0277780D03*
X0277633Y0277780D03*
X0277633Y0303380D03*
X0272633Y0303380D03*
X0267633Y0303380D03*
X0262633Y0303380D03*
D29*
X0251383Y0294025D03*
X0251383Y0287135D03*
D30*
X0238139Y0126414D03*
X0235580Y0126414D03*
X0233021Y0126414D03*
X0230462Y0126414D03*
X0227903Y0126414D03*
D31*
X0221604Y0127497D03*
X0244438Y0127497D03*
D32*
X0236810Y0115883D03*
X0229231Y0115883D03*
D33*
X0222267Y0116451D02*
X0222267Y0114875D01*
X0222267Y0114875D01*
X0222267Y0116451D01*
X0222267Y0116451D01*
D34*
X0222267Y0116450D02*
X0222267Y0115663D01*
X0219827Y0115614D02*
X0224757Y0115614D01*
X0224758Y0116412D02*
X0219825Y0116412D01*
X0219823Y0117211D02*
X0224760Y0117211D01*
X0224762Y0118009D02*
X0219821Y0118009D01*
X0219818Y0118808D02*
X0224763Y0118808D01*
X0224765Y0119606D02*
X0219816Y0119606D01*
X0219814Y0120405D02*
X0224766Y0120405D01*
X0224768Y0121203D02*
X0218336Y0121203D01*
X0218336Y0121198D02*
X0219812Y0121198D01*
X0219832Y0113757D01*
X0219915Y0113456D01*
X0220062Y0113180D01*
X0220267Y0112945D01*
X0220520Y0112761D01*
X0220807Y0112638D01*
X0221114Y0112582D01*
X0221426Y0112595D01*
X0223789Y0112595D01*
X0224056Y0112651D01*
X0224300Y0112774D01*
X0224503Y0112957D01*
X0224653Y0113185D01*
X0224738Y0113445D01*
X0224753Y0113717D01*
X0224773Y0123717D01*
X0218355Y0123717D01*
X0218336Y0121198D01*
X0218342Y0122002D02*
X0224769Y0122002D01*
X0224771Y0122800D02*
X0218348Y0122800D01*
X0218355Y0123599D02*
X0224773Y0123599D01*
X0223454Y0127182D02*
X0221918Y0127182D01*
X0221604Y0127497D01*
X0223139Y0127497D01*
X0223454Y0127182D01*
X0224755Y0114815D02*
X0219829Y0114815D01*
X0219831Y0114017D02*
X0224754Y0114017D01*
X0224664Y0113218D02*
X0220042Y0113218D01*
X0241434Y0113442D02*
X0241434Y0123717D01*
X0247659Y0123717D01*
X0247659Y0121217D01*
X0246170Y0121217D01*
X0246170Y0113009D01*
X0246133Y0112852D01*
X0246050Y0112715D01*
X0245928Y0112611D01*
X0245779Y0112549D01*
X0245619Y0112536D01*
X0242214Y0112635D01*
X0242009Y0112665D01*
X0241819Y0112748D01*
X0241657Y0112877D01*
X0241534Y0113043D01*
X0241458Y0113236D01*
X0241434Y0113442D01*
X0241465Y0113218D02*
X0246170Y0113218D01*
X0246170Y0114017D02*
X0241434Y0114017D01*
X0241434Y0114815D02*
X0246170Y0114815D01*
X0246170Y0115614D02*
X0241434Y0115614D01*
X0241434Y0116412D02*
X0246170Y0116412D01*
X0246170Y0117211D02*
X0241434Y0117211D01*
X0241434Y0118009D02*
X0246170Y0118009D01*
X0246170Y0118808D02*
X0241434Y0118808D01*
X0241434Y0119606D02*
X0246170Y0119606D01*
X0246170Y0120405D02*
X0241434Y0120405D01*
X0241434Y0121203D02*
X0246170Y0121203D01*
X0247659Y0122002D02*
X0241434Y0122002D01*
X0241434Y0122800D02*
X0247659Y0122800D01*
X0247659Y0123599D02*
X0241434Y0123599D01*
X0242588Y0127182D02*
X0244123Y0127182D01*
X0244438Y0127497D01*
X0242903Y0127497D01*
X0242588Y0127182D01*
X0243763Y0116450D02*
X0243651Y0116337D01*
X0243651Y0116276D01*
X0199449Y0124330D02*
X0193883Y0128080D01*
X0183165Y0354862D02*
X0170143Y0354862D01*
X0183165Y0354862D02*
X0185133Y0356830D01*
D35*
X0144828Y0358080D03*
X0137938Y0358080D03*
X0137938Y0365580D03*
X0144828Y0365580D03*
X0144828Y0373080D03*
X0137938Y0373080D03*
X0372938Y0418080D03*
X0379828Y0418080D03*
X0379828Y0429330D03*
X0372938Y0429330D03*
D36*
X0170143Y0360767D03*
X0170143Y0358799D03*
X0170143Y0356830D03*
X0170143Y0354862D03*
X0170143Y0352893D03*
X0157623Y0352893D03*
X0157623Y0354862D03*
X0157623Y0356830D03*
X0157623Y0358799D03*
X0157623Y0360767D03*
D37*
X0161915Y0363090D03*
X0163883Y0363090D03*
X0165852Y0363090D03*
X0165852Y0350570D03*
X0163883Y0350570D03*
X0161915Y0350570D03*
D38*
X0337712Y0425580D03*
X0347555Y0425580D03*
D39*
X0347633Y0434271D03*
X0347633Y0439389D03*
X0337633Y0439389D03*
X0337633Y0434271D03*
D40*
X0080033Y0474509D02*
X0080033Y0109230D01*
X0212726Y0109230D01*
X0211618Y0109689D01*
X0210492Y0110814D01*
X0209883Y0112285D01*
X0209883Y0113876D01*
X0210492Y0115346D01*
X0210883Y0115737D01*
X0210883Y0124401D01*
X0210409Y0123926D01*
X0208608Y0123180D01*
X0206783Y0123180D01*
X0206783Y0121253D01*
X0206342Y0120187D01*
X0205526Y0119372D01*
X0204460Y0118930D01*
X0196492Y0118930D01*
X0197002Y0117699D01*
X0197002Y0115961D01*
X0196337Y0114356D01*
X0195108Y0113127D01*
X0193502Y0112462D01*
X0191764Y0112462D01*
X0190159Y0113127D01*
X0188930Y0114356D01*
X0188265Y0115961D01*
X0188265Y0117699D01*
X0188775Y0118930D01*
X0186492Y0118930D01*
X0187002Y0117699D01*
X0187002Y0115961D01*
X0186337Y0114356D01*
X0185108Y0113127D01*
X0183502Y0112462D01*
X0181764Y0112462D01*
X0180159Y0113127D01*
X0178930Y0114356D01*
X0178265Y0115961D01*
X0178265Y0117699D01*
X0178930Y0119305D01*
X0179369Y0119744D01*
X0178925Y0120187D01*
X0178483Y0121253D01*
X0178483Y0132407D01*
X0178925Y0133473D01*
X0179741Y0134289D01*
X0180806Y0134730D01*
X0204460Y0134730D01*
X0205526Y0134289D01*
X0206317Y0133498D01*
X0209936Y0137117D01*
X0211933Y0139115D01*
X0211933Y0164967D01*
X0212420Y0166143D01*
X0213321Y0167043D01*
X0247389Y0201111D01*
X0247389Y0201375D01*
X0247997Y0202843D01*
X0249121Y0203967D01*
X0250589Y0204575D01*
X0252178Y0204575D01*
X0253646Y0203967D01*
X0254770Y0202843D01*
X0255378Y0201375D01*
X0255378Y0199786D01*
X0254770Y0198318D01*
X0253646Y0197194D01*
X0252178Y0196586D01*
X0251914Y0196586D01*
X0234841Y0179513D01*
X0236149Y0178971D01*
X0237008Y0178112D01*
X0237868Y0178971D01*
X0239338Y0179580D01*
X0240929Y0179580D01*
X0242399Y0178971D01*
X0242790Y0178580D01*
X0245391Y0178580D01*
X0244891Y0179080D01*
X0244338Y0179080D01*
X0242868Y0179689D01*
X0241742Y0180814D01*
X0241133Y0182285D01*
X0241133Y0183876D01*
X0241742Y0185346D01*
X0242868Y0186471D01*
X0244338Y0187080D01*
X0245929Y0187080D01*
X0247399Y0186471D01*
X0248524Y0185346D01*
X0249133Y0183876D01*
X0249133Y0183323D01*
X0250126Y0182330D01*
X0271980Y0182330D01*
X0273083Y0181873D01*
X0278915Y0176041D01*
X0278915Y0181092D01*
X0278668Y0181687D01*
X0278668Y0186973D01*
X0279034Y0187855D01*
X0279709Y0188530D01*
X0280591Y0188896D01*
X0285483Y0188896D01*
X0286365Y0188530D01*
X0286383Y0188512D01*
X0286402Y0188530D01*
X0286730Y0188666D01*
X0286730Y0189595D01*
X0286133Y0191035D01*
X0286133Y0192626D01*
X0286632Y0193830D01*
X0276376Y0193830D01*
X0276205Y0193659D01*
X0276633Y0192626D01*
X0276633Y0191035D01*
X0276024Y0189564D01*
X0274899Y0188439D01*
X0273429Y0187830D01*
X0271838Y0187830D01*
X0270368Y0188439D01*
X0269242Y0189564D01*
X0268633Y0191035D01*
X0268633Y0192626D01*
X0269242Y0194096D01*
X0269633Y0194487D01*
X0269633Y0194927D01*
X0270090Y0196030D01*
X0270934Y0196873D01*
X0270934Y0196873D01*
X0272590Y0198530D01*
X0272590Y0198530D01*
X0273434Y0199373D01*
X0274537Y0199830D01*
X0279132Y0199830D01*
X0278633Y0201035D01*
X0278633Y0202626D01*
X0279242Y0204096D01*
X0280184Y0205037D01*
X0280090Y0205131D01*
X0270141Y0215080D01*
X0245383Y0215080D01*
X0245383Y0213535D01*
X0244774Y0212064D01*
X0243649Y0210939D01*
X0242179Y0210330D01*
X0240588Y0210330D01*
X0239554Y0210758D01*
X0239470Y0210674D01*
X0239699Y0210123D01*
X0239699Y0205231D01*
X0239333Y0204349D01*
X0239315Y0204330D01*
X0239333Y0204312D01*
X0239699Y0203430D01*
X0239699Y0198538D01*
X0239333Y0197656D01*
X0238658Y0196981D01*
X0237776Y0196615D01*
X0235007Y0196615D01*
X0232676Y0194284D01*
X0232274Y0193314D01*
X0231149Y0192189D01*
X0229679Y0191580D01*
X0228088Y0191580D01*
X0226618Y0192189D01*
X0225492Y0193314D01*
X0225092Y0194280D01*
X0221142Y0198230D01*
X0164395Y0198230D01*
X0163429Y0197830D01*
X0161838Y0197830D01*
X0160368Y0198439D01*
X0159242Y0199564D01*
X0158633Y0201035D01*
X0158633Y0202626D01*
X0159242Y0204096D01*
X0160368Y0205221D01*
X0161838Y0205830D01*
X0163429Y0205830D01*
X0164395Y0205430D01*
X0223349Y0205430D01*
X0224673Y0204882D01*
X0225685Y0203869D01*
X0229731Y0199824D01*
X0230568Y0200661D01*
X0230568Y0203430D01*
X0230933Y0204312D01*
X0230952Y0204330D01*
X0230933Y0204349D01*
X0230568Y0205231D01*
X0230568Y0210123D01*
X0230933Y0211005D01*
X0231608Y0211680D01*
X0232491Y0212045D01*
X0232493Y0212045D01*
X0232590Y0212280D01*
X0235391Y0215080D01*
X0134988Y0215080D01*
X0134774Y0214564D01*
X0133649Y0213439D01*
X0132179Y0212830D01*
X0130588Y0212830D01*
X0130383Y0212915D01*
X0130383Y0212285D01*
X0129774Y0210814D01*
X0128649Y0209689D01*
X0127179Y0209080D01*
X0125588Y0209080D01*
X0124118Y0209689D01*
X0122992Y0210814D01*
X0122383Y0212285D01*
X0122383Y0213876D01*
X0122992Y0215346D01*
X0123383Y0215737D01*
X0123383Y0218677D01*
X0123840Y0219780D01*
X0127891Y0223830D01*
X0120126Y0223830D01*
X0115633Y0219338D01*
X0115633Y0185573D01*
X0123083Y0178123D01*
X0123927Y0177280D01*
X0124383Y0176177D01*
X0124383Y0136823D01*
X0127626Y0133580D01*
X0128130Y0133580D01*
X0128433Y0134312D01*
X0128917Y0134795D01*
X0128791Y0135013D01*
X0128668Y0135471D01*
X0128668Y0137492D01*
X0132449Y0137492D01*
X0132449Y0137861D01*
X0132449Y0141445D01*
X0130231Y0141445D01*
X0129773Y0141322D01*
X0129363Y0141086D01*
X0129028Y0140750D01*
X0128791Y0140340D01*
X0128668Y0139882D01*
X0128668Y0137861D01*
X0132449Y0137861D01*
X0132818Y0137861D01*
X0136599Y0137861D01*
X0136599Y0139882D01*
X0136476Y0140340D01*
X0136239Y0140750D01*
X0135904Y0141086D01*
X0135493Y0141322D01*
X0135036Y0141445D01*
X0132818Y0141445D01*
X0132818Y0137861D01*
X0132818Y0137492D01*
X0136599Y0137492D01*
X0136599Y0135471D01*
X0136476Y0135013D01*
X0136350Y0134795D01*
X0136833Y0134312D01*
X0136886Y0134184D01*
X0160366Y0134184D01*
X0161542Y0133697D01*
X0162443Y0132796D01*
X0162846Y0132393D01*
X0163333Y0131217D01*
X0163333Y0126539D01*
X0163993Y0125879D01*
X0164815Y0123895D01*
X0164815Y0115746D01*
X0163993Y0113762D01*
X0162474Y0112242D01*
X0160489Y0111420D01*
X0158341Y0111420D01*
X0156356Y0112242D01*
X0154837Y0113762D01*
X0154415Y0114781D01*
X0153993Y0113762D01*
X0152474Y0112242D01*
X0150489Y0111420D01*
X0148341Y0111420D01*
X0146356Y0112242D01*
X0145815Y0112784D01*
X0136886Y0112784D01*
X0136833Y0112656D01*
X0136158Y0111981D01*
X0135276Y0111615D01*
X0129991Y0111615D01*
X0129108Y0111981D01*
X0128433Y0112656D01*
X0128380Y0112784D01*
X0126886Y0112784D01*
X0126833Y0112656D01*
X0126158Y0111981D01*
X0125276Y0111615D01*
X0119991Y0111615D01*
X0119108Y0111981D01*
X0118433Y0112656D01*
X0118068Y0113538D01*
X0118068Y0118430D01*
X0118433Y0119312D01*
X0118452Y0119330D01*
X0118433Y0119349D01*
X0118068Y0120231D01*
X0118068Y0125123D01*
X0118433Y0126005D01*
X0119108Y0126680D01*
X0119991Y0127045D01*
X0125276Y0127045D01*
X0126158Y0126680D01*
X0126833Y0126005D01*
X0126886Y0125877D01*
X0128380Y0125877D01*
X0128433Y0126005D01*
X0129108Y0126680D01*
X0129433Y0126814D01*
X0129433Y0126846D01*
X0129108Y0126981D01*
X0128509Y0127580D01*
X0125787Y0127580D01*
X0124684Y0128037D01*
X0123840Y0128881D01*
X0118840Y0133881D01*
X0118383Y0134983D01*
X0118383Y0174338D01*
X0110090Y0182631D01*
X0109633Y0183733D01*
X0109633Y0221177D01*
X0110090Y0222280D01*
X0110934Y0223123D01*
X0110934Y0223123D01*
X0117184Y0229373D01*
X0118287Y0229830D01*
X0168411Y0229830D01*
X0167653Y0230588D01*
X0166983Y0232205D01*
X0166983Y0237680D01*
X0159556Y0237680D01*
X0158491Y0238122D01*
X0157675Y0238937D01*
X0157233Y0240003D01*
X0157233Y0252407D01*
X0157456Y0252944D01*
X0156829Y0253571D01*
X0156618Y0254080D01*
X0155642Y0254080D01*
X0154752Y0253712D01*
X0153014Y0253712D01*
X0151783Y0254222D01*
X0151783Y0238337D01*
X0152274Y0237846D01*
X0152883Y0236376D01*
X0152883Y0234785D01*
X0152274Y0233314D01*
X0151149Y0232189D01*
X0149679Y0231580D01*
X0148088Y0231580D01*
X0146618Y0232189D01*
X0145492Y0233314D01*
X0144883Y0234785D01*
X0144883Y0236376D01*
X0145486Y0237830D01*
X0144338Y0237830D01*
X0142868Y0238439D01*
X0141742Y0239564D01*
X0141133Y0241035D01*
X0141133Y0242626D01*
X0141742Y0244096D01*
X0142233Y0244587D01*
X0142233Y0348949D01*
X0142675Y0350015D01*
X0143491Y0350830D01*
X0146214Y0353554D01*
X0142284Y0353554D01*
X0141402Y0353920D01*
X0140918Y0354403D01*
X0140700Y0354277D01*
X0140242Y0354154D01*
X0138172Y0354154D01*
X0138172Y0357847D01*
X0137705Y0357847D01*
X0134072Y0357847D01*
X0134072Y0355717D01*
X0134194Y0355259D01*
X0134431Y0354849D01*
X0134766Y0354514D01*
X0135177Y0354277D01*
X0135635Y0354154D01*
X0137705Y0354154D01*
X0137705Y0357847D01*
X0137705Y0358314D01*
X0137705Y0365347D01*
X0134072Y0365347D01*
X0134072Y0363217D01*
X0134194Y0362759D01*
X0134431Y0362349D01*
X0134766Y0362014D01*
X0135084Y0361830D01*
X0134766Y0361647D01*
X0134431Y0361311D01*
X0134194Y0360901D01*
X0134072Y0360443D01*
X0134072Y0358314D01*
X0137705Y0358314D01*
X0138172Y0358314D01*
X0138172Y0361654D01*
X0138172Y0365347D01*
X0137705Y0365347D01*
X0137705Y0365814D01*
X0137705Y0372847D01*
X0134072Y0372847D01*
X0134072Y0370717D01*
X0134194Y0370259D01*
X0134431Y0369849D01*
X0134766Y0369514D01*
X0135084Y0369330D01*
X0134766Y0369147D01*
X0134431Y0368811D01*
X0134194Y0368401D01*
X0134072Y0367943D01*
X0134072Y0365814D01*
X0137705Y0365814D01*
X0138172Y0365814D01*
X0138172Y0369154D01*
X0138172Y0372847D01*
X0137705Y0372847D01*
X0137705Y0373314D01*
X0137705Y0377006D01*
X0135635Y0377006D01*
X0135177Y0376884D01*
X0134766Y0376647D01*
X0134431Y0376311D01*
X0134194Y0375901D01*
X0134072Y0375443D01*
X0134072Y0373314D01*
X0137705Y0373314D01*
X0138172Y0373314D01*
X0138172Y0377006D01*
X0140242Y0377006D01*
X0140700Y0376884D01*
X0140730Y0376866D01*
X0140730Y0377367D01*
X0140483Y0377265D01*
X0135591Y0377265D01*
X0134709Y0377630D01*
X0134034Y0378305D01*
X0133775Y0378930D01*
X0133449Y0378930D01*
X0133449Y0377731D01*
X0133083Y0376849D01*
X0132600Y0376365D01*
X0132726Y0376147D01*
X0132849Y0375689D01*
X0132849Y0373668D01*
X0129068Y0373668D01*
X0129068Y0373299D01*
X0132849Y0373299D01*
X0132849Y0371278D01*
X0132726Y0370820D01*
X0132489Y0370410D01*
X0132154Y0370075D01*
X0131743Y0369838D01*
X0131286Y0369715D01*
X0129068Y0369715D01*
X0129068Y0373299D01*
X0128699Y0373299D01*
X0128699Y0369715D01*
X0126481Y0369715D01*
X0126023Y0369838D01*
X0125613Y0370075D01*
X0125278Y0370410D01*
X0125041Y0370820D01*
X0124918Y0371278D01*
X0124918Y0373299D01*
X0128699Y0373299D01*
X0128699Y0373668D01*
X0124918Y0373668D01*
X0124918Y0375689D01*
X0125041Y0376147D01*
X0125167Y0376365D01*
X0124683Y0376849D01*
X0124318Y0377731D01*
X0124318Y0382623D01*
X0124683Y0383505D01*
X0125358Y0384180D01*
X0126241Y0384545D01*
X0129513Y0384545D01*
X0129960Y0384730D01*
X0133775Y0384730D01*
X0133953Y0385160D01*
X0133782Y0385330D01*
X0133088Y0385330D01*
X0131618Y0385939D01*
X0130492Y0387064D01*
X0129883Y0388535D01*
X0129883Y0390126D01*
X0130492Y0391596D01*
X0131618Y0392721D01*
X0133088Y0393330D01*
X0134679Y0393330D01*
X0136149Y0392721D01*
X0137274Y0391596D01*
X0137883Y0390126D01*
X0137883Y0389431D01*
X0139680Y0387635D01*
X0140495Y0386819D01*
X0140710Y0386301D01*
X0140730Y0386293D01*
X0140730Y0393930D01*
X0138306Y0393930D01*
X0137241Y0394372D01*
X0136425Y0395187D01*
X0132675Y0398937D01*
X0132233Y0400003D01*
X0132233Y0418657D01*
X0132675Y0419723D01*
X0133491Y0420539D01*
X0133925Y0420973D01*
X0133925Y0420973D01*
X0134741Y0421789D01*
X0135806Y0422230D01*
X0153210Y0422230D01*
X0154276Y0421789D01*
X0155092Y0420973D01*
X0156342Y0419723D01*
X0156783Y0418657D01*
X0156783Y0400003D01*
X0156342Y0398937D01*
X0155526Y0398122D01*
X0151776Y0394372D01*
X0150710Y0393930D01*
X0148730Y0393930D01*
X0148730Y0385358D01*
X0148733Y0385355D01*
X0149098Y0384473D01*
X0149098Y0379187D01*
X0148733Y0378305D01*
X0148730Y0378302D01*
X0148730Y0377080D01*
X0162233Y0377080D01*
X0162233Y0377407D01*
X0162675Y0378473D01*
X0163491Y0379289D01*
X0163925Y0379723D01*
X0164741Y0380539D01*
X0165806Y0380980D01*
X0181960Y0380980D01*
X0183026Y0380539D01*
X0183842Y0379723D01*
X0184633Y0378931D01*
X0184633Y0439927D01*
X0185090Y0441030D01*
X0185934Y0441873D01*
X0185934Y0441873D01*
X0216340Y0472280D01*
X0217184Y0473123D01*
X0218287Y0473580D01*
X0313230Y0473580D01*
X0314333Y0473123D01*
X0334333Y0453123D01*
X0335177Y0452280D01*
X0335633Y0451177D01*
X0335633Y0442567D01*
X0337633Y0442567D01*
X0337633Y0439389D01*
X0337633Y0439389D01*
X0337633Y0438049D01*
X0337633Y0438049D01*
X0337633Y0439389D01*
X0337633Y0439389D01*
X0337633Y0439389D01*
X0341205Y0439389D01*
X0341205Y0437774D01*
X0341093Y0437355D01*
X0341440Y0437009D01*
X0341805Y0436126D01*
X0341805Y0432416D01*
X0341440Y0431534D01*
X0341052Y0431146D01*
X0341715Y0430483D01*
X0342081Y0429601D01*
X0342081Y0425454D01*
X0343186Y0424349D01*
X0343186Y0429601D01*
X0343551Y0430483D01*
X0344215Y0431146D01*
X0343827Y0431534D01*
X0343462Y0432416D01*
X0343462Y0436126D01*
X0343827Y0437009D01*
X0344174Y0437355D01*
X0344062Y0437774D01*
X0344062Y0439389D01*
X0347633Y0439389D01*
X0347633Y0439389D01*
X0344062Y0439389D01*
X0344062Y0441004D01*
X0344184Y0441462D01*
X0344421Y0441872D01*
X0344756Y0442208D01*
X0345167Y0442445D01*
X0345625Y0442567D01*
X0347633Y0442567D01*
X0347633Y0439389D01*
X0347633Y0439389D01*
X0347633Y0439389D01*
X0351205Y0439389D01*
X0351205Y0438127D01*
X0352056Y0438480D01*
X0366960Y0438480D01*
X0368026Y0438039D01*
X0368842Y0437223D01*
X0370092Y0435973D01*
X0370533Y0434907D01*
X0370533Y0433856D01*
X0375483Y0433856D01*
X0376365Y0433491D01*
X0376848Y0433007D01*
X0377066Y0433134D01*
X0377524Y0433256D01*
X0379595Y0433256D01*
X0379595Y0429564D01*
X0380062Y0429564D01*
X0380062Y0433256D01*
X0382132Y0433256D01*
X0382590Y0433134D01*
X0383000Y0432897D01*
X0383335Y0432561D01*
X0383572Y0432151D01*
X0383695Y0431693D01*
X0383695Y0429564D01*
X0380062Y0429564D01*
X0380062Y0429097D01*
X0383695Y0429097D01*
X0383695Y0426967D01*
X0383572Y0426509D01*
X0383335Y0426099D01*
X0383000Y0425764D01*
X0382590Y0425527D01*
X0382132Y0425404D01*
X0380062Y0425404D01*
X0380062Y0429097D01*
X0379595Y0429097D01*
X0379595Y0425404D01*
X0377524Y0425404D01*
X0377066Y0425527D01*
X0376848Y0425653D01*
X0376365Y0425170D01*
X0375938Y0424993D01*
X0375938Y0422417D01*
X0376365Y0422241D01*
X0376848Y0421757D01*
X0377066Y0421884D01*
X0377524Y0422006D01*
X0379595Y0422006D01*
X0379595Y0418314D01*
X0380062Y0418314D01*
X0380062Y0422006D01*
X0382132Y0422006D01*
X0382590Y0421884D01*
X0383000Y0421647D01*
X0383335Y0421311D01*
X0383572Y0420901D01*
X0383695Y0420443D01*
X0383695Y0418314D01*
X0380062Y0418314D01*
X0380062Y0417847D01*
X0383695Y0417847D01*
X0383695Y0415717D01*
X0383572Y0415259D01*
X0383335Y0414849D01*
X0383000Y0414514D01*
X0382590Y0414277D01*
X0382132Y0414154D01*
X0380062Y0414154D01*
X0380062Y0417847D01*
X0379595Y0417847D01*
X0379595Y0414154D01*
X0378302Y0414154D01*
X0378927Y0413530D01*
X0378927Y0413530D01*
X0379114Y0413343D01*
X0379538Y0412318D01*
X0379701Y0412251D01*
X0379936Y0412016D01*
X0381484Y0412016D01*
X0381484Y0407349D01*
X0381656Y0407349D01*
X0381656Y0412016D01*
X0383579Y0412016D01*
X0384037Y0411893D01*
X0384447Y0411656D01*
X0384782Y0411321D01*
X0385019Y0410911D01*
X0385142Y0410453D01*
X0385142Y0407349D01*
X0381656Y0407349D01*
X0381656Y0407177D01*
X0381656Y0402511D01*
X0383579Y0402511D01*
X0384037Y0402633D01*
X0384447Y0402870D01*
X0384782Y0403205D01*
X0385019Y0403616D01*
X0385142Y0404074D01*
X0385142Y0407177D01*
X0381656Y0407177D01*
X0381484Y0407177D01*
X0381484Y0402511D01*
X0379936Y0402511D01*
X0379701Y0402276D01*
X0378819Y0401911D01*
X0374460Y0401911D01*
X0374774Y0401596D01*
X0375383Y0400126D01*
X0375383Y0398535D01*
X0374774Y0397064D01*
X0373649Y0395939D01*
X0372179Y0395330D01*
X0370588Y0395330D01*
X0369383Y0395829D01*
X0369383Y0394323D01*
X0378927Y0384780D01*
X0379383Y0383677D01*
X0379383Y0348237D01*
X0379774Y0347846D01*
X0380383Y0346376D01*
X0380383Y0344785D01*
X0379774Y0343314D01*
X0378649Y0342189D01*
X0377589Y0341750D01*
X0378819Y0341750D01*
X0379701Y0341384D01*
X0379936Y0341150D01*
X0381484Y0341150D01*
X0381484Y0336483D01*
X0381656Y0336483D01*
X0381656Y0341150D01*
X0383579Y0341150D01*
X0384037Y0341027D01*
X0384447Y0340790D01*
X0384782Y0340455D01*
X0385019Y0340045D01*
X0385142Y0339587D01*
X0385142Y0336483D01*
X0381656Y0336483D01*
X0381656Y0336311D01*
X0381656Y0331644D01*
X0383579Y0331644D01*
X0384037Y0331767D01*
X0384447Y0332004D01*
X0384782Y0332339D01*
X0385019Y0332750D01*
X0385142Y0333207D01*
X0385142Y0336311D01*
X0381656Y0336311D01*
X0381484Y0336311D01*
X0381484Y0331644D01*
X0379936Y0331644D01*
X0379890Y0331599D01*
X0382846Y0328643D01*
X0383333Y0327467D01*
X0383333Y0325564D01*
X0383658Y0325430D01*
X0384333Y0324755D01*
X0384699Y0323873D01*
X0384699Y0318981D01*
X0384333Y0318099D01*
X0384315Y0318080D01*
X0384333Y0318062D01*
X0384699Y0317180D01*
X0384699Y0312288D01*
X0384333Y0311406D01*
X0383658Y0310731D01*
X0383292Y0310579D01*
X0383524Y0310346D01*
X0384133Y0308876D01*
X0384133Y0307285D01*
X0383524Y0305814D01*
X0382399Y0304689D01*
X0380929Y0304080D01*
X0379338Y0304080D01*
X0377868Y0304689D01*
X0376742Y0305814D01*
X0376133Y0307285D01*
X0376133Y0308876D01*
X0376742Y0310346D01*
X0376975Y0310579D01*
X0376608Y0310731D01*
X0375933Y0311406D01*
X0375758Y0311828D01*
X0375583Y0311406D01*
X0374908Y0310731D01*
X0374026Y0310365D01*
X0368741Y0310365D01*
X0367858Y0310731D01*
X0367183Y0311406D01*
X0367130Y0311534D01*
X0359386Y0311534D01*
X0359333Y0311406D01*
X0358661Y0310734D01*
X0359899Y0310221D01*
X0361024Y0309096D01*
X0361383Y0308229D01*
X0361742Y0309096D01*
X0362868Y0310221D01*
X0364338Y0310830D01*
X0365929Y0310830D01*
X0367399Y0310221D01*
X0368524Y0309096D01*
X0369133Y0307626D01*
X0369133Y0307073D01*
X0374333Y0301873D01*
X0375177Y0301030D01*
X0375633Y0299927D01*
X0375633Y0290737D01*
X0376024Y0290346D01*
X0376633Y0288876D01*
X0376633Y0287285D01*
X0376024Y0285814D01*
X0374899Y0284689D01*
X0373429Y0284080D01*
X0371838Y0284080D01*
X0370368Y0284689D01*
X0369242Y0285814D01*
X0368633Y0287285D01*
X0368633Y0288876D01*
X0369242Y0290346D01*
X0369633Y0290737D01*
X0369633Y0298088D01*
X0364891Y0302830D01*
X0364338Y0302830D01*
X0362868Y0303439D01*
X0361883Y0304423D01*
X0361883Y0286737D01*
X0362868Y0287721D01*
X0364338Y0288330D01*
X0365929Y0288330D01*
X0367399Y0287721D01*
X0368524Y0286596D01*
X0369133Y0285126D01*
X0369133Y0283535D01*
X0368524Y0282064D01*
X0368292Y0281832D01*
X0368658Y0281680D01*
X0369333Y0281005D01*
X0369469Y0280677D01*
X0375797Y0280677D01*
X0375933Y0281005D01*
X0376608Y0281680D01*
X0377491Y0282045D01*
X0382133Y0282045D01*
X0382133Y0291976D01*
X0381618Y0292189D01*
X0380492Y0293314D01*
X0379883Y0294785D01*
X0379883Y0296376D01*
X0380492Y0297846D01*
X0381618Y0298971D01*
X0383088Y0299580D01*
X0384679Y0299580D01*
X0386149Y0298971D01*
X0386257Y0298863D01*
X0386257Y0474509D01*
X0080033Y0474509D01*
X0080033Y0474488D02*
X0386257Y0474488D01*
X0386257Y0472889D02*
X0314567Y0472889D01*
X0316165Y0471291D02*
X0386257Y0471291D01*
X0386257Y0469692D02*
X0317764Y0469692D01*
X0319362Y0468094D02*
X0386257Y0468094D01*
X0386257Y0466495D02*
X0320961Y0466495D01*
X0322559Y0464897D02*
X0386257Y0464897D01*
X0386257Y0463298D02*
X0324158Y0463298D01*
X0325756Y0461700D02*
X0367065Y0461700D01*
X0367281Y0461789D02*
X0364156Y0460495D01*
X0361764Y0458103D01*
X0360470Y0454978D01*
X0360470Y0451596D01*
X0361764Y0448471D01*
X0364156Y0446079D01*
X0367281Y0444785D01*
X0370663Y0444785D01*
X0373788Y0446079D01*
X0376180Y0448471D01*
X0377474Y0451596D01*
X0377474Y0454978D01*
X0376180Y0458103D01*
X0373788Y0460495D01*
X0370663Y0461789D01*
X0367281Y0461789D01*
X0370879Y0461700D02*
X0386257Y0461700D01*
X0386257Y0460101D02*
X0374182Y0460101D01*
X0375780Y0458503D02*
X0386257Y0458503D01*
X0386257Y0456904D02*
X0376676Y0456904D01*
X0377339Y0455306D02*
X0386257Y0455306D01*
X0386257Y0453707D02*
X0377474Y0453707D01*
X0377474Y0452109D02*
X0386257Y0452109D01*
X0386257Y0450510D02*
X0377025Y0450510D01*
X0376362Y0448912D02*
X0386257Y0448912D01*
X0386257Y0447313D02*
X0375022Y0447313D01*
X0372909Y0445715D02*
X0386257Y0445715D01*
X0386257Y0444116D02*
X0335633Y0444116D01*
X0335633Y0445715D02*
X0365035Y0445715D01*
X0362922Y0447313D02*
X0335633Y0447313D01*
X0335633Y0448912D02*
X0361581Y0448912D01*
X0360919Y0450510D02*
X0335633Y0450510D01*
X0335247Y0452109D02*
X0360470Y0452109D01*
X0360470Y0453707D02*
X0333749Y0453707D01*
X0332150Y0455306D02*
X0360605Y0455306D01*
X0361267Y0456904D02*
X0330552Y0456904D01*
X0328953Y0458503D02*
X0362164Y0458503D01*
X0363762Y0460101D02*
X0327355Y0460101D01*
X0319362Y0452109D02*
X0252016Y0452109D01*
X0252342Y0451783D02*
X0250823Y0453302D01*
X0248838Y0454124D01*
X0246690Y0454124D01*
X0244705Y0453302D01*
X0243186Y0451783D01*
X0242419Y0449931D01*
X0242212Y0450567D01*
X0241869Y0451240D01*
X0241425Y0451851D01*
X0240891Y0452386D01*
X0240280Y0452830D01*
X0239606Y0453173D01*
X0238888Y0453406D01*
X0238142Y0453524D01*
X0237964Y0453524D01*
X0237964Y0445924D01*
X0237564Y0445924D01*
X0237564Y0453524D01*
X0237386Y0453524D01*
X0236640Y0453406D01*
X0235921Y0453173D01*
X0235248Y0452830D01*
X0234637Y0452386D01*
X0234103Y0451851D01*
X0233659Y0451240D01*
X0233316Y0450567D01*
X0233109Y0449931D01*
X0232342Y0451783D01*
X0230823Y0453302D01*
X0228838Y0454124D01*
X0226690Y0454124D01*
X0224705Y0453302D01*
X0223186Y0451783D01*
X0222764Y0450764D01*
X0222342Y0451783D01*
X0220823Y0453302D01*
X0218838Y0454124D01*
X0216690Y0454124D01*
X0214705Y0453302D01*
X0213186Y0451783D01*
X0212364Y0449798D01*
X0212364Y0441650D01*
X0213186Y0439665D01*
X0214705Y0438146D01*
X0216690Y0437324D01*
X0218838Y0437324D01*
X0220823Y0438146D01*
X0222342Y0439665D01*
X0222764Y0440685D01*
X0223186Y0439665D01*
X0223364Y0439488D01*
X0223364Y0429413D01*
X0221330Y0427380D01*
X0214636Y0427380D01*
X0213754Y0427014D01*
X0213079Y0426339D01*
X0212714Y0425457D01*
X0212714Y0418203D01*
X0213079Y0417321D01*
X0213754Y0416646D01*
X0214636Y0416281D01*
X0219883Y0416281D01*
X0219883Y0388535D01*
X0220492Y0387064D01*
X0223633Y0383923D01*
X0223633Y0381493D01*
X0223188Y0381048D01*
X0222766Y0380029D01*
X0222344Y0381048D01*
X0220825Y0382567D01*
X0218840Y0383389D01*
X0216692Y0383389D01*
X0214707Y0382567D01*
X0213188Y0381048D01*
X0212366Y0379063D01*
X0212366Y0370915D01*
X0213188Y0368930D01*
X0214707Y0367411D01*
X0216692Y0366589D01*
X0218840Y0366589D01*
X0220825Y0367411D01*
X0222344Y0368930D01*
X0222766Y0369949D01*
X0223188Y0368930D01*
X0223233Y0368885D01*
X0223233Y0359283D01*
X0221330Y0357380D01*
X0214636Y0357380D01*
X0213754Y0357014D01*
X0213079Y0356339D01*
X0212714Y0355457D01*
X0212714Y0348203D01*
X0213079Y0347321D01*
X0213754Y0346646D01*
X0214636Y0346281D01*
X0229371Y0346281D01*
X0230253Y0346646D01*
X0230928Y0347321D01*
X0231293Y0348203D01*
X0231293Y0354897D01*
X0231363Y0354968D01*
X0231496Y0355100D01*
X0232166Y0356718D01*
X0232166Y0368752D01*
X0232344Y0368930D01*
X0233111Y0370782D01*
X0233318Y0370146D01*
X0233661Y0369473D01*
X0234105Y0368862D01*
X0234639Y0368328D01*
X0235250Y0367883D01*
X0235923Y0367540D01*
X0236642Y0367307D01*
X0237388Y0367189D01*
X0237566Y0367189D01*
X0237566Y0374789D01*
X0237966Y0374789D01*
X0237966Y0367189D01*
X0238144Y0367189D01*
X0238890Y0367307D01*
X0239609Y0367540D01*
X0240282Y0367883D01*
X0240893Y0368328D01*
X0241427Y0368862D01*
X0241871Y0369473D01*
X0242214Y0370146D01*
X0242421Y0370782D01*
X0243188Y0368930D01*
X0244707Y0367411D01*
X0246692Y0366589D01*
X0248840Y0366589D01*
X0250825Y0367411D01*
X0252344Y0368930D01*
X0253166Y0370915D01*
X0253166Y0379063D01*
X0252344Y0381048D01*
X0250825Y0382567D01*
X0248840Y0383389D01*
X0246692Y0383389D01*
X0244707Y0382567D01*
X0243188Y0381048D01*
X0242421Y0379195D01*
X0242214Y0379831D01*
X0241871Y0380505D01*
X0241427Y0381116D01*
X0240893Y0381650D01*
X0240282Y0382094D01*
X0239609Y0382437D01*
X0238890Y0382671D01*
X0238144Y0382789D01*
X0237966Y0382789D01*
X0237966Y0375189D01*
X0237566Y0375189D01*
X0237566Y0382789D01*
X0237388Y0382789D01*
X0236642Y0382671D01*
X0235923Y0382437D01*
X0235250Y0382094D01*
X0234639Y0381650D01*
X0234105Y0381116D01*
X0233661Y0380505D01*
X0233318Y0379831D01*
X0233111Y0379195D01*
X0232344Y0381048D01*
X0231633Y0381758D01*
X0231633Y0386376D01*
X0231024Y0387846D01*
X0229899Y0388971D01*
X0227883Y0390987D01*
X0227883Y0416281D01*
X0229371Y0416281D01*
X0230253Y0416646D01*
X0230928Y0417321D01*
X0231293Y0418203D01*
X0231293Y0424897D01*
X0231494Y0425098D01*
X0232164Y0426715D01*
X0232164Y0439488D01*
X0232342Y0439665D01*
X0233109Y0441518D01*
X0233316Y0440882D01*
X0233659Y0440209D01*
X0234103Y0439597D01*
X0234637Y0439063D01*
X0235248Y0438619D01*
X0235921Y0438276D01*
X0236640Y0438042D01*
X0237386Y0437924D01*
X0237564Y0437924D01*
X0237564Y0445524D01*
X0237964Y0445524D01*
X0237964Y0437924D01*
X0238142Y0437924D01*
X0238888Y0438042D01*
X0239606Y0438276D01*
X0240280Y0438619D01*
X0240891Y0439063D01*
X0241425Y0439597D01*
X0241869Y0440209D01*
X0242212Y0440882D01*
X0242419Y0441518D01*
X0243186Y0439665D01*
X0244705Y0438146D01*
X0246690Y0437324D01*
X0248838Y0437324D01*
X0250823Y0438146D01*
X0252342Y0439665D01*
X0253164Y0441650D01*
X0253164Y0449798D01*
X0252342Y0451783D01*
X0252869Y0450510D02*
X0320961Y0450510D01*
X0322559Y0448912D02*
X0253164Y0448912D01*
X0253164Y0447313D02*
X0324158Y0447313D01*
X0324633Y0446838D02*
X0324633Y0427258D01*
X0323858Y0428034D01*
X0322252Y0428699D01*
X0320514Y0428699D01*
X0318909Y0428034D01*
X0317680Y0426805D01*
X0317015Y0425199D01*
X0317015Y0423461D01*
X0317680Y0421856D01*
X0318383Y0421152D01*
X0318383Y0420730D01*
X0317252Y0421199D01*
X0315514Y0421199D01*
X0313909Y0420534D01*
X0312680Y0419305D01*
X0312015Y0417699D01*
X0312015Y0415961D01*
X0312680Y0414356D01*
X0313383Y0413652D01*
X0313383Y0412195D01*
X0312764Y0411576D01*
X0312399Y0410693D01*
X0312399Y0403833D01*
X0312764Y0402951D01*
X0313439Y0402276D01*
X0314321Y0401911D01*
X0318819Y0401911D01*
X0319070Y0402014D01*
X0319321Y0401911D01*
X0323819Y0401911D01*
X0324070Y0402014D01*
X0324321Y0401911D01*
X0328819Y0401911D01*
X0329070Y0402014D01*
X0329321Y0401911D01*
X0333383Y0401911D01*
X0333383Y0394983D01*
X0333840Y0393881D01*
X0340090Y0387631D01*
X0340934Y0386787D01*
X0342037Y0386330D01*
X0361391Y0386330D01*
X0362280Y0385441D01*
X0352055Y0385441D01*
X0352055Y0372630D01*
X0350455Y0372630D01*
X0350455Y0371030D01*
X0337644Y0371030D01*
X0337644Y0359782D01*
X0337767Y0359324D01*
X0338004Y0358914D01*
X0338339Y0358579D01*
X0338750Y0358342D01*
X0339207Y0358219D01*
X0350455Y0358219D01*
X0350455Y0371030D01*
X0352055Y0371030D01*
X0352055Y0358219D01*
X0363303Y0358219D01*
X0363761Y0358342D01*
X0364172Y0358579D01*
X0364507Y0358914D01*
X0364744Y0359324D01*
X0364866Y0359782D01*
X0364866Y0371030D01*
X0352055Y0371030D01*
X0352055Y0372630D01*
X0364866Y0372630D01*
X0364866Y0382855D01*
X0368383Y0379338D01*
X0368383Y0354487D01*
X0367992Y0354096D01*
X0367383Y0352626D01*
X0367383Y0351035D01*
X0367992Y0349564D01*
X0369118Y0348439D01*
X0370588Y0347830D01*
X0372179Y0347830D01*
X0373383Y0348329D01*
X0373383Y0348237D01*
X0372992Y0347846D01*
X0372383Y0346376D01*
X0372383Y0344785D01*
X0372992Y0343314D01*
X0374118Y0342189D01*
X0375178Y0341750D01*
X0374321Y0341750D01*
X0374070Y0341646D01*
X0373819Y0341750D01*
X0369570Y0341750D01*
X0369570Y0344740D01*
X0369114Y0345843D01*
X0365177Y0349780D01*
X0364333Y0350623D01*
X0363230Y0351080D01*
X0326376Y0351080D01*
X0322883Y0354573D01*
X0322883Y0355126D01*
X0322274Y0356596D01*
X0321149Y0357721D01*
X0320283Y0358080D01*
X0321149Y0358439D01*
X0322274Y0359564D01*
X0322883Y0361035D01*
X0322883Y0362626D01*
X0322274Y0364096D01*
X0321149Y0365221D01*
X0319679Y0365830D01*
X0318088Y0365830D01*
X0316618Y0365221D01*
X0316057Y0364661D01*
X0316057Y0366579D01*
X0315953Y0366830D01*
X0316057Y0367081D01*
X0316057Y0371579D01*
X0315953Y0371830D01*
X0316057Y0372081D01*
X0316057Y0376579D01*
X0315953Y0376830D01*
X0316057Y0377081D01*
X0316057Y0381579D01*
X0315953Y0381830D01*
X0316057Y0382081D01*
X0316057Y0386579D01*
X0315953Y0386830D01*
X0316057Y0387081D01*
X0316057Y0391579D01*
X0315692Y0392461D01*
X0315457Y0392696D01*
X0315457Y0394244D01*
X0310790Y0394244D01*
X0310790Y0394416D01*
X0315457Y0394416D01*
X0315457Y0396339D01*
X0315334Y0396797D01*
X0315097Y0397207D01*
X0314762Y0397542D01*
X0314352Y0397779D01*
X0313894Y0397902D01*
X0310790Y0397902D01*
X0310790Y0394416D01*
X0310618Y0394416D01*
X0310618Y0394244D01*
X0305951Y0394244D01*
X0305951Y0392696D01*
X0305786Y0392530D01*
X0305611Y0392530D01*
X0305108Y0393034D01*
X0303502Y0393699D01*
X0301764Y0393699D01*
X0300159Y0393034D01*
X0298930Y0391805D01*
X0298265Y0390199D01*
X0298265Y0388699D01*
X0296764Y0388699D01*
X0295159Y0388034D01*
X0293930Y0386805D01*
X0293265Y0385199D01*
X0293265Y0383461D01*
X0293930Y0381856D01*
X0295159Y0380627D01*
X0296764Y0379962D01*
X0298265Y0379962D01*
X0298265Y0378699D01*
X0296764Y0378699D01*
X0295159Y0378034D01*
X0293930Y0376805D01*
X0293265Y0375199D01*
X0293265Y0373461D01*
X0293930Y0371856D01*
X0295159Y0370627D01*
X0296764Y0369962D01*
X0298265Y0369962D01*
X0298265Y0368699D01*
X0296764Y0368699D01*
X0295159Y0368034D01*
X0293930Y0366805D01*
X0293265Y0365199D01*
X0293265Y0363461D01*
X0293930Y0361856D01*
X0295159Y0360627D01*
X0296764Y0359962D01*
X0298265Y0359962D01*
X0298265Y0358461D01*
X0298930Y0356856D01*
X0300159Y0355627D01*
X0301764Y0354962D01*
X0303502Y0354962D01*
X0305108Y0355627D01*
X0305351Y0355870D01*
X0305351Y0352081D01*
X0305455Y0351830D01*
X0305351Y0351579D01*
X0305351Y0347081D01*
X0305717Y0346199D01*
X0306392Y0345524D01*
X0307274Y0345159D01*
X0307704Y0345159D01*
X0307704Y0316913D01*
X0308161Y0315810D01*
X0315883Y0308088D01*
X0315883Y0280487D01*
X0315633Y0280737D01*
X0315633Y0299927D01*
X0315177Y0301030D01*
X0304133Y0312073D01*
X0304133Y0312626D01*
X0303524Y0314096D01*
X0302399Y0315221D01*
X0300929Y0315830D01*
X0299338Y0315830D01*
X0297868Y0315221D01*
X0297476Y0314830D01*
X0292037Y0314830D01*
X0290934Y0314373D01*
X0288434Y0311873D01*
X0287590Y0311030D01*
X0287133Y0309927D01*
X0287133Y0308455D01*
X0286534Y0307855D01*
X0286316Y0307330D01*
X0281183Y0307330D01*
X0280868Y0308090D01*
X0280193Y0308765D01*
X0279311Y0309130D01*
X0275956Y0309130D01*
X0275133Y0308789D01*
X0274311Y0309130D01*
X0270956Y0309130D01*
X0270133Y0308789D01*
X0269311Y0309130D01*
X0265956Y0309130D01*
X0265074Y0308765D01*
X0264648Y0308339D01*
X0264528Y0308408D01*
X0264070Y0308530D01*
X0262633Y0308530D01*
X0261196Y0308530D01*
X0260739Y0308408D01*
X0260328Y0308171D01*
X0259993Y0307835D01*
X0259756Y0307425D01*
X0259633Y0306967D01*
X0259633Y0303380D01*
X0259633Y0299793D01*
X0259756Y0299335D01*
X0259993Y0298925D01*
X0260328Y0298590D01*
X0260739Y0298353D01*
X0261196Y0298230D01*
X0262633Y0298230D01*
X0262633Y0303380D01*
X0259633Y0303380D01*
X0262633Y0303380D01*
X0262633Y0303380D01*
X0262633Y0303380D01*
X0262633Y0298230D01*
X0264070Y0298230D01*
X0264528Y0298353D01*
X0264633Y0298414D01*
X0264633Y0298073D01*
X0257391Y0290830D01*
X0256838Y0290830D01*
X0255638Y0290333D01*
X0255544Y0290562D01*
X0255061Y0291045D01*
X0255187Y0291263D01*
X0255309Y0291721D01*
X0255309Y0293792D01*
X0251617Y0293792D01*
X0251617Y0294259D01*
X0251150Y0294259D01*
X0251150Y0297892D01*
X0249020Y0297892D01*
X0248563Y0297769D01*
X0248152Y0297532D01*
X0247817Y0297197D01*
X0247580Y0296787D01*
X0247457Y0296329D01*
X0247457Y0294259D01*
X0251150Y0294259D01*
X0251150Y0293792D01*
X0247457Y0293792D01*
X0247457Y0291721D01*
X0247580Y0291263D01*
X0247706Y0291045D01*
X0247223Y0290562D01*
X0246857Y0289680D01*
X0246857Y0284591D01*
X0247223Y0283709D01*
X0247898Y0283034D01*
X0248383Y0282833D01*
X0248383Y0281233D01*
X0248840Y0280131D01*
X0249684Y0279287D01*
X0250934Y0278037D01*
X0252037Y0277580D01*
X0258230Y0277580D01*
X0259033Y0277913D01*
X0259033Y0273953D01*
X0259399Y0273071D01*
X0259633Y0272836D01*
X0259633Y0271573D01*
X0259333Y0271873D01*
X0254333Y0276873D01*
X0253230Y0277330D01*
X0245126Y0277330D01*
X0244383Y0278073D01*
X0244383Y0310588D01*
X0246626Y0312830D01*
X0247179Y0312830D01*
X0248649Y0313439D01*
X0249774Y0314564D01*
X0250383Y0316035D01*
X0250383Y0317626D01*
X0249774Y0319096D01*
X0248649Y0320221D01*
X0247179Y0320830D01*
X0245588Y0320830D01*
X0244118Y0320221D01*
X0242992Y0319096D01*
X0242383Y0317626D01*
X0242383Y0317073D01*
X0241633Y0316323D01*
X0241633Y0316376D01*
X0241024Y0317846D01*
X0239899Y0318971D01*
X0238429Y0319580D01*
X0236838Y0319580D01*
X0235368Y0318971D01*
X0234242Y0317846D01*
X0233633Y0316376D01*
X0233633Y0315823D01*
X0231340Y0313530D01*
X0230883Y0312427D01*
X0230883Y0272483D01*
X0231340Y0271381D01*
X0235934Y0266787D01*
X0237037Y0266330D01*
X0247133Y0266330D01*
X0247133Y0263237D01*
X0246742Y0262846D01*
X0246133Y0261376D01*
X0246133Y0259785D01*
X0246742Y0258314D01*
X0247576Y0257480D01*
X0211758Y0257480D01*
X0210141Y0256810D01*
X0190811Y0237480D01*
X0175783Y0237480D01*
X0175783Y0237711D01*
X0176776Y0238122D01*
X0177592Y0238937D01*
X0178033Y0240003D01*
X0178033Y0252407D01*
X0177592Y0253473D01*
X0176776Y0254289D01*
X0175710Y0254730D01*
X0175043Y0254730D01*
X0175043Y0261707D01*
X0174678Y0262589D01*
X0174003Y0263264D01*
X0173121Y0263630D01*
X0170383Y0263630D01*
X0170383Y0315180D01*
X0175710Y0315180D01*
X0176776Y0315622D01*
X0177592Y0316437D01*
X0178033Y0317503D01*
X0178033Y0324907D01*
X0177592Y0325973D01*
X0170092Y0333473D01*
X0169276Y0334289D01*
X0168210Y0334730D01*
X0158306Y0334730D01*
X0157241Y0334289D01*
X0156425Y0333473D01*
X0154741Y0331789D01*
X0153925Y0330973D01*
X0153483Y0329907D01*
X0153483Y0320003D01*
X0153925Y0318937D01*
X0156425Y0316437D01*
X0157241Y0315622D01*
X0158306Y0315180D01*
X0162383Y0315180D01*
X0162383Y0289730D01*
X0151783Y0289730D01*
X0151783Y0338129D01*
X0152585Y0338930D01*
X0158998Y0338930D01*
X0160064Y0339372D01*
X0160880Y0340187D01*
X0162402Y0341710D01*
X0163925Y0340187D01*
X0164741Y0339372D01*
X0165806Y0338930D01*
X0167376Y0338930D01*
X0167868Y0338439D01*
X0169338Y0337830D01*
X0170929Y0337830D01*
X0172399Y0338439D01*
X0173524Y0339564D01*
X0174133Y0341035D01*
X0174133Y0342626D01*
X0173524Y0344096D01*
X0172399Y0345221D01*
X0170929Y0345830D01*
X0169338Y0345830D01*
X0167868Y0345221D01*
X0167480Y0344834D01*
X0167016Y0345298D01*
X0167703Y0345583D01*
X0168379Y0346258D01*
X0168744Y0347140D01*
X0168744Y0350001D01*
X0169286Y0350001D01*
X0169546Y0349893D01*
X0186793Y0349893D01*
X0187896Y0350350D01*
X0195177Y0357631D01*
X0195633Y0358733D01*
X0195633Y0436838D01*
X0222626Y0463830D01*
X0307641Y0463830D01*
X0324633Y0446838D01*
X0324633Y0445715D02*
X0253164Y0445715D01*
X0253164Y0444116D02*
X0324633Y0444116D01*
X0324633Y0442518D02*
X0253164Y0442518D01*
X0252861Y0440919D02*
X0324633Y0440919D01*
X0324633Y0439321D02*
X0251997Y0439321D01*
X0249798Y0437722D02*
X0324633Y0437722D01*
X0324633Y0436124D02*
X0232164Y0436124D01*
X0232164Y0437722D02*
X0245729Y0437722D01*
X0243531Y0439321D02*
X0241148Y0439321D01*
X0242224Y0440919D02*
X0242667Y0440919D01*
X0237964Y0440919D02*
X0237564Y0440919D01*
X0237564Y0439321D02*
X0237964Y0439321D01*
X0237964Y0442518D02*
X0237564Y0442518D01*
X0237564Y0444116D02*
X0237964Y0444116D01*
X0237964Y0447313D02*
X0237564Y0447313D01*
X0237564Y0448912D02*
X0237964Y0448912D01*
X0237964Y0450510D02*
X0237564Y0450510D01*
X0237564Y0452109D02*
X0237964Y0452109D01*
X0241168Y0452109D02*
X0243511Y0452109D01*
X0242659Y0450510D02*
X0242231Y0450510D01*
X0245683Y0453707D02*
X0229845Y0453707D01*
X0232016Y0452109D02*
X0234360Y0452109D01*
X0233297Y0450510D02*
X0232869Y0450510D01*
X0225683Y0453707D02*
X0219845Y0453707D01*
X0222016Y0452109D02*
X0223511Y0452109D01*
X0217298Y0458503D02*
X0312968Y0458503D01*
X0311370Y0460101D02*
X0218897Y0460101D01*
X0220495Y0461700D02*
X0309771Y0461700D01*
X0308173Y0463298D02*
X0222094Y0463298D01*
X0215700Y0456904D02*
X0314567Y0456904D01*
X0316165Y0455306D02*
X0214101Y0455306D01*
X0215683Y0453707D02*
X0212503Y0453707D01*
X0213511Y0452109D02*
X0210904Y0452109D01*
X0209306Y0450510D02*
X0212659Y0450510D01*
X0212364Y0448912D02*
X0207707Y0448912D01*
X0206109Y0447313D02*
X0212364Y0447313D01*
X0212364Y0445715D02*
X0204510Y0445715D01*
X0202912Y0444116D02*
X0212364Y0444116D01*
X0212364Y0442518D02*
X0201313Y0442518D01*
X0199715Y0440919D02*
X0212667Y0440919D01*
X0213531Y0439321D02*
X0198116Y0439321D01*
X0196518Y0437722D02*
X0215729Y0437722D01*
X0219798Y0437722D02*
X0223364Y0437722D01*
X0223364Y0436124D02*
X0195633Y0436124D01*
X0195633Y0434525D02*
X0223364Y0434525D01*
X0223364Y0432927D02*
X0195633Y0432927D01*
X0195633Y0431328D02*
X0223364Y0431328D01*
X0223364Y0429729D02*
X0195633Y0429729D01*
X0195633Y0428131D02*
X0222082Y0428131D01*
X0213272Y0426532D02*
X0195633Y0426532D01*
X0195633Y0424934D02*
X0212714Y0424934D01*
X0212714Y0423335D02*
X0195633Y0423335D01*
X0195633Y0421737D02*
X0212714Y0421737D01*
X0212714Y0420138D02*
X0195633Y0420138D01*
X0195633Y0418540D02*
X0212714Y0418540D01*
X0213459Y0416941D02*
X0195633Y0416941D01*
X0195633Y0415343D02*
X0219883Y0415343D01*
X0219883Y0413744D02*
X0195633Y0413744D01*
X0195633Y0412146D02*
X0219883Y0412146D01*
X0219883Y0410547D02*
X0195633Y0410547D01*
X0195633Y0408949D02*
X0219883Y0408949D01*
X0219883Y0407350D02*
X0195633Y0407350D01*
X0195633Y0405752D02*
X0219883Y0405752D01*
X0219883Y0404153D02*
X0195633Y0404153D01*
X0195633Y0402555D02*
X0219883Y0402555D01*
X0219883Y0400956D02*
X0195633Y0400956D01*
X0195633Y0399358D02*
X0219883Y0399358D01*
X0219883Y0397759D02*
X0195633Y0397759D01*
X0195633Y0396161D02*
X0219883Y0396161D01*
X0219883Y0394562D02*
X0195633Y0394562D01*
X0195633Y0392964D02*
X0219883Y0392964D01*
X0219883Y0391365D02*
X0195633Y0391365D01*
X0195633Y0389767D02*
X0219883Y0389767D01*
X0220035Y0388168D02*
X0195633Y0388168D01*
X0195633Y0386570D02*
X0220987Y0386570D01*
X0222585Y0384971D02*
X0195633Y0384971D01*
X0195633Y0383373D02*
X0216653Y0383373D01*
X0218879Y0383373D02*
X0223633Y0383373D01*
X0223633Y0381774D02*
X0221617Y0381774D01*
X0222705Y0380176D02*
X0222827Y0380176D01*
X0231633Y0381774D02*
X0234810Y0381774D01*
X0233493Y0380176D02*
X0232705Y0380176D01*
X0231633Y0383373D02*
X0246653Y0383373D01*
X0248879Y0383373D02*
X0293302Y0383373D01*
X0293265Y0384971D02*
X0231633Y0384971D01*
X0231553Y0386570D02*
X0293833Y0386570D01*
X0295484Y0388168D02*
X0230702Y0388168D01*
X0229104Y0389767D02*
X0298265Y0389767D01*
X0298748Y0391365D02*
X0227883Y0391365D01*
X0227883Y0392964D02*
X0300089Y0392964D01*
X0302633Y0389330D02*
X0310704Y0389330D01*
X0310704Y0384330D02*
X0297633Y0384330D01*
X0296248Y0380176D02*
X0252705Y0380176D01*
X0253166Y0378577D02*
X0296471Y0378577D01*
X0294104Y0376979D02*
X0253166Y0376979D01*
X0253166Y0375380D02*
X0293340Y0375380D01*
X0293265Y0373782D02*
X0253166Y0373782D01*
X0253166Y0372183D02*
X0293794Y0372183D01*
X0295261Y0370585D02*
X0253029Y0370585D01*
X0252367Y0368986D02*
X0298265Y0368986D01*
X0294513Y0367388D02*
X0250768Y0367388D01*
X0244764Y0367388D02*
X0239138Y0367388D01*
X0237966Y0367388D02*
X0237566Y0367388D01*
X0236394Y0367388D02*
X0232166Y0367388D01*
X0232166Y0365789D02*
X0293509Y0365789D01*
X0293265Y0364191D02*
X0232166Y0364191D01*
X0232166Y0362592D02*
X0293625Y0362592D01*
X0294792Y0360994D02*
X0232166Y0360994D01*
X0232166Y0359395D02*
X0298265Y0359395D01*
X0298540Y0357796D02*
X0232166Y0357796D01*
X0231951Y0356198D02*
X0235046Y0356198D01*
X0234933Y0356085D02*
X0234696Y0355675D01*
X0234573Y0355217D01*
X0234573Y0352605D01*
X0242488Y0352605D01*
X0242488Y0351055D01*
X0234573Y0351055D01*
X0234573Y0348444D01*
X0234696Y0347986D01*
X0234933Y0347575D01*
X0235268Y0347240D01*
X0235679Y0347003D01*
X0236137Y0346881D01*
X0242488Y0346881D01*
X0242488Y0351055D01*
X0244038Y0351055D01*
X0244038Y0346881D01*
X0250390Y0346881D01*
X0250848Y0347003D01*
X0251258Y0347240D01*
X0251593Y0347575D01*
X0251830Y0347986D01*
X0251953Y0348444D01*
X0251953Y0351055D01*
X0244038Y0351055D01*
X0244038Y0352605D01*
X0242488Y0352605D01*
X0242488Y0356780D01*
X0236137Y0356780D01*
X0235679Y0356657D01*
X0235268Y0356420D01*
X0234933Y0356085D01*
X0234573Y0354599D02*
X0231293Y0354599D01*
X0231363Y0354968D02*
X0231363Y0354968D01*
X0231293Y0353001D02*
X0234573Y0353001D01*
X0234573Y0349804D02*
X0231293Y0349804D01*
X0231293Y0351402D02*
X0242488Y0351402D01*
X0244038Y0351402D02*
X0305351Y0351402D01*
X0305351Y0349804D02*
X0251953Y0349804D01*
X0251889Y0348205D02*
X0305351Y0348205D01*
X0305548Y0346607D02*
X0230158Y0346607D01*
X0231293Y0348205D02*
X0234637Y0348205D01*
X0242488Y0348205D02*
X0244038Y0348205D01*
X0244038Y0349804D02*
X0242488Y0349804D01*
X0242488Y0353001D02*
X0244038Y0353001D01*
X0244038Y0352605D02*
X0244038Y0356780D01*
X0250390Y0356780D01*
X0250848Y0356657D01*
X0251258Y0356420D01*
X0251593Y0356085D01*
X0251830Y0355675D01*
X0251953Y0355217D01*
X0251953Y0352605D01*
X0244038Y0352605D01*
X0244038Y0354599D02*
X0242488Y0354599D01*
X0242488Y0356198D02*
X0244038Y0356198D01*
X0251480Y0356198D02*
X0299588Y0356198D01*
X0302633Y0359330D02*
X0310704Y0359330D01*
X0310704Y0364330D02*
X0297633Y0364330D01*
X0302633Y0369330D02*
X0310704Y0369330D01*
X0310704Y0374330D02*
X0297633Y0374330D01*
X0302633Y0379330D02*
X0310704Y0379330D01*
X0316057Y0378577D02*
X0337644Y0378577D01*
X0337644Y0376979D02*
X0316014Y0376979D01*
X0316057Y0375380D02*
X0337644Y0375380D01*
X0337644Y0373782D02*
X0316057Y0373782D01*
X0316057Y0372183D02*
X0350455Y0372183D01*
X0350455Y0372630D02*
X0337644Y0372630D01*
X0337644Y0383878D01*
X0337767Y0384336D01*
X0338004Y0384746D01*
X0338339Y0385082D01*
X0338750Y0385319D01*
X0339207Y0385441D01*
X0350455Y0385441D01*
X0350455Y0372630D01*
X0351255Y0371830D02*
X0353755Y0374330D01*
X0352055Y0373782D02*
X0350455Y0373782D01*
X0350455Y0375380D02*
X0352055Y0375380D01*
X0352055Y0376979D02*
X0350455Y0376979D01*
X0350455Y0378577D02*
X0352055Y0378577D01*
X0352055Y0380176D02*
X0350455Y0380176D01*
X0350455Y0381774D02*
X0352055Y0381774D01*
X0352055Y0383373D02*
X0350455Y0383373D01*
X0350455Y0384971D02*
X0352055Y0384971D01*
X0341458Y0386570D02*
X0316057Y0386570D01*
X0316057Y0388168D02*
X0339553Y0388168D01*
X0337954Y0389767D02*
X0316057Y0389767D01*
X0316057Y0391365D02*
X0336356Y0391365D01*
X0334757Y0392964D02*
X0315457Y0392964D01*
X0315457Y0394562D02*
X0333558Y0394562D01*
X0333383Y0396161D02*
X0315457Y0396161D01*
X0314386Y0397759D02*
X0333383Y0397759D01*
X0333383Y0399358D02*
X0227883Y0399358D01*
X0227883Y0400956D02*
X0333383Y0400956D01*
X0338229Y0384971D02*
X0316057Y0384971D01*
X0316057Y0383373D02*
X0337644Y0383373D01*
X0337644Y0381774D02*
X0315976Y0381774D01*
X0316057Y0380176D02*
X0337644Y0380176D01*
X0337644Y0370585D02*
X0316057Y0370585D01*
X0316057Y0368986D02*
X0337644Y0368986D01*
X0337644Y0367388D02*
X0316057Y0367388D01*
X0316057Y0365789D02*
X0317988Y0365789D01*
X0319778Y0365789D02*
X0337644Y0365789D01*
X0337644Y0364191D02*
X0322180Y0364191D01*
X0322883Y0362592D02*
X0337644Y0362592D01*
X0337644Y0360994D02*
X0322866Y0360994D01*
X0322105Y0359395D02*
X0337748Y0359395D01*
X0350455Y0359395D02*
X0352055Y0359395D01*
X0352055Y0360994D02*
X0350455Y0360994D01*
X0350455Y0362592D02*
X0352055Y0362592D01*
X0352055Y0364191D02*
X0350455Y0364191D01*
X0350455Y0365789D02*
X0352055Y0365789D01*
X0352055Y0367388D02*
X0350455Y0367388D01*
X0350455Y0368986D02*
X0352055Y0368986D01*
X0352055Y0370585D02*
X0350455Y0370585D01*
X0352055Y0372183D02*
X0368383Y0372183D01*
X0368383Y0370585D02*
X0364866Y0370585D01*
X0364866Y0368986D02*
X0368383Y0368986D01*
X0368383Y0367388D02*
X0364866Y0367388D01*
X0364866Y0365789D02*
X0368383Y0365789D01*
X0368383Y0364191D02*
X0364866Y0364191D01*
X0364866Y0362592D02*
X0368383Y0362592D01*
X0368383Y0360994D02*
X0364866Y0360994D01*
X0364763Y0359395D02*
X0368383Y0359395D01*
X0368383Y0357796D02*
X0320967Y0357796D01*
X0322439Y0356198D02*
X0368383Y0356198D01*
X0368383Y0354599D02*
X0322883Y0354599D01*
X0324455Y0353001D02*
X0367539Y0353001D01*
X0367383Y0351402D02*
X0326054Y0351402D01*
X0307704Y0345008D02*
X0172612Y0345008D01*
X0173809Y0343410D02*
X0307704Y0343410D01*
X0307704Y0341811D02*
X0174133Y0341811D01*
X0173793Y0340213D02*
X0307704Y0340213D01*
X0307704Y0338614D02*
X0172574Y0338614D01*
X0170133Y0336830D02*
X0182633Y0324330D01*
X0205133Y0324330D01*
X0210133Y0319330D01*
X0210133Y0318700D01*
X0210133Y0316830D02*
X0211383Y0315580D01*
X0200526Y0299289D02*
X0199460Y0299730D01*
X0187890Y0299730D01*
X0187399Y0300221D01*
X0185929Y0300830D01*
X0184338Y0300830D01*
X0182868Y0300221D01*
X0181742Y0299096D01*
X0181133Y0297626D01*
X0181133Y0296035D01*
X0181742Y0294564D01*
X0182868Y0293439D01*
X0184338Y0292830D01*
X0185929Y0292830D01*
X0187399Y0293439D01*
X0187890Y0293930D01*
X0197682Y0293930D01*
X0199883Y0291729D01*
X0199883Y0291035D01*
X0200492Y0289564D01*
X0201618Y0288439D01*
X0203088Y0287830D01*
X0204679Y0287830D01*
X0206149Y0288439D01*
X0207274Y0289564D01*
X0207883Y0291035D01*
X0207883Y0292626D01*
X0207274Y0294096D01*
X0206149Y0295221D01*
X0204679Y0295830D01*
X0203985Y0295830D01*
X0201342Y0298473D01*
X0200526Y0299289D01*
X0201163Y0298652D02*
X0230883Y0298652D01*
X0230883Y0300250D02*
X0187330Y0300250D01*
X0182937Y0300250D02*
X0170383Y0300250D01*
X0170383Y0298652D02*
X0181558Y0298652D01*
X0181133Y0297053D02*
X0170383Y0297053D01*
X0170383Y0295455D02*
X0181374Y0295455D01*
X0182451Y0293856D02*
X0170383Y0293856D01*
X0170383Y0292258D02*
X0199355Y0292258D01*
X0200039Y0290659D02*
X0170383Y0290659D01*
X0170383Y0289060D02*
X0174333Y0289060D01*
X0174118Y0288971D02*
X0175588Y0289580D01*
X0177179Y0289580D01*
X0178649Y0288971D01*
X0179040Y0288580D01*
X0188230Y0288580D01*
X0189333Y0288123D01*
X0190177Y0287280D01*
X0195177Y0282280D01*
X0195633Y0281177D01*
X0195633Y0269323D01*
X0198801Y0266155D01*
X0199118Y0266471D01*
X0200588Y0267080D01*
X0202179Y0267080D01*
X0203649Y0266471D01*
X0204774Y0265346D01*
X0205383Y0263876D01*
X0205383Y0262285D01*
X0204774Y0260814D01*
X0203649Y0259689D01*
X0202479Y0259205D01*
X0202483Y0259204D01*
X0203168Y0258920D01*
X0203786Y0258507D01*
X0204311Y0257982D01*
X0204723Y0257365D01*
X0205007Y0256679D01*
X0205152Y0255951D01*
X0205152Y0255764D01*
X0201568Y0255764D01*
X0201568Y0255396D01*
X0205152Y0255396D01*
X0205152Y0255209D01*
X0205007Y0254481D01*
X0204723Y0253795D01*
X0204311Y0253178D01*
X0203786Y0252653D01*
X0203168Y0252241D01*
X0202483Y0251957D01*
X0201754Y0251812D01*
X0201568Y0251812D01*
X0201568Y0255396D01*
X0201199Y0255396D01*
X0197615Y0255396D01*
X0197615Y0255209D01*
X0197760Y0254481D01*
X0198044Y0253795D01*
X0198456Y0253178D01*
X0198981Y0252653D01*
X0199598Y0252241D01*
X0200284Y0251957D01*
X0201012Y0251812D01*
X0201199Y0251812D01*
X0201199Y0255396D01*
X0201199Y0255764D01*
X0197615Y0255764D01*
X0197615Y0255951D01*
X0197760Y0256679D01*
X0198044Y0257365D01*
X0198456Y0257982D01*
X0198981Y0258507D01*
X0199598Y0258920D01*
X0200284Y0259204D01*
X0200287Y0259205D01*
X0199118Y0259689D01*
X0198726Y0260080D01*
X0197037Y0260080D01*
X0195934Y0260537D01*
X0195703Y0260768D01*
X0195703Y0258855D01*
X0187788Y0258855D01*
X0186238Y0258855D01*
X0186238Y0257305D01*
X0187788Y0257305D01*
X0187788Y0253131D01*
X0194140Y0253131D01*
X0194598Y0253253D01*
X0195008Y0253490D01*
X0195343Y0253825D01*
X0195580Y0254236D01*
X0195703Y0254694D01*
X0195703Y0257305D01*
X0187788Y0257305D01*
X0187788Y0258855D01*
X0187788Y0263030D01*
X0193441Y0263030D01*
X0190934Y0265537D01*
X0190090Y0266381D01*
X0189633Y0267483D01*
X0189633Y0279338D01*
X0186391Y0282580D01*
X0179040Y0282580D01*
X0178649Y0282189D01*
X0177179Y0281580D01*
X0175588Y0281580D01*
X0174118Y0282189D01*
X0172992Y0283314D01*
X0172383Y0284785D01*
X0172383Y0286376D01*
X0172992Y0287846D01*
X0174118Y0288971D01*
X0172833Y0287462D02*
X0170383Y0287462D01*
X0170383Y0285863D02*
X0172383Y0285863D01*
X0172599Y0284265D02*
X0170383Y0284265D01*
X0170383Y0282666D02*
X0173640Y0282666D01*
X0170383Y0281068D02*
X0187903Y0281068D01*
X0189501Y0279469D02*
X0170383Y0279469D01*
X0170383Y0277871D02*
X0189633Y0277871D01*
X0189633Y0276272D02*
X0170383Y0276272D01*
X0170383Y0274674D02*
X0189633Y0274674D01*
X0189633Y0273075D02*
X0170383Y0273075D01*
X0170383Y0271477D02*
X0189633Y0271477D01*
X0189633Y0269878D02*
X0170383Y0269878D01*
X0170383Y0268280D02*
X0189633Y0268280D01*
X0189966Y0266681D02*
X0170383Y0266681D01*
X0170383Y0265083D02*
X0191388Y0265083D01*
X0192987Y0263484D02*
X0173472Y0263484D01*
X0174969Y0261886D02*
X0178436Y0261886D01*
X0178446Y0261925D02*
X0178323Y0261467D01*
X0178323Y0258855D01*
X0186238Y0258855D01*
X0186238Y0263030D01*
X0179887Y0263030D01*
X0179429Y0262907D01*
X0179018Y0262670D01*
X0178683Y0262335D01*
X0178446Y0261925D01*
X0178323Y0260287D02*
X0175043Y0260287D01*
X0175043Y0258689D02*
X0186238Y0258689D01*
X0186238Y0257305D02*
X0178323Y0257305D01*
X0178323Y0254694D01*
X0178446Y0254236D01*
X0178683Y0253825D01*
X0179018Y0253490D01*
X0179429Y0253253D01*
X0179887Y0253131D01*
X0186238Y0253131D01*
X0186238Y0257305D01*
X0186238Y0257090D02*
X0187788Y0257090D01*
X0187788Y0255492D02*
X0186238Y0255492D01*
X0186238Y0253893D02*
X0187788Y0253893D01*
X0187788Y0258689D02*
X0199253Y0258689D01*
X0201199Y0258689D02*
X0201568Y0258689D01*
X0201568Y0259080D02*
X0201568Y0255765D01*
X0201199Y0255765D01*
X0201199Y0259080D01*
X0201568Y0259080D01*
X0203514Y0258689D02*
X0246587Y0258689D01*
X0246133Y0260287D02*
X0204247Y0260287D01*
X0205218Y0261886D02*
X0246345Y0261886D01*
X0247133Y0263484D02*
X0205383Y0263484D01*
X0204883Y0265083D02*
X0247133Y0265083D01*
X0244585Y0277871D02*
X0251335Y0277871D01*
X0249501Y0279469D02*
X0244383Y0279469D01*
X0244383Y0281068D02*
X0248452Y0281068D01*
X0248383Y0282666D02*
X0244383Y0282666D01*
X0244383Y0284265D02*
X0246992Y0284265D01*
X0246857Y0285863D02*
X0244383Y0285863D01*
X0244383Y0287462D02*
X0246857Y0287462D01*
X0246857Y0289060D02*
X0244383Y0289060D01*
X0244383Y0290659D02*
X0247320Y0290659D01*
X0247457Y0292258D02*
X0244383Y0292258D01*
X0244383Y0293856D02*
X0251150Y0293856D01*
X0251617Y0293856D02*
X0260417Y0293856D01*
X0262015Y0295455D02*
X0255309Y0295455D01*
X0255309Y0296329D02*
X0255187Y0296787D01*
X0254950Y0297197D01*
X0254615Y0297532D01*
X0254204Y0297769D01*
X0253746Y0297892D01*
X0251617Y0297892D01*
X0251617Y0294259D01*
X0255309Y0294259D01*
X0255309Y0296329D01*
X0255033Y0297053D02*
X0263614Y0297053D01*
X0262633Y0298652D02*
X0262633Y0298652D01*
X0262633Y0300250D02*
X0262633Y0300250D01*
X0262633Y0301849D02*
X0262633Y0301849D01*
X0262633Y0303380D02*
X0262633Y0309330D01*
X0246383Y0325580D01*
X0231383Y0325580D01*
X0224198Y0332765D01*
X0213848Y0346607D02*
X0168523Y0346607D01*
X0168744Y0348205D02*
X0212714Y0348205D01*
X0212714Y0349804D02*
X0168744Y0349804D01*
X0167655Y0345008D02*
X0167306Y0345008D01*
X0163899Y0340213D02*
X0160905Y0340213D01*
X0157220Y0344730D02*
X0150806Y0344730D01*
X0149741Y0344289D01*
X0148033Y0342581D01*
X0148033Y0347171D01*
X0152767Y0351904D01*
X0152940Y0351904D01*
X0152993Y0351706D01*
X0153230Y0351296D01*
X0153566Y0350961D01*
X0153976Y0350724D01*
X0154434Y0350601D01*
X0157623Y0350601D01*
X0157623Y0351904D01*
X0157624Y0351904D01*
X0157624Y0350601D01*
X0159009Y0350601D01*
X0159009Y0346519D01*
X0157220Y0344730D01*
X0157498Y0345008D02*
X0148033Y0345008D01*
X0148033Y0343410D02*
X0148862Y0343410D01*
X0148033Y0346607D02*
X0159009Y0346607D01*
X0159009Y0348205D02*
X0149068Y0348205D01*
X0150667Y0349804D02*
X0159009Y0349804D01*
X0157624Y0351402D02*
X0157623Y0351402D01*
X0153169Y0351402D02*
X0152265Y0351402D01*
X0145661Y0353001D02*
X0080033Y0353001D01*
X0080033Y0354599D02*
X0134681Y0354599D01*
X0134072Y0356198D02*
X0080033Y0356198D01*
X0080033Y0357796D02*
X0134072Y0357796D01*
X0134072Y0359395D02*
X0080033Y0359395D01*
X0080033Y0360994D02*
X0134248Y0360994D01*
X0134291Y0362592D02*
X0080033Y0362592D01*
X0080033Y0364191D02*
X0134072Y0364191D01*
X0134072Y0367388D02*
X0080033Y0367388D01*
X0080033Y0368986D02*
X0134606Y0368986D01*
X0134107Y0370585D02*
X0132590Y0370585D01*
X0132849Y0372183D02*
X0134072Y0372183D01*
X0134072Y0373782D02*
X0132849Y0373782D01*
X0132849Y0375380D02*
X0134072Y0375380D01*
X0133137Y0376979D02*
X0135532Y0376979D01*
X0137705Y0376979D02*
X0138172Y0376979D01*
X0138172Y0375380D02*
X0137705Y0375380D01*
X0137705Y0373782D02*
X0138172Y0373782D01*
X0138172Y0372183D02*
X0137705Y0372183D01*
X0137705Y0370585D02*
X0138172Y0370585D01*
X0138172Y0368986D02*
X0137705Y0368986D01*
X0137705Y0367388D02*
X0138172Y0367388D01*
X0137705Y0365789D02*
X0080033Y0365789D01*
X0080033Y0370585D02*
X0125177Y0370585D01*
X0124918Y0372183D02*
X0080033Y0372183D01*
X0080033Y0373782D02*
X0124918Y0373782D01*
X0124918Y0375380D02*
X0080033Y0375380D01*
X0080033Y0376979D02*
X0124630Y0376979D01*
X0124318Y0378577D02*
X0080033Y0378577D01*
X0080033Y0380176D02*
X0124318Y0380176D01*
X0124318Y0381774D02*
X0080033Y0381774D01*
X0080033Y0383373D02*
X0124629Y0383373D01*
X0130987Y0386570D02*
X0080033Y0386570D01*
X0080033Y0388168D02*
X0130035Y0388168D01*
X0129883Y0389767D02*
X0080033Y0389767D01*
X0080033Y0391365D02*
X0130397Y0391365D01*
X0132203Y0392964D02*
X0080033Y0392964D01*
X0080033Y0394562D02*
X0137050Y0394562D01*
X0135564Y0392964D02*
X0140730Y0392964D01*
X0140730Y0391365D02*
X0137370Y0391365D01*
X0137883Y0389767D02*
X0140730Y0389767D01*
X0140730Y0388168D02*
X0139147Y0388168D01*
X0140599Y0386570D02*
X0140730Y0386570D01*
X0133875Y0384971D02*
X0080033Y0384971D01*
X0080033Y0396161D02*
X0135452Y0396161D01*
X0133853Y0397759D02*
X0080033Y0397759D01*
X0080033Y0399358D02*
X0132501Y0399358D01*
X0132233Y0400956D02*
X0080033Y0400956D01*
X0080033Y0402555D02*
X0132233Y0402555D01*
X0132233Y0404153D02*
X0080033Y0404153D01*
X0080033Y0405752D02*
X0132233Y0405752D01*
X0132233Y0407350D02*
X0080033Y0407350D01*
X0080033Y0408949D02*
X0132233Y0408949D01*
X0132233Y0410547D02*
X0080033Y0410547D01*
X0080033Y0412146D02*
X0132233Y0412146D01*
X0132233Y0413744D02*
X0080033Y0413744D01*
X0080033Y0415343D02*
X0132233Y0415343D01*
X0132233Y0416941D02*
X0080033Y0416941D01*
X0080033Y0418540D02*
X0132233Y0418540D01*
X0133090Y0420138D02*
X0080033Y0420138D01*
X0080033Y0421737D02*
X0134689Y0421737D01*
X0154328Y0421737D02*
X0184633Y0421737D01*
X0184633Y0423335D02*
X0080033Y0423335D01*
X0080033Y0424934D02*
X0184633Y0424934D01*
X0184633Y0426532D02*
X0080033Y0426532D01*
X0080033Y0428131D02*
X0184633Y0428131D01*
X0184633Y0429729D02*
X0080033Y0429729D01*
X0080033Y0431328D02*
X0184633Y0431328D01*
X0184633Y0432927D02*
X0080033Y0432927D01*
X0080033Y0434525D02*
X0184633Y0434525D01*
X0184633Y0436124D02*
X0080033Y0436124D01*
X0080033Y0437722D02*
X0184633Y0437722D01*
X0184633Y0439321D02*
X0080033Y0439321D01*
X0080033Y0440919D02*
X0185044Y0440919D01*
X0186578Y0442518D02*
X0080033Y0442518D01*
X0080033Y0444116D02*
X0188177Y0444116D01*
X0189775Y0445715D02*
X0101255Y0445715D01*
X0102135Y0446079D02*
X0104526Y0448471D01*
X0105821Y0451596D01*
X0105821Y0454978D01*
X0104526Y0458103D01*
X0102135Y0460495D01*
X0099010Y0461789D01*
X0095627Y0461789D01*
X0092502Y0460495D01*
X0090110Y0458103D01*
X0088816Y0454978D01*
X0088816Y0451596D01*
X0090110Y0448471D01*
X0092502Y0446079D01*
X0095627Y0444785D01*
X0099010Y0444785D01*
X0102135Y0446079D01*
X0103369Y0447313D02*
X0191374Y0447313D01*
X0192972Y0448912D02*
X0104709Y0448912D01*
X0105371Y0450510D02*
X0194571Y0450510D01*
X0196169Y0452109D02*
X0105821Y0452109D01*
X0105821Y0453707D02*
X0197768Y0453707D01*
X0199366Y0455306D02*
X0105685Y0455306D01*
X0105023Y0456904D02*
X0200965Y0456904D01*
X0202563Y0458503D02*
X0104127Y0458503D01*
X0102528Y0460101D02*
X0204162Y0460101D01*
X0205760Y0461700D02*
X0099226Y0461700D01*
X0095411Y0461700D02*
X0080033Y0461700D01*
X0080033Y0463298D02*
X0207359Y0463298D01*
X0208957Y0464897D02*
X0080033Y0464897D01*
X0080033Y0466495D02*
X0210556Y0466495D01*
X0212154Y0468094D02*
X0080033Y0468094D01*
X0080033Y0469692D02*
X0213753Y0469692D01*
X0215351Y0471291D02*
X0080033Y0471291D01*
X0080033Y0472889D02*
X0216950Y0472889D01*
X0221997Y0439321D02*
X0223364Y0439321D01*
X0232164Y0439321D02*
X0234379Y0439321D01*
X0233303Y0440919D02*
X0232861Y0440919D01*
X0232164Y0434525D02*
X0324633Y0434525D01*
X0324633Y0432927D02*
X0232164Y0432927D01*
X0232164Y0431328D02*
X0324633Y0431328D01*
X0324633Y0429729D02*
X0232164Y0429729D01*
X0232164Y0428131D02*
X0319144Y0428131D01*
X0317567Y0426532D02*
X0251064Y0426532D01*
X0251258Y0426420D02*
X0250848Y0426657D01*
X0250390Y0426780D01*
X0244038Y0426780D01*
X0244038Y0422605D01*
X0242488Y0422605D01*
X0242488Y0421055D01*
X0234573Y0421055D01*
X0234573Y0418444D01*
X0234696Y0417986D01*
X0234933Y0417575D01*
X0235268Y0417240D01*
X0235679Y0417003D01*
X0236137Y0416881D01*
X0242488Y0416881D01*
X0242488Y0421055D01*
X0244038Y0421055D01*
X0244038Y0416881D01*
X0250390Y0416881D01*
X0250848Y0417003D01*
X0251258Y0417240D01*
X0251593Y0417575D01*
X0251830Y0417986D01*
X0251953Y0418444D01*
X0251953Y0421055D01*
X0244038Y0421055D01*
X0244038Y0422605D01*
X0251953Y0422605D01*
X0251953Y0425217D01*
X0251830Y0425675D01*
X0251593Y0426085D01*
X0251258Y0426420D01*
X0251953Y0424934D02*
X0317015Y0424934D01*
X0317067Y0423335D02*
X0251953Y0423335D01*
X0251953Y0420138D02*
X0313514Y0420138D01*
X0312363Y0418540D02*
X0251953Y0418540D01*
X0250617Y0416941D02*
X0312015Y0416941D01*
X0312271Y0415343D02*
X0227883Y0415343D01*
X0227883Y0413744D02*
X0313291Y0413744D01*
X0313334Y0412146D02*
X0227883Y0412146D01*
X0227883Y0410547D02*
X0312399Y0410547D01*
X0312399Y0408949D02*
X0227883Y0408949D01*
X0227883Y0407350D02*
X0312399Y0407350D01*
X0312399Y0405752D02*
X0227883Y0405752D01*
X0227883Y0404153D02*
X0312399Y0404153D01*
X0313160Y0402555D02*
X0227883Y0402555D01*
X0227883Y0397759D02*
X0307022Y0397759D01*
X0307057Y0397779D02*
X0306646Y0397542D01*
X0306311Y0397207D01*
X0306074Y0396797D01*
X0305951Y0396339D01*
X0305951Y0394416D01*
X0310618Y0394416D01*
X0310618Y0397902D01*
X0307514Y0397902D01*
X0307057Y0397779D01*
X0305951Y0396161D02*
X0227883Y0396161D01*
X0227883Y0394562D02*
X0305951Y0394562D01*
X0305951Y0392964D02*
X0305178Y0392964D01*
X0310618Y0394562D02*
X0310790Y0394562D01*
X0310790Y0396161D02*
X0310618Y0396161D01*
X0310618Y0397759D02*
X0310790Y0397759D01*
X0294011Y0381774D02*
X0251617Y0381774D01*
X0243915Y0381774D02*
X0240722Y0381774D01*
X0242039Y0380176D02*
X0242827Y0380176D01*
X0237966Y0380176D02*
X0237566Y0380176D01*
X0237566Y0381774D02*
X0237966Y0381774D01*
X0237966Y0378577D02*
X0237566Y0378577D01*
X0237566Y0376979D02*
X0237966Y0376979D01*
X0237966Y0375380D02*
X0237566Y0375380D01*
X0237566Y0373782D02*
X0237966Y0373782D01*
X0237966Y0372183D02*
X0237566Y0372183D01*
X0237566Y0370585D02*
X0237966Y0370585D01*
X0237966Y0368986D02*
X0237566Y0368986D01*
X0234015Y0368986D02*
X0232367Y0368986D01*
X0233029Y0370585D02*
X0233175Y0370585D01*
X0241518Y0368986D02*
X0243165Y0368986D01*
X0242503Y0370585D02*
X0242357Y0370585D01*
X0251953Y0354599D02*
X0305351Y0354599D01*
X0305351Y0353001D02*
X0251953Y0353001D01*
X0223233Y0359395D02*
X0195633Y0359395D01*
X0195633Y0360994D02*
X0223233Y0360994D01*
X0223233Y0362592D02*
X0195633Y0362592D01*
X0195633Y0364191D02*
X0223233Y0364191D01*
X0223233Y0365789D02*
X0195633Y0365789D01*
X0195633Y0367388D02*
X0214764Y0367388D01*
X0213165Y0368986D02*
X0195633Y0368986D01*
X0195633Y0370585D02*
X0212503Y0370585D01*
X0212366Y0372183D02*
X0195633Y0372183D01*
X0195633Y0373782D02*
X0212366Y0373782D01*
X0212366Y0375380D02*
X0195633Y0375380D01*
X0195633Y0376979D02*
X0212366Y0376979D01*
X0212366Y0378577D02*
X0195633Y0378577D01*
X0195633Y0380176D02*
X0212827Y0380176D01*
X0213915Y0381774D02*
X0195633Y0381774D01*
X0184633Y0381774D02*
X0149098Y0381774D01*
X0149098Y0380176D02*
X0164378Y0380176D01*
X0162779Y0378577D02*
X0148845Y0378577D01*
X0149098Y0383373D02*
X0184633Y0383373D01*
X0184633Y0384971D02*
X0148892Y0384971D01*
X0148730Y0386570D02*
X0184633Y0386570D01*
X0184633Y0388168D02*
X0148730Y0388168D01*
X0148730Y0389767D02*
X0184633Y0389767D01*
X0184633Y0391365D02*
X0148730Y0391365D01*
X0148730Y0392964D02*
X0184633Y0392964D01*
X0184633Y0394562D02*
X0151967Y0394562D01*
X0153565Y0396161D02*
X0184633Y0396161D01*
X0184633Y0397759D02*
X0155164Y0397759D01*
X0156516Y0399358D02*
X0184633Y0399358D01*
X0184633Y0400956D02*
X0156783Y0400956D01*
X0156783Y0402555D02*
X0184633Y0402555D01*
X0184633Y0404153D02*
X0156783Y0404153D01*
X0156783Y0405752D02*
X0184633Y0405752D01*
X0184633Y0407350D02*
X0156783Y0407350D01*
X0156783Y0408949D02*
X0184633Y0408949D01*
X0184633Y0410547D02*
X0156783Y0410547D01*
X0156783Y0412146D02*
X0184633Y0412146D01*
X0184633Y0413744D02*
X0156783Y0413744D01*
X0156783Y0415343D02*
X0184633Y0415343D01*
X0184633Y0416941D02*
X0156783Y0416941D01*
X0156783Y0418540D02*
X0184633Y0418540D01*
X0184633Y0420138D02*
X0155926Y0420138D01*
X0183389Y0380176D02*
X0184633Y0380176D01*
X0184633Y0368479D02*
X0184633Y0366681D01*
X0180182Y0362230D01*
X0178306Y0362230D01*
X0177241Y0361789D01*
X0176425Y0360973D01*
X0175496Y0360044D01*
X0175496Y0361737D01*
X0175131Y0362619D01*
X0174455Y0363294D01*
X0173573Y0363659D01*
X0168752Y0363659D01*
X0168752Y0365180D01*
X0180710Y0365180D01*
X0181776Y0365622D01*
X0184276Y0368122D01*
X0184633Y0368479D01*
X0184633Y0367388D02*
X0183542Y0367388D01*
X0183741Y0365789D02*
X0181943Y0365789D01*
X0182142Y0364191D02*
X0168752Y0364191D01*
X0175142Y0362592D02*
X0180544Y0362592D01*
X0176445Y0360994D02*
X0175496Y0360994D01*
X0176425Y0360973D02*
X0176425Y0360973D01*
X0180085Y0356430D02*
X0181960Y0356430D01*
X0183026Y0356872D01*
X0189091Y0362937D01*
X0189333Y0363037D01*
X0189633Y0363338D01*
X0189633Y0360573D01*
X0184954Y0355893D01*
X0179548Y0355893D01*
X0180085Y0356430D01*
X0179852Y0356198D02*
X0185258Y0356198D01*
X0183951Y0357796D02*
X0186857Y0357796D01*
X0185549Y0359395D02*
X0188455Y0359395D01*
X0189633Y0360994D02*
X0187148Y0360994D01*
X0188746Y0362592D02*
X0189633Y0362592D01*
X0193744Y0356198D02*
X0213020Y0356198D01*
X0212714Y0354599D02*
X0192145Y0354599D01*
X0190547Y0353001D02*
X0212714Y0353001D01*
X0212714Y0351402D02*
X0188948Y0351402D01*
X0195245Y0357796D02*
X0221747Y0357796D01*
X0220768Y0367388D02*
X0223233Y0367388D01*
X0223165Y0368986D02*
X0222367Y0368986D01*
X0230548Y0416941D02*
X0235910Y0416941D01*
X0234573Y0418540D02*
X0231293Y0418540D01*
X0231293Y0420138D02*
X0234573Y0420138D01*
X0234573Y0422605D02*
X0242488Y0422605D01*
X0242488Y0426780D01*
X0236137Y0426780D01*
X0235679Y0426657D01*
X0235268Y0426420D01*
X0234933Y0426085D01*
X0234696Y0425675D01*
X0234573Y0425217D01*
X0234573Y0422605D01*
X0234573Y0423335D02*
X0231293Y0423335D01*
X0231293Y0421737D02*
X0242488Y0421737D01*
X0244038Y0421737D02*
X0317799Y0421737D01*
X0323623Y0428131D02*
X0324633Y0428131D01*
X0337633Y0439321D02*
X0337633Y0439321D01*
X0337633Y0439389D02*
X0341205Y0439389D01*
X0341205Y0441004D01*
X0341082Y0441462D01*
X0340845Y0441872D01*
X0340510Y0442208D01*
X0340100Y0442445D01*
X0339642Y0442567D01*
X0337633Y0442567D01*
X0337633Y0439389D01*
X0337633Y0440919D02*
X0337633Y0440919D01*
X0337633Y0442518D02*
X0337633Y0442518D01*
X0339827Y0442518D02*
X0345440Y0442518D01*
X0344062Y0440919D02*
X0341205Y0440919D01*
X0341205Y0439321D02*
X0344062Y0439321D01*
X0344076Y0437722D02*
X0341191Y0437722D01*
X0341805Y0436124D02*
X0343462Y0436124D01*
X0343462Y0434525D02*
X0341805Y0434525D01*
X0341805Y0432927D02*
X0343462Y0432927D01*
X0344033Y0431328D02*
X0341234Y0431328D01*
X0342027Y0429729D02*
X0343239Y0429729D01*
X0343186Y0428131D02*
X0342081Y0428131D01*
X0342081Y0426532D02*
X0343186Y0426532D01*
X0343186Y0424934D02*
X0342601Y0424934D01*
X0347633Y0439389D02*
X0351205Y0439389D01*
X0351205Y0441004D01*
X0351082Y0441462D01*
X0350845Y0441872D01*
X0350510Y0442208D01*
X0350100Y0442445D01*
X0349642Y0442567D01*
X0347633Y0442567D01*
X0347633Y0439389D01*
X0347633Y0440919D02*
X0347633Y0440919D01*
X0347633Y0442518D02*
X0347633Y0442518D01*
X0349827Y0442518D02*
X0386257Y0442518D01*
X0386257Y0440919D02*
X0351205Y0440919D01*
X0351205Y0439321D02*
X0386257Y0439321D01*
X0386257Y0437722D02*
X0368343Y0437722D01*
X0369941Y0436124D02*
X0386257Y0436124D01*
X0386257Y0434525D02*
X0370533Y0434525D01*
X0379595Y0432927D02*
X0380062Y0432927D01*
X0380062Y0431328D02*
X0379595Y0431328D01*
X0379595Y0429729D02*
X0380062Y0429729D01*
X0380062Y0428131D02*
X0379595Y0428131D01*
X0379595Y0426532D02*
X0380062Y0426532D01*
X0383579Y0426532D02*
X0386257Y0426532D01*
X0386257Y0424934D02*
X0375938Y0424934D01*
X0375938Y0423335D02*
X0386257Y0423335D01*
X0386257Y0421737D02*
X0382844Y0421737D01*
X0383695Y0420138D02*
X0386257Y0420138D01*
X0386257Y0418540D02*
X0383695Y0418540D01*
X0383695Y0416941D02*
X0386257Y0416941D01*
X0386257Y0415343D02*
X0383595Y0415343D01*
X0386257Y0413744D02*
X0378712Y0413744D01*
X0379595Y0415343D02*
X0380062Y0415343D01*
X0380062Y0416941D02*
X0379595Y0416941D01*
X0379595Y0418540D02*
X0380062Y0418540D01*
X0380062Y0420138D02*
X0379595Y0420138D01*
X0379595Y0421737D02*
X0380062Y0421737D01*
X0383695Y0428131D02*
X0386257Y0428131D01*
X0386257Y0429729D02*
X0383695Y0429729D01*
X0383695Y0431328D02*
X0386257Y0431328D01*
X0386257Y0432927D02*
X0382948Y0432927D01*
X0379806Y0412146D02*
X0386257Y0412146D01*
X0386257Y0410547D02*
X0385117Y0410547D01*
X0385142Y0408949D02*
X0386257Y0408949D01*
X0386257Y0407350D02*
X0385142Y0407350D01*
X0385142Y0405752D02*
X0386257Y0405752D01*
X0386257Y0404153D02*
X0385142Y0404153D01*
X0386257Y0402555D02*
X0383744Y0402555D01*
X0381656Y0402555D02*
X0381484Y0402555D01*
X0381484Y0404153D02*
X0381656Y0404153D01*
X0381656Y0405752D02*
X0381484Y0405752D01*
X0381570Y0407263D02*
X0381570Y0374517D01*
X0381383Y0374330D01*
X0381570Y0374143D01*
X0381570Y0336397D01*
X0381484Y0337016D02*
X0381656Y0337016D01*
X0381656Y0338614D02*
X0381484Y0338614D01*
X0381484Y0340213D02*
X0381656Y0340213D01*
X0384922Y0340213D02*
X0386257Y0340213D01*
X0386257Y0341811D02*
X0377737Y0341811D01*
X0379814Y0343410D02*
X0386257Y0343410D01*
X0386257Y0345008D02*
X0380383Y0345008D01*
X0380288Y0346607D02*
X0386257Y0346607D01*
X0386257Y0348205D02*
X0379415Y0348205D01*
X0379383Y0349804D02*
X0386257Y0349804D01*
X0386257Y0351402D02*
X0379383Y0351402D01*
X0379383Y0353001D02*
X0386257Y0353001D01*
X0386257Y0354599D02*
X0379383Y0354599D01*
X0379383Y0356198D02*
X0386257Y0356198D01*
X0386257Y0357796D02*
X0379383Y0357796D01*
X0379383Y0359395D02*
X0386257Y0359395D01*
X0386257Y0360994D02*
X0379383Y0360994D01*
X0379383Y0362592D02*
X0386257Y0362592D01*
X0386257Y0364191D02*
X0379383Y0364191D01*
X0379383Y0365789D02*
X0386257Y0365789D01*
X0386257Y0367388D02*
X0379383Y0367388D01*
X0379383Y0368986D02*
X0386257Y0368986D01*
X0386257Y0370585D02*
X0379383Y0370585D01*
X0379383Y0372183D02*
X0386257Y0372183D01*
X0386257Y0373782D02*
X0379383Y0373782D01*
X0379383Y0375380D02*
X0386257Y0375380D01*
X0386257Y0376979D02*
X0379383Y0376979D01*
X0379383Y0378577D02*
X0386257Y0378577D01*
X0386257Y0380176D02*
X0379383Y0380176D01*
X0379383Y0381774D02*
X0386257Y0381774D01*
X0386257Y0383373D02*
X0379383Y0383373D01*
X0378735Y0384971D02*
X0386257Y0384971D01*
X0386257Y0386570D02*
X0377136Y0386570D01*
X0375538Y0388168D02*
X0386257Y0388168D01*
X0386257Y0389767D02*
X0373939Y0389767D01*
X0372341Y0391365D02*
X0386257Y0391365D01*
X0386257Y0392964D02*
X0370742Y0392964D01*
X0369383Y0394562D02*
X0386257Y0394562D01*
X0386257Y0396161D02*
X0373871Y0396161D01*
X0375062Y0397759D02*
X0386257Y0397759D01*
X0386257Y0399358D02*
X0375383Y0399358D01*
X0375039Y0400956D02*
X0386257Y0400956D01*
X0381656Y0407350D02*
X0381484Y0407350D01*
X0381484Y0408949D02*
X0381656Y0408949D01*
X0381656Y0410547D02*
X0381484Y0410547D01*
X0365947Y0381774D02*
X0364866Y0381774D01*
X0364866Y0380176D02*
X0367545Y0380176D01*
X0368383Y0378577D02*
X0364866Y0378577D01*
X0364866Y0376979D02*
X0368383Y0376979D01*
X0368383Y0375380D02*
X0364866Y0375380D01*
X0364866Y0373782D02*
X0368383Y0373782D01*
X0367893Y0349804D02*
X0365152Y0349804D01*
X0366751Y0348205D02*
X0369682Y0348205D01*
X0368349Y0346607D02*
X0372479Y0346607D01*
X0372383Y0345008D02*
X0369459Y0345008D01*
X0369570Y0343410D02*
X0372953Y0343410D01*
X0375030Y0341811D02*
X0369570Y0341811D01*
X0373085Y0348205D02*
X0373352Y0348205D01*
X0376570Y0336397D02*
X0376570Y0330393D01*
X0380133Y0326830D01*
X0380133Y0321427D01*
X0384699Y0321031D02*
X0386257Y0321031D01*
X0386257Y0322629D02*
X0384699Y0322629D01*
X0384552Y0324228D02*
X0386257Y0324228D01*
X0386257Y0325826D02*
X0383333Y0325826D01*
X0383333Y0327425D02*
X0386257Y0327425D01*
X0386257Y0329023D02*
X0382466Y0329023D01*
X0380867Y0330622D02*
X0386257Y0330622D01*
X0386257Y0332220D02*
X0384663Y0332220D01*
X0385142Y0333819D02*
X0386257Y0333819D01*
X0386257Y0335417D02*
X0385142Y0335417D01*
X0385142Y0337016D02*
X0386257Y0337016D01*
X0386257Y0338614D02*
X0385142Y0338614D01*
X0381656Y0335417D02*
X0381484Y0335417D01*
X0381484Y0333819D02*
X0381656Y0333819D01*
X0381656Y0332220D02*
X0381484Y0332220D01*
X0384699Y0319432D02*
X0386257Y0319432D01*
X0386257Y0317834D02*
X0384428Y0317834D01*
X0384699Y0316235D02*
X0386257Y0316235D01*
X0386257Y0314637D02*
X0384699Y0314637D01*
X0384699Y0313038D02*
X0386257Y0313038D01*
X0386257Y0311440D02*
X0384347Y0311440D01*
X0383733Y0309841D02*
X0386257Y0309841D01*
X0386257Y0308243D02*
X0384133Y0308243D01*
X0383868Y0306644D02*
X0386257Y0306644D01*
X0386257Y0305046D02*
X0382756Y0305046D01*
X0386257Y0303447D02*
X0372759Y0303447D01*
X0374358Y0301849D02*
X0386257Y0301849D01*
X0386257Y0300250D02*
X0375499Y0300250D01*
X0375633Y0298652D02*
X0381298Y0298652D01*
X0380164Y0297053D02*
X0375633Y0297053D01*
X0375633Y0295455D02*
X0379883Y0295455D01*
X0380268Y0293856D02*
X0375633Y0293856D01*
X0375633Y0292258D02*
X0381549Y0292258D01*
X0382133Y0290659D02*
X0375711Y0290659D01*
X0376557Y0289060D02*
X0382133Y0289060D01*
X0382133Y0287462D02*
X0376633Y0287462D01*
X0376045Y0285863D02*
X0382133Y0285863D01*
X0382133Y0284265D02*
X0373875Y0284265D01*
X0371392Y0284265D02*
X0369133Y0284265D01*
X0369222Y0285863D02*
X0368828Y0285863D01*
X0368633Y0287462D02*
X0367658Y0287462D01*
X0368710Y0289060D02*
X0361883Y0289060D01*
X0361883Y0287462D02*
X0362608Y0287462D01*
X0361883Y0290659D02*
X0369555Y0290659D01*
X0369633Y0292258D02*
X0361883Y0292258D01*
X0361883Y0293856D02*
X0369633Y0293856D01*
X0369633Y0295455D02*
X0361883Y0295455D01*
X0361883Y0297053D02*
X0369633Y0297053D01*
X0369069Y0298652D02*
X0361883Y0298652D01*
X0361883Y0300250D02*
X0367471Y0300250D01*
X0365872Y0301849D02*
X0361883Y0301849D01*
X0361883Y0303447D02*
X0362860Y0303447D01*
X0361389Y0308243D02*
X0361378Y0308243D01*
X0360279Y0309841D02*
X0362487Y0309841D01*
X0359347Y0311440D02*
X0367169Y0311440D01*
X0367779Y0309841D02*
X0376533Y0309841D01*
X0376133Y0308243D02*
X0368878Y0308243D01*
X0369562Y0306644D02*
X0376399Y0306644D01*
X0377511Y0305046D02*
X0371161Y0305046D01*
X0375597Y0311440D02*
X0375919Y0311440D01*
X0371383Y0314734D02*
X0355133Y0314734D01*
X0342633Y0302234D01*
X0342633Y0291830D01*
X0342505Y0285452D01*
X0342505Y0241830D01*
X0345705Y0248018D02*
X0345705Y0285420D01*
X0345784Y0289324D01*
X0346024Y0289564D01*
X0346633Y0291035D01*
X0346633Y0292626D01*
X0346024Y0294096D01*
X0345833Y0294287D01*
X0345833Y0300908D01*
X0355290Y0310365D01*
X0355715Y0310365D01*
X0355368Y0310221D01*
X0354242Y0309096D01*
X0353633Y0307626D01*
X0353633Y0306035D01*
X0354242Y0304564D01*
X0355368Y0303439D01*
X0355883Y0303226D01*
X0355883Y0280487D01*
X0354899Y0281471D01*
X0353429Y0282080D01*
X0351838Y0282080D01*
X0350368Y0281471D01*
X0349242Y0280346D01*
X0348633Y0278876D01*
X0348633Y0277285D01*
X0349242Y0275814D01*
X0349633Y0275423D01*
X0349633Y0273147D01*
X0349108Y0272930D01*
X0348433Y0272255D01*
X0348068Y0271373D01*
X0348068Y0266481D01*
X0348433Y0265599D01*
X0348452Y0265580D01*
X0348433Y0265562D01*
X0348068Y0264680D01*
X0348068Y0259788D01*
X0348433Y0258906D01*
X0349108Y0258231D01*
X0349633Y0258013D01*
X0349633Y0255008D01*
X0348930Y0254305D01*
X0348265Y0252699D01*
X0348265Y0251704D01*
X0347590Y0251030D01*
X0347133Y0249927D01*
X0347133Y0247999D01*
X0346658Y0247802D01*
X0346442Y0247587D01*
X0346227Y0247802D01*
X0345705Y0248018D01*
X0345705Y0249098D02*
X0347133Y0249098D01*
X0347452Y0250696D02*
X0345705Y0250696D01*
X0345705Y0252295D02*
X0348265Y0252295D01*
X0348759Y0253893D02*
X0345705Y0253893D01*
X0345705Y0255492D02*
X0349633Y0255492D01*
X0349633Y0257090D02*
X0345705Y0257090D01*
X0345705Y0258689D02*
X0348650Y0258689D01*
X0348068Y0260287D02*
X0345705Y0260287D01*
X0345705Y0261886D02*
X0348068Y0261886D01*
X0348068Y0263484D02*
X0345705Y0263484D01*
X0345705Y0265083D02*
X0348235Y0265083D01*
X0348068Y0266681D02*
X0345705Y0266681D01*
X0345705Y0268280D02*
X0348068Y0268280D01*
X0348068Y0269878D02*
X0345705Y0269878D01*
X0345705Y0271477D02*
X0348111Y0271477D01*
X0349460Y0273075D02*
X0345705Y0273075D01*
X0345705Y0274674D02*
X0349633Y0274674D01*
X0349053Y0276272D02*
X0345705Y0276272D01*
X0345705Y0277871D02*
X0348633Y0277871D01*
X0348879Y0279469D02*
X0345705Y0279469D01*
X0345705Y0281068D02*
X0349964Y0281068D01*
X0345705Y0282666D02*
X0355883Y0282666D01*
X0355883Y0281068D02*
X0355302Y0281068D01*
X0355883Y0284265D02*
X0345705Y0284265D01*
X0345714Y0285863D02*
X0355883Y0285863D01*
X0355883Y0287462D02*
X0345746Y0287462D01*
X0345778Y0289060D02*
X0355883Y0289060D01*
X0355883Y0290659D02*
X0346478Y0290659D01*
X0346633Y0292258D02*
X0355883Y0292258D01*
X0355883Y0293856D02*
X0346124Y0293856D01*
X0345833Y0295455D02*
X0355883Y0295455D01*
X0355883Y0297053D02*
X0345833Y0297053D01*
X0345833Y0298652D02*
X0355883Y0298652D01*
X0355883Y0300250D02*
X0345833Y0300250D01*
X0346774Y0301849D02*
X0355883Y0301849D01*
X0355360Y0303447D02*
X0348372Y0303447D01*
X0349971Y0305046D02*
X0354043Y0305046D01*
X0353633Y0306644D02*
X0351569Y0306644D01*
X0353168Y0308243D02*
X0353889Y0308243D01*
X0354766Y0309841D02*
X0354987Y0309841D01*
X0346894Y0317834D02*
X0343378Y0317834D01*
X0343649Y0317721D02*
X0342179Y0318330D01*
X0340588Y0318330D01*
X0339118Y0317721D01*
X0337992Y0316596D01*
X0337383Y0315126D01*
X0337383Y0314573D01*
X0331340Y0308530D01*
X0330883Y0307427D01*
X0330883Y0255008D01*
X0330180Y0254305D01*
X0329515Y0252699D01*
X0329515Y0250961D01*
X0330180Y0249356D01*
X0331409Y0248127D01*
X0331551Y0248068D01*
X0330910Y0247802D01*
X0330694Y0247587D01*
X0330479Y0247802D01*
X0330173Y0247929D01*
X0330113Y0248073D01*
X0328876Y0249310D01*
X0327241Y0250945D01*
X0327677Y0251381D01*
X0328133Y0252483D01*
X0328133Y0279173D01*
X0328524Y0279564D01*
X0329133Y0281035D01*
X0329133Y0282626D01*
X0328524Y0284096D01*
X0327399Y0285221D01*
X0325929Y0285830D01*
X0324338Y0285830D01*
X0322868Y0285221D01*
X0321883Y0284237D01*
X0321883Y0309927D01*
X0321427Y0311030D01*
X0320583Y0311873D01*
X0316244Y0316212D01*
X0317252Y0316212D01*
X0318858Y0316877D01*
X0320087Y0318106D01*
X0320752Y0319711D01*
X0320752Y0321449D01*
X0320087Y0323055D01*
X0319570Y0323571D01*
X0319570Y0324103D01*
X0320514Y0323712D01*
X0322252Y0323712D01*
X0323570Y0324258D01*
X0323570Y0323945D01*
X0322680Y0323055D01*
X0322015Y0321449D01*
X0322015Y0319711D01*
X0322680Y0318106D01*
X0323909Y0316877D01*
X0325514Y0316212D01*
X0327252Y0316212D01*
X0328858Y0316877D01*
X0330087Y0318106D01*
X0330752Y0319711D01*
X0330752Y0321449D01*
X0330087Y0323055D01*
X0329570Y0323571D01*
X0329570Y0324103D01*
X0330514Y0323712D01*
X0332252Y0323712D01*
X0333858Y0324377D01*
X0335087Y0325606D01*
X0335681Y0327040D01*
X0336133Y0326588D01*
X0336133Y0326035D01*
X0336742Y0324564D01*
X0337868Y0323439D01*
X0339338Y0322830D01*
X0340929Y0322830D01*
X0342399Y0323439D01*
X0342416Y0323456D01*
X0342992Y0322064D01*
X0344118Y0320939D01*
X0345588Y0320330D01*
X0347133Y0320330D01*
X0347133Y0318073D01*
X0345033Y0315972D01*
X0344774Y0316596D01*
X0343649Y0317721D01*
X0344924Y0316235D02*
X0345296Y0316235D01*
X0347133Y0319432D02*
X0330636Y0319432D01*
X0330752Y0321031D02*
X0344026Y0321031D01*
X0342758Y0322629D02*
X0330263Y0322629D01*
X0333498Y0324228D02*
X0337079Y0324228D01*
X0336220Y0325826D02*
X0335178Y0325826D01*
X0339389Y0317834D02*
X0329815Y0317834D01*
X0327309Y0316235D02*
X0337843Y0316235D01*
X0337383Y0314637D02*
X0317819Y0314637D01*
X0317309Y0316235D02*
X0325458Y0316235D01*
X0322952Y0317834D02*
X0319815Y0317834D01*
X0320636Y0319432D02*
X0322130Y0319432D01*
X0322015Y0321031D02*
X0320752Y0321031D01*
X0320263Y0322629D02*
X0322504Y0322629D01*
X0323498Y0324228D02*
X0323570Y0324228D01*
X0319418Y0313038D02*
X0335849Y0313038D01*
X0334250Y0311440D02*
X0321017Y0311440D01*
X0320583Y0311873D02*
X0320583Y0311873D01*
X0321883Y0309841D02*
X0332652Y0309841D01*
X0331221Y0308243D02*
X0321883Y0308243D01*
X0321883Y0306644D02*
X0330883Y0306644D01*
X0330883Y0305046D02*
X0321883Y0305046D01*
X0321883Y0303447D02*
X0330883Y0303447D01*
X0330883Y0301849D02*
X0321883Y0301849D01*
X0321883Y0300250D02*
X0330883Y0300250D01*
X0330883Y0298652D02*
X0321883Y0298652D01*
X0321883Y0297053D02*
X0330883Y0297053D01*
X0330883Y0295455D02*
X0321883Y0295455D01*
X0321883Y0293856D02*
X0330883Y0293856D01*
X0330883Y0292258D02*
X0321883Y0292258D01*
X0321883Y0290659D02*
X0330883Y0290659D01*
X0330883Y0289060D02*
X0321883Y0289060D01*
X0321883Y0287462D02*
X0330883Y0287462D01*
X0330883Y0285863D02*
X0321883Y0285863D01*
X0321883Y0284265D02*
X0321911Y0284265D01*
X0315883Y0284265D02*
X0315633Y0284265D01*
X0315633Y0285863D02*
X0315883Y0285863D01*
X0315883Y0287462D02*
X0315633Y0287462D01*
X0315633Y0289060D02*
X0315883Y0289060D01*
X0315883Y0290659D02*
X0315633Y0290659D01*
X0315633Y0292258D02*
X0315883Y0292258D01*
X0315883Y0293856D02*
X0315633Y0293856D01*
X0315633Y0295455D02*
X0315883Y0295455D01*
X0315883Y0297053D02*
X0315633Y0297053D01*
X0315633Y0298652D02*
X0315883Y0298652D01*
X0315883Y0300250D02*
X0315499Y0300250D01*
X0315883Y0301849D02*
X0314358Y0301849D01*
X0315883Y0303447D02*
X0312759Y0303447D01*
X0311161Y0305046D02*
X0315883Y0305046D01*
X0315883Y0306644D02*
X0309562Y0306644D01*
X0307964Y0308243D02*
X0315728Y0308243D01*
X0314130Y0309841D02*
X0306365Y0309841D01*
X0304767Y0311440D02*
X0312531Y0311440D01*
X0310933Y0313038D02*
X0303963Y0313038D01*
X0302984Y0314637D02*
X0309334Y0314637D01*
X0307985Y0316235D02*
X0250383Y0316235D01*
X0250297Y0317834D02*
X0307704Y0317834D01*
X0307704Y0319432D02*
X0249438Y0319432D01*
X0249804Y0314637D02*
X0291569Y0314637D01*
X0289599Y0313038D02*
X0247681Y0313038D01*
X0245235Y0311440D02*
X0288000Y0311440D01*
X0287133Y0309841D02*
X0244383Y0309841D01*
X0244383Y0308243D02*
X0260453Y0308243D01*
X0259633Y0306644D02*
X0244383Y0306644D01*
X0244383Y0305046D02*
X0259633Y0305046D01*
X0259633Y0303447D02*
X0244383Y0303447D01*
X0244383Y0301849D02*
X0259633Y0301849D01*
X0259633Y0300250D02*
X0244383Y0300250D01*
X0244383Y0298652D02*
X0260266Y0298652D01*
X0262633Y0303380D02*
X0262633Y0308530D01*
X0262633Y0303380D01*
X0262633Y0303380D01*
X0262633Y0303447D02*
X0262633Y0303447D01*
X0262633Y0305046D02*
X0262633Y0305046D01*
X0262633Y0306644D02*
X0262633Y0306644D01*
X0262633Y0308243D02*
X0262633Y0308243D01*
X0251617Y0297053D02*
X0251150Y0297053D01*
X0251150Y0295455D02*
X0251617Y0295455D01*
X0247457Y0295455D02*
X0244383Y0295455D01*
X0244383Y0297053D02*
X0247734Y0297053D01*
X0255309Y0292258D02*
X0258818Y0292258D01*
X0256424Y0290659D02*
X0255447Y0290659D01*
X0258932Y0277871D02*
X0259033Y0277871D01*
X0259033Y0276272D02*
X0254934Y0276272D01*
X0256532Y0274674D02*
X0259033Y0274674D01*
X0259397Y0273075D02*
X0258131Y0273075D01*
X0275633Y0291080D02*
X0275633Y0297764D01*
X0275956Y0297630D01*
X0279311Y0297630D01*
X0280193Y0297996D01*
X0280868Y0298671D01*
X0281233Y0299553D01*
X0281233Y0301330D01*
X0286316Y0301330D01*
X0286534Y0300805D01*
X0287209Y0300130D01*
X0288091Y0299765D01*
X0292983Y0299765D01*
X0293865Y0300130D01*
X0293883Y0300149D01*
X0293902Y0300130D01*
X0294784Y0299765D01*
X0297552Y0299765D01*
X0302133Y0295184D01*
X0302133Y0282831D01*
X0300929Y0283330D01*
X0299338Y0283330D01*
X0297868Y0282721D01*
X0297073Y0281927D01*
X0293219Y0281927D01*
X0293083Y0282255D01*
X0292408Y0282930D01*
X0291526Y0283295D01*
X0288757Y0283295D01*
X0282273Y0289780D01*
X0281429Y0290623D01*
X0280327Y0291080D01*
X0275633Y0291080D01*
X0275633Y0292258D02*
X0302133Y0292258D01*
X0302133Y0293856D02*
X0275633Y0293856D01*
X0275633Y0295455D02*
X0301863Y0295455D01*
X0300264Y0297053D02*
X0275633Y0297053D01*
X0280849Y0298652D02*
X0298666Y0298652D01*
X0302133Y0290659D02*
X0281343Y0290659D01*
X0282992Y0289060D02*
X0302133Y0289060D01*
X0302133Y0287462D02*
X0284591Y0287462D01*
X0286189Y0285863D02*
X0302133Y0285863D01*
X0302133Y0284265D02*
X0287788Y0284265D01*
X0292671Y0282666D02*
X0297813Y0282666D01*
X0287089Y0300250D02*
X0281233Y0300250D01*
X0280715Y0308243D02*
X0286921Y0308243D01*
X0307704Y0321031D02*
X0178033Y0321031D01*
X0178033Y0322629D02*
X0307704Y0322629D01*
X0307704Y0324228D02*
X0178033Y0324228D01*
X0177653Y0325826D02*
X0307704Y0325826D01*
X0307704Y0327425D02*
X0176140Y0327425D01*
X0174541Y0329023D02*
X0307704Y0329023D01*
X0307704Y0330622D02*
X0172943Y0330622D01*
X0171344Y0332220D02*
X0307704Y0332220D01*
X0307704Y0333819D02*
X0169746Y0333819D01*
X0167692Y0338614D02*
X0152269Y0338614D01*
X0151783Y0337016D02*
X0307704Y0337016D01*
X0307704Y0335417D02*
X0151783Y0335417D01*
X0151783Y0333819D02*
X0156771Y0333819D01*
X0156425Y0333473D02*
X0156425Y0333473D01*
X0155172Y0332220D02*
X0151783Y0332220D01*
X0151783Y0330622D02*
X0153779Y0330622D01*
X0153483Y0329023D02*
X0151783Y0329023D01*
X0151783Y0327425D02*
X0153483Y0327425D01*
X0153483Y0325826D02*
X0151783Y0325826D01*
X0151783Y0324228D02*
X0153483Y0324228D01*
X0153483Y0322629D02*
X0151783Y0322629D01*
X0151783Y0321031D02*
X0153483Y0321031D01*
X0153720Y0319432D02*
X0151783Y0319432D01*
X0151783Y0317834D02*
X0155029Y0317834D01*
X0156627Y0316235D02*
X0151783Y0316235D01*
X0151783Y0314637D02*
X0162383Y0314637D01*
X0162383Y0313038D02*
X0151783Y0313038D01*
X0151783Y0311440D02*
X0162383Y0311440D01*
X0162383Y0309841D02*
X0151783Y0309841D01*
X0151783Y0308243D02*
X0162383Y0308243D01*
X0162383Y0306644D02*
X0151783Y0306644D01*
X0151783Y0305046D02*
X0162383Y0305046D01*
X0162383Y0303447D02*
X0151783Y0303447D01*
X0151783Y0301849D02*
X0162383Y0301849D01*
X0162383Y0300250D02*
X0151783Y0300250D01*
X0151783Y0298652D02*
X0162383Y0298652D01*
X0162383Y0297053D02*
X0151783Y0297053D01*
X0151783Y0295455D02*
X0162383Y0295455D01*
X0162383Y0293856D02*
X0151783Y0293856D01*
X0151783Y0292258D02*
X0162383Y0292258D01*
X0162383Y0290659D02*
X0151783Y0290659D01*
X0142233Y0290659D02*
X0138976Y0290659D01*
X0138884Y0290752D02*
X0136642Y0291680D01*
X0134215Y0291680D01*
X0131973Y0290752D01*
X0130257Y0289036D01*
X0129329Y0286794D01*
X0129329Y0284367D01*
X0130257Y0282125D01*
X0131973Y0280409D01*
X0134215Y0279480D01*
X0136642Y0279480D01*
X0138884Y0280409D01*
X0140600Y0282125D01*
X0141529Y0284367D01*
X0141529Y0286794D01*
X0140600Y0289036D01*
X0138884Y0290752D01*
X0140575Y0289060D02*
X0142233Y0289060D01*
X0142233Y0287462D02*
X0141252Y0287462D01*
X0141529Y0285863D02*
X0142233Y0285863D01*
X0142233Y0284265D02*
X0141486Y0284265D01*
X0140824Y0282666D02*
X0142233Y0282666D01*
X0142233Y0281068D02*
X0139543Y0281068D01*
X0142233Y0279469D02*
X0080033Y0279469D01*
X0080033Y0277871D02*
X0142233Y0277871D01*
X0142233Y0276272D02*
X0080033Y0276272D01*
X0080033Y0274674D02*
X0142233Y0274674D01*
X0142233Y0273075D02*
X0080033Y0273075D01*
X0080033Y0271477D02*
X0142233Y0271477D01*
X0142233Y0269878D02*
X0080033Y0269878D01*
X0080033Y0268280D02*
X0142233Y0268280D01*
X0142233Y0266681D02*
X0080033Y0266681D01*
X0080033Y0265083D02*
X0142233Y0265083D01*
X0142233Y0263484D02*
X0080033Y0263484D01*
X0080033Y0261886D02*
X0142233Y0261886D01*
X0142233Y0260287D02*
X0080033Y0260287D01*
X0080033Y0258689D02*
X0142233Y0258689D01*
X0142233Y0257090D02*
X0080033Y0257090D01*
X0080033Y0255492D02*
X0142233Y0255492D01*
X0142233Y0253893D02*
X0080033Y0253893D01*
X0080033Y0252295D02*
X0142233Y0252295D01*
X0142233Y0250696D02*
X0080033Y0250696D01*
X0080033Y0249098D02*
X0142233Y0249098D01*
X0142233Y0247499D02*
X0080033Y0247499D01*
X0080033Y0245901D02*
X0142233Y0245901D01*
X0141948Y0244302D02*
X0137722Y0244302D01*
X0137557Y0244468D02*
X0136839Y0244989D01*
X0136048Y0245392D01*
X0135204Y0245667D01*
X0134363Y0245800D01*
X0134363Y0240646D01*
X0139516Y0240646D01*
X0139383Y0241487D01*
X0139109Y0242331D01*
X0138706Y0243122D01*
X0138184Y0243840D01*
X0137557Y0244468D01*
X0138919Y0242704D02*
X0141166Y0242704D01*
X0141133Y0241105D02*
X0139444Y0241105D01*
X0139516Y0239687D02*
X0134363Y0239687D01*
X0134363Y0234534D01*
X0135204Y0234667D01*
X0136048Y0234941D01*
X0136839Y0235344D01*
X0137557Y0235866D01*
X0138184Y0236494D01*
X0138706Y0237212D01*
X0139109Y0238002D01*
X0139383Y0238846D01*
X0139516Y0239687D01*
X0139488Y0239507D02*
X0141800Y0239507D01*
X0144150Y0237908D02*
X0139061Y0237908D01*
X0138000Y0236310D02*
X0144883Y0236310D01*
X0144914Y0234711D02*
X0135339Y0234711D01*
X0134363Y0234711D02*
X0133404Y0234711D01*
X0133404Y0234534D02*
X0133404Y0239687D01*
X0134363Y0239687D01*
X0134363Y0240646D01*
X0133404Y0240646D01*
X0133404Y0239687D01*
X0128250Y0239687D01*
X0128384Y0238846D01*
X0128658Y0238002D01*
X0129061Y0237212D01*
X0129582Y0236494D01*
X0130210Y0235866D01*
X0130928Y0235344D01*
X0131719Y0234941D01*
X0132563Y0234667D01*
X0133404Y0234534D01*
X0132427Y0234711D02*
X0080033Y0234711D01*
X0080033Y0233113D02*
X0145694Y0233113D01*
X0152073Y0233113D02*
X0166983Y0233113D01*
X0166983Y0234711D02*
X0152853Y0234711D01*
X0152883Y0236310D02*
X0166983Y0236310D01*
X0167270Y0231514D02*
X0080033Y0231514D01*
X0080033Y0229916D02*
X0168325Y0229916D01*
X0176260Y0237908D02*
X0191239Y0237908D01*
X0192837Y0239507D02*
X0177828Y0239507D01*
X0178033Y0241105D02*
X0194436Y0241105D01*
X0196034Y0242704D02*
X0178033Y0242704D01*
X0178033Y0244302D02*
X0197633Y0244302D01*
X0199231Y0245901D02*
X0178033Y0245901D01*
X0178033Y0247499D02*
X0200830Y0247499D01*
X0202428Y0249098D02*
X0178033Y0249098D01*
X0178033Y0250696D02*
X0204027Y0250696D01*
X0203249Y0252295D02*
X0205625Y0252295D01*
X0204764Y0253893D02*
X0207224Y0253893D01*
X0208822Y0255492D02*
X0201568Y0255492D01*
X0201199Y0255492D02*
X0195703Y0255492D01*
X0195703Y0257090D02*
X0197930Y0257090D01*
X0198003Y0253893D02*
X0195383Y0253893D01*
X0199517Y0252295D02*
X0178033Y0252295D01*
X0178644Y0253893D02*
X0177171Y0253893D01*
X0178323Y0255492D02*
X0175043Y0255492D01*
X0175043Y0257090D02*
X0178323Y0257090D01*
X0186238Y0260287D02*
X0187788Y0260287D01*
X0187788Y0261886D02*
X0186238Y0261886D01*
X0195703Y0260287D02*
X0196537Y0260287D01*
X0201199Y0257090D02*
X0201568Y0257090D01*
X0201568Y0253893D02*
X0201199Y0253893D01*
X0201199Y0252295D02*
X0201568Y0252295D01*
X0204837Y0257090D02*
X0210817Y0257090D01*
X0214456Y0248680D02*
X0272061Y0248680D01*
X0282641Y0238100D01*
X0284258Y0237430D01*
X0297259Y0237430D01*
X0298876Y0238100D01*
X0300113Y0239338D01*
X0306956Y0246180D01*
X0319561Y0246180D01*
X0321983Y0243758D01*
X0321983Y0241329D01*
X0321995Y0241300D01*
X0321995Y0237416D01*
X0322361Y0236534D01*
X0323036Y0235859D01*
X0323557Y0235642D01*
X0323557Y0234674D01*
X0323298Y0234781D01*
X0314469Y0234781D01*
X0313587Y0234416D01*
X0312912Y0233741D01*
X0312546Y0232859D01*
X0312546Y0230074D01*
X0312399Y0230221D01*
X0310929Y0230830D01*
X0309338Y0230830D01*
X0307868Y0230221D01*
X0306742Y0229096D01*
X0306133Y0227626D01*
X0306133Y0226035D01*
X0306742Y0224564D01*
X0307868Y0223439D01*
X0309338Y0222830D01*
X0309891Y0222830D01*
X0312546Y0220175D01*
X0312546Y0219306D01*
X0312912Y0218423D01*
X0313127Y0218208D01*
X0312912Y0217993D01*
X0312835Y0217807D01*
X0312608Y0218034D01*
X0311002Y0218699D01*
X0309264Y0218699D01*
X0308906Y0218550D01*
X0306633Y0220823D01*
X0306633Y0221376D01*
X0306024Y0222846D01*
X0304899Y0223971D01*
X0303429Y0224580D01*
X0301838Y0224580D01*
X0300368Y0223971D01*
X0299242Y0222846D01*
X0298883Y0221979D01*
X0298524Y0222846D01*
X0297399Y0223971D01*
X0297360Y0223988D01*
X0298083Y0224287D01*
X0311626Y0237830D01*
X0312179Y0237830D01*
X0313649Y0238439D01*
X0314774Y0239564D01*
X0315383Y0241035D01*
X0315383Y0242626D01*
X0314774Y0244096D01*
X0313649Y0245221D01*
X0312179Y0245830D01*
X0310588Y0245830D01*
X0309118Y0245221D01*
X0307992Y0244096D01*
X0307383Y0242626D01*
X0307383Y0242073D01*
X0295141Y0229830D01*
X0269210Y0229830D01*
X0270305Y0230925D01*
X0271233Y0233167D01*
X0271233Y0242994D01*
X0270305Y0245236D01*
X0268589Y0246952D01*
X0266347Y0247880D01*
X0263920Y0247880D01*
X0261678Y0246952D01*
X0260133Y0245407D01*
X0258589Y0246952D01*
X0256347Y0247880D01*
X0253920Y0247880D01*
X0251678Y0246952D01*
X0250133Y0245407D01*
X0248589Y0246952D01*
X0246347Y0247880D01*
X0243920Y0247880D01*
X0241678Y0246952D01*
X0240133Y0245407D01*
X0238589Y0246952D01*
X0236347Y0247880D01*
X0233920Y0247880D01*
X0231678Y0246952D01*
X0230133Y0245407D01*
X0228589Y0246952D01*
X0226347Y0247880D01*
X0223920Y0247880D01*
X0221678Y0246952D01*
X0219962Y0245236D01*
X0219766Y0244762D01*
X0219328Y0245363D01*
X0218716Y0245975D01*
X0218016Y0246484D01*
X0217245Y0246877D01*
X0216421Y0247145D01*
X0215566Y0247280D01*
X0215433Y0247280D01*
X0215433Y0238380D01*
X0214833Y0238380D01*
X0214833Y0237780D01*
X0209633Y0237780D01*
X0209633Y0233947D01*
X0209769Y0233092D01*
X0210036Y0232269D01*
X0210429Y0231498D01*
X0210938Y0230797D01*
X0211550Y0230185D01*
X0212039Y0229830D01*
X0195606Y0229830D01*
X0196363Y0230588D01*
X0210420Y0244644D01*
X0210036Y0243891D01*
X0209769Y0243068D01*
X0209633Y0242213D01*
X0209633Y0238380D01*
X0214833Y0238380D01*
X0214833Y0247280D01*
X0214700Y0247280D01*
X0213845Y0247145D01*
X0213022Y0246877D01*
X0212269Y0246494D01*
X0214456Y0248680D01*
X0213275Y0247499D02*
X0223000Y0247499D01*
X0220627Y0245901D02*
X0218791Y0245901D01*
X0215433Y0245901D02*
X0214833Y0245901D01*
X0214833Y0244302D02*
X0215433Y0244302D01*
X0215433Y0242704D02*
X0214833Y0242704D01*
X0214833Y0241105D02*
X0215433Y0241105D01*
X0215433Y0239507D02*
X0214833Y0239507D01*
X0214833Y0237908D02*
X0203684Y0237908D01*
X0205282Y0239507D02*
X0209633Y0239507D01*
X0209633Y0241105D02*
X0206881Y0241105D01*
X0208479Y0242704D02*
X0209711Y0242704D01*
X0210078Y0244302D02*
X0210246Y0244302D01*
X0209633Y0236310D02*
X0202085Y0236310D01*
X0200487Y0234711D02*
X0209633Y0234711D01*
X0209766Y0233113D02*
X0198888Y0233113D01*
X0197290Y0231514D02*
X0210421Y0231514D01*
X0211921Y0229916D02*
X0195691Y0229916D01*
X0221427Y0197945D02*
X0163707Y0197945D01*
X0161560Y0197945D02*
X0115633Y0197945D01*
X0115633Y0196347D02*
X0223026Y0196347D01*
X0224624Y0194748D02*
X0115633Y0194748D01*
X0115633Y0193150D02*
X0225657Y0193150D01*
X0232110Y0193150D02*
X0239427Y0193150D01*
X0237829Y0191551D02*
X0115633Y0191551D01*
X0115633Y0189953D02*
X0236230Y0189953D01*
X0234632Y0188354D02*
X0115633Y0188354D01*
X0115633Y0186756D02*
X0233033Y0186756D01*
X0231435Y0185157D02*
X0116049Y0185157D01*
X0117647Y0183559D02*
X0229836Y0183559D01*
X0228238Y0181960D02*
X0119246Y0181960D01*
X0120844Y0180362D02*
X0226639Y0180362D01*
X0225041Y0178763D02*
X0122443Y0178763D01*
X0123974Y0177165D02*
X0223442Y0177165D01*
X0221844Y0175566D02*
X0124383Y0175566D01*
X0124383Y0173968D02*
X0220245Y0173968D01*
X0218647Y0172369D02*
X0124383Y0172369D01*
X0124383Y0170771D02*
X0217048Y0170771D01*
X0215450Y0169172D02*
X0124383Y0169172D01*
X0124383Y0167574D02*
X0132421Y0167574D01*
X0132642Y0167665D02*
X0130349Y0166715D01*
X0128595Y0164961D01*
X0127645Y0162668D01*
X0127645Y0160186D01*
X0128595Y0157893D01*
X0130349Y0156138D01*
X0132642Y0155188D01*
X0135124Y0155188D01*
X0137417Y0156138D01*
X0139172Y0157893D01*
X0140122Y0160186D01*
X0140122Y0162668D01*
X0139172Y0164961D01*
X0137417Y0166715D01*
X0135124Y0167665D01*
X0132642Y0167665D01*
X0135345Y0167574D02*
X0213851Y0167574D01*
X0212351Y0165975D02*
X0138158Y0165975D01*
X0139414Y0164377D02*
X0211933Y0164377D01*
X0211933Y0162778D02*
X0140076Y0162778D01*
X0140122Y0161180D02*
X0211933Y0161180D01*
X0211933Y0159581D02*
X0139871Y0159581D01*
X0139209Y0157983D02*
X0211933Y0157983D01*
X0211933Y0156384D02*
X0137663Y0156384D01*
X0130103Y0156384D02*
X0124383Y0156384D01*
X0124383Y0154786D02*
X0211933Y0154786D01*
X0211933Y0153187D02*
X0124383Y0153187D01*
X0124383Y0151589D02*
X0211933Y0151589D01*
X0211933Y0149990D02*
X0124383Y0149990D01*
X0124383Y0148391D02*
X0211933Y0148391D01*
X0211933Y0146793D02*
X0124383Y0146793D01*
X0124383Y0145194D02*
X0211933Y0145194D01*
X0211933Y0143596D02*
X0124383Y0143596D01*
X0124383Y0141997D02*
X0211933Y0141997D01*
X0211933Y0140399D02*
X0136442Y0140399D01*
X0136599Y0138800D02*
X0211619Y0138800D01*
X0210020Y0137202D02*
X0136599Y0137202D01*
X0136599Y0135603D02*
X0208422Y0135603D01*
X0206823Y0134005D02*
X0205810Y0134005D01*
X0215133Y0135580D02*
X0215133Y0164330D01*
X0251383Y0200580D01*
X0250021Y0204339D02*
X0239324Y0204339D01*
X0239699Y0202741D02*
X0247955Y0202741D01*
X0247389Y0201142D02*
X0239699Y0201142D01*
X0239699Y0199544D02*
X0245822Y0199544D01*
X0244223Y0197945D02*
X0239453Y0197945D01*
X0242624Y0196347D02*
X0234739Y0196347D01*
X0233141Y0194748D02*
X0241026Y0194748D01*
X0245281Y0189953D02*
X0269081Y0189953D01*
X0268633Y0191551D02*
X0246880Y0191551D01*
X0248478Y0193150D02*
X0268850Y0193150D01*
X0269633Y0194748D02*
X0250077Y0194748D01*
X0251675Y0196347D02*
X0270407Y0196347D01*
X0272006Y0197945D02*
X0254398Y0197945D01*
X0255278Y0199544D02*
X0273845Y0199544D01*
X0278633Y0201142D02*
X0255378Y0201142D01*
X0254812Y0202741D02*
X0278681Y0202741D01*
X0279486Y0204339D02*
X0252746Y0204339D01*
X0244885Y0212332D02*
X0272889Y0212332D01*
X0274487Y0210733D02*
X0243152Y0210733D01*
X0239614Y0210733D02*
X0239529Y0210733D01*
X0239699Y0209135D02*
X0276086Y0209135D01*
X0277684Y0207536D02*
X0239699Y0207536D01*
X0239699Y0205938D02*
X0279283Y0205938D01*
X0271290Y0213930D02*
X0245383Y0213930D01*
X0234241Y0213930D02*
X0134140Y0213930D01*
X0130383Y0212332D02*
X0232642Y0212332D01*
X0230821Y0210733D02*
X0129693Y0210733D01*
X0127311Y0209135D02*
X0230568Y0209135D01*
X0230568Y0207536D02*
X0115633Y0207536D01*
X0115633Y0205938D02*
X0230568Y0205938D01*
X0230943Y0204339D02*
X0225215Y0204339D01*
X0226814Y0202741D02*
X0230568Y0202741D01*
X0230568Y0201142D02*
X0228412Y0201142D01*
X0242084Y0186756D02*
X0243554Y0186756D01*
X0243683Y0188354D02*
X0270572Y0188354D01*
X0274694Y0188354D02*
X0279533Y0188354D01*
X0278668Y0186756D02*
X0246712Y0186756D01*
X0248603Y0185157D02*
X0278668Y0185157D01*
X0278668Y0183559D02*
X0249133Y0183559D01*
X0245208Y0178763D02*
X0242607Y0178763D01*
X0242195Y0180362D02*
X0235690Y0180362D01*
X0236357Y0178763D02*
X0237659Y0178763D01*
X0237289Y0181960D02*
X0241268Y0181960D01*
X0241133Y0183559D02*
X0238887Y0183559D01*
X0240486Y0185157D02*
X0241664Y0185157D01*
X0237008Y0173048D02*
X0237868Y0172189D01*
X0239338Y0171580D01*
X0240929Y0171580D01*
X0242399Y0172189D01*
X0242790Y0172580D01*
X0262828Y0172580D01*
X0267477Y0167931D01*
X0267477Y0167378D01*
X0268086Y0165908D01*
X0269211Y0164783D01*
X0270681Y0164174D01*
X0271234Y0164174D01*
X0273324Y0162084D01*
X0273309Y0162069D01*
X0273072Y0161659D01*
X0272949Y0161201D01*
X0272949Y0160726D01*
X0271595Y0160726D01*
X0270713Y0160361D01*
X0270038Y0159686D01*
X0269672Y0158804D01*
X0269672Y0154830D01*
X0264133Y0154830D01*
X0264133Y0156376D01*
X0263524Y0157846D01*
X0262399Y0158971D01*
X0260929Y0159580D01*
X0260235Y0159580D01*
X0251342Y0168473D01*
X0250526Y0169289D01*
X0249460Y0169730D01*
X0236783Y0169730D01*
X0236783Y0172823D01*
X0237008Y0173048D01*
X0236783Y0172369D02*
X0237687Y0172369D01*
X0236783Y0170771D02*
X0264637Y0170771D01*
X0263039Y0172369D02*
X0242579Y0172369D01*
X0250643Y0169172D02*
X0266236Y0169172D01*
X0267477Y0167574D02*
X0252241Y0167574D01*
X0253840Y0165975D02*
X0268058Y0165975D01*
X0270191Y0164377D02*
X0255438Y0164377D01*
X0257037Y0162778D02*
X0272630Y0162778D01*
X0272949Y0161180D02*
X0258635Y0161180D01*
X0260234Y0159581D02*
X0269994Y0159581D01*
X0269672Y0157983D02*
X0263388Y0157983D01*
X0264130Y0156384D02*
X0269672Y0156384D01*
X0278409Y0152630D02*
X0283083Y0152630D01*
X0283083Y0151030D01*
X0278409Y0151030D01*
X0278409Y0152630D01*
X0278409Y0151589D02*
X0283083Y0151589D01*
X0283083Y0151030D02*
X0283083Y0146356D01*
X0284683Y0146356D01*
X0284683Y0151030D01*
X0283083Y0151030D01*
X0283083Y0149990D02*
X0284683Y0149990D01*
X0284683Y0151030D02*
X0289357Y0151030D01*
X0289357Y0152630D01*
X0284683Y0152630D01*
X0284683Y0157304D01*
X0283083Y0157304D01*
X0283083Y0152630D01*
X0284683Y0152630D01*
X0284683Y0151030D01*
X0284683Y0151589D02*
X0289357Y0151589D01*
X0284683Y0153187D02*
X0283083Y0153187D01*
X0283083Y0154786D02*
X0284683Y0154786D01*
X0284683Y0156384D02*
X0283083Y0156384D01*
X0283083Y0148391D02*
X0284683Y0148391D01*
X0284683Y0146793D02*
X0283083Y0146793D01*
X0292779Y0142934D02*
X0296172Y0142934D01*
X0297054Y0143300D01*
X0297729Y0143975D01*
X0298094Y0144857D01*
X0298094Y0158804D01*
X0297729Y0159686D01*
X0297054Y0160361D01*
X0296172Y0160726D01*
X0292779Y0160726D01*
X0292779Y0163079D01*
X0293649Y0163439D01*
X0294774Y0164564D01*
X0295383Y0166035D01*
X0295383Y0167626D01*
X0294774Y0169096D01*
X0294106Y0169765D01*
X0294676Y0169765D01*
X0295558Y0170130D01*
X0296233Y0170805D01*
X0296598Y0171687D01*
X0296598Y0172803D01*
X0298083Y0174287D01*
X0298927Y0175131D01*
X0299383Y0176233D01*
X0299383Y0185330D01*
X0299679Y0185330D01*
X0301149Y0185939D01*
X0302274Y0187064D01*
X0302533Y0187688D01*
X0303383Y0186838D01*
X0303383Y0178237D01*
X0302992Y0177846D01*
X0302383Y0176376D01*
X0302383Y0174785D01*
X0302992Y0173314D01*
X0304118Y0172189D01*
X0305588Y0171580D01*
X0307179Y0171580D01*
X0308649Y0172189D01*
X0309774Y0173314D01*
X0310383Y0174785D01*
X0310383Y0176376D01*
X0310239Y0176725D01*
X0310588Y0176580D01*
X0312179Y0176580D01*
X0313649Y0177189D01*
X0314774Y0178314D01*
X0315383Y0179785D01*
X0315383Y0181376D01*
X0314774Y0182846D01*
X0314383Y0183237D01*
X0314383Y0185922D01*
X0314469Y0185887D01*
X0323298Y0185887D01*
X0324180Y0186252D01*
X0324855Y0186927D01*
X0325125Y0187580D01*
X0325730Y0187580D01*
X0326833Y0188037D01*
X0329333Y0190537D01*
X0330177Y0191381D01*
X0330633Y0192483D01*
X0330633Y0204173D01*
X0331024Y0204564D01*
X0331633Y0206035D01*
X0331633Y0207626D01*
X0331024Y0209096D01*
X0329899Y0210221D01*
X0328429Y0210830D01*
X0326838Y0210830D01*
X0325368Y0210221D01*
X0324975Y0209829D01*
X0324855Y0210119D01*
X0324640Y0210334D01*
X0324855Y0210549D01*
X0325220Y0211432D01*
X0325220Y0217111D01*
X0324855Y0217993D01*
X0324640Y0218208D01*
X0324855Y0218423D01*
X0325220Y0219306D01*
X0325220Y0221086D01*
X0325368Y0220939D01*
X0326838Y0220330D01*
X0328429Y0220330D01*
X0329899Y0220939D01*
X0331024Y0222064D01*
X0331633Y0223535D01*
X0331633Y0225126D01*
X0331024Y0226596D01*
X0329899Y0227721D01*
X0329636Y0227830D01*
X0330929Y0227830D01*
X0332399Y0228439D01*
X0333524Y0229564D01*
X0333735Y0230072D01*
X0334118Y0229689D01*
X0335588Y0229080D01*
X0335883Y0229080D01*
X0335883Y0196823D01*
X0332590Y0193530D01*
X0332133Y0192427D01*
X0332133Y0187483D01*
X0332590Y0186381D01*
X0333434Y0185537D01*
X0334583Y0184388D01*
X0331792Y0184388D01*
X0330910Y0184022D01*
X0330270Y0183383D01*
X0330225Y0183428D01*
X0329814Y0183665D01*
X0329357Y0183788D01*
X0327138Y0183788D01*
X0327138Y0178432D01*
X0326376Y0178432D01*
X0326376Y0183788D01*
X0324158Y0183788D01*
X0323700Y0183665D01*
X0323290Y0183428D01*
X0322955Y0183093D01*
X0322718Y0182682D01*
X0322595Y0182225D01*
X0322595Y0178432D01*
X0326376Y0178432D01*
X0326376Y0177670D01*
X0322595Y0177670D01*
X0322595Y0173877D01*
X0322718Y0173419D01*
X0322955Y0173008D01*
X0323290Y0172673D01*
X0323700Y0172436D01*
X0324158Y0172314D01*
X0326376Y0172314D01*
X0326376Y0177669D01*
X0327138Y0177669D01*
X0327138Y0172314D01*
X0329357Y0172314D01*
X0329814Y0172436D01*
X0330225Y0172673D01*
X0330270Y0172719D01*
X0330910Y0172079D01*
X0331631Y0171780D01*
X0331631Y0166236D01*
X0331617Y0166198D01*
X0331619Y0166120D01*
X0331402Y0166030D01*
X0330918Y0165547D01*
X0330700Y0165673D01*
X0330242Y0165796D01*
X0328221Y0165796D01*
X0328221Y0162015D01*
X0327853Y0162015D01*
X0327853Y0165796D01*
X0325831Y0165796D01*
X0325374Y0165673D01*
X0324963Y0165436D01*
X0324628Y0165101D01*
X0324391Y0164690D01*
X0324268Y0164233D01*
X0324268Y0162014D01*
X0327853Y0162014D01*
X0327853Y0161646D01*
X0328221Y0161646D01*
X0328221Y0157865D01*
X0330242Y0157865D01*
X0330700Y0157988D01*
X0330918Y0158114D01*
X0331402Y0157630D01*
X0332220Y0157291D01*
X0332183Y0157255D01*
X0331818Y0156373D01*
X0331818Y0151481D01*
X0332183Y0150599D01*
X0332202Y0150580D01*
X0332183Y0150562D01*
X0331818Y0149680D01*
X0331818Y0144788D01*
X0332183Y0143906D01*
X0332858Y0143231D01*
X0333183Y0143096D01*
X0333183Y0141004D01*
X0333055Y0140951D01*
X0332692Y0140588D01*
X0332274Y0141596D01*
X0331149Y0142721D01*
X0329679Y0143330D01*
X0328088Y0143330D01*
X0326618Y0142721D01*
X0325492Y0141596D01*
X0325075Y0140588D01*
X0324711Y0140951D01*
X0324383Y0141087D01*
X0324383Y0145423D01*
X0324774Y0145814D01*
X0325383Y0147285D01*
X0325383Y0148876D01*
X0324774Y0150346D01*
X0323649Y0151471D01*
X0322179Y0152080D01*
X0320588Y0152080D01*
X0319118Y0151471D01*
X0317992Y0150346D01*
X0317383Y0148876D01*
X0317383Y0147285D01*
X0317992Y0145814D01*
X0318383Y0145423D01*
X0318383Y0141087D01*
X0318055Y0140951D01*
X0317380Y0140276D01*
X0317015Y0139394D01*
X0317015Y0132928D01*
X0317128Y0132655D01*
X0315197Y0132655D01*
X0314315Y0132290D01*
X0313640Y0131615D01*
X0313275Y0130733D01*
X0313275Y0124266D01*
X0313640Y0123384D01*
X0314315Y0122709D01*
X0314443Y0122656D01*
X0314443Y0112434D01*
X0314930Y0111258D01*
X0315831Y0110358D01*
X0316958Y0109230D01*
X0241278Y0109230D01*
X0241650Y0109602D01*
X0241751Y0109847D01*
X0241966Y0109841D01*
X0242351Y0109783D01*
X0242518Y0109825D01*
X0245139Y0109749D01*
X0245289Y0109701D01*
X0245691Y0109733D01*
X0246095Y0109721D01*
X0246170Y0109750D01*
X0246341Y0109750D01*
X0246446Y0109794D01*
X0246559Y0109803D01*
X0246930Y0109993D01*
X0247327Y0110122D01*
X0247413Y0110196D01*
X0247518Y0110240D01*
X0247812Y0110535D01*
X0248149Y0110781D01*
X0248208Y0110878D01*
X0248295Y0110952D01*
X0248483Y0111324D01*
X0248728Y0111662D01*
X0248754Y0111772D01*
X0248813Y0111869D01*
X0248865Y0112196D01*
X0248970Y0112452D01*
X0248970Y0112680D01*
X0249023Y0112902D01*
X0248970Y0113232D01*
X0248970Y0114289D01*
X0248978Y0114307D01*
X0248978Y0116436D01*
X0248970Y0116454D01*
X0248970Y0118730D01*
X0249245Y0118844D01*
X0249918Y0119517D01*
X0249918Y0118778D01*
X0250041Y0118320D01*
X0250278Y0117910D01*
X0250613Y0117575D01*
X0251023Y0117338D01*
X0251481Y0117215D01*
X0253699Y0117215D01*
X0253699Y0120799D01*
X0254068Y0120799D01*
X0254068Y0121168D01*
X0257849Y0121168D01*
X0257849Y0123189D01*
X0257726Y0123647D01*
X0257600Y0123865D01*
X0258083Y0124349D01*
X0258449Y0125231D01*
X0258449Y0130123D01*
X0258083Y0131005D01*
X0257408Y0131680D01*
X0256526Y0132045D01*
X0254764Y0132045D01*
X0254679Y0132080D01*
X0250060Y0132080D01*
X0249735Y0132406D01*
X0248853Y0132771D01*
X0240024Y0132771D01*
X0239142Y0132406D01*
X0238467Y0131730D01*
X0238437Y0131659D01*
X0238139Y0131659D01*
X0238139Y0131481D01*
X0238139Y0131482D01*
X0238139Y0131659D01*
X0237961Y0131659D01*
X0237727Y0131894D01*
X0236845Y0132259D01*
X0236285Y0132259D01*
X0236285Y0136088D01*
X0236740Y0136542D01*
X0237185Y0136726D01*
X0238137Y0137678D01*
X0238652Y0138922D01*
X0238652Y0139558D01*
X0238659Y0139564D01*
X0239268Y0141035D01*
X0239268Y0142580D01*
X0251980Y0142580D01*
X0253083Y0143037D01*
X0253927Y0143881D01*
X0256133Y0146088D01*
X0256133Y0144785D01*
X0256742Y0143314D01*
X0257868Y0142189D01*
X0259338Y0141580D01*
X0260929Y0141580D01*
X0262095Y0142063D01*
X0262183Y0141849D01*
X0262202Y0141830D01*
X0262183Y0141812D01*
X0261818Y0140930D01*
X0261818Y0136038D01*
X0262183Y0135156D01*
X0262858Y0134481D01*
X0263741Y0134115D01*
X0266752Y0134115D01*
X0267440Y0133830D01*
X0269976Y0133830D01*
X0270368Y0133439D01*
X0271838Y0132830D01*
X0273429Y0132830D01*
X0274419Y0133240D01*
X0274034Y0132855D01*
X0273668Y0131973D01*
X0273668Y0126687D01*
X0274034Y0125805D01*
X0274230Y0125609D01*
X0274230Y0124916D01*
X0273902Y0124780D01*
X0273418Y0124297D01*
X0273200Y0124423D01*
X0272742Y0124546D01*
X0270721Y0124546D01*
X0270721Y0120765D01*
X0270353Y0120765D01*
X0270353Y0124546D01*
X0268331Y0124546D01*
X0267874Y0124423D01*
X0267463Y0124186D01*
X0267128Y0123851D01*
X0266891Y0123440D01*
X0266768Y0122983D01*
X0266768Y0120764D01*
X0270353Y0120764D01*
X0270353Y0120396D01*
X0270721Y0120396D01*
X0270721Y0116615D01*
X0272742Y0116615D01*
X0273200Y0116738D01*
X0273418Y0116864D01*
X0273902Y0116380D01*
X0274784Y0116015D01*
X0279676Y0116015D01*
X0280558Y0116380D01*
X0281233Y0117055D01*
X0281598Y0117937D01*
X0281598Y0118662D01*
X0281742Y0118314D01*
X0282868Y0117189D01*
X0284338Y0116580D01*
X0285929Y0116580D01*
X0287399Y0117189D01*
X0288524Y0118314D01*
X0289133Y0119785D01*
X0289133Y0121376D01*
X0288524Y0122846D01*
X0288333Y0123037D01*
X0288333Y0125406D01*
X0288733Y0125805D01*
X0289098Y0126687D01*
X0289098Y0130741D01*
X0289709Y0130130D01*
X0290591Y0129765D01*
X0295483Y0129765D01*
X0296365Y0130130D01*
X0296848Y0130614D01*
X0297066Y0130488D01*
X0297524Y0130365D01*
X0299546Y0130365D01*
X0299546Y0134146D01*
X0299914Y0134146D01*
X0299914Y0134514D01*
X0303498Y0134514D01*
X0303498Y0136733D01*
X0303376Y0137190D01*
X0303139Y0137601D01*
X0302804Y0137936D01*
X0302393Y0138173D01*
X0301935Y0138296D01*
X0299914Y0138296D01*
X0299914Y0134515D01*
X0299546Y0134515D01*
X0299546Y0138296D01*
X0297524Y0138296D01*
X0297066Y0138173D01*
X0296848Y0138047D01*
X0296365Y0138530D01*
X0295483Y0138896D01*
X0292714Y0138896D01*
X0292571Y0139039D01*
X0292779Y0139542D01*
X0292779Y0142934D01*
X0292779Y0141997D02*
X0318383Y0141997D01*
X0318383Y0143596D02*
X0297350Y0143596D01*
X0298094Y0145194D02*
X0318383Y0145194D01*
X0317587Y0146793D02*
X0298094Y0146793D01*
X0298094Y0148391D02*
X0317383Y0148391D01*
X0317845Y0149990D02*
X0298094Y0149990D01*
X0298094Y0151589D02*
X0319401Y0151589D01*
X0323366Y0151589D02*
X0331818Y0151589D01*
X0331818Y0153187D02*
X0298094Y0153187D01*
X0298094Y0154786D02*
X0331818Y0154786D01*
X0331823Y0156384D02*
X0298094Y0156384D01*
X0298094Y0157983D02*
X0325392Y0157983D01*
X0325374Y0157988D02*
X0325831Y0157865D01*
X0327853Y0157865D01*
X0327853Y0161646D01*
X0324268Y0161646D01*
X0324268Y0159428D01*
X0324391Y0158970D01*
X0324628Y0158560D01*
X0324963Y0158224D01*
X0325374Y0157988D01*
X0324268Y0159581D02*
X0297772Y0159581D01*
X0292779Y0161180D02*
X0324268Y0161180D01*
X0324268Y0162778D02*
X0292779Y0162778D01*
X0294587Y0164377D02*
X0324307Y0164377D01*
X0327853Y0164377D02*
X0328221Y0164377D01*
X0328221Y0162778D02*
X0327853Y0162778D01*
X0327853Y0161180D02*
X0328221Y0161180D01*
X0328221Y0159581D02*
X0327853Y0159581D01*
X0327853Y0157983D02*
X0328221Y0157983D01*
X0330682Y0157983D02*
X0331049Y0157983D01*
X0331947Y0149990D02*
X0324922Y0149990D01*
X0325383Y0148391D02*
X0331818Y0148391D01*
X0331818Y0146793D02*
X0325180Y0146793D01*
X0324383Y0145194D02*
X0331818Y0145194D01*
X0332493Y0143596D02*
X0324383Y0143596D01*
X0324383Y0141997D02*
X0325894Y0141997D01*
X0331873Y0141997D02*
X0333183Y0141997D01*
X0336383Y0147234D02*
X0336383Y0136161D01*
X0340752Y0135603D02*
X0362099Y0135603D01*
X0361764Y0135268D02*
X0360470Y0132143D01*
X0360470Y0128761D01*
X0361764Y0125636D01*
X0364156Y0123244D01*
X0367281Y0121950D01*
X0370663Y0121950D01*
X0373788Y0123244D01*
X0376180Y0125636D01*
X0377474Y0128761D01*
X0377474Y0132143D01*
X0376180Y0135268D01*
X0373788Y0137660D01*
X0370663Y0138955D01*
X0367281Y0138955D01*
X0364156Y0137660D01*
X0361764Y0135268D01*
X0361241Y0134005D02*
X0340752Y0134005D01*
X0340752Y0132928D02*
X0340752Y0139394D01*
X0340386Y0140276D01*
X0339711Y0140951D01*
X0339583Y0141004D01*
X0339583Y0143096D01*
X0339908Y0143231D01*
X0340583Y0143906D01*
X0340949Y0144788D01*
X0340949Y0149680D01*
X0340783Y0150080D01*
X0346980Y0150080D01*
X0348083Y0150537D01*
X0351833Y0154287D01*
X0352677Y0155131D01*
X0353133Y0156233D01*
X0353133Y0164902D01*
X0353837Y0165606D01*
X0354502Y0167211D01*
X0354502Y0168949D01*
X0353837Y0170555D01*
X0353379Y0171012D01*
X0353379Y0171780D01*
X0354101Y0172079D01*
X0354316Y0172294D01*
X0354532Y0172079D01*
X0355253Y0171780D01*
X0355253Y0170613D01*
X0355710Y0169511D01*
X0355765Y0169456D01*
X0355765Y0168461D01*
X0356430Y0166856D01*
X0357133Y0166152D01*
X0357133Y0160737D01*
X0356742Y0160346D01*
X0356133Y0158876D01*
X0356133Y0157285D01*
X0356742Y0155814D01*
X0357868Y0154689D01*
X0359338Y0154080D01*
X0360929Y0154080D01*
X0362399Y0154689D01*
X0363524Y0155814D01*
X0364133Y0157285D01*
X0364133Y0158876D01*
X0363524Y0160346D01*
X0363133Y0160737D01*
X0363133Y0166152D01*
X0363837Y0166856D01*
X0363883Y0166968D01*
X0363930Y0166856D01*
X0365159Y0165627D01*
X0366764Y0164962D01*
X0368502Y0164962D01*
X0370108Y0165627D01*
X0371337Y0166856D01*
X0372002Y0168461D01*
X0372002Y0170199D01*
X0371374Y0171714D01*
X0376841Y0171714D01*
X0377723Y0172079D01*
X0377938Y0172294D01*
X0378154Y0172079D01*
X0379036Y0171714D01*
X0384715Y0171714D01*
X0385597Y0172079D01*
X0386257Y0172739D01*
X0386257Y0109230D01*
X0345718Y0109230D01*
X0345949Y0109788D01*
X0345949Y0114680D01*
X0345583Y0115562D01*
X0345565Y0115580D01*
X0345583Y0115599D01*
X0345949Y0116481D01*
X0345949Y0121373D01*
X0345583Y0122255D01*
X0344908Y0122930D01*
X0344034Y0123292D01*
X0344127Y0123384D01*
X0344492Y0124266D01*
X0344492Y0124534D01*
X0345588Y0124080D01*
X0347179Y0124080D01*
X0348649Y0124689D01*
X0349774Y0125814D01*
X0350383Y0127285D01*
X0350383Y0128876D01*
X0349774Y0130346D01*
X0348649Y0131471D01*
X0347179Y0132080D01*
X0345588Y0132080D01*
X0344176Y0131495D01*
X0344127Y0131615D01*
X0343451Y0132290D01*
X0342569Y0132655D01*
X0340639Y0132655D01*
X0340752Y0132928D01*
X0343171Y0132406D02*
X0360578Y0132406D01*
X0360470Y0130808D02*
X0349312Y0130808D01*
X0350245Y0129209D02*
X0360470Y0129209D01*
X0360946Y0127611D02*
X0350383Y0127611D01*
X0349856Y0126012D02*
X0361608Y0126012D01*
X0362986Y0124414D02*
X0347984Y0124414D01*
X0344782Y0124414D02*
X0344492Y0124414D01*
X0345023Y0122815D02*
X0365191Y0122815D01*
X0372752Y0122815D02*
X0386257Y0122815D01*
X0386257Y0121217D02*
X0345949Y0121217D01*
X0345949Y0119618D02*
X0386257Y0119618D01*
X0386257Y0118020D02*
X0345949Y0118020D01*
X0345924Y0116421D02*
X0386257Y0116421D01*
X0386257Y0114823D02*
X0345889Y0114823D01*
X0345949Y0113224D02*
X0386257Y0113224D01*
X0386257Y0111626D02*
X0345949Y0111626D01*
X0345949Y0110027D02*
X0386257Y0110027D01*
X0386257Y0124414D02*
X0374958Y0124414D01*
X0376336Y0126012D02*
X0386257Y0126012D01*
X0386257Y0127611D02*
X0376998Y0127611D01*
X0377474Y0129209D02*
X0386257Y0129209D01*
X0386257Y0130808D02*
X0377474Y0130808D01*
X0377365Y0132406D02*
X0386257Y0132406D01*
X0386257Y0134005D02*
X0376703Y0134005D01*
X0375845Y0135603D02*
X0386257Y0135603D01*
X0386257Y0137202D02*
X0374246Y0137202D01*
X0371035Y0138800D02*
X0386257Y0138800D01*
X0386257Y0140399D02*
X0340264Y0140399D01*
X0340752Y0138800D02*
X0366908Y0138800D01*
X0363697Y0137202D02*
X0340752Y0137202D01*
X0339583Y0141997D02*
X0386257Y0141997D01*
X0386257Y0143596D02*
X0340274Y0143596D01*
X0340949Y0145194D02*
X0386257Y0145194D01*
X0386257Y0146793D02*
X0340949Y0146793D01*
X0340949Y0148391D02*
X0386257Y0148391D01*
X0386257Y0149990D02*
X0340820Y0149990D01*
X0349134Y0151589D02*
X0386257Y0151589D01*
X0386257Y0153187D02*
X0350733Y0153187D01*
X0352331Y0154786D02*
X0357771Y0154786D01*
X0356506Y0156384D02*
X0353133Y0156384D01*
X0353133Y0157983D02*
X0356133Y0157983D01*
X0356425Y0159581D02*
X0353133Y0159581D01*
X0353133Y0161180D02*
X0357133Y0161180D01*
X0357133Y0162778D02*
X0353133Y0162778D01*
X0353133Y0164377D02*
X0357133Y0164377D01*
X0357133Y0165975D02*
X0353990Y0165975D01*
X0354502Y0167574D02*
X0356132Y0167574D01*
X0355765Y0169172D02*
X0354409Y0169172D01*
X0353621Y0170771D02*
X0355253Y0170771D01*
X0363133Y0165975D02*
X0364810Y0165975D01*
X0363133Y0164377D02*
X0386257Y0164377D01*
X0386257Y0165975D02*
X0370456Y0165975D01*
X0371634Y0167574D02*
X0386257Y0167574D01*
X0386257Y0169172D02*
X0372002Y0169172D01*
X0371765Y0170771D02*
X0386257Y0170771D01*
X0386257Y0172369D02*
X0385887Y0172369D01*
X0386257Y0162778D02*
X0363133Y0162778D01*
X0363133Y0161180D02*
X0386257Y0161180D01*
X0386257Y0159581D02*
X0363841Y0159581D01*
X0364133Y0157983D02*
X0386257Y0157983D01*
X0386257Y0156384D02*
X0363760Y0156384D01*
X0362496Y0154786D02*
X0386257Y0154786D01*
X0346383Y0128080D02*
X0340704Y0128080D01*
X0340123Y0127499D01*
X0340123Y0120187D01*
X0341383Y0118927D01*
X0341383Y0112234D02*
X0339730Y0110580D01*
X0320133Y0110580D01*
X0317643Y0113070D01*
X0317643Y0127499D01*
X0313275Y0127611D02*
X0289098Y0127611D01*
X0289098Y0129209D02*
X0313275Y0129209D01*
X0313306Y0130808D02*
X0302887Y0130808D01*
X0302804Y0130724D02*
X0303139Y0131060D01*
X0303376Y0131470D01*
X0303498Y0131928D01*
X0303498Y0134146D01*
X0299914Y0134146D01*
X0299914Y0130365D01*
X0301935Y0130365D01*
X0302393Y0130488D01*
X0302804Y0130724D01*
X0303498Y0132406D02*
X0314596Y0132406D01*
X0317015Y0134005D02*
X0303498Y0134005D01*
X0303498Y0135603D02*
X0317015Y0135603D01*
X0317015Y0137202D02*
X0303369Y0137202D01*
X0299914Y0137202D02*
X0299546Y0137202D01*
X0299546Y0135603D02*
X0299914Y0135603D01*
X0299914Y0134005D02*
X0299546Y0134005D01*
X0299546Y0132406D02*
X0299914Y0132406D01*
X0299914Y0130808D02*
X0299546Y0130808D01*
X0295712Y0138800D02*
X0317015Y0138800D01*
X0317503Y0140399D02*
X0292779Y0140399D01*
X0284730Y0129330D02*
X0285133Y0128927D01*
X0285133Y0120580D01*
X0282037Y0118020D02*
X0281598Y0118020D01*
X0280599Y0116421D02*
X0314443Y0116421D01*
X0314443Y0114823D02*
X0258491Y0114823D01*
X0258473Y0114865D02*
X0258061Y0115482D01*
X0257536Y0116007D01*
X0256918Y0116420D01*
X0256233Y0116704D01*
X0255504Y0116849D01*
X0255318Y0116849D01*
X0255318Y0113265D01*
X0254949Y0113265D01*
X0254949Y0116849D01*
X0254762Y0116849D01*
X0254034Y0116704D01*
X0253348Y0116420D01*
X0252731Y0116007D01*
X0252206Y0115482D01*
X0251794Y0114865D01*
X0251510Y0114179D01*
X0251365Y0113451D01*
X0251365Y0113264D01*
X0254949Y0113264D01*
X0254949Y0112896D01*
X0251365Y0112896D01*
X0251365Y0112709D01*
X0251510Y0111981D01*
X0251794Y0111295D01*
X0252206Y0110678D01*
X0252731Y0110153D01*
X0253348Y0109741D01*
X0254034Y0109457D01*
X0254762Y0109312D01*
X0254949Y0109312D01*
X0254949Y0112896D01*
X0255318Y0112896D01*
X0255318Y0113264D01*
X0258902Y0113264D01*
X0258902Y0113451D01*
X0258757Y0114179D01*
X0258473Y0114865D01*
X0258902Y0112896D02*
X0255318Y0112896D01*
X0255318Y0109312D01*
X0255504Y0109312D01*
X0256233Y0109457D01*
X0256918Y0109741D01*
X0257536Y0110153D01*
X0258061Y0110678D01*
X0258473Y0111295D01*
X0258757Y0111981D01*
X0258902Y0112709D01*
X0258902Y0112896D01*
X0258610Y0111626D02*
X0314778Y0111626D01*
X0314443Y0113224D02*
X0255318Y0113224D01*
X0254949Y0113224D02*
X0248972Y0113224D01*
X0248978Y0114823D02*
X0251776Y0114823D01*
X0253352Y0116421D02*
X0248978Y0116421D01*
X0248970Y0118020D02*
X0250214Y0118020D01*
X0253699Y0118020D02*
X0254068Y0118020D01*
X0254068Y0117215D02*
X0256286Y0117215D01*
X0256743Y0117338D01*
X0257154Y0117575D01*
X0257489Y0117910D01*
X0257726Y0118320D01*
X0257849Y0118778D01*
X0257849Y0120799D01*
X0254068Y0120799D01*
X0254068Y0117215D01*
X0254949Y0116421D02*
X0255318Y0116421D01*
X0256915Y0116421D02*
X0273861Y0116421D01*
X0270353Y0116615D02*
X0270353Y0120396D01*
X0266768Y0120396D01*
X0266768Y0118178D01*
X0266891Y0117720D01*
X0267128Y0117310D01*
X0267463Y0116974D01*
X0267874Y0116738D01*
X0268331Y0116615D01*
X0270353Y0116615D01*
X0270353Y0118020D02*
X0270721Y0118020D01*
X0270721Y0119618D02*
X0270353Y0119618D01*
X0270353Y0121217D02*
X0270721Y0121217D01*
X0270721Y0122815D02*
X0270353Y0122815D01*
X0270353Y0124414D02*
X0270721Y0124414D01*
X0273216Y0124414D02*
X0273535Y0124414D01*
X0273948Y0126012D02*
X0258449Y0126012D01*
X0258449Y0127611D02*
X0273668Y0127611D01*
X0273668Y0129209D02*
X0258449Y0129209D01*
X0258165Y0130808D02*
X0273668Y0130808D01*
X0273848Y0132406D02*
X0249733Y0132406D01*
X0258110Y0124414D02*
X0267858Y0124414D01*
X0266768Y0122815D02*
X0257849Y0122815D01*
X0257849Y0121217D02*
X0266768Y0121217D01*
X0266768Y0119618D02*
X0257849Y0119618D01*
X0257552Y0118020D02*
X0266811Y0118020D01*
X0257347Y0110027D02*
X0316161Y0110027D01*
X0314443Y0118020D02*
X0288230Y0118020D01*
X0289064Y0119618D02*
X0314443Y0119618D01*
X0314443Y0121217D02*
X0289133Y0121217D01*
X0288537Y0122815D02*
X0314209Y0122815D01*
X0313275Y0124414D02*
X0288333Y0124414D01*
X0288819Y0126012D02*
X0313275Y0126012D01*
X0325123Y0127499D02*
X0325537Y0127086D01*
X0325537Y0118080D01*
X0332230Y0118080D02*
X0332230Y0127086D01*
X0332643Y0127499D01*
X0331347Y0165975D02*
X0295359Y0165975D01*
X0295383Y0167574D02*
X0331631Y0167574D01*
X0331631Y0169172D02*
X0294698Y0169172D01*
X0296198Y0170771D02*
X0331631Y0170771D01*
X0330620Y0172369D02*
X0329564Y0172369D01*
X0327138Y0172369D02*
X0326376Y0172369D01*
X0326376Y0173968D02*
X0327138Y0173968D01*
X0327138Y0175566D02*
X0326376Y0175566D01*
X0326376Y0177165D02*
X0327138Y0177165D01*
X0327139Y0177670D02*
X0329869Y0177670D01*
X0329869Y0178432D01*
X0327139Y0178432D01*
X0327139Y0177670D01*
X0326757Y0178051D02*
X0326383Y0178425D01*
X0326376Y0178763D02*
X0327138Y0178763D01*
X0327138Y0180362D02*
X0326376Y0180362D01*
X0326376Y0181960D02*
X0327138Y0181960D01*
X0327138Y0183559D02*
X0326376Y0183559D01*
X0323516Y0183559D02*
X0314383Y0183559D01*
X0314383Y0185157D02*
X0333814Y0185157D01*
X0332435Y0186756D02*
X0324683Y0186756D01*
X0327150Y0188354D02*
X0332133Y0188354D01*
X0332133Y0189953D02*
X0328749Y0189953D01*
X0329333Y0190537D02*
X0329333Y0190537D01*
X0330247Y0191551D02*
X0332133Y0191551D01*
X0332433Y0193150D02*
X0330633Y0193150D01*
X0330633Y0194748D02*
X0333809Y0194748D01*
X0335407Y0196347D02*
X0330633Y0196347D01*
X0330633Y0197945D02*
X0335883Y0197945D01*
X0335883Y0199544D02*
X0330633Y0199544D01*
X0330633Y0201142D02*
X0335883Y0201142D01*
X0335883Y0202741D02*
X0330633Y0202741D01*
X0330799Y0204339D02*
X0335883Y0204339D01*
X0335883Y0205938D02*
X0331593Y0205938D01*
X0331633Y0207536D02*
X0335883Y0207536D01*
X0335883Y0209135D02*
X0330985Y0209135D01*
X0328663Y0210733D02*
X0335883Y0210733D01*
X0335883Y0212332D02*
X0325220Y0212332D01*
X0325220Y0213930D02*
X0335883Y0213930D01*
X0335883Y0215529D02*
X0325220Y0215529D01*
X0325213Y0217127D02*
X0335883Y0217127D01*
X0335883Y0218726D02*
X0324980Y0218726D01*
X0325220Y0220325D02*
X0335883Y0220325D01*
X0335883Y0221923D02*
X0330883Y0221923D01*
X0331628Y0223522D02*
X0335883Y0223522D01*
X0335883Y0225120D02*
X0331633Y0225120D01*
X0330902Y0226719D02*
X0335883Y0226719D01*
X0335883Y0228317D02*
X0332104Y0228317D01*
X0333670Y0229916D02*
X0333891Y0229916D01*
X0330133Y0231830D02*
X0326757Y0235206D01*
X0326757Y0241830D01*
X0321995Y0241105D02*
X0315383Y0241105D01*
X0315351Y0242704D02*
X0321983Y0242704D01*
X0321439Y0244302D02*
X0314568Y0244302D01*
X0314717Y0239507D02*
X0321995Y0239507D01*
X0321995Y0237908D02*
X0312367Y0237908D01*
X0310105Y0236310D02*
X0322585Y0236310D01*
X0323467Y0234711D02*
X0323557Y0234711D01*
X0314299Y0234711D02*
X0308507Y0234711D01*
X0306908Y0233113D02*
X0312651Y0233113D01*
X0312546Y0231514D02*
X0305310Y0231514D01*
X0303711Y0229916D02*
X0307562Y0229916D01*
X0306420Y0228317D02*
X0302113Y0228317D01*
X0300514Y0226719D02*
X0306133Y0226719D01*
X0306512Y0225120D02*
X0298916Y0225120D01*
X0299918Y0223522D02*
X0297849Y0223522D01*
X0295226Y0229916D02*
X0269295Y0229916D01*
X0270549Y0231514D02*
X0296825Y0231514D01*
X0298423Y0233113D02*
X0271211Y0233113D01*
X0271233Y0234711D02*
X0300022Y0234711D01*
X0301620Y0236310D02*
X0271233Y0236310D01*
X0271233Y0237908D02*
X0283104Y0237908D01*
X0281234Y0239507D02*
X0271233Y0239507D01*
X0271233Y0241105D02*
X0279636Y0241105D01*
X0278037Y0242704D02*
X0271233Y0242704D01*
X0270691Y0244302D02*
X0276439Y0244302D01*
X0274840Y0245901D02*
X0269640Y0245901D01*
X0267266Y0247499D02*
X0273242Y0247499D01*
X0263000Y0247499D02*
X0257266Y0247499D01*
X0259640Y0245901D02*
X0260627Y0245901D01*
X0253000Y0247499D02*
X0247266Y0247499D01*
X0249640Y0245901D02*
X0250627Y0245901D01*
X0243000Y0247499D02*
X0237266Y0247499D01*
X0239640Y0245901D02*
X0240627Y0245901D01*
X0233000Y0247499D02*
X0227266Y0247499D01*
X0229640Y0245901D02*
X0230627Y0245901D01*
X0236189Y0266681D02*
X0203142Y0266681D01*
X0199625Y0266681D02*
X0198275Y0266681D01*
X0196676Y0268280D02*
X0234441Y0268280D01*
X0232843Y0269878D02*
X0195633Y0269878D01*
X0195633Y0271477D02*
X0231300Y0271477D01*
X0230883Y0273075D02*
X0195633Y0273075D01*
X0195633Y0274674D02*
X0230883Y0274674D01*
X0230883Y0276272D02*
X0195633Y0276272D01*
X0195633Y0277871D02*
X0230883Y0277871D01*
X0230883Y0279469D02*
X0195633Y0279469D01*
X0195633Y0281068D02*
X0230883Y0281068D01*
X0230883Y0282666D02*
X0194790Y0282666D01*
X0193191Y0284265D02*
X0230883Y0284265D01*
X0230883Y0285863D02*
X0191593Y0285863D01*
X0189994Y0287462D02*
X0230883Y0287462D01*
X0230883Y0289060D02*
X0206770Y0289060D01*
X0207728Y0290659D02*
X0230883Y0290659D01*
X0230883Y0292258D02*
X0207883Y0292258D01*
X0207374Y0293856D02*
X0230883Y0293856D01*
X0230883Y0295455D02*
X0205586Y0295455D01*
X0202762Y0297053D02*
X0230883Y0297053D01*
X0230883Y0301849D02*
X0170383Y0301849D01*
X0170383Y0303447D02*
X0230883Y0303447D01*
X0230883Y0305046D02*
X0170383Y0305046D01*
X0170383Y0306644D02*
X0230883Y0306644D01*
X0230883Y0308243D02*
X0170383Y0308243D01*
X0170383Y0309841D02*
X0230883Y0309841D01*
X0230883Y0311440D02*
X0170383Y0311440D01*
X0170383Y0313038D02*
X0231137Y0313038D01*
X0232447Y0314637D02*
X0170383Y0314637D01*
X0177390Y0316235D02*
X0233633Y0316235D01*
X0234237Y0317834D02*
X0178033Y0317834D01*
X0178033Y0319432D02*
X0236480Y0319432D01*
X0238786Y0319432D02*
X0243328Y0319432D01*
X0242469Y0317834D02*
X0241029Y0317834D01*
X0201342Y0298473D02*
X0201342Y0298473D01*
X0197756Y0293856D02*
X0187816Y0293856D01*
X0178434Y0289060D02*
X0200996Y0289060D01*
X0156696Y0253893D02*
X0155191Y0253893D01*
X0157233Y0252295D02*
X0151783Y0252295D01*
X0151783Y0253893D02*
X0152576Y0253893D01*
X0151783Y0250696D02*
X0157233Y0250696D01*
X0157233Y0249098D02*
X0151783Y0249098D01*
X0151783Y0247499D02*
X0157233Y0247499D01*
X0157233Y0245901D02*
X0151783Y0245901D01*
X0151783Y0244302D02*
X0157233Y0244302D01*
X0157233Y0242704D02*
X0151783Y0242704D01*
X0151783Y0241105D02*
X0157233Y0241105D01*
X0157439Y0239507D02*
X0151783Y0239507D01*
X0152212Y0237908D02*
X0159006Y0237908D01*
X0134363Y0237908D02*
X0133404Y0237908D01*
X0133404Y0236310D02*
X0134363Y0236310D01*
X0134363Y0239507D02*
X0133404Y0239507D01*
X0133404Y0240646D02*
X0128250Y0240646D01*
X0128384Y0241487D01*
X0128658Y0242331D01*
X0129061Y0243122D01*
X0129582Y0243840D01*
X0130210Y0244468D01*
X0130928Y0244989D01*
X0131719Y0245392D01*
X0132563Y0245667D01*
X0133404Y0245800D01*
X0133404Y0240646D01*
X0133404Y0241105D02*
X0134363Y0241105D01*
X0134363Y0242704D02*
X0133404Y0242704D01*
X0133404Y0244302D02*
X0134363Y0244302D01*
X0130045Y0244302D02*
X0080033Y0244302D01*
X0080033Y0242704D02*
X0128848Y0242704D01*
X0128323Y0241105D02*
X0080033Y0241105D01*
X0080033Y0239507D02*
X0128279Y0239507D01*
X0128706Y0237908D02*
X0080033Y0237908D01*
X0080033Y0236310D02*
X0129766Y0236310D01*
X0127582Y0223522D02*
X0119817Y0223522D01*
X0118219Y0221923D02*
X0125984Y0221923D01*
X0124385Y0220325D02*
X0116620Y0220325D01*
X0115633Y0218726D02*
X0123404Y0218726D01*
X0123383Y0217127D02*
X0115633Y0217127D01*
X0115633Y0215529D02*
X0123175Y0215529D01*
X0122406Y0213930D02*
X0115633Y0213930D01*
X0115633Y0212332D02*
X0122383Y0212332D01*
X0123073Y0210733D02*
X0115633Y0210733D01*
X0115633Y0209135D02*
X0125456Y0209135D01*
X0115633Y0204339D02*
X0159486Y0204339D01*
X0158681Y0202741D02*
X0115633Y0202741D01*
X0115633Y0201142D02*
X0158633Y0201142D01*
X0159263Y0199544D02*
X0115633Y0199544D01*
X0109633Y0199544D02*
X0080033Y0199544D01*
X0080033Y0201142D02*
X0109633Y0201142D01*
X0109633Y0202741D02*
X0080033Y0202741D01*
X0080033Y0204339D02*
X0109633Y0204339D01*
X0109633Y0205938D02*
X0080033Y0205938D01*
X0080033Y0207536D02*
X0109633Y0207536D01*
X0109633Y0209135D02*
X0080033Y0209135D01*
X0080033Y0210733D02*
X0109633Y0210733D01*
X0109633Y0212332D02*
X0080033Y0212332D01*
X0080033Y0213930D02*
X0109633Y0213930D01*
X0109633Y0215529D02*
X0080033Y0215529D01*
X0080033Y0217127D02*
X0109633Y0217127D01*
X0109633Y0218726D02*
X0080033Y0218726D01*
X0080033Y0220325D02*
X0109633Y0220325D01*
X0109942Y0221923D02*
X0080033Y0221923D01*
X0080033Y0223522D02*
X0111332Y0223522D01*
X0112931Y0225120D02*
X0080033Y0225120D01*
X0080033Y0226719D02*
X0114529Y0226719D01*
X0116128Y0228317D02*
X0080033Y0228317D01*
X0080033Y0197945D02*
X0109633Y0197945D01*
X0109633Y0196347D02*
X0080033Y0196347D01*
X0080033Y0194748D02*
X0109633Y0194748D01*
X0109633Y0193150D02*
X0080033Y0193150D01*
X0080033Y0191551D02*
X0109633Y0191551D01*
X0109633Y0189953D02*
X0080033Y0189953D01*
X0080033Y0188354D02*
X0109633Y0188354D01*
X0109633Y0186756D02*
X0080033Y0186756D01*
X0080033Y0185157D02*
X0109633Y0185157D01*
X0109706Y0183559D02*
X0080033Y0183559D01*
X0080033Y0181960D02*
X0110761Y0181960D01*
X0112359Y0180362D02*
X0080033Y0180362D01*
X0080033Y0178763D02*
X0113958Y0178763D01*
X0115556Y0177165D02*
X0080033Y0177165D01*
X0080033Y0175566D02*
X0117155Y0175566D01*
X0118383Y0173968D02*
X0080033Y0173968D01*
X0080033Y0172369D02*
X0118383Y0172369D01*
X0118383Y0170771D02*
X0080033Y0170771D01*
X0080033Y0169172D02*
X0118383Y0169172D01*
X0118383Y0167574D02*
X0080033Y0167574D01*
X0080033Y0165975D02*
X0118383Y0165975D01*
X0118383Y0164377D02*
X0080033Y0164377D01*
X0080033Y0162778D02*
X0118383Y0162778D01*
X0118383Y0161180D02*
X0080033Y0161180D01*
X0080033Y0159581D02*
X0118383Y0159581D01*
X0118383Y0157983D02*
X0080033Y0157983D01*
X0080033Y0156384D02*
X0118383Y0156384D01*
X0118383Y0154786D02*
X0080033Y0154786D01*
X0080033Y0153187D02*
X0118383Y0153187D01*
X0118383Y0151589D02*
X0080033Y0151589D01*
X0080033Y0149990D02*
X0118383Y0149990D01*
X0118383Y0148391D02*
X0080033Y0148391D01*
X0080033Y0146793D02*
X0118383Y0146793D01*
X0118383Y0145194D02*
X0080033Y0145194D01*
X0080033Y0143596D02*
X0118383Y0143596D01*
X0118383Y0141997D02*
X0080033Y0141997D01*
X0080033Y0140399D02*
X0118383Y0140399D01*
X0118383Y0138800D02*
X0099382Y0138800D01*
X0099010Y0138955D02*
X0095627Y0138955D01*
X0092502Y0137660D01*
X0090110Y0135268D01*
X0088816Y0132143D01*
X0088816Y0128761D01*
X0090110Y0125636D01*
X0092502Y0123244D01*
X0095627Y0121950D01*
X0099010Y0121950D01*
X0102135Y0123244D01*
X0104526Y0125636D01*
X0105821Y0128761D01*
X0105821Y0132143D01*
X0104526Y0135268D01*
X0102135Y0137660D01*
X0099010Y0138955D01*
X0095255Y0138800D02*
X0080033Y0138800D01*
X0080033Y0137202D02*
X0092044Y0137202D01*
X0090445Y0135603D02*
X0080033Y0135603D01*
X0080033Y0134005D02*
X0089587Y0134005D01*
X0088925Y0132406D02*
X0080033Y0132406D01*
X0080033Y0130808D02*
X0088816Y0130808D01*
X0088816Y0129209D02*
X0080033Y0129209D01*
X0080033Y0127611D02*
X0089292Y0127611D01*
X0089955Y0126012D02*
X0080033Y0126012D01*
X0080033Y0124414D02*
X0091333Y0124414D01*
X0093538Y0122815D02*
X0080033Y0122815D01*
X0080033Y0121217D02*
X0118068Y0121217D01*
X0118068Y0122815D02*
X0101099Y0122815D01*
X0103304Y0124414D02*
X0118068Y0124414D01*
X0118441Y0126012D02*
X0104682Y0126012D01*
X0105344Y0127611D02*
X0125713Y0127611D01*
X0126826Y0126012D02*
X0128441Y0126012D01*
X0132633Y0122677D02*
X0122633Y0122677D01*
X0118322Y0119618D02*
X0080033Y0119618D01*
X0080033Y0118020D02*
X0118068Y0118020D01*
X0118068Y0116421D02*
X0080033Y0116421D01*
X0080033Y0114823D02*
X0118068Y0114823D01*
X0118198Y0113224D02*
X0080033Y0113224D01*
X0080033Y0111626D02*
X0119965Y0111626D01*
X0122633Y0115984D02*
X0132633Y0115984D01*
X0145578Y0115984D01*
X0149415Y0119820D01*
X0153456Y0113224D02*
X0155374Y0113224D01*
X0157845Y0111626D02*
X0150985Y0111626D01*
X0147845Y0111626D02*
X0135301Y0111626D01*
X0129965Y0111626D02*
X0125301Y0111626D01*
X0132633Y0122677D02*
X0132633Y0130984D01*
X0159730Y0130984D01*
X0160133Y0130580D01*
X0160133Y0120539D01*
X0159415Y0119820D01*
X0164815Y0119618D02*
X0179243Y0119618D01*
X0178498Y0121217D02*
X0164815Y0121217D01*
X0164815Y0122815D02*
X0178483Y0122815D01*
X0178483Y0124414D02*
X0164600Y0124414D01*
X0163860Y0126012D02*
X0178483Y0126012D01*
X0178483Y0127611D02*
X0163333Y0127611D01*
X0163333Y0129209D02*
X0178483Y0129209D01*
X0178483Y0130808D02*
X0163333Y0130808D01*
X0162833Y0132406D02*
X0178483Y0132406D01*
X0179457Y0134005D02*
X0160798Y0134005D01*
X0164815Y0118020D02*
X0178398Y0118020D01*
X0178265Y0116421D02*
X0164815Y0116421D01*
X0164432Y0114823D02*
X0178736Y0114823D01*
X0180061Y0113224D02*
X0163456Y0113224D01*
X0160985Y0111626D02*
X0210156Y0111626D01*
X0209883Y0113224D02*
X0195205Y0113224D01*
X0196530Y0114823D02*
X0210276Y0114823D01*
X0210883Y0116421D02*
X0197002Y0116421D01*
X0196869Y0118020D02*
X0210883Y0118020D01*
X0210883Y0119618D02*
X0205773Y0119618D01*
X0206768Y0121217D02*
X0210883Y0121217D01*
X0210883Y0122815D02*
X0206783Y0122815D01*
X0211279Y0110027D02*
X0080033Y0110027D01*
X0105821Y0129209D02*
X0123512Y0129209D01*
X0121913Y0130808D02*
X0105821Y0130808D01*
X0105712Y0132406D02*
X0120314Y0132406D01*
X0118789Y0134005D02*
X0105050Y0134005D01*
X0104191Y0135603D02*
X0118383Y0135603D01*
X0118383Y0137202D02*
X0102593Y0137202D01*
X0124383Y0137202D02*
X0128668Y0137202D01*
X0128668Y0138800D02*
X0124383Y0138800D01*
X0124383Y0140399D02*
X0128825Y0140399D01*
X0132449Y0140399D02*
X0132818Y0140399D01*
X0132818Y0138800D02*
X0132449Y0138800D01*
X0128668Y0135603D02*
X0125603Y0135603D01*
X0127201Y0134005D02*
X0128306Y0134005D01*
X0128557Y0157983D02*
X0124383Y0157983D01*
X0124383Y0159581D02*
X0127895Y0159581D01*
X0127645Y0161180D02*
X0124383Y0161180D01*
X0124383Y0162778D02*
X0127691Y0162778D01*
X0128353Y0164377D02*
X0124383Y0164377D01*
X0124383Y0165975D02*
X0129609Y0165975D01*
X0186530Y0114823D02*
X0188736Y0114823D01*
X0188265Y0116421D02*
X0187002Y0116421D01*
X0186869Y0118020D02*
X0188398Y0118020D01*
X0190061Y0113224D02*
X0185205Y0113224D01*
X0227903Y0126414D02*
X0227903Y0132811D01*
X0225133Y0135580D01*
X0229999Y0137946D02*
X0230460Y0136798D01*
X0230460Y0126710D01*
X0230462Y0126414D01*
X0233021Y0126414D02*
X0233085Y0126479D01*
X0233085Y0137413D01*
X0235268Y0139595D01*
X0237660Y0137202D02*
X0261818Y0137202D01*
X0261818Y0138800D02*
X0238601Y0138800D01*
X0239004Y0140399D02*
X0261818Y0140399D01*
X0261936Y0141997D02*
X0262122Y0141997D01*
X0258330Y0141997D02*
X0239268Y0141997D01*
X0238211Y0135564D02*
X0238211Y0126487D01*
X0238139Y0126414D01*
X0239144Y0132406D02*
X0236285Y0132406D01*
X0236285Y0134005D02*
X0267018Y0134005D01*
X0261998Y0135603D02*
X0236285Y0135603D01*
X0253642Y0143596D02*
X0256626Y0143596D01*
X0256133Y0145194D02*
X0255240Y0145194D01*
X0253927Y0143881D02*
X0253927Y0143881D01*
X0254068Y0119618D02*
X0253699Y0119618D01*
X0254949Y0114823D02*
X0255318Y0114823D01*
X0255318Y0111626D02*
X0254949Y0111626D01*
X0254949Y0110027D02*
X0255318Y0110027D01*
X0252919Y0110027D02*
X0247036Y0110027D01*
X0248702Y0111626D02*
X0251657Y0111626D01*
X0296598Y0172369D02*
X0303938Y0172369D01*
X0302722Y0173968D02*
X0297763Y0173968D01*
X0299107Y0175566D02*
X0302383Y0175566D01*
X0302710Y0177165D02*
X0299383Y0177165D01*
X0299383Y0178763D02*
X0303383Y0178763D01*
X0303383Y0180362D02*
X0299383Y0180362D01*
X0299383Y0181960D02*
X0303383Y0181960D01*
X0303383Y0183559D02*
X0299383Y0183559D01*
X0299383Y0185157D02*
X0303383Y0185157D01*
X0303383Y0186756D02*
X0301966Y0186756D01*
X0310383Y0175566D02*
X0322595Y0175566D01*
X0322595Y0173968D02*
X0310045Y0173968D01*
X0308829Y0172369D02*
X0323951Y0172369D01*
X0322595Y0177165D02*
X0313590Y0177165D01*
X0314960Y0178763D02*
X0322595Y0178763D01*
X0322595Y0180362D02*
X0315383Y0180362D01*
X0315141Y0181960D02*
X0322595Y0181960D01*
X0329998Y0183559D02*
X0330446Y0183559D01*
X0318440Y0198080D02*
X0318883Y0198523D01*
X0318440Y0198080D02*
X0310133Y0198080D01*
X0324931Y0210733D02*
X0326604Y0210733D01*
X0312786Y0218726D02*
X0308730Y0218726D01*
X0307132Y0220325D02*
X0312396Y0220325D01*
X0310798Y0221923D02*
X0306407Y0221923D01*
X0305349Y0223522D02*
X0307785Y0223522D01*
X0303219Y0237908D02*
X0298412Y0237908D01*
X0300113Y0239338D02*
X0300113Y0239338D01*
X0300282Y0239507D02*
X0304817Y0239507D01*
X0306416Y0241105D02*
X0301881Y0241105D01*
X0303479Y0242704D02*
X0307416Y0242704D01*
X0308198Y0244302D02*
X0305078Y0244302D01*
X0306676Y0245901D02*
X0319840Y0245901D01*
X0327490Y0250696D02*
X0329625Y0250696D01*
X0329515Y0252295D02*
X0328055Y0252295D01*
X0328133Y0253893D02*
X0330009Y0253893D01*
X0330883Y0255492D02*
X0328133Y0255492D01*
X0328133Y0257090D02*
X0330883Y0257090D01*
X0330883Y0258689D02*
X0328133Y0258689D01*
X0328133Y0260287D02*
X0330883Y0260287D01*
X0330883Y0261886D02*
X0328133Y0261886D01*
X0328133Y0263484D02*
X0330883Y0263484D01*
X0330883Y0265083D02*
X0328133Y0265083D01*
X0328133Y0266681D02*
X0330883Y0266681D01*
X0330883Y0268280D02*
X0328133Y0268280D01*
X0328133Y0269878D02*
X0330883Y0269878D01*
X0330883Y0271477D02*
X0328133Y0271477D01*
X0328133Y0273075D02*
X0330883Y0273075D01*
X0330883Y0274674D02*
X0328133Y0274674D01*
X0328133Y0276272D02*
X0330883Y0276272D01*
X0330883Y0277871D02*
X0328133Y0277871D01*
X0328429Y0279469D02*
X0330883Y0279469D01*
X0330883Y0281068D02*
X0329133Y0281068D01*
X0329117Y0282666D02*
X0330883Y0282666D01*
X0330883Y0284265D02*
X0328355Y0284265D01*
X0315883Y0282666D02*
X0315633Y0282666D01*
X0315633Y0281068D02*
X0315883Y0281068D01*
X0329088Y0249098D02*
X0330438Y0249098D01*
X0368774Y0282666D02*
X0382133Y0282666D01*
X0375997Y0281068D02*
X0369270Y0281068D01*
X0286350Y0193150D02*
X0276416Y0193150D01*
X0276633Y0191551D02*
X0286133Y0191551D01*
X0286581Y0189953D02*
X0276185Y0189953D01*
X0278668Y0181960D02*
X0272873Y0181960D01*
X0274594Y0180362D02*
X0278915Y0180362D01*
X0278915Y0178763D02*
X0276193Y0178763D01*
X0277791Y0177165D02*
X0278915Y0177165D01*
X0142233Y0292258D02*
X0080033Y0292258D01*
X0080033Y0293856D02*
X0142233Y0293856D01*
X0142233Y0295455D02*
X0080033Y0295455D01*
X0080033Y0297053D02*
X0142233Y0297053D01*
X0142233Y0298652D02*
X0080033Y0298652D01*
X0080033Y0300250D02*
X0142233Y0300250D01*
X0142233Y0301849D02*
X0080033Y0301849D01*
X0080033Y0303447D02*
X0142233Y0303447D01*
X0142233Y0305046D02*
X0080033Y0305046D01*
X0080033Y0306644D02*
X0142233Y0306644D01*
X0142233Y0308243D02*
X0080033Y0308243D01*
X0080033Y0309841D02*
X0142233Y0309841D01*
X0142233Y0311440D02*
X0080033Y0311440D01*
X0080033Y0313038D02*
X0142233Y0313038D01*
X0142233Y0314637D02*
X0080033Y0314637D01*
X0080033Y0316235D02*
X0142233Y0316235D01*
X0142233Y0317834D02*
X0080033Y0317834D01*
X0080033Y0319432D02*
X0142233Y0319432D01*
X0142233Y0321031D02*
X0080033Y0321031D01*
X0080033Y0322629D02*
X0142233Y0322629D01*
X0142233Y0324228D02*
X0080033Y0324228D01*
X0080033Y0325826D02*
X0142233Y0325826D01*
X0142233Y0327425D02*
X0080033Y0327425D01*
X0080033Y0329023D02*
X0142233Y0329023D01*
X0142233Y0330622D02*
X0080033Y0330622D01*
X0080033Y0332220D02*
X0142233Y0332220D01*
X0142233Y0333819D02*
X0080033Y0333819D01*
X0080033Y0335417D02*
X0142233Y0335417D01*
X0142233Y0337016D02*
X0080033Y0337016D01*
X0080033Y0338614D02*
X0142233Y0338614D01*
X0142233Y0340213D02*
X0080033Y0340213D01*
X0080033Y0341811D02*
X0142233Y0341811D01*
X0142233Y0343410D02*
X0080033Y0343410D01*
X0080033Y0345008D02*
X0142233Y0345008D01*
X0142233Y0346607D02*
X0080033Y0346607D01*
X0080033Y0348205D02*
X0142233Y0348205D01*
X0142588Y0349804D02*
X0080033Y0349804D01*
X0080033Y0351402D02*
X0144063Y0351402D01*
X0138172Y0354599D02*
X0137705Y0354599D01*
X0137705Y0356198D02*
X0138172Y0356198D01*
X0138172Y0357796D02*
X0137705Y0357796D01*
X0137705Y0359395D02*
X0138172Y0359395D01*
X0138172Y0360994D02*
X0137705Y0360994D01*
X0137705Y0362592D02*
X0138172Y0362592D01*
X0138172Y0364191D02*
X0137705Y0364191D01*
X0129068Y0370585D02*
X0128699Y0370585D01*
X0128699Y0372183D02*
X0129068Y0372183D01*
X0133449Y0378577D02*
X0133921Y0378577D01*
X0140345Y0376979D02*
X0140730Y0376979D01*
X0093382Y0445715D02*
X0080033Y0445715D01*
X0080033Y0447313D02*
X0091268Y0447313D01*
X0089928Y0448912D02*
X0080033Y0448912D01*
X0080033Y0450510D02*
X0089266Y0450510D01*
X0088816Y0452109D02*
X0080033Y0452109D01*
X0080033Y0453707D02*
X0088816Y0453707D01*
X0088952Y0455306D02*
X0080033Y0455306D01*
X0080033Y0456904D02*
X0089614Y0456904D01*
X0090510Y0458503D02*
X0080033Y0458503D01*
X0080033Y0460101D02*
X0092109Y0460101D01*
X0231330Y0424934D02*
X0234573Y0424934D01*
X0235463Y0426532D02*
X0232088Y0426532D01*
X0242488Y0426532D02*
X0244038Y0426532D01*
X0244038Y0424934D02*
X0242488Y0424934D01*
X0242488Y0423335D02*
X0244038Y0423335D01*
X0244038Y0420138D02*
X0242488Y0420138D01*
X0242488Y0418540D02*
X0244038Y0418540D01*
X0244038Y0416941D02*
X0242488Y0416941D01*
X0249845Y0453707D02*
X0317764Y0453707D01*
X0131881Y0290659D02*
X0113386Y0290659D01*
X0113293Y0290752D02*
X0111051Y0291680D01*
X0108625Y0291680D01*
X0106383Y0290752D01*
X0104667Y0289036D01*
X0103738Y0286794D01*
X0103738Y0284367D01*
X0104667Y0282125D01*
X0106383Y0280409D01*
X0108625Y0279480D01*
X0111051Y0279480D01*
X0113293Y0280409D01*
X0115009Y0282125D01*
X0115938Y0284367D01*
X0115938Y0286794D01*
X0115009Y0289036D01*
X0113293Y0290752D01*
X0114984Y0289060D02*
X0130282Y0289060D01*
X0129605Y0287462D02*
X0115661Y0287462D01*
X0115938Y0285863D02*
X0129329Y0285863D01*
X0129371Y0284265D02*
X0115896Y0284265D01*
X0115234Y0282666D02*
X0130033Y0282666D01*
X0131314Y0281068D02*
X0113952Y0281068D01*
X0105724Y0281068D02*
X0080033Y0281068D01*
X0080033Y0282666D02*
X0104442Y0282666D01*
X0103780Y0284265D02*
X0080033Y0284265D01*
X0080033Y0285863D02*
X0103738Y0285863D01*
X0104015Y0287462D02*
X0080033Y0287462D01*
X0080033Y0289060D02*
X0104692Y0289060D01*
X0106290Y0290659D02*
X0080033Y0290659D01*
D41*
X0118883Y0226830D02*
X0112633Y0220580D01*
X0112633Y0184330D01*
X0121383Y0175580D01*
X0121383Y0135580D01*
X0126383Y0130580D01*
X0132230Y0130580D01*
X0132633Y0130984D01*
X0161383Y0141830D02*
X0162633Y0143080D01*
X0167633Y0143080D01*
X0171383Y0146830D01*
X0171383Y0164330D01*
X0193883Y0164330D01*
X0221383Y0145580D02*
X0251383Y0145580D01*
X0255665Y0149862D01*
X0274041Y0149862D01*
X0274041Y0151830D02*
X0251383Y0151830D01*
X0263883Y0159330D02*
X0269415Y0153799D01*
X0274041Y0153799D01*
X0281915Y0153799D01*
X0283883Y0151830D01*
X0283883Y0141988D02*
X0283883Y0139330D01*
X0286383Y0136830D01*
X0290537Y0136830D01*
X0293037Y0134330D01*
X0298883Y0135177D02*
X0298883Y0140580D01*
X0308883Y0140580D01*
X0299730Y0134330D02*
X0298883Y0135177D01*
X0281383Y0136830D02*
X0279946Y0139517D01*
X0279946Y0141988D01*
X0277978Y0141988D02*
X0277978Y0129389D01*
X0278037Y0129330D01*
X0277230Y0128523D01*
X0277230Y0120580D01*
X0270537Y0120580D02*
X0263883Y0120580D01*
X0254287Y0120580D01*
X0253883Y0120984D01*
X0253704Y0127497D02*
X0253883Y0127677D01*
X0243763Y0116450D02*
X0229799Y0116450D01*
X0229231Y0115883D01*
X0222441Y0116276D02*
X0222267Y0116450D01*
X0222441Y0116276D02*
X0243651Y0116276D01*
X0243763Y0116450D02*
X0243196Y0115883D01*
X0236810Y0115883D01*
X0213883Y0113080D02*
X0213883Y0131830D01*
X0212633Y0133080D01*
X0201383Y0129330D02*
X0198883Y0128080D01*
X0202633Y0124330D01*
X0196383Y0129330D02*
X0195133Y0128080D01*
X0192633Y0123080D02*
X0192633Y0116830D01*
X0182633Y0116830D02*
X0182633Y0123080D01*
X0190133Y0128080D02*
X0190133Y0129330D01*
X0240133Y0175580D02*
X0264070Y0175580D01*
X0271477Y0168174D01*
X0277978Y0161673D01*
X0275606Y0160108D02*
X0273883Y0161830D01*
X0263883Y0161830D01*
X0263883Y0159330D01*
X0277633Y0169330D02*
X0277633Y0173080D01*
X0271383Y0179330D01*
X0248883Y0179330D01*
X0245133Y0183080D01*
X0229730Y0195580D02*
X0235133Y0200984D01*
X0229730Y0195580D02*
X0228883Y0195580D01*
X0235133Y0207677D02*
X0235133Y0210580D01*
X0238883Y0214330D01*
X0241383Y0214330D01*
X0271383Y0218080D02*
X0282633Y0206830D01*
X0287633Y0206830D01*
X0306383Y0188080D01*
X0306383Y0175580D01*
X0311383Y0180580D02*
X0311383Y0188080D01*
X0288883Y0210580D01*
X0285133Y0210580D01*
X0272633Y0223080D01*
X0131383Y0223080D01*
X0126383Y0218080D01*
X0126383Y0213080D01*
X0131383Y0216830D02*
X0132633Y0218080D01*
X0271383Y0218080D01*
X0282633Y0201830D02*
X0282633Y0196830D01*
X0275133Y0196830D01*
X0272633Y0194330D01*
X0272633Y0191830D01*
X0281915Y0183208D02*
X0281915Y0161673D01*
X0283883Y0161673D02*
X0283883Y0166830D01*
X0285133Y0168080D01*
X0285133Y0173927D01*
X0285537Y0174330D01*
X0292230Y0174330D02*
X0293883Y0174330D01*
X0296383Y0176830D01*
X0296383Y0189330D01*
X0298883Y0189330D01*
X0296383Y0189330D02*
X0296383Y0191830D01*
X0291383Y0196830D01*
X0282633Y0196830D01*
X0289730Y0191427D02*
X0289730Y0184330D01*
X0283037Y0184330D02*
X0281915Y0183208D01*
X0289730Y0191427D02*
X0290133Y0191830D01*
X0310133Y0198080D02*
X0287633Y0220580D01*
X0295133Y0220580D02*
X0308883Y0206830D01*
X0310133Y0206830D01*
X0310566Y0206397D01*
X0318883Y0206397D01*
X0318883Y0214271D02*
X0318824Y0214330D01*
X0310133Y0214330D01*
X0308883Y0214330D01*
X0302633Y0220580D01*
X0296383Y0226830D02*
X0311383Y0241830D01*
X0322008Y0249955D02*
X0325133Y0253080D01*
X0325133Y0281830D01*
X0312633Y0278080D02*
X0312633Y0299330D01*
X0300133Y0311830D01*
X0292633Y0311830D01*
X0290133Y0309330D01*
X0290133Y0304734D01*
X0290537Y0304330D01*
X0278583Y0304330D01*
X0277633Y0303380D01*
X0272633Y0303380D02*
X0272633Y0288080D01*
X0279730Y0288080D01*
X0288883Y0278927D01*
X0299730Y0278927D01*
X0300133Y0279330D01*
X0305133Y0269330D02*
X0305133Y0296427D01*
X0297230Y0304330D01*
X0310704Y0317509D02*
X0318883Y0309330D01*
X0318883Y0261830D01*
X0333883Y0251830D02*
X0333883Y0306830D01*
X0341383Y0314330D01*
X0350133Y0316830D02*
X0337633Y0304330D01*
X0337633Y0266830D01*
X0352633Y0268927D02*
X0352633Y0278080D01*
X0358883Y0266830D02*
X0358883Y0305580D01*
X0357633Y0306830D01*
X0365133Y0306830D02*
X0372633Y0299330D01*
X0372633Y0288080D01*
X0365133Y0284330D02*
X0365133Y0277677D01*
X0380133Y0277677D01*
X0380133Y0270984D02*
X0384287Y0270984D01*
X0385133Y0271830D01*
X0385133Y0294330D01*
X0383883Y0295580D01*
X0380133Y0308080D02*
X0380133Y0314734D01*
X0366570Y0336397D02*
X0366570Y0344143D01*
X0362633Y0348080D01*
X0325133Y0348080D01*
X0318883Y0354330D01*
X0316383Y0356830D02*
X0316383Y0359330D01*
X0318883Y0361830D01*
X0316383Y0356830D02*
X0313883Y0354330D01*
X0310704Y0354330D01*
X0310704Y0349330D02*
X0310704Y0317509D01*
X0316383Y0320580D02*
X0316570Y0320767D01*
X0316570Y0336397D01*
X0321383Y0336210D02*
X0321570Y0336397D01*
X0321383Y0336210D02*
X0321383Y0328080D01*
X0326570Y0320767D02*
X0326383Y0320580D01*
X0326570Y0320767D02*
X0326570Y0336397D01*
X0331383Y0336210D02*
X0331570Y0336397D01*
X0331383Y0336210D02*
X0331383Y0328080D01*
X0336383Y0330580D02*
X0336383Y0336210D01*
X0336570Y0336397D01*
X0341383Y0336210D02*
X0341383Y0333080D01*
X0346383Y0328080D01*
X0346383Y0324330D01*
X0350133Y0329330D02*
X0350133Y0316830D01*
X0350133Y0329330D02*
X0346570Y0332893D01*
X0346570Y0336397D01*
X0341570Y0336397D02*
X0341383Y0336210D01*
X0336383Y0330580D02*
X0340133Y0326830D01*
X0323883Y0343080D02*
X0318883Y0348080D01*
X0323883Y0343080D02*
X0360133Y0343080D01*
X0361570Y0341643D01*
X0361570Y0336397D01*
X0376383Y0345580D02*
X0376383Y0383080D01*
X0366383Y0393080D01*
X0366383Y0407076D01*
X0366570Y0407263D01*
X0362633Y0408326D02*
X0361570Y0407263D01*
X0362633Y0408326D02*
X0362633Y0416830D01*
X0357633Y0414330D02*
X0357633Y0408326D01*
X0356570Y0407263D01*
X0352633Y0408326D02*
X0351570Y0407263D01*
X0352633Y0408326D02*
X0352633Y0416830D01*
X0346570Y0424596D02*
X0346570Y0407263D01*
X0341570Y0407263D02*
X0341570Y0421722D01*
X0337712Y0425580D01*
X0337712Y0434192D01*
X0337633Y0434271D01*
X0337633Y0439330D02*
X0337633Y0445580D01*
X0337633Y0439389D02*
X0347633Y0439389D01*
X0373824Y0439389D01*
X0373883Y0439330D01*
X0337633Y0439330D01*
X0347555Y0434192D02*
X0347555Y0425580D01*
X0346570Y0424596D01*
X0347555Y0434192D02*
X0347633Y0434271D01*
X0332633Y0420580D02*
X0336383Y0416830D01*
X0336383Y0407450D01*
X0336570Y0407263D01*
X0336383Y0407076D01*
X0336383Y0395580D01*
X0342633Y0389330D01*
X0362633Y0389330D01*
X0371383Y0380580D01*
X0371383Y0351830D01*
X0381383Y0374330D02*
X0381383Y0418080D01*
X0380133Y0419330D01*
X0380133Y0429635D01*
X0379828Y0429330D01*
X0379828Y0418080D01*
X0381570Y0416338D01*
X0381570Y0407263D01*
X0376570Y0407263D02*
X0376570Y0411643D01*
X0376383Y0411830D01*
X0373883Y0414330D01*
X0373883Y0417135D01*
X0373883Y0418080D01*
X0372633Y0419330D01*
X0372633Y0429330D01*
X0372938Y0429330D02*
X0372938Y0418080D01*
X0373883Y0417135D01*
X0376383Y0411830D02*
X0376383Y0407450D01*
X0376570Y0407263D01*
X0371570Y0407263D02*
X0371383Y0407076D01*
X0371383Y0399330D01*
X0380133Y0429635D02*
X0380133Y0433080D01*
X0373883Y0439330D01*
X0332633Y0450580D02*
X0332633Y0420580D01*
X0327633Y0416830D02*
X0331570Y0412893D01*
X0331570Y0407263D01*
X0321570Y0407263D02*
X0321383Y0407450D01*
X0321383Y0424330D01*
X0316383Y0416830D02*
X0316383Y0407450D01*
X0316570Y0407263D01*
X0310704Y0394330D02*
X0328755Y0394330D01*
X0351255Y0371830D01*
X0327633Y0416830D02*
X0327633Y0448080D01*
X0308883Y0466830D01*
X0221383Y0466830D01*
X0192633Y0438080D01*
X0192633Y0359330D01*
X0186196Y0352893D01*
X0170143Y0352893D01*
X0187633Y0365580D02*
X0187633Y0439330D01*
X0218883Y0470580D01*
X0312633Y0470580D01*
X0332633Y0450580D01*
X0320133Y0445580D02*
X0311383Y0445580D01*
X0298883Y0433080D01*
X0298883Y0396830D01*
X0246383Y0316830D02*
X0241383Y0311830D01*
X0241383Y0276830D01*
X0243883Y0274330D01*
X0252633Y0274330D01*
X0257633Y0269330D01*
X0257633Y0260580D01*
X0262633Y0264330D02*
X0262633Y0277780D01*
X0267633Y0277780D02*
X0267633Y0271830D01*
X0288883Y0250580D01*
X0295133Y0256830D02*
X0288883Y0263080D01*
X0288883Y0272234D01*
X0288883Y0263080D02*
X0277633Y0274330D01*
X0277633Y0277780D01*
X0277633Y0283080D01*
X0276383Y0284330D01*
X0261383Y0284330D01*
X0257633Y0280580D01*
X0252633Y0280580D01*
X0251383Y0281830D01*
X0251383Y0287135D01*
X0257633Y0286830D02*
X0267633Y0296830D01*
X0267633Y0303380D01*
X0262633Y0303380D02*
X0262333Y0303080D01*
X0256383Y0303080D01*
X0251383Y0298080D01*
X0251383Y0294025D01*
X0233883Y0311830D02*
X0233883Y0273080D01*
X0237633Y0269330D01*
X0248883Y0269330D01*
X0250133Y0268080D01*
X0250133Y0260580D01*
X0251383Y0254330D02*
X0252633Y0253080D01*
X0272633Y0271830D02*
X0272633Y0277780D01*
X0272633Y0271830D02*
X0275133Y0269330D01*
X0295133Y0256830D02*
X0295133Y0243080D01*
X0296383Y0241830D01*
X0296383Y0226830D02*
X0118883Y0226830D01*
X0165133Y0246830D02*
X0168883Y0243080D01*
X0171383Y0245580D01*
X0171383Y0246830D01*
X0165133Y0246830D02*
X0165133Y0248080D01*
X0192633Y0268080D02*
X0192633Y0280580D01*
X0187633Y0285580D01*
X0176383Y0285580D01*
X0192633Y0268080D02*
X0197633Y0263080D01*
X0201383Y0263080D01*
X0233883Y0311830D02*
X0237633Y0315580D01*
X0310133Y0226830D02*
X0314818Y0222145D01*
X0318883Y0222145D01*
X0318883Y0230019D02*
X0321944Y0230019D01*
X0327633Y0224330D01*
X0336383Y0233080D02*
X0338883Y0230580D01*
X0338883Y0195580D01*
X0335133Y0191830D01*
X0335133Y0188080D01*
X0341383Y0181830D01*
X0341383Y0179173D01*
X0342505Y0178051D01*
X0342633Y0177923D01*
X0346383Y0186830D02*
X0348883Y0189330D01*
X0348883Y0200580D01*
X0363883Y0200580D01*
X0366383Y0198080D01*
X0366383Y0193080D01*
X0373883Y0185580D01*
X0373883Y0178169D01*
X0374001Y0178051D01*
X0366383Y0178307D02*
X0366383Y0185580D01*
X0366383Y0178307D02*
X0366127Y0178051D01*
X0366127Y0170836D01*
X0367633Y0169330D01*
X0360133Y0169330D02*
X0360133Y0158080D01*
X0350133Y0156830D02*
X0350133Y0168080D01*
X0350379Y0169330D01*
X0350379Y0173080D01*
X0346629Y0169330D01*
X0342633Y0169330D01*
X0350379Y0173080D02*
X0350379Y0178051D01*
X0350133Y0178297D01*
X0350133Y0185580D01*
X0355133Y0190580D01*
X0360133Y0186830D02*
X0360133Y0184330D01*
X0358883Y0183080D01*
X0358883Y0178681D01*
X0358253Y0178051D01*
X0358253Y0171210D01*
X0360133Y0169330D01*
X0350133Y0156830D02*
X0346383Y0153080D01*
X0337230Y0153080D01*
X0336383Y0153927D01*
X0334730Y0161830D02*
X0334631Y0165679D01*
X0334631Y0178051D01*
X0328883Y0178080D02*
X0326383Y0178080D01*
X0326383Y0185580D01*
X0330133Y0185580D01*
X0331383Y0193080D01*
X0331383Y0198080D01*
X0332633Y0199330D01*
X0327633Y0193080D02*
X0325133Y0190580D01*
X0318952Y0190580D01*
X0318883Y0190649D01*
X0327633Y0193080D02*
X0327633Y0206830D01*
X0342633Y0200580D02*
X0342633Y0190580D01*
X0340133Y0188080D01*
X0342633Y0200580D02*
X0346383Y0204330D01*
X0365133Y0204330D01*
X0373883Y0195580D01*
X0373883Y0194330D01*
X0381875Y0186338D01*
X0381875Y0178051D01*
X0377633Y0221830D02*
X0353883Y0221830D01*
X0347633Y0224330D02*
X0356383Y0233080D01*
X0373883Y0233080D01*
X0373883Y0230580D01*
X0375133Y0229330D01*
X0373883Y0233080D02*
X0373883Y0241948D01*
X0373883Y0250580D01*
X0371383Y0253080D01*
X0371383Y0255984D01*
X0371383Y0262677D02*
X0371383Y0265580D01*
X0372633Y0266830D01*
X0372633Y0271830D01*
X0365133Y0270984D02*
X0365133Y0242824D01*
X0366127Y0241830D01*
X0360133Y0243710D02*
X0360133Y0251830D01*
X0352633Y0251830D02*
X0352633Y0262234D01*
X0352633Y0251830D02*
X0350133Y0249330D01*
X0350133Y0242076D01*
X0350379Y0241830D01*
X0358253Y0241830D02*
X0360133Y0243710D01*
X0373883Y0241948D02*
X0374001Y0241830D01*
X0374001Y0233198D01*
X0373883Y0233080D01*
X0381875Y0226072D02*
X0377633Y0221830D01*
X0381875Y0226072D02*
X0381875Y0241830D01*
X0382633Y0242588D01*
X0382633Y0255580D01*
X0380133Y0258080D01*
X0380133Y0270984D01*
X0334631Y0251082D02*
X0334631Y0241830D01*
X0334631Y0251082D02*
X0333883Y0251830D01*
X0328539Y0178425D02*
X0326383Y0178425D01*
X0326757Y0178051D02*
X0328037Y0176771D01*
X0328037Y0161830D01*
X0321383Y0148080D02*
X0321383Y0136161D01*
X0325123Y0129320D02*
X0325123Y0127499D01*
X0325123Y0129320D02*
X0328883Y0133080D01*
X0328883Y0139330D01*
X0291383Y0166830D02*
X0287633Y0166830D01*
X0285852Y0165049D01*
X0285852Y0161673D01*
X0272633Y0136830D02*
X0268037Y0136830D01*
X0266383Y0138484D01*
D42*
X0272633Y0136830D03*
X0281383Y0136830D03*
X0285133Y0120580D03*
X0298883Y0140580D03*
X0321383Y0148080D03*
X0328883Y0139330D03*
X0346383Y0128080D03*
X0360133Y0158080D03*
X0373883Y0158080D03*
X0373883Y0185580D03*
X0366383Y0185580D03*
X0360133Y0186830D03*
X0355133Y0190580D03*
X0346383Y0186830D03*
X0340133Y0188080D03*
X0332633Y0199330D03*
X0327633Y0206830D03*
X0327633Y0224330D03*
X0330133Y0231830D03*
X0336383Y0233080D03*
X0347633Y0224330D03*
X0353883Y0221830D03*
X0375133Y0229330D03*
X0358883Y0266830D03*
X0352633Y0278080D03*
X0351383Y0289330D03*
X0342633Y0291830D03*
X0351383Y0300580D03*
X0357633Y0306830D03*
X0365133Y0306830D03*
X0380133Y0308080D03*
X0383883Y0295580D03*
X0372633Y0288080D03*
X0365133Y0284330D03*
X0372633Y0271830D03*
X0337633Y0266830D03*
X0325133Y0281830D03*
X0312633Y0278080D03*
X0305133Y0269330D03*
X0300133Y0279330D03*
X0293883Y0285580D03*
X0275133Y0269330D03*
X0262633Y0264330D03*
X0257633Y0260580D03*
X0250133Y0260580D03*
X0257633Y0286830D03*
X0237633Y0315580D03*
X0246383Y0316830D03*
X0282633Y0324330D03*
X0300133Y0311830D03*
X0326383Y0304330D03*
X0341383Y0314330D03*
X0346383Y0324330D03*
X0340133Y0326830D03*
X0318883Y0348080D03*
X0318883Y0354330D03*
X0318883Y0361830D03*
X0371383Y0351830D03*
X0376383Y0345580D03*
X0371383Y0399330D03*
X0360133Y0426830D03*
X0355133Y0433080D03*
X0365133Y0433080D03*
X0337633Y0445580D03*
X0320133Y0445580D03*
X0203883Y0291830D03*
X0185133Y0296830D03*
X0176383Y0285580D03*
X0201383Y0263080D03*
X0193883Y0249330D03*
X0187633Y0249330D03*
X0187633Y0241830D03*
X0181383Y0241830D03*
X0181383Y0249330D03*
X0172633Y0248080D03*
X0168883Y0243080D03*
X0165133Y0248080D03*
X0148883Y0235580D03*
X0145133Y0241830D03*
X0131383Y0216830D03*
X0126383Y0213080D03*
X0162633Y0201830D03*
X0193883Y0195580D03*
X0193883Y0164330D03*
X0221383Y0145580D03*
X0235268Y0141830D03*
X0241383Y0138080D03*
X0246383Y0138080D03*
X0251383Y0138080D03*
X0256383Y0138080D03*
X0260133Y0145580D03*
X0260133Y0155580D03*
X0263883Y0159330D03*
X0271477Y0168174D03*
X0277633Y0169330D03*
X0291383Y0166830D03*
X0306383Y0175580D03*
X0311383Y0180580D03*
X0298883Y0189330D03*
X0290133Y0191830D03*
X0282633Y0201830D03*
X0272633Y0191830D03*
X0245133Y0183080D03*
X0240133Y0175580D03*
X0233883Y0175580D03*
X0228883Y0195580D03*
X0241383Y0214330D03*
X0287633Y0220580D03*
X0295133Y0220580D03*
X0302633Y0220580D03*
X0310133Y0226830D03*
X0311383Y0241830D03*
X0318883Y0261830D03*
X0288883Y0250580D03*
X0342633Y0169330D03*
X0251383Y0151830D03*
X0213883Y0113080D03*
X0202633Y0123080D03*
X0202633Y0130580D03*
X0192633Y0130580D03*
X0192633Y0123080D03*
X0182633Y0123080D03*
X0182633Y0130580D03*
X0161383Y0141830D03*
X0132633Y0148080D03*
X0111383Y0153080D03*
X0160133Y0320580D03*
X0166383Y0325580D03*
X0172633Y0320580D03*
X0160133Y0329330D03*
X0170133Y0336830D03*
X0170133Y0341830D03*
X0185133Y0356830D03*
X0178883Y0363080D03*
X0176383Y0369330D03*
X0170133Y0369330D03*
X0167633Y0375580D03*
X0173883Y0375580D03*
X0180133Y0375580D03*
X0155133Y0346830D03*
X0139070Y0352893D03*
X0133883Y0389330D03*
X0145133Y0400580D03*
X0151383Y0408080D03*
X0151383Y0416830D03*
X0137633Y0416830D03*
X0137633Y0408080D03*
D43*
X0283883Y0151830D03*
D44*
X0255133Y0138080D02*
X0251383Y0138080D01*
X0246383Y0138080D01*
X0241383Y0138080D01*
X0240728Y0138080D01*
X0238211Y0135564D01*
X0228883Y0195580D02*
X0222633Y0201830D01*
X0162633Y0201830D01*
X0136797Y0240167D02*
X0133883Y0240167D01*
X0136787Y0141830D02*
X0161383Y0141830D01*
X0355133Y0321427D02*
X0356570Y0322864D01*
X0356570Y0336397D01*
X0371570Y0336397D02*
X0371570Y0321614D01*
X0371383Y0321427D01*
D45*
X0326757Y0178051D02*
X0322604Y0178051D01*
X0308883Y0164330D01*
X0308883Y0140580D01*
X0308883Y0114330D01*
X0306383Y0111830D01*
X0266383Y0111830D01*
X0265133Y0113080D01*
X0263883Y0114330D01*
X0263883Y0120580D01*
X0263883Y0129330D01*
X0255133Y0138080D01*
X0207633Y0128080D02*
X0195133Y0128080D01*
X0193883Y0128080D01*
X0190133Y0128080D01*
D46*
X0181383Y0127799D02*
X0203883Y0127799D01*
X0203883Y0128797D02*
X0181383Y0128797D01*
X0181383Y0129796D02*
X0203883Y0129796D01*
X0203883Y0130794D02*
X0181383Y0130794D01*
X0181383Y0131793D02*
X0203883Y0131793D01*
X0203883Y0131830D02*
X0203883Y0121830D01*
X0181383Y0121830D01*
X0181383Y0131830D01*
X0203883Y0131830D01*
X0203883Y0126800D02*
X0181383Y0126800D01*
X0181383Y0125802D02*
X0203883Y0125802D01*
X0203883Y0124803D02*
X0181383Y0124803D01*
X0181383Y0123805D02*
X0203883Y0123805D01*
X0203883Y0122806D02*
X0181383Y0122806D01*
X0233883Y0166830D02*
X0233883Y0175580D01*
X0233883Y0166830D02*
X0248883Y0166830D01*
X0260133Y0155580D01*
X0260133Y0145580D02*
X0265980Y0145580D01*
X0266383Y0145177D01*
X0273293Y0145177D01*
X0274041Y0145925D01*
X0274041Y0147893D01*
X0258883Y0140580D02*
X0258883Y0133080D01*
X0238883Y0133080D01*
X0238883Y0143080D01*
X0256383Y0143080D01*
X0258883Y0140580D01*
X0258684Y0140780D02*
X0238883Y0140780D01*
X0238883Y0141778D02*
X0257685Y0141778D01*
X0256687Y0142777D02*
X0238883Y0142777D01*
X0238883Y0139781D02*
X0258883Y0139781D01*
X0258883Y0138783D02*
X0238883Y0138783D01*
X0238883Y0137784D02*
X0258883Y0137784D01*
X0258883Y0136786D02*
X0238883Y0136786D01*
X0238883Y0135787D02*
X0258883Y0135787D01*
X0258883Y0134789D02*
X0238883Y0134789D01*
X0238883Y0133790D02*
X0258883Y0133790D01*
X0255133Y0138080D02*
X0265133Y0128080D01*
X0265133Y0113080D01*
X0253883Y0127677D02*
X0253883Y0128080D01*
X0253300Y0127497D01*
X0244438Y0127497D01*
X0148883Y0235580D02*
X0148883Y0339330D01*
X0151383Y0341830D01*
X0158421Y0341830D01*
X0161909Y0345318D01*
X0161909Y0350564D01*
X0161915Y0350570D01*
X0163883Y0350570D02*
X0163883Y0344330D01*
X0166383Y0341830D01*
X0170133Y0341830D01*
X0167633Y0331830D02*
X0175133Y0324330D01*
X0175133Y0318080D01*
X0158883Y0318080D01*
X0156383Y0320580D01*
X0156383Y0329330D01*
X0158883Y0331830D01*
X0167633Y0331830D01*
X0167968Y0331495D02*
X0158548Y0331495D01*
X0157550Y0330497D02*
X0168967Y0330497D01*
X0169965Y0329498D02*
X0156551Y0329498D01*
X0156383Y0328500D02*
X0170964Y0328500D01*
X0171962Y0327501D02*
X0156383Y0327501D01*
X0156383Y0326503D02*
X0172961Y0326503D01*
X0173959Y0325504D02*
X0156383Y0325504D01*
X0156383Y0324506D02*
X0174958Y0324506D01*
X0175133Y0323507D02*
X0156383Y0323507D01*
X0156383Y0322509D02*
X0175133Y0322509D01*
X0175133Y0321510D02*
X0156383Y0321510D01*
X0156452Y0320512D02*
X0175133Y0320512D01*
X0175133Y0319513D02*
X0157450Y0319513D01*
X0158449Y0318515D02*
X0175133Y0318515D01*
X0185133Y0296830D02*
X0198883Y0296830D01*
X0203883Y0291830D01*
X0201383Y0256830D02*
X0201383Y0255580D01*
X0195133Y0251830D02*
X0195133Y0244330D01*
X0191383Y0240580D01*
X0178883Y0240580D01*
X0178883Y0251830D01*
X0195133Y0251830D01*
X0195133Y0251614D02*
X0178883Y0251614D01*
X0178883Y0250616D02*
X0195133Y0250616D01*
X0195133Y0249617D02*
X0178883Y0249617D01*
X0178883Y0248619D02*
X0195133Y0248619D01*
X0195133Y0247620D02*
X0178883Y0247620D01*
X0178883Y0246622D02*
X0195133Y0246622D01*
X0195133Y0245623D02*
X0178883Y0245623D01*
X0178883Y0244625D02*
X0195133Y0244625D01*
X0194429Y0243626D02*
X0178883Y0243626D01*
X0178883Y0242628D02*
X0193431Y0242628D01*
X0192432Y0241629D02*
X0178883Y0241629D01*
X0178883Y0240631D02*
X0191434Y0240631D01*
X0175133Y0240631D02*
X0160133Y0240631D01*
X0160133Y0240580D02*
X0160133Y0251830D01*
X0175133Y0251830D01*
X0175133Y0240580D01*
X0160133Y0240580D01*
X0160133Y0241629D02*
X0175133Y0241629D01*
X0175133Y0242628D02*
X0160133Y0242628D01*
X0160133Y0243626D02*
X0175133Y0243626D01*
X0175133Y0244625D02*
X0160133Y0244625D01*
X0160133Y0245623D02*
X0175133Y0245623D01*
X0175133Y0246622D02*
X0160133Y0246622D01*
X0160133Y0247620D02*
X0175133Y0247620D01*
X0175133Y0248619D02*
X0160133Y0248619D01*
X0160133Y0249617D02*
X0175133Y0249617D01*
X0175133Y0250616D02*
X0160133Y0250616D01*
X0160133Y0251614D02*
X0175133Y0251614D01*
X0172633Y0249330D02*
X0163883Y0258080D01*
X0172633Y0249330D02*
X0172633Y0248080D01*
X0145133Y0241830D02*
X0145133Y0348372D01*
X0151566Y0354804D01*
X0157566Y0354804D01*
X0157623Y0354862D01*
X0157623Y0352893D02*
X0157623Y0349320D01*
X0155133Y0346830D01*
X0157633Y0349330D01*
X0157633Y0352883D01*
X0157623Y0352893D01*
X0157623Y0358799D02*
X0145547Y0358799D01*
X0144828Y0358080D01*
X0137938Y0358080D02*
X0137938Y0354025D01*
X0139070Y0352893D01*
X0137633Y0354330D01*
X0137633Y0357775D01*
X0137938Y0358080D01*
X0137938Y0365580D01*
X0137938Y0373080D01*
X0129287Y0373080D01*
X0128883Y0373484D01*
X0128883Y0380177D02*
X0130537Y0381830D01*
X0138037Y0381830D01*
X0138037Y0385177D01*
X0133883Y0389330D01*
X0138883Y0396830D02*
X0135133Y0400580D01*
X0135133Y0418080D01*
X0136383Y0419330D01*
X0152633Y0419330D01*
X0153883Y0418080D01*
X0153883Y0400580D01*
X0150133Y0396830D01*
X0138883Y0396830D01*
X0138317Y0397397D02*
X0150700Y0397397D01*
X0151699Y0398396D02*
X0137318Y0398396D01*
X0136320Y0399394D02*
X0152697Y0399394D01*
X0153696Y0400393D02*
X0135321Y0400393D01*
X0135133Y0401391D02*
X0153883Y0401391D01*
X0153883Y0402390D02*
X0135133Y0402390D01*
X0135133Y0403388D02*
X0153883Y0403388D01*
X0153883Y0404387D02*
X0135133Y0404387D01*
X0135133Y0405385D02*
X0153883Y0405385D01*
X0153883Y0406384D02*
X0135133Y0406384D01*
X0135133Y0407382D02*
X0153883Y0407382D01*
X0153883Y0408381D02*
X0135133Y0408381D01*
X0135133Y0409379D02*
X0153883Y0409379D01*
X0153883Y0410378D02*
X0135133Y0410378D01*
X0135133Y0411376D02*
X0153883Y0411376D01*
X0153883Y0412375D02*
X0135133Y0412375D01*
X0135133Y0413373D02*
X0153883Y0413373D01*
X0153883Y0414372D02*
X0135133Y0414372D01*
X0135133Y0415370D02*
X0153883Y0415370D01*
X0153883Y0416369D02*
X0135133Y0416369D01*
X0135133Y0417367D02*
X0153883Y0417367D01*
X0153598Y0418366D02*
X0135419Y0418366D01*
X0166383Y0378080D02*
X0165133Y0376830D01*
X0165133Y0370580D01*
X0167633Y0368080D01*
X0180133Y0368080D01*
X0182633Y0370580D01*
X0182633Y0376830D01*
X0181383Y0378080D01*
X0166383Y0378080D01*
X0165730Y0377427D02*
X0182037Y0377427D01*
X0182633Y0376428D02*
X0165133Y0376428D01*
X0165133Y0375430D02*
X0182633Y0375430D01*
X0182633Y0374431D02*
X0165133Y0374431D01*
X0165133Y0373433D02*
X0182633Y0373433D01*
X0182633Y0372434D02*
X0165133Y0372434D01*
X0165852Y0372549D02*
X0166383Y0373080D01*
X0165852Y0372549D02*
X0165852Y0363090D01*
X0167273Y0368440D02*
X0180493Y0368440D01*
X0181492Y0369439D02*
X0166275Y0369439D01*
X0165276Y0370437D02*
X0182490Y0370437D01*
X0182633Y0371436D02*
X0165133Y0371436D01*
X0157623Y0360767D02*
X0154946Y0360767D01*
X0150133Y0365580D01*
X0144828Y0365580D01*
X0170143Y0358799D02*
X0174602Y0358799D01*
X0178883Y0363080D01*
X0178883Y0359330D02*
X0176383Y0356830D01*
X0170143Y0356830D01*
X0178883Y0359330D02*
X0181383Y0359330D01*
X0187633Y0365580D01*
X0352633Y0425580D02*
X0353883Y0424330D01*
X0366383Y0424330D01*
X0367633Y0425580D01*
X0367633Y0434330D01*
X0366383Y0435580D01*
X0352633Y0435580D01*
X0352633Y0425580D01*
X0352858Y0425355D02*
X0367408Y0425355D01*
X0367633Y0426354D02*
X0352633Y0426354D01*
X0352633Y0427352D02*
X0367633Y0427352D01*
X0367633Y0428351D02*
X0352633Y0428351D01*
X0352633Y0429349D02*
X0367633Y0429349D01*
X0367633Y0430348D02*
X0352633Y0430348D01*
X0352633Y0431346D02*
X0367633Y0431346D01*
X0367633Y0432345D02*
X0352633Y0432345D01*
X0352633Y0433343D02*
X0367633Y0433343D01*
X0367622Y0434342D02*
X0352633Y0434342D01*
X0352633Y0435340D02*
X0366623Y0435340D01*
X0366410Y0424357D02*
X0353857Y0424357D01*
D47*
X0361383Y0429330D02*
X0372633Y0429330D01*
X0310704Y0394330D02*
X0308204Y0396830D01*
X0298883Y0396830D01*
X0243883Y0396830D01*
X0243883Y0390580D01*
X0237766Y0384463D01*
X0237766Y0374989D01*
X0227766Y0374989D02*
X0227766Y0373213D01*
X0227633Y0373080D01*
X0227633Y0374330D01*
X0227633Y0385580D01*
X0223883Y0389330D01*
X0223883Y0419950D01*
X0222003Y0421830D01*
X0243263Y0421830D02*
X0243883Y0421210D01*
X0243883Y0396830D01*
X0180133Y0375580D02*
X0177633Y0373080D01*
X0166383Y0373080D01*
X0145133Y0373080D01*
X0145133Y0365885D01*
X0144828Y0365580D01*
X0144828Y0373080D02*
X0145133Y0373080D01*
X0144828Y0373080D02*
X0144730Y0373179D01*
X0144730Y0381830D01*
X0144730Y0400177D01*
X0145133Y0400580D01*
X0166383Y0325580D02*
X0166383Y0258710D01*
X0165753Y0258080D01*
X0165753Y0254960D01*
X0172633Y0248080D01*
X0181383Y0249330D02*
X0187013Y0254960D01*
X0187013Y0258080D01*
X0165753Y0258080D02*
X0163883Y0258080D01*
X0153883Y0258080D01*
X0136797Y0240167D02*
X0119720Y0240167D01*
X0101383Y0221830D01*
X0101383Y0163080D01*
X0111383Y0153080D01*
X0193883Y0164330D02*
X0193883Y0195580D01*
X0243883Y0128080D02*
X0253883Y0128080D01*
D48*
X0192633Y0233080D02*
X0171383Y0233080D01*
X0171383Y0246830D01*
X0172633Y0248080D01*
X0181383Y0249330D02*
X0181383Y0250580D01*
X0187013Y0254960D01*
X0188883Y0256830D01*
X0201383Y0256830D01*
X0205133Y0256830D01*
X0210133Y0261830D01*
X0210133Y0316830D01*
X0210133Y0318700D01*
X0224198Y0332765D01*
X0243263Y0351830D01*
X0237766Y0357327D01*
X0237766Y0374989D01*
X0227766Y0374989D02*
X0227766Y0357593D01*
X0222003Y0351830D01*
X0227633Y0357460D01*
X0227633Y0374330D01*
X0222003Y0421830D02*
X0227764Y0427591D01*
X0227764Y0445724D01*
X0237764Y0445724D02*
X0237764Y0427330D01*
X0243263Y0421830D01*
X0252633Y0253080D02*
X0212633Y0253080D01*
X0192633Y0233080D01*
X0252633Y0253080D02*
X0273883Y0253080D01*
X0285133Y0241830D01*
X0296383Y0241830D01*
X0305133Y0250580D01*
X0321383Y0250580D01*
X0322008Y0249955D01*
X0326383Y0245580D01*
X0326383Y0242204D01*
X0326757Y0241830D01*
D49*
X0225133Y0135580D02*
X0215133Y0135580D01*
X0212633Y0133080D01*
X0207633Y0128080D01*
D50*
X0251383Y0200580D03*
D51*
X0235268Y0141830D02*
X0235268Y0139595D01*
X0229999Y0140580D02*
X0229999Y0137946D01*
D52*
X0229999Y0140580D03*
D53*
X0223365Y0127395D03*
X0242664Y0127212D03*
D54*
X0243625Y0115372D03*
X0222183Y0115240D03*
M02*
