G75*
%MOIN*%
%OFA0B0*%
%FSLAX25Y25*%
%IPPOS*%
%LPD*%
%AMOC8*
5,1,8,0,0,1.08239X$1,22.5*
%
%ADD10R,0.04134X0.04252*%
%ADD11R,0.04252X0.04134*%
%ADD12R,0.06500X0.03937*%
%ADD13R,0.03937X0.04331*%
%ADD14R,0.02362X0.04724*%
%ADD15R,0.04331X0.03937*%
%ADD16R,0.07600X0.21000*%
%ADD17R,0.03543X0.02756*%
%ADD18C,0.07400*%
%ADD19C,0.07400*%
%ADD20R,0.03937X0.05512*%
%ADD21C,0.06000*%
%ADD22R,0.03937X0.07087*%
%ADD23C,0.07677*%
%ADD24R,0.03150X0.01378*%
%ADD25R,0.04724X0.02165*%
%ADD26R,0.08661X0.06299*%
%ADD27C,0.05512*%
%ADD28C,0.03937*%
%ADD29R,0.07087X0.03937*%
%ADD30C,0.03200*%
%ADD31C,0.01200*%
%ADD32C,0.03200*%
%ADD33C,0.02400*%
%ADD34C,0.06600*%
%ADD35C,0.01969*%
%ADD36C,0.01600*%
%ADD37C,0.01000*%
%ADD38C,0.05000*%
%ADD39C,0.04000*%
%ADD40C,0.00800*%
%ADD41C,0.04724*%
%ADD42C,0.03189*%
%ADD43C,0.03232*%
%ADD44C,0.04356*%
%ADD45C,0.05906*%
D10*
X0172938Y0263080D03*
X0179828Y0263080D03*
X0224188Y0276830D03*
X0231078Y0276830D03*
X0229188Y0388080D03*
X0236078Y0388080D03*
X0236078Y0456830D03*
X0229188Y0456830D03*
X0108578Y0335580D03*
X0101688Y0335580D03*
X0247938Y0159330D03*
X0254828Y0159330D03*
X0337938Y0193080D03*
X0344828Y0193080D03*
D11*
X0337633Y0202135D03*
X0337633Y0209025D03*
X0335133Y0219635D03*
X0335133Y0226525D03*
X0342633Y0226525D03*
X0342633Y0219635D03*
X0242633Y0207775D03*
X0242633Y0200885D03*
X0233883Y0200885D03*
X0233883Y0207775D03*
X0223883Y0207775D03*
X0223883Y0200885D03*
X0215133Y0200885D03*
X0215133Y0207775D03*
X0188883Y0269635D03*
X0188883Y0276525D03*
X0135133Y0313385D03*
X0135133Y0320275D03*
X0100133Y0320885D03*
X0100133Y0327775D03*
X0153883Y0199025D03*
X0153883Y0192135D03*
D12*
X0222488Y0285531D03*
X0222488Y0298129D03*
X0242779Y0298129D03*
X0242779Y0285531D03*
D13*
X0325537Y0349330D03*
X0332230Y0349330D03*
X0332230Y0359330D03*
X0325537Y0359330D03*
X0343037Y0236830D03*
X0349730Y0236830D03*
X0360537Y0225580D03*
X0367230Y0225580D03*
X0367230Y0215580D03*
X0360537Y0215580D03*
X0269730Y0184330D03*
X0263037Y0184330D03*
X0263037Y0174330D03*
X0269730Y0174330D03*
X0243480Y0151830D03*
X0236787Y0151830D03*
X0227230Y0151830D03*
X0220537Y0151830D03*
X0144730Y0218080D03*
X0138037Y0218080D03*
X0115980Y0250580D03*
X0109287Y0250580D03*
X0129287Y0304330D03*
X0135980Y0304330D03*
X0125980Y0326830D03*
X0119287Y0326830D03*
X0108480Y0345580D03*
X0101787Y0345580D03*
D14*
X0128883Y0206604D03*
X0133883Y0206604D03*
X0138883Y0206604D03*
X0143883Y0206604D03*
X0143883Y0184557D03*
X0138883Y0184557D03*
X0133883Y0184557D03*
X0128883Y0184557D03*
X0220133Y0189104D03*
X0225133Y0189104D03*
X0230133Y0189104D03*
X0235133Y0189104D03*
X0240133Y0189104D03*
X0245133Y0189104D03*
X0250133Y0189104D03*
X0255133Y0189104D03*
X0255133Y0167057D03*
X0250133Y0167057D03*
X0245133Y0167057D03*
X0240133Y0167057D03*
X0235133Y0167057D03*
X0230133Y0167057D03*
X0225133Y0167057D03*
X0220133Y0167057D03*
D15*
X0227633Y0158927D03*
X0227633Y0152234D03*
X0236383Y0152234D03*
X0236383Y0158927D03*
X0221383Y0260984D03*
X0221383Y0267677D03*
X0196383Y0269734D03*
X0196383Y0276427D03*
X0222633Y0307234D03*
X0222633Y0313927D03*
X0232633Y0403484D03*
X0232633Y0410177D03*
X0341383Y0353927D03*
X0341383Y0347234D03*
X0346383Y0208927D03*
X0346383Y0202234D03*
X0370133Y0200177D03*
X0370133Y0193484D03*
X0380133Y0193484D03*
X0380133Y0200177D03*
X0120133Y0300984D03*
X0120133Y0307677D03*
X0110133Y0308484D03*
X0110133Y0315177D03*
X0110133Y0320984D03*
X0110133Y0327677D03*
X0110133Y0268927D03*
X0110133Y0262234D03*
D16*
X0202633Y0183330D03*
X0202633Y0145330D03*
D17*
X0187633Y0145521D03*
X0187633Y0150639D03*
X0187633Y0178021D03*
X0187633Y0183139D03*
D18*
X0215133Y0234380D02*
X0215133Y0241780D01*
X0225133Y0241780D02*
X0225133Y0234380D01*
X0235133Y0234380D02*
X0235133Y0241780D01*
X0245133Y0241780D02*
X0245133Y0234380D01*
X0255133Y0234380D02*
X0255133Y0241780D01*
X0265133Y0241780D02*
X0265133Y0234380D01*
D19*
X0135429Y0285580D03*
X0109838Y0285580D03*
D20*
X0120133Y0269911D03*
X0116393Y0261249D03*
X0123873Y0261249D03*
X0228893Y0261249D03*
X0236373Y0261249D03*
X0232633Y0269911D03*
X0258893Y0201161D03*
X0262633Y0192499D03*
X0266373Y0201161D03*
D21*
X0159415Y0122820D02*
X0159415Y0116820D01*
X0149415Y0116820D02*
X0149415Y0122820D01*
X0217766Y0371989D02*
X0217766Y0377989D01*
X0227766Y0377989D02*
X0227766Y0371989D01*
X0237766Y0371989D02*
X0237766Y0377989D01*
X0247766Y0377989D02*
X0247766Y0371989D01*
X0247764Y0442724D02*
X0247764Y0448724D01*
X0237764Y0448724D02*
X0237764Y0442724D01*
X0227764Y0442724D02*
X0227764Y0448724D01*
X0217764Y0448724D02*
X0217764Y0442724D01*
D22*
X0148805Y0173080D03*
X0138962Y0173080D03*
D23*
X0133883Y0161427D03*
X0133883Y0240167D03*
D24*
X0125980Y0314271D03*
X0125980Y0319389D03*
X0119287Y0319389D03*
X0119287Y0316830D03*
X0119287Y0314271D03*
D25*
X0171265Y0276820D03*
X0171265Y0269340D03*
X0181502Y0269340D03*
X0181502Y0273080D03*
X0181502Y0276820D03*
D26*
X0158883Y0278592D03*
X0158883Y0267568D03*
D27*
X0222267Y0117828D02*
X0222267Y0115072D01*
X0243763Y0115072D02*
X0243763Y0117828D01*
D28*
X0242588Y0126591D02*
X0242588Y0127773D01*
X0242588Y0126591D02*
X0242588Y0126591D01*
X0242588Y0127773D01*
X0242588Y0127773D01*
X0223454Y0127773D02*
X0223454Y0126591D01*
X0223454Y0126591D01*
X0223454Y0127773D01*
X0223454Y0127773D01*
D29*
X0202633Y0159409D03*
X0202633Y0169251D03*
D30*
X0193883Y0164330D03*
X0193883Y0195580D03*
X0162633Y0201830D03*
X0148883Y0235580D03*
X0145133Y0241830D03*
X0165133Y0248080D03*
X0168883Y0243080D03*
X0172633Y0248080D03*
X0181383Y0249330D03*
X0181383Y0241830D03*
X0187633Y0241830D03*
X0187633Y0249330D03*
X0193883Y0249330D03*
X0201383Y0263080D03*
X0203883Y0291830D03*
X0185133Y0296830D03*
X0176383Y0285580D03*
X0172633Y0320580D03*
X0166383Y0325580D03*
X0160133Y0329330D03*
X0160133Y0320580D03*
X0170133Y0336830D03*
X0170133Y0341830D03*
X0185133Y0356830D03*
X0178883Y0363080D03*
X0176383Y0369330D03*
X0170133Y0369330D03*
X0167633Y0375580D03*
X0173883Y0375580D03*
X0180133Y0375580D03*
X0155133Y0346830D03*
X0139070Y0352893D03*
X0133883Y0389330D03*
X0145133Y0400580D03*
X0151383Y0408080D03*
X0151383Y0416830D03*
X0137633Y0416830D03*
X0137633Y0408080D03*
X0237633Y0315580D03*
X0246383Y0316830D03*
X0257633Y0286830D03*
X0262633Y0264330D03*
X0257633Y0260580D03*
X0250133Y0260580D03*
X0275133Y0269330D03*
X0288883Y0250580D03*
X0305133Y0269330D03*
X0300133Y0279330D03*
X0293883Y0285580D03*
X0312633Y0278080D03*
X0325133Y0281830D03*
X0337633Y0266830D03*
X0352633Y0278080D03*
X0358883Y0266830D03*
X0372633Y0271830D03*
X0365133Y0284330D03*
X0372633Y0288080D03*
X0383883Y0295580D03*
X0380133Y0308080D03*
X0365133Y0306830D03*
X0357633Y0306830D03*
X0351383Y0300580D03*
X0351383Y0289330D03*
X0342633Y0291830D03*
X0326383Y0304330D03*
X0341383Y0314330D03*
X0346383Y0324330D03*
X0340133Y0326830D03*
X0318883Y0348080D03*
X0318883Y0354330D03*
X0318883Y0361830D03*
X0282633Y0324330D03*
X0300133Y0311830D03*
X0318883Y0261830D03*
X0311383Y0241830D03*
X0310133Y0226830D03*
X0302633Y0220580D03*
X0295133Y0220580D03*
X0287633Y0220580D03*
X0282633Y0201830D03*
X0290133Y0191830D03*
X0298883Y0189330D03*
X0311383Y0180580D03*
X0306383Y0175580D03*
X0291383Y0166830D03*
X0277633Y0169330D03*
X0271477Y0168174D03*
X0263883Y0159330D03*
X0260133Y0155580D03*
X0251383Y0151830D03*
X0260133Y0145580D03*
X0256383Y0138080D03*
X0251383Y0138080D03*
X0246383Y0138080D03*
X0241383Y0138080D03*
X0235268Y0141830D03*
X0221383Y0145580D03*
X0202633Y0130580D03*
X0202633Y0123080D03*
X0192633Y0123080D03*
X0192633Y0130580D03*
X0182633Y0130580D03*
X0182633Y0123080D03*
X0161383Y0141830D03*
X0132633Y0148080D03*
X0111383Y0153080D03*
X0126383Y0213080D03*
X0131383Y0216830D03*
X0213883Y0113080D03*
X0233883Y0175580D03*
X0240133Y0175580D03*
X0245133Y0183080D03*
X0228883Y0195580D03*
X0241383Y0214330D03*
X0272633Y0191830D03*
X0298883Y0140580D03*
X0285133Y0120580D03*
X0281383Y0136830D03*
X0272633Y0136830D03*
X0321383Y0148080D03*
X0328883Y0139330D03*
X0346383Y0128080D03*
X0360133Y0158080D03*
X0373883Y0158080D03*
X0373883Y0185580D03*
X0366383Y0185580D03*
X0360133Y0186830D03*
X0355133Y0190580D03*
X0346383Y0186830D03*
X0340133Y0188080D03*
X0332633Y0199330D03*
X0327633Y0206830D03*
X0327633Y0224330D03*
X0330133Y0231830D03*
X0336383Y0233080D03*
X0347633Y0224330D03*
X0353883Y0221830D03*
X0375133Y0229330D03*
X0342633Y0169330D03*
X0376383Y0345580D03*
X0371383Y0351830D03*
X0371383Y0399330D03*
X0360133Y0426830D03*
X0355133Y0433080D03*
X0365133Y0433080D03*
X0337633Y0445580D03*
X0320133Y0445580D03*
D31*
X0337633Y0445580D01*
X0371383Y0399330D02*
X0385133Y0385580D01*
X0385133Y0296830D01*
X0383883Y0295580D01*
X0381383Y0291830D02*
X0377633Y0295580D01*
X0380133Y0298080D01*
X0380133Y0308080D01*
X0381383Y0309330D01*
X0381383Y0349330D01*
X0371383Y0359330D01*
X0332230Y0359330D01*
X0337633Y0353080D02*
X0340537Y0353080D01*
X0341383Y0353927D01*
X0337633Y0353080D02*
X0333883Y0349330D01*
X0332230Y0349330D01*
X0331383Y0348484D01*
X0331383Y0345580D01*
X0328883Y0343080D01*
X0305133Y0343080D01*
X0300133Y0338080D01*
X0300133Y0311830D01*
X0300133Y0279330D02*
X0300133Y0236830D01*
X0310133Y0226830D01*
X0313883Y0230580D02*
X0305133Y0239330D01*
X0305133Y0269330D01*
X0311383Y0261830D02*
X0311383Y0241830D01*
X0313883Y0230580D02*
X0321383Y0230580D01*
X0327633Y0224330D01*
X0336383Y0233080D02*
X0340133Y0236830D01*
X0343037Y0236830D01*
X0342633Y0237234D01*
X0342633Y0256830D01*
X0337633Y0261830D01*
X0318883Y0261830D01*
X0311383Y0261830D02*
X0321383Y0271830D01*
X0372633Y0271830D01*
X0377633Y0266830D02*
X0373883Y0263080D01*
X0373883Y0230580D01*
X0375133Y0229330D01*
X0381383Y0223080D02*
X0381383Y0291830D01*
X0377633Y0295580D02*
X0257633Y0295580D01*
X0246383Y0306830D01*
X0232633Y0306830D01*
X0230133Y0304330D01*
X0230133Y0294330D01*
X0227633Y0291830D01*
X0203883Y0291830D01*
X0222488Y0285531D02*
X0222488Y0278531D01*
X0224188Y0276830D01*
X0225133Y0275885D01*
X0225133Y0273080D01*
X0228303Y0269911D01*
X0232633Y0269911D01*
X0231078Y0276830D02*
X0231078Y0286429D01*
X0242779Y0298129D01*
X0241383Y0311830D02*
X0237633Y0315580D01*
X0241383Y0311830D02*
X0255133Y0311830D01*
X0291383Y0348080D01*
X0318883Y0348080D01*
X0318883Y0354330D02*
X0286383Y0354330D01*
X0248883Y0316830D01*
X0246383Y0316830D01*
X0257633Y0286830D02*
X0257633Y0270580D01*
X0260133Y0268080D01*
X0266383Y0268080D01*
X0281383Y0253080D01*
X0281383Y0238080D01*
X0295133Y0224330D01*
X0295133Y0220580D01*
X0302633Y0220580D02*
X0302633Y0221830D01*
X0285133Y0239330D01*
X0285133Y0259330D01*
X0275133Y0269330D01*
X0262633Y0264330D02*
X0262633Y0263080D01*
X0275133Y0250580D01*
X0275133Y0233080D01*
X0287633Y0220580D01*
X0282633Y0208080D02*
X0275133Y0215580D01*
X0260133Y0215580D01*
X0255133Y0220580D01*
X0255133Y0238080D01*
X0255133Y0246830D01*
X0257633Y0249330D01*
X0257633Y0260580D01*
X0250133Y0260580D02*
X0250133Y0249330D01*
X0245133Y0244330D01*
X0245133Y0238080D01*
X0245133Y0226830D01*
X0248883Y0223080D01*
X0248883Y0209330D01*
X0251383Y0206830D01*
X0276383Y0206830D01*
X0277633Y0205580D01*
X0277633Y0191830D01*
X0290133Y0191830D01*
X0290133Y0190580D01*
X0296383Y0184330D01*
X0343883Y0184330D01*
X0346383Y0186830D01*
X0340133Y0188080D02*
X0328883Y0188080D01*
X0326383Y0190580D01*
X0298883Y0190580D01*
X0298883Y0189330D01*
X0301383Y0180580D02*
X0301383Y0166830D01*
X0316383Y0150580D01*
X0316383Y0144330D01*
X0348883Y0144330D01*
X0360133Y0158080D01*
X0350133Y0155580D02*
X0350133Y0193080D01*
X0353883Y0196830D01*
X0353883Y0221830D01*
X0360133Y0225580D02*
X0360133Y0215984D01*
X0360537Y0215580D01*
X0360537Y0225580D01*
X0360133Y0225580D02*
X0355133Y0230580D01*
X0350133Y0230580D01*
X0350133Y0236427D01*
X0349730Y0236830D01*
X0350133Y0230580D02*
X0346383Y0230580D01*
X0342633Y0226830D01*
X0342633Y0226525D01*
X0347633Y0224330D02*
X0347633Y0210177D01*
X0346383Y0208927D01*
X0346285Y0209025D01*
X0337633Y0209025D01*
X0337633Y0202135D02*
X0337938Y0201830D01*
X0337938Y0193080D01*
X0344828Y0193080D02*
X0350133Y0193080D01*
X0355133Y0190580D02*
X0357633Y0193080D01*
X0357633Y0208080D01*
X0358883Y0209330D01*
X0363883Y0209330D01*
X0367230Y0212677D01*
X0367230Y0215580D01*
X0363883Y0218927D01*
X0367230Y0225580D02*
X0367230Y0258484D01*
X0358883Y0266830D01*
X0352633Y0278080D02*
X0312633Y0278080D01*
X0325133Y0281830D02*
X0350133Y0281830D01*
X0352633Y0284330D01*
X0365133Y0284330D01*
X0372633Y0288080D02*
X0377633Y0283080D01*
X0377633Y0266830D01*
X0363883Y0240580D02*
X0337633Y0266830D01*
X0341383Y0306830D02*
X0335133Y0313080D01*
X0335133Y0315580D01*
X0338883Y0319330D01*
X0341383Y0319330D01*
X0346383Y0324330D01*
X0340133Y0326830D02*
X0336383Y0330580D01*
X0336383Y0343080D01*
X0340537Y0347234D01*
X0341383Y0347234D01*
X0356383Y0346830D02*
X0361383Y0351830D01*
X0371383Y0351830D01*
X0376383Y0345580D02*
X0365133Y0334330D01*
X0365133Y0306830D01*
X0357633Y0306830D02*
X0341383Y0306830D01*
X0341383Y0314330D02*
X0346383Y0314330D01*
X0356383Y0324330D01*
X0356383Y0346830D01*
X0325537Y0349330D02*
X0325537Y0359330D01*
X0321383Y0359330D01*
X0318883Y0361830D01*
X0236373Y0261249D02*
X0236373Y0258070D01*
X0233883Y0255580D01*
X0223883Y0255580D01*
X0221383Y0258080D01*
X0221383Y0260984D01*
X0221383Y0267677D02*
X0210537Y0267677D01*
X0210133Y0268080D01*
X0201383Y0263080D02*
X0196383Y0268080D01*
X0196383Y0269734D01*
X0181502Y0269340D02*
X0181492Y0269330D01*
X0177633Y0269330D01*
X0176383Y0270580D01*
X0176383Y0285580D01*
X0185133Y0243080D02*
X0183883Y0241830D01*
X0181383Y0241830D01*
X0140133Y0242262D02*
X0123883Y0242262D01*
X0123883Y0243080D02*
X0125133Y0244330D01*
X0138883Y0244330D01*
X0140133Y0243080D01*
X0140133Y0236830D01*
X0138883Y0235580D01*
X0125133Y0235580D01*
X0123883Y0236830D01*
X0123883Y0243080D01*
X0124264Y0243460D02*
X0139753Y0243460D01*
X0140133Y0241063D02*
X0123883Y0241063D01*
X0123883Y0239865D02*
X0140133Y0239865D01*
X0140133Y0238666D02*
X0123883Y0238666D01*
X0123883Y0237468D02*
X0140133Y0237468D01*
X0139573Y0236269D02*
X0124444Y0236269D01*
X0131383Y0216830D02*
X0131383Y0214330D01*
X0133883Y0211830D01*
X0133883Y0206604D01*
X0128883Y0206604D02*
X0128883Y0210580D01*
X0126383Y0213080D01*
X0123883Y0165580D02*
X0142633Y0165580D01*
X0143883Y0164330D01*
X0143883Y0156830D01*
X0142633Y0155580D01*
X0130507Y0155580D01*
X0129786Y0156302D01*
X0128389Y0156880D01*
X0122633Y0156880D01*
X0122633Y0164330D01*
X0123883Y0165580D01*
X0123860Y0165557D02*
X0142656Y0165557D01*
X0143855Y0164359D02*
X0122662Y0164359D01*
X0122633Y0163160D02*
X0143883Y0163160D01*
X0143883Y0161962D02*
X0122633Y0161962D01*
X0122633Y0160763D02*
X0143883Y0160763D01*
X0143883Y0159565D02*
X0122633Y0159565D01*
X0122633Y0158366D02*
X0143883Y0158366D01*
X0143883Y0157168D02*
X0122633Y0157168D01*
X0130118Y0155969D02*
X0143022Y0155969D01*
X0187633Y0164330D02*
X0193883Y0164330D01*
X0220537Y0151830D02*
X0221383Y0150984D01*
X0221383Y0145580D01*
X0217633Y0129630D02*
X0225133Y0129630D01*
X0225133Y0120580D01*
X0226383Y0119330D01*
X0240133Y0119330D01*
X0241383Y0120580D01*
X0241383Y0129330D01*
X0246383Y0129330D01*
X0246383Y0115580D01*
X0243883Y0113080D01*
X0220133Y0113080D01*
X0217633Y0115580D01*
X0217633Y0129630D01*
X0217633Y0129602D02*
X0225133Y0129602D01*
X0225133Y0128403D02*
X0217633Y0128403D01*
X0217633Y0127205D02*
X0225133Y0127205D01*
X0225133Y0126006D02*
X0217633Y0126006D01*
X0217633Y0124808D02*
X0225133Y0124808D01*
X0225133Y0123609D02*
X0217633Y0123609D01*
X0217633Y0122411D02*
X0225133Y0122411D01*
X0225133Y0121212D02*
X0217633Y0121212D01*
X0217633Y0120014D02*
X0225700Y0120014D01*
X0222267Y0116450D02*
X0222267Y0126833D01*
X0221918Y0127182D01*
X0221604Y0127497D01*
X0221918Y0127182D02*
X0223454Y0127182D01*
X0217633Y0118815D02*
X0246383Y0118815D01*
X0246383Y0117617D02*
X0217633Y0117617D01*
X0217633Y0116418D02*
X0246383Y0116418D01*
X0246023Y0115220D02*
X0217994Y0115220D01*
X0219192Y0114021D02*
X0244824Y0114021D01*
X0243763Y0116450D02*
X0243763Y0126822D01*
X0244123Y0127182D01*
X0244438Y0127497D01*
X0244123Y0127182D02*
X0242588Y0127182D01*
X0241383Y0127205D02*
X0246383Y0127205D01*
X0246383Y0128403D02*
X0241383Y0128403D01*
X0241383Y0126006D02*
X0246383Y0126006D01*
X0246383Y0124808D02*
X0241383Y0124808D01*
X0241383Y0123609D02*
X0246383Y0123609D01*
X0246383Y0122411D02*
X0241383Y0122411D01*
X0241383Y0121212D02*
X0246383Y0121212D01*
X0246383Y0120014D02*
X0240817Y0120014D01*
X0243480Y0151830D02*
X0251383Y0151830D01*
X0271477Y0168174D02*
X0277978Y0161673D01*
X0277978Y0144675D01*
X0278883Y0144330D01*
X0283883Y0144330D01*
X0292633Y0135580D01*
X0338883Y0135580D01*
X0346383Y0128080D01*
X0328883Y0139330D02*
X0315133Y0139330D01*
X0298883Y0155580D01*
X0298883Y0164330D01*
X0296383Y0166830D01*
X0291383Y0166830D01*
X0280133Y0166830D01*
X0277633Y0169330D01*
X0273883Y0174330D02*
X0269730Y0174330D01*
X0273883Y0174330D02*
X0277633Y0178080D01*
X0277633Y0191830D01*
X0272633Y0191830D02*
X0272633Y0187234D01*
X0269730Y0184330D01*
X0282633Y0201830D02*
X0282633Y0208080D01*
X0307633Y0221830D02*
X0312633Y0221830D01*
X0327633Y0206830D01*
X0337633Y0202135D02*
X0346285Y0202135D01*
X0346383Y0202234D01*
X0361383Y0205580D02*
X0361383Y0188080D01*
X0360133Y0186830D01*
X0366383Y0185580D02*
X0370133Y0189330D01*
X0370133Y0193484D01*
X0370133Y0200177D02*
X0380133Y0200177D01*
X0380133Y0221830D01*
X0381383Y0223080D01*
X0372633Y0220580D02*
X0367633Y0225580D01*
X0367230Y0225580D01*
X0372633Y0220580D02*
X0372633Y0210580D01*
X0367633Y0205580D01*
X0361383Y0205580D01*
X0380133Y0193484D02*
X0380133Y0185580D01*
X0373883Y0185580D01*
X0350133Y0155580D02*
X0347633Y0153080D01*
X0322633Y0153080D01*
X0321383Y0151830D01*
X0321383Y0148080D01*
X0298883Y0140580D02*
X0287633Y0151830D01*
X0283883Y0151830D01*
X0281383Y0136830D02*
X0272633Y0136830D01*
X0306383Y0168080D02*
X0306383Y0175580D01*
X0311383Y0180580D02*
X0301383Y0180580D01*
X0306383Y0168080D02*
X0340133Y0168080D01*
X0342633Y0169330D01*
X0307633Y0221830D02*
X0288883Y0240580D01*
X0288883Y0250580D01*
X0241383Y0214330D02*
X0238883Y0214330D01*
X0235133Y0218080D01*
X0235133Y0238080D01*
X0233883Y0207775D02*
X0242633Y0207775D01*
X0242633Y0200885D02*
X0233883Y0200885D01*
X0242633Y0200885D02*
X0242938Y0200580D01*
X0251383Y0200580D01*
X0245133Y0189104D02*
X0245133Y0183080D01*
X0240133Y0189104D02*
X0240133Y0175580D01*
X0223883Y0200580D02*
X0223883Y0200885D01*
X0119287Y0316830D02*
X0115133Y0316830D01*
X0113883Y0315580D01*
X0110537Y0315580D01*
X0110133Y0315177D01*
X0105980Y0315177D02*
X0105133Y0316023D01*
X0105133Y0320580D01*
X0100133Y0320580D01*
X0108480Y0345580D02*
X0116383Y0345580D01*
D32*
X0135980Y0304330D02*
X0135980Y0286131D01*
X0135429Y0285580D01*
X0120133Y0269911D02*
X0111118Y0269911D01*
X0110133Y0268927D01*
X0109838Y0269222D01*
X0109838Y0285580D01*
X0110133Y0262234D02*
X0111118Y0261249D01*
X0116393Y0261249D01*
X0158883Y0267568D02*
X0170527Y0267568D01*
X0171265Y0266830D01*
X0171265Y0264754D01*
X0172938Y0263080D01*
X0172633Y0262775D01*
X0172633Y0260580D01*
X0172633Y0248080D01*
X0181383Y0249330D02*
X0187633Y0249330D01*
X0188883Y0249330D01*
X0171265Y0266830D02*
X0171265Y0269340D01*
X0171265Y0276820D02*
X0160655Y0276820D01*
X0158883Y0278592D01*
X0181502Y0276820D02*
X0188588Y0276820D01*
X0188883Y0276525D01*
X0215133Y0238080D02*
X0215133Y0208080D01*
X0206383Y0208080D01*
X0193883Y0195580D01*
X0215133Y0207775D02*
X0215133Y0208080D01*
X0132633Y0148080D02*
X0127633Y0153080D01*
X0111383Y0153080D01*
X0161383Y0328080D02*
X0175133Y0328080D01*
X0197633Y0350580D01*
X0197633Y0370580D01*
X0192633Y0375580D01*
X0180133Y0375580D01*
X0145133Y0400580D02*
X0145133Y0440580D01*
X0173883Y0469330D01*
X0333883Y0469330D01*
X0358883Y0444330D01*
X0358883Y0431830D01*
X0361383Y0429330D01*
D33*
X0242828Y0285580D02*
X0242779Y0285531D01*
X0241383Y0276830D02*
X0243883Y0274330D01*
X0243883Y0256830D01*
X0237633Y0250580D01*
X0222633Y0250580D01*
X0215133Y0241830D01*
X0215133Y0238080D01*
X0185133Y0236830D02*
X0185133Y0243080D01*
X0172633Y0248080D02*
X0162633Y0238080D01*
X0162633Y0201830D01*
X0162633Y0160580D01*
X0148883Y0146830D01*
X0148883Y0120352D01*
X0149415Y0119820D01*
X0161383Y0141830D02*
X0162633Y0143080D01*
X0171383Y0143080D01*
X0148805Y0173080D02*
X0148883Y0173159D01*
X0148883Y0180580D01*
X0144907Y0184557D01*
X0143883Y0184557D01*
X0138962Y0184478D02*
X0138883Y0184557D01*
X0138962Y0184478D02*
X0138962Y0173080D01*
X0133883Y0180580D02*
X0130133Y0176830D01*
X0130133Y0165177D01*
X0133883Y0161427D01*
X0133883Y0180580D02*
X0133883Y0184557D01*
X0128883Y0184557D02*
X0128883Y0191830D01*
X0120133Y0200580D01*
X0120133Y0225580D01*
X0133883Y0239330D01*
X0133883Y0240167D01*
X0131383Y0242667D01*
X0131383Y0270580D01*
X0118883Y0283080D01*
X0118883Y0289330D01*
X0112633Y0295580D01*
X0100133Y0295580D01*
X0100133Y0268080D01*
X0105133Y0263080D01*
X0109287Y0263080D01*
X0110133Y0262234D01*
X0109287Y0250580D02*
X0107633Y0250580D01*
X0095133Y0263080D01*
X0095133Y0324330D01*
X0097633Y0326830D01*
X0099188Y0326830D01*
X0100133Y0327775D01*
X0100133Y0334025D01*
X0101688Y0335580D01*
X0101787Y0335679D01*
X0101787Y0345580D01*
X0108578Y0335580D02*
X0110133Y0334025D01*
X0110133Y0327677D01*
X0110980Y0321830D02*
X0115133Y0321830D01*
X0119287Y0325984D01*
X0119287Y0326830D01*
X0110980Y0321830D02*
X0110133Y0320984D01*
X0110133Y0315177D02*
X0105980Y0315177D01*
X0100133Y0309330D01*
X0100133Y0295580D01*
X0100133Y0320885D02*
X0100271Y0320885D01*
X0127633Y0302677D02*
X0127633Y0295580D01*
X0125133Y0293080D01*
X0125133Y0284330D01*
X0135133Y0274330D01*
X0142633Y0274330D01*
X0146383Y0278080D01*
X0146383Y0288080D01*
X0148883Y0290580D01*
X0181383Y0290580D01*
X0191383Y0280580D01*
X0191383Y0276525D01*
X0231078Y0276830D02*
X0241383Y0276830D01*
X0223883Y0200580D02*
X0215438Y0200580D01*
X0215133Y0200885D01*
X0223883Y0200580D02*
X0228883Y0195580D01*
X0162633Y0201830D02*
X0159828Y0199025D01*
X0153883Y0199025D01*
X0153883Y0201830D01*
X0150133Y0205580D01*
X0144907Y0205580D01*
X0143883Y0206604D01*
X0144730Y0207450D01*
X0144730Y0218080D01*
X0138883Y0217234D02*
X0138037Y0218080D01*
X0138883Y0217234D02*
X0138883Y0206604D01*
X0143883Y0195580D02*
X0132633Y0195580D01*
X0128883Y0191830D01*
X0143883Y0195580D02*
X0147633Y0191830D01*
X0153578Y0191830D01*
X0153883Y0192135D01*
X0117633Y0250580D02*
X0115980Y0250580D01*
X0117633Y0250580D02*
X0122633Y0255580D01*
X0122633Y0260009D01*
X0123873Y0261249D01*
X0127633Y0302677D02*
X0129287Y0304330D01*
D34*
X0283883Y0151830D03*
D35*
X0263037Y0174330D02*
X0252633Y0174330D01*
X0250133Y0171830D01*
X0250133Y0167057D01*
X0254828Y0166751D02*
X0254828Y0159330D01*
X0254828Y0166751D02*
X0255133Y0167057D01*
X0245133Y0167057D02*
X0245133Y0173080D01*
X0252633Y0180580D01*
X0260133Y0180580D01*
X0260133Y0181427D01*
X0263037Y0184330D01*
X0260133Y0189330D02*
X0255360Y0189330D01*
X0255133Y0189104D01*
X0260133Y0189330D02*
X0262633Y0191830D01*
X0262633Y0192499D01*
X0240133Y0167057D02*
X0240133Y0164330D01*
X0245133Y0159330D01*
X0247938Y0159330D01*
X0236383Y0158927D02*
X0235133Y0160177D01*
X0235133Y0167057D01*
X0230133Y0167057D02*
X0230133Y0160580D01*
X0228480Y0158927D01*
X0227633Y0158927D01*
X0225133Y0164330D02*
X0221383Y0160580D01*
X0212633Y0160580D01*
X0204508Y0152455D01*
X0202633Y0150580D01*
X0202633Y0145330D01*
X0202442Y0145521D01*
X0187633Y0145521D01*
X0187633Y0150639D02*
X0187633Y0164330D01*
X0187633Y0178021D01*
X0187633Y0183139D02*
X0187824Y0183330D01*
X0202633Y0183330D01*
X0205258Y0180705D01*
X0218907Y0167057D01*
X0220133Y0167057D01*
X0225133Y0167057D02*
X0225133Y0164330D01*
X0227633Y0152234D02*
X0229596Y0152234D01*
X0229999Y0151830D01*
X0229999Y0140580D01*
X0232633Y0144330D02*
X0235133Y0141830D01*
X0235268Y0141830D01*
X0232633Y0144330D02*
X0232633Y0150446D01*
X0232768Y0150580D01*
X0235671Y0152234D01*
X0236383Y0152234D01*
D36*
X0080033Y0109230D02*
X0080033Y0474509D01*
X0386257Y0474509D01*
X0386257Y0388699D01*
X0375383Y0399573D01*
X0375383Y0400126D01*
X0374774Y0401596D01*
X0373649Y0402721D01*
X0372179Y0403330D01*
X0370588Y0403330D01*
X0369118Y0402721D01*
X0367992Y0401596D01*
X0367383Y0400126D01*
X0367383Y0398535D01*
X0367992Y0397064D01*
X0369118Y0395939D01*
X0370588Y0395330D01*
X0371141Y0395330D01*
X0382133Y0384338D01*
X0382133Y0352823D01*
X0373083Y0361873D01*
X0371980Y0362330D01*
X0336450Y0362330D01*
X0336233Y0362855D01*
X0335558Y0363530D01*
X0334676Y0363896D01*
X0329784Y0363896D01*
X0328902Y0363530D01*
X0328883Y0363512D01*
X0328865Y0363530D01*
X0327983Y0363896D01*
X0323091Y0363896D01*
X0322465Y0363636D01*
X0322274Y0364096D01*
X0321149Y0365221D01*
X0319679Y0365830D01*
X0318088Y0365830D01*
X0316618Y0365221D01*
X0315492Y0364096D01*
X0314883Y0362626D01*
X0314883Y0361035D01*
X0315492Y0359564D01*
X0316618Y0358439D01*
X0317484Y0358080D01*
X0316618Y0357721D01*
X0316226Y0357330D01*
X0285787Y0357330D01*
X0284684Y0356873D01*
X0248213Y0320402D01*
X0247179Y0320830D01*
X0245588Y0320830D01*
X0244118Y0320221D01*
X0242992Y0319096D01*
X0242383Y0317626D01*
X0242383Y0316035D01*
X0242882Y0314830D01*
X0242626Y0314830D01*
X0241633Y0315823D01*
X0241633Y0316376D01*
X0241024Y0317846D01*
X0239899Y0318971D01*
X0238429Y0319580D01*
X0236838Y0319580D01*
X0235368Y0318971D01*
X0234242Y0317846D01*
X0233633Y0316376D01*
X0233633Y0314785D01*
X0234242Y0313314D01*
X0235368Y0312189D01*
X0236838Y0311580D01*
X0237391Y0311580D01*
X0239141Y0309830D01*
X0232037Y0309830D01*
X0230934Y0309373D01*
X0228434Y0306873D01*
X0227590Y0306030D01*
X0227199Y0305085D01*
X0227199Y0309680D01*
X0226833Y0310562D01*
X0226815Y0310580D01*
X0226833Y0310599D01*
X0227199Y0311481D01*
X0227199Y0316373D01*
X0226833Y0317255D01*
X0226158Y0317930D01*
X0225875Y0318047D01*
X0238959Y0331130D01*
X0252020Y0331130D01*
X0253196Y0331617D01*
X0259446Y0337867D01*
X0260346Y0338768D01*
X0260833Y0339944D01*
X0260833Y0457467D01*
X0260346Y0458643D01*
X0253659Y0465330D01*
X0332226Y0465330D01*
X0354883Y0442673D01*
X0354883Y0438480D01*
X0352056Y0438480D01*
X0350991Y0438039D01*
X0350175Y0437223D01*
X0349733Y0436157D01*
X0349733Y0425003D01*
X0350175Y0423937D01*
X0351425Y0422687D01*
X0352241Y0421872D01*
X0353306Y0421430D01*
X0366960Y0421430D01*
X0368026Y0421872D01*
X0369276Y0423122D01*
X0370092Y0423937D01*
X0370533Y0425003D01*
X0370533Y0434907D01*
X0370092Y0435973D01*
X0368842Y0437223D01*
X0368026Y0438039D01*
X0366960Y0438480D01*
X0362883Y0438480D01*
X0362883Y0445126D01*
X0362274Y0446596D01*
X0361149Y0447721D01*
X0336149Y0472721D01*
X0334679Y0473330D01*
X0173088Y0473330D01*
X0171618Y0472721D01*
X0142868Y0443971D01*
X0141742Y0442846D01*
X0141133Y0441376D01*
X0141133Y0422230D01*
X0135806Y0422230D01*
X0134741Y0421789D01*
X0133925Y0420973D01*
X0133491Y0420539D01*
X0132675Y0419723D01*
X0132233Y0418657D01*
X0132233Y0400003D01*
X0132675Y0398937D01*
X0136425Y0395187D01*
X0137241Y0394372D01*
X0138306Y0393930D01*
X0150710Y0393930D01*
X0151776Y0394372D01*
X0155526Y0398122D01*
X0156342Y0398937D01*
X0156783Y0400003D01*
X0156783Y0418657D01*
X0156342Y0419723D01*
X0155092Y0420973D01*
X0154276Y0421789D01*
X0153210Y0422230D01*
X0149133Y0422230D01*
X0149133Y0438923D01*
X0175540Y0465330D01*
X0222858Y0465330D01*
X0222420Y0464893D01*
X0214920Y0457393D01*
X0214433Y0456217D01*
X0214433Y0453030D01*
X0213186Y0451783D01*
X0212364Y0449798D01*
X0212364Y0441650D01*
X0213186Y0439665D01*
X0214705Y0438146D01*
X0216690Y0437324D01*
X0218838Y0437324D01*
X0220823Y0438146D01*
X0222342Y0439665D01*
X0222764Y0440684D01*
X0223186Y0439665D01*
X0224705Y0438146D01*
X0226690Y0437324D01*
X0228838Y0437324D01*
X0230823Y0438146D01*
X0232342Y0439665D01*
X0233109Y0441518D01*
X0233316Y0440882D01*
X0233659Y0440209D01*
X0234103Y0439597D01*
X0234637Y0439063D01*
X0235248Y0438619D01*
X0235921Y0438276D01*
X0236640Y0438042D01*
X0237386Y0437924D01*
X0237564Y0437924D01*
X0237564Y0445524D01*
X0237964Y0445524D01*
X0237964Y0437924D01*
X0238142Y0437924D01*
X0238888Y0438042D01*
X0239606Y0438276D01*
X0240280Y0438619D01*
X0240891Y0439063D01*
X0241425Y0439597D01*
X0241869Y0440209D01*
X0242212Y0440882D01*
X0242419Y0441518D01*
X0243186Y0439665D01*
X0244564Y0438288D01*
X0244564Y0426633D01*
X0232476Y0414545D01*
X0229991Y0414545D01*
X0229108Y0414180D01*
X0228433Y0413505D01*
X0228068Y0412623D01*
X0228068Y0407731D01*
X0228433Y0406849D01*
X0228452Y0406830D01*
X0228433Y0406812D01*
X0228213Y0406280D01*
X0224497Y0406280D01*
X0223321Y0405793D01*
X0215953Y0398426D01*
X0215053Y0397526D01*
X0214566Y0396349D01*
X0214566Y0382426D01*
X0213188Y0381048D01*
X0212366Y0379063D01*
X0212366Y0370915D01*
X0213188Y0368930D01*
X0214707Y0367411D01*
X0216692Y0366589D01*
X0218840Y0366589D01*
X0220825Y0367411D01*
X0222344Y0368930D01*
X0222766Y0369949D01*
X0223188Y0368930D01*
X0223233Y0368885D01*
X0223233Y0360011D01*
X0193979Y0333097D01*
X0193891Y0333060D01*
X0193337Y0332506D01*
X0192760Y0331976D01*
X0192720Y0331890D01*
X0192653Y0331823D01*
X0192353Y0331099D01*
X0192024Y0330388D01*
X0192020Y0330293D01*
X0191983Y0330205D01*
X0191983Y0329422D01*
X0191951Y0328639D01*
X0191983Y0328550D01*
X0191983Y0285071D01*
X0184144Y0292910D01*
X0184338Y0292830D01*
X0185929Y0292830D01*
X0187399Y0293439D01*
X0188524Y0294564D01*
X0189133Y0296035D01*
X0189133Y0297626D01*
X0188524Y0299096D01*
X0187399Y0300221D01*
X0185929Y0300830D01*
X0184338Y0300830D01*
X0182868Y0300221D01*
X0182376Y0299730D01*
X0148835Y0299730D01*
X0145533Y0303031D01*
X0145533Y0323657D01*
X0145092Y0324723D01*
X0144276Y0325539D01*
X0141776Y0328039D01*
X0140710Y0328480D01*
X0137585Y0328480D01*
X0119027Y0347038D01*
X0118927Y0347280D01*
X0118083Y0348123D01*
X0116980Y0348580D01*
X0112700Y0348580D01*
X0112483Y0349105D01*
X0111808Y0349780D01*
X0110926Y0350146D01*
X0106034Y0350146D01*
X0105152Y0349780D01*
X0105133Y0349762D01*
X0105115Y0349780D01*
X0104233Y0350146D01*
X0099341Y0350146D01*
X0098459Y0349780D01*
X0097784Y0349105D01*
X0097418Y0348223D01*
X0097418Y0342937D01*
X0097784Y0342055D01*
X0098187Y0341652D01*
X0098187Y0339666D01*
X0097587Y0339066D01*
X0097222Y0338184D01*
X0097222Y0336204D01*
X0097081Y0336064D01*
X0096533Y0334741D01*
X0096533Y0331762D01*
X0095973Y0331202D01*
X0095607Y0330319D01*
X0095607Y0329888D01*
X0095594Y0329882D01*
X0094581Y0328869D01*
X0092081Y0326369D01*
X0091533Y0325046D01*
X0091533Y0262364D01*
X0092081Y0261041D01*
X0093094Y0260028D01*
X0104918Y0248204D01*
X0104918Y0247937D01*
X0105284Y0247055D01*
X0105959Y0246380D01*
X0106841Y0246015D01*
X0111733Y0246015D01*
X0112615Y0246380D01*
X0112633Y0246399D01*
X0112652Y0246380D01*
X0113534Y0246015D01*
X0118426Y0246015D01*
X0119308Y0246380D01*
X0119983Y0247055D01*
X0120348Y0247937D01*
X0120348Y0248204D01*
X0124673Y0252528D01*
X0125685Y0253541D01*
X0126233Y0254864D01*
X0126233Y0256094D01*
X0126319Y0256094D01*
X0127201Y0256459D01*
X0127877Y0257134D01*
X0128242Y0258016D01*
X0128242Y0264483D01*
X0127877Y0265365D01*
X0127201Y0266040D01*
X0126319Y0266405D01*
X0124389Y0266405D01*
X0124502Y0266678D01*
X0124502Y0273144D01*
X0124136Y0274026D01*
X0123461Y0274701D01*
X0122579Y0275067D01*
X0117687Y0275067D01*
X0116805Y0274701D01*
X0116130Y0274026D01*
X0116082Y0273911D01*
X0113838Y0273911D01*
X0113838Y0280953D01*
X0115009Y0282125D01*
X0115938Y0284367D01*
X0115938Y0286794D01*
X0115009Y0289036D01*
X0113293Y0290752D01*
X0111051Y0291680D01*
X0108625Y0291680D01*
X0106383Y0290752D01*
X0104667Y0289036D01*
X0103738Y0286794D01*
X0103738Y0284367D01*
X0104667Y0282125D01*
X0105838Y0280953D01*
X0105838Y0272025D01*
X0105568Y0271373D01*
X0105568Y0266481D01*
X0105933Y0265599D01*
X0106417Y0265115D01*
X0106291Y0264897D01*
X0106168Y0264439D01*
X0106168Y0262418D01*
X0109949Y0262418D01*
X0109949Y0262049D01*
X0110318Y0262049D01*
X0110318Y0258465D01*
X0112536Y0258465D01*
X0112625Y0258489D01*
X0112625Y0258257D01*
X0112747Y0257799D01*
X0112984Y0257388D01*
X0113319Y0257053D01*
X0113730Y0256816D01*
X0114188Y0256694D01*
X0116209Y0256694D01*
X0116209Y0261065D01*
X0116577Y0261065D01*
X0116577Y0256694D01*
X0118599Y0256694D01*
X0118676Y0256714D01*
X0117108Y0255146D01*
X0113534Y0255146D01*
X0112652Y0254780D01*
X0112633Y0254762D01*
X0112615Y0254780D01*
X0111733Y0255146D01*
X0108159Y0255146D01*
X0098733Y0264571D01*
X0098733Y0317018D01*
X0099900Y0317018D01*
X0099900Y0320652D01*
X0100367Y0320652D01*
X0100367Y0321119D01*
X0104059Y0321119D01*
X0104059Y0323189D01*
X0103937Y0323647D01*
X0103811Y0323865D01*
X0104294Y0324349D01*
X0104659Y0325231D01*
X0104659Y0330319D01*
X0104337Y0331097D01*
X0105115Y0331420D01*
X0105133Y0331438D01*
X0105152Y0331420D01*
X0105998Y0331069D01*
X0105933Y0331005D01*
X0105568Y0330123D01*
X0105568Y0325231D01*
X0105933Y0324349D01*
X0105952Y0324330D01*
X0105933Y0324312D01*
X0105568Y0323430D01*
X0105568Y0318538D01*
X0105933Y0317656D01*
X0106176Y0317413D01*
X0106168Y0317382D01*
X0106168Y0315361D01*
X0109949Y0315361D01*
X0109949Y0314992D01*
X0106168Y0314992D01*
X0106168Y0312971D01*
X0106291Y0312513D01*
X0106417Y0312295D01*
X0105933Y0311812D01*
X0105568Y0310930D01*
X0105568Y0306038D01*
X0105933Y0305156D01*
X0106608Y0304481D01*
X0107491Y0304115D01*
X0108747Y0304115D01*
X0112675Y0300187D01*
X0113491Y0299372D01*
X0114556Y0298930D01*
X0115568Y0298930D01*
X0115568Y0298538D01*
X0115933Y0297656D01*
X0116608Y0296981D01*
X0117491Y0296615D01*
X0122776Y0296615D01*
X0123658Y0296981D01*
X0124033Y0297356D01*
X0124033Y0297071D01*
X0123094Y0296132D01*
X0122081Y0295119D01*
X0121533Y0293796D01*
X0121533Y0283614D01*
X0122081Y0282291D01*
X0132081Y0272291D01*
X0133094Y0271278D01*
X0134417Y0270730D01*
X0140983Y0270730D01*
X0140983Y0270003D01*
X0141425Y0268937D01*
X0142241Y0268122D01*
X0143306Y0267680D01*
X0151960Y0267680D01*
X0152153Y0267760D01*
X0152153Y0263941D01*
X0152518Y0263059D01*
X0153193Y0262384D01*
X0154075Y0262019D01*
X0163691Y0262019D01*
X0164574Y0262384D01*
X0165249Y0263059D01*
X0165460Y0263568D01*
X0167426Y0263568D01*
X0167874Y0262488D01*
X0168472Y0261890D01*
X0168472Y0260477D01*
X0168633Y0260086D01*
X0168633Y0254730D01*
X0159556Y0254730D01*
X0158491Y0254289D01*
X0157675Y0253473D01*
X0157233Y0252407D01*
X0157233Y0242581D01*
X0155526Y0244289D01*
X0154460Y0244730D01*
X0147890Y0244730D01*
X0147399Y0245221D01*
X0145929Y0245830D01*
X0144338Y0245830D01*
X0142868Y0245221D01*
X0141742Y0244096D01*
X0141133Y0242626D01*
X0141133Y0241035D01*
X0141742Y0239564D01*
X0142868Y0238439D01*
X0144338Y0237830D01*
X0145486Y0237830D01*
X0144883Y0236376D01*
X0144883Y0235681D01*
X0143932Y0234730D01*
X0135398Y0234730D01*
X0136048Y0234941D01*
X0136839Y0235344D01*
X0137557Y0235866D01*
X0138184Y0236494D01*
X0138706Y0237212D01*
X0139109Y0238002D01*
X0139383Y0238846D01*
X0139516Y0239687D01*
X0134363Y0239687D01*
X0134363Y0234730D01*
X0133404Y0234730D01*
X0133404Y0239687D01*
X0134363Y0239687D01*
X0134363Y0240646D01*
X0139516Y0240646D01*
X0139383Y0241487D01*
X0139109Y0242331D01*
X0138706Y0243122D01*
X0138184Y0243840D01*
X0137557Y0244468D01*
X0136839Y0244989D01*
X0136048Y0245392D01*
X0135204Y0245667D01*
X0134363Y0245800D01*
X0134363Y0240646D01*
X0133404Y0240646D01*
X0133404Y0239687D01*
X0128250Y0239687D01*
X0128384Y0238846D01*
X0128658Y0238002D01*
X0129061Y0237212D01*
X0129582Y0236494D01*
X0130210Y0235866D01*
X0130928Y0235344D01*
X0131719Y0234941D01*
X0132563Y0234667D01*
X0132991Y0234599D01*
X0132241Y0234289D01*
X0124741Y0226789D01*
X0123925Y0225973D01*
X0123483Y0224907D01*
X0123483Y0215837D01*
X0122992Y0215346D01*
X0122383Y0213876D01*
X0122383Y0212285D01*
X0122992Y0210814D01*
X0124118Y0209689D01*
X0125302Y0209198D01*
X0125302Y0203764D01*
X0125668Y0202882D01*
X0126343Y0202207D01*
X0127225Y0201842D01*
X0130542Y0201842D01*
X0131383Y0202190D01*
X0132225Y0201842D01*
X0135542Y0201842D01*
X0136383Y0202190D01*
X0137225Y0201842D01*
X0140542Y0201842D01*
X0141383Y0202190D01*
X0142225Y0201842D01*
X0145542Y0201842D01*
X0145876Y0201980D01*
X0148642Y0201980D01*
X0149357Y0201265D01*
X0149357Y0196481D01*
X0149723Y0195599D01*
X0150206Y0195115D01*
X0150080Y0194897D01*
X0149957Y0194439D01*
X0149957Y0192369D01*
X0153650Y0192369D01*
X0153650Y0191902D01*
X0149957Y0191902D01*
X0149957Y0189831D01*
X0150080Y0189374D01*
X0150317Y0188963D01*
X0150652Y0188628D01*
X0151063Y0188391D01*
X0151520Y0188268D01*
X0153650Y0188268D01*
X0153650Y0191902D01*
X0154117Y0191902D01*
X0154117Y0192369D01*
X0157809Y0192369D01*
X0157809Y0194439D01*
X0157687Y0194897D01*
X0157561Y0195115D01*
X0157870Y0195425D01*
X0159033Y0195425D01*
X0159033Y0162071D01*
X0145831Y0148869D01*
X0145283Y0147546D01*
X0145283Y0126326D01*
X0144837Y0125879D01*
X0144015Y0123895D01*
X0144015Y0115746D01*
X0144837Y0113762D01*
X0146356Y0112242D01*
X0148341Y0111420D01*
X0150489Y0111420D01*
X0152474Y0112242D01*
X0153993Y0113762D01*
X0154415Y0114781D01*
X0154837Y0113762D01*
X0156356Y0112242D01*
X0158341Y0111420D01*
X0160489Y0111420D01*
X0162474Y0112242D01*
X0163993Y0113762D01*
X0164815Y0115746D01*
X0164815Y0123895D01*
X0163993Y0125879D01*
X0162474Y0127398D01*
X0160489Y0128220D01*
X0158341Y0128220D01*
X0156356Y0127398D01*
X0154837Y0125879D01*
X0154415Y0124860D01*
X0153993Y0125879D01*
X0152483Y0127389D01*
X0152483Y0145339D01*
X0164673Y0157528D01*
X0165685Y0158541D01*
X0166233Y0159864D01*
X0166233Y0200069D01*
X0166633Y0201035D01*
X0166633Y0202626D01*
X0166233Y0203592D01*
X0166233Y0236589D01*
X0167324Y0237680D01*
X0175710Y0237680D01*
X0176776Y0238122D01*
X0177592Y0238937D01*
X0178033Y0240003D01*
X0178033Y0252407D01*
X0177592Y0253473D01*
X0176776Y0254289D01*
X0176633Y0254348D01*
X0176633Y0259188D01*
X0176848Y0259403D01*
X0177066Y0259277D01*
X0177524Y0259154D01*
X0179595Y0259154D01*
X0179595Y0262847D01*
X0180062Y0262847D01*
X0180062Y0263314D01*
X0183695Y0263314D01*
X0183695Y0265443D01*
X0183584Y0265857D01*
X0184341Y0265857D01*
X0185224Y0266223D01*
X0185390Y0266390D01*
X0185652Y0266128D01*
X0186063Y0265891D01*
X0186520Y0265768D01*
X0188650Y0265768D01*
X0188650Y0269402D01*
X0189117Y0269402D01*
X0189117Y0265768D01*
X0191246Y0265768D01*
X0191704Y0265891D01*
X0192115Y0266128D01*
X0192288Y0266301D01*
X0192858Y0265731D01*
X0193741Y0265365D01*
X0194856Y0265365D01*
X0197383Y0262838D01*
X0197383Y0262285D01*
X0197992Y0260814D01*
X0199118Y0259689D01*
X0200588Y0259080D01*
X0202179Y0259080D01*
X0203649Y0259689D01*
X0204774Y0260814D01*
X0205233Y0261922D01*
X0205233Y0251360D01*
X0177358Y0223484D01*
X0175979Y0222106D01*
X0175233Y0220305D01*
X0175233Y0135856D01*
X0175979Y0134055D01*
X0178483Y0131551D01*
X0178483Y0121253D01*
X0178925Y0120187D01*
X0179741Y0119372D01*
X0180806Y0118930D01*
X0204460Y0118930D01*
X0205526Y0119372D01*
X0206342Y0120187D01*
X0206783Y0121253D01*
X0206783Y0132407D01*
X0206774Y0132430D01*
X0206911Y0132430D01*
X0207793Y0132796D01*
X0208468Y0133471D01*
X0208833Y0134353D01*
X0208833Y0151994D01*
X0214035Y0157196D01*
X0222056Y0157196D01*
X0223068Y0157615D01*
X0223068Y0156481D01*
X0223128Y0156335D01*
X0222983Y0156396D01*
X0218091Y0156396D01*
X0217209Y0156030D01*
X0216534Y0155355D01*
X0216168Y0154473D01*
X0216168Y0149187D01*
X0216534Y0148305D01*
X0217209Y0147630D01*
X0217801Y0147385D01*
X0217383Y0146376D01*
X0217383Y0144785D01*
X0217992Y0143314D01*
X0219118Y0142189D01*
X0220588Y0141580D01*
X0222179Y0141580D01*
X0223649Y0142189D01*
X0224774Y0143314D01*
X0225383Y0144785D01*
X0225383Y0146376D01*
X0225015Y0147265D01*
X0226615Y0147265D01*
X0226615Y0142876D01*
X0226594Y0142855D01*
X0225983Y0141379D01*
X0225983Y0139781D01*
X0226594Y0138305D01*
X0227724Y0137175D01*
X0229200Y0136564D01*
X0230798Y0136564D01*
X0232274Y0137175D01*
X0233381Y0138282D01*
X0234472Y0137830D01*
X0236063Y0137830D01*
X0237533Y0138439D01*
X0238659Y0139564D01*
X0239268Y0141035D01*
X0239268Y0142626D01*
X0238659Y0144096D01*
X0237533Y0145221D01*
X0236063Y0145830D01*
X0236018Y0145830D01*
X0236018Y0147265D01*
X0239233Y0147265D01*
X0240115Y0147630D01*
X0240133Y0147649D01*
X0240152Y0147630D01*
X0241034Y0147265D01*
X0245926Y0147265D01*
X0246808Y0147630D01*
X0247483Y0148305D01*
X0247700Y0148830D01*
X0248726Y0148830D01*
X0249118Y0148439D01*
X0250588Y0147830D01*
X0252179Y0147830D01*
X0253649Y0148439D01*
X0254774Y0149564D01*
X0255383Y0151035D01*
X0255383Y0152626D01*
X0254774Y0154096D01*
X0253649Y0155221D01*
X0253207Y0155404D01*
X0254595Y0155404D01*
X0254595Y0159097D01*
X0255062Y0159097D01*
X0255062Y0159564D01*
X0258695Y0159564D01*
X0258695Y0161693D01*
X0258572Y0162151D01*
X0258335Y0162561D01*
X0258000Y0162897D01*
X0257590Y0163134D01*
X0257331Y0163203D01*
X0257420Y0163254D01*
X0257755Y0163589D01*
X0257992Y0164000D01*
X0258114Y0164457D01*
X0258114Y0167057D01*
X0258114Y0169656D01*
X0257992Y0170114D01*
X0257755Y0170524D01*
X0257420Y0170859D01*
X0257269Y0170946D01*
X0258976Y0170946D01*
X0259034Y0170805D01*
X0259709Y0170130D01*
X0260591Y0169765D01*
X0265483Y0169765D01*
X0266365Y0170130D01*
X0266383Y0170149D01*
X0266402Y0170130D01*
X0267284Y0169765D01*
X0267806Y0169765D01*
X0267477Y0168969D01*
X0267477Y0167378D01*
X0268086Y0165908D01*
X0269211Y0164783D01*
X0270681Y0164174D01*
X0271234Y0164174D01*
X0274978Y0160430D01*
X0274978Y0145226D01*
X0274962Y0145184D01*
X0274978Y0144631D01*
X0274978Y0144078D01*
X0274995Y0144036D01*
X0274996Y0143991D01*
X0275223Y0143486D01*
X0275435Y0142975D01*
X0275467Y0142943D01*
X0275485Y0142902D01*
X0275887Y0142523D01*
X0276278Y0142131D01*
X0276320Y0142114D01*
X0276353Y0142083D01*
X0276870Y0141886D01*
X0277381Y0141675D01*
X0277426Y0141675D01*
X0277776Y0141542D01*
X0278287Y0141330D01*
X0278332Y0141330D01*
X0278374Y0141314D01*
X0278927Y0141330D01*
X0282641Y0141330D01*
X0290934Y0133037D01*
X0292037Y0132580D01*
X0337641Y0132580D01*
X0342383Y0127838D01*
X0342383Y0127285D01*
X0342992Y0125814D01*
X0344118Y0124689D01*
X0345588Y0124080D01*
X0347179Y0124080D01*
X0348649Y0124689D01*
X0349774Y0125814D01*
X0350383Y0127285D01*
X0350383Y0128876D01*
X0349774Y0130346D01*
X0348649Y0131471D01*
X0347179Y0132080D01*
X0346626Y0132080D01*
X0341427Y0137280D01*
X0340583Y0138123D01*
X0339480Y0138580D01*
X0332883Y0138580D01*
X0332883Y0140126D01*
X0332384Y0141330D01*
X0348441Y0141330D01*
X0348588Y0141286D01*
X0349033Y0141330D01*
X0349480Y0141330D01*
X0349622Y0141389D01*
X0349776Y0141404D01*
X0350170Y0141616D01*
X0350583Y0141787D01*
X0350692Y0141896D01*
X0350827Y0141969D01*
X0351110Y0142315D01*
X0351427Y0142631D01*
X0351486Y0142773D01*
X0360737Y0154080D01*
X0360929Y0154080D01*
X0362399Y0154689D01*
X0363524Y0155814D01*
X0364133Y0157285D01*
X0364133Y0158876D01*
X0363524Y0160346D01*
X0362399Y0161471D01*
X0360929Y0162080D01*
X0359338Y0162080D01*
X0357868Y0161471D01*
X0356742Y0160346D01*
X0356133Y0158876D01*
X0356133Y0157929D01*
X0347462Y0147330D01*
X0325383Y0147330D01*
X0325383Y0148876D01*
X0324884Y0150080D01*
X0348230Y0150080D01*
X0349333Y0150537D01*
X0351833Y0153037D01*
X0352677Y0153881D01*
X0353133Y0154983D01*
X0353133Y0187079D01*
X0354338Y0186580D01*
X0355929Y0186580D01*
X0356133Y0186665D01*
X0356133Y0186035D01*
X0356742Y0184564D01*
X0357868Y0183439D01*
X0359338Y0182830D01*
X0360929Y0182830D01*
X0362399Y0183439D01*
X0362782Y0183822D01*
X0362992Y0183314D01*
X0364118Y0182189D01*
X0365588Y0181580D01*
X0367179Y0181580D01*
X0368649Y0182189D01*
X0369774Y0183314D01*
X0370133Y0184181D01*
X0370492Y0183314D01*
X0371618Y0182189D01*
X0373088Y0181580D01*
X0374679Y0181580D01*
X0376149Y0182189D01*
X0376540Y0182580D01*
X0380730Y0182580D01*
X0381833Y0183037D01*
X0382677Y0183881D01*
X0383133Y0184983D01*
X0383133Y0189263D01*
X0383658Y0189481D01*
X0383983Y0189806D01*
X0383983Y0176353D01*
X0384349Y0175471D01*
X0385024Y0174796D01*
X0385906Y0174430D01*
X0386257Y0174430D01*
X0386257Y0109230D01*
X0284135Y0109230D01*
X0286776Y0111872D01*
X0287592Y0112687D01*
X0288033Y0113753D01*
X0288033Y0117823D01*
X0288524Y0118314D01*
X0289133Y0119785D01*
X0289133Y0121376D01*
X0288524Y0122846D01*
X0287399Y0123971D01*
X0285929Y0124580D01*
X0284338Y0124580D01*
X0282868Y0123971D01*
X0281742Y0122846D01*
X0281133Y0121376D01*
X0281133Y0119785D01*
X0281742Y0118314D01*
X0282233Y0117823D01*
X0282233Y0115531D01*
X0278932Y0112230D01*
X0248167Y0112230D01*
X0248797Y0113751D01*
X0248927Y0113881D01*
X0249383Y0114983D01*
X0249383Y0129927D01*
X0248927Y0131030D01*
X0248083Y0131873D01*
X0246980Y0132330D01*
X0240787Y0132330D01*
X0239684Y0131873D01*
X0238840Y0131030D01*
X0238383Y0129927D01*
X0238383Y0129038D01*
X0238219Y0128641D01*
X0238219Y0128444D01*
X0238086Y0128122D01*
X0238086Y0126301D01*
X0238219Y0125979D01*
X0238219Y0125722D01*
X0238383Y0125326D01*
X0238383Y0122330D01*
X0228133Y0122330D01*
X0228133Y0131177D01*
X0227677Y0132280D01*
X0226833Y0133123D01*
X0225730Y0133580D01*
X0217037Y0133580D01*
X0215934Y0133123D01*
X0215090Y0132280D01*
X0214633Y0131177D01*
X0214633Y0117080D01*
X0213088Y0117080D01*
X0211618Y0116471D01*
X0210492Y0115346D01*
X0209883Y0113876D01*
X0209883Y0112285D01*
X0210492Y0110814D01*
X0210983Y0110323D01*
X0210983Y0109230D01*
X0080033Y0109230D01*
X0080033Y0110027D02*
X0210983Y0110027D01*
X0210156Y0111626D02*
X0160985Y0111626D01*
X0163456Y0113224D02*
X0209883Y0113224D01*
X0210276Y0114823D02*
X0164432Y0114823D01*
X0164815Y0116421D02*
X0211568Y0116421D01*
X0214633Y0118020D02*
X0164815Y0118020D01*
X0164815Y0119618D02*
X0179494Y0119618D01*
X0178498Y0121217D02*
X0164815Y0121217D01*
X0164815Y0122815D02*
X0178483Y0122815D01*
X0178483Y0124414D02*
X0164600Y0124414D01*
X0163860Y0126012D02*
X0178483Y0126012D01*
X0178483Y0127611D02*
X0161961Y0127611D01*
X0156869Y0127611D02*
X0152483Y0127611D01*
X0152483Y0129209D02*
X0178483Y0129209D01*
X0178483Y0130808D02*
X0152483Y0130808D01*
X0152483Y0132406D02*
X0177627Y0132406D01*
X0176029Y0134005D02*
X0152483Y0134005D01*
X0152483Y0135603D02*
X0175338Y0135603D01*
X0175233Y0137202D02*
X0152483Y0137202D01*
X0152483Y0138800D02*
X0175233Y0138800D01*
X0175233Y0140399D02*
X0152483Y0140399D01*
X0152483Y0141997D02*
X0175233Y0141997D01*
X0175233Y0143596D02*
X0152483Y0143596D01*
X0152483Y0145194D02*
X0175233Y0145194D01*
X0175233Y0146793D02*
X0153937Y0146793D01*
X0155536Y0148391D02*
X0175233Y0148391D01*
X0175233Y0149990D02*
X0157134Y0149990D01*
X0158733Y0151589D02*
X0175233Y0151589D01*
X0175233Y0153187D02*
X0160331Y0153187D01*
X0161930Y0154786D02*
X0175233Y0154786D01*
X0175233Y0156384D02*
X0163528Y0156384D01*
X0165127Y0157983D02*
X0175233Y0157983D01*
X0175233Y0159581D02*
X0166116Y0159581D01*
X0166233Y0161180D02*
X0175233Y0161180D01*
X0175233Y0162778D02*
X0166233Y0162778D01*
X0166233Y0164377D02*
X0175233Y0164377D01*
X0175233Y0165975D02*
X0166233Y0165975D01*
X0166233Y0167574D02*
X0175233Y0167574D01*
X0175233Y0169172D02*
X0166233Y0169172D01*
X0166233Y0170771D02*
X0175233Y0170771D01*
X0175233Y0172369D02*
X0166233Y0172369D01*
X0166233Y0173968D02*
X0175233Y0173968D01*
X0175233Y0175566D02*
X0166233Y0175566D01*
X0166233Y0177165D02*
X0175233Y0177165D01*
X0175233Y0178763D02*
X0166233Y0178763D01*
X0166233Y0180362D02*
X0175233Y0180362D01*
X0175233Y0181960D02*
X0166233Y0181960D01*
X0166233Y0183559D02*
X0175233Y0183559D01*
X0175233Y0185157D02*
X0166233Y0185157D01*
X0166233Y0186756D02*
X0175233Y0186756D01*
X0175233Y0188354D02*
X0166233Y0188354D01*
X0166233Y0189953D02*
X0175233Y0189953D01*
X0175233Y0191551D02*
X0166233Y0191551D01*
X0166233Y0193150D02*
X0175233Y0193150D01*
X0175233Y0194748D02*
X0166233Y0194748D01*
X0166233Y0196347D02*
X0175233Y0196347D01*
X0175233Y0197945D02*
X0166233Y0197945D01*
X0166233Y0199544D02*
X0175233Y0199544D01*
X0175233Y0201142D02*
X0166633Y0201142D01*
X0166586Y0202741D02*
X0175233Y0202741D01*
X0175233Y0204339D02*
X0166233Y0204339D01*
X0166233Y0205938D02*
X0175233Y0205938D01*
X0175233Y0207536D02*
X0166233Y0207536D01*
X0166233Y0209135D02*
X0175233Y0209135D01*
X0175233Y0210733D02*
X0166233Y0210733D01*
X0166233Y0212332D02*
X0175233Y0212332D01*
X0175233Y0213930D02*
X0166233Y0213930D01*
X0166233Y0215529D02*
X0175233Y0215529D01*
X0175233Y0217127D02*
X0166233Y0217127D01*
X0166233Y0218726D02*
X0175233Y0218726D01*
X0175241Y0220325D02*
X0166233Y0220325D01*
X0166233Y0221923D02*
X0175904Y0221923D01*
X0177395Y0223522D02*
X0166233Y0223522D01*
X0166233Y0225120D02*
X0178994Y0225120D01*
X0180592Y0226719D02*
X0166233Y0226719D01*
X0166233Y0228317D02*
X0182191Y0228317D01*
X0183789Y0229916D02*
X0166233Y0229916D01*
X0166233Y0231514D02*
X0185388Y0231514D01*
X0186986Y0233113D02*
X0166233Y0233113D01*
X0166233Y0234711D02*
X0188585Y0234711D01*
X0190183Y0236310D02*
X0166233Y0236310D01*
X0176260Y0237908D02*
X0191782Y0237908D01*
X0193380Y0239507D02*
X0177828Y0239507D01*
X0178033Y0241105D02*
X0194979Y0241105D01*
X0196577Y0242704D02*
X0178033Y0242704D01*
X0178033Y0244302D02*
X0198176Y0244302D01*
X0199774Y0245901D02*
X0178033Y0245901D01*
X0178033Y0247499D02*
X0201373Y0247499D01*
X0202971Y0249098D02*
X0178033Y0249098D01*
X0178033Y0250696D02*
X0204570Y0250696D01*
X0205233Y0252295D02*
X0178033Y0252295D01*
X0177171Y0253893D02*
X0205233Y0253893D01*
X0205233Y0255492D02*
X0176633Y0255492D01*
X0176633Y0257090D02*
X0205233Y0257090D01*
X0205233Y0258689D02*
X0176633Y0258689D01*
X0179595Y0260287D02*
X0180062Y0260287D01*
X0180062Y0259154D02*
X0182132Y0259154D01*
X0182590Y0259277D01*
X0183000Y0259514D01*
X0183335Y0259849D01*
X0183572Y0260259D01*
X0183695Y0260717D01*
X0183695Y0262847D01*
X0180062Y0262847D01*
X0180062Y0259154D01*
X0180062Y0261886D02*
X0179595Y0261886D01*
X0179828Y0263080D02*
X0188883Y0263080D01*
X0188650Y0266681D02*
X0189117Y0266681D01*
X0189117Y0268280D02*
X0188650Y0268280D01*
X0188883Y0269635D02*
X0186688Y0271830D01*
X0186383Y0271830D01*
X0185133Y0273080D01*
X0181502Y0273080D01*
X0183695Y0265083D02*
X0195138Y0265083D01*
X0196737Y0263484D02*
X0183695Y0263484D01*
X0183695Y0261886D02*
X0197548Y0261886D01*
X0198519Y0260287D02*
X0183580Y0260287D01*
X0168550Y0260287D02*
X0128242Y0260287D01*
X0128242Y0258689D02*
X0168633Y0258689D01*
X0168633Y0257090D02*
X0127833Y0257090D01*
X0126233Y0255492D02*
X0168633Y0255492D01*
X0168472Y0261886D02*
X0128242Y0261886D01*
X0128242Y0263484D02*
X0152342Y0263484D01*
X0152153Y0265083D02*
X0127993Y0265083D01*
X0124502Y0266681D02*
X0152153Y0266681D01*
X0142082Y0268280D02*
X0124502Y0268280D01*
X0124502Y0269878D02*
X0141035Y0269878D01*
X0132895Y0271477D02*
X0124502Y0271477D01*
X0124502Y0273075D02*
X0131297Y0273075D01*
X0129698Y0274674D02*
X0123489Y0274674D01*
X0126501Y0277871D02*
X0113838Y0277871D01*
X0113838Y0279469D02*
X0124903Y0279469D01*
X0123304Y0281068D02*
X0113952Y0281068D01*
X0115234Y0282666D02*
X0121926Y0282666D01*
X0121533Y0284265D02*
X0115896Y0284265D01*
X0115938Y0285863D02*
X0121533Y0285863D01*
X0121533Y0287462D02*
X0115661Y0287462D01*
X0114984Y0289060D02*
X0121533Y0289060D01*
X0121533Y0290659D02*
X0113386Y0290659D01*
X0116536Y0297053D02*
X0098733Y0297053D01*
X0098733Y0295455D02*
X0122416Y0295455D01*
X0121558Y0293856D02*
X0098733Y0293856D01*
X0098733Y0292258D02*
X0121533Y0292258D01*
X0123731Y0297053D02*
X0124015Y0297053D01*
X0115568Y0298652D02*
X0098733Y0298652D01*
X0098733Y0300250D02*
X0112612Y0300250D01*
X0111014Y0301849D02*
X0098733Y0301849D01*
X0098733Y0303447D02*
X0109415Y0303447D01*
X0106043Y0305046D02*
X0098733Y0305046D01*
X0098733Y0306644D02*
X0105568Y0306644D01*
X0105568Y0308243D02*
X0098733Y0308243D01*
X0098733Y0309841D02*
X0105568Y0309841D01*
X0105779Y0311440D02*
X0098733Y0311440D01*
X0098733Y0313038D02*
X0106168Y0313038D01*
X0106168Y0314637D02*
X0098733Y0314637D01*
X0098733Y0316235D02*
X0106168Y0316235D01*
X0105860Y0317834D02*
X0103769Y0317834D01*
X0103700Y0317713D02*
X0103937Y0318124D01*
X0104059Y0318581D01*
X0104059Y0320652D01*
X0100367Y0320652D01*
X0100367Y0317018D01*
X0102496Y0317018D01*
X0102954Y0317141D01*
X0103365Y0317378D01*
X0103700Y0317713D01*
X0104059Y0319432D02*
X0105568Y0319432D01*
X0105568Y0321031D02*
X0100367Y0321031D01*
X0100367Y0319432D02*
X0099900Y0319432D01*
X0099900Y0317834D02*
X0100367Y0317834D01*
X0104059Y0322629D02*
X0105568Y0322629D01*
X0105899Y0324228D02*
X0104173Y0324228D01*
X0104659Y0325826D02*
X0105568Y0325826D01*
X0105568Y0327425D02*
X0104659Y0327425D01*
X0104659Y0329023D02*
X0105568Y0329023D01*
X0105775Y0330622D02*
X0104534Y0330622D01*
X0096533Y0332220D02*
X0080033Y0332220D01*
X0080033Y0330622D02*
X0095733Y0330622D01*
X0094735Y0329023D02*
X0080033Y0329023D01*
X0080033Y0327425D02*
X0093137Y0327425D01*
X0091856Y0325826D02*
X0080033Y0325826D01*
X0080033Y0324228D02*
X0091533Y0324228D01*
X0091533Y0322629D02*
X0080033Y0322629D01*
X0080033Y0321031D02*
X0091533Y0321031D01*
X0091533Y0319432D02*
X0080033Y0319432D01*
X0080033Y0317834D02*
X0091533Y0317834D01*
X0091533Y0316235D02*
X0080033Y0316235D01*
X0080033Y0314637D02*
X0091533Y0314637D01*
X0091533Y0313038D02*
X0080033Y0313038D01*
X0080033Y0311440D02*
X0091533Y0311440D01*
X0091533Y0309841D02*
X0080033Y0309841D01*
X0080033Y0308243D02*
X0091533Y0308243D01*
X0091533Y0306644D02*
X0080033Y0306644D01*
X0080033Y0305046D02*
X0091533Y0305046D01*
X0091533Y0303447D02*
X0080033Y0303447D01*
X0080033Y0301849D02*
X0091533Y0301849D01*
X0091533Y0300250D02*
X0080033Y0300250D01*
X0080033Y0298652D02*
X0091533Y0298652D01*
X0091533Y0297053D02*
X0080033Y0297053D01*
X0080033Y0295455D02*
X0091533Y0295455D01*
X0091533Y0293856D02*
X0080033Y0293856D01*
X0080033Y0292258D02*
X0091533Y0292258D01*
X0091533Y0290659D02*
X0080033Y0290659D01*
X0080033Y0289060D02*
X0091533Y0289060D01*
X0091533Y0287462D02*
X0080033Y0287462D01*
X0080033Y0285863D02*
X0091533Y0285863D01*
X0091533Y0284265D02*
X0080033Y0284265D01*
X0080033Y0282666D02*
X0091533Y0282666D01*
X0091533Y0281068D02*
X0080033Y0281068D01*
X0080033Y0279469D02*
X0091533Y0279469D01*
X0091533Y0277871D02*
X0080033Y0277871D01*
X0080033Y0276272D02*
X0091533Y0276272D01*
X0091533Y0274674D02*
X0080033Y0274674D01*
X0080033Y0273075D02*
X0091533Y0273075D01*
X0091533Y0271477D02*
X0080033Y0271477D01*
X0080033Y0269878D02*
X0091533Y0269878D01*
X0091533Y0268280D02*
X0080033Y0268280D01*
X0080033Y0266681D02*
X0091533Y0266681D01*
X0091533Y0265083D02*
X0080033Y0265083D01*
X0080033Y0263484D02*
X0091533Y0263484D01*
X0091731Y0261886D02*
X0080033Y0261886D01*
X0080033Y0260287D02*
X0092835Y0260287D01*
X0094434Y0258689D02*
X0080033Y0258689D01*
X0080033Y0257090D02*
X0096032Y0257090D01*
X0097631Y0255492D02*
X0080033Y0255492D01*
X0080033Y0253893D02*
X0099229Y0253893D01*
X0100828Y0252295D02*
X0080033Y0252295D01*
X0080033Y0250696D02*
X0102426Y0250696D01*
X0104025Y0249098D02*
X0080033Y0249098D01*
X0080033Y0247499D02*
X0105100Y0247499D01*
X0107813Y0255492D02*
X0117454Y0255492D01*
X0116577Y0257090D02*
X0116209Y0257090D01*
X0116209Y0258689D02*
X0116577Y0258689D01*
X0116577Y0260287D02*
X0116209Y0260287D01*
X0113282Y0257090D02*
X0106214Y0257090D01*
X0107098Y0258689D02*
X0104616Y0258689D01*
X0106291Y0259570D02*
X0106528Y0259160D01*
X0106863Y0258825D01*
X0107273Y0258588D01*
X0107731Y0258465D01*
X0109949Y0258465D01*
X0109949Y0262049D01*
X0106168Y0262049D01*
X0106168Y0260028D01*
X0106291Y0259570D01*
X0106168Y0260287D02*
X0103017Y0260287D01*
X0101419Y0261886D02*
X0106168Y0261886D01*
X0106168Y0263484D02*
X0099820Y0263484D01*
X0098733Y0265083D02*
X0106398Y0265083D01*
X0105568Y0266681D02*
X0098733Y0266681D01*
X0098733Y0268280D02*
X0105568Y0268280D01*
X0105568Y0269878D02*
X0098733Y0269878D01*
X0098733Y0271477D02*
X0105611Y0271477D01*
X0105838Y0273075D02*
X0098733Y0273075D01*
X0098733Y0274674D02*
X0105838Y0274674D01*
X0105838Y0276272D02*
X0098733Y0276272D01*
X0098733Y0277871D02*
X0105838Y0277871D01*
X0105838Y0279469D02*
X0098733Y0279469D01*
X0098733Y0281068D02*
X0105724Y0281068D01*
X0104442Y0282666D02*
X0098733Y0282666D01*
X0098733Y0284265D02*
X0103780Y0284265D01*
X0103738Y0285863D02*
X0098733Y0285863D01*
X0098733Y0287462D02*
X0104015Y0287462D01*
X0104692Y0289060D02*
X0098733Y0289060D01*
X0098733Y0290659D02*
X0106290Y0290659D01*
X0113838Y0276272D02*
X0128100Y0276272D01*
X0116778Y0274674D02*
X0113838Y0274674D01*
X0110318Y0261886D02*
X0109949Y0261886D01*
X0109949Y0260287D02*
X0110318Y0260287D01*
X0110318Y0258689D02*
X0109949Y0258689D01*
X0120167Y0247499D02*
X0157233Y0247499D01*
X0157233Y0245901D02*
X0080033Y0245901D01*
X0080033Y0244302D02*
X0130045Y0244302D01*
X0130210Y0244468D02*
X0129582Y0243840D01*
X0129061Y0243122D01*
X0128658Y0242331D01*
X0128384Y0241487D01*
X0128250Y0240646D01*
X0133404Y0240646D01*
X0133404Y0245800D01*
X0132563Y0245667D01*
X0131719Y0245392D01*
X0130928Y0244989D01*
X0130210Y0244468D01*
X0128848Y0242704D02*
X0080033Y0242704D01*
X0080033Y0241105D02*
X0128323Y0241105D01*
X0128279Y0239507D02*
X0080033Y0239507D01*
X0080033Y0237908D02*
X0128706Y0237908D01*
X0129766Y0236310D02*
X0080033Y0236310D01*
X0080033Y0234711D02*
X0132427Y0234711D01*
X0133404Y0236310D02*
X0134363Y0236310D01*
X0134363Y0237908D02*
X0133404Y0237908D01*
X0133404Y0239507D02*
X0134363Y0239507D01*
X0134363Y0241105D02*
X0133404Y0241105D01*
X0133404Y0242704D02*
X0134363Y0242704D01*
X0134363Y0244302D02*
X0133404Y0244302D01*
X0137722Y0244302D02*
X0141948Y0244302D01*
X0141166Y0242704D02*
X0138919Y0242704D01*
X0139444Y0241105D02*
X0141133Y0241105D01*
X0141800Y0239507D02*
X0139488Y0239507D01*
X0139061Y0237908D02*
X0144150Y0237908D01*
X0144883Y0236310D02*
X0138000Y0236310D01*
X0131065Y0233113D02*
X0080033Y0233113D01*
X0080033Y0231514D02*
X0129466Y0231514D01*
X0127867Y0229916D02*
X0080033Y0229916D01*
X0080033Y0228317D02*
X0126269Y0228317D01*
X0124670Y0226719D02*
X0080033Y0226719D01*
X0080033Y0225120D02*
X0123572Y0225120D01*
X0123483Y0223522D02*
X0080033Y0223522D01*
X0080033Y0221923D02*
X0123483Y0221923D01*
X0123483Y0220325D02*
X0080033Y0220325D01*
X0080033Y0218726D02*
X0123483Y0218726D01*
X0123483Y0217127D02*
X0080033Y0217127D01*
X0080033Y0215529D02*
X0123175Y0215529D01*
X0122406Y0213930D02*
X0080033Y0213930D01*
X0080033Y0212332D02*
X0122383Y0212332D01*
X0123073Y0210733D02*
X0080033Y0210733D01*
X0080033Y0209135D02*
X0125302Y0209135D01*
X0125302Y0207536D02*
X0080033Y0207536D01*
X0080033Y0205938D02*
X0125302Y0205938D01*
X0125302Y0204339D02*
X0080033Y0204339D01*
X0080033Y0202741D02*
X0125809Y0202741D01*
X0127465Y0188719D02*
X0127007Y0188596D01*
X0126597Y0188359D01*
X0126262Y0188024D01*
X0126025Y0187614D01*
X0125902Y0187156D01*
X0125902Y0184557D01*
X0128883Y0184557D01*
X0128883Y0188719D01*
X0127465Y0188719D01*
X0126592Y0188354D02*
X0080033Y0188354D01*
X0080033Y0186756D02*
X0125902Y0186756D01*
X0125902Y0185157D02*
X0080033Y0185157D01*
X0080033Y0183559D02*
X0125902Y0183559D01*
X0125902Y0184557D02*
X0125902Y0181957D01*
X0126025Y0181500D01*
X0126262Y0181089D01*
X0126597Y0180754D01*
X0127007Y0180517D01*
X0127465Y0180394D01*
X0128606Y0180394D01*
X0128094Y0179882D01*
X0127081Y0178869D01*
X0126533Y0177546D01*
X0126533Y0168580D01*
X0123287Y0168580D01*
X0122184Y0168123D01*
X0120934Y0166873D01*
X0120090Y0166030D01*
X0119633Y0164927D01*
X0119633Y0156233D01*
X0120090Y0155131D01*
X0121340Y0153881D01*
X0122184Y0153037D01*
X0123287Y0152580D01*
X0143230Y0152580D01*
X0144333Y0153037D01*
X0145583Y0154287D01*
X0146427Y0155131D01*
X0146883Y0156233D01*
X0146883Y0164927D01*
X0146427Y0166030D01*
X0145177Y0167280D01*
X0144333Y0168123D01*
X0143230Y0168580D01*
X0143132Y0168580D01*
X0143331Y0169059D01*
X0143331Y0177101D01*
X0142965Y0177983D01*
X0142562Y0178386D01*
X0142562Y0179794D01*
X0144578Y0179794D01*
X0145283Y0179089D01*
X0145283Y0178465D01*
X0144801Y0177983D01*
X0144436Y0177101D01*
X0144436Y0169059D01*
X0144801Y0168177D01*
X0145477Y0167502D01*
X0146359Y0167137D01*
X0151250Y0167137D01*
X0152133Y0167502D01*
X0152808Y0168177D01*
X0153173Y0169059D01*
X0153173Y0177101D01*
X0152808Y0177983D01*
X0152483Y0178307D01*
X0152483Y0181296D01*
X0151935Y0182619D01*
X0150923Y0183632D01*
X0147464Y0187090D01*
X0147464Y0187396D01*
X0147099Y0188278D01*
X0146424Y0188953D01*
X0145542Y0189319D01*
X0142225Y0189319D01*
X0141383Y0188970D01*
X0140542Y0189319D01*
X0137225Y0189319D01*
X0136383Y0188970D01*
X0135542Y0189319D01*
X0132225Y0189319D01*
X0131343Y0188953D01*
X0130903Y0188513D01*
X0130759Y0188596D01*
X0130301Y0188719D01*
X0128883Y0188719D01*
X0128883Y0184557D01*
X0128883Y0184557D01*
X0128883Y0184557D01*
X0125902Y0184557D01*
X0125902Y0181960D02*
X0080033Y0181960D01*
X0080033Y0180362D02*
X0128574Y0180362D01*
X0127037Y0178763D02*
X0080033Y0178763D01*
X0080033Y0177165D02*
X0126533Y0177165D01*
X0126533Y0175566D02*
X0080033Y0175566D01*
X0080033Y0173968D02*
X0126533Y0173968D01*
X0126533Y0172369D02*
X0080033Y0172369D01*
X0080033Y0170771D02*
X0126533Y0170771D01*
X0126533Y0169172D02*
X0080033Y0169172D01*
X0080033Y0167574D02*
X0121634Y0167574D01*
X0120068Y0165975D02*
X0080033Y0165975D01*
X0080033Y0164377D02*
X0119633Y0164377D01*
X0119633Y0162778D02*
X0080033Y0162778D01*
X0080033Y0161180D02*
X0119633Y0161180D01*
X0119633Y0159581D02*
X0080033Y0159581D01*
X0080033Y0157983D02*
X0119633Y0157983D01*
X0119633Y0156384D02*
X0080033Y0156384D01*
X0080033Y0154786D02*
X0120435Y0154786D01*
X0122034Y0153187D02*
X0080033Y0153187D01*
X0080033Y0151589D02*
X0148550Y0151589D01*
X0146952Y0149990D02*
X0080033Y0149990D01*
X0080033Y0148391D02*
X0145633Y0148391D01*
X0145283Y0146793D02*
X0080033Y0146793D01*
X0080033Y0145194D02*
X0145283Y0145194D01*
X0145283Y0143596D02*
X0080033Y0143596D01*
X0080033Y0141997D02*
X0145283Y0141997D01*
X0145283Y0140399D02*
X0080033Y0140399D01*
X0080033Y0138800D02*
X0095255Y0138800D01*
X0095627Y0138955D02*
X0092502Y0137660D01*
X0090110Y0135268D01*
X0088816Y0132143D01*
X0088816Y0128761D01*
X0090110Y0125636D01*
X0092502Y0123244D01*
X0095627Y0121950D01*
X0099010Y0121950D01*
X0102135Y0123244D01*
X0104526Y0125636D01*
X0105821Y0128761D01*
X0105821Y0132143D01*
X0104526Y0135268D01*
X0102135Y0137660D01*
X0099010Y0138955D01*
X0095627Y0138955D01*
X0099382Y0138800D02*
X0145283Y0138800D01*
X0145283Y0137202D02*
X0102593Y0137202D01*
X0104191Y0135603D02*
X0145283Y0135603D01*
X0145283Y0134005D02*
X0105050Y0134005D01*
X0105712Y0132406D02*
X0145283Y0132406D01*
X0145283Y0130808D02*
X0105821Y0130808D01*
X0105821Y0129209D02*
X0145283Y0129209D01*
X0145283Y0127611D02*
X0105344Y0127611D01*
X0104682Y0126012D02*
X0144970Y0126012D01*
X0144230Y0124414D02*
X0103304Y0124414D01*
X0101099Y0122815D02*
X0144015Y0122815D01*
X0144015Y0121217D02*
X0080033Y0121217D01*
X0080033Y0122815D02*
X0093538Y0122815D01*
X0091333Y0124414D02*
X0080033Y0124414D01*
X0080033Y0126012D02*
X0089955Y0126012D01*
X0089292Y0127611D02*
X0080033Y0127611D01*
X0080033Y0129209D02*
X0088816Y0129209D01*
X0088816Y0130808D02*
X0080033Y0130808D01*
X0080033Y0132406D02*
X0088925Y0132406D01*
X0089587Y0134005D02*
X0080033Y0134005D01*
X0080033Y0135603D02*
X0090445Y0135603D01*
X0092044Y0137202D02*
X0080033Y0137202D01*
X0080033Y0119618D02*
X0144015Y0119618D01*
X0144015Y0118020D02*
X0080033Y0118020D01*
X0080033Y0116421D02*
X0144015Y0116421D01*
X0144397Y0114823D02*
X0080033Y0114823D01*
X0080033Y0113224D02*
X0145374Y0113224D01*
X0147845Y0111626D02*
X0080033Y0111626D01*
X0144483Y0153187D02*
X0150149Y0153187D01*
X0151748Y0154786D02*
X0146081Y0154786D01*
X0146883Y0156384D02*
X0153346Y0156384D01*
X0154945Y0157983D02*
X0146883Y0157983D01*
X0146883Y0159581D02*
X0156543Y0159581D01*
X0158142Y0161180D02*
X0146883Y0161180D01*
X0146883Y0162778D02*
X0159033Y0162778D01*
X0159033Y0164377D02*
X0146883Y0164377D01*
X0146449Y0165975D02*
X0159033Y0165975D01*
X0159033Y0167574D02*
X0152204Y0167574D01*
X0153173Y0169172D02*
X0159033Y0169172D01*
X0159033Y0170771D02*
X0153173Y0170771D01*
X0153173Y0172369D02*
X0159033Y0172369D01*
X0159033Y0173968D02*
X0153173Y0173968D01*
X0153173Y0175566D02*
X0159033Y0175566D01*
X0159033Y0177165D02*
X0153147Y0177165D01*
X0152483Y0178763D02*
X0159033Y0178763D01*
X0159033Y0180362D02*
X0152483Y0180362D01*
X0152208Y0181960D02*
X0159033Y0181960D01*
X0159033Y0183559D02*
X0150996Y0183559D01*
X0149397Y0185157D02*
X0159033Y0185157D01*
X0159033Y0186756D02*
X0147799Y0186756D01*
X0147023Y0188354D02*
X0151200Y0188354D01*
X0149957Y0189953D02*
X0080033Y0189953D01*
X0080033Y0191551D02*
X0149957Y0191551D01*
X0149957Y0193150D02*
X0080033Y0193150D01*
X0080033Y0194748D02*
X0150040Y0194748D01*
X0149413Y0196347D02*
X0080033Y0196347D01*
X0080033Y0197945D02*
X0149357Y0197945D01*
X0149357Y0199544D02*
X0080033Y0199544D01*
X0080033Y0201142D02*
X0149357Y0201142D01*
X0154117Y0191902D02*
X0157809Y0191902D01*
X0157809Y0189831D01*
X0157687Y0189374D01*
X0157450Y0188963D01*
X0157115Y0188628D01*
X0156704Y0188391D01*
X0156246Y0188268D01*
X0154117Y0188268D01*
X0154117Y0191902D01*
X0154117Y0191551D02*
X0153650Y0191551D01*
X0153650Y0189953D02*
X0154117Y0189953D01*
X0154117Y0188354D02*
X0153650Y0188354D01*
X0156567Y0188354D02*
X0159033Y0188354D01*
X0159033Y0189953D02*
X0157809Y0189953D01*
X0157809Y0191551D02*
X0159033Y0191551D01*
X0159033Y0193150D02*
X0157809Y0193150D01*
X0157726Y0194748D02*
X0159033Y0194748D01*
X0145283Y0178763D02*
X0142562Y0178763D01*
X0143304Y0177165D02*
X0144463Y0177165D01*
X0144436Y0175566D02*
X0143331Y0175566D01*
X0143331Y0173968D02*
X0144436Y0173968D01*
X0144436Y0172369D02*
X0143331Y0172369D01*
X0143331Y0170771D02*
X0144436Y0170771D01*
X0144436Y0169172D02*
X0143331Y0169172D01*
X0144883Y0167574D02*
X0145405Y0167574D01*
X0128883Y0185157D02*
X0128883Y0185157D01*
X0128883Y0186756D02*
X0128883Y0186756D01*
X0128883Y0188354D02*
X0128883Y0188354D01*
X0157111Y0242704D02*
X0157233Y0242704D01*
X0157233Y0244302D02*
X0155494Y0244302D01*
X0157233Y0249098D02*
X0121242Y0249098D01*
X0122841Y0250696D02*
X0157233Y0250696D01*
X0157233Y0252295D02*
X0124439Y0252295D01*
X0125831Y0253893D02*
X0158095Y0253893D01*
X0165425Y0263484D02*
X0167461Y0263484D01*
X0189593Y0287462D02*
X0191983Y0287462D01*
X0191983Y0289060D02*
X0187994Y0289060D01*
X0186396Y0290659D02*
X0191983Y0290659D01*
X0191983Y0292258D02*
X0184797Y0292258D01*
X0187816Y0293856D02*
X0191983Y0293856D01*
X0191983Y0295455D02*
X0188893Y0295455D01*
X0189133Y0297053D02*
X0191983Y0297053D01*
X0191983Y0298652D02*
X0188708Y0298652D01*
X0187330Y0300250D02*
X0191983Y0300250D01*
X0191983Y0301849D02*
X0146716Y0301849D01*
X0145533Y0303447D02*
X0191983Y0303447D01*
X0191983Y0305046D02*
X0145533Y0305046D01*
X0145533Y0306644D02*
X0191983Y0306644D01*
X0191983Y0308243D02*
X0145533Y0308243D01*
X0145533Y0309841D02*
X0191983Y0309841D01*
X0191983Y0311440D02*
X0145533Y0311440D01*
X0145533Y0313038D02*
X0191983Y0313038D01*
X0191983Y0314637D02*
X0145533Y0314637D01*
X0145533Y0316235D02*
X0156627Y0316235D01*
X0156425Y0316437D02*
X0157241Y0315622D01*
X0158306Y0315180D01*
X0175710Y0315180D01*
X0176776Y0315622D01*
X0177592Y0316437D01*
X0178033Y0317503D01*
X0178033Y0324907D01*
X0177911Y0325201D01*
X0199899Y0347189D01*
X0201024Y0348314D01*
X0201633Y0349785D01*
X0201633Y0371376D01*
X0201024Y0372846D01*
X0196024Y0377846D01*
X0194899Y0378971D01*
X0193429Y0379580D01*
X0183985Y0379580D01*
X0183026Y0380539D01*
X0181960Y0380980D01*
X0165806Y0380980D01*
X0164741Y0380539D01*
X0163925Y0379723D01*
X0162675Y0378473D01*
X0162233Y0377407D01*
X0162233Y0370003D01*
X0162675Y0368937D01*
X0163491Y0368122D01*
X0165991Y0365622D01*
X0167056Y0365180D01*
X0180710Y0365180D01*
X0181776Y0365622D01*
X0182592Y0366437D01*
X0182592Y0366437D01*
X0184276Y0368122D01*
X0185092Y0368937D01*
X0185533Y0370003D01*
X0185533Y0371580D01*
X0190976Y0371580D01*
X0193633Y0368923D01*
X0193633Y0352237D01*
X0173476Y0332080D01*
X0171485Y0332080D01*
X0170092Y0333473D01*
X0169276Y0334289D01*
X0168210Y0334730D01*
X0158306Y0334730D01*
X0157241Y0334289D01*
X0156425Y0333473D01*
X0154741Y0331789D01*
X0153925Y0330973D01*
X0153483Y0329907D01*
X0153483Y0320003D01*
X0153925Y0318937D01*
X0156425Y0316437D01*
X0155029Y0317834D02*
X0145533Y0317834D01*
X0145533Y0319432D02*
X0153720Y0319432D01*
X0153483Y0321031D02*
X0145533Y0321031D01*
X0145533Y0322629D02*
X0153483Y0322629D01*
X0153483Y0324228D02*
X0145297Y0324228D01*
X0143988Y0325826D02*
X0153483Y0325826D01*
X0153483Y0327425D02*
X0142390Y0327425D01*
X0137041Y0329023D02*
X0153483Y0329023D01*
X0153779Y0330622D02*
X0135443Y0330622D01*
X0133844Y0332220D02*
X0155172Y0332220D01*
X0156425Y0333473D02*
X0156425Y0333473D01*
X0156771Y0333819D02*
X0132246Y0333819D01*
X0130647Y0335417D02*
X0176814Y0335417D01*
X0176383Y0336830D02*
X0170133Y0336830D01*
X0169338Y0337830D02*
X0170929Y0337830D01*
X0172399Y0338439D01*
X0173524Y0339564D01*
X0174133Y0341035D01*
X0174133Y0342626D01*
X0173524Y0344096D01*
X0172399Y0345221D01*
X0170929Y0345830D01*
X0170235Y0345830D01*
X0136783Y0379281D01*
X0136783Y0386573D01*
X0137274Y0387064D01*
X0137883Y0388535D01*
X0137883Y0390126D01*
X0137274Y0391596D01*
X0136149Y0392721D01*
X0134679Y0393330D01*
X0133088Y0393330D01*
X0131618Y0392721D01*
X0130492Y0391596D01*
X0129883Y0390126D01*
X0129883Y0388535D01*
X0130492Y0387064D01*
X0130983Y0386573D01*
X0130983Y0377503D01*
X0131425Y0376437D01*
X0132241Y0375622D01*
X0166133Y0341729D01*
X0166133Y0341035D01*
X0166742Y0339564D01*
X0167868Y0338439D01*
X0169338Y0337830D01*
X0167692Y0338614D02*
X0127450Y0338614D01*
X0125852Y0340213D02*
X0166474Y0340213D01*
X0166051Y0341811D02*
X0124253Y0341811D01*
X0122655Y0343410D02*
X0164452Y0343410D01*
X0162854Y0345008D02*
X0121056Y0345008D01*
X0119458Y0346607D02*
X0161255Y0346607D01*
X0159657Y0348205D02*
X0117885Y0348205D01*
X0111750Y0349804D02*
X0158058Y0349804D01*
X0156460Y0351402D02*
X0080033Y0351402D01*
X0080033Y0349804D02*
X0098516Y0349804D01*
X0097418Y0348205D02*
X0080033Y0348205D01*
X0080033Y0346607D02*
X0097418Y0346607D01*
X0097418Y0345008D02*
X0080033Y0345008D01*
X0080033Y0343410D02*
X0097418Y0343410D01*
X0098028Y0341811D02*
X0080033Y0341811D01*
X0080033Y0340213D02*
X0098187Y0340213D01*
X0097400Y0338614D02*
X0080033Y0338614D01*
X0080033Y0337016D02*
X0097222Y0337016D01*
X0096813Y0335417D02*
X0080033Y0335417D01*
X0080033Y0333819D02*
X0096533Y0333819D01*
X0105058Y0349804D02*
X0105209Y0349804D01*
X0080033Y0353001D02*
X0154861Y0353001D01*
X0153263Y0354599D02*
X0080033Y0354599D01*
X0080033Y0356198D02*
X0151664Y0356198D01*
X0150066Y0357796D02*
X0080033Y0357796D01*
X0080033Y0359395D02*
X0148467Y0359395D01*
X0146869Y0360994D02*
X0080033Y0360994D01*
X0080033Y0362592D02*
X0145270Y0362592D01*
X0143672Y0364191D02*
X0080033Y0364191D01*
X0080033Y0365789D02*
X0142073Y0365789D01*
X0140475Y0367388D02*
X0080033Y0367388D01*
X0080033Y0368986D02*
X0138876Y0368986D01*
X0137278Y0370585D02*
X0080033Y0370585D01*
X0080033Y0372183D02*
X0135679Y0372183D01*
X0134081Y0373782D02*
X0080033Y0373782D01*
X0080033Y0375380D02*
X0132482Y0375380D01*
X0131201Y0376979D02*
X0080033Y0376979D01*
X0080033Y0378577D02*
X0130983Y0378577D01*
X0130983Y0380176D02*
X0080033Y0380176D01*
X0080033Y0381774D02*
X0130983Y0381774D01*
X0130983Y0383373D02*
X0080033Y0383373D01*
X0080033Y0384971D02*
X0130983Y0384971D01*
X0130983Y0386570D02*
X0080033Y0386570D01*
X0080033Y0388168D02*
X0130035Y0388168D01*
X0129883Y0389767D02*
X0080033Y0389767D01*
X0080033Y0391365D02*
X0130397Y0391365D01*
X0132203Y0392964D02*
X0080033Y0392964D01*
X0080033Y0394562D02*
X0137050Y0394562D01*
X0135564Y0392964D02*
X0214566Y0392964D01*
X0214566Y0394562D02*
X0151967Y0394562D01*
X0153565Y0396161D02*
X0214566Y0396161D01*
X0215287Y0397759D02*
X0155164Y0397759D01*
X0156516Y0399358D02*
X0216885Y0399358D01*
X0218484Y0400956D02*
X0156783Y0400956D01*
X0156783Y0402555D02*
X0220082Y0402555D01*
X0221681Y0404153D02*
X0156783Y0404153D01*
X0156783Y0405752D02*
X0223279Y0405752D01*
X0225133Y0403080D02*
X0217766Y0395713D01*
X0217766Y0374989D01*
X0212366Y0375380D02*
X0198490Y0375380D01*
X0196892Y0376979D02*
X0212366Y0376979D01*
X0212366Y0378577D02*
X0195293Y0378577D01*
X0200089Y0373782D02*
X0212366Y0373782D01*
X0212366Y0372183D02*
X0201299Y0372183D01*
X0201633Y0370585D02*
X0212503Y0370585D01*
X0213165Y0368986D02*
X0201633Y0368986D01*
X0201633Y0367388D02*
X0214764Y0367388D01*
X0220768Y0367388D02*
X0223233Y0367388D01*
X0223233Y0365789D02*
X0201633Y0365789D01*
X0201633Y0364191D02*
X0223233Y0364191D01*
X0223233Y0362592D02*
X0201633Y0362592D01*
X0201633Y0360994D02*
X0223233Y0360994D01*
X0222564Y0359395D02*
X0201633Y0359395D01*
X0201633Y0357796D02*
X0220826Y0357796D01*
X0219089Y0356198D02*
X0201633Y0356198D01*
X0201633Y0354599D02*
X0217351Y0354599D01*
X0215614Y0353001D02*
X0201633Y0353001D01*
X0201633Y0351402D02*
X0213876Y0351402D01*
X0212139Y0349804D02*
X0201633Y0349804D01*
X0200915Y0348205D02*
X0210401Y0348205D01*
X0208664Y0346607D02*
X0199317Y0346607D01*
X0197718Y0345008D02*
X0206926Y0345008D01*
X0205189Y0343410D02*
X0196120Y0343410D01*
X0194521Y0341811D02*
X0203451Y0341811D01*
X0201714Y0340213D02*
X0192923Y0340213D01*
X0191324Y0338614D02*
X0199976Y0338614D01*
X0198239Y0337016D02*
X0189726Y0337016D01*
X0188127Y0335417D02*
X0196501Y0335417D01*
X0194764Y0333819D02*
X0186529Y0333819D01*
X0184930Y0332220D02*
X0193026Y0332220D01*
X0192132Y0330622D02*
X0183332Y0330622D01*
X0181733Y0329023D02*
X0191967Y0329023D01*
X0191983Y0327425D02*
X0180135Y0327425D01*
X0178536Y0325826D02*
X0191983Y0325826D01*
X0191983Y0324228D02*
X0178033Y0324228D01*
X0178033Y0322629D02*
X0191983Y0322629D01*
X0191983Y0321031D02*
X0178033Y0321031D01*
X0178033Y0319432D02*
X0191983Y0319432D01*
X0191983Y0317834D02*
X0178033Y0317834D01*
X0177390Y0316235D02*
X0191983Y0316235D01*
X0200783Y0316235D02*
X0218068Y0316235D01*
X0218068Y0316373D02*
X0218068Y0311481D01*
X0218433Y0310599D01*
X0218452Y0310580D01*
X0218433Y0310562D01*
X0218068Y0309680D01*
X0218068Y0304788D01*
X0218433Y0303906D01*
X0219108Y0303231D01*
X0219288Y0303156D01*
X0219288Y0302498D01*
X0218760Y0302498D01*
X0217878Y0302133D01*
X0217203Y0301457D01*
X0216838Y0300575D01*
X0216838Y0295684D01*
X0217191Y0294830D01*
X0206540Y0294830D01*
X0206149Y0295221D01*
X0204679Y0295830D01*
X0203088Y0295830D01*
X0201618Y0295221D01*
X0200783Y0294387D01*
X0200783Y0327399D01*
X0230038Y0354314D01*
X0230126Y0354350D01*
X0230680Y0354904D01*
X0231256Y0355435D01*
X0231296Y0355521D01*
X0231363Y0355588D01*
X0231663Y0356312D01*
X0231993Y0357023D01*
X0231997Y0357117D01*
X0232033Y0357205D01*
X0232033Y0357989D01*
X0232066Y0358771D01*
X0232033Y0358861D01*
X0232033Y0368619D01*
X0232344Y0368930D01*
X0233111Y0370782D01*
X0233318Y0370146D01*
X0233661Y0369473D01*
X0234105Y0368862D01*
X0234639Y0368328D01*
X0235250Y0367883D01*
X0235923Y0367540D01*
X0236642Y0367307D01*
X0237388Y0367189D01*
X0237566Y0367189D01*
X0237566Y0374789D01*
X0237966Y0374789D01*
X0237966Y0367189D01*
X0238144Y0367189D01*
X0238890Y0367307D01*
X0239609Y0367540D01*
X0240282Y0367883D01*
X0240893Y0368328D01*
X0241427Y0368862D01*
X0241871Y0369473D01*
X0242214Y0370146D01*
X0242421Y0370782D01*
X0243188Y0368930D01*
X0244707Y0367411D01*
X0246692Y0366589D01*
X0248840Y0366589D01*
X0250825Y0367411D01*
X0252344Y0368930D01*
X0253166Y0370915D01*
X0253166Y0379063D01*
X0252344Y0381048D01*
X0250825Y0382567D01*
X0248840Y0383389D01*
X0246692Y0383389D01*
X0244707Y0382567D01*
X0243188Y0381048D01*
X0242421Y0379195D01*
X0242214Y0379831D01*
X0241871Y0380505D01*
X0241427Y0381116D01*
X0240893Y0381650D01*
X0240282Y0382094D01*
X0239609Y0382437D01*
X0238890Y0382671D01*
X0238144Y0382789D01*
X0237966Y0382789D01*
X0237966Y0375189D01*
X0237566Y0375189D01*
X0237566Y0382789D01*
X0237388Y0382789D01*
X0236642Y0382671D01*
X0235923Y0382437D01*
X0235250Y0382094D01*
X0234639Y0381650D01*
X0234105Y0381116D01*
X0233661Y0380505D01*
X0233588Y0380363D01*
X0233588Y0384204D01*
X0233774Y0384154D01*
X0235845Y0384154D01*
X0235845Y0387847D01*
X0236312Y0387847D01*
X0236312Y0388314D01*
X0235845Y0388314D01*
X0235845Y0392006D01*
X0233774Y0392006D01*
X0233316Y0391884D01*
X0233098Y0391757D01*
X0232615Y0392241D01*
X0231733Y0392606D01*
X0226644Y0392606D01*
X0225762Y0392241D01*
X0225087Y0391566D01*
X0224722Y0390684D01*
X0224722Y0385477D01*
X0224788Y0385315D01*
X0224788Y0382600D01*
X0224707Y0382567D01*
X0223188Y0381048D01*
X0222766Y0380029D01*
X0222344Y0381048D01*
X0220966Y0382426D01*
X0220966Y0394387D01*
X0226459Y0399880D01*
X0228709Y0399880D01*
X0229108Y0399481D01*
X0229991Y0399115D01*
X0235276Y0399115D01*
X0236158Y0399481D01*
X0236833Y0400156D01*
X0237199Y0401038D01*
X0237199Y0405930D01*
X0236833Y0406812D01*
X0236815Y0406830D01*
X0236833Y0406849D01*
X0237199Y0407731D01*
X0237199Y0410217D01*
X0249577Y0422594D01*
X0250477Y0423495D01*
X0250964Y0424671D01*
X0250964Y0438288D01*
X0252342Y0439665D01*
X0253164Y0441650D01*
X0253164Y0449798D01*
X0252342Y0451783D01*
X0250823Y0453302D01*
X0248838Y0454124D01*
X0246690Y0454124D01*
X0244705Y0453302D01*
X0243186Y0451783D01*
X0242419Y0449931D01*
X0242212Y0450567D01*
X0241869Y0451240D01*
X0241425Y0451851D01*
X0240891Y0452386D01*
X0240280Y0452830D01*
X0239606Y0453173D01*
X0239269Y0453282D01*
X0239585Y0453599D01*
X0239822Y0454009D01*
X0239945Y0454467D01*
X0239945Y0456597D01*
X0236312Y0456597D01*
X0236312Y0457064D01*
X0239945Y0457064D01*
X0239945Y0459193D01*
X0239822Y0459651D01*
X0239690Y0459880D01*
X0250058Y0459880D01*
X0254433Y0455505D01*
X0254433Y0341906D01*
X0250058Y0337530D01*
X0236997Y0337530D01*
X0235821Y0337043D01*
X0234920Y0336143D01*
X0219920Y0321143D01*
X0219433Y0319967D01*
X0219433Y0318064D01*
X0219108Y0317930D01*
X0218433Y0317255D01*
X0218068Y0316373D01*
X0218068Y0314637D02*
X0200783Y0314637D01*
X0200783Y0313038D02*
X0218068Y0313038D01*
X0218085Y0311440D02*
X0200783Y0311440D01*
X0200783Y0309841D02*
X0218135Y0309841D01*
X0218068Y0308243D02*
X0200783Y0308243D01*
X0200783Y0306644D02*
X0218068Y0306644D01*
X0218068Y0305046D02*
X0200783Y0305046D01*
X0200783Y0303447D02*
X0218892Y0303447D01*
X0217594Y0301849D02*
X0200783Y0301849D01*
X0200783Y0300250D02*
X0216838Y0300250D01*
X0216838Y0298652D02*
X0200783Y0298652D01*
X0200783Y0297053D02*
X0216838Y0297053D01*
X0216933Y0295455D02*
X0205586Y0295455D01*
X0202181Y0295455D02*
X0200783Y0295455D01*
X0191983Y0285863D02*
X0191191Y0285863D01*
X0182937Y0300250D02*
X0148315Y0300250D01*
X0116174Y0316830D02*
X0116174Y0316830D01*
X0115912Y0316830D01*
X0115912Y0316710D01*
X0114099Y0314897D01*
X0114099Y0314992D01*
X0110318Y0314992D01*
X0110318Y0315361D01*
X0114099Y0315361D01*
X0114099Y0317382D01*
X0114090Y0317413D01*
X0114333Y0317656D01*
X0114571Y0318230D01*
X0115312Y0318230D01*
X0115312Y0318223D01*
X0115677Y0317341D01*
X0115912Y0317106D01*
X0115912Y0316830D01*
X0116174Y0316830D01*
X0115437Y0316235D02*
X0114099Y0316235D01*
X0114407Y0317834D02*
X0115473Y0317834D01*
X0129049Y0337016D02*
X0178412Y0337016D01*
X0180011Y0338614D02*
X0172574Y0338614D01*
X0173793Y0340213D02*
X0181609Y0340213D01*
X0183208Y0341811D02*
X0174133Y0341811D01*
X0173809Y0343410D02*
X0184806Y0343410D01*
X0186405Y0345008D02*
X0172612Y0345008D01*
X0169458Y0346607D02*
X0188003Y0346607D01*
X0189602Y0348205D02*
X0167859Y0348205D01*
X0166261Y0349804D02*
X0191200Y0349804D01*
X0192799Y0351402D02*
X0164662Y0351402D01*
X0163064Y0353001D02*
X0193633Y0353001D01*
X0193633Y0354599D02*
X0161465Y0354599D01*
X0159867Y0356198D02*
X0193633Y0356198D01*
X0193633Y0357796D02*
X0158268Y0357796D01*
X0156670Y0359395D02*
X0193633Y0359395D01*
X0193633Y0360994D02*
X0155071Y0360994D01*
X0153473Y0362592D02*
X0193633Y0362592D01*
X0193633Y0364191D02*
X0151874Y0364191D01*
X0150276Y0365789D02*
X0165823Y0365789D01*
X0164225Y0367388D02*
X0148677Y0367388D01*
X0147079Y0368986D02*
X0162655Y0368986D01*
X0163491Y0368122D02*
X0163491Y0368122D01*
X0162233Y0370585D02*
X0145480Y0370585D01*
X0143882Y0372183D02*
X0162233Y0372183D01*
X0162233Y0373782D02*
X0142283Y0373782D01*
X0140685Y0375380D02*
X0162233Y0375380D01*
X0162233Y0376979D02*
X0139086Y0376979D01*
X0137488Y0378577D02*
X0162779Y0378577D01*
X0164378Y0380176D02*
X0136783Y0380176D01*
X0136783Y0381774D02*
X0213915Y0381774D01*
X0214566Y0383373D02*
X0136783Y0383373D01*
X0136783Y0384971D02*
X0214566Y0384971D01*
X0214566Y0386570D02*
X0136783Y0386570D01*
X0137732Y0388168D02*
X0214566Y0388168D01*
X0214566Y0389767D02*
X0137883Y0389767D01*
X0137370Y0391365D02*
X0214566Y0391365D01*
X0220966Y0391365D02*
X0225004Y0391365D01*
X0224722Y0389767D02*
X0220966Y0389767D01*
X0220966Y0388168D02*
X0224722Y0388168D01*
X0224722Y0386570D02*
X0220966Y0386570D01*
X0220966Y0384971D02*
X0224788Y0384971D01*
X0224788Y0383373D02*
X0220966Y0383373D01*
X0221617Y0381774D02*
X0223915Y0381774D01*
X0222827Y0380176D02*
X0222705Y0380176D01*
X0212827Y0380176D02*
X0183389Y0380176D01*
X0185533Y0370585D02*
X0191972Y0370585D01*
X0193571Y0368986D02*
X0185112Y0368986D01*
X0184276Y0368122D02*
X0184276Y0368122D01*
X0183542Y0367388D02*
X0193633Y0367388D01*
X0193633Y0365789D02*
X0181943Y0365789D01*
X0175215Y0333819D02*
X0169746Y0333819D01*
X0171344Y0332220D02*
X0173617Y0332220D01*
X0200811Y0327425D02*
X0226202Y0327425D01*
X0224604Y0325826D02*
X0200783Y0325826D01*
X0200783Y0324228D02*
X0223005Y0324228D01*
X0221407Y0322629D02*
X0200783Y0322629D01*
X0200783Y0321031D02*
X0219874Y0321031D01*
X0219433Y0319432D02*
X0200783Y0319432D01*
X0200783Y0317834D02*
X0219012Y0317834D01*
X0222633Y0319330D02*
X0222633Y0313927D01*
X0227199Y0314637D02*
X0233695Y0314637D01*
X0233633Y0316235D02*
X0227199Y0316235D01*
X0226254Y0317834D02*
X0234237Y0317834D01*
X0236480Y0319432D02*
X0227261Y0319432D01*
X0228859Y0321031D02*
X0248841Y0321031D01*
X0250440Y0322629D02*
X0230458Y0322629D01*
X0232056Y0324228D02*
X0252038Y0324228D01*
X0253637Y0325826D02*
X0233655Y0325826D01*
X0235253Y0327425D02*
X0255235Y0327425D01*
X0256834Y0329023D02*
X0236852Y0329023D01*
X0238450Y0330622D02*
X0258432Y0330622D01*
X0260031Y0332220D02*
X0253799Y0332220D01*
X0255397Y0333819D02*
X0261629Y0333819D01*
X0263228Y0335417D02*
X0256996Y0335417D01*
X0258594Y0337016D02*
X0264826Y0337016D01*
X0266425Y0338614D02*
X0260193Y0338614D01*
X0260833Y0340213D02*
X0268023Y0340213D01*
X0269622Y0341811D02*
X0260833Y0341811D01*
X0260833Y0343410D02*
X0271220Y0343410D01*
X0272819Y0345008D02*
X0260833Y0345008D01*
X0260833Y0346607D02*
X0274417Y0346607D01*
X0276016Y0348205D02*
X0260833Y0348205D01*
X0260833Y0349804D02*
X0277614Y0349804D01*
X0279213Y0351402D02*
X0260833Y0351402D01*
X0260833Y0353001D02*
X0280811Y0353001D01*
X0282410Y0354599D02*
X0260833Y0354599D01*
X0260833Y0356198D02*
X0284008Y0356198D01*
X0292626Y0345080D02*
X0302891Y0345080D01*
X0302590Y0344780D01*
X0297590Y0339780D01*
X0297133Y0338677D01*
X0297133Y0314487D01*
X0296742Y0314096D01*
X0296133Y0312626D01*
X0296133Y0311035D01*
X0296742Y0309564D01*
X0297868Y0308439D01*
X0299338Y0307830D01*
X0300929Y0307830D01*
X0302399Y0308439D01*
X0303524Y0309564D01*
X0304133Y0311035D01*
X0304133Y0312626D01*
X0303524Y0314096D01*
X0303133Y0314487D01*
X0303133Y0336838D01*
X0306376Y0340080D01*
X0329480Y0340080D01*
X0330583Y0340537D01*
X0333083Y0343037D01*
X0333383Y0343338D01*
X0333383Y0329983D01*
X0333840Y0328881D01*
X0336133Y0326588D01*
X0336133Y0326035D01*
X0336742Y0324564D01*
X0337868Y0323439D01*
X0339338Y0322830D01*
X0340641Y0322830D01*
X0340141Y0322330D01*
X0338287Y0322330D01*
X0337184Y0321873D01*
X0336340Y0321030D01*
X0332590Y0317280D01*
X0332133Y0316177D01*
X0332133Y0312483D01*
X0332590Y0311381D01*
X0333434Y0310537D01*
X0339684Y0304287D01*
X0340787Y0303830D01*
X0354976Y0303830D01*
X0355368Y0303439D01*
X0356838Y0302830D01*
X0358429Y0302830D01*
X0359899Y0303439D01*
X0361024Y0304564D01*
X0361383Y0305431D01*
X0361742Y0304564D01*
X0362868Y0303439D01*
X0364338Y0302830D01*
X0365929Y0302830D01*
X0367399Y0303439D01*
X0368524Y0304564D01*
X0369133Y0306035D01*
X0369133Y0307626D01*
X0368524Y0309096D01*
X0368133Y0309487D01*
X0368133Y0333088D01*
X0376626Y0341580D01*
X0377179Y0341580D01*
X0378383Y0342079D01*
X0378383Y0311685D01*
X0377868Y0311471D01*
X0376742Y0310346D01*
X0376133Y0308876D01*
X0376133Y0307285D01*
X0376742Y0305814D01*
X0377133Y0305423D01*
X0377133Y0299323D01*
X0376391Y0298580D01*
X0258876Y0298580D01*
X0248927Y0308530D01*
X0248626Y0308830D01*
X0255730Y0308830D01*
X0256833Y0309287D01*
X0257677Y0310131D01*
X0292626Y0345080D01*
X0292554Y0345008D02*
X0302819Y0345008D01*
X0301220Y0343410D02*
X0290956Y0343410D01*
X0289357Y0341811D02*
X0299622Y0341811D01*
X0298023Y0340213D02*
X0287759Y0340213D01*
X0286160Y0338614D02*
X0297133Y0338614D01*
X0297133Y0337016D02*
X0284562Y0337016D01*
X0282963Y0335417D02*
X0297133Y0335417D01*
X0297133Y0333819D02*
X0281365Y0333819D01*
X0279766Y0332220D02*
X0297133Y0332220D01*
X0297133Y0330622D02*
X0278168Y0330622D01*
X0276569Y0329023D02*
X0297133Y0329023D01*
X0297133Y0327425D02*
X0274971Y0327425D01*
X0273372Y0325826D02*
X0297133Y0325826D01*
X0297133Y0324228D02*
X0271774Y0324228D01*
X0270175Y0322629D02*
X0297133Y0322629D01*
X0297133Y0321031D02*
X0268576Y0321031D01*
X0266978Y0319432D02*
X0297133Y0319432D01*
X0297133Y0317834D02*
X0265379Y0317834D01*
X0263781Y0316235D02*
X0297133Y0316235D01*
X0297133Y0314637D02*
X0262182Y0314637D01*
X0260584Y0313038D02*
X0296304Y0313038D01*
X0296133Y0311440D02*
X0258985Y0311440D01*
X0257387Y0309841D02*
X0296628Y0309841D01*
X0298342Y0308243D02*
X0249214Y0308243D01*
X0250812Y0306644D02*
X0337327Y0306644D01*
X0338925Y0305046D02*
X0252411Y0305046D01*
X0254009Y0303447D02*
X0355360Y0303447D01*
X0359907Y0303447D02*
X0362860Y0303447D01*
X0361543Y0305046D02*
X0361224Y0305046D01*
X0367407Y0303447D02*
X0377133Y0303447D01*
X0377133Y0301849D02*
X0255608Y0301849D01*
X0257206Y0300250D02*
X0377133Y0300250D01*
X0376462Y0298652D02*
X0258805Y0298652D01*
X0253941Y0295030D02*
X0248284Y0295030D01*
X0248111Y0295081D01*
X0247652Y0295030D01*
X0247444Y0295030D01*
X0247469Y0295056D01*
X0247706Y0295466D01*
X0247829Y0295924D01*
X0247829Y0297945D01*
X0242963Y0297945D01*
X0242963Y0294361D01*
X0245789Y0294361D01*
X0245729Y0294328D01*
X0245441Y0293969D01*
X0245115Y0293643D01*
X0245046Y0293476D01*
X0242180Y0289899D01*
X0239052Y0289899D01*
X0238170Y0289534D01*
X0237494Y0288859D01*
X0237129Y0287977D01*
X0237129Y0283085D01*
X0237494Y0282203D01*
X0238170Y0281528D01*
X0239052Y0281162D01*
X0246506Y0281162D01*
X0247388Y0281528D01*
X0248064Y0282203D01*
X0248429Y0283085D01*
X0248429Y0287463D01*
X0249364Y0288630D01*
X0254049Y0288630D01*
X0253633Y0287626D01*
X0253633Y0286035D01*
X0254242Y0284564D01*
X0254633Y0284173D01*
X0254633Y0269983D01*
X0255090Y0268881D01*
X0255934Y0268037D01*
X0258434Y0265537D01*
X0258749Y0265406D01*
X0258633Y0265126D01*
X0258633Y0264496D01*
X0258429Y0264580D01*
X0256838Y0264580D01*
X0255368Y0263971D01*
X0254242Y0262846D01*
X0253883Y0261979D01*
X0253524Y0262846D01*
X0252399Y0263971D01*
X0250929Y0264580D01*
X0249338Y0264580D01*
X0247868Y0263971D01*
X0246742Y0262846D01*
X0246133Y0261376D01*
X0246133Y0259785D01*
X0246742Y0258314D01*
X0247133Y0257923D01*
X0247133Y0250573D01*
X0244441Y0247880D01*
X0243920Y0247880D01*
X0241678Y0246952D01*
X0240133Y0245407D01*
X0238589Y0246952D01*
X0236347Y0247880D01*
X0233920Y0247880D01*
X0231678Y0246952D01*
X0230133Y0245407D01*
X0228589Y0246952D01*
X0226347Y0247880D01*
X0223920Y0247880D01*
X0221678Y0246952D01*
X0219962Y0245236D01*
X0219766Y0244762D01*
X0219328Y0245363D01*
X0218716Y0245975D01*
X0218016Y0246484D01*
X0217245Y0246877D01*
X0216421Y0247145D01*
X0215566Y0247280D01*
X0215433Y0247280D01*
X0215433Y0238380D01*
X0214833Y0238380D01*
X0214833Y0237780D01*
X0209633Y0237780D01*
X0209633Y0233947D01*
X0209769Y0233092D01*
X0210036Y0232269D01*
X0210429Y0231498D01*
X0210938Y0230797D01*
X0211550Y0230185D01*
X0212251Y0229676D01*
X0213022Y0229283D01*
X0213845Y0229016D01*
X0214700Y0228880D01*
X0214833Y0228880D01*
X0214833Y0237780D01*
X0215433Y0237780D01*
X0215433Y0228880D01*
X0215566Y0228880D01*
X0216421Y0229016D01*
X0217245Y0229283D01*
X0218016Y0229676D01*
X0218716Y0230185D01*
X0219328Y0230797D01*
X0219766Y0231399D01*
X0219962Y0230925D01*
X0221678Y0229209D01*
X0223920Y0228280D01*
X0226347Y0228280D01*
X0228589Y0229209D01*
X0230133Y0230754D01*
X0231678Y0229209D01*
X0232133Y0229020D01*
X0232133Y0217483D01*
X0232590Y0216381D01*
X0233434Y0215537D01*
X0237184Y0211787D01*
X0238287Y0211330D01*
X0238726Y0211330D01*
X0239088Y0210968D01*
X0239067Y0210947D01*
X0238830Y0210537D01*
X0238707Y0210079D01*
X0238707Y0208009D01*
X0242400Y0208009D01*
X0242400Y0207542D01*
X0238707Y0207542D01*
X0238707Y0205471D01*
X0238830Y0205013D01*
X0238956Y0204795D01*
X0238473Y0204312D01*
X0238296Y0203885D01*
X0238221Y0203885D01*
X0238044Y0204312D01*
X0237561Y0204795D01*
X0237687Y0205013D01*
X0237809Y0205471D01*
X0237809Y0207542D01*
X0234117Y0207542D01*
X0234117Y0208009D01*
X0233650Y0208009D01*
X0233650Y0211642D01*
X0231520Y0211642D01*
X0231063Y0211519D01*
X0230652Y0211282D01*
X0230317Y0210947D01*
X0230080Y0210537D01*
X0229957Y0210079D01*
X0229957Y0208009D01*
X0233650Y0208009D01*
X0233650Y0207542D01*
X0229957Y0207542D01*
X0229957Y0205471D01*
X0230080Y0205013D01*
X0230206Y0204795D01*
X0229723Y0204312D01*
X0229357Y0203430D01*
X0229357Y0200197D01*
X0228409Y0201145D01*
X0228409Y0203430D01*
X0228044Y0204312D01*
X0227561Y0204795D01*
X0227687Y0205013D01*
X0227809Y0205471D01*
X0227809Y0207542D01*
X0224117Y0207542D01*
X0224117Y0208009D01*
X0223650Y0208009D01*
X0223650Y0211642D01*
X0221520Y0211642D01*
X0221063Y0211519D01*
X0220652Y0211282D01*
X0220317Y0210947D01*
X0220080Y0210537D01*
X0219957Y0210079D01*
X0219957Y0208009D01*
X0223650Y0208009D01*
X0223650Y0207542D01*
X0219957Y0207542D01*
X0219957Y0205471D01*
X0220080Y0205013D01*
X0220206Y0204795D01*
X0219723Y0204312D01*
X0219668Y0204180D01*
X0219348Y0204180D01*
X0219294Y0204312D01*
X0218811Y0204795D01*
X0218937Y0205013D01*
X0219059Y0205471D01*
X0219059Y0207542D01*
X0215367Y0207542D01*
X0215367Y0208009D01*
X0214900Y0208009D01*
X0214900Y0211642D01*
X0212770Y0211642D01*
X0212313Y0211519D01*
X0211902Y0211282D01*
X0211567Y0210947D01*
X0211330Y0210537D01*
X0211207Y0210079D01*
X0211207Y0208009D01*
X0214900Y0208009D01*
X0214900Y0207542D01*
X0211207Y0207542D01*
X0211207Y0205471D01*
X0211330Y0205013D01*
X0211456Y0204795D01*
X0210973Y0204312D01*
X0210607Y0203430D01*
X0210607Y0198341D01*
X0210973Y0197459D01*
X0211648Y0196784D01*
X0212233Y0196541D01*
X0212233Y0182503D01*
X0212675Y0181437D01*
X0213491Y0180622D01*
X0214556Y0180180D01*
X0225182Y0180180D01*
X0229883Y0175479D01*
X0229883Y0174785D01*
X0230492Y0173314D01*
X0231618Y0172189D01*
X0232993Y0171619D01*
X0232633Y0171470D01*
X0231792Y0171819D01*
X0228475Y0171819D01*
X0227633Y0171470D01*
X0226792Y0171819D01*
X0223475Y0171819D01*
X0222633Y0171470D01*
X0221792Y0171819D01*
X0218931Y0171819D01*
X0208833Y0181916D01*
X0208833Y0194308D01*
X0208468Y0195190D01*
X0207793Y0195865D01*
X0206911Y0196230D01*
X0198356Y0196230D01*
X0197474Y0195865D01*
X0196799Y0195190D01*
X0196433Y0194308D01*
X0196433Y0186714D01*
X0190372Y0186714D01*
X0189882Y0186917D01*
X0185384Y0186917D01*
X0185033Y0186772D01*
X0185033Y0217301D01*
X0209633Y0241901D01*
X0209633Y0238380D01*
X0214833Y0238380D01*
X0214833Y0247280D01*
X0214700Y0247280D01*
X0214580Y0247261D01*
X0215033Y0248356D01*
X0215033Y0264677D01*
X0217047Y0264677D01*
X0217183Y0264349D01*
X0217202Y0264330D01*
X0217183Y0264312D01*
X0216818Y0263430D01*
X0216818Y0258538D01*
X0217183Y0257656D01*
X0217858Y0256981D01*
X0218741Y0256615D01*
X0218743Y0256615D01*
X0218840Y0256381D01*
X0219684Y0255537D01*
X0222184Y0253037D01*
X0223287Y0252580D01*
X0234480Y0252580D01*
X0235583Y0253037D01*
X0236427Y0253881D01*
X0238639Y0256094D01*
X0238819Y0256094D01*
X0239701Y0256459D01*
X0240377Y0257134D01*
X0240742Y0258016D01*
X0240742Y0264483D01*
X0240377Y0265365D01*
X0239701Y0266040D01*
X0238819Y0266405D01*
X0236889Y0266405D01*
X0237002Y0266678D01*
X0237002Y0273144D01*
X0236636Y0274026D01*
X0235961Y0274701D01*
X0235079Y0275067D01*
X0234945Y0275067D01*
X0234945Y0276597D01*
X0231312Y0276597D01*
X0231312Y0277064D01*
X0230845Y0277064D01*
X0230845Y0280756D01*
X0228774Y0280756D01*
X0228316Y0280634D01*
X0228098Y0280507D01*
X0227615Y0280991D01*
X0226733Y0281356D01*
X0226683Y0281356D01*
X0227097Y0281528D01*
X0227772Y0282203D01*
X0228138Y0283085D01*
X0228138Y0287977D01*
X0227784Y0288830D01*
X0228230Y0288830D01*
X0229333Y0289287D01*
X0230177Y0290131D01*
X0232677Y0292631D01*
X0233133Y0293733D01*
X0233133Y0303088D01*
X0233876Y0303830D01*
X0245141Y0303830D01*
X0253941Y0295030D01*
X0253516Y0295455D02*
X0247700Y0295455D01*
X0247829Y0297053D02*
X0251918Y0297053D01*
X0250319Y0298652D02*
X0247829Y0298652D01*
X0247829Y0298314D02*
X0247829Y0300335D01*
X0247706Y0300793D01*
X0247469Y0301203D01*
X0247134Y0301538D01*
X0246724Y0301775D01*
X0246266Y0301898D01*
X0242963Y0301898D01*
X0242963Y0298314D01*
X0242595Y0298314D01*
X0242595Y0301898D01*
X0239292Y0301898D01*
X0238834Y0301775D01*
X0238424Y0301538D01*
X0238089Y0301203D01*
X0237852Y0300793D01*
X0237729Y0300335D01*
X0237729Y0298314D01*
X0242595Y0298314D01*
X0242595Y0297945D01*
X0242963Y0297945D01*
X0242963Y0298314D01*
X0247829Y0298314D01*
X0247829Y0300250D02*
X0248721Y0300250D01*
X0247122Y0301849D02*
X0246450Y0301849D01*
X0245524Y0303447D02*
X0233493Y0303447D01*
X0233133Y0301849D02*
X0239108Y0301849D01*
X0237729Y0300250D02*
X0233133Y0300250D01*
X0233133Y0298652D02*
X0237729Y0298652D01*
X0237729Y0297945D02*
X0237729Y0295924D01*
X0237852Y0295466D01*
X0238089Y0295056D01*
X0238424Y0294721D01*
X0238834Y0294484D01*
X0239292Y0294361D01*
X0242595Y0294361D01*
X0242595Y0297945D01*
X0237729Y0297945D01*
X0237729Y0297053D02*
X0233133Y0297053D01*
X0233133Y0295455D02*
X0237858Y0295455D01*
X0242595Y0295455D02*
X0242963Y0295455D01*
X0242963Y0297053D02*
X0242595Y0297053D01*
X0242595Y0298652D02*
X0242963Y0298652D01*
X0242963Y0300250D02*
X0242595Y0300250D01*
X0242595Y0301849D02*
X0242963Y0301849D01*
X0245329Y0293856D02*
X0233133Y0293856D01*
X0232303Y0292258D02*
X0244070Y0292258D01*
X0242788Y0290659D02*
X0230705Y0290659D01*
X0228786Y0289060D02*
X0237696Y0289060D01*
X0237129Y0287462D02*
X0228138Y0287462D01*
X0228138Y0285863D02*
X0237129Y0285863D01*
X0237129Y0284265D02*
X0228138Y0284265D01*
X0227964Y0282666D02*
X0237302Y0282666D01*
X0234585Y0280061D02*
X0234250Y0280397D01*
X0233840Y0280634D01*
X0233382Y0280756D01*
X0231312Y0280756D01*
X0231312Y0277064D01*
X0234945Y0277064D01*
X0234945Y0279193D01*
X0234822Y0279651D01*
X0234585Y0280061D01*
X0234871Y0279469D02*
X0254633Y0279469D01*
X0254633Y0277871D02*
X0234945Y0277871D01*
X0234945Y0276272D02*
X0254633Y0276272D01*
X0254633Y0274674D02*
X0235989Y0274674D01*
X0237002Y0273075D02*
X0254633Y0273075D01*
X0254633Y0271477D02*
X0237002Y0271477D01*
X0237002Y0269878D02*
X0254677Y0269878D01*
X0255691Y0268280D02*
X0237002Y0268280D01*
X0237002Y0266681D02*
X0257290Y0266681D01*
X0258633Y0265083D02*
X0240493Y0265083D01*
X0240742Y0263484D02*
X0247381Y0263484D01*
X0246345Y0261886D02*
X0240742Y0261886D01*
X0240742Y0260287D02*
X0246133Y0260287D01*
X0246587Y0258689D02*
X0240742Y0258689D01*
X0240333Y0257090D02*
X0247133Y0257090D01*
X0247133Y0255492D02*
X0238038Y0255492D01*
X0236439Y0253893D02*
X0247133Y0253893D01*
X0247133Y0252295D02*
X0215033Y0252295D01*
X0215033Y0253893D02*
X0221328Y0253893D01*
X0219729Y0255492D02*
X0215033Y0255492D01*
X0215033Y0257090D02*
X0217749Y0257090D01*
X0216818Y0258689D02*
X0215033Y0258689D01*
X0215033Y0260287D02*
X0216818Y0260287D01*
X0216818Y0261886D02*
X0215033Y0261886D01*
X0215033Y0263484D02*
X0216841Y0263484D01*
X0215033Y0250696D02*
X0247133Y0250696D01*
X0245658Y0249098D02*
X0215033Y0249098D01*
X0214679Y0247499D02*
X0223000Y0247499D01*
X0220627Y0245901D02*
X0218791Y0245901D01*
X0215433Y0245901D02*
X0214833Y0245901D01*
X0214833Y0244302D02*
X0215433Y0244302D01*
X0215433Y0242704D02*
X0214833Y0242704D01*
X0214833Y0241105D02*
X0215433Y0241105D01*
X0215433Y0239507D02*
X0214833Y0239507D01*
X0214833Y0237908D02*
X0205641Y0237908D01*
X0204042Y0236310D02*
X0209633Y0236310D01*
X0209633Y0234711D02*
X0202444Y0234711D01*
X0200845Y0233113D02*
X0209766Y0233113D01*
X0210421Y0231514D02*
X0199247Y0231514D01*
X0197648Y0229916D02*
X0211921Y0229916D01*
X0214833Y0229916D02*
X0215433Y0229916D01*
X0215433Y0231514D02*
X0214833Y0231514D01*
X0214833Y0233113D02*
X0215433Y0233113D01*
X0215433Y0234711D02*
X0214833Y0234711D01*
X0214833Y0236310D02*
X0215433Y0236310D01*
X0209633Y0239507D02*
X0207239Y0239507D01*
X0208838Y0241105D02*
X0209633Y0241105D01*
X0218345Y0229916D02*
X0220971Y0229916D01*
X0223831Y0228317D02*
X0196050Y0228317D01*
X0194451Y0226719D02*
X0232133Y0226719D01*
X0232133Y0228317D02*
X0226436Y0228317D01*
X0229295Y0229916D02*
X0230971Y0229916D01*
X0232133Y0225120D02*
X0192853Y0225120D01*
X0191254Y0223522D02*
X0232133Y0223522D01*
X0232133Y0221923D02*
X0189656Y0221923D01*
X0188057Y0220325D02*
X0232133Y0220325D01*
X0232133Y0218726D02*
X0186459Y0218726D01*
X0185033Y0217127D02*
X0232281Y0217127D01*
X0233442Y0215529D02*
X0185033Y0215529D01*
X0185033Y0213930D02*
X0235040Y0213930D01*
X0236639Y0212332D02*
X0185033Y0212332D01*
X0185033Y0210733D02*
X0211444Y0210733D01*
X0211207Y0209135D02*
X0185033Y0209135D01*
X0185033Y0207536D02*
X0211207Y0207536D01*
X0211207Y0205938D02*
X0185033Y0205938D01*
X0185033Y0204339D02*
X0211000Y0204339D01*
X0210607Y0202741D02*
X0185033Y0202741D01*
X0185033Y0201142D02*
X0210607Y0201142D01*
X0210607Y0199544D02*
X0185033Y0199544D01*
X0185033Y0197945D02*
X0210771Y0197945D01*
X0212233Y0196347D02*
X0185033Y0196347D01*
X0185033Y0194748D02*
X0196616Y0194748D01*
X0196433Y0193150D02*
X0185033Y0193150D01*
X0185033Y0191551D02*
X0196433Y0191551D01*
X0196433Y0189953D02*
X0185033Y0189953D01*
X0185033Y0188354D02*
X0196433Y0188354D01*
X0196433Y0186756D02*
X0190272Y0186756D01*
X0191122Y0179946D02*
X0196433Y0179946D01*
X0196433Y0172353D01*
X0196697Y0171715D01*
X0196690Y0171697D01*
X0196690Y0166806D01*
X0197055Y0165923D01*
X0197731Y0165248D01*
X0198613Y0164883D01*
X0206654Y0164883D01*
X0207536Y0165248D01*
X0208211Y0165923D01*
X0208577Y0166806D01*
X0208577Y0171697D01*
X0208569Y0171715D01*
X0208831Y0172347D01*
X0216552Y0164625D01*
X0216552Y0164217D01*
X0216657Y0163964D01*
X0211960Y0163964D01*
X0210716Y0163449D01*
X0208577Y0161310D01*
X0208577Y0161855D01*
X0208211Y0162737D01*
X0207536Y0163412D01*
X0206654Y0163777D01*
X0198613Y0163777D01*
X0197731Y0163412D01*
X0197055Y0162737D01*
X0196690Y0161855D01*
X0196690Y0156963D01*
X0196697Y0156945D01*
X0196433Y0156308D01*
X0196433Y0148905D01*
X0191173Y0148905D01*
X0191205Y0149024D01*
X0191205Y0150639D01*
X0187633Y0150639D01*
X0187633Y0153817D01*
X0185625Y0153817D01*
X0185167Y0153695D01*
X0185033Y0153617D01*
X0185033Y0175043D01*
X0185167Y0174966D01*
X0185625Y0174843D01*
X0187633Y0174843D01*
X0187633Y0178021D01*
X0187633Y0178021D01*
X0187633Y0174843D01*
X0189642Y0174843D01*
X0190100Y0174966D01*
X0190510Y0175203D01*
X0190845Y0175538D01*
X0191082Y0175948D01*
X0191205Y0176406D01*
X0191205Y0178021D01*
X0187633Y0178021D01*
X0187633Y0178021D01*
X0191205Y0178021D01*
X0191205Y0179636D01*
X0191122Y0179946D01*
X0191205Y0178763D02*
X0196433Y0178763D01*
X0196433Y0177165D02*
X0191205Y0177165D01*
X0190862Y0175566D02*
X0196433Y0175566D01*
X0196433Y0173968D02*
X0185033Y0173968D01*
X0185033Y0172369D02*
X0196433Y0172369D01*
X0196690Y0170771D02*
X0185033Y0170771D01*
X0185033Y0169172D02*
X0196690Y0169172D01*
X0196690Y0167574D02*
X0185033Y0167574D01*
X0185033Y0165975D02*
X0197034Y0165975D01*
X0197097Y0162778D02*
X0185033Y0162778D01*
X0185033Y0161180D02*
X0196690Y0161180D01*
X0196690Y0159581D02*
X0185033Y0159581D01*
X0185033Y0157983D02*
X0196690Y0157983D01*
X0196465Y0156384D02*
X0185033Y0156384D01*
X0185033Y0154786D02*
X0196433Y0154786D01*
X0196433Y0153187D02*
X0190781Y0153187D01*
X0190845Y0153122D02*
X0190510Y0153458D01*
X0190100Y0153695D01*
X0189642Y0153817D01*
X0187633Y0153817D01*
X0187633Y0150639D01*
X0187633Y0150639D01*
X0187633Y0150639D01*
X0191205Y0150639D01*
X0191205Y0152254D01*
X0191082Y0152712D01*
X0190845Y0153122D01*
X0191205Y0151589D02*
X0196433Y0151589D01*
X0196433Y0149990D02*
X0191205Y0149990D01*
X0187633Y0151589D02*
X0187633Y0151589D01*
X0187633Y0153187D02*
X0187633Y0153187D01*
X0185033Y0164377D02*
X0216552Y0164377D01*
X0215202Y0165975D02*
X0208233Y0165975D01*
X0208577Y0167574D02*
X0213604Y0167574D01*
X0212005Y0169172D02*
X0208577Y0169172D01*
X0208577Y0170771D02*
X0210407Y0170771D01*
X0215183Y0175566D02*
X0229796Y0175566D01*
X0230222Y0173968D02*
X0216782Y0173968D01*
X0218380Y0172369D02*
X0231437Y0172369D01*
X0228198Y0177165D02*
X0213585Y0177165D01*
X0211986Y0178763D02*
X0226599Y0178763D01*
X0214118Y0180362D02*
X0210388Y0180362D01*
X0208833Y0181960D02*
X0212458Y0181960D01*
X0212233Y0183559D02*
X0208833Y0183559D01*
X0208833Y0185157D02*
X0212233Y0185157D01*
X0212233Y0186756D02*
X0208833Y0186756D01*
X0208833Y0188354D02*
X0212233Y0188354D01*
X0212233Y0189953D02*
X0208833Y0189953D01*
X0208833Y0191551D02*
X0212233Y0191551D01*
X0212233Y0193150D02*
X0208833Y0193150D01*
X0208651Y0194748D02*
X0212233Y0194748D01*
X0219266Y0204339D02*
X0219750Y0204339D01*
X0219957Y0205938D02*
X0219059Y0205938D01*
X0219059Y0207536D02*
X0219957Y0207536D01*
X0219059Y0208009D02*
X0219059Y0210079D01*
X0218937Y0210537D01*
X0218700Y0210947D01*
X0218365Y0211282D01*
X0217954Y0211519D01*
X0217496Y0211642D01*
X0215367Y0211642D01*
X0215367Y0208009D01*
X0219059Y0208009D01*
X0219059Y0209135D02*
X0219957Y0209135D01*
X0220194Y0210733D02*
X0218823Y0210733D01*
X0215367Y0210733D02*
X0214900Y0210733D01*
X0214900Y0209135D02*
X0215367Y0209135D01*
X0223650Y0209135D02*
X0224117Y0209135D01*
X0224117Y0208009D02*
X0224117Y0211642D01*
X0226246Y0211642D01*
X0226704Y0211519D01*
X0227115Y0211282D01*
X0227450Y0210947D01*
X0227687Y0210537D01*
X0227809Y0210079D01*
X0227809Y0208009D01*
X0224117Y0208009D01*
X0224117Y0210733D02*
X0223650Y0210733D01*
X0227573Y0210733D02*
X0230194Y0210733D01*
X0229957Y0209135D02*
X0227809Y0209135D01*
X0227809Y0207536D02*
X0229957Y0207536D01*
X0229957Y0205938D02*
X0227809Y0205938D01*
X0228016Y0204339D02*
X0229750Y0204339D01*
X0229357Y0202741D02*
X0228409Y0202741D01*
X0228412Y0201142D02*
X0229357Y0201142D01*
X0234117Y0208009D02*
X0237809Y0208009D01*
X0237809Y0210079D01*
X0237687Y0210537D01*
X0237450Y0210947D01*
X0237115Y0211282D01*
X0236704Y0211519D01*
X0236246Y0211642D01*
X0234117Y0211642D01*
X0234117Y0208009D01*
X0234117Y0209135D02*
X0233650Y0209135D01*
X0233650Y0210733D02*
X0234117Y0210733D01*
X0237573Y0210733D02*
X0238944Y0210733D01*
X0238707Y0209135D02*
X0237809Y0209135D01*
X0237809Y0207536D02*
X0238707Y0207536D01*
X0238707Y0205938D02*
X0237809Y0205938D01*
X0238016Y0204339D02*
X0238500Y0204339D01*
X0251383Y0200580D02*
X0251964Y0201161D01*
X0258893Y0201161D01*
X0261376Y0218580D02*
X0258133Y0221823D01*
X0258133Y0229020D01*
X0258589Y0229209D01*
X0260133Y0230754D01*
X0261678Y0229209D01*
X0263920Y0228280D01*
X0266347Y0228280D01*
X0268589Y0229209D01*
X0270305Y0230925D01*
X0271233Y0233167D01*
X0271233Y0242994D01*
X0270305Y0245236D01*
X0268589Y0246952D01*
X0266347Y0247880D01*
X0263920Y0247880D01*
X0261678Y0246952D01*
X0260133Y0245407D01*
X0259043Y0246497D01*
X0260177Y0247631D01*
X0260633Y0248733D01*
X0260633Y0257923D01*
X0261024Y0258314D01*
X0261633Y0259785D01*
X0261633Y0259838D01*
X0272133Y0249338D01*
X0272133Y0232483D01*
X0272590Y0231381D01*
X0283633Y0220338D01*
X0283633Y0219785D01*
X0284242Y0218314D01*
X0285368Y0217189D01*
X0286838Y0216580D01*
X0288429Y0216580D01*
X0289899Y0217189D01*
X0291024Y0218314D01*
X0291383Y0219181D01*
X0291742Y0218314D01*
X0292868Y0217189D01*
X0294338Y0216580D01*
X0295929Y0216580D01*
X0297399Y0217189D01*
X0298524Y0218314D01*
X0298883Y0219181D01*
X0299242Y0218314D01*
X0300368Y0217189D01*
X0301838Y0216580D01*
X0303429Y0216580D01*
X0304899Y0217189D01*
X0306024Y0218314D01*
X0306355Y0219113D01*
X0307037Y0218830D01*
X0311391Y0218830D01*
X0323633Y0206588D01*
X0323633Y0206035D01*
X0324242Y0204564D01*
X0325368Y0203439D01*
X0326838Y0202830D01*
X0328429Y0202830D01*
X0329899Y0203439D01*
X0331024Y0204564D01*
X0331633Y0206035D01*
X0331633Y0207626D01*
X0331024Y0209096D01*
X0329899Y0210221D01*
X0328429Y0210830D01*
X0327876Y0210830D01*
X0314333Y0224373D01*
X0313575Y0224687D01*
X0314133Y0226035D01*
X0314133Y0227580D01*
X0320141Y0227580D01*
X0323633Y0224088D01*
X0323633Y0223535D01*
X0324242Y0222064D01*
X0325368Y0220939D01*
X0326838Y0220330D01*
X0328429Y0220330D01*
X0329899Y0220939D01*
X0331024Y0222064D01*
X0331312Y0222759D01*
X0331456Y0222615D01*
X0331330Y0222397D01*
X0331207Y0221939D01*
X0331207Y0219869D01*
X0334900Y0219869D01*
X0334900Y0219402D01*
X0331207Y0219402D01*
X0331207Y0217331D01*
X0331330Y0216874D01*
X0331567Y0216463D01*
X0331902Y0216128D01*
X0332313Y0215891D01*
X0332770Y0215768D01*
X0334900Y0215768D01*
X0334900Y0219402D01*
X0335367Y0219402D01*
X0335367Y0219869D01*
X0342400Y0219869D01*
X0342400Y0219402D01*
X0338707Y0219402D01*
X0335367Y0219402D01*
X0335367Y0215768D01*
X0337496Y0215768D01*
X0337954Y0215891D01*
X0338365Y0216128D01*
X0338700Y0216463D01*
X0338883Y0216781D01*
X0339067Y0216463D01*
X0339402Y0216128D01*
X0339813Y0215891D01*
X0340270Y0215768D01*
X0342400Y0215768D01*
X0342400Y0219402D01*
X0342867Y0219402D01*
X0342867Y0215768D01*
X0344633Y0215768D01*
X0344633Y0213295D01*
X0343741Y0213295D01*
X0342858Y0212930D01*
X0342183Y0212255D01*
X0342088Y0212025D01*
X0341971Y0212025D01*
X0341794Y0212452D01*
X0341119Y0213127D01*
X0340237Y0213492D01*
X0335030Y0213492D01*
X0334148Y0213127D01*
X0333473Y0212452D01*
X0333107Y0211569D01*
X0333107Y0206481D01*
X0333473Y0205599D01*
X0333956Y0205115D01*
X0333830Y0204897D01*
X0333707Y0204439D01*
X0333707Y0202369D01*
X0337400Y0202369D01*
X0337400Y0201902D01*
X0333707Y0201902D01*
X0333707Y0199831D01*
X0333830Y0199374D01*
X0334067Y0198963D01*
X0334402Y0198628D01*
X0334813Y0198391D01*
X0335270Y0198268D01*
X0337400Y0198268D01*
X0337400Y0201902D01*
X0337867Y0201902D01*
X0337867Y0202369D01*
X0341559Y0202369D01*
X0341559Y0204439D01*
X0341437Y0204897D01*
X0341311Y0205115D01*
X0341794Y0205599D01*
X0341971Y0206025D01*
X0342007Y0206025D01*
X0342183Y0205599D01*
X0342667Y0205115D01*
X0342541Y0204897D01*
X0342418Y0204439D01*
X0342418Y0202418D01*
X0346199Y0202418D01*
X0346199Y0202049D01*
X0346568Y0202049D01*
X0346568Y0202418D01*
X0350349Y0202418D01*
X0350349Y0204439D01*
X0350226Y0204897D01*
X0350100Y0205115D01*
X0350583Y0205599D01*
X0350883Y0206323D01*
X0350883Y0198073D01*
X0349060Y0196250D01*
X0348930Y0196566D01*
X0348255Y0197241D01*
X0347373Y0197606D01*
X0342284Y0197606D01*
X0341402Y0197241D01*
X0340918Y0196757D01*
X0340700Y0196884D01*
X0340242Y0197006D01*
X0338172Y0197006D01*
X0338172Y0193314D01*
X0337705Y0193314D01*
X0337705Y0197006D01*
X0335635Y0197006D01*
X0335177Y0196884D01*
X0334766Y0196647D01*
X0334431Y0196311D01*
X0334194Y0195901D01*
X0334072Y0195443D01*
X0334072Y0193314D01*
X0337705Y0193314D01*
X0337705Y0192847D01*
X0334072Y0192847D01*
X0334072Y0191080D01*
X0330126Y0191080D01*
X0328083Y0193123D01*
X0326980Y0193580D01*
X0298287Y0193580D01*
X0297184Y0193123D01*
X0296898Y0192837D01*
X0296618Y0192721D01*
X0295492Y0191596D01*
X0294883Y0190126D01*
X0294883Y0190073D01*
X0294071Y0190885D01*
X0294133Y0191035D01*
X0294133Y0192626D01*
X0293524Y0194096D01*
X0292399Y0195221D01*
X0290929Y0195830D01*
X0289338Y0195830D01*
X0287868Y0195221D01*
X0287476Y0194830D01*
X0280633Y0194830D01*
X0280633Y0198329D01*
X0281838Y0197830D01*
X0283429Y0197830D01*
X0284899Y0198439D01*
X0286024Y0199564D01*
X0286633Y0201035D01*
X0286633Y0202626D01*
X0286024Y0204096D01*
X0285633Y0204487D01*
X0285633Y0208677D01*
X0285177Y0209780D01*
X0277677Y0217280D01*
X0276833Y0218123D01*
X0275730Y0218580D01*
X0261376Y0218580D01*
X0261230Y0218726D02*
X0284072Y0218726D01*
X0283633Y0220325D02*
X0259632Y0220325D01*
X0258133Y0221923D02*
X0282048Y0221923D01*
X0280449Y0223522D02*
X0258133Y0223522D01*
X0258133Y0225120D02*
X0278851Y0225120D01*
X0277252Y0226719D02*
X0258133Y0226719D01*
X0258133Y0228317D02*
X0263831Y0228317D01*
X0266436Y0228317D02*
X0275654Y0228317D01*
X0274055Y0229916D02*
X0269295Y0229916D01*
X0270549Y0231514D02*
X0272535Y0231514D01*
X0272133Y0233113D02*
X0271211Y0233113D01*
X0271233Y0234711D02*
X0272133Y0234711D01*
X0272133Y0236310D02*
X0271233Y0236310D01*
X0271233Y0237908D02*
X0272133Y0237908D01*
X0272133Y0239507D02*
X0271233Y0239507D01*
X0271233Y0241105D02*
X0272133Y0241105D01*
X0272133Y0242704D02*
X0271233Y0242704D01*
X0270691Y0244302D02*
X0272133Y0244302D01*
X0272133Y0245901D02*
X0269640Y0245901D01*
X0267266Y0247499D02*
X0272133Y0247499D01*
X0272133Y0249098D02*
X0260633Y0249098D01*
X0260633Y0250696D02*
X0270775Y0250696D01*
X0269176Y0252295D02*
X0260633Y0252295D01*
X0260633Y0253893D02*
X0267578Y0253893D01*
X0265979Y0255492D02*
X0260633Y0255492D01*
X0260633Y0257090D02*
X0264381Y0257090D01*
X0262782Y0258689D02*
X0261179Y0258689D01*
X0254881Y0263484D02*
X0252886Y0263484D01*
X0260979Y0271477D02*
X0271693Y0271477D01*
X0271742Y0271596D02*
X0271133Y0270126D01*
X0271133Y0268535D01*
X0271742Y0267064D01*
X0272868Y0265939D01*
X0274338Y0265330D01*
X0274891Y0265330D01*
X0282133Y0258088D01*
X0282133Y0256573D01*
X0268927Y0269780D01*
X0268083Y0270623D01*
X0266980Y0271080D01*
X0261376Y0271080D01*
X0260633Y0271823D01*
X0260633Y0284173D01*
X0261024Y0284564D01*
X0261633Y0286035D01*
X0261633Y0287626D01*
X0261217Y0288630D01*
X0340176Y0288630D01*
X0340368Y0288439D01*
X0341838Y0287830D01*
X0343429Y0287830D01*
X0344899Y0288439D01*
X0346024Y0289564D01*
X0346633Y0291035D01*
X0346633Y0292580D01*
X0376391Y0292580D01*
X0378383Y0290588D01*
X0378383Y0286573D01*
X0376633Y0288323D01*
X0376633Y0288876D01*
X0376024Y0290346D01*
X0374899Y0291471D01*
X0373429Y0292080D01*
X0371838Y0292080D01*
X0370368Y0291471D01*
X0369242Y0290346D01*
X0368633Y0288876D01*
X0368633Y0287285D01*
X0369242Y0285814D01*
X0370368Y0284689D01*
X0371838Y0284080D01*
X0372391Y0284080D01*
X0374633Y0281838D01*
X0374633Y0275331D01*
X0373429Y0275830D01*
X0371838Y0275830D01*
X0370368Y0275221D01*
X0369976Y0274830D01*
X0355040Y0274830D01*
X0356024Y0275814D01*
X0356633Y0277285D01*
X0356633Y0278876D01*
X0356024Y0280346D01*
X0355040Y0281330D01*
X0362476Y0281330D01*
X0362868Y0280939D01*
X0364338Y0280330D01*
X0365929Y0280330D01*
X0367399Y0280939D01*
X0368524Y0282064D01*
X0369133Y0283535D01*
X0369133Y0285126D01*
X0368524Y0286596D01*
X0367399Y0287721D01*
X0365929Y0288330D01*
X0364338Y0288330D01*
X0362868Y0287721D01*
X0362476Y0287330D01*
X0352037Y0287330D01*
X0350934Y0286873D01*
X0348891Y0284830D01*
X0327790Y0284830D01*
X0327399Y0285221D01*
X0325929Y0285830D01*
X0324338Y0285830D01*
X0322868Y0285221D01*
X0321742Y0284096D01*
X0321133Y0282626D01*
X0321133Y0281080D01*
X0315290Y0281080D01*
X0314899Y0281471D01*
X0313429Y0282080D01*
X0311838Y0282080D01*
X0310368Y0281471D01*
X0309242Y0280346D01*
X0308633Y0278876D01*
X0308633Y0277285D01*
X0309242Y0275814D01*
X0310368Y0274689D01*
X0311838Y0274080D01*
X0313429Y0274080D01*
X0314899Y0274689D01*
X0315290Y0275080D01*
X0349976Y0275080D01*
X0350226Y0274830D01*
X0320787Y0274830D01*
X0319684Y0274373D01*
X0309684Y0264373D01*
X0308840Y0263530D01*
X0308383Y0262427D01*
X0308383Y0244487D01*
X0308133Y0244237D01*
X0308133Y0266673D01*
X0308524Y0267064D01*
X0309133Y0268535D01*
X0309133Y0270126D01*
X0308524Y0271596D01*
X0307399Y0272721D01*
X0305929Y0273330D01*
X0304338Y0273330D01*
X0303133Y0272831D01*
X0303133Y0276673D01*
X0303524Y0277064D01*
X0304133Y0278535D01*
X0304133Y0280126D01*
X0303524Y0281596D01*
X0302399Y0282721D01*
X0300929Y0283330D01*
X0299338Y0283330D01*
X0297868Y0282721D01*
X0296742Y0281596D01*
X0296133Y0280126D01*
X0296133Y0278535D01*
X0296742Y0277064D01*
X0297133Y0276673D01*
X0297133Y0236573D01*
X0291883Y0241823D01*
X0291883Y0247923D01*
X0292274Y0248314D01*
X0292883Y0249785D01*
X0292883Y0251376D01*
X0292274Y0252846D01*
X0291149Y0253971D01*
X0289679Y0254580D01*
X0288133Y0254580D01*
X0288133Y0259927D01*
X0287677Y0261030D01*
X0279133Y0269573D01*
X0279133Y0270126D01*
X0278524Y0271596D01*
X0277399Y0272721D01*
X0275929Y0273330D01*
X0274338Y0273330D01*
X0272868Y0272721D01*
X0271742Y0271596D01*
X0271133Y0269878D02*
X0268828Y0269878D01*
X0270426Y0268280D02*
X0271239Y0268280D01*
X0272025Y0266681D02*
X0272125Y0266681D01*
X0273623Y0265083D02*
X0275138Y0265083D01*
X0275222Y0263484D02*
X0276737Y0263484D01*
X0276820Y0261886D02*
X0278335Y0261886D01*
X0278419Y0260287D02*
X0279934Y0260287D01*
X0280017Y0258689D02*
X0281532Y0258689D01*
X0281616Y0257090D02*
X0282133Y0257090D01*
X0288133Y0257090D02*
X0297133Y0257090D01*
X0297133Y0255492D02*
X0288133Y0255492D01*
X0288133Y0258689D02*
X0297133Y0258689D01*
X0297133Y0260287D02*
X0287984Y0260287D01*
X0286820Y0261886D02*
X0297133Y0261886D01*
X0297133Y0263484D02*
X0285222Y0263484D01*
X0283623Y0265083D02*
X0297133Y0265083D01*
X0297133Y0266681D02*
X0282025Y0266681D01*
X0280426Y0268280D02*
X0297133Y0268280D01*
X0297133Y0269878D02*
X0279133Y0269878D01*
X0278574Y0271477D02*
X0297133Y0271477D01*
X0297133Y0273075D02*
X0276544Y0273075D01*
X0273723Y0273075D02*
X0260633Y0273075D01*
X0260633Y0274674D02*
X0297133Y0274674D01*
X0297133Y0276272D02*
X0260633Y0276272D01*
X0260633Y0277871D02*
X0296408Y0277871D01*
X0296133Y0279469D02*
X0260633Y0279469D01*
X0260633Y0281068D02*
X0296524Y0281068D01*
X0297813Y0282666D02*
X0260633Y0282666D01*
X0260725Y0284265D02*
X0321911Y0284265D01*
X0321150Y0282666D02*
X0302454Y0282666D01*
X0303743Y0281068D02*
X0309964Y0281068D01*
X0308879Y0279469D02*
X0304133Y0279469D01*
X0303858Y0277871D02*
X0308633Y0277871D01*
X0309053Y0276272D02*
X0303133Y0276272D01*
X0303133Y0274674D02*
X0310404Y0274674D01*
X0308574Y0271477D02*
X0316787Y0271477D01*
X0315189Y0269878D02*
X0309133Y0269878D01*
X0309028Y0268280D02*
X0313590Y0268280D01*
X0311992Y0266681D02*
X0308141Y0266681D01*
X0308133Y0265083D02*
X0310393Y0265083D01*
X0308821Y0263484D02*
X0308133Y0263484D01*
X0308133Y0261886D02*
X0308383Y0261886D01*
X0308383Y0260287D02*
X0308133Y0260287D01*
X0308133Y0258689D02*
X0308383Y0258689D01*
X0308383Y0257090D02*
X0308133Y0257090D01*
X0308133Y0255492D02*
X0308383Y0255492D01*
X0308383Y0253893D02*
X0308133Y0253893D01*
X0308133Y0252295D02*
X0308383Y0252295D01*
X0308383Y0250696D02*
X0308133Y0250696D01*
X0308133Y0249098D02*
X0308383Y0249098D01*
X0308383Y0247499D02*
X0308133Y0247499D01*
X0308133Y0245901D02*
X0308383Y0245901D01*
X0308198Y0244302D02*
X0308133Y0244302D01*
X0297133Y0244302D02*
X0291883Y0244302D01*
X0291883Y0242704D02*
X0297133Y0242704D01*
X0297133Y0241105D02*
X0292601Y0241105D01*
X0294200Y0239507D02*
X0297133Y0239507D01*
X0297133Y0237908D02*
X0295798Y0237908D01*
X0297133Y0245901D02*
X0291883Y0245901D01*
X0291883Y0247499D02*
X0297133Y0247499D01*
X0297133Y0249098D02*
X0292599Y0249098D01*
X0292883Y0250696D02*
X0297133Y0250696D01*
X0297133Y0252295D02*
X0292503Y0252295D01*
X0291227Y0253893D02*
X0297133Y0253893D01*
X0303133Y0273075D02*
X0303723Y0273075D01*
X0306544Y0273075D02*
X0318386Y0273075D01*
X0320409Y0274674D02*
X0314862Y0274674D01*
X0342633Y0291830D02*
X0247828Y0291830D01*
X0242779Y0285531D01*
X0248429Y0285863D02*
X0253704Y0285863D01*
X0253633Y0287462D02*
X0248429Y0287462D01*
X0248429Y0284265D02*
X0254542Y0284265D01*
X0254633Y0282666D02*
X0248256Y0282666D01*
X0254633Y0281068D02*
X0227429Y0281068D01*
X0230845Y0279469D02*
X0231312Y0279469D01*
X0231312Y0277871D02*
X0230845Y0277871D01*
X0222488Y0298129D02*
X0222488Y0307088D01*
X0222633Y0307234D01*
X0227199Y0306644D02*
X0228205Y0306644D01*
X0227199Y0308243D02*
X0229803Y0308243D01*
X0227132Y0309841D02*
X0239130Y0309841D01*
X0237531Y0311440D02*
X0227182Y0311440D01*
X0227199Y0313038D02*
X0234519Y0313038D01*
X0238786Y0319432D02*
X0243328Y0319432D01*
X0242469Y0317834D02*
X0241029Y0317834D01*
X0241633Y0316235D02*
X0242383Y0316235D01*
X0229399Y0330622D02*
X0204286Y0330622D01*
X0206023Y0332220D02*
X0230998Y0332220D01*
X0232596Y0333819D02*
X0207761Y0333819D01*
X0209498Y0335417D02*
X0234195Y0335417D01*
X0235793Y0337016D02*
X0211236Y0337016D01*
X0212973Y0338614D02*
X0251142Y0338614D01*
X0252741Y0340213D02*
X0214711Y0340213D01*
X0216449Y0341811D02*
X0254339Y0341811D01*
X0254433Y0343410D02*
X0218186Y0343410D01*
X0219924Y0345008D02*
X0254433Y0345008D01*
X0254433Y0346607D02*
X0221661Y0346607D01*
X0223399Y0348205D02*
X0254433Y0348205D01*
X0254433Y0349804D02*
X0225136Y0349804D01*
X0226874Y0351402D02*
X0254433Y0351402D01*
X0254433Y0353001D02*
X0228611Y0353001D01*
X0230375Y0354599D02*
X0254433Y0354599D01*
X0254433Y0356198D02*
X0231616Y0356198D01*
X0232033Y0357796D02*
X0254433Y0357796D01*
X0254433Y0359395D02*
X0232033Y0359395D01*
X0232033Y0360994D02*
X0254433Y0360994D01*
X0254433Y0362592D02*
X0232033Y0362592D01*
X0232033Y0364191D02*
X0254433Y0364191D01*
X0254433Y0365789D02*
X0232033Y0365789D01*
X0232033Y0367388D02*
X0236394Y0367388D01*
X0237566Y0367388D02*
X0237966Y0367388D01*
X0239138Y0367388D02*
X0244764Y0367388D01*
X0243165Y0368986D02*
X0241518Y0368986D01*
X0242357Y0370585D02*
X0242503Y0370585D01*
X0237966Y0370585D02*
X0237566Y0370585D01*
X0237566Y0372183D02*
X0237966Y0372183D01*
X0237966Y0373782D02*
X0237566Y0373782D01*
X0237566Y0375380D02*
X0237966Y0375380D01*
X0237966Y0376979D02*
X0237566Y0376979D01*
X0237566Y0378577D02*
X0237966Y0378577D01*
X0237966Y0380176D02*
X0237566Y0380176D01*
X0237566Y0381774D02*
X0237966Y0381774D01*
X0238382Y0384154D02*
X0236312Y0384154D01*
X0236312Y0387847D01*
X0239945Y0387847D01*
X0239945Y0385717D01*
X0239822Y0385259D01*
X0239585Y0384849D01*
X0239250Y0384514D01*
X0238840Y0384277D01*
X0238382Y0384154D01*
X0239656Y0384971D02*
X0254433Y0384971D01*
X0254433Y0383373D02*
X0248879Y0383373D01*
X0246653Y0383373D02*
X0233588Y0383373D01*
X0233588Y0381774D02*
X0234810Y0381774D01*
X0235845Y0384971D02*
X0236312Y0384971D01*
X0236312Y0386570D02*
X0235845Y0386570D01*
X0236312Y0388168D02*
X0254433Y0388168D01*
X0254433Y0386570D02*
X0239945Y0386570D01*
X0239945Y0388314D02*
X0239945Y0390443D01*
X0239822Y0390901D01*
X0239585Y0391311D01*
X0239250Y0391647D01*
X0238840Y0391884D01*
X0238382Y0392006D01*
X0236312Y0392006D01*
X0236312Y0388314D01*
X0239945Y0388314D01*
X0239945Y0389767D02*
X0254433Y0389767D01*
X0254433Y0391365D02*
X0239532Y0391365D01*
X0236312Y0391365D02*
X0235845Y0391365D01*
X0235845Y0389767D02*
X0236312Y0389767D01*
X0240722Y0381774D02*
X0243915Y0381774D01*
X0242827Y0380176D02*
X0242039Y0380176D01*
X0251617Y0381774D02*
X0254433Y0381774D01*
X0254433Y0380176D02*
X0252705Y0380176D01*
X0253166Y0378577D02*
X0254433Y0378577D01*
X0254433Y0376979D02*
X0253166Y0376979D01*
X0253166Y0375380D02*
X0254433Y0375380D01*
X0254433Y0373782D02*
X0253166Y0373782D01*
X0253166Y0372183D02*
X0254433Y0372183D01*
X0254433Y0370585D02*
X0253029Y0370585D01*
X0252367Y0368986D02*
X0254433Y0368986D01*
X0254433Y0367388D02*
X0250768Y0367388D01*
X0260833Y0367388D02*
X0382133Y0367388D01*
X0382133Y0368986D02*
X0260833Y0368986D01*
X0260833Y0370585D02*
X0382133Y0370585D01*
X0382133Y0372183D02*
X0260833Y0372183D01*
X0260833Y0373782D02*
X0382133Y0373782D01*
X0382133Y0375380D02*
X0260833Y0375380D01*
X0260833Y0376979D02*
X0382133Y0376979D01*
X0382133Y0378577D02*
X0260833Y0378577D01*
X0260833Y0380176D02*
X0382133Y0380176D01*
X0382133Y0381774D02*
X0260833Y0381774D01*
X0260833Y0383373D02*
X0382133Y0383373D01*
X0381500Y0384971D02*
X0260833Y0384971D01*
X0260833Y0386570D02*
X0379901Y0386570D01*
X0378303Y0388168D02*
X0260833Y0388168D01*
X0260833Y0389767D02*
X0376704Y0389767D01*
X0375106Y0391365D02*
X0260833Y0391365D01*
X0260833Y0392964D02*
X0373507Y0392964D01*
X0371909Y0394562D02*
X0260833Y0394562D01*
X0260833Y0396161D02*
X0368896Y0396161D01*
X0367704Y0397759D02*
X0260833Y0397759D01*
X0260833Y0399358D02*
X0367383Y0399358D01*
X0367727Y0400956D02*
X0260833Y0400956D01*
X0260833Y0402555D02*
X0368951Y0402555D01*
X0373816Y0402555D02*
X0386257Y0402555D01*
X0386257Y0404153D02*
X0260833Y0404153D01*
X0260833Y0405752D02*
X0386257Y0405752D01*
X0386257Y0407350D02*
X0260833Y0407350D01*
X0260833Y0408949D02*
X0386257Y0408949D01*
X0386257Y0410547D02*
X0260833Y0410547D01*
X0260833Y0412146D02*
X0386257Y0412146D01*
X0386257Y0413744D02*
X0260833Y0413744D01*
X0260833Y0415343D02*
X0386257Y0415343D01*
X0386257Y0416941D02*
X0260833Y0416941D01*
X0260833Y0418540D02*
X0386257Y0418540D01*
X0386257Y0420138D02*
X0260833Y0420138D01*
X0260833Y0421737D02*
X0352566Y0421737D01*
X0351425Y0422687D02*
X0351425Y0422687D01*
X0350777Y0423335D02*
X0260833Y0423335D01*
X0260833Y0424934D02*
X0349762Y0424934D01*
X0349733Y0426532D02*
X0260833Y0426532D01*
X0260833Y0428131D02*
X0349733Y0428131D01*
X0349733Y0429729D02*
X0260833Y0429729D01*
X0260833Y0431328D02*
X0349733Y0431328D01*
X0349733Y0432927D02*
X0260833Y0432927D01*
X0260833Y0434525D02*
X0349733Y0434525D01*
X0349733Y0436124D02*
X0260833Y0436124D01*
X0260833Y0437722D02*
X0350674Y0437722D01*
X0354883Y0439321D02*
X0260833Y0439321D01*
X0260833Y0440919D02*
X0354883Y0440919D01*
X0354883Y0442518D02*
X0260833Y0442518D01*
X0260833Y0444116D02*
X0353441Y0444116D01*
X0351842Y0445715D02*
X0260833Y0445715D01*
X0260833Y0447313D02*
X0350244Y0447313D01*
X0348645Y0448912D02*
X0260833Y0448912D01*
X0260833Y0450510D02*
X0347047Y0450510D01*
X0345448Y0452109D02*
X0260833Y0452109D01*
X0260833Y0453707D02*
X0343850Y0453707D01*
X0342251Y0455306D02*
X0260833Y0455306D01*
X0260833Y0456904D02*
X0340652Y0456904D01*
X0339054Y0458503D02*
X0260404Y0458503D01*
X0258888Y0460101D02*
X0337455Y0460101D01*
X0335857Y0461700D02*
X0257289Y0461700D01*
X0255691Y0463298D02*
X0334258Y0463298D01*
X0332660Y0464897D02*
X0254092Y0464897D01*
X0251383Y0463080D02*
X0257633Y0456830D01*
X0257633Y0340580D01*
X0251383Y0334330D01*
X0237633Y0334330D01*
X0222633Y0319330D01*
X0227801Y0329023D02*
X0202548Y0329023D01*
X0222367Y0368986D02*
X0223165Y0368986D01*
X0232367Y0368986D02*
X0234015Y0368986D01*
X0233175Y0370585D02*
X0233029Y0370585D01*
X0237566Y0368986D02*
X0237966Y0368986D01*
X0260833Y0365789D02*
X0317988Y0365789D01*
X0319778Y0365789D02*
X0382133Y0365789D01*
X0382133Y0364191D02*
X0322180Y0364191D01*
X0315587Y0364191D02*
X0260833Y0364191D01*
X0260833Y0362592D02*
X0314883Y0362592D01*
X0314900Y0360994D02*
X0260833Y0360994D01*
X0260833Y0359395D02*
X0315662Y0359395D01*
X0316799Y0357796D02*
X0260833Y0357796D01*
X0254433Y0392964D02*
X0220966Y0392964D01*
X0221141Y0394562D02*
X0254433Y0394562D01*
X0254433Y0396161D02*
X0222739Y0396161D01*
X0224338Y0397759D02*
X0254433Y0397759D01*
X0254433Y0399358D02*
X0235862Y0399358D01*
X0237165Y0400956D02*
X0254433Y0400956D01*
X0254433Y0402555D02*
X0237199Y0402555D01*
X0237199Y0404153D02*
X0254433Y0404153D01*
X0254433Y0405752D02*
X0237199Y0405752D01*
X0237041Y0407350D02*
X0254433Y0407350D01*
X0254433Y0408949D02*
X0237199Y0408949D01*
X0237530Y0410547D02*
X0254433Y0410547D01*
X0254433Y0412146D02*
X0239128Y0412146D01*
X0240727Y0413744D02*
X0254433Y0413744D01*
X0254433Y0415343D02*
X0242325Y0415343D01*
X0243924Y0416941D02*
X0254433Y0416941D01*
X0254433Y0418540D02*
X0245522Y0418540D01*
X0247121Y0420138D02*
X0254433Y0420138D01*
X0254433Y0421737D02*
X0248719Y0421737D01*
X0250318Y0423335D02*
X0254433Y0423335D01*
X0254433Y0424934D02*
X0250964Y0424934D01*
X0250964Y0426532D02*
X0254433Y0426532D01*
X0254433Y0428131D02*
X0250964Y0428131D01*
X0250964Y0429729D02*
X0254433Y0429729D01*
X0254433Y0431328D02*
X0250964Y0431328D01*
X0250964Y0432927D02*
X0254433Y0432927D01*
X0254433Y0434525D02*
X0250964Y0434525D01*
X0250964Y0436124D02*
X0254433Y0436124D01*
X0254433Y0437722D02*
X0250964Y0437722D01*
X0251997Y0439321D02*
X0254433Y0439321D01*
X0254433Y0440919D02*
X0252861Y0440919D01*
X0253164Y0442518D02*
X0254433Y0442518D01*
X0254433Y0444116D02*
X0253164Y0444116D01*
X0253164Y0445715D02*
X0254433Y0445715D01*
X0254433Y0447313D02*
X0253164Y0447313D01*
X0253164Y0448912D02*
X0254433Y0448912D01*
X0254433Y0450510D02*
X0252869Y0450510D01*
X0252016Y0452109D02*
X0254433Y0452109D01*
X0254433Y0453707D02*
X0249845Y0453707D01*
X0245683Y0453707D02*
X0239648Y0453707D01*
X0239945Y0455306D02*
X0254433Y0455306D01*
X0253034Y0456904D02*
X0236312Y0456904D01*
X0239945Y0458503D02*
X0251435Y0458503D01*
X0251383Y0463080D02*
X0225133Y0463080D01*
X0217633Y0455580D01*
X0217633Y0445855D01*
X0217764Y0445724D01*
X0212364Y0445715D02*
X0155925Y0445715D01*
X0157523Y0447313D02*
X0212364Y0447313D01*
X0212364Y0448912D02*
X0159122Y0448912D01*
X0160720Y0450510D02*
X0212659Y0450510D01*
X0213511Y0452109D02*
X0162319Y0452109D01*
X0163917Y0453707D02*
X0214433Y0453707D01*
X0214433Y0455306D02*
X0165516Y0455306D01*
X0167114Y0456904D02*
X0214718Y0456904D01*
X0216030Y0458503D02*
X0168713Y0458503D01*
X0170311Y0460101D02*
X0217629Y0460101D01*
X0219227Y0461700D02*
X0171910Y0461700D01*
X0173508Y0463298D02*
X0220826Y0463298D01*
X0222424Y0464897D02*
X0175107Y0464897D01*
X0170187Y0471291D02*
X0080033Y0471291D01*
X0080033Y0472889D02*
X0172023Y0472889D01*
X0168589Y0469692D02*
X0080033Y0469692D01*
X0080033Y0468094D02*
X0166990Y0468094D01*
X0165392Y0466495D02*
X0080033Y0466495D01*
X0080033Y0464897D02*
X0163793Y0464897D01*
X0162195Y0463298D02*
X0080033Y0463298D01*
X0080033Y0461700D02*
X0095411Y0461700D01*
X0095627Y0461789D02*
X0092502Y0460495D01*
X0090110Y0458103D01*
X0088816Y0454978D01*
X0088816Y0451596D01*
X0090110Y0448471D01*
X0092502Y0446079D01*
X0095627Y0444785D01*
X0099010Y0444785D01*
X0102135Y0446079D01*
X0104526Y0448471D01*
X0105821Y0451596D01*
X0105821Y0454978D01*
X0104526Y0458103D01*
X0102135Y0460495D01*
X0099010Y0461789D01*
X0095627Y0461789D01*
X0099226Y0461700D02*
X0160596Y0461700D01*
X0158997Y0460101D02*
X0102528Y0460101D01*
X0104127Y0458503D02*
X0157399Y0458503D01*
X0155800Y0456904D02*
X0105023Y0456904D01*
X0105685Y0455306D02*
X0154202Y0455306D01*
X0152603Y0453707D02*
X0105821Y0453707D01*
X0105821Y0452109D02*
X0151005Y0452109D01*
X0149406Y0450510D02*
X0105371Y0450510D01*
X0104709Y0448912D02*
X0147808Y0448912D01*
X0146209Y0447313D02*
X0103369Y0447313D01*
X0101255Y0445715D02*
X0144611Y0445715D01*
X0143012Y0444116D02*
X0080033Y0444116D01*
X0080033Y0442518D02*
X0141606Y0442518D01*
X0141133Y0440919D02*
X0080033Y0440919D01*
X0080033Y0439321D02*
X0141133Y0439321D01*
X0141133Y0437722D02*
X0080033Y0437722D01*
X0080033Y0436124D02*
X0141133Y0436124D01*
X0141133Y0434525D02*
X0080033Y0434525D01*
X0080033Y0432927D02*
X0141133Y0432927D01*
X0141133Y0431328D02*
X0080033Y0431328D01*
X0080033Y0429729D02*
X0141133Y0429729D01*
X0141133Y0428131D02*
X0080033Y0428131D01*
X0080033Y0426532D02*
X0141133Y0426532D01*
X0141133Y0424934D02*
X0080033Y0424934D01*
X0080033Y0423335D02*
X0141133Y0423335D01*
X0149133Y0423335D02*
X0241267Y0423335D01*
X0239668Y0421737D02*
X0154328Y0421737D01*
X0155926Y0420138D02*
X0238070Y0420138D01*
X0236471Y0418540D02*
X0156783Y0418540D01*
X0156783Y0416941D02*
X0234873Y0416941D01*
X0233274Y0415343D02*
X0156783Y0415343D01*
X0156783Y0413744D02*
X0228673Y0413744D01*
X0228068Y0412146D02*
X0156783Y0412146D01*
X0156783Y0410547D02*
X0228068Y0410547D01*
X0228068Y0408949D02*
X0156783Y0408949D01*
X0156783Y0407350D02*
X0228226Y0407350D01*
X0232633Y0410177D02*
X0247764Y0425307D01*
X0247764Y0445724D01*
X0242659Y0450510D02*
X0242231Y0450510D01*
X0241168Y0452109D02*
X0243511Y0452109D01*
X0237964Y0444116D02*
X0237564Y0444116D01*
X0237564Y0442518D02*
X0237964Y0442518D01*
X0237964Y0440919D02*
X0237564Y0440919D01*
X0237564Y0439321D02*
X0237964Y0439321D01*
X0241148Y0439321D02*
X0243531Y0439321D01*
X0242667Y0440919D02*
X0242224Y0440919D01*
X0244564Y0437722D02*
X0229798Y0437722D01*
X0231997Y0439321D02*
X0234379Y0439321D01*
X0233303Y0440919D02*
X0232861Y0440919D01*
X0225729Y0437722D02*
X0219798Y0437722D01*
X0221997Y0439321D02*
X0223531Y0439321D01*
X0215729Y0437722D02*
X0149133Y0437722D01*
X0149133Y0436124D02*
X0244564Y0436124D01*
X0244564Y0434525D02*
X0149133Y0434525D01*
X0149133Y0432927D02*
X0244564Y0432927D01*
X0244564Y0431328D02*
X0149133Y0431328D01*
X0149133Y0429729D02*
X0244564Y0429729D01*
X0244564Y0428131D02*
X0149133Y0428131D01*
X0149133Y0426532D02*
X0244464Y0426532D01*
X0242865Y0424934D02*
X0149133Y0424934D01*
X0149531Y0439321D02*
X0213531Y0439321D01*
X0212667Y0440919D02*
X0151129Y0440919D01*
X0152728Y0442518D02*
X0212364Y0442518D01*
X0212364Y0444116D02*
X0154326Y0444116D01*
X0134689Y0421737D02*
X0080033Y0421737D01*
X0080033Y0420138D02*
X0133090Y0420138D01*
X0132233Y0418540D02*
X0080033Y0418540D01*
X0080033Y0416941D02*
X0132233Y0416941D01*
X0132233Y0415343D02*
X0080033Y0415343D01*
X0080033Y0413744D02*
X0132233Y0413744D01*
X0132233Y0412146D02*
X0080033Y0412146D01*
X0080033Y0410547D02*
X0132233Y0410547D01*
X0132233Y0408949D02*
X0080033Y0408949D01*
X0080033Y0407350D02*
X0132233Y0407350D01*
X0132233Y0405752D02*
X0080033Y0405752D01*
X0080033Y0404153D02*
X0132233Y0404153D01*
X0132233Y0402555D02*
X0080033Y0402555D01*
X0080033Y0400956D02*
X0132233Y0400956D01*
X0132501Y0399358D02*
X0080033Y0399358D01*
X0080033Y0397759D02*
X0133853Y0397759D01*
X0135452Y0396161D02*
X0080033Y0396161D01*
X0080033Y0445715D02*
X0093382Y0445715D01*
X0091268Y0447313D02*
X0080033Y0447313D01*
X0080033Y0448912D02*
X0089928Y0448912D01*
X0089266Y0450510D02*
X0080033Y0450510D01*
X0080033Y0452109D02*
X0088816Y0452109D01*
X0088816Y0453707D02*
X0080033Y0453707D01*
X0080033Y0455306D02*
X0088952Y0455306D01*
X0089614Y0456904D02*
X0080033Y0456904D01*
X0080033Y0458503D02*
X0090510Y0458503D01*
X0092109Y0460101D02*
X0080033Y0460101D01*
X0080033Y0474488D02*
X0386257Y0474488D01*
X0386257Y0472889D02*
X0335743Y0472889D01*
X0337580Y0471291D02*
X0386257Y0471291D01*
X0386257Y0469692D02*
X0339178Y0469692D01*
X0340777Y0468094D02*
X0386257Y0468094D01*
X0386257Y0466495D02*
X0342375Y0466495D01*
X0343974Y0464897D02*
X0386257Y0464897D01*
X0386257Y0463298D02*
X0345572Y0463298D01*
X0347171Y0461700D02*
X0367065Y0461700D01*
X0367281Y0461789D02*
X0364156Y0460495D01*
X0361764Y0458103D01*
X0360470Y0454978D01*
X0360470Y0451596D01*
X0361764Y0448471D01*
X0364156Y0446079D01*
X0367281Y0444785D01*
X0370663Y0444785D01*
X0373788Y0446079D01*
X0376180Y0448471D01*
X0377474Y0451596D01*
X0377474Y0454978D01*
X0376180Y0458103D01*
X0373788Y0460495D01*
X0370663Y0461789D01*
X0367281Y0461789D01*
X0370879Y0461700D02*
X0386257Y0461700D01*
X0386257Y0460101D02*
X0374182Y0460101D01*
X0375780Y0458503D02*
X0386257Y0458503D01*
X0386257Y0456904D02*
X0376676Y0456904D01*
X0377339Y0455306D02*
X0386257Y0455306D01*
X0386257Y0453707D02*
X0377474Y0453707D01*
X0377474Y0452109D02*
X0386257Y0452109D01*
X0386257Y0450510D02*
X0377025Y0450510D01*
X0376362Y0448912D02*
X0386257Y0448912D01*
X0386257Y0447313D02*
X0375022Y0447313D01*
X0372909Y0445715D02*
X0386257Y0445715D01*
X0386257Y0444116D02*
X0362883Y0444116D01*
X0362883Y0442518D02*
X0386257Y0442518D01*
X0386257Y0440919D02*
X0362883Y0440919D01*
X0362883Y0439321D02*
X0386257Y0439321D01*
X0386257Y0437722D02*
X0368343Y0437722D01*
X0369941Y0436124D02*
X0386257Y0436124D01*
X0386257Y0434525D02*
X0370533Y0434525D01*
X0370533Y0432927D02*
X0386257Y0432927D01*
X0386257Y0431328D02*
X0370533Y0431328D01*
X0370533Y0429729D02*
X0386257Y0429729D01*
X0386257Y0428131D02*
X0370533Y0428131D01*
X0370533Y0426532D02*
X0386257Y0426532D01*
X0386257Y0424934D02*
X0370505Y0424934D01*
X0369490Y0423335D02*
X0386257Y0423335D01*
X0386257Y0421737D02*
X0367701Y0421737D01*
X0375039Y0400956D02*
X0386257Y0400956D01*
X0386257Y0399358D02*
X0375598Y0399358D01*
X0377197Y0397759D02*
X0386257Y0397759D01*
X0386257Y0396161D02*
X0378795Y0396161D01*
X0380394Y0394562D02*
X0386257Y0394562D01*
X0386257Y0392964D02*
X0381992Y0392964D01*
X0383591Y0391365D02*
X0386257Y0391365D01*
X0386257Y0389767D02*
X0385189Y0389767D01*
X0382133Y0362592D02*
X0336342Y0362592D01*
X0333383Y0341811D02*
X0331857Y0341811D01*
X0333383Y0340213D02*
X0329800Y0340213D01*
X0333383Y0338614D02*
X0304910Y0338614D01*
X0303312Y0337016D02*
X0333383Y0337016D01*
X0333383Y0335417D02*
X0303133Y0335417D01*
X0303133Y0333819D02*
X0333383Y0333819D01*
X0333383Y0332220D02*
X0303133Y0332220D01*
X0303133Y0330622D02*
X0333383Y0330622D01*
X0333781Y0329023D02*
X0303133Y0329023D01*
X0303133Y0327425D02*
X0335296Y0327425D01*
X0336220Y0325826D02*
X0303133Y0325826D01*
X0303133Y0324228D02*
X0337079Y0324228D01*
X0336341Y0321031D02*
X0303133Y0321031D01*
X0303133Y0322629D02*
X0340440Y0322629D01*
X0334743Y0319432D02*
X0303133Y0319432D01*
X0303133Y0317834D02*
X0333144Y0317834D01*
X0332157Y0316235D02*
X0303133Y0316235D01*
X0303133Y0314637D02*
X0332133Y0314637D01*
X0332133Y0313038D02*
X0303963Y0313038D01*
X0304133Y0311440D02*
X0332566Y0311440D01*
X0334130Y0309841D02*
X0303639Y0309841D01*
X0301925Y0308243D02*
X0335728Y0308243D01*
X0346633Y0292258D02*
X0376713Y0292258D01*
X0375711Y0290659D02*
X0378312Y0290659D01*
X0378383Y0289060D02*
X0376557Y0289060D01*
X0377494Y0287462D02*
X0378383Y0287462D01*
X0373804Y0282666D02*
X0368774Y0282666D01*
X0369133Y0284265D02*
X0371392Y0284265D01*
X0369222Y0285863D02*
X0368828Y0285863D01*
X0368633Y0287462D02*
X0367658Y0287462D01*
X0368710Y0289060D02*
X0345520Y0289060D01*
X0346478Y0290659D02*
X0369555Y0290659D01*
X0362608Y0287462D02*
X0261633Y0287462D01*
X0261562Y0285863D02*
X0349924Y0285863D01*
X0355302Y0281068D02*
X0362739Y0281068D01*
X0367528Y0281068D02*
X0374633Y0281068D01*
X0374633Y0279469D02*
X0356387Y0279469D01*
X0356633Y0277871D02*
X0374633Y0277871D01*
X0374633Y0276272D02*
X0356214Y0276272D01*
X0368724Y0305046D02*
X0377133Y0305046D01*
X0376399Y0306644D02*
X0369133Y0306644D01*
X0368878Y0308243D02*
X0376133Y0308243D01*
X0376533Y0309841D02*
X0368133Y0309841D01*
X0368133Y0311440D02*
X0377836Y0311440D01*
X0378383Y0313038D02*
X0368133Y0313038D01*
X0368133Y0314637D02*
X0378383Y0314637D01*
X0378383Y0316235D02*
X0368133Y0316235D01*
X0368133Y0317834D02*
X0378383Y0317834D01*
X0378383Y0319432D02*
X0368133Y0319432D01*
X0368133Y0321031D02*
X0378383Y0321031D01*
X0378383Y0322629D02*
X0368133Y0322629D01*
X0368133Y0324228D02*
X0378383Y0324228D01*
X0378383Y0325826D02*
X0368133Y0325826D01*
X0368133Y0327425D02*
X0378383Y0327425D01*
X0378383Y0329023D02*
X0368133Y0329023D01*
X0368133Y0330622D02*
X0378383Y0330622D01*
X0378383Y0332220D02*
X0368133Y0332220D01*
X0368865Y0333819D02*
X0378383Y0333819D01*
X0378383Y0335417D02*
X0370463Y0335417D01*
X0372062Y0337016D02*
X0378383Y0337016D01*
X0378383Y0338614D02*
X0373660Y0338614D01*
X0375259Y0340213D02*
X0378383Y0340213D01*
X0378383Y0341811D02*
X0377737Y0341811D01*
X0381955Y0353001D02*
X0382133Y0353001D01*
X0382133Y0354599D02*
X0380357Y0354599D01*
X0378758Y0356198D02*
X0382133Y0356198D01*
X0382133Y0357796D02*
X0377160Y0357796D01*
X0375561Y0359395D02*
X0382133Y0359395D01*
X0382133Y0360994D02*
X0373963Y0360994D01*
X0365035Y0445715D02*
X0362639Y0445715D01*
X0362922Y0447313D02*
X0361557Y0447313D01*
X0361581Y0448912D02*
X0359959Y0448912D01*
X0360919Y0450510D02*
X0358360Y0450510D01*
X0356762Y0452109D02*
X0360470Y0452109D01*
X0360470Y0453707D02*
X0355163Y0453707D01*
X0353565Y0455306D02*
X0360605Y0455306D01*
X0361267Y0456904D02*
X0351966Y0456904D01*
X0350368Y0458503D02*
X0362164Y0458503D01*
X0363762Y0460101D02*
X0348769Y0460101D01*
X0232633Y0403484D02*
X0232230Y0403080D01*
X0225133Y0403080D01*
X0225936Y0399358D02*
X0229405Y0399358D01*
X0205233Y0261886D02*
X0205218Y0261886D01*
X0205233Y0260287D02*
X0204247Y0260287D01*
X0227266Y0247499D02*
X0233000Y0247499D01*
X0230627Y0245901D02*
X0229640Y0245901D01*
X0237266Y0247499D02*
X0243000Y0247499D01*
X0240627Y0245901D02*
X0239640Y0245901D01*
X0259640Y0245901D02*
X0260627Y0245901D01*
X0260045Y0247499D02*
X0263000Y0247499D01*
X0260971Y0229916D02*
X0259295Y0229916D01*
X0277829Y0217127D02*
X0285516Y0217127D01*
X0289750Y0217127D02*
X0293016Y0217127D01*
X0291572Y0218726D02*
X0291195Y0218726D01*
X0297250Y0217127D02*
X0300516Y0217127D01*
X0299072Y0218726D02*
X0298695Y0218726D01*
X0304750Y0217127D02*
X0313093Y0217127D01*
X0314692Y0215529D02*
X0279427Y0215529D01*
X0281026Y0213930D02*
X0316290Y0213930D01*
X0317889Y0212332D02*
X0282624Y0212332D01*
X0284223Y0210733D02*
X0319487Y0210733D01*
X0321086Y0209135D02*
X0285444Y0209135D01*
X0285633Y0207536D02*
X0322684Y0207536D01*
X0323673Y0205938D02*
X0285633Y0205938D01*
X0285781Y0204339D02*
X0324467Y0204339D01*
X0330799Y0204339D02*
X0333707Y0204339D01*
X0333707Y0202741D02*
X0286586Y0202741D01*
X0286633Y0201142D02*
X0333707Y0201142D01*
X0333784Y0199544D02*
X0286004Y0199544D01*
X0283707Y0197945D02*
X0350756Y0197945D01*
X0349654Y0198825D02*
X0349989Y0199160D01*
X0350226Y0199570D01*
X0350349Y0200028D01*
X0350349Y0202049D01*
X0346568Y0202049D01*
X0346568Y0198465D01*
X0348786Y0198465D01*
X0349243Y0198588D01*
X0349654Y0198825D01*
X0350211Y0199544D02*
X0350883Y0199544D01*
X0350883Y0201142D02*
X0350349Y0201142D01*
X0350349Y0202741D02*
X0350883Y0202741D01*
X0350883Y0204339D02*
X0350349Y0204339D01*
X0350724Y0205938D02*
X0350883Y0205938D01*
X0346199Y0202049D02*
X0346199Y0198465D01*
X0343981Y0198465D01*
X0343523Y0198588D01*
X0343113Y0198825D01*
X0342778Y0199160D01*
X0342541Y0199570D01*
X0342418Y0200028D01*
X0342418Y0202049D01*
X0346199Y0202049D01*
X0346199Y0201142D02*
X0346568Y0201142D01*
X0346568Y0199544D02*
X0346199Y0199544D01*
X0342556Y0199544D02*
X0341482Y0199544D01*
X0341437Y0199374D02*
X0341559Y0199831D01*
X0341559Y0201902D01*
X0337867Y0201902D01*
X0337867Y0198268D01*
X0339996Y0198268D01*
X0340454Y0198391D01*
X0340865Y0198628D01*
X0341200Y0198963D01*
X0341437Y0199374D01*
X0341559Y0201142D02*
X0342418Y0201142D01*
X0342418Y0202741D02*
X0341559Y0202741D01*
X0341559Y0204339D02*
X0342418Y0204339D01*
X0342043Y0205938D02*
X0341934Y0205938D01*
X0337867Y0201142D02*
X0337400Y0201142D01*
X0337400Y0199544D02*
X0337867Y0199544D01*
X0337705Y0196347D02*
X0338172Y0196347D01*
X0338172Y0194748D02*
X0337705Y0194748D01*
X0337705Y0193150D02*
X0328019Y0193150D01*
X0329655Y0191551D02*
X0334072Y0191551D01*
X0334072Y0194748D02*
X0292872Y0194748D01*
X0293916Y0193150D02*
X0297248Y0193150D01*
X0295474Y0191551D02*
X0294133Y0191551D01*
X0281560Y0197945D02*
X0280633Y0197945D01*
X0280633Y0196347D02*
X0334467Y0196347D01*
X0332633Y0199330D02*
X0332633Y0216830D01*
X0335133Y0219330D01*
X0342328Y0219330D01*
X0342633Y0219635D01*
X0335133Y0219635D01*
X0334900Y0218726D02*
X0335367Y0218726D01*
X0335367Y0217127D02*
X0334900Y0217127D01*
X0331262Y0217127D02*
X0321579Y0217127D01*
X0323177Y0215529D02*
X0344633Y0215529D01*
X0344633Y0213930D02*
X0324776Y0213930D01*
X0326374Y0212332D02*
X0333423Y0212332D01*
X0333107Y0210733D02*
X0328663Y0210733D01*
X0330985Y0209135D02*
X0333107Y0209135D01*
X0333107Y0207536D02*
X0331633Y0207536D01*
X0331593Y0205938D02*
X0333332Y0205938D01*
X0341843Y0212332D02*
X0342261Y0212332D01*
X0342400Y0217127D02*
X0342867Y0217127D01*
X0342867Y0218726D02*
X0342400Y0218726D01*
X0342633Y0226525D02*
X0335133Y0226525D01*
X0335133Y0226830D01*
X0330133Y0231830D01*
X0330883Y0221923D02*
X0331207Y0221923D01*
X0331207Y0220325D02*
X0318382Y0220325D01*
X0316783Y0221923D02*
X0324384Y0221923D01*
X0323639Y0223522D02*
X0315185Y0223522D01*
X0313755Y0225120D02*
X0322601Y0225120D01*
X0321002Y0226719D02*
X0314133Y0226719D01*
X0311495Y0218726D02*
X0306195Y0218726D01*
X0319980Y0218726D02*
X0331207Y0218726D01*
X0349020Y0196347D02*
X0349157Y0196347D01*
X0353133Y0186756D02*
X0353914Y0186756D01*
X0353133Y0185157D02*
X0356497Y0185157D01*
X0357748Y0183559D02*
X0353133Y0183559D01*
X0353133Y0181960D02*
X0364670Y0181960D01*
X0362891Y0183559D02*
X0362519Y0183559D01*
X0368096Y0181960D02*
X0372170Y0181960D01*
X0370391Y0183559D02*
X0369876Y0183559D01*
X0375596Y0181960D02*
X0383983Y0181960D01*
X0383983Y0180362D02*
X0353133Y0180362D01*
X0353133Y0178763D02*
X0383983Y0178763D01*
X0383983Y0177165D02*
X0353133Y0177165D01*
X0353133Y0175566D02*
X0384309Y0175566D01*
X0386257Y0173968D02*
X0353133Y0173968D01*
X0353133Y0172369D02*
X0386257Y0172369D01*
X0386257Y0170771D02*
X0353133Y0170771D01*
X0353133Y0169172D02*
X0386257Y0169172D01*
X0386257Y0167574D02*
X0353133Y0167574D01*
X0353133Y0165975D02*
X0386257Y0165975D01*
X0386257Y0164377D02*
X0353133Y0164377D01*
X0353133Y0162778D02*
X0386257Y0162778D01*
X0386257Y0161180D02*
X0362691Y0161180D01*
X0363841Y0159581D02*
X0386257Y0159581D01*
X0386257Y0157983D02*
X0364133Y0157983D01*
X0363760Y0156384D02*
X0386257Y0156384D01*
X0386257Y0154786D02*
X0362496Y0154786D01*
X0360006Y0153187D02*
X0386257Y0153187D01*
X0386257Y0151589D02*
X0358698Y0151589D01*
X0357390Y0149990D02*
X0386257Y0149990D01*
X0386257Y0148391D02*
X0356082Y0148391D01*
X0354774Y0146793D02*
X0386257Y0146793D01*
X0386257Y0145194D02*
X0353467Y0145194D01*
X0352159Y0143596D02*
X0386257Y0143596D01*
X0386257Y0141997D02*
X0350851Y0141997D01*
X0348330Y0148391D02*
X0325383Y0148391D01*
X0324922Y0149990D02*
X0349638Y0149990D01*
X0350384Y0151589D02*
X0350946Y0151589D01*
X0351983Y0153187D02*
X0352254Y0153187D01*
X0353051Y0154786D02*
X0353562Y0154786D01*
X0353133Y0156384D02*
X0354869Y0156384D01*
X0356133Y0157983D02*
X0353133Y0157983D01*
X0353133Y0159581D02*
X0356425Y0159581D01*
X0357576Y0161180D02*
X0353133Y0161180D01*
X0364156Y0137660D02*
X0361764Y0135268D01*
X0360470Y0132143D01*
X0360470Y0128761D01*
X0361764Y0125636D01*
X0364156Y0123244D01*
X0367281Y0121950D01*
X0370663Y0121950D01*
X0373788Y0123244D01*
X0376180Y0125636D01*
X0377474Y0128761D01*
X0377474Y0132143D01*
X0376180Y0135268D01*
X0373788Y0137660D01*
X0370663Y0138955D01*
X0367281Y0138955D01*
X0364156Y0137660D01*
X0363697Y0137202D02*
X0341504Y0137202D01*
X0343103Y0135603D02*
X0362099Y0135603D01*
X0361241Y0134005D02*
X0344701Y0134005D01*
X0346300Y0132406D02*
X0360578Y0132406D01*
X0360470Y0130808D02*
X0349312Y0130808D01*
X0350245Y0129209D02*
X0360470Y0129209D01*
X0360946Y0127611D02*
X0350383Y0127611D01*
X0349856Y0126012D02*
X0361608Y0126012D01*
X0362986Y0124414D02*
X0347984Y0124414D01*
X0344782Y0124414D02*
X0286331Y0124414D01*
X0283936Y0124414D02*
X0249383Y0124414D01*
X0249383Y0126012D02*
X0342910Y0126012D01*
X0342383Y0127611D02*
X0249383Y0127611D01*
X0249383Y0129209D02*
X0341012Y0129209D01*
X0339413Y0130808D02*
X0249018Y0130808D01*
X0249383Y0122815D02*
X0281730Y0122815D01*
X0281133Y0121217D02*
X0249383Y0121217D01*
X0249383Y0119618D02*
X0281202Y0119618D01*
X0282037Y0118020D02*
X0249383Y0118020D01*
X0249383Y0116421D02*
X0282233Y0116421D01*
X0281525Y0114823D02*
X0249317Y0114823D01*
X0248579Y0113224D02*
X0279926Y0113224D01*
X0284932Y0110027D02*
X0386257Y0110027D01*
X0386257Y0111626D02*
X0286530Y0111626D01*
X0287814Y0113224D02*
X0386257Y0113224D01*
X0386257Y0114823D02*
X0288033Y0114823D01*
X0288033Y0116421D02*
X0386257Y0116421D01*
X0386257Y0118020D02*
X0288230Y0118020D01*
X0289064Y0119618D02*
X0386257Y0119618D01*
X0386257Y0121217D02*
X0289133Y0121217D01*
X0288537Y0122815D02*
X0365191Y0122815D01*
X0372752Y0122815D02*
X0386257Y0122815D01*
X0386257Y0124414D02*
X0374958Y0124414D01*
X0376336Y0126012D02*
X0386257Y0126012D01*
X0386257Y0127611D02*
X0376998Y0127611D01*
X0377474Y0129209D02*
X0386257Y0129209D01*
X0386257Y0130808D02*
X0377474Y0130808D01*
X0377365Y0132406D02*
X0386257Y0132406D01*
X0386257Y0134005D02*
X0376703Y0134005D01*
X0375845Y0135603D02*
X0386257Y0135603D01*
X0386257Y0137202D02*
X0374246Y0137202D01*
X0371035Y0138800D02*
X0386257Y0138800D01*
X0386257Y0140399D02*
X0332770Y0140399D01*
X0332883Y0138800D02*
X0366908Y0138800D01*
X0337814Y0132406D02*
X0227550Y0132406D01*
X0228133Y0130808D02*
X0238748Y0130808D01*
X0238383Y0129209D02*
X0228133Y0129209D01*
X0228133Y0127611D02*
X0238086Y0127611D01*
X0238206Y0126012D02*
X0228133Y0126012D01*
X0228133Y0124414D02*
X0238383Y0124414D01*
X0238383Y0122815D02*
X0228133Y0122815D01*
X0214633Y0122815D02*
X0206783Y0122815D01*
X0206768Y0121217D02*
X0214633Y0121217D01*
X0214633Y0119618D02*
X0205773Y0119618D01*
X0206783Y0124414D02*
X0214633Y0124414D01*
X0214633Y0126012D02*
X0206783Y0126012D01*
X0206783Y0127611D02*
X0214633Y0127611D01*
X0214633Y0129209D02*
X0206783Y0129209D01*
X0206783Y0130808D02*
X0214633Y0130808D01*
X0215217Y0132406D02*
X0206783Y0132406D01*
X0208689Y0134005D02*
X0269802Y0134005D01*
X0269242Y0134564D02*
X0270368Y0133439D01*
X0271838Y0132830D01*
X0273429Y0132830D01*
X0274899Y0133439D01*
X0275290Y0133830D01*
X0278726Y0133830D01*
X0279118Y0133439D01*
X0280588Y0132830D01*
X0282179Y0132830D01*
X0283649Y0133439D01*
X0284774Y0134564D01*
X0285383Y0136035D01*
X0285383Y0137626D01*
X0284774Y0139096D01*
X0283649Y0140221D01*
X0282179Y0140830D01*
X0280588Y0140830D01*
X0279118Y0140221D01*
X0278726Y0139830D01*
X0275290Y0139830D01*
X0274899Y0140221D01*
X0273429Y0140830D01*
X0271838Y0140830D01*
X0270368Y0140221D01*
X0269242Y0139096D01*
X0268633Y0137626D01*
X0268633Y0136035D01*
X0269242Y0134564D01*
X0268812Y0135603D02*
X0208833Y0135603D01*
X0208833Y0137202D02*
X0227698Y0137202D01*
X0226389Y0138800D02*
X0208833Y0138800D01*
X0208833Y0140399D02*
X0225983Y0140399D01*
X0226239Y0141997D02*
X0223186Y0141997D01*
X0224891Y0143596D02*
X0226615Y0143596D01*
X0226615Y0145194D02*
X0225383Y0145194D01*
X0225211Y0146793D02*
X0226615Y0146793D01*
X0219580Y0141997D02*
X0208833Y0141997D01*
X0208833Y0143596D02*
X0217876Y0143596D01*
X0217383Y0145194D02*
X0208833Y0145194D01*
X0208833Y0146793D02*
X0217556Y0146793D01*
X0216498Y0148391D02*
X0208833Y0148391D01*
X0208833Y0149990D02*
X0216168Y0149990D01*
X0216168Y0151589D02*
X0208833Y0151589D01*
X0210026Y0153187D02*
X0216168Y0153187D01*
X0216298Y0154786D02*
X0211625Y0154786D01*
X0213223Y0156384D02*
X0218063Y0156384D01*
X0223011Y0156384D02*
X0223108Y0156384D01*
X0210045Y0162778D02*
X0208170Y0162778D01*
X0187633Y0175566D02*
X0187633Y0175566D01*
X0187633Y0177165D02*
X0187633Y0177165D01*
X0232300Y0137202D02*
X0268633Y0137202D01*
X0269120Y0138800D02*
X0237895Y0138800D01*
X0239004Y0140399D02*
X0270797Y0140399D01*
X0274470Y0140399D02*
X0279547Y0140399D01*
X0276578Y0141997D02*
X0261936Y0141997D01*
X0262399Y0142189D02*
X0263524Y0143314D01*
X0264133Y0144785D01*
X0264133Y0146376D01*
X0263524Y0147846D01*
X0263033Y0148337D01*
X0263033Y0152823D01*
X0263524Y0153314D01*
X0264133Y0154785D01*
X0264133Y0156376D01*
X0263524Y0157846D01*
X0262399Y0158971D01*
X0260929Y0159580D01*
X0259338Y0159580D01*
X0258170Y0159097D01*
X0255062Y0159097D01*
X0255062Y0155404D01*
X0256133Y0155404D01*
X0256133Y0154785D01*
X0256742Y0153314D01*
X0257233Y0152823D01*
X0257233Y0148337D01*
X0256742Y0147846D01*
X0256133Y0146376D01*
X0256133Y0144785D01*
X0256742Y0143314D01*
X0257868Y0142189D01*
X0259338Y0141580D01*
X0260929Y0141580D01*
X0262399Y0142189D01*
X0263641Y0143596D02*
X0275174Y0143596D01*
X0274966Y0145194D02*
X0264133Y0145194D01*
X0263961Y0146793D02*
X0274978Y0146793D01*
X0274978Y0148391D02*
X0263033Y0148391D01*
X0263033Y0149990D02*
X0274978Y0149990D01*
X0274978Y0151589D02*
X0263033Y0151589D01*
X0263397Y0153187D02*
X0274978Y0153187D01*
X0274978Y0154786D02*
X0264133Y0154786D01*
X0264130Y0156384D02*
X0274978Y0156384D01*
X0274978Y0157983D02*
X0263388Y0157983D01*
X0263883Y0159330D02*
X0254828Y0159330D01*
X0254595Y0157983D02*
X0255062Y0157983D01*
X0255062Y0156384D02*
X0254595Y0156384D01*
X0254085Y0154786D02*
X0256133Y0154786D01*
X0256870Y0153187D02*
X0255151Y0153187D01*
X0255383Y0151589D02*
X0257233Y0151589D01*
X0257233Y0149990D02*
X0254951Y0149990D01*
X0253534Y0148391D02*
X0257233Y0148391D01*
X0256306Y0146793D02*
X0236018Y0146793D01*
X0237560Y0145194D02*
X0256133Y0145194D01*
X0256626Y0143596D02*
X0238866Y0143596D01*
X0239268Y0141997D02*
X0258330Y0141997D01*
X0249233Y0148391D02*
X0247519Y0148391D01*
X0258695Y0159581D02*
X0274978Y0159581D01*
X0274228Y0161180D02*
X0258695Y0161180D01*
X0258119Y0162778D02*
X0272630Y0162778D01*
X0270191Y0164377D02*
X0258093Y0164377D01*
X0258114Y0165975D02*
X0268058Y0165975D01*
X0267477Y0167574D02*
X0258114Y0167574D01*
X0258114Y0167057D02*
X0255133Y0167057D01*
X0255133Y0167057D01*
X0258114Y0167057D01*
X0258114Y0169172D02*
X0267561Y0169172D01*
X0259068Y0170771D02*
X0257508Y0170771D01*
X0280063Y0163830D02*
X0288726Y0163830D01*
X0289118Y0163439D01*
X0290588Y0162830D01*
X0292179Y0162830D01*
X0293649Y0163439D01*
X0294040Y0163830D01*
X0295141Y0163830D01*
X0295883Y0163088D01*
X0295883Y0154983D01*
X0296340Y0153881D01*
X0311641Y0138580D01*
X0293876Y0138580D01*
X0286427Y0146030D01*
X0285583Y0146873D01*
X0284480Y0147330D01*
X0280978Y0147330D01*
X0280978Y0162269D01*
X0280521Y0163372D01*
X0280063Y0163830D01*
X0280767Y0162778D02*
X0295883Y0162778D01*
X0295883Y0161180D02*
X0280978Y0161180D01*
X0280978Y0159581D02*
X0295883Y0159581D01*
X0295883Y0157983D02*
X0280978Y0157983D01*
X0280978Y0156384D02*
X0295883Y0156384D01*
X0295965Y0154786D02*
X0280978Y0154786D01*
X0280978Y0153187D02*
X0297034Y0153187D01*
X0298632Y0151589D02*
X0280978Y0151589D01*
X0280978Y0149990D02*
X0300231Y0149990D01*
X0301829Y0148391D02*
X0280978Y0148391D01*
X0285663Y0146793D02*
X0303428Y0146793D01*
X0305026Y0145194D02*
X0287262Y0145194D01*
X0288860Y0143596D02*
X0306625Y0143596D01*
X0308223Y0141997D02*
X0290459Y0141997D01*
X0292057Y0140399D02*
X0309822Y0140399D01*
X0311420Y0138800D02*
X0293656Y0138800D01*
X0289966Y0134005D02*
X0284215Y0134005D01*
X0285205Y0135603D02*
X0288367Y0135603D01*
X0286769Y0137202D02*
X0285383Y0137202D01*
X0285170Y0138800D02*
X0284897Y0138800D01*
X0283572Y0140399D02*
X0283220Y0140399D01*
X0382355Y0183559D02*
X0383983Y0183559D01*
X0383983Y0185157D02*
X0383133Y0185157D01*
X0383133Y0186756D02*
X0383983Y0186756D01*
X0383983Y0188354D02*
X0383133Y0188354D01*
X0157845Y0111626D02*
X0150985Y0111626D01*
X0153456Y0113224D02*
X0155374Y0113224D01*
X0154970Y0126012D02*
X0153860Y0126012D01*
D37*
X0181383Y0125802D02*
X0203883Y0125802D01*
X0203883Y0126800D02*
X0181383Y0126800D01*
X0181383Y0127799D02*
X0203883Y0127799D01*
X0203883Y0128797D02*
X0181383Y0128797D01*
X0181383Y0129796D02*
X0203883Y0129796D01*
X0203883Y0130794D02*
X0181383Y0130794D01*
X0181383Y0131793D02*
X0203883Y0131793D01*
X0203883Y0131830D02*
X0203883Y0121830D01*
X0181383Y0121830D01*
X0181383Y0131830D01*
X0203883Y0131830D01*
X0203883Y0124803D02*
X0181383Y0124803D01*
X0181383Y0123805D02*
X0203883Y0123805D01*
X0203883Y0122806D02*
X0181383Y0122806D01*
X0204508Y0152455D02*
X0202633Y0154330D01*
X0202633Y0159409D01*
X0202633Y0169251D02*
X0202633Y0179330D01*
X0204008Y0180705D01*
X0205258Y0180705D01*
X0215133Y0183080D02*
X0215133Y0200885D01*
X0223883Y0200885D01*
X0223883Y0207775D02*
X0215133Y0207775D01*
X0223883Y0207775D02*
X0233883Y0207775D01*
X0226383Y0183080D02*
X0215133Y0183080D01*
X0226383Y0183080D02*
X0233883Y0175580D01*
X0260133Y0155580D02*
X0260133Y0145580D01*
X0256687Y0142777D02*
X0238883Y0142777D01*
X0238883Y0143080D02*
X0256383Y0143080D01*
X0258883Y0140580D01*
X0258883Y0133080D01*
X0238883Y0133080D01*
X0238883Y0143080D01*
X0238883Y0141778D02*
X0257685Y0141778D01*
X0258684Y0140780D02*
X0238883Y0140780D01*
X0238883Y0139781D02*
X0258883Y0139781D01*
X0258883Y0138783D02*
X0238883Y0138783D01*
X0238883Y0137784D02*
X0258883Y0137784D01*
X0258883Y0136786D02*
X0238883Y0136786D01*
X0238883Y0135787D02*
X0258883Y0135787D01*
X0258883Y0134789D02*
X0238883Y0134789D01*
X0238883Y0133790D02*
X0258883Y0133790D01*
X0280133Y0109330D02*
X0285133Y0114330D01*
X0285133Y0120580D01*
X0280133Y0109330D02*
X0213883Y0109330D01*
X0213883Y0113080D01*
X0126383Y0213080D02*
X0126383Y0224330D01*
X0133883Y0231830D01*
X0145133Y0231830D01*
X0148883Y0235580D01*
X0145133Y0241830D02*
X0153883Y0241830D01*
X0156383Y0239330D01*
X0156383Y0228080D01*
X0153883Y0225580D01*
X0136383Y0225580D01*
X0131383Y0220580D01*
X0131383Y0216830D01*
X0160133Y0240580D02*
X0160133Y0251830D01*
X0175133Y0251830D01*
X0175133Y0240580D01*
X0160133Y0240580D01*
X0160133Y0240631D02*
X0175133Y0240631D01*
X0175133Y0241629D02*
X0160133Y0241629D01*
X0160133Y0242628D02*
X0175133Y0242628D01*
X0175133Y0243626D02*
X0160133Y0243626D01*
X0160133Y0244625D02*
X0175133Y0244625D01*
X0175133Y0245623D02*
X0160133Y0245623D01*
X0160133Y0246622D02*
X0175133Y0246622D01*
X0175133Y0247620D02*
X0160133Y0247620D01*
X0160133Y0248619D02*
X0175133Y0248619D01*
X0175133Y0249617D02*
X0160133Y0249617D01*
X0160133Y0250616D02*
X0175133Y0250616D01*
X0175133Y0251614D02*
X0160133Y0251614D01*
X0171383Y0261830D02*
X0171383Y0266830D01*
X0170645Y0267568D01*
X0158883Y0267568D01*
X0171383Y0261830D02*
X0172633Y0260580D01*
X0178883Y0251830D02*
X0195133Y0251830D01*
X0195133Y0244330D01*
X0191383Y0240580D01*
X0178883Y0240580D01*
X0178883Y0251830D01*
X0178883Y0251614D02*
X0195133Y0251614D01*
X0195133Y0250616D02*
X0178883Y0250616D01*
X0178883Y0249617D02*
X0195133Y0249617D01*
X0195133Y0248619D02*
X0178883Y0248619D01*
X0178883Y0247620D02*
X0195133Y0247620D01*
X0195133Y0246622D02*
X0178883Y0246622D01*
X0178883Y0245623D02*
X0195133Y0245623D01*
X0195133Y0244625D02*
X0178883Y0244625D01*
X0178883Y0243626D02*
X0194429Y0243626D01*
X0193431Y0242628D02*
X0178883Y0242628D01*
X0178883Y0241629D02*
X0192432Y0241629D01*
X0191434Y0240631D02*
X0178883Y0240631D01*
X0185133Y0296830D02*
X0147633Y0296830D01*
X0142633Y0301830D01*
X0142633Y0323080D01*
X0140133Y0325580D01*
X0136383Y0325580D01*
X0116383Y0345580D01*
X0119287Y0326830D02*
X0119287Y0319389D01*
X0119287Y0314271D02*
X0117574Y0314271D01*
X0112633Y0309330D01*
X0110980Y0309330D01*
X0110133Y0308484D01*
X0110133Y0306830D01*
X0115133Y0301830D01*
X0119287Y0301830D01*
X0120133Y0300984D01*
X0120133Y0307677D02*
X0125940Y0307677D01*
X0125940Y0314232D01*
X0125980Y0314271D01*
X0125980Y0319389D02*
X0125980Y0326830D01*
X0125980Y0320275D02*
X0125980Y0319389D01*
X0125980Y0320275D02*
X0135133Y0320275D01*
X0135133Y0313385D02*
X0135980Y0313385D01*
X0135980Y0304330D01*
X0129287Y0304330D02*
X0125940Y0307677D01*
X0156383Y0320580D02*
X0156383Y0329330D01*
X0158883Y0331830D01*
X0167633Y0331830D01*
X0175133Y0324330D01*
X0175133Y0318080D01*
X0158883Y0318080D01*
X0156383Y0320580D01*
X0156452Y0320512D02*
X0175133Y0320512D01*
X0175133Y0321510D02*
X0156383Y0321510D01*
X0156383Y0322509D02*
X0175133Y0322509D01*
X0175133Y0323507D02*
X0156383Y0323507D01*
X0156383Y0324506D02*
X0174958Y0324506D01*
X0173959Y0325504D02*
X0156383Y0325504D01*
X0156383Y0326503D02*
X0172961Y0326503D01*
X0171962Y0327501D02*
X0156383Y0327501D01*
X0156383Y0328500D02*
X0170964Y0328500D01*
X0169965Y0329498D02*
X0156551Y0329498D01*
X0157550Y0330497D02*
X0168967Y0330497D01*
X0167968Y0331495D02*
X0158548Y0331495D01*
X0166383Y0336830D02*
X0170133Y0336830D01*
X0166383Y0336830D02*
X0156383Y0346830D01*
X0155133Y0346830D01*
X0149070Y0352893D01*
X0139070Y0352893D01*
X0133883Y0378080D02*
X0133883Y0389330D01*
X0138883Y0396830D02*
X0135133Y0400580D01*
X0135133Y0418080D01*
X0136383Y0419330D01*
X0152633Y0419330D01*
X0153883Y0418080D01*
X0153883Y0400580D01*
X0150133Y0396830D01*
X0138883Y0396830D01*
X0138317Y0397397D02*
X0150700Y0397397D01*
X0151699Y0398396D02*
X0137318Y0398396D01*
X0136320Y0399394D02*
X0152697Y0399394D01*
X0153696Y0400393D02*
X0135321Y0400393D01*
X0135133Y0401391D02*
X0153883Y0401391D01*
X0153883Y0402390D02*
X0135133Y0402390D01*
X0135133Y0403388D02*
X0153883Y0403388D01*
X0153883Y0404387D02*
X0135133Y0404387D01*
X0135133Y0405385D02*
X0153883Y0405385D01*
X0153883Y0406384D02*
X0135133Y0406384D01*
X0135133Y0407382D02*
X0153883Y0407382D01*
X0153883Y0408381D02*
X0135133Y0408381D01*
X0135133Y0409379D02*
X0153883Y0409379D01*
X0153883Y0410378D02*
X0135133Y0410378D01*
X0135133Y0411376D02*
X0153883Y0411376D01*
X0153883Y0412375D02*
X0135133Y0412375D01*
X0135133Y0413373D02*
X0153883Y0413373D01*
X0153883Y0414372D02*
X0135133Y0414372D01*
X0135133Y0415370D02*
X0153883Y0415370D01*
X0153883Y0416369D02*
X0135133Y0416369D01*
X0135133Y0417367D02*
X0153883Y0417367D01*
X0153598Y0418366D02*
X0135419Y0418366D01*
X0133883Y0378080D02*
X0170133Y0341830D01*
X0176383Y0336830D02*
X0176383Y0358080D01*
X0176383Y0360580D01*
X0178883Y0363080D01*
X0180133Y0368080D02*
X0167633Y0368080D01*
X0165133Y0370580D01*
X0165133Y0376830D01*
X0166383Y0378080D01*
X0181383Y0378080D01*
X0182633Y0376830D01*
X0182633Y0370580D01*
X0180133Y0368080D01*
X0180493Y0368440D02*
X0167273Y0368440D01*
X0166275Y0369439D02*
X0181492Y0369439D01*
X0182490Y0370437D02*
X0165276Y0370437D01*
X0165133Y0371436D02*
X0182633Y0371436D01*
X0182633Y0372434D02*
X0165133Y0372434D01*
X0165133Y0373433D02*
X0182633Y0373433D01*
X0182633Y0374431D02*
X0165133Y0374431D01*
X0165133Y0375430D02*
X0182633Y0375430D01*
X0182633Y0376428D02*
X0165133Y0376428D01*
X0165730Y0377427D02*
X0182037Y0377427D01*
X0175133Y0319513D02*
X0157450Y0319513D01*
X0158449Y0318515D02*
X0175133Y0318515D01*
X0332633Y0199330D02*
X0334828Y0199330D01*
X0337633Y0202135D01*
X0363883Y0218927D02*
X0363883Y0240580D01*
X0366383Y0424330D02*
X0353883Y0424330D01*
X0352633Y0425580D01*
X0352633Y0435580D01*
X0366383Y0435580D01*
X0367633Y0434330D01*
X0367633Y0425580D01*
X0366383Y0424330D01*
X0366410Y0424357D02*
X0353857Y0424357D01*
X0352858Y0425355D02*
X0367408Y0425355D01*
X0367633Y0426354D02*
X0352633Y0426354D01*
X0352633Y0427352D02*
X0367633Y0427352D01*
X0367633Y0428351D02*
X0352633Y0428351D01*
X0352633Y0429349D02*
X0367633Y0429349D01*
X0367633Y0430348D02*
X0352633Y0430348D01*
X0352633Y0431346D02*
X0367633Y0431346D01*
X0367633Y0432345D02*
X0352633Y0432345D01*
X0352633Y0433343D02*
X0367633Y0433343D01*
X0367622Y0434342D02*
X0352633Y0434342D01*
X0352633Y0435340D02*
X0366623Y0435340D01*
D38*
X0210133Y0276830D02*
X0210133Y0268080D01*
X0210133Y0249330D01*
X0180133Y0219330D01*
X0180133Y0136830D01*
X0188883Y0128080D01*
X0190133Y0128080D01*
X0193883Y0128080D01*
X0205133Y0114330D02*
X0210133Y0119330D01*
X0210133Y0129330D01*
X0215133Y0134330D01*
X0238211Y0134330D01*
X0238211Y0134908D01*
X0241383Y0138080D01*
X0205133Y0114330D02*
X0175133Y0114330D01*
X0175133Y0128080D01*
X0171383Y0131830D01*
X0171383Y0143080D01*
X0171383Y0223080D01*
X0185133Y0236830D01*
X0188883Y0240580D01*
X0188883Y0249330D01*
X0188883Y0263080D01*
X0188883Y0269635D01*
X0188883Y0276525D02*
X0191383Y0276525D01*
X0196285Y0276525D01*
X0196383Y0276427D01*
X0196787Y0276830D01*
X0210133Y0276830D01*
X0196787Y0276830D02*
X0196383Y0276830D01*
D39*
X0196383Y0329330D01*
X0227633Y0358080D01*
X0227633Y0373080D01*
X0227633Y0374856D01*
X0227766Y0374989D01*
X0229188Y0374635D02*
X0227633Y0373080D01*
X0229188Y0374635D02*
X0229188Y0388080D01*
X0236078Y0388080D02*
X0236078Y0376677D01*
X0237766Y0374989D01*
X0237764Y0445724D02*
X0236078Y0447410D01*
X0236078Y0456830D01*
X0229188Y0456830D02*
X0229188Y0447149D01*
X0227764Y0445724D01*
D40*
X0185133Y0356830D02*
X0177633Y0356830D01*
X0176383Y0358080D01*
X0227633Y0152234D02*
X0227230Y0151830D01*
X0236383Y0152234D02*
X0236787Y0151830D01*
X0199449Y0124330D02*
X0190133Y0128080D01*
D41*
X0215133Y0134330D02*
X0238883Y0134330D01*
X0242633Y0138080D01*
X0256383Y0138080D01*
D42*
X0251383Y0200580D03*
D43*
X0229999Y0140580D03*
D44*
X0223365Y0127395D03*
X0242664Y0127212D03*
D45*
X0243625Y0115372D03*
X0222183Y0115240D03*
M02*
