G75*
%MOIN*%
%OFA0B0*%
%FSLAX25Y25*%
%IPPOS*%
%LPD*%
%AMOC8*
5,1,8,0,0,1.08239X$1,22.5*
%
%ADD10C,0.00000*%
%ADD11C,0.00600*%
%ADD12C,0.00300*%
%ADD13C,0.00800*%
%ADD14C,0.00500*%
%ADD15R,0.03400X0.01600*%
%ADD16C,0.00400*%
%ADD17R,0.01600X0.03400*%
%ADD18R,0.01800X0.02300*%
%ADD19R,0.02000X0.02000*%
%ADD20C,0.02362*%
%ADD21R,0.01400X0.05157*%
%ADD22R,0.03150X0.01378*%
%ADD23C,0.00200*%
%ADD24R,0.01378X0.03150*%
%ADD25C,0.00700*%
%ADD26R,0.00984X0.01841*%
%ADD27R,0.00982X0.01846*%
%ADD28R,0.00988X0.01847*%
%ADD29R,0.00985X0.01832*%
%ADD30R,0.00983X0.01837*%
%ADD31R,0.00986X0.01836*%
%ADD32R,0.01844X0.00985*%
%ADD33R,0.01842X0.00983*%
%ADD34R,0.01842X0.00982*%
%ADD35R,0.01847X0.00988*%
%ADD36R,0.01847X0.00991*%
%ADD37R,0.01832X0.00985*%
%ADD38R,0.01832X0.00981*%
%ADD39R,0.01838X0.00983*%
%ADD40R,0.01832X0.00989*%
%ADD41R,0.01836X0.00987*%
%ADD42C,0.00100*%
%ADD43R,0.02362X0.01181*%
D10*
X0077633Y0118330D02*
X0077633Y0488409D01*
X0388657Y0488409D01*
X0388657Y0118330D01*
X0077633Y0118330D01*
X0091216Y0141952D02*
X0091218Y0142108D01*
X0091224Y0142264D01*
X0091234Y0142419D01*
X0091248Y0142574D01*
X0091266Y0142729D01*
X0091288Y0142883D01*
X0091313Y0143037D01*
X0091343Y0143190D01*
X0091377Y0143342D01*
X0091414Y0143494D01*
X0091455Y0143644D01*
X0091500Y0143793D01*
X0091549Y0143941D01*
X0091602Y0144088D01*
X0091658Y0144233D01*
X0091718Y0144377D01*
X0091782Y0144519D01*
X0091850Y0144660D01*
X0091921Y0144798D01*
X0091995Y0144935D01*
X0092073Y0145070D01*
X0092154Y0145203D01*
X0092239Y0145334D01*
X0092327Y0145463D01*
X0092418Y0145589D01*
X0092513Y0145713D01*
X0092610Y0145834D01*
X0092711Y0145953D01*
X0092815Y0146070D01*
X0092921Y0146183D01*
X0093031Y0146294D01*
X0093143Y0146402D01*
X0093258Y0146507D01*
X0093376Y0146610D01*
X0093496Y0146709D01*
X0093619Y0146805D01*
X0093744Y0146898D01*
X0093871Y0146987D01*
X0094001Y0147074D01*
X0094133Y0147157D01*
X0094267Y0147236D01*
X0094403Y0147313D01*
X0094541Y0147385D01*
X0094680Y0147455D01*
X0094822Y0147520D01*
X0094965Y0147582D01*
X0095109Y0147640D01*
X0095255Y0147695D01*
X0095403Y0147746D01*
X0095551Y0147793D01*
X0095701Y0147836D01*
X0095852Y0147875D01*
X0096004Y0147911D01*
X0096156Y0147942D01*
X0096310Y0147970D01*
X0096464Y0147994D01*
X0096618Y0148014D01*
X0096773Y0148030D01*
X0096929Y0148042D01*
X0097084Y0148050D01*
X0097240Y0148054D01*
X0097396Y0148054D01*
X0097552Y0148050D01*
X0097707Y0148042D01*
X0097863Y0148030D01*
X0098018Y0148014D01*
X0098172Y0147994D01*
X0098326Y0147970D01*
X0098480Y0147942D01*
X0098632Y0147911D01*
X0098784Y0147875D01*
X0098935Y0147836D01*
X0099085Y0147793D01*
X0099233Y0147746D01*
X0099381Y0147695D01*
X0099527Y0147640D01*
X0099671Y0147582D01*
X0099814Y0147520D01*
X0099956Y0147455D01*
X0100095Y0147385D01*
X0100233Y0147313D01*
X0100369Y0147236D01*
X0100503Y0147157D01*
X0100635Y0147074D01*
X0100765Y0146987D01*
X0100892Y0146898D01*
X0101017Y0146805D01*
X0101140Y0146709D01*
X0101260Y0146610D01*
X0101378Y0146507D01*
X0101493Y0146402D01*
X0101605Y0146294D01*
X0101715Y0146183D01*
X0101821Y0146070D01*
X0101925Y0145953D01*
X0102026Y0145834D01*
X0102123Y0145713D01*
X0102218Y0145589D01*
X0102309Y0145463D01*
X0102397Y0145334D01*
X0102482Y0145203D01*
X0102563Y0145070D01*
X0102641Y0144935D01*
X0102715Y0144798D01*
X0102786Y0144660D01*
X0102854Y0144519D01*
X0102918Y0144377D01*
X0102978Y0144233D01*
X0103034Y0144088D01*
X0103087Y0143941D01*
X0103136Y0143793D01*
X0103181Y0143644D01*
X0103222Y0143494D01*
X0103259Y0143342D01*
X0103293Y0143190D01*
X0103323Y0143037D01*
X0103348Y0142883D01*
X0103370Y0142729D01*
X0103388Y0142574D01*
X0103402Y0142419D01*
X0103412Y0142264D01*
X0103418Y0142108D01*
X0103420Y0141952D01*
X0103418Y0141796D01*
X0103412Y0141640D01*
X0103402Y0141485D01*
X0103388Y0141330D01*
X0103370Y0141175D01*
X0103348Y0141021D01*
X0103323Y0140867D01*
X0103293Y0140714D01*
X0103259Y0140562D01*
X0103222Y0140410D01*
X0103181Y0140260D01*
X0103136Y0140111D01*
X0103087Y0139963D01*
X0103034Y0139816D01*
X0102978Y0139671D01*
X0102918Y0139527D01*
X0102854Y0139385D01*
X0102786Y0139244D01*
X0102715Y0139106D01*
X0102641Y0138969D01*
X0102563Y0138834D01*
X0102482Y0138701D01*
X0102397Y0138570D01*
X0102309Y0138441D01*
X0102218Y0138315D01*
X0102123Y0138191D01*
X0102026Y0138070D01*
X0101925Y0137951D01*
X0101821Y0137834D01*
X0101715Y0137721D01*
X0101605Y0137610D01*
X0101493Y0137502D01*
X0101378Y0137397D01*
X0101260Y0137294D01*
X0101140Y0137195D01*
X0101017Y0137099D01*
X0100892Y0137006D01*
X0100765Y0136917D01*
X0100635Y0136830D01*
X0100503Y0136747D01*
X0100369Y0136668D01*
X0100233Y0136591D01*
X0100095Y0136519D01*
X0099956Y0136449D01*
X0099814Y0136384D01*
X0099671Y0136322D01*
X0099527Y0136264D01*
X0099381Y0136209D01*
X0099233Y0136158D01*
X0099085Y0136111D01*
X0098935Y0136068D01*
X0098784Y0136029D01*
X0098632Y0135993D01*
X0098480Y0135962D01*
X0098326Y0135934D01*
X0098172Y0135910D01*
X0098018Y0135890D01*
X0097863Y0135874D01*
X0097707Y0135862D01*
X0097552Y0135854D01*
X0097396Y0135850D01*
X0097240Y0135850D01*
X0097084Y0135854D01*
X0096929Y0135862D01*
X0096773Y0135874D01*
X0096618Y0135890D01*
X0096464Y0135910D01*
X0096310Y0135934D01*
X0096156Y0135962D01*
X0096004Y0135993D01*
X0095852Y0136029D01*
X0095701Y0136068D01*
X0095551Y0136111D01*
X0095403Y0136158D01*
X0095255Y0136209D01*
X0095109Y0136264D01*
X0094965Y0136322D01*
X0094822Y0136384D01*
X0094680Y0136449D01*
X0094541Y0136519D01*
X0094403Y0136591D01*
X0094267Y0136668D01*
X0094133Y0136747D01*
X0094001Y0136830D01*
X0093871Y0136917D01*
X0093744Y0137006D01*
X0093619Y0137099D01*
X0093496Y0137195D01*
X0093376Y0137294D01*
X0093258Y0137397D01*
X0093143Y0137502D01*
X0093031Y0137610D01*
X0092921Y0137721D01*
X0092815Y0137834D01*
X0092711Y0137951D01*
X0092610Y0138070D01*
X0092513Y0138191D01*
X0092418Y0138315D01*
X0092327Y0138441D01*
X0092239Y0138570D01*
X0092154Y0138701D01*
X0092073Y0138834D01*
X0091995Y0138969D01*
X0091921Y0139106D01*
X0091850Y0139244D01*
X0091782Y0139385D01*
X0091718Y0139527D01*
X0091658Y0139671D01*
X0091602Y0139816D01*
X0091549Y0139963D01*
X0091500Y0140111D01*
X0091455Y0140260D01*
X0091414Y0140410D01*
X0091377Y0140562D01*
X0091343Y0140714D01*
X0091313Y0140867D01*
X0091288Y0141021D01*
X0091266Y0141175D01*
X0091248Y0141330D01*
X0091234Y0141485D01*
X0091224Y0141640D01*
X0091218Y0141796D01*
X0091216Y0141952D01*
X0091216Y0464787D02*
X0091218Y0464943D01*
X0091224Y0465099D01*
X0091234Y0465254D01*
X0091248Y0465409D01*
X0091266Y0465564D01*
X0091288Y0465718D01*
X0091313Y0465872D01*
X0091343Y0466025D01*
X0091377Y0466177D01*
X0091414Y0466329D01*
X0091455Y0466479D01*
X0091500Y0466628D01*
X0091549Y0466776D01*
X0091602Y0466923D01*
X0091658Y0467068D01*
X0091718Y0467212D01*
X0091782Y0467354D01*
X0091850Y0467495D01*
X0091921Y0467633D01*
X0091995Y0467770D01*
X0092073Y0467905D01*
X0092154Y0468038D01*
X0092239Y0468169D01*
X0092327Y0468298D01*
X0092418Y0468424D01*
X0092513Y0468548D01*
X0092610Y0468669D01*
X0092711Y0468788D01*
X0092815Y0468905D01*
X0092921Y0469018D01*
X0093031Y0469129D01*
X0093143Y0469237D01*
X0093258Y0469342D01*
X0093376Y0469445D01*
X0093496Y0469544D01*
X0093619Y0469640D01*
X0093744Y0469733D01*
X0093871Y0469822D01*
X0094001Y0469909D01*
X0094133Y0469992D01*
X0094267Y0470071D01*
X0094403Y0470148D01*
X0094541Y0470220D01*
X0094680Y0470290D01*
X0094822Y0470355D01*
X0094965Y0470417D01*
X0095109Y0470475D01*
X0095255Y0470530D01*
X0095403Y0470581D01*
X0095551Y0470628D01*
X0095701Y0470671D01*
X0095852Y0470710D01*
X0096004Y0470746D01*
X0096156Y0470777D01*
X0096310Y0470805D01*
X0096464Y0470829D01*
X0096618Y0470849D01*
X0096773Y0470865D01*
X0096929Y0470877D01*
X0097084Y0470885D01*
X0097240Y0470889D01*
X0097396Y0470889D01*
X0097552Y0470885D01*
X0097707Y0470877D01*
X0097863Y0470865D01*
X0098018Y0470849D01*
X0098172Y0470829D01*
X0098326Y0470805D01*
X0098480Y0470777D01*
X0098632Y0470746D01*
X0098784Y0470710D01*
X0098935Y0470671D01*
X0099085Y0470628D01*
X0099233Y0470581D01*
X0099381Y0470530D01*
X0099527Y0470475D01*
X0099671Y0470417D01*
X0099814Y0470355D01*
X0099956Y0470290D01*
X0100095Y0470220D01*
X0100233Y0470148D01*
X0100369Y0470071D01*
X0100503Y0469992D01*
X0100635Y0469909D01*
X0100765Y0469822D01*
X0100892Y0469733D01*
X0101017Y0469640D01*
X0101140Y0469544D01*
X0101260Y0469445D01*
X0101378Y0469342D01*
X0101493Y0469237D01*
X0101605Y0469129D01*
X0101715Y0469018D01*
X0101821Y0468905D01*
X0101925Y0468788D01*
X0102026Y0468669D01*
X0102123Y0468548D01*
X0102218Y0468424D01*
X0102309Y0468298D01*
X0102397Y0468169D01*
X0102482Y0468038D01*
X0102563Y0467905D01*
X0102641Y0467770D01*
X0102715Y0467633D01*
X0102786Y0467495D01*
X0102854Y0467354D01*
X0102918Y0467212D01*
X0102978Y0467068D01*
X0103034Y0466923D01*
X0103087Y0466776D01*
X0103136Y0466628D01*
X0103181Y0466479D01*
X0103222Y0466329D01*
X0103259Y0466177D01*
X0103293Y0466025D01*
X0103323Y0465872D01*
X0103348Y0465718D01*
X0103370Y0465564D01*
X0103388Y0465409D01*
X0103402Y0465254D01*
X0103412Y0465099D01*
X0103418Y0464943D01*
X0103420Y0464787D01*
X0103418Y0464631D01*
X0103412Y0464475D01*
X0103402Y0464320D01*
X0103388Y0464165D01*
X0103370Y0464010D01*
X0103348Y0463856D01*
X0103323Y0463702D01*
X0103293Y0463549D01*
X0103259Y0463397D01*
X0103222Y0463245D01*
X0103181Y0463095D01*
X0103136Y0462946D01*
X0103087Y0462798D01*
X0103034Y0462651D01*
X0102978Y0462506D01*
X0102918Y0462362D01*
X0102854Y0462220D01*
X0102786Y0462079D01*
X0102715Y0461941D01*
X0102641Y0461804D01*
X0102563Y0461669D01*
X0102482Y0461536D01*
X0102397Y0461405D01*
X0102309Y0461276D01*
X0102218Y0461150D01*
X0102123Y0461026D01*
X0102026Y0460905D01*
X0101925Y0460786D01*
X0101821Y0460669D01*
X0101715Y0460556D01*
X0101605Y0460445D01*
X0101493Y0460337D01*
X0101378Y0460232D01*
X0101260Y0460129D01*
X0101140Y0460030D01*
X0101017Y0459934D01*
X0100892Y0459841D01*
X0100765Y0459752D01*
X0100635Y0459665D01*
X0100503Y0459582D01*
X0100369Y0459503D01*
X0100233Y0459426D01*
X0100095Y0459354D01*
X0099956Y0459284D01*
X0099814Y0459219D01*
X0099671Y0459157D01*
X0099527Y0459099D01*
X0099381Y0459044D01*
X0099233Y0458993D01*
X0099085Y0458946D01*
X0098935Y0458903D01*
X0098784Y0458864D01*
X0098632Y0458828D01*
X0098480Y0458797D01*
X0098326Y0458769D01*
X0098172Y0458745D01*
X0098018Y0458725D01*
X0097863Y0458709D01*
X0097707Y0458697D01*
X0097552Y0458689D01*
X0097396Y0458685D01*
X0097240Y0458685D01*
X0097084Y0458689D01*
X0096929Y0458697D01*
X0096773Y0458709D01*
X0096618Y0458725D01*
X0096464Y0458745D01*
X0096310Y0458769D01*
X0096156Y0458797D01*
X0096004Y0458828D01*
X0095852Y0458864D01*
X0095701Y0458903D01*
X0095551Y0458946D01*
X0095403Y0458993D01*
X0095255Y0459044D01*
X0095109Y0459099D01*
X0094965Y0459157D01*
X0094822Y0459219D01*
X0094680Y0459284D01*
X0094541Y0459354D01*
X0094403Y0459426D01*
X0094267Y0459503D01*
X0094133Y0459582D01*
X0094001Y0459665D01*
X0093871Y0459752D01*
X0093744Y0459841D01*
X0093619Y0459934D01*
X0093496Y0460030D01*
X0093376Y0460129D01*
X0093258Y0460232D01*
X0093143Y0460337D01*
X0093031Y0460445D01*
X0092921Y0460556D01*
X0092815Y0460669D01*
X0092711Y0460786D01*
X0092610Y0460905D01*
X0092513Y0461026D01*
X0092418Y0461150D01*
X0092327Y0461276D01*
X0092239Y0461405D01*
X0092154Y0461536D01*
X0092073Y0461669D01*
X0091995Y0461804D01*
X0091921Y0461941D01*
X0091850Y0462079D01*
X0091782Y0462220D01*
X0091718Y0462362D01*
X0091658Y0462506D01*
X0091602Y0462651D01*
X0091549Y0462798D01*
X0091500Y0462946D01*
X0091455Y0463095D01*
X0091414Y0463245D01*
X0091377Y0463397D01*
X0091343Y0463549D01*
X0091313Y0463702D01*
X0091288Y0463856D01*
X0091266Y0464010D01*
X0091248Y0464165D01*
X0091234Y0464320D01*
X0091224Y0464475D01*
X0091218Y0464631D01*
X0091216Y0464787D01*
X0362870Y0464787D02*
X0362872Y0464943D01*
X0362878Y0465099D01*
X0362888Y0465254D01*
X0362902Y0465409D01*
X0362920Y0465564D01*
X0362942Y0465718D01*
X0362967Y0465872D01*
X0362997Y0466025D01*
X0363031Y0466177D01*
X0363068Y0466329D01*
X0363109Y0466479D01*
X0363154Y0466628D01*
X0363203Y0466776D01*
X0363256Y0466923D01*
X0363312Y0467068D01*
X0363372Y0467212D01*
X0363436Y0467354D01*
X0363504Y0467495D01*
X0363575Y0467633D01*
X0363649Y0467770D01*
X0363727Y0467905D01*
X0363808Y0468038D01*
X0363893Y0468169D01*
X0363981Y0468298D01*
X0364072Y0468424D01*
X0364167Y0468548D01*
X0364264Y0468669D01*
X0364365Y0468788D01*
X0364469Y0468905D01*
X0364575Y0469018D01*
X0364685Y0469129D01*
X0364797Y0469237D01*
X0364912Y0469342D01*
X0365030Y0469445D01*
X0365150Y0469544D01*
X0365273Y0469640D01*
X0365398Y0469733D01*
X0365525Y0469822D01*
X0365655Y0469909D01*
X0365787Y0469992D01*
X0365921Y0470071D01*
X0366057Y0470148D01*
X0366195Y0470220D01*
X0366334Y0470290D01*
X0366476Y0470355D01*
X0366619Y0470417D01*
X0366763Y0470475D01*
X0366909Y0470530D01*
X0367057Y0470581D01*
X0367205Y0470628D01*
X0367355Y0470671D01*
X0367506Y0470710D01*
X0367658Y0470746D01*
X0367810Y0470777D01*
X0367964Y0470805D01*
X0368118Y0470829D01*
X0368272Y0470849D01*
X0368427Y0470865D01*
X0368583Y0470877D01*
X0368738Y0470885D01*
X0368894Y0470889D01*
X0369050Y0470889D01*
X0369206Y0470885D01*
X0369361Y0470877D01*
X0369517Y0470865D01*
X0369672Y0470849D01*
X0369826Y0470829D01*
X0369980Y0470805D01*
X0370134Y0470777D01*
X0370286Y0470746D01*
X0370438Y0470710D01*
X0370589Y0470671D01*
X0370739Y0470628D01*
X0370887Y0470581D01*
X0371035Y0470530D01*
X0371181Y0470475D01*
X0371325Y0470417D01*
X0371468Y0470355D01*
X0371610Y0470290D01*
X0371749Y0470220D01*
X0371887Y0470148D01*
X0372023Y0470071D01*
X0372157Y0469992D01*
X0372289Y0469909D01*
X0372419Y0469822D01*
X0372546Y0469733D01*
X0372671Y0469640D01*
X0372794Y0469544D01*
X0372914Y0469445D01*
X0373032Y0469342D01*
X0373147Y0469237D01*
X0373259Y0469129D01*
X0373369Y0469018D01*
X0373475Y0468905D01*
X0373579Y0468788D01*
X0373680Y0468669D01*
X0373777Y0468548D01*
X0373872Y0468424D01*
X0373963Y0468298D01*
X0374051Y0468169D01*
X0374136Y0468038D01*
X0374217Y0467905D01*
X0374295Y0467770D01*
X0374369Y0467633D01*
X0374440Y0467495D01*
X0374508Y0467354D01*
X0374572Y0467212D01*
X0374632Y0467068D01*
X0374688Y0466923D01*
X0374741Y0466776D01*
X0374790Y0466628D01*
X0374835Y0466479D01*
X0374876Y0466329D01*
X0374913Y0466177D01*
X0374947Y0466025D01*
X0374977Y0465872D01*
X0375002Y0465718D01*
X0375024Y0465564D01*
X0375042Y0465409D01*
X0375056Y0465254D01*
X0375066Y0465099D01*
X0375072Y0464943D01*
X0375074Y0464787D01*
X0375072Y0464631D01*
X0375066Y0464475D01*
X0375056Y0464320D01*
X0375042Y0464165D01*
X0375024Y0464010D01*
X0375002Y0463856D01*
X0374977Y0463702D01*
X0374947Y0463549D01*
X0374913Y0463397D01*
X0374876Y0463245D01*
X0374835Y0463095D01*
X0374790Y0462946D01*
X0374741Y0462798D01*
X0374688Y0462651D01*
X0374632Y0462506D01*
X0374572Y0462362D01*
X0374508Y0462220D01*
X0374440Y0462079D01*
X0374369Y0461941D01*
X0374295Y0461804D01*
X0374217Y0461669D01*
X0374136Y0461536D01*
X0374051Y0461405D01*
X0373963Y0461276D01*
X0373872Y0461150D01*
X0373777Y0461026D01*
X0373680Y0460905D01*
X0373579Y0460786D01*
X0373475Y0460669D01*
X0373369Y0460556D01*
X0373259Y0460445D01*
X0373147Y0460337D01*
X0373032Y0460232D01*
X0372914Y0460129D01*
X0372794Y0460030D01*
X0372671Y0459934D01*
X0372546Y0459841D01*
X0372419Y0459752D01*
X0372289Y0459665D01*
X0372157Y0459582D01*
X0372023Y0459503D01*
X0371887Y0459426D01*
X0371749Y0459354D01*
X0371610Y0459284D01*
X0371468Y0459219D01*
X0371325Y0459157D01*
X0371181Y0459099D01*
X0371035Y0459044D01*
X0370887Y0458993D01*
X0370739Y0458946D01*
X0370589Y0458903D01*
X0370438Y0458864D01*
X0370286Y0458828D01*
X0370134Y0458797D01*
X0369980Y0458769D01*
X0369826Y0458745D01*
X0369672Y0458725D01*
X0369517Y0458709D01*
X0369361Y0458697D01*
X0369206Y0458689D01*
X0369050Y0458685D01*
X0368894Y0458685D01*
X0368738Y0458689D01*
X0368583Y0458697D01*
X0368427Y0458709D01*
X0368272Y0458725D01*
X0368118Y0458745D01*
X0367964Y0458769D01*
X0367810Y0458797D01*
X0367658Y0458828D01*
X0367506Y0458864D01*
X0367355Y0458903D01*
X0367205Y0458946D01*
X0367057Y0458993D01*
X0366909Y0459044D01*
X0366763Y0459099D01*
X0366619Y0459157D01*
X0366476Y0459219D01*
X0366334Y0459284D01*
X0366195Y0459354D01*
X0366057Y0459426D01*
X0365921Y0459503D01*
X0365787Y0459582D01*
X0365655Y0459665D01*
X0365525Y0459752D01*
X0365398Y0459841D01*
X0365273Y0459934D01*
X0365150Y0460030D01*
X0365030Y0460129D01*
X0364912Y0460232D01*
X0364797Y0460337D01*
X0364685Y0460445D01*
X0364575Y0460556D01*
X0364469Y0460669D01*
X0364365Y0460786D01*
X0364264Y0460905D01*
X0364167Y0461026D01*
X0364072Y0461150D01*
X0363981Y0461276D01*
X0363893Y0461405D01*
X0363808Y0461536D01*
X0363727Y0461669D01*
X0363649Y0461804D01*
X0363575Y0461941D01*
X0363504Y0462079D01*
X0363436Y0462220D01*
X0363372Y0462362D01*
X0363312Y0462506D01*
X0363256Y0462651D01*
X0363203Y0462798D01*
X0363154Y0462946D01*
X0363109Y0463095D01*
X0363068Y0463245D01*
X0363031Y0463397D01*
X0362997Y0463549D01*
X0362967Y0463702D01*
X0362942Y0463856D01*
X0362920Y0464010D01*
X0362902Y0464165D01*
X0362888Y0464320D01*
X0362878Y0464475D01*
X0362872Y0464631D01*
X0362870Y0464787D01*
X0362870Y0141952D02*
X0362872Y0142108D01*
X0362878Y0142264D01*
X0362888Y0142419D01*
X0362902Y0142574D01*
X0362920Y0142729D01*
X0362942Y0142883D01*
X0362967Y0143037D01*
X0362997Y0143190D01*
X0363031Y0143342D01*
X0363068Y0143494D01*
X0363109Y0143644D01*
X0363154Y0143793D01*
X0363203Y0143941D01*
X0363256Y0144088D01*
X0363312Y0144233D01*
X0363372Y0144377D01*
X0363436Y0144519D01*
X0363504Y0144660D01*
X0363575Y0144798D01*
X0363649Y0144935D01*
X0363727Y0145070D01*
X0363808Y0145203D01*
X0363893Y0145334D01*
X0363981Y0145463D01*
X0364072Y0145589D01*
X0364167Y0145713D01*
X0364264Y0145834D01*
X0364365Y0145953D01*
X0364469Y0146070D01*
X0364575Y0146183D01*
X0364685Y0146294D01*
X0364797Y0146402D01*
X0364912Y0146507D01*
X0365030Y0146610D01*
X0365150Y0146709D01*
X0365273Y0146805D01*
X0365398Y0146898D01*
X0365525Y0146987D01*
X0365655Y0147074D01*
X0365787Y0147157D01*
X0365921Y0147236D01*
X0366057Y0147313D01*
X0366195Y0147385D01*
X0366334Y0147455D01*
X0366476Y0147520D01*
X0366619Y0147582D01*
X0366763Y0147640D01*
X0366909Y0147695D01*
X0367057Y0147746D01*
X0367205Y0147793D01*
X0367355Y0147836D01*
X0367506Y0147875D01*
X0367658Y0147911D01*
X0367810Y0147942D01*
X0367964Y0147970D01*
X0368118Y0147994D01*
X0368272Y0148014D01*
X0368427Y0148030D01*
X0368583Y0148042D01*
X0368738Y0148050D01*
X0368894Y0148054D01*
X0369050Y0148054D01*
X0369206Y0148050D01*
X0369361Y0148042D01*
X0369517Y0148030D01*
X0369672Y0148014D01*
X0369826Y0147994D01*
X0369980Y0147970D01*
X0370134Y0147942D01*
X0370286Y0147911D01*
X0370438Y0147875D01*
X0370589Y0147836D01*
X0370739Y0147793D01*
X0370887Y0147746D01*
X0371035Y0147695D01*
X0371181Y0147640D01*
X0371325Y0147582D01*
X0371468Y0147520D01*
X0371610Y0147455D01*
X0371749Y0147385D01*
X0371887Y0147313D01*
X0372023Y0147236D01*
X0372157Y0147157D01*
X0372289Y0147074D01*
X0372419Y0146987D01*
X0372546Y0146898D01*
X0372671Y0146805D01*
X0372794Y0146709D01*
X0372914Y0146610D01*
X0373032Y0146507D01*
X0373147Y0146402D01*
X0373259Y0146294D01*
X0373369Y0146183D01*
X0373475Y0146070D01*
X0373579Y0145953D01*
X0373680Y0145834D01*
X0373777Y0145713D01*
X0373872Y0145589D01*
X0373963Y0145463D01*
X0374051Y0145334D01*
X0374136Y0145203D01*
X0374217Y0145070D01*
X0374295Y0144935D01*
X0374369Y0144798D01*
X0374440Y0144660D01*
X0374508Y0144519D01*
X0374572Y0144377D01*
X0374632Y0144233D01*
X0374688Y0144088D01*
X0374741Y0143941D01*
X0374790Y0143793D01*
X0374835Y0143644D01*
X0374876Y0143494D01*
X0374913Y0143342D01*
X0374947Y0143190D01*
X0374977Y0143037D01*
X0375002Y0142883D01*
X0375024Y0142729D01*
X0375042Y0142574D01*
X0375056Y0142419D01*
X0375066Y0142264D01*
X0375072Y0142108D01*
X0375074Y0141952D01*
X0375072Y0141796D01*
X0375066Y0141640D01*
X0375056Y0141485D01*
X0375042Y0141330D01*
X0375024Y0141175D01*
X0375002Y0141021D01*
X0374977Y0140867D01*
X0374947Y0140714D01*
X0374913Y0140562D01*
X0374876Y0140410D01*
X0374835Y0140260D01*
X0374790Y0140111D01*
X0374741Y0139963D01*
X0374688Y0139816D01*
X0374632Y0139671D01*
X0374572Y0139527D01*
X0374508Y0139385D01*
X0374440Y0139244D01*
X0374369Y0139106D01*
X0374295Y0138969D01*
X0374217Y0138834D01*
X0374136Y0138701D01*
X0374051Y0138570D01*
X0373963Y0138441D01*
X0373872Y0138315D01*
X0373777Y0138191D01*
X0373680Y0138070D01*
X0373579Y0137951D01*
X0373475Y0137834D01*
X0373369Y0137721D01*
X0373259Y0137610D01*
X0373147Y0137502D01*
X0373032Y0137397D01*
X0372914Y0137294D01*
X0372794Y0137195D01*
X0372671Y0137099D01*
X0372546Y0137006D01*
X0372419Y0136917D01*
X0372289Y0136830D01*
X0372157Y0136747D01*
X0372023Y0136668D01*
X0371887Y0136591D01*
X0371749Y0136519D01*
X0371610Y0136449D01*
X0371468Y0136384D01*
X0371325Y0136322D01*
X0371181Y0136264D01*
X0371035Y0136209D01*
X0370887Y0136158D01*
X0370739Y0136111D01*
X0370589Y0136068D01*
X0370438Y0136029D01*
X0370286Y0135993D01*
X0370134Y0135962D01*
X0369980Y0135934D01*
X0369826Y0135910D01*
X0369672Y0135890D01*
X0369517Y0135874D01*
X0369361Y0135862D01*
X0369206Y0135854D01*
X0369050Y0135850D01*
X0368894Y0135850D01*
X0368738Y0135854D01*
X0368583Y0135862D01*
X0368427Y0135874D01*
X0368272Y0135890D01*
X0368118Y0135910D01*
X0367964Y0135934D01*
X0367810Y0135962D01*
X0367658Y0135993D01*
X0367506Y0136029D01*
X0367355Y0136068D01*
X0367205Y0136111D01*
X0367057Y0136158D01*
X0366909Y0136209D01*
X0366763Y0136264D01*
X0366619Y0136322D01*
X0366476Y0136384D01*
X0366334Y0136449D01*
X0366195Y0136519D01*
X0366057Y0136591D01*
X0365921Y0136668D01*
X0365787Y0136747D01*
X0365655Y0136830D01*
X0365525Y0136917D01*
X0365398Y0137006D01*
X0365273Y0137099D01*
X0365150Y0137195D01*
X0365030Y0137294D01*
X0364912Y0137397D01*
X0364797Y0137502D01*
X0364685Y0137610D01*
X0364575Y0137721D01*
X0364469Y0137834D01*
X0364365Y0137951D01*
X0364264Y0138070D01*
X0364167Y0138191D01*
X0364072Y0138315D01*
X0363981Y0138441D01*
X0363893Y0138570D01*
X0363808Y0138701D01*
X0363727Y0138834D01*
X0363649Y0138969D01*
X0363575Y0139106D01*
X0363504Y0139244D01*
X0363436Y0139385D01*
X0363372Y0139527D01*
X0363312Y0139671D01*
X0363256Y0139816D01*
X0363203Y0139963D01*
X0363154Y0140111D01*
X0363109Y0140260D01*
X0363068Y0140410D01*
X0363031Y0140562D01*
X0362997Y0140714D01*
X0362967Y0140867D01*
X0362942Y0141021D01*
X0362920Y0141175D01*
X0362902Y0141330D01*
X0362888Y0141485D01*
X0362878Y0141640D01*
X0362872Y0141796D01*
X0362870Y0141952D01*
D11*
X0341983Y0140730D02*
X0330783Y0140730D01*
X0330783Y0145930D01*
X0341983Y0145930D01*
X0341983Y0140730D01*
X0342785Y0128781D02*
X0342785Y0125379D01*
X0339982Y0125379D02*
X0339982Y0128781D01*
X0330584Y0128179D02*
X0327183Y0128179D01*
X0327183Y0130982D02*
X0330584Y0130982D01*
X0326983Y0140730D02*
X0315783Y0140730D01*
X0315783Y0145930D01*
X0326983Y0145930D01*
X0326983Y0140730D01*
X0334982Y0160379D02*
X0334982Y0163781D01*
X0337785Y0163781D02*
X0337785Y0160379D01*
X0333084Y0171929D02*
X0329683Y0171929D01*
X0329683Y0174732D02*
X0333084Y0174732D01*
X0312061Y0168786D02*
X0312061Y0162380D01*
X0309926Y0162380D02*
X0314196Y0162380D01*
X0309926Y0166651D02*
X0312061Y0168786D01*
X0307751Y0167718D02*
X0306683Y0168786D01*
X0304548Y0168786D01*
X0303480Y0167718D01*
X0303480Y0163448D01*
X0304548Y0162380D01*
X0306683Y0162380D01*
X0307751Y0163448D01*
X0301318Y0162380D02*
X0299183Y0162380D01*
X0300251Y0162380D02*
X0300251Y0168786D01*
X0301318Y0168786D02*
X0299183Y0168786D01*
X0290584Y0184429D02*
X0287183Y0184429D01*
X0287183Y0187232D02*
X0290584Y0187232D01*
X0288084Y0194429D02*
X0284683Y0194429D01*
X0284683Y0197232D02*
X0288084Y0197232D01*
X0267785Y0155031D02*
X0267785Y0151629D01*
X0264982Y0151629D02*
X0264982Y0155031D01*
X0279683Y0142232D02*
X0283084Y0142232D01*
X0283084Y0139429D02*
X0279683Y0139429D01*
X0275584Y0133482D02*
X0272183Y0133482D01*
X0272183Y0130679D02*
X0275584Y0130679D01*
X0255285Y0134129D02*
X0255285Y0137531D01*
X0252482Y0137531D02*
X0252482Y0134129D01*
X0247785Y0137816D02*
X0218257Y0137816D01*
X0218257Y0120631D01*
X0247785Y0120631D01*
X0247785Y0137816D01*
X0200095Y0148265D02*
X0200095Y0152536D01*
X0200095Y0148265D02*
X0197959Y0146130D01*
X0195824Y0148265D01*
X0195824Y0152536D01*
X0193649Y0152536D02*
X0189379Y0152536D01*
X0189379Y0149333D01*
X0191514Y0150401D01*
X0192582Y0150401D01*
X0193649Y0149333D01*
X0193649Y0147198D01*
X0192582Y0146130D01*
X0190446Y0146130D01*
X0189379Y0147198D01*
X0187204Y0149333D02*
X0182933Y0149333D01*
X0185068Y0151468D02*
X0185068Y0147198D01*
X0164415Y0133820D02*
X0164415Y0128820D01*
X0161915Y0126320D01*
X0156915Y0126320D01*
X0154415Y0128820D01*
X0151915Y0126320D01*
X0146915Y0126320D01*
X0144415Y0128820D01*
X0144415Y0133820D01*
X0146915Y0136320D01*
X0151915Y0136320D01*
X0154415Y0133820D01*
X0156915Y0136320D01*
X0161915Y0136320D01*
X0164415Y0133820D01*
X0154415Y0133820D02*
X0154415Y0128820D01*
X0134035Y0129129D02*
X0134035Y0132531D01*
X0131232Y0132531D02*
X0131232Y0129129D01*
X0124035Y0129129D02*
X0124035Y0132531D01*
X0121232Y0132531D02*
X0121232Y0129129D01*
X0131232Y0144129D02*
X0131232Y0147531D01*
X0134035Y0147531D02*
X0134035Y0144129D01*
X0199001Y0233630D02*
X0201136Y0233630D01*
X0202204Y0234698D01*
X0202204Y0236833D01*
X0200068Y0236833D01*
X0197933Y0238968D02*
X0197933Y0234698D01*
X0199001Y0233630D01*
X0197933Y0238968D02*
X0199001Y0240036D01*
X0201136Y0240036D01*
X0202204Y0238968D01*
X0204379Y0240036D02*
X0204379Y0233630D01*
X0208649Y0233630D02*
X0204379Y0240036D01*
X0208649Y0240036D02*
X0208649Y0233630D01*
X0210824Y0233630D02*
X0214027Y0233630D01*
X0215095Y0234698D01*
X0215095Y0238968D01*
X0214027Y0240036D01*
X0210824Y0240036D01*
X0210824Y0233630D01*
X0233732Y0217531D02*
X0233732Y0214129D01*
X0236535Y0214129D02*
X0236535Y0217531D01*
X0287482Y0285379D02*
X0287482Y0288781D01*
X0290285Y0288781D02*
X0290285Y0285379D01*
X0280527Y0291687D02*
X0280527Y0312474D01*
X0259740Y0312474D01*
X0259740Y0291687D01*
X0280527Y0291687D01*
X0292183Y0314429D02*
X0295584Y0314429D01*
X0295584Y0317232D02*
X0292183Y0317232D01*
X0250266Y0381489D02*
X0245266Y0381489D01*
X0242766Y0383989D01*
X0240266Y0381489D01*
X0235266Y0381489D01*
X0232766Y0383989D01*
X0230266Y0381489D01*
X0225266Y0381489D01*
X0222766Y0383989D01*
X0220266Y0381489D01*
X0215266Y0381489D01*
X0212766Y0383989D01*
X0212766Y0388989D01*
X0215266Y0391489D01*
X0220266Y0391489D01*
X0222766Y0388989D01*
X0225266Y0391489D01*
X0230266Y0391489D01*
X0232766Y0388989D01*
X0232766Y0383989D01*
X0232766Y0388989D02*
X0235266Y0391489D01*
X0240266Y0391489D01*
X0242766Y0388989D01*
X0245266Y0391489D01*
X0250266Y0391489D01*
X0252766Y0388989D01*
X0252766Y0383989D01*
X0250266Y0381489D01*
X0242766Y0383989D02*
X0242766Y0388989D01*
X0222766Y0388989D02*
X0222766Y0383989D01*
X0188649Y0358786D02*
X0186514Y0357718D01*
X0184379Y0355583D01*
X0187582Y0355583D01*
X0188649Y0354515D01*
X0188649Y0353448D01*
X0187582Y0352380D01*
X0185446Y0352380D01*
X0184379Y0353448D01*
X0184379Y0355583D01*
X0182204Y0353448D02*
X0182204Y0358786D01*
X0177933Y0358786D02*
X0177933Y0353448D01*
X0179001Y0352380D01*
X0181136Y0352380D01*
X0182204Y0353448D01*
X0157204Y0373448D02*
X0152933Y0377718D01*
X0152933Y0375583D02*
X0157204Y0375583D01*
X0157204Y0377718D02*
X0152933Y0373448D01*
X0155068Y0373448D02*
X0155068Y0377718D01*
X0143084Y0391929D02*
X0139683Y0391929D01*
X0139683Y0394732D02*
X0143084Y0394732D01*
X0130285Y0390031D02*
X0130285Y0386629D01*
X0127482Y0386629D02*
X0127482Y0390031D01*
X0108818Y0412380D02*
X0108818Y0415583D01*
X0110954Y0417718D01*
X0110954Y0418786D01*
X0108818Y0415583D02*
X0106683Y0417718D01*
X0106683Y0418786D01*
X0106683Y0432380D02*
X0110954Y0432380D01*
X0106683Y0432380D02*
X0106683Y0433448D01*
X0110954Y0437718D01*
X0110954Y0438786D01*
X0106683Y0438786D01*
X0112933Y0446130D02*
X0117204Y0446130D01*
X0115068Y0446130D02*
X0115068Y0452536D01*
X0112933Y0450401D01*
X0119379Y0451468D02*
X0120446Y0452536D01*
X0122582Y0452536D01*
X0123649Y0451468D01*
X0123649Y0450401D01*
X0119379Y0446130D01*
X0123649Y0446130D01*
X0125824Y0446130D02*
X0130095Y0452536D01*
X0132270Y0451468D02*
X0133337Y0452536D01*
X0135473Y0452536D01*
X0136540Y0451468D01*
X0136540Y0450401D01*
X0132270Y0446130D01*
X0136540Y0446130D01*
X0138715Y0447198D02*
X0142986Y0451468D01*
X0142986Y0447198D01*
X0141918Y0446130D01*
X0139783Y0446130D01*
X0138715Y0447198D01*
X0138715Y0451468D01*
X0139783Y0452536D01*
X0141918Y0452536D01*
X0142986Y0451468D01*
X0145161Y0450401D02*
X0147296Y0452536D01*
X0147296Y0446130D01*
X0145161Y0446130D02*
X0149431Y0446130D01*
X0151606Y0447198D02*
X0152674Y0446130D01*
X0154809Y0446130D01*
X0155877Y0447198D01*
X0155877Y0448265D01*
X0154809Y0449333D01*
X0152674Y0449333D01*
X0151606Y0450401D01*
X0151606Y0451468D01*
X0152674Y0452536D01*
X0154809Y0452536D01*
X0155877Y0451468D01*
X0155877Y0450401D01*
X0154809Y0449333D01*
X0152674Y0449333D02*
X0151606Y0448265D01*
X0151606Y0447198D01*
X0152654Y0457380D02*
X0150519Y0459515D01*
X0151586Y0459515D02*
X0148384Y0459515D01*
X0148384Y0457380D02*
X0148384Y0463786D01*
X0151586Y0463786D01*
X0152654Y0462718D01*
X0152654Y0460583D01*
X0151586Y0459515D01*
X0154829Y0459515D02*
X0159099Y0459515D01*
X0159099Y0460583D01*
X0158032Y0461651D01*
X0155897Y0461651D01*
X0154829Y0460583D01*
X0154829Y0458448D01*
X0155897Y0457380D01*
X0158032Y0457380D01*
X0161275Y0457380D02*
X0164477Y0457380D01*
X0165545Y0458448D01*
X0165545Y0460583D01*
X0164477Y0461651D01*
X0161275Y0461651D01*
X0161275Y0455245D01*
X0167720Y0458448D02*
X0168788Y0457380D01*
X0171990Y0457380D01*
X0174166Y0457380D02*
X0176301Y0457380D01*
X0175233Y0457380D02*
X0175233Y0461651D01*
X0174166Y0461651D01*
X0171990Y0461651D02*
X0168788Y0461651D01*
X0167720Y0460583D01*
X0167720Y0458448D01*
X0175233Y0463786D02*
X0175233Y0464853D01*
X0178463Y0463786D02*
X0178463Y0457380D01*
X0178463Y0459515D02*
X0181665Y0461651D01*
X0178463Y0459515D02*
X0181665Y0457380D01*
X0212764Y0459724D02*
X0212764Y0454724D01*
X0215264Y0452224D01*
X0220264Y0452224D01*
X0222764Y0454724D01*
X0225264Y0452224D01*
X0230264Y0452224D01*
X0232764Y0454724D01*
X0232764Y0459724D01*
X0230264Y0462224D01*
X0225264Y0462224D01*
X0222764Y0459724D01*
X0222764Y0454724D01*
X0222764Y0459724D02*
X0220264Y0462224D01*
X0215264Y0462224D01*
X0212764Y0459724D01*
X0232764Y0459724D02*
X0235264Y0462224D01*
X0240264Y0462224D01*
X0242764Y0459724D01*
X0245264Y0462224D01*
X0250264Y0462224D01*
X0252764Y0459724D01*
X0252764Y0454724D01*
X0250264Y0452224D01*
X0245264Y0452224D01*
X0242764Y0454724D01*
X0240264Y0452224D01*
X0235264Y0452224D01*
X0232764Y0454724D01*
X0242764Y0454724D02*
X0242764Y0459724D01*
X0336751Y0449295D02*
X0336751Y0447366D01*
X0338515Y0447366D02*
X0338515Y0449295D01*
X0346751Y0449295D02*
X0346751Y0447366D01*
X0348515Y0447366D02*
X0348515Y0449295D01*
X0353732Y0331281D02*
X0353732Y0327879D01*
X0356535Y0327879D02*
X0356535Y0331281D01*
X0369982Y0331281D02*
X0369982Y0327879D01*
X0372785Y0327879D02*
X0372785Y0331281D01*
X0378732Y0331281D02*
X0378732Y0327879D01*
X0381535Y0327879D02*
X0381535Y0331281D01*
X0381535Y0287531D02*
X0381535Y0284129D01*
X0378732Y0284129D02*
X0378732Y0287531D01*
X0366535Y0287531D02*
X0366535Y0284129D01*
X0363732Y0284129D02*
X0363732Y0287531D01*
X0354035Y0278781D02*
X0354035Y0275379D01*
X0351232Y0275379D02*
X0351232Y0278781D01*
X0369982Y0272531D02*
X0369982Y0269129D01*
X0372785Y0269129D02*
X0372785Y0272531D01*
X0298084Y0147232D02*
X0294683Y0147232D01*
X0294683Y0144429D02*
X0298084Y0144429D01*
X0137704Y0305083D02*
X0133433Y0305083D01*
X0135568Y0307218D02*
X0135568Y0302948D01*
X0092204Y0432380D02*
X0087933Y0438786D01*
X0092204Y0438786D02*
X0087933Y0432380D01*
X0114001Y0457380D02*
X0115068Y0457380D01*
X0116136Y0458448D01*
X0116136Y0463786D01*
X0115068Y0463786D02*
X0117204Y0463786D01*
X0119379Y0461651D02*
X0119379Y0458448D01*
X0120446Y0457380D01*
X0123649Y0457380D01*
X0123649Y0461651D01*
X0125824Y0461651D02*
X0125824Y0457380D01*
X0125824Y0459515D02*
X0127959Y0461651D01*
X0129027Y0461651D01*
X0132263Y0461651D02*
X0134398Y0461651D01*
X0135466Y0460583D01*
X0135466Y0457380D01*
X0132263Y0457380D01*
X0131196Y0458448D01*
X0132263Y0459515D01*
X0135466Y0459515D01*
X0137641Y0455245D02*
X0138709Y0455245D01*
X0139776Y0456313D01*
X0139776Y0461651D01*
X0139776Y0463786D02*
X0139776Y0464853D01*
X0114001Y0457380D02*
X0112933Y0458448D01*
D12*
X0148001Y0386874D02*
X0147384Y0386257D01*
X0147384Y0383788D01*
X0148001Y0383171D01*
X0149235Y0383171D01*
X0149852Y0383788D01*
X0151067Y0383171D02*
X0153535Y0385640D01*
X0153535Y0386257D01*
X0152918Y0386874D01*
X0151684Y0386874D01*
X0151067Y0386257D01*
X0149852Y0386257D02*
X0149235Y0386874D01*
X0148001Y0386874D01*
X0151067Y0383171D02*
X0153535Y0383171D01*
X0154750Y0383788D02*
X0154750Y0384406D01*
X0155367Y0385023D01*
X0156601Y0385023D01*
X0157219Y0384406D01*
X0157219Y0383788D01*
X0156601Y0383171D01*
X0155367Y0383171D01*
X0154750Y0383788D01*
X0155367Y0385023D02*
X0154750Y0385640D01*
X0154750Y0386257D01*
X0155367Y0386874D01*
X0156601Y0386874D01*
X0157219Y0386257D01*
X0157219Y0385640D01*
X0156601Y0385023D01*
X0132219Y0378124D02*
X0132219Y0377507D01*
X0129750Y0375038D01*
X0129750Y0374421D01*
X0128535Y0374421D02*
X0126067Y0374421D01*
X0128535Y0376890D01*
X0128535Y0377507D01*
X0127918Y0378124D01*
X0126684Y0378124D01*
X0126067Y0377507D01*
X0124852Y0377507D02*
X0124235Y0378124D01*
X0123001Y0378124D01*
X0122384Y0377507D01*
X0122384Y0375038D01*
X0123001Y0374421D01*
X0124235Y0374421D01*
X0124852Y0375038D01*
X0124235Y0370624D02*
X0123001Y0370624D01*
X0122384Y0370007D01*
X0122384Y0367538D01*
X0123001Y0366921D01*
X0124235Y0366921D01*
X0124852Y0367538D01*
X0126067Y0366921D02*
X0128535Y0369390D01*
X0128535Y0370007D01*
X0127918Y0370624D01*
X0126684Y0370624D01*
X0126067Y0370007D01*
X0124852Y0370007D02*
X0124235Y0370624D01*
X0126067Y0366921D02*
X0128535Y0366921D01*
X0129750Y0367538D02*
X0129750Y0368773D01*
X0131601Y0368773D01*
X0132219Y0368156D01*
X0132219Y0367538D01*
X0131601Y0366921D01*
X0130367Y0366921D01*
X0129750Y0367538D01*
X0129750Y0368773D02*
X0130984Y0370007D01*
X0132219Y0370624D01*
X0132219Y0378124D02*
X0129750Y0378124D01*
X0150901Y0285933D02*
X0152135Y0285933D01*
X0152752Y0285316D01*
X0152752Y0284699D01*
X0152135Y0284082D01*
X0152752Y0283465D01*
X0152752Y0282847D01*
X0152135Y0282230D01*
X0150901Y0282230D01*
X0150283Y0282847D01*
X0151518Y0284082D02*
X0152135Y0284082D01*
X0153966Y0283465D02*
X0153966Y0285933D01*
X0153966Y0283465D02*
X0155201Y0282230D01*
X0156435Y0283465D01*
X0156435Y0285933D01*
X0157650Y0285316D02*
X0158267Y0285933D01*
X0159501Y0285933D01*
X0160118Y0285316D01*
X0160118Y0284699D01*
X0159501Y0284082D01*
X0160118Y0283465D01*
X0160118Y0282847D01*
X0159501Y0282230D01*
X0158267Y0282230D01*
X0157650Y0282847D01*
X0158884Y0284082D02*
X0159501Y0284082D01*
X0150901Y0285933D02*
X0150283Y0285316D01*
X0207783Y0281566D02*
X0207783Y0279097D01*
X0208401Y0278480D01*
X0209635Y0278480D01*
X0210252Y0279097D01*
X0210252Y0280332D01*
X0209018Y0280332D01*
X0210252Y0281566D02*
X0209635Y0282183D01*
X0208401Y0282183D01*
X0207783Y0281566D01*
X0211466Y0282183D02*
X0213935Y0278480D01*
X0213935Y0282183D01*
X0215150Y0282183D02*
X0217001Y0282183D01*
X0217618Y0281566D01*
X0217618Y0279097D01*
X0217001Y0278480D01*
X0215150Y0278480D01*
X0215150Y0282183D01*
X0211466Y0282183D02*
X0211466Y0278480D01*
X0248721Y0312198D02*
X0249338Y0311581D01*
X0251807Y0311581D01*
X0252424Y0312198D01*
X0252424Y0313432D01*
X0251807Y0314049D01*
X0252424Y0315264D02*
X0252424Y0317733D01*
X0252424Y0318947D02*
X0251807Y0318947D01*
X0249338Y0321416D01*
X0248721Y0321416D01*
X0248721Y0318947D01*
X0248721Y0316498D02*
X0252424Y0316498D01*
X0249955Y0315264D02*
X0248721Y0316498D01*
X0249338Y0314049D02*
X0248721Y0313432D01*
X0248721Y0312198D01*
X0319252Y0380534D02*
X0321670Y0380534D01*
X0322154Y0381017D01*
X0322154Y0381985D01*
X0321670Y0382469D01*
X0319252Y0382469D01*
X0319735Y0383480D02*
X0319252Y0383964D01*
X0319252Y0384931D01*
X0319735Y0385415D01*
X0320219Y0385415D01*
X0322154Y0383480D01*
X0322154Y0385415D01*
X0374001Y0447289D02*
X0373384Y0447906D01*
X0373384Y0450375D01*
X0374001Y0450992D01*
X0375235Y0450992D01*
X0375852Y0450375D01*
X0377067Y0450375D02*
X0377684Y0450992D01*
X0378918Y0450992D01*
X0379536Y0450375D01*
X0379536Y0449758D01*
X0377067Y0447289D01*
X0379536Y0447289D01*
X0380750Y0449141D02*
X0383219Y0449141D01*
X0382602Y0450992D02*
X0380750Y0449141D01*
X0382602Y0450992D02*
X0382602Y0447289D01*
X0382602Y0452289D02*
X0381367Y0452289D01*
X0380750Y0452906D01*
X0380750Y0454141D02*
X0381984Y0454758D01*
X0382602Y0454758D01*
X0383219Y0454141D01*
X0383219Y0452906D01*
X0382602Y0452289D01*
X0380750Y0454141D02*
X0380750Y0455992D01*
X0383219Y0455992D01*
X0379536Y0455375D02*
X0378918Y0455992D01*
X0377684Y0455992D01*
X0377067Y0455375D01*
X0375852Y0455375D02*
X0375235Y0455992D01*
X0374001Y0455992D01*
X0373384Y0455375D01*
X0373384Y0452906D01*
X0374001Y0452289D01*
X0375235Y0452289D01*
X0375852Y0452906D01*
X0377067Y0452289D02*
X0379536Y0454758D01*
X0379536Y0455375D01*
X0379536Y0452289D02*
X0377067Y0452289D01*
X0375852Y0447906D02*
X0375235Y0447289D01*
X0374001Y0447289D01*
D13*
X0383976Y0419263D02*
X0386598Y0419263D01*
X0386598Y0347397D01*
X0383976Y0347397D01*
X0314248Y0347397D02*
X0310204Y0347397D01*
X0310204Y0358330D01*
X0281027Y0312974D02*
X0279740Y0312974D01*
X0281027Y0312974D02*
X0281027Y0291187D01*
X0279740Y0291187D01*
X0260527Y0291187D02*
X0259240Y0291187D01*
X0259240Y0312974D01*
X0260527Y0312974D01*
X0245625Y0350338D02*
X0223185Y0350338D01*
X0219641Y0353881D01*
X0219641Y0358999D01*
X0219641Y0367661D01*
X0219641Y0372779D01*
X0223185Y0376322D01*
X0245625Y0376322D01*
X0245625Y0367661D01*
X0245625Y0358999D01*
X0245625Y0350338D01*
X0244247Y0359590D02*
X0244333Y0359874D01*
X0244411Y0360159D01*
X0244482Y0360446D01*
X0244546Y0360735D01*
X0244603Y0361025D01*
X0244653Y0361317D01*
X0244696Y0361610D01*
X0244732Y0361903D01*
X0244761Y0362198D01*
X0244783Y0362493D01*
X0244797Y0362788D01*
X0244804Y0363084D01*
X0244804Y0363380D01*
X0244797Y0363676D01*
X0244783Y0363971D01*
X0244761Y0364266D01*
X0244732Y0364561D01*
X0244696Y0364854D01*
X0244653Y0365147D01*
X0244603Y0365439D01*
X0244546Y0365729D01*
X0244482Y0366018D01*
X0244411Y0366305D01*
X0244333Y0366590D01*
X0244247Y0366874D01*
X0244247Y0359590D02*
X0244153Y0359309D01*
X0244051Y0359030D01*
X0243943Y0358754D01*
X0243828Y0358481D01*
X0243707Y0358210D01*
X0243579Y0357943D01*
X0243444Y0357678D01*
X0243303Y0357417D01*
X0243156Y0357160D01*
X0243003Y0356906D01*
X0242843Y0356656D01*
X0242678Y0356410D01*
X0242506Y0356168D01*
X0242329Y0355931D01*
X0242146Y0355697D01*
X0241957Y0355469D01*
X0241762Y0355244D01*
X0241563Y0355025D01*
X0241358Y0354811D01*
X0241148Y0354602D01*
X0240933Y0354398D01*
X0240712Y0354199D01*
X0240488Y0354005D01*
X0240258Y0353818D01*
X0240024Y0353635D01*
X0239786Y0353459D01*
X0239543Y0353288D01*
X0239297Y0353124D01*
X0239046Y0352965D01*
X0238792Y0352813D01*
X0238533Y0352667D01*
X0238272Y0352527D01*
X0238007Y0352393D01*
X0237739Y0352266D01*
X0237468Y0352146D01*
X0237194Y0352032D01*
X0236918Y0351925D01*
X0236638Y0351825D01*
X0236357Y0351732D01*
X0236073Y0351645D01*
X0235788Y0351566D01*
X0235500Y0351493D01*
X0235211Y0351427D01*
X0234920Y0351369D01*
X0234628Y0351318D01*
X0234335Y0351273D01*
X0234041Y0351236D01*
X0233746Y0351206D01*
X0233450Y0351183D01*
X0233154Y0351168D01*
X0232857Y0351160D01*
X0232561Y0351158D01*
X0232264Y0351165D01*
X0231968Y0351178D01*
X0231672Y0351198D01*
X0231377Y0351226D01*
X0231083Y0351261D01*
X0230789Y0351303D01*
X0230497Y0351353D01*
X0230205Y0351409D01*
X0229916Y0351472D01*
X0229628Y0351543D01*
X0229341Y0351620D01*
X0229057Y0351705D01*
X0228775Y0351796D01*
X0228495Y0351894D01*
X0228218Y0351999D01*
X0227943Y0352111D01*
X0227671Y0352229D01*
X0227402Y0352354D01*
X0227136Y0352486D01*
X0226874Y0352623D01*
X0226615Y0352768D01*
X0226359Y0352918D01*
X0226107Y0353075D01*
X0225859Y0353238D01*
X0225616Y0353406D01*
X0225376Y0353581D01*
X0225141Y0353762D01*
X0224910Y0353948D01*
X0224683Y0354139D01*
X0224462Y0354336D01*
X0224245Y0354539D01*
X0224034Y0354747D01*
X0223827Y0354959D01*
X0223626Y0355177D01*
X0223430Y0355400D01*
X0223239Y0355627D01*
X0223054Y0355859D01*
X0222875Y0356095D01*
X0222702Y0356336D01*
X0222535Y0356581D01*
X0222373Y0356830D01*
X0222218Y0357082D01*
X0222069Y0357339D01*
X0221926Y0357598D01*
X0221789Y0357862D01*
X0221659Y0358128D01*
X0221536Y0358398D01*
X0221419Y0358670D01*
X0221309Y0358946D01*
X0221206Y0359224D01*
X0221109Y0359504D01*
X0221019Y0359787D01*
X0221019Y0367070D02*
X0221113Y0367351D01*
X0221215Y0367630D01*
X0221323Y0367906D01*
X0221438Y0368179D01*
X0221559Y0368450D01*
X0221687Y0368717D01*
X0221822Y0368982D01*
X0221963Y0369243D01*
X0222110Y0369500D01*
X0222263Y0369754D01*
X0222423Y0370004D01*
X0222588Y0370250D01*
X0222760Y0370492D01*
X0222937Y0370729D01*
X0223120Y0370963D01*
X0223309Y0371191D01*
X0223504Y0371416D01*
X0223703Y0371635D01*
X0223908Y0371849D01*
X0224118Y0372058D01*
X0224333Y0372262D01*
X0224554Y0372461D01*
X0224778Y0372655D01*
X0225008Y0372842D01*
X0225242Y0373025D01*
X0225480Y0373201D01*
X0225723Y0373372D01*
X0225969Y0373536D01*
X0226220Y0373695D01*
X0226474Y0373847D01*
X0226733Y0373993D01*
X0226994Y0374133D01*
X0227259Y0374267D01*
X0227527Y0374394D01*
X0227798Y0374514D01*
X0228072Y0374628D01*
X0228348Y0374735D01*
X0228628Y0374835D01*
X0228909Y0374928D01*
X0229193Y0375015D01*
X0229478Y0375094D01*
X0229766Y0375167D01*
X0230055Y0375233D01*
X0230346Y0375291D01*
X0230638Y0375342D01*
X0230931Y0375387D01*
X0231225Y0375424D01*
X0231520Y0375454D01*
X0231816Y0375477D01*
X0232112Y0375492D01*
X0232409Y0375500D01*
X0232705Y0375502D01*
X0233002Y0375495D01*
X0233298Y0375482D01*
X0233594Y0375462D01*
X0233889Y0375434D01*
X0234183Y0375399D01*
X0234477Y0375357D01*
X0234769Y0375307D01*
X0235061Y0375251D01*
X0235350Y0375188D01*
X0235638Y0375117D01*
X0235925Y0375040D01*
X0236209Y0374955D01*
X0236491Y0374864D01*
X0236771Y0374766D01*
X0237048Y0374661D01*
X0237323Y0374549D01*
X0237595Y0374431D01*
X0237864Y0374306D01*
X0238130Y0374174D01*
X0238392Y0374037D01*
X0238651Y0373892D01*
X0238907Y0373742D01*
X0239159Y0373585D01*
X0239407Y0373422D01*
X0239650Y0373254D01*
X0239890Y0373079D01*
X0240125Y0372898D01*
X0240356Y0372712D01*
X0240583Y0372521D01*
X0240804Y0372324D01*
X0241021Y0372121D01*
X0241232Y0371913D01*
X0241439Y0371701D01*
X0241640Y0371483D01*
X0241836Y0371260D01*
X0242027Y0371033D01*
X0242212Y0370801D01*
X0242391Y0370565D01*
X0242564Y0370324D01*
X0242731Y0370079D01*
X0242893Y0369830D01*
X0243048Y0369578D01*
X0243197Y0369321D01*
X0243340Y0369062D01*
X0243477Y0368798D01*
X0243607Y0368532D01*
X0243730Y0368262D01*
X0243847Y0367990D01*
X0243957Y0367714D01*
X0244060Y0367436D01*
X0244157Y0367156D01*
X0244247Y0366873D01*
X0221019Y0367071D02*
X0220933Y0366787D01*
X0220855Y0366502D01*
X0220784Y0366215D01*
X0220720Y0365926D01*
X0220663Y0365636D01*
X0220613Y0365344D01*
X0220570Y0365051D01*
X0220534Y0364758D01*
X0220505Y0364463D01*
X0220483Y0364168D01*
X0220469Y0363873D01*
X0220462Y0363577D01*
X0220462Y0363281D01*
X0220469Y0362985D01*
X0220483Y0362690D01*
X0220505Y0362395D01*
X0220534Y0362100D01*
X0220570Y0361807D01*
X0220613Y0361514D01*
X0220663Y0361222D01*
X0220720Y0360932D01*
X0220784Y0360643D01*
X0220855Y0360356D01*
X0220933Y0360071D01*
X0221019Y0359787D01*
X0223185Y0420338D02*
X0219641Y0423881D01*
X0219641Y0428999D01*
X0219641Y0437661D01*
X0219641Y0442779D01*
X0223185Y0446322D01*
X0245625Y0446322D01*
X0245625Y0437661D01*
X0245625Y0428999D01*
X0245625Y0420338D01*
X0223185Y0420338D01*
X0244247Y0429590D02*
X0244333Y0429874D01*
X0244411Y0430159D01*
X0244482Y0430446D01*
X0244546Y0430735D01*
X0244603Y0431025D01*
X0244653Y0431317D01*
X0244696Y0431610D01*
X0244732Y0431903D01*
X0244761Y0432198D01*
X0244783Y0432493D01*
X0244797Y0432788D01*
X0244804Y0433084D01*
X0244804Y0433380D01*
X0244797Y0433676D01*
X0244783Y0433971D01*
X0244761Y0434266D01*
X0244732Y0434561D01*
X0244696Y0434854D01*
X0244653Y0435147D01*
X0244603Y0435439D01*
X0244546Y0435729D01*
X0244482Y0436018D01*
X0244411Y0436305D01*
X0244333Y0436590D01*
X0244247Y0436874D01*
X0244247Y0429590D02*
X0244153Y0429309D01*
X0244051Y0429030D01*
X0243943Y0428754D01*
X0243828Y0428481D01*
X0243707Y0428210D01*
X0243579Y0427943D01*
X0243444Y0427678D01*
X0243303Y0427417D01*
X0243156Y0427160D01*
X0243003Y0426906D01*
X0242843Y0426656D01*
X0242678Y0426410D01*
X0242506Y0426168D01*
X0242329Y0425931D01*
X0242146Y0425697D01*
X0241957Y0425469D01*
X0241762Y0425244D01*
X0241563Y0425025D01*
X0241358Y0424811D01*
X0241148Y0424602D01*
X0240933Y0424398D01*
X0240712Y0424199D01*
X0240488Y0424005D01*
X0240258Y0423818D01*
X0240024Y0423635D01*
X0239786Y0423459D01*
X0239543Y0423288D01*
X0239297Y0423124D01*
X0239046Y0422965D01*
X0238792Y0422813D01*
X0238533Y0422667D01*
X0238272Y0422527D01*
X0238007Y0422393D01*
X0237739Y0422266D01*
X0237468Y0422146D01*
X0237194Y0422032D01*
X0236918Y0421925D01*
X0236638Y0421825D01*
X0236357Y0421732D01*
X0236073Y0421645D01*
X0235788Y0421566D01*
X0235500Y0421493D01*
X0235211Y0421427D01*
X0234920Y0421369D01*
X0234628Y0421318D01*
X0234335Y0421273D01*
X0234041Y0421236D01*
X0233746Y0421206D01*
X0233450Y0421183D01*
X0233154Y0421168D01*
X0232857Y0421160D01*
X0232561Y0421158D01*
X0232264Y0421165D01*
X0231968Y0421178D01*
X0231672Y0421198D01*
X0231377Y0421226D01*
X0231083Y0421261D01*
X0230789Y0421303D01*
X0230497Y0421353D01*
X0230205Y0421409D01*
X0229916Y0421472D01*
X0229628Y0421543D01*
X0229341Y0421620D01*
X0229057Y0421705D01*
X0228775Y0421796D01*
X0228495Y0421894D01*
X0228218Y0421999D01*
X0227943Y0422111D01*
X0227671Y0422229D01*
X0227402Y0422354D01*
X0227136Y0422486D01*
X0226874Y0422623D01*
X0226615Y0422768D01*
X0226359Y0422918D01*
X0226107Y0423075D01*
X0225859Y0423238D01*
X0225616Y0423406D01*
X0225376Y0423581D01*
X0225141Y0423762D01*
X0224910Y0423948D01*
X0224683Y0424139D01*
X0224462Y0424336D01*
X0224245Y0424539D01*
X0224034Y0424747D01*
X0223827Y0424959D01*
X0223626Y0425177D01*
X0223430Y0425400D01*
X0223239Y0425627D01*
X0223054Y0425859D01*
X0222875Y0426095D01*
X0222702Y0426336D01*
X0222535Y0426581D01*
X0222373Y0426830D01*
X0222218Y0427082D01*
X0222069Y0427339D01*
X0221926Y0427598D01*
X0221789Y0427862D01*
X0221659Y0428128D01*
X0221536Y0428398D01*
X0221419Y0428670D01*
X0221309Y0428946D01*
X0221206Y0429224D01*
X0221109Y0429504D01*
X0221019Y0429787D01*
X0221019Y0437070D02*
X0221113Y0437351D01*
X0221215Y0437630D01*
X0221323Y0437906D01*
X0221438Y0438179D01*
X0221559Y0438450D01*
X0221687Y0438717D01*
X0221822Y0438982D01*
X0221963Y0439243D01*
X0222110Y0439500D01*
X0222263Y0439754D01*
X0222423Y0440004D01*
X0222588Y0440250D01*
X0222760Y0440492D01*
X0222937Y0440729D01*
X0223120Y0440963D01*
X0223309Y0441191D01*
X0223504Y0441416D01*
X0223703Y0441635D01*
X0223908Y0441849D01*
X0224118Y0442058D01*
X0224333Y0442262D01*
X0224554Y0442461D01*
X0224778Y0442655D01*
X0225008Y0442842D01*
X0225242Y0443025D01*
X0225480Y0443201D01*
X0225723Y0443372D01*
X0225969Y0443536D01*
X0226220Y0443695D01*
X0226474Y0443847D01*
X0226733Y0443993D01*
X0226994Y0444133D01*
X0227259Y0444267D01*
X0227527Y0444394D01*
X0227798Y0444514D01*
X0228072Y0444628D01*
X0228348Y0444735D01*
X0228628Y0444835D01*
X0228909Y0444928D01*
X0229193Y0445015D01*
X0229478Y0445094D01*
X0229766Y0445167D01*
X0230055Y0445233D01*
X0230346Y0445291D01*
X0230638Y0445342D01*
X0230931Y0445387D01*
X0231225Y0445424D01*
X0231520Y0445454D01*
X0231816Y0445477D01*
X0232112Y0445492D01*
X0232409Y0445500D01*
X0232705Y0445502D01*
X0233002Y0445495D01*
X0233298Y0445482D01*
X0233594Y0445462D01*
X0233889Y0445434D01*
X0234183Y0445399D01*
X0234477Y0445357D01*
X0234769Y0445307D01*
X0235061Y0445251D01*
X0235350Y0445188D01*
X0235638Y0445117D01*
X0235925Y0445040D01*
X0236209Y0444955D01*
X0236491Y0444864D01*
X0236771Y0444766D01*
X0237048Y0444661D01*
X0237323Y0444549D01*
X0237595Y0444431D01*
X0237864Y0444306D01*
X0238130Y0444174D01*
X0238392Y0444037D01*
X0238651Y0443892D01*
X0238907Y0443742D01*
X0239159Y0443585D01*
X0239407Y0443422D01*
X0239650Y0443254D01*
X0239890Y0443079D01*
X0240125Y0442898D01*
X0240356Y0442712D01*
X0240583Y0442521D01*
X0240804Y0442324D01*
X0241021Y0442121D01*
X0241232Y0441913D01*
X0241439Y0441701D01*
X0241640Y0441483D01*
X0241836Y0441260D01*
X0242027Y0441033D01*
X0242212Y0440801D01*
X0242391Y0440565D01*
X0242564Y0440324D01*
X0242731Y0440079D01*
X0242893Y0439830D01*
X0243048Y0439578D01*
X0243197Y0439321D01*
X0243340Y0439062D01*
X0243477Y0438798D01*
X0243607Y0438532D01*
X0243730Y0438262D01*
X0243847Y0437990D01*
X0243957Y0437714D01*
X0244060Y0437436D01*
X0244157Y0437156D01*
X0244247Y0436873D01*
X0221019Y0437071D02*
X0220933Y0436787D01*
X0220855Y0436502D01*
X0220784Y0436215D01*
X0220720Y0435926D01*
X0220663Y0435636D01*
X0220613Y0435344D01*
X0220570Y0435051D01*
X0220534Y0434758D01*
X0220505Y0434463D01*
X0220483Y0434168D01*
X0220469Y0433873D01*
X0220462Y0433577D01*
X0220462Y0433281D01*
X0220469Y0432985D01*
X0220483Y0432690D01*
X0220505Y0432395D01*
X0220534Y0432100D01*
X0220570Y0431807D01*
X0220613Y0431514D01*
X0220663Y0431222D01*
X0220720Y0430932D01*
X0220784Y0430643D01*
X0220855Y0430356D01*
X0220933Y0430071D01*
X0221019Y0429787D01*
X0220277Y0469980D02*
X0226311Y0476014D01*
X0226311Y0477522D01*
X0224802Y0479030D01*
X0221785Y0479030D01*
X0220277Y0477522D01*
X0217248Y0476014D02*
X0214231Y0469980D01*
X0211214Y0476014D01*
X0220277Y0469980D02*
X0226311Y0469980D01*
X0199126Y0469980D02*
X0197618Y0471489D01*
X0197618Y0477522D01*
X0196110Y0476014D02*
X0199126Y0476014D01*
X0193080Y0474505D02*
X0193080Y0469980D01*
X0193080Y0474505D02*
X0191572Y0476014D01*
X0188555Y0476014D01*
X0187047Y0474505D01*
X0184017Y0476014D02*
X0184017Y0468472D01*
X0182509Y0466963D01*
X0181001Y0466963D01*
X0179492Y0469980D02*
X0184017Y0469980D01*
X0187047Y0469980D02*
X0187047Y0479030D01*
X0184017Y0476014D02*
X0179492Y0476014D01*
X0177984Y0474505D01*
X0177984Y0471489D01*
X0179492Y0469980D01*
X0174959Y0469980D02*
X0171942Y0469980D01*
X0173450Y0469980D02*
X0173450Y0476014D01*
X0171942Y0476014D01*
X0173450Y0479030D02*
X0173450Y0480539D01*
X0162879Y0479030D02*
X0162879Y0469980D01*
X0168913Y0469980D01*
X0150787Y0469980D02*
X0150787Y0474505D01*
X0149278Y0476014D01*
X0147770Y0474505D01*
X0147770Y0469980D01*
X0144753Y0469980D02*
X0144753Y0476014D01*
X0146262Y0476014D01*
X0147770Y0474505D01*
X0141726Y0476014D02*
X0140218Y0476014D01*
X0137201Y0472997D01*
X0137201Y0469980D02*
X0137201Y0476014D01*
X0134172Y0474505D02*
X0134172Y0469980D01*
X0129646Y0469980D01*
X0128138Y0471489D01*
X0129646Y0472997D01*
X0134172Y0472997D01*
X0134172Y0474505D02*
X0132663Y0476014D01*
X0129646Y0476014D01*
X0125113Y0469980D02*
X0122096Y0469980D01*
X0123605Y0469980D02*
X0123605Y0479030D01*
X0122096Y0479030D01*
X0119067Y0476014D02*
X0119067Y0469980D01*
X0119067Y0474505D02*
X0113033Y0474505D01*
X0113033Y0476014D02*
X0116050Y0479030D01*
X0119067Y0476014D01*
X0113033Y0476014D02*
X0113033Y0469980D01*
X0091383Y0429580D02*
X0086383Y0427080D01*
X0091383Y0424580D01*
X0086383Y0427080D02*
X0102633Y0427080D01*
X0099838Y0427080D02*
X0099840Y0427185D01*
X0099846Y0427290D01*
X0099856Y0427395D01*
X0099870Y0427499D01*
X0099887Y0427603D01*
X0099909Y0427706D01*
X0099934Y0427808D01*
X0099964Y0427909D01*
X0099997Y0428008D01*
X0100034Y0428107D01*
X0100074Y0428204D01*
X0100118Y0428299D01*
X0100166Y0428393D01*
X0100217Y0428485D01*
X0100271Y0428575D01*
X0100329Y0428663D01*
X0100390Y0428748D01*
X0100455Y0428831D01*
X0100522Y0428912D01*
X0100593Y0428990D01*
X0100666Y0429066D01*
X0100742Y0429138D01*
X0100821Y0429208D01*
X0100902Y0429275D01*
X0100986Y0429338D01*
X0101072Y0429398D01*
X0101160Y0429456D01*
X0101251Y0429509D01*
X0101343Y0429560D01*
X0101437Y0429606D01*
X0101533Y0429649D01*
X0101631Y0429689D01*
X0101729Y0429725D01*
X0101830Y0429757D01*
X0101931Y0429785D01*
X0102033Y0429810D01*
X0102136Y0429830D01*
X0102240Y0429847D01*
X0102344Y0429860D01*
X0102449Y0429869D01*
X0102554Y0429874D01*
X0102659Y0429875D01*
X0102764Y0429872D01*
X0102869Y0429865D01*
X0102974Y0429854D01*
X0103078Y0429839D01*
X0103182Y0429821D01*
X0103284Y0429798D01*
X0103386Y0429772D01*
X0103487Y0429741D01*
X0103586Y0429707D01*
X0103684Y0429670D01*
X0103781Y0429628D01*
X0103876Y0429583D01*
X0103969Y0429535D01*
X0104061Y0429483D01*
X0104150Y0429427D01*
X0104237Y0429369D01*
X0104322Y0429307D01*
X0104405Y0429242D01*
X0104485Y0429173D01*
X0104562Y0429102D01*
X0104637Y0429028D01*
X0104709Y0428952D01*
X0104778Y0428872D01*
X0104844Y0428790D01*
X0104907Y0428706D01*
X0104966Y0428619D01*
X0105022Y0428530D01*
X0105075Y0428439D01*
X0105125Y0428347D01*
X0105170Y0428252D01*
X0105213Y0428156D01*
X0105251Y0428058D01*
X0105286Y0427959D01*
X0105317Y0427858D01*
X0105345Y0427757D01*
X0105368Y0427654D01*
X0105388Y0427551D01*
X0105404Y0427447D01*
X0105416Y0427343D01*
X0105424Y0427238D01*
X0105428Y0427133D01*
X0105428Y0427027D01*
X0105424Y0426922D01*
X0105416Y0426817D01*
X0105404Y0426713D01*
X0105388Y0426609D01*
X0105368Y0426506D01*
X0105345Y0426403D01*
X0105317Y0426302D01*
X0105286Y0426201D01*
X0105251Y0426102D01*
X0105213Y0426004D01*
X0105170Y0425908D01*
X0105125Y0425813D01*
X0105075Y0425721D01*
X0105022Y0425630D01*
X0104966Y0425541D01*
X0104907Y0425454D01*
X0104844Y0425370D01*
X0104778Y0425288D01*
X0104709Y0425208D01*
X0104637Y0425132D01*
X0104562Y0425058D01*
X0104485Y0424987D01*
X0104405Y0424918D01*
X0104322Y0424853D01*
X0104237Y0424791D01*
X0104150Y0424733D01*
X0104061Y0424677D01*
X0103969Y0424625D01*
X0103876Y0424577D01*
X0103781Y0424532D01*
X0103684Y0424490D01*
X0103586Y0424453D01*
X0103487Y0424419D01*
X0103386Y0424388D01*
X0103284Y0424362D01*
X0103182Y0424339D01*
X0103078Y0424321D01*
X0102974Y0424306D01*
X0102869Y0424295D01*
X0102764Y0424288D01*
X0102659Y0424285D01*
X0102554Y0424286D01*
X0102449Y0424291D01*
X0102344Y0424300D01*
X0102240Y0424313D01*
X0102136Y0424330D01*
X0102033Y0424350D01*
X0101931Y0424375D01*
X0101830Y0424403D01*
X0101729Y0424435D01*
X0101631Y0424471D01*
X0101533Y0424511D01*
X0101437Y0424554D01*
X0101343Y0424600D01*
X0101251Y0424651D01*
X0101160Y0424704D01*
X0101072Y0424762D01*
X0100986Y0424822D01*
X0100902Y0424885D01*
X0100821Y0424952D01*
X0100742Y0425022D01*
X0100666Y0425094D01*
X0100593Y0425170D01*
X0100522Y0425248D01*
X0100455Y0425329D01*
X0100390Y0425412D01*
X0100329Y0425497D01*
X0100271Y0425585D01*
X0100217Y0425675D01*
X0100166Y0425767D01*
X0100118Y0425861D01*
X0100074Y0425956D01*
X0100034Y0426053D01*
X0099997Y0426152D01*
X0099964Y0426251D01*
X0099934Y0426352D01*
X0099909Y0426454D01*
X0099887Y0426557D01*
X0099870Y0426661D01*
X0099856Y0426765D01*
X0099846Y0426870D01*
X0099840Y0426975D01*
X0099838Y0427080D01*
X0101383Y0427080D02*
X0101385Y0427150D01*
X0101391Y0427220D01*
X0101401Y0427289D01*
X0101414Y0427358D01*
X0101432Y0427426D01*
X0101453Y0427493D01*
X0101478Y0427558D01*
X0101507Y0427622D01*
X0101539Y0427685D01*
X0101575Y0427745D01*
X0101614Y0427803D01*
X0101656Y0427859D01*
X0101701Y0427913D01*
X0101749Y0427964D01*
X0101800Y0428012D01*
X0101854Y0428057D01*
X0101910Y0428099D01*
X0101968Y0428138D01*
X0102028Y0428174D01*
X0102091Y0428206D01*
X0102155Y0428235D01*
X0102220Y0428260D01*
X0102287Y0428281D01*
X0102355Y0428299D01*
X0102424Y0428312D01*
X0102493Y0428322D01*
X0102563Y0428328D01*
X0102633Y0428330D01*
X0102703Y0428328D01*
X0102773Y0428322D01*
X0102842Y0428312D01*
X0102911Y0428299D01*
X0102979Y0428281D01*
X0103046Y0428260D01*
X0103111Y0428235D01*
X0103175Y0428206D01*
X0103238Y0428174D01*
X0103298Y0428138D01*
X0103356Y0428099D01*
X0103412Y0428057D01*
X0103466Y0428012D01*
X0103517Y0427964D01*
X0103565Y0427913D01*
X0103610Y0427859D01*
X0103652Y0427803D01*
X0103691Y0427745D01*
X0103727Y0427685D01*
X0103759Y0427622D01*
X0103788Y0427558D01*
X0103813Y0427493D01*
X0103834Y0427426D01*
X0103852Y0427358D01*
X0103865Y0427289D01*
X0103875Y0427220D01*
X0103881Y0427150D01*
X0103883Y0427080D01*
X0103881Y0427010D01*
X0103875Y0426940D01*
X0103865Y0426871D01*
X0103852Y0426802D01*
X0103834Y0426734D01*
X0103813Y0426667D01*
X0103788Y0426602D01*
X0103759Y0426538D01*
X0103727Y0426475D01*
X0103691Y0426415D01*
X0103652Y0426357D01*
X0103610Y0426301D01*
X0103565Y0426247D01*
X0103517Y0426196D01*
X0103466Y0426148D01*
X0103412Y0426103D01*
X0103356Y0426061D01*
X0103298Y0426022D01*
X0103238Y0425986D01*
X0103175Y0425954D01*
X0103111Y0425925D01*
X0103046Y0425900D01*
X0102979Y0425879D01*
X0102911Y0425861D01*
X0102842Y0425848D01*
X0102773Y0425838D01*
X0102703Y0425832D01*
X0102633Y0425830D01*
X0102563Y0425832D01*
X0102493Y0425838D01*
X0102424Y0425848D01*
X0102355Y0425861D01*
X0102287Y0425879D01*
X0102220Y0425900D01*
X0102155Y0425925D01*
X0102091Y0425954D01*
X0102028Y0425986D01*
X0101968Y0426022D01*
X0101910Y0426061D01*
X0101854Y0426103D01*
X0101800Y0426148D01*
X0101749Y0426196D01*
X0101701Y0426247D01*
X0101656Y0426301D01*
X0101614Y0426357D01*
X0101575Y0426415D01*
X0101539Y0426475D01*
X0101507Y0426538D01*
X0101478Y0426602D01*
X0101453Y0426667D01*
X0101432Y0426734D01*
X0101414Y0426802D01*
X0101401Y0426871D01*
X0101391Y0426940D01*
X0101385Y0427010D01*
X0101383Y0427080D01*
X0102633Y0427080D02*
X0102633Y0412080D01*
X0105133Y0418330D01*
X0100133Y0418330D02*
X0102633Y0412080D01*
X0117633Y0297080D02*
X0117635Y0297221D01*
X0117641Y0297362D01*
X0117651Y0297502D01*
X0117665Y0297642D01*
X0117683Y0297782D01*
X0117704Y0297921D01*
X0117730Y0298060D01*
X0117759Y0298198D01*
X0117793Y0298334D01*
X0117830Y0298470D01*
X0117871Y0298605D01*
X0117916Y0298739D01*
X0117965Y0298871D01*
X0118017Y0299002D01*
X0118073Y0299131D01*
X0118133Y0299258D01*
X0118196Y0299384D01*
X0118262Y0299508D01*
X0118333Y0299631D01*
X0118406Y0299751D01*
X0118483Y0299869D01*
X0118563Y0299985D01*
X0118647Y0300098D01*
X0118733Y0300209D01*
X0118823Y0300318D01*
X0118916Y0300424D01*
X0119011Y0300527D01*
X0119110Y0300628D01*
X0119211Y0300726D01*
X0119315Y0300821D01*
X0119422Y0300913D01*
X0119531Y0301002D01*
X0119643Y0301087D01*
X0119757Y0301170D01*
X0119873Y0301250D01*
X0119992Y0301326D01*
X0120113Y0301398D01*
X0120235Y0301468D01*
X0120360Y0301533D01*
X0120486Y0301596D01*
X0120614Y0301654D01*
X0120744Y0301709D01*
X0120875Y0301761D01*
X0121008Y0301808D01*
X0121142Y0301852D01*
X0121277Y0301893D01*
X0121413Y0301929D01*
X0121550Y0301961D01*
X0121688Y0301990D01*
X0121826Y0302015D01*
X0121966Y0302035D01*
X0122106Y0302052D01*
X0122246Y0302065D01*
X0122387Y0302074D01*
X0122527Y0302079D01*
X0122668Y0302080D01*
X0122809Y0302077D01*
X0122950Y0302070D01*
X0123090Y0302059D01*
X0123230Y0302044D01*
X0123370Y0302025D01*
X0123509Y0302003D01*
X0123647Y0301976D01*
X0123785Y0301946D01*
X0123921Y0301911D01*
X0124057Y0301873D01*
X0124191Y0301831D01*
X0124325Y0301785D01*
X0124457Y0301736D01*
X0124587Y0301682D01*
X0124716Y0301625D01*
X0124843Y0301565D01*
X0124969Y0301501D01*
X0125092Y0301433D01*
X0125214Y0301362D01*
X0125334Y0301288D01*
X0125451Y0301210D01*
X0125566Y0301129D01*
X0125679Y0301045D01*
X0125790Y0300958D01*
X0125898Y0300867D01*
X0126003Y0300774D01*
X0126106Y0300677D01*
X0126206Y0300578D01*
X0126303Y0300476D01*
X0126397Y0300371D01*
X0126488Y0300264D01*
X0126576Y0300154D01*
X0126661Y0300042D01*
X0126743Y0299927D01*
X0126822Y0299810D01*
X0126897Y0299691D01*
X0126969Y0299570D01*
X0127037Y0299447D01*
X0127102Y0299322D01*
X0127164Y0299195D01*
X0127221Y0299066D01*
X0127276Y0298936D01*
X0127326Y0298805D01*
X0127373Y0298672D01*
X0127416Y0298538D01*
X0127455Y0298402D01*
X0127490Y0298266D01*
X0127522Y0298129D01*
X0127549Y0297991D01*
X0127573Y0297852D01*
X0127593Y0297712D01*
X0127609Y0297572D01*
X0127621Y0297432D01*
X0127629Y0297291D01*
X0127633Y0297150D01*
X0127633Y0297010D01*
X0127629Y0296869D01*
X0127621Y0296728D01*
X0127609Y0296588D01*
X0127593Y0296448D01*
X0127573Y0296308D01*
X0127549Y0296169D01*
X0127522Y0296031D01*
X0127490Y0295894D01*
X0127455Y0295758D01*
X0127416Y0295622D01*
X0127373Y0295488D01*
X0127326Y0295355D01*
X0127276Y0295224D01*
X0127221Y0295094D01*
X0127164Y0294965D01*
X0127102Y0294838D01*
X0127037Y0294713D01*
X0126969Y0294590D01*
X0126897Y0294469D01*
X0126822Y0294350D01*
X0126743Y0294233D01*
X0126661Y0294118D01*
X0126576Y0294006D01*
X0126488Y0293896D01*
X0126397Y0293789D01*
X0126303Y0293684D01*
X0126206Y0293582D01*
X0126106Y0293483D01*
X0126003Y0293386D01*
X0125898Y0293293D01*
X0125790Y0293202D01*
X0125679Y0293115D01*
X0125566Y0293031D01*
X0125451Y0292950D01*
X0125334Y0292872D01*
X0125214Y0292798D01*
X0125092Y0292727D01*
X0124969Y0292659D01*
X0124843Y0292595D01*
X0124716Y0292535D01*
X0124587Y0292478D01*
X0124457Y0292424D01*
X0124325Y0292375D01*
X0124191Y0292329D01*
X0124057Y0292287D01*
X0123921Y0292249D01*
X0123785Y0292214D01*
X0123647Y0292184D01*
X0123509Y0292157D01*
X0123370Y0292135D01*
X0123230Y0292116D01*
X0123090Y0292101D01*
X0122950Y0292090D01*
X0122809Y0292083D01*
X0122668Y0292080D01*
X0122527Y0292081D01*
X0122387Y0292086D01*
X0122246Y0292095D01*
X0122106Y0292108D01*
X0121966Y0292125D01*
X0121826Y0292145D01*
X0121688Y0292170D01*
X0121550Y0292199D01*
X0121413Y0292231D01*
X0121277Y0292267D01*
X0121142Y0292308D01*
X0121008Y0292352D01*
X0120875Y0292399D01*
X0120744Y0292451D01*
X0120614Y0292506D01*
X0120486Y0292564D01*
X0120360Y0292627D01*
X0120235Y0292692D01*
X0120113Y0292762D01*
X0119992Y0292834D01*
X0119873Y0292910D01*
X0119757Y0292990D01*
X0119643Y0293073D01*
X0119531Y0293158D01*
X0119422Y0293247D01*
X0119315Y0293339D01*
X0119211Y0293434D01*
X0119110Y0293532D01*
X0119011Y0293633D01*
X0118916Y0293736D01*
X0118823Y0293842D01*
X0118733Y0293951D01*
X0118647Y0294062D01*
X0118563Y0294175D01*
X0118483Y0294291D01*
X0118406Y0294409D01*
X0118333Y0294529D01*
X0118262Y0294652D01*
X0118196Y0294776D01*
X0118133Y0294902D01*
X0118073Y0295029D01*
X0118017Y0295158D01*
X0117965Y0295289D01*
X0117916Y0295421D01*
X0117871Y0295555D01*
X0117830Y0295690D01*
X0117793Y0295826D01*
X0117759Y0295962D01*
X0117730Y0296100D01*
X0117704Y0296239D01*
X0117683Y0296378D01*
X0117665Y0296518D01*
X0117651Y0296658D01*
X0117641Y0296798D01*
X0117635Y0296939D01*
X0117633Y0297080D01*
X0099405Y0297080D02*
X0099412Y0297650D01*
X0099433Y0298220D01*
X0099468Y0298789D01*
X0099517Y0299357D01*
X0099580Y0299923D01*
X0099656Y0300488D01*
X0099747Y0301051D01*
X0099851Y0301612D01*
X0099969Y0302169D01*
X0100101Y0302724D01*
X0100246Y0303275D01*
X0100405Y0303823D01*
X0100577Y0304366D01*
X0100763Y0304905D01*
X0100961Y0305440D01*
X0101173Y0305969D01*
X0101398Y0306493D01*
X0101635Y0307011D01*
X0101885Y0307524D01*
X0102148Y0308030D01*
X0102423Y0308529D01*
X0102710Y0309022D01*
X0103009Y0309507D01*
X0103320Y0309985D01*
X0103642Y0310455D01*
X0103976Y0310917D01*
X0104321Y0311371D01*
X0104678Y0311816D01*
X0105045Y0312252D01*
X0105422Y0312679D01*
X0105810Y0313097D01*
X0106208Y0313505D01*
X0106616Y0313903D01*
X0107034Y0314291D01*
X0107461Y0314668D01*
X0107897Y0315035D01*
X0108342Y0315392D01*
X0108796Y0315737D01*
X0109258Y0316071D01*
X0109728Y0316393D01*
X0110206Y0316704D01*
X0110691Y0317003D01*
X0111184Y0317290D01*
X0111683Y0317565D01*
X0112189Y0317828D01*
X0112702Y0318078D01*
X0113220Y0318315D01*
X0113744Y0318540D01*
X0114273Y0318752D01*
X0114808Y0318950D01*
X0115347Y0319136D01*
X0115890Y0319308D01*
X0116438Y0319467D01*
X0116989Y0319612D01*
X0117544Y0319744D01*
X0118101Y0319862D01*
X0118662Y0319966D01*
X0119225Y0320057D01*
X0119790Y0320133D01*
X0120356Y0320196D01*
X0120924Y0320245D01*
X0121493Y0320280D01*
X0122063Y0320301D01*
X0122633Y0320308D01*
X0123203Y0320301D01*
X0123773Y0320280D01*
X0124342Y0320245D01*
X0124910Y0320196D01*
X0125476Y0320133D01*
X0126041Y0320057D01*
X0126604Y0319966D01*
X0127165Y0319862D01*
X0127722Y0319744D01*
X0128277Y0319612D01*
X0128828Y0319467D01*
X0129376Y0319308D01*
X0129919Y0319136D01*
X0130458Y0318950D01*
X0130993Y0318752D01*
X0131522Y0318540D01*
X0132046Y0318315D01*
X0132564Y0318078D01*
X0133077Y0317828D01*
X0133583Y0317565D01*
X0134082Y0317290D01*
X0134575Y0317003D01*
X0135060Y0316704D01*
X0135538Y0316393D01*
X0136008Y0316071D01*
X0136470Y0315737D01*
X0136924Y0315392D01*
X0137369Y0315035D01*
X0137805Y0314668D01*
X0138232Y0314291D01*
X0138650Y0313903D01*
X0139058Y0313505D01*
X0139456Y0313097D01*
X0139844Y0312679D01*
X0140221Y0312252D01*
X0140588Y0311816D01*
X0140945Y0311371D01*
X0141290Y0310917D01*
X0141624Y0310455D01*
X0141946Y0309985D01*
X0142257Y0309507D01*
X0142556Y0309022D01*
X0142843Y0308529D01*
X0143118Y0308030D01*
X0143381Y0307524D01*
X0143631Y0307011D01*
X0143868Y0306493D01*
X0144093Y0305969D01*
X0144305Y0305440D01*
X0144503Y0304905D01*
X0144689Y0304366D01*
X0144861Y0303823D01*
X0145020Y0303275D01*
X0145165Y0302724D01*
X0145297Y0302169D01*
X0145415Y0301612D01*
X0145519Y0301051D01*
X0145610Y0300488D01*
X0145686Y0299923D01*
X0145749Y0299357D01*
X0145798Y0298789D01*
X0145833Y0298220D01*
X0145854Y0297650D01*
X0145861Y0297080D01*
X0145854Y0296510D01*
X0145833Y0295940D01*
X0145798Y0295371D01*
X0145749Y0294803D01*
X0145686Y0294237D01*
X0145610Y0293672D01*
X0145519Y0293109D01*
X0145415Y0292548D01*
X0145297Y0291991D01*
X0145165Y0291436D01*
X0145020Y0290885D01*
X0144861Y0290337D01*
X0144689Y0289794D01*
X0144503Y0289255D01*
X0144305Y0288720D01*
X0144093Y0288191D01*
X0143868Y0287667D01*
X0143631Y0287149D01*
X0143381Y0286636D01*
X0143118Y0286130D01*
X0142843Y0285631D01*
X0142556Y0285138D01*
X0142257Y0284653D01*
X0141946Y0284175D01*
X0141624Y0283705D01*
X0141290Y0283243D01*
X0140945Y0282789D01*
X0140588Y0282344D01*
X0140221Y0281908D01*
X0139844Y0281481D01*
X0139456Y0281063D01*
X0139058Y0280655D01*
X0138650Y0280257D01*
X0138232Y0279869D01*
X0137805Y0279492D01*
X0137369Y0279125D01*
X0136924Y0278768D01*
X0136470Y0278423D01*
X0136008Y0278089D01*
X0135538Y0277767D01*
X0135060Y0277456D01*
X0134575Y0277157D01*
X0134082Y0276870D01*
X0133583Y0276595D01*
X0133077Y0276332D01*
X0132564Y0276082D01*
X0132046Y0275845D01*
X0131522Y0275620D01*
X0130993Y0275408D01*
X0130458Y0275210D01*
X0129919Y0275024D01*
X0129376Y0274852D01*
X0128828Y0274693D01*
X0128277Y0274548D01*
X0127722Y0274416D01*
X0127165Y0274298D01*
X0126604Y0274194D01*
X0126041Y0274103D01*
X0125476Y0274027D01*
X0124910Y0273964D01*
X0124342Y0273915D01*
X0123773Y0273880D01*
X0123203Y0273859D01*
X0122633Y0273852D01*
X0122063Y0273859D01*
X0121493Y0273880D01*
X0120924Y0273915D01*
X0120356Y0273964D01*
X0119790Y0274027D01*
X0119225Y0274103D01*
X0118662Y0274194D01*
X0118101Y0274298D01*
X0117544Y0274416D01*
X0116989Y0274548D01*
X0116438Y0274693D01*
X0115890Y0274852D01*
X0115347Y0275024D01*
X0114808Y0275210D01*
X0114273Y0275408D01*
X0113744Y0275620D01*
X0113220Y0275845D01*
X0112702Y0276082D01*
X0112189Y0276332D01*
X0111683Y0276595D01*
X0111184Y0276870D01*
X0110691Y0277157D01*
X0110206Y0277456D01*
X0109728Y0277767D01*
X0109258Y0278089D01*
X0108796Y0278423D01*
X0108342Y0278768D01*
X0107897Y0279125D01*
X0107461Y0279492D01*
X0107034Y0279869D01*
X0106616Y0280257D01*
X0106208Y0280655D01*
X0105810Y0281063D01*
X0105422Y0281481D01*
X0105045Y0281908D01*
X0104678Y0282344D01*
X0104321Y0282789D01*
X0103976Y0283243D01*
X0103642Y0283705D01*
X0103320Y0284175D01*
X0103009Y0284653D01*
X0102710Y0285138D01*
X0102423Y0285631D01*
X0102148Y0286130D01*
X0101885Y0286636D01*
X0101635Y0287149D01*
X0101398Y0287667D01*
X0101173Y0288191D01*
X0100961Y0288720D01*
X0100763Y0289255D01*
X0100577Y0289794D01*
X0100405Y0290337D01*
X0100246Y0290885D01*
X0100101Y0291436D01*
X0099969Y0291991D01*
X0099851Y0292548D01*
X0099747Y0293109D01*
X0099656Y0293672D01*
X0099580Y0294237D01*
X0099517Y0294803D01*
X0099468Y0295371D01*
X0099433Y0295940D01*
X0099412Y0296510D01*
X0099405Y0297080D01*
X0118923Y0261076D02*
X0148844Y0261076D01*
X0163391Y0260131D02*
X0166935Y0256588D01*
X0189375Y0256588D01*
X0189375Y0265249D01*
X0189375Y0273911D01*
X0189375Y0282572D01*
X0166935Y0282572D01*
X0163391Y0279029D01*
X0163391Y0273911D01*
X0163391Y0265249D01*
X0163391Y0260131D01*
X0187997Y0265840D02*
X0188083Y0266124D01*
X0188161Y0266409D01*
X0188232Y0266696D01*
X0188296Y0266985D01*
X0188353Y0267275D01*
X0188403Y0267567D01*
X0188446Y0267860D01*
X0188482Y0268153D01*
X0188511Y0268448D01*
X0188533Y0268743D01*
X0188547Y0269038D01*
X0188554Y0269334D01*
X0188554Y0269630D01*
X0188547Y0269926D01*
X0188533Y0270221D01*
X0188511Y0270516D01*
X0188482Y0270811D01*
X0188446Y0271104D01*
X0188403Y0271397D01*
X0188353Y0271689D01*
X0188296Y0271979D01*
X0188232Y0272268D01*
X0188161Y0272555D01*
X0188083Y0272840D01*
X0187997Y0273124D01*
X0187997Y0265840D02*
X0187903Y0265559D01*
X0187801Y0265280D01*
X0187693Y0265004D01*
X0187578Y0264731D01*
X0187457Y0264460D01*
X0187329Y0264193D01*
X0187194Y0263928D01*
X0187053Y0263667D01*
X0186906Y0263410D01*
X0186753Y0263156D01*
X0186593Y0262906D01*
X0186428Y0262660D01*
X0186256Y0262418D01*
X0186079Y0262181D01*
X0185896Y0261947D01*
X0185707Y0261719D01*
X0185512Y0261494D01*
X0185313Y0261275D01*
X0185108Y0261061D01*
X0184898Y0260852D01*
X0184683Y0260648D01*
X0184462Y0260449D01*
X0184238Y0260255D01*
X0184008Y0260068D01*
X0183774Y0259885D01*
X0183536Y0259709D01*
X0183293Y0259538D01*
X0183047Y0259374D01*
X0182796Y0259215D01*
X0182542Y0259063D01*
X0182283Y0258917D01*
X0182022Y0258777D01*
X0181757Y0258643D01*
X0181489Y0258516D01*
X0181218Y0258396D01*
X0180944Y0258282D01*
X0180668Y0258175D01*
X0180388Y0258075D01*
X0180107Y0257982D01*
X0179823Y0257895D01*
X0179538Y0257816D01*
X0179250Y0257743D01*
X0178961Y0257677D01*
X0178670Y0257619D01*
X0178378Y0257568D01*
X0178085Y0257523D01*
X0177791Y0257486D01*
X0177496Y0257456D01*
X0177200Y0257433D01*
X0176904Y0257418D01*
X0176607Y0257410D01*
X0176311Y0257408D01*
X0176014Y0257415D01*
X0175718Y0257428D01*
X0175422Y0257448D01*
X0175127Y0257476D01*
X0174833Y0257511D01*
X0174539Y0257553D01*
X0174247Y0257603D01*
X0173955Y0257659D01*
X0173666Y0257722D01*
X0173378Y0257793D01*
X0173091Y0257870D01*
X0172807Y0257955D01*
X0172525Y0258046D01*
X0172245Y0258144D01*
X0171968Y0258249D01*
X0171693Y0258361D01*
X0171421Y0258479D01*
X0171152Y0258604D01*
X0170886Y0258736D01*
X0170624Y0258873D01*
X0170365Y0259018D01*
X0170109Y0259168D01*
X0169857Y0259325D01*
X0169609Y0259488D01*
X0169366Y0259656D01*
X0169126Y0259831D01*
X0168891Y0260012D01*
X0168660Y0260198D01*
X0168433Y0260389D01*
X0168212Y0260586D01*
X0167995Y0260789D01*
X0167784Y0260997D01*
X0167577Y0261209D01*
X0167376Y0261427D01*
X0167180Y0261650D01*
X0166989Y0261877D01*
X0166804Y0262109D01*
X0166625Y0262345D01*
X0166452Y0262586D01*
X0166285Y0262831D01*
X0166123Y0263080D01*
X0165968Y0263332D01*
X0165819Y0263589D01*
X0165676Y0263848D01*
X0165539Y0264112D01*
X0165409Y0264378D01*
X0165286Y0264648D01*
X0165169Y0264920D01*
X0165059Y0265196D01*
X0164956Y0265474D01*
X0164859Y0265754D01*
X0164769Y0266037D01*
X0164769Y0273320D02*
X0164863Y0273601D01*
X0164965Y0273880D01*
X0165073Y0274156D01*
X0165188Y0274429D01*
X0165309Y0274700D01*
X0165437Y0274967D01*
X0165572Y0275232D01*
X0165713Y0275493D01*
X0165860Y0275750D01*
X0166013Y0276004D01*
X0166173Y0276254D01*
X0166338Y0276500D01*
X0166510Y0276742D01*
X0166687Y0276979D01*
X0166870Y0277213D01*
X0167059Y0277441D01*
X0167254Y0277666D01*
X0167453Y0277885D01*
X0167658Y0278099D01*
X0167868Y0278308D01*
X0168083Y0278512D01*
X0168304Y0278711D01*
X0168528Y0278905D01*
X0168758Y0279092D01*
X0168992Y0279275D01*
X0169230Y0279451D01*
X0169473Y0279622D01*
X0169719Y0279786D01*
X0169970Y0279945D01*
X0170224Y0280097D01*
X0170483Y0280243D01*
X0170744Y0280383D01*
X0171009Y0280517D01*
X0171277Y0280644D01*
X0171548Y0280764D01*
X0171822Y0280878D01*
X0172098Y0280985D01*
X0172378Y0281085D01*
X0172659Y0281178D01*
X0172943Y0281265D01*
X0173228Y0281344D01*
X0173516Y0281417D01*
X0173805Y0281483D01*
X0174096Y0281541D01*
X0174388Y0281592D01*
X0174681Y0281637D01*
X0174975Y0281674D01*
X0175270Y0281704D01*
X0175566Y0281727D01*
X0175862Y0281742D01*
X0176159Y0281750D01*
X0176455Y0281752D01*
X0176752Y0281745D01*
X0177048Y0281732D01*
X0177344Y0281712D01*
X0177639Y0281684D01*
X0177933Y0281649D01*
X0178227Y0281607D01*
X0178519Y0281557D01*
X0178811Y0281501D01*
X0179100Y0281438D01*
X0179388Y0281367D01*
X0179675Y0281290D01*
X0179959Y0281205D01*
X0180241Y0281114D01*
X0180521Y0281016D01*
X0180798Y0280911D01*
X0181073Y0280799D01*
X0181345Y0280681D01*
X0181614Y0280556D01*
X0181880Y0280424D01*
X0182142Y0280287D01*
X0182401Y0280142D01*
X0182657Y0279992D01*
X0182909Y0279835D01*
X0183157Y0279672D01*
X0183400Y0279504D01*
X0183640Y0279329D01*
X0183875Y0279148D01*
X0184106Y0278962D01*
X0184333Y0278771D01*
X0184554Y0278574D01*
X0184771Y0278371D01*
X0184982Y0278163D01*
X0185189Y0277951D01*
X0185390Y0277733D01*
X0185586Y0277510D01*
X0185777Y0277283D01*
X0185962Y0277051D01*
X0186141Y0276815D01*
X0186314Y0276574D01*
X0186481Y0276329D01*
X0186643Y0276080D01*
X0186798Y0275828D01*
X0186947Y0275571D01*
X0187090Y0275312D01*
X0187227Y0275048D01*
X0187357Y0274782D01*
X0187480Y0274512D01*
X0187597Y0274240D01*
X0187707Y0273964D01*
X0187810Y0273686D01*
X0187907Y0273406D01*
X0187997Y0273123D01*
X0164769Y0273321D02*
X0164683Y0273037D01*
X0164605Y0272752D01*
X0164534Y0272465D01*
X0164470Y0272176D01*
X0164413Y0271886D01*
X0164363Y0271594D01*
X0164320Y0271301D01*
X0164284Y0271008D01*
X0164255Y0270713D01*
X0164233Y0270418D01*
X0164219Y0270123D01*
X0164212Y0269827D01*
X0164212Y0269531D01*
X0164219Y0269235D01*
X0164233Y0268940D01*
X0164255Y0268645D01*
X0164284Y0268350D01*
X0164320Y0268057D01*
X0164363Y0267764D01*
X0164413Y0267472D01*
X0164470Y0267182D01*
X0164534Y0266893D01*
X0164605Y0266606D01*
X0164683Y0266321D01*
X0164769Y0266037D01*
X0118923Y0261076D02*
X0117924Y0260697D01*
X0116935Y0260294D01*
X0115956Y0259867D01*
X0114988Y0259416D01*
X0114031Y0258942D01*
X0113085Y0258445D01*
X0112153Y0257924D01*
X0111233Y0257381D01*
X0110327Y0256816D01*
X0109434Y0256228D01*
X0108557Y0255619D01*
X0107694Y0254989D01*
X0106848Y0254338D01*
X0106017Y0253667D01*
X0105203Y0252975D01*
X0104406Y0252264D01*
X0103627Y0251533D01*
X0102866Y0250784D01*
X0102123Y0250016D01*
X0101399Y0249231D01*
X0100695Y0248428D01*
X0100010Y0247608D01*
X0099346Y0246771D01*
X0098702Y0245919D01*
X0098079Y0245051D01*
X0097478Y0244169D01*
X0096898Y0243271D01*
X0096341Y0242360D01*
X0095805Y0241436D01*
X0095293Y0240499D01*
X0094804Y0239549D01*
X0094337Y0238588D01*
X0093895Y0237616D01*
X0093476Y0236633D01*
X0093082Y0235641D01*
X0092711Y0234639D01*
X0092366Y0233628D01*
X0092045Y0232609D01*
X0091749Y0231583D01*
X0091478Y0230550D01*
X0091233Y0229510D01*
X0091013Y0228465D01*
X0090818Y0227415D01*
X0090649Y0226360D01*
X0090507Y0225302D01*
X0090389Y0224240D01*
X0090298Y0223176D01*
X0090233Y0222109D01*
X0090194Y0221042D01*
X0090181Y0219974D01*
X0090194Y0218906D01*
X0090233Y0217839D01*
X0090298Y0216772D01*
X0090389Y0215708D01*
X0090507Y0214646D01*
X0090649Y0213588D01*
X0090818Y0212533D01*
X0091013Y0211483D01*
X0091233Y0210438D01*
X0091478Y0209398D01*
X0091749Y0208365D01*
X0092045Y0207339D01*
X0092366Y0206320D01*
X0092711Y0205309D01*
X0093082Y0204307D01*
X0093476Y0203315D01*
X0093895Y0202332D01*
X0094337Y0201360D01*
X0094804Y0200399D01*
X0095293Y0199449D01*
X0095805Y0198512D01*
X0096341Y0197588D01*
X0096898Y0196677D01*
X0097478Y0195779D01*
X0098079Y0194897D01*
X0098702Y0194029D01*
X0099346Y0193177D01*
X0100010Y0192340D01*
X0100695Y0191520D01*
X0101399Y0190717D01*
X0102123Y0189932D01*
X0102866Y0189164D01*
X0103627Y0188415D01*
X0104406Y0187684D01*
X0105203Y0186973D01*
X0106017Y0186281D01*
X0106848Y0185610D01*
X0107694Y0184959D01*
X0108557Y0184329D01*
X0109434Y0183720D01*
X0110327Y0183132D01*
X0111233Y0182567D01*
X0112153Y0182024D01*
X0113085Y0181503D01*
X0114031Y0181006D01*
X0114988Y0180532D01*
X0115956Y0180081D01*
X0116935Y0179654D01*
X0117924Y0179251D01*
X0118923Y0178872D01*
X0118923Y0167139D01*
X0148844Y0167139D01*
X0148844Y0178872D01*
X0149843Y0179251D01*
X0150832Y0179654D01*
X0151811Y0180081D01*
X0152779Y0180532D01*
X0153736Y0181006D01*
X0154682Y0181503D01*
X0155614Y0182024D01*
X0156534Y0182567D01*
X0157440Y0183132D01*
X0158333Y0183720D01*
X0159210Y0184329D01*
X0160073Y0184959D01*
X0160919Y0185610D01*
X0161750Y0186281D01*
X0162564Y0186973D01*
X0163361Y0187684D01*
X0164140Y0188415D01*
X0164901Y0189164D01*
X0165644Y0189932D01*
X0166368Y0190717D01*
X0167072Y0191520D01*
X0167757Y0192340D01*
X0168421Y0193177D01*
X0169065Y0194029D01*
X0169688Y0194897D01*
X0170289Y0195779D01*
X0170869Y0196677D01*
X0171426Y0197588D01*
X0171962Y0198512D01*
X0172474Y0199449D01*
X0172963Y0200399D01*
X0173430Y0201360D01*
X0173872Y0202332D01*
X0174291Y0203315D01*
X0174685Y0204307D01*
X0175056Y0205309D01*
X0175401Y0206320D01*
X0175722Y0207339D01*
X0176018Y0208365D01*
X0176289Y0209398D01*
X0176534Y0210438D01*
X0176754Y0211483D01*
X0176949Y0212533D01*
X0177118Y0213588D01*
X0177260Y0214646D01*
X0177378Y0215708D01*
X0177469Y0216772D01*
X0177534Y0217839D01*
X0177573Y0218906D01*
X0177586Y0219974D01*
X0177573Y0221042D01*
X0177534Y0222109D01*
X0177469Y0223176D01*
X0177378Y0224240D01*
X0177260Y0225302D01*
X0177118Y0226360D01*
X0176949Y0227415D01*
X0176754Y0228465D01*
X0176534Y0229510D01*
X0176289Y0230550D01*
X0176018Y0231583D01*
X0175722Y0232609D01*
X0175401Y0233628D01*
X0175056Y0234639D01*
X0174685Y0235641D01*
X0174291Y0236633D01*
X0173872Y0237616D01*
X0173430Y0238588D01*
X0172963Y0239549D01*
X0172474Y0240499D01*
X0171962Y0241436D01*
X0171426Y0242360D01*
X0170869Y0243271D01*
X0170289Y0244169D01*
X0169688Y0245051D01*
X0169065Y0245919D01*
X0168421Y0246771D01*
X0167757Y0247608D01*
X0167072Y0248428D01*
X0166368Y0249231D01*
X0165644Y0250016D01*
X0164901Y0250784D01*
X0164140Y0251533D01*
X0163361Y0252264D01*
X0162564Y0252975D01*
X0161750Y0253667D01*
X0160919Y0254338D01*
X0160073Y0254989D01*
X0159210Y0255619D01*
X0158333Y0256228D01*
X0157440Y0256816D01*
X0156534Y0257381D01*
X0155614Y0257924D01*
X0154682Y0258445D01*
X0153736Y0258942D01*
X0152779Y0259416D01*
X0151811Y0259867D01*
X0150832Y0260294D01*
X0149843Y0260697D01*
X0148844Y0261076D01*
X0210133Y0252080D02*
X0210133Y0247080D01*
X0270133Y0247080D02*
X0270133Y0252080D01*
X0272258Y0173955D02*
X0272260Y0174018D01*
X0272266Y0174080D01*
X0272276Y0174142D01*
X0272289Y0174204D01*
X0272307Y0174264D01*
X0272328Y0174323D01*
X0272353Y0174381D01*
X0272382Y0174437D01*
X0272414Y0174491D01*
X0272449Y0174543D01*
X0272487Y0174592D01*
X0272529Y0174640D01*
X0272573Y0174684D01*
X0272621Y0174726D01*
X0272670Y0174764D01*
X0272722Y0174799D01*
X0272776Y0174831D01*
X0272832Y0174860D01*
X0272890Y0174885D01*
X0272949Y0174906D01*
X0273009Y0174924D01*
X0273071Y0174937D01*
X0273133Y0174947D01*
X0273195Y0174953D01*
X0273258Y0174955D01*
X0273321Y0174953D01*
X0273383Y0174947D01*
X0273445Y0174937D01*
X0273507Y0174924D01*
X0273567Y0174906D01*
X0273626Y0174885D01*
X0273684Y0174860D01*
X0273740Y0174831D01*
X0273794Y0174799D01*
X0273846Y0174764D01*
X0273895Y0174726D01*
X0273943Y0174684D01*
X0273987Y0174640D01*
X0274029Y0174592D01*
X0274067Y0174543D01*
X0274102Y0174491D01*
X0274134Y0174437D01*
X0274163Y0174381D01*
X0274188Y0174323D01*
X0274209Y0174264D01*
X0274227Y0174204D01*
X0274240Y0174142D01*
X0274250Y0174080D01*
X0274256Y0174018D01*
X0274258Y0173955D01*
X0274256Y0173892D01*
X0274250Y0173830D01*
X0274240Y0173768D01*
X0274227Y0173706D01*
X0274209Y0173646D01*
X0274188Y0173587D01*
X0274163Y0173529D01*
X0274134Y0173473D01*
X0274102Y0173419D01*
X0274067Y0173367D01*
X0274029Y0173318D01*
X0273987Y0173270D01*
X0273943Y0173226D01*
X0273895Y0173184D01*
X0273846Y0173146D01*
X0273794Y0173111D01*
X0273740Y0173079D01*
X0273684Y0173050D01*
X0273626Y0173025D01*
X0273567Y0173004D01*
X0273507Y0172986D01*
X0273445Y0172973D01*
X0273383Y0172963D01*
X0273321Y0172957D01*
X0273258Y0172955D01*
X0273195Y0172957D01*
X0273133Y0172963D01*
X0273071Y0172973D01*
X0273009Y0172986D01*
X0272949Y0173004D01*
X0272890Y0173025D01*
X0272832Y0173050D01*
X0272776Y0173079D01*
X0272722Y0173111D01*
X0272670Y0173146D01*
X0272621Y0173184D01*
X0272573Y0173226D01*
X0272529Y0173270D01*
X0272487Y0173318D01*
X0272449Y0173367D01*
X0272414Y0173419D01*
X0272382Y0173473D01*
X0272353Y0173529D01*
X0272328Y0173587D01*
X0272307Y0173646D01*
X0272289Y0173706D01*
X0272276Y0173768D01*
X0272266Y0173830D01*
X0272260Y0173892D01*
X0272258Y0173955D01*
X0274435Y0155850D02*
X0274435Y0153881D01*
X0276403Y0153881D01*
X0290970Y0153881D02*
X0293332Y0153881D01*
X0293332Y0155850D01*
X0293332Y0170811D02*
X0293332Y0172779D01*
X0291364Y0172779D01*
X0310204Y0408330D02*
X0310204Y0419263D01*
X0314248Y0419263D01*
X0340665Y0433734D02*
X0344602Y0433734D01*
X0344602Y0440427D02*
X0340665Y0440427D01*
D14*
X0341307Y0441437D02*
X0341307Y0442387D01*
X0341941Y0443021D01*
X0341941Y0443338D01*
X0342883Y0443021D02*
X0343200Y0443338D01*
X0343834Y0443338D01*
X0344151Y0443021D01*
X0344151Y0442704D01*
X0343834Y0442387D01*
X0344151Y0442070D01*
X0344151Y0441753D01*
X0343834Y0441437D01*
X0343200Y0441437D01*
X0342883Y0441753D01*
X0343517Y0442387D02*
X0343834Y0442387D01*
X0341307Y0442387D02*
X0340673Y0443021D01*
X0340673Y0443338D01*
X0336334Y0440033D02*
X0336334Y0434127D01*
X0348933Y0434127D01*
X0348933Y0440033D01*
X0336334Y0440033D01*
X0282486Y0458176D02*
X0279484Y0458176D01*
X0281735Y0460428D01*
X0281735Y0455924D01*
X0277882Y0455924D02*
X0274880Y0455924D01*
X0277882Y0458927D01*
X0277882Y0459677D01*
X0277131Y0460428D01*
X0275630Y0460428D01*
X0274880Y0459677D01*
X0273278Y0455174D02*
X0270276Y0455174D01*
X0268674Y0456675D02*
X0268674Y0459677D01*
X0267924Y0460428D01*
X0265672Y0460428D01*
X0265672Y0455924D01*
X0267924Y0455924D01*
X0268674Y0456675D01*
X0264070Y0455924D02*
X0261068Y0455924D01*
X0261068Y0460428D01*
X0264070Y0460428D01*
X0262569Y0458176D02*
X0261068Y0458176D01*
X0259466Y0455924D02*
X0256464Y0455924D01*
X0256464Y0460428D01*
X0246738Y0402193D02*
X0245236Y0402193D01*
X0244486Y0401442D01*
X0246738Y0402193D02*
X0247488Y0401442D01*
X0247488Y0400691D01*
X0244486Y0397689D01*
X0247488Y0397689D01*
X0242884Y0397689D02*
X0239882Y0397689D01*
X0241383Y0397689D02*
X0241383Y0402193D01*
X0239882Y0400691D01*
X0238280Y0396938D02*
X0235278Y0396938D01*
X0233676Y0398439D02*
X0232926Y0397689D01*
X0230674Y0397689D01*
X0230674Y0402193D01*
X0232926Y0402193D01*
X0233676Y0401442D01*
X0233676Y0398439D01*
X0229073Y0397689D02*
X0226070Y0397689D01*
X0226070Y0402193D01*
X0229073Y0402193D01*
X0227571Y0399941D02*
X0226070Y0399941D01*
X0224469Y0397689D02*
X0221466Y0397689D01*
X0221466Y0402193D01*
X0169789Y0374236D02*
X0169789Y0362425D01*
X0157978Y0362425D01*
X0157978Y0374236D01*
X0169789Y0374236D01*
X0155909Y0374336D02*
X0155911Y0374375D01*
X0155917Y0374414D01*
X0155927Y0374452D01*
X0155940Y0374489D01*
X0155957Y0374524D01*
X0155977Y0374558D01*
X0156001Y0374589D01*
X0156028Y0374618D01*
X0156057Y0374644D01*
X0156089Y0374667D01*
X0156123Y0374687D01*
X0156159Y0374703D01*
X0156196Y0374715D01*
X0156235Y0374724D01*
X0156274Y0374729D01*
X0156313Y0374730D01*
X0156352Y0374727D01*
X0156391Y0374720D01*
X0156428Y0374709D01*
X0156465Y0374695D01*
X0156500Y0374677D01*
X0156533Y0374656D01*
X0156564Y0374631D01*
X0156592Y0374604D01*
X0156617Y0374574D01*
X0156639Y0374541D01*
X0156658Y0374507D01*
X0156673Y0374471D01*
X0156685Y0374433D01*
X0156693Y0374395D01*
X0156697Y0374356D01*
X0156697Y0374316D01*
X0156693Y0374277D01*
X0156685Y0374239D01*
X0156673Y0374201D01*
X0156658Y0374165D01*
X0156639Y0374131D01*
X0156617Y0374098D01*
X0156592Y0374068D01*
X0156564Y0374041D01*
X0156533Y0374016D01*
X0156500Y0373995D01*
X0156465Y0373977D01*
X0156428Y0373963D01*
X0156391Y0373952D01*
X0156352Y0373945D01*
X0156313Y0373942D01*
X0156274Y0373943D01*
X0156235Y0373948D01*
X0156196Y0373957D01*
X0156159Y0373969D01*
X0156123Y0373985D01*
X0156089Y0374005D01*
X0156057Y0374028D01*
X0156028Y0374054D01*
X0156001Y0374083D01*
X0155977Y0374114D01*
X0155957Y0374148D01*
X0155940Y0374183D01*
X0155927Y0374220D01*
X0155917Y0374258D01*
X0155911Y0374297D01*
X0155909Y0374336D01*
X0124622Y0323232D02*
X0123988Y0322598D01*
X0124622Y0323232D02*
X0124622Y0321330D01*
X0123988Y0321330D02*
X0125256Y0321330D01*
X0123046Y0321647D02*
X0122729Y0321330D01*
X0122095Y0321330D01*
X0121778Y0321647D01*
X0122095Y0322281D02*
X0122729Y0322281D01*
X0123046Y0321964D01*
X0123046Y0321647D01*
X0122095Y0322281D02*
X0121778Y0322598D01*
X0121778Y0322915D01*
X0122095Y0323232D01*
X0122729Y0323232D01*
X0123046Y0322915D01*
X0120836Y0321330D02*
X0119569Y0321330D01*
X0119569Y0323232D01*
X0130819Y0264232D02*
X0131769Y0264232D01*
X0132086Y0263915D01*
X0132086Y0263598D01*
X0131769Y0263281D01*
X0130819Y0263281D01*
X0131769Y0263281D02*
X0132086Y0262964D01*
X0132086Y0262647D01*
X0131769Y0262330D01*
X0130819Y0262330D01*
X0130819Y0264232D01*
X0133028Y0264232D02*
X0134296Y0264232D01*
X0133662Y0264232D02*
X0133662Y0262330D01*
X0135238Y0262330D02*
X0136506Y0262330D01*
X0135872Y0262330D02*
X0135872Y0264232D01*
X0135238Y0263598D01*
X0094907Y0219344D02*
X0094919Y0220310D01*
X0094954Y0221276D01*
X0095014Y0222240D01*
X0095097Y0223203D01*
X0095203Y0224163D01*
X0095333Y0225121D01*
X0095487Y0226075D01*
X0095663Y0227025D01*
X0095864Y0227970D01*
X0096087Y0228910D01*
X0096333Y0229844D01*
X0096602Y0230773D01*
X0096894Y0231694D01*
X0097208Y0232607D01*
X0097545Y0233513D01*
X0097904Y0234410D01*
X0098285Y0235298D01*
X0098687Y0236177D01*
X0099111Y0237045D01*
X0099556Y0237903D01*
X0100022Y0238749D01*
X0100508Y0239584D01*
X0101015Y0240407D01*
X0101542Y0241217D01*
X0102089Y0242014D01*
X0102655Y0242797D01*
X0103240Y0243566D01*
X0103844Y0244320D01*
X0104466Y0245059D01*
X0105106Y0245783D01*
X0105763Y0246491D01*
X0106438Y0247183D01*
X0107130Y0247858D01*
X0107838Y0248515D01*
X0108562Y0249155D01*
X0109301Y0249777D01*
X0110055Y0250381D01*
X0110824Y0250966D01*
X0111607Y0251532D01*
X0112404Y0252079D01*
X0113214Y0252606D01*
X0114037Y0253113D01*
X0114872Y0253599D01*
X0115718Y0254065D01*
X0116576Y0254510D01*
X0117444Y0254934D01*
X0118323Y0255336D01*
X0119211Y0255717D01*
X0120108Y0256076D01*
X0121014Y0256413D01*
X0121927Y0256727D01*
X0122848Y0257019D01*
X0123777Y0257288D01*
X0124711Y0257534D01*
X0125651Y0257757D01*
X0126596Y0257958D01*
X0127546Y0258134D01*
X0128500Y0258288D01*
X0129458Y0258418D01*
X0130418Y0258524D01*
X0131381Y0258607D01*
X0132345Y0258667D01*
X0133311Y0258702D01*
X0134277Y0258714D01*
X0135243Y0258702D01*
X0136209Y0258667D01*
X0137173Y0258607D01*
X0138136Y0258524D01*
X0139096Y0258418D01*
X0140054Y0258288D01*
X0141008Y0258134D01*
X0141958Y0257958D01*
X0142903Y0257757D01*
X0143843Y0257534D01*
X0144777Y0257288D01*
X0145706Y0257019D01*
X0146627Y0256727D01*
X0147540Y0256413D01*
X0148446Y0256076D01*
X0149343Y0255717D01*
X0150231Y0255336D01*
X0151110Y0254934D01*
X0151978Y0254510D01*
X0152836Y0254065D01*
X0153682Y0253599D01*
X0154517Y0253113D01*
X0155340Y0252606D01*
X0156150Y0252079D01*
X0156947Y0251532D01*
X0157730Y0250966D01*
X0158499Y0250381D01*
X0159253Y0249777D01*
X0159992Y0249155D01*
X0160716Y0248515D01*
X0161424Y0247858D01*
X0162116Y0247183D01*
X0162791Y0246491D01*
X0163448Y0245783D01*
X0164088Y0245059D01*
X0164710Y0244320D01*
X0165314Y0243566D01*
X0165899Y0242797D01*
X0166465Y0242014D01*
X0167012Y0241217D01*
X0167539Y0240407D01*
X0168046Y0239584D01*
X0168532Y0238749D01*
X0168998Y0237903D01*
X0169443Y0237045D01*
X0169867Y0236177D01*
X0170269Y0235298D01*
X0170650Y0234410D01*
X0171009Y0233513D01*
X0171346Y0232607D01*
X0171660Y0231694D01*
X0171952Y0230773D01*
X0172221Y0229844D01*
X0172467Y0228910D01*
X0172690Y0227970D01*
X0172891Y0227025D01*
X0173067Y0226075D01*
X0173221Y0225121D01*
X0173351Y0224163D01*
X0173457Y0223203D01*
X0173540Y0222240D01*
X0173600Y0221276D01*
X0173635Y0220310D01*
X0173647Y0219344D01*
X0173635Y0218378D01*
X0173600Y0217412D01*
X0173540Y0216448D01*
X0173457Y0215485D01*
X0173351Y0214525D01*
X0173221Y0213567D01*
X0173067Y0212613D01*
X0172891Y0211663D01*
X0172690Y0210718D01*
X0172467Y0209778D01*
X0172221Y0208844D01*
X0171952Y0207915D01*
X0171660Y0206994D01*
X0171346Y0206081D01*
X0171009Y0205175D01*
X0170650Y0204278D01*
X0170269Y0203390D01*
X0169867Y0202511D01*
X0169443Y0201643D01*
X0168998Y0200785D01*
X0168532Y0199939D01*
X0168046Y0199104D01*
X0167539Y0198281D01*
X0167012Y0197471D01*
X0166465Y0196674D01*
X0165899Y0195891D01*
X0165314Y0195122D01*
X0164710Y0194368D01*
X0164088Y0193629D01*
X0163448Y0192905D01*
X0162791Y0192197D01*
X0162116Y0191505D01*
X0161424Y0190830D01*
X0160716Y0190173D01*
X0159992Y0189533D01*
X0159253Y0188911D01*
X0158499Y0188307D01*
X0157730Y0187722D01*
X0156947Y0187156D01*
X0156150Y0186609D01*
X0155340Y0186082D01*
X0154517Y0185575D01*
X0153682Y0185089D01*
X0152836Y0184623D01*
X0151978Y0184178D01*
X0151110Y0183754D01*
X0150231Y0183352D01*
X0149343Y0182971D01*
X0148446Y0182612D01*
X0147540Y0182275D01*
X0146627Y0181961D01*
X0145706Y0181669D01*
X0144777Y0181400D01*
X0143843Y0181154D01*
X0142903Y0180931D01*
X0141958Y0180730D01*
X0141008Y0180554D01*
X0140054Y0180400D01*
X0139096Y0180270D01*
X0138136Y0180164D01*
X0137173Y0180081D01*
X0136209Y0180021D01*
X0135243Y0179986D01*
X0134277Y0179974D01*
X0133311Y0179986D01*
X0132345Y0180021D01*
X0131381Y0180081D01*
X0130418Y0180164D01*
X0129458Y0180270D01*
X0128500Y0180400D01*
X0127546Y0180554D01*
X0126596Y0180730D01*
X0125651Y0180931D01*
X0124711Y0181154D01*
X0123777Y0181400D01*
X0122848Y0181669D01*
X0121927Y0181961D01*
X0121014Y0182275D01*
X0120108Y0182612D01*
X0119211Y0182971D01*
X0118323Y0183352D01*
X0117444Y0183754D01*
X0116576Y0184178D01*
X0115718Y0184623D01*
X0114872Y0185089D01*
X0114037Y0185575D01*
X0113214Y0186082D01*
X0112404Y0186609D01*
X0111607Y0187156D01*
X0110824Y0187722D01*
X0110055Y0188307D01*
X0109301Y0188911D01*
X0108562Y0189533D01*
X0107838Y0190173D01*
X0107130Y0190830D01*
X0106438Y0191505D01*
X0105763Y0192197D01*
X0105106Y0192905D01*
X0104466Y0193629D01*
X0103844Y0194368D01*
X0103240Y0195122D01*
X0102655Y0195891D01*
X0102089Y0196674D01*
X0101542Y0197471D01*
X0101015Y0198281D01*
X0100508Y0199104D01*
X0100022Y0199939D01*
X0099556Y0200785D01*
X0099111Y0201643D01*
X0098687Y0202511D01*
X0098285Y0203390D01*
X0097904Y0204278D01*
X0097545Y0205175D01*
X0097208Y0206081D01*
X0096894Y0206994D01*
X0096602Y0207915D01*
X0096333Y0208844D01*
X0096087Y0209778D01*
X0095864Y0210718D01*
X0095663Y0211663D01*
X0095487Y0212613D01*
X0095333Y0213567D01*
X0095203Y0214525D01*
X0095097Y0215485D01*
X0095014Y0216448D01*
X0094954Y0217412D01*
X0094919Y0218378D01*
X0094907Y0219344D01*
X0139365Y0144524D02*
X0139365Y0140020D01*
X0142367Y0140020D01*
X0143969Y0140020D02*
X0145470Y0140020D01*
X0144719Y0140020D02*
X0144719Y0144524D01*
X0143969Y0144524D02*
X0145470Y0144524D01*
X0147038Y0143774D02*
X0147038Y0140771D01*
X0147789Y0140020D01*
X0149290Y0140020D01*
X0150041Y0140771D01*
X0150041Y0142272D01*
X0148539Y0142272D01*
X0147038Y0143774D02*
X0147789Y0144524D01*
X0149290Y0144524D01*
X0150041Y0143774D01*
X0151642Y0144524D02*
X0151642Y0140020D01*
X0151642Y0142272D02*
X0154645Y0142272D01*
X0154645Y0144524D02*
X0154645Y0140020D01*
X0157747Y0140020D02*
X0157747Y0144524D01*
X0156246Y0144524D02*
X0159248Y0144524D01*
X0160850Y0139270D02*
X0163852Y0139270D01*
X0165454Y0140020D02*
X0167706Y0140020D01*
X0168456Y0140771D01*
X0168456Y0143774D01*
X0167706Y0144524D01*
X0165454Y0144524D01*
X0165454Y0140020D01*
X0170058Y0140020D02*
X0170058Y0144524D01*
X0172310Y0144524D01*
X0173060Y0143774D01*
X0173060Y0142272D01*
X0172310Y0141522D01*
X0170058Y0141522D01*
X0171559Y0141522D02*
X0173060Y0140020D01*
X0266280Y0239430D02*
X0266597Y0239430D01*
X0266914Y0239747D01*
X0266914Y0241332D01*
X0266597Y0241332D02*
X0267231Y0241332D01*
X0268173Y0240698D02*
X0268807Y0241332D01*
X0268807Y0239430D01*
X0268173Y0239430D02*
X0269441Y0239430D01*
X0266280Y0239430D02*
X0265964Y0239747D01*
X0318883Y0253330D02*
X0318883Y0189551D01*
X0386265Y0189551D01*
X0386265Y0253330D01*
X0318883Y0253330D01*
X0283716Y0300120D02*
X0284033Y0300437D01*
X0284033Y0301071D01*
X0283716Y0301388D01*
X0282132Y0301388D01*
X0282132Y0300120D02*
X0283716Y0300120D01*
X0283083Y0302330D02*
X0283083Y0303598D01*
X0284033Y0303281D02*
X0282132Y0303281D01*
X0283083Y0302330D01*
X0282977Y0177982D02*
X0282660Y0177665D01*
X0282660Y0176397D01*
X0282977Y0176080D01*
X0283611Y0176080D01*
X0283928Y0176397D01*
X0284870Y0176080D02*
X0286138Y0176080D01*
X0285504Y0176080D02*
X0285504Y0177982D01*
X0284870Y0177348D01*
X0283928Y0177665D02*
X0283611Y0177982D01*
X0282977Y0177982D01*
X0281821Y0177982D02*
X0281187Y0177982D01*
X0281504Y0177982D02*
X0281504Y0176080D01*
X0281187Y0176080D02*
X0281821Y0176080D01*
D15*
X0266383Y0155830D03*
X0266383Y0150830D03*
X0253883Y0138330D03*
X0253883Y0133330D03*
X0235133Y0213330D03*
X0235133Y0218330D03*
X0288883Y0284580D03*
X0288883Y0289580D03*
X0352633Y0279580D03*
X0352633Y0274580D03*
X0365133Y0283330D03*
X0365133Y0288330D03*
X0380133Y0288330D03*
X0380133Y0283330D03*
X0371383Y0273330D03*
X0371383Y0268330D03*
X0371383Y0327080D03*
X0371383Y0332080D03*
X0380133Y0332080D03*
X0380133Y0327080D03*
X0355133Y0327080D03*
X0355133Y0332080D03*
X0336383Y0164580D03*
X0336383Y0159580D03*
X0341383Y0129580D03*
X0341383Y0124580D03*
X0132633Y0128330D03*
X0132633Y0133330D03*
X0122633Y0133330D03*
X0122633Y0128330D03*
X0132633Y0143330D03*
X0132633Y0148330D03*
X0128883Y0385830D03*
X0128883Y0390830D03*
D16*
X0122433Y0390436D02*
X0117829Y0390436D01*
X0120131Y0388134D01*
X0120131Y0391203D01*
X0120131Y0392738D02*
X0119364Y0394273D01*
X0119364Y0395040D01*
X0120131Y0395807D01*
X0121666Y0395807D01*
X0122433Y0395040D01*
X0122433Y0393505D01*
X0121666Y0392738D01*
X0120131Y0392738D02*
X0117829Y0392738D01*
X0117829Y0395807D01*
X0118597Y0386599D02*
X0120131Y0386599D01*
X0120899Y0385832D01*
X0120899Y0383530D01*
X0122433Y0383530D02*
X0117829Y0383530D01*
X0117829Y0385832D01*
X0118597Y0386599D01*
X0120899Y0385065D02*
X0122433Y0386599D01*
X0138529Y0385958D02*
X0144238Y0385958D01*
X0144238Y0383202D02*
X0138529Y0383202D01*
X0138529Y0378458D02*
X0144238Y0378458D01*
X0144238Y0375702D02*
X0138529Y0375702D01*
X0138529Y0370958D02*
X0144238Y0370958D01*
X0144238Y0368202D02*
X0138529Y0368202D01*
X0150333Y0393530D02*
X0150333Y0398134D01*
X0152635Y0398134D01*
X0153403Y0397367D01*
X0153403Y0395832D01*
X0152635Y0395065D01*
X0150333Y0395065D01*
X0151868Y0395065D02*
X0153403Y0393530D01*
X0154937Y0395832D02*
X0157239Y0398134D01*
X0157239Y0393530D01*
X0158007Y0395832D02*
X0154937Y0395832D01*
X0159541Y0395832D02*
X0161843Y0395832D01*
X0162610Y0395065D01*
X0162610Y0394298D01*
X0161843Y0393530D01*
X0160308Y0393530D01*
X0159541Y0394298D01*
X0159541Y0395832D01*
X0161076Y0397367D01*
X0162610Y0398134D01*
X0232368Y0415006D02*
X0233135Y0414239D01*
X0234670Y0414239D01*
X0235437Y0415006D01*
X0236972Y0414239D02*
X0240041Y0414239D01*
X0238507Y0414239D02*
X0238507Y0418843D01*
X0236972Y0417308D01*
X0235437Y0418075D02*
X0234670Y0418843D01*
X0233135Y0418843D01*
X0232368Y0418075D01*
X0232368Y0415006D01*
X0241576Y0415006D02*
X0242343Y0414239D01*
X0243878Y0414239D01*
X0244645Y0415006D01*
X0244645Y0416541D01*
X0243878Y0417308D01*
X0243110Y0417308D01*
X0241576Y0416541D01*
X0241576Y0418843D01*
X0244645Y0418843D01*
X0270864Y0399049D02*
X0273934Y0399049D01*
X0275468Y0399049D02*
X0277770Y0399049D01*
X0278538Y0398282D01*
X0278538Y0396747D01*
X0277770Y0395980D01*
X0275468Y0395980D01*
X0275468Y0394445D02*
X0275468Y0399049D01*
X0272399Y0399049D02*
X0272399Y0394445D01*
X0277114Y0392799D02*
X0280184Y0392799D01*
X0281718Y0392799D02*
X0284020Y0392799D01*
X0284788Y0392032D01*
X0284788Y0390497D01*
X0284020Y0389730D01*
X0281718Y0389730D01*
X0281718Y0388195D02*
X0281718Y0392799D01*
X0281607Y0394445D02*
X0281607Y0399049D01*
X0280072Y0397514D01*
X0280072Y0394445D02*
X0283142Y0394445D01*
X0284676Y0395212D02*
X0284676Y0395980D01*
X0285444Y0396747D01*
X0286978Y0396747D01*
X0287745Y0395980D01*
X0287745Y0395212D01*
X0286978Y0394445D01*
X0285444Y0394445D01*
X0284676Y0395212D01*
X0285444Y0396747D02*
X0284676Y0397514D01*
X0284676Y0398282D01*
X0285444Y0399049D01*
X0286978Y0399049D01*
X0287745Y0398282D01*
X0287745Y0397514D01*
X0286978Y0396747D01*
X0287572Y0400695D02*
X0290642Y0400695D01*
X0292176Y0400695D02*
X0295245Y0403764D01*
X0295245Y0404532D01*
X0294478Y0405299D01*
X0292944Y0405299D01*
X0292176Y0404532D01*
X0289107Y0405299D02*
X0289107Y0400695D01*
X0292176Y0400695D02*
X0295245Y0400695D01*
X0289107Y0405299D02*
X0287572Y0403764D01*
X0286038Y0402997D02*
X0285270Y0402230D01*
X0282968Y0402230D01*
X0282968Y0400695D02*
X0282968Y0405299D01*
X0285270Y0405299D01*
X0286038Y0404532D01*
X0286038Y0402997D01*
X0281434Y0405299D02*
X0278364Y0405299D01*
X0279899Y0405299D02*
X0279899Y0400695D01*
X0278649Y0392799D02*
X0278649Y0388195D01*
X0277770Y0386549D02*
X0278538Y0385782D01*
X0278538Y0384247D01*
X0277770Y0383480D01*
X0275468Y0383480D01*
X0275468Y0381945D02*
X0275468Y0386549D01*
X0277770Y0386549D01*
X0280072Y0385782D02*
X0280840Y0386549D01*
X0282374Y0386549D01*
X0283142Y0385782D01*
X0283142Y0385014D01*
X0280072Y0381945D01*
X0283142Y0381945D01*
X0284676Y0382712D02*
X0287745Y0385782D01*
X0287745Y0382712D01*
X0286978Y0381945D01*
X0285444Y0381945D01*
X0284676Y0382712D01*
X0284676Y0385782D01*
X0285444Y0386549D01*
X0286978Y0386549D01*
X0287745Y0385782D01*
X0287857Y0388195D02*
X0287857Y0392799D01*
X0286322Y0391264D01*
X0286322Y0388195D02*
X0289392Y0388195D01*
X0290926Y0388962D02*
X0291694Y0388195D01*
X0293228Y0388195D01*
X0293995Y0388962D01*
X0293995Y0392032D01*
X0293228Y0392799D01*
X0291694Y0392799D01*
X0290926Y0392032D01*
X0290926Y0391264D01*
X0291694Y0390497D01*
X0293995Y0390497D01*
X0292461Y0380299D02*
X0292461Y0375695D01*
X0293995Y0375695D02*
X0290926Y0375695D01*
X0289392Y0375695D02*
X0286322Y0375695D01*
X0289392Y0378764D01*
X0289392Y0379532D01*
X0288624Y0380299D01*
X0287090Y0380299D01*
X0286322Y0379532D01*
X0284788Y0379532D02*
X0284788Y0377997D01*
X0284020Y0377230D01*
X0281718Y0377230D01*
X0281718Y0375695D02*
X0281718Y0380299D01*
X0284020Y0380299D01*
X0284788Y0379532D01*
X0280184Y0380299D02*
X0277114Y0380299D01*
X0278649Y0380299D02*
X0278649Y0375695D01*
X0277770Y0374049D02*
X0278538Y0373282D01*
X0278538Y0371747D01*
X0277770Y0370980D01*
X0275468Y0370980D01*
X0275468Y0369445D02*
X0275468Y0374049D01*
X0277770Y0374049D01*
X0280072Y0373282D02*
X0280840Y0374049D01*
X0282374Y0374049D01*
X0283142Y0373282D01*
X0283142Y0372514D01*
X0280072Y0369445D01*
X0283142Y0369445D01*
X0284676Y0369445D02*
X0287745Y0372514D01*
X0287745Y0373282D01*
X0286978Y0374049D01*
X0285444Y0374049D01*
X0284676Y0373282D01*
X0284676Y0369445D02*
X0287745Y0369445D01*
X0287090Y0367799D02*
X0286322Y0367032D01*
X0287090Y0367799D02*
X0288624Y0367799D01*
X0289392Y0367032D01*
X0289392Y0366264D01*
X0286322Y0363195D01*
X0289392Y0363195D01*
X0290926Y0363962D02*
X0291694Y0363195D01*
X0293228Y0363195D01*
X0293995Y0363962D01*
X0293995Y0364730D01*
X0293228Y0365497D01*
X0292461Y0365497D01*
X0293228Y0365497D02*
X0293995Y0366264D01*
X0293995Y0367032D01*
X0293228Y0367799D01*
X0291694Y0367799D01*
X0290926Y0367032D01*
X0284788Y0367032D02*
X0284788Y0365497D01*
X0284020Y0364730D01*
X0281718Y0364730D01*
X0281718Y0363195D02*
X0281718Y0367799D01*
X0284020Y0367799D01*
X0284788Y0367032D01*
X0280184Y0367799D02*
X0277114Y0367799D01*
X0278649Y0367799D02*
X0278649Y0363195D01*
X0272399Y0369445D02*
X0272399Y0374049D01*
X0270864Y0374049D02*
X0273934Y0374049D01*
X0272399Y0381945D02*
X0272399Y0386549D01*
X0270864Y0386549D02*
X0273934Y0386549D01*
X0290926Y0378764D02*
X0292461Y0380299D01*
X0297114Y0342799D02*
X0300184Y0342799D01*
X0301718Y0342799D02*
X0304020Y0342799D01*
X0304788Y0342032D01*
X0304788Y0340497D01*
X0304020Y0339730D01*
X0301718Y0339730D01*
X0301718Y0338195D02*
X0301718Y0342799D01*
X0298649Y0342799D02*
X0298649Y0338195D01*
X0297968Y0334049D02*
X0300270Y0334049D01*
X0301038Y0333282D01*
X0301038Y0331747D01*
X0300270Y0330980D01*
X0297968Y0330980D01*
X0297968Y0329445D02*
X0297968Y0334049D01*
X0296434Y0334049D02*
X0293364Y0334049D01*
X0294899Y0334049D02*
X0294899Y0329445D01*
X0302572Y0329445D02*
X0305642Y0332514D01*
X0305642Y0333282D01*
X0304874Y0334049D01*
X0303340Y0334049D01*
X0302572Y0333282D01*
X0302572Y0329445D02*
X0305642Y0329445D01*
X0307176Y0329445D02*
X0307176Y0330212D01*
X0310245Y0333282D01*
X0310245Y0334049D01*
X0307176Y0334049D01*
X0307857Y0338195D02*
X0307857Y0342799D01*
X0306322Y0341264D01*
X0306322Y0338195D02*
X0309392Y0338195D01*
X0310926Y0338195D02*
X0310926Y0338962D01*
X0313995Y0342032D01*
X0313995Y0342799D01*
X0310926Y0342799D01*
X0311520Y0326549D02*
X0309218Y0326549D01*
X0309218Y0321945D01*
X0309218Y0323480D02*
X0311520Y0323480D01*
X0312288Y0324247D01*
X0312288Y0325782D01*
X0311520Y0326549D01*
X0313822Y0325782D02*
X0314590Y0326549D01*
X0316124Y0326549D01*
X0316892Y0325782D01*
X0316892Y0325014D01*
X0313822Y0321945D01*
X0316892Y0321945D01*
X0318426Y0322712D02*
X0319194Y0321945D01*
X0320728Y0321945D01*
X0321495Y0322712D01*
X0321495Y0324247D01*
X0320728Y0325014D01*
X0319961Y0325014D01*
X0318426Y0324247D01*
X0318426Y0326549D01*
X0321495Y0326549D01*
X0320864Y0326549D02*
X0323934Y0326549D01*
X0325468Y0326549D02*
X0327770Y0326549D01*
X0328538Y0325782D01*
X0328538Y0324247D01*
X0327770Y0323480D01*
X0325468Y0323480D01*
X0325468Y0321945D02*
X0325468Y0326549D01*
X0322399Y0326549D02*
X0322399Y0321945D01*
X0330072Y0321945D02*
X0333142Y0325014D01*
X0333142Y0325782D01*
X0332374Y0326549D01*
X0330840Y0326549D01*
X0330072Y0325782D01*
X0330072Y0321945D02*
X0333142Y0321945D01*
X0334676Y0322712D02*
X0335444Y0321945D01*
X0336978Y0321945D01*
X0337745Y0322712D01*
X0337745Y0323480D01*
X0336978Y0324247D01*
X0334676Y0324247D01*
X0334676Y0322712D01*
X0334676Y0324247D02*
X0336211Y0325782D01*
X0337745Y0326549D01*
X0340272Y0321884D02*
X0342573Y0321884D01*
X0343341Y0321117D01*
X0343341Y0319582D01*
X0342573Y0318815D01*
X0340272Y0318815D01*
X0341806Y0318815D02*
X0343341Y0317280D01*
X0344875Y0318048D02*
X0345643Y0317280D01*
X0347177Y0317280D01*
X0347945Y0318048D01*
X0347945Y0319582D01*
X0347177Y0320349D01*
X0346410Y0320349D01*
X0344875Y0319582D01*
X0344875Y0321884D01*
X0347945Y0321884D01*
X0349479Y0320349D02*
X0351014Y0321884D01*
X0351014Y0317280D01*
X0349479Y0317280D02*
X0352549Y0317280D01*
X0340272Y0317280D02*
X0340272Y0321884D01*
X0361579Y0328530D02*
X0361579Y0330832D01*
X0362347Y0331599D01*
X0363881Y0331599D01*
X0364649Y0330832D01*
X0364649Y0328530D01*
X0366183Y0328530D02*
X0361579Y0328530D01*
X0364649Y0330065D02*
X0366183Y0331599D01*
X0365416Y0333134D02*
X0366183Y0333901D01*
X0366183Y0335436D01*
X0365416Y0336203D01*
X0363881Y0336203D01*
X0363114Y0335436D01*
X0363114Y0334669D01*
X0363881Y0333134D01*
X0361579Y0333134D01*
X0361579Y0336203D01*
X0362347Y0337738D02*
X0361579Y0338505D01*
X0361579Y0340040D01*
X0362347Y0340807D01*
X0363114Y0340807D01*
X0366183Y0337738D01*
X0366183Y0340807D01*
X0374847Y0315807D02*
X0375614Y0315807D01*
X0376381Y0315040D01*
X0377149Y0315807D01*
X0377916Y0315807D01*
X0378683Y0315040D01*
X0378683Y0313505D01*
X0377916Y0312738D01*
X0377916Y0311203D02*
X0378683Y0310436D01*
X0378683Y0308901D01*
X0377916Y0308134D01*
X0376381Y0308134D02*
X0375614Y0309669D01*
X0375614Y0310436D01*
X0376381Y0311203D01*
X0377916Y0311203D01*
X0376381Y0308134D02*
X0374079Y0308134D01*
X0374079Y0311203D01*
X0374847Y0312738D02*
X0374079Y0313505D01*
X0374079Y0315040D01*
X0374847Y0315807D01*
X0376381Y0315040D02*
X0376381Y0314273D01*
X0376381Y0306599D02*
X0377149Y0305832D01*
X0377149Y0303530D01*
X0378683Y0303530D02*
X0374079Y0303530D01*
X0374079Y0305832D01*
X0374847Y0306599D01*
X0376381Y0306599D01*
X0377149Y0305065D02*
X0378683Y0306599D01*
X0361183Y0296290D02*
X0360416Y0297057D01*
X0359649Y0297057D01*
X0358881Y0296290D01*
X0358881Y0293988D01*
X0360416Y0293988D01*
X0361183Y0294755D01*
X0361183Y0296290D01*
X0358881Y0293988D02*
X0357347Y0295523D01*
X0356579Y0297057D01*
X0357347Y0292453D02*
X0356579Y0291686D01*
X0356579Y0290151D01*
X0357347Y0289384D01*
X0357347Y0287849D02*
X0358881Y0287849D01*
X0359649Y0287082D01*
X0359649Y0284780D01*
X0361183Y0284780D02*
X0356579Y0284780D01*
X0356579Y0287082D01*
X0357347Y0287849D01*
X0359649Y0286315D02*
X0361183Y0287849D01*
X0361183Y0289384D02*
X0358114Y0292453D01*
X0357347Y0292453D01*
X0361183Y0292453D02*
X0361183Y0289384D01*
X0361646Y0274719D02*
X0359344Y0274719D01*
X0359344Y0270115D01*
X0359344Y0271650D02*
X0361646Y0271650D01*
X0362414Y0272417D01*
X0362414Y0273952D01*
X0361646Y0274719D01*
X0363948Y0273185D02*
X0365483Y0274719D01*
X0365483Y0270115D01*
X0363948Y0270115D02*
X0367018Y0270115D01*
X0374079Y0271228D02*
X0376381Y0268926D01*
X0376381Y0271996D01*
X0378683Y0271228D02*
X0374079Y0271228D01*
X0374079Y0265857D02*
X0378683Y0265857D01*
X0378683Y0264322D02*
X0378683Y0267392D01*
X0380329Y0267590D02*
X0381097Y0266822D01*
X0380329Y0267590D02*
X0380329Y0269124D01*
X0381097Y0269892D01*
X0381864Y0269892D01*
X0384933Y0266822D01*
X0384933Y0269892D01*
X0384166Y0271426D02*
X0384933Y0272194D01*
X0384933Y0273728D01*
X0384166Y0274496D01*
X0382631Y0274496D01*
X0381864Y0273728D01*
X0381864Y0272961D01*
X0382631Y0271426D01*
X0380329Y0271426D01*
X0380329Y0274496D01*
X0381097Y0265288D02*
X0382631Y0265288D01*
X0383399Y0264520D01*
X0383399Y0262218D01*
X0384933Y0262218D02*
X0380329Y0262218D01*
X0380329Y0264520D01*
X0381097Y0265288D01*
X0383399Y0263753D02*
X0384933Y0265288D01*
X0378683Y0262788D02*
X0377149Y0261253D01*
X0377149Y0262020D02*
X0377149Y0259718D01*
X0378683Y0259718D02*
X0374079Y0259718D01*
X0374079Y0262020D01*
X0374847Y0262788D01*
X0376381Y0262788D01*
X0377149Y0262020D01*
X0375614Y0264322D02*
X0374079Y0265857D01*
X0357810Y0274719D02*
X0354740Y0274719D01*
X0356275Y0274719D02*
X0356275Y0270115D01*
X0351892Y0269532D02*
X0351124Y0270299D01*
X0349590Y0270299D01*
X0348822Y0269532D01*
X0347288Y0269532D02*
X0346520Y0270299D01*
X0344218Y0270299D01*
X0344218Y0265695D01*
X0344218Y0267230D02*
X0346520Y0267230D01*
X0347288Y0267997D01*
X0347288Y0269532D01*
X0350357Y0267997D02*
X0351124Y0267997D01*
X0351892Y0267230D01*
X0351892Y0266462D01*
X0351124Y0265695D01*
X0349590Y0265695D01*
X0348822Y0266462D01*
X0351124Y0267997D02*
X0351892Y0268764D01*
X0351892Y0269532D01*
X0347433Y0274780D02*
X0342829Y0274780D01*
X0342829Y0277082D01*
X0343597Y0277849D01*
X0345131Y0277849D01*
X0345899Y0277082D01*
X0345899Y0274780D01*
X0345899Y0276315D02*
X0347433Y0277849D01*
X0346666Y0279384D02*
X0347433Y0280151D01*
X0347433Y0281686D01*
X0346666Y0282453D01*
X0345899Y0282453D01*
X0345131Y0281686D01*
X0345131Y0280919D01*
X0345131Y0281686D02*
X0344364Y0282453D01*
X0343597Y0282453D01*
X0342829Y0281686D01*
X0342829Y0280151D01*
X0343597Y0279384D01*
X0344364Y0283988D02*
X0342829Y0285523D01*
X0347433Y0285523D01*
X0347433Y0287057D02*
X0347433Y0283988D01*
X0342684Y0270299D02*
X0339614Y0270299D01*
X0341149Y0270299D02*
X0341149Y0265695D01*
X0330642Y0262997D02*
X0327572Y0262997D01*
X0329874Y0265299D01*
X0329874Y0260695D01*
X0326038Y0262997D02*
X0325270Y0262230D01*
X0322968Y0262230D01*
X0322968Y0260695D02*
X0322968Y0265299D01*
X0325270Y0265299D01*
X0326038Y0264532D01*
X0326038Y0262997D01*
X0321434Y0265299D02*
X0318364Y0265299D01*
X0319899Y0265299D02*
X0319899Y0260695D01*
X0297433Y0272218D02*
X0292829Y0272218D01*
X0292829Y0274520D01*
X0293597Y0275288D01*
X0295131Y0275288D01*
X0295899Y0274520D01*
X0295899Y0272218D01*
X0295899Y0273753D02*
X0297433Y0275288D01*
X0296666Y0276822D02*
X0297433Y0277590D01*
X0297433Y0279124D01*
X0296666Y0279892D01*
X0295131Y0279892D01*
X0294364Y0279124D01*
X0294364Y0278357D01*
X0295131Y0276822D01*
X0292829Y0276822D01*
X0292829Y0279892D01*
X0295131Y0281426D02*
X0292829Y0283728D01*
X0297433Y0283728D01*
X0295131Y0284496D02*
X0295131Y0281426D01*
X0306149Y0321945D02*
X0306149Y0326549D01*
X0304614Y0326549D02*
X0307684Y0326549D01*
X0285049Y0326884D02*
X0285049Y0326117D01*
X0281979Y0323048D01*
X0281979Y0322280D01*
X0280445Y0322280D02*
X0277375Y0322280D01*
X0275841Y0322280D02*
X0274306Y0323815D01*
X0275073Y0323815D02*
X0272772Y0323815D01*
X0272772Y0322280D02*
X0272772Y0326884D01*
X0275073Y0326884D01*
X0275841Y0326117D01*
X0275841Y0324582D01*
X0275073Y0323815D01*
X0277375Y0325349D02*
X0278910Y0326884D01*
X0278910Y0322280D01*
X0281979Y0326884D02*
X0285049Y0326884D01*
X0252761Y0304935D02*
X0252761Y0299226D01*
X0250005Y0299226D02*
X0250005Y0304935D01*
X0224478Y0276549D02*
X0225245Y0275782D01*
X0225245Y0275014D01*
X0224478Y0274247D01*
X0225245Y0273480D01*
X0225245Y0272712D01*
X0224478Y0271945D01*
X0222944Y0271945D01*
X0222176Y0272712D01*
X0220642Y0271945D02*
X0217572Y0271945D01*
X0219107Y0271945D02*
X0219107Y0276549D01*
X0217572Y0275014D01*
X0216038Y0274247D02*
X0215270Y0273480D01*
X0212968Y0273480D01*
X0212968Y0271945D02*
X0212968Y0276549D01*
X0215270Y0276549D01*
X0216038Y0275782D01*
X0216038Y0274247D01*
X0222176Y0275782D02*
X0222944Y0276549D01*
X0224478Y0276549D01*
X0224478Y0274247D02*
X0223711Y0274247D01*
X0211434Y0276549D02*
X0208364Y0276549D01*
X0209899Y0276549D02*
X0209899Y0271945D01*
X0182145Y0285006D02*
X0181378Y0284239D01*
X0179843Y0284239D01*
X0179076Y0285006D01*
X0177541Y0284239D02*
X0174472Y0284239D01*
X0177541Y0287308D01*
X0177541Y0288075D01*
X0176774Y0288843D01*
X0175239Y0288843D01*
X0174472Y0288075D01*
X0172937Y0288075D02*
X0172170Y0288843D01*
X0170635Y0288843D01*
X0169868Y0288075D01*
X0169868Y0285006D01*
X0170635Y0284239D01*
X0172170Y0284239D01*
X0172937Y0285006D01*
X0179076Y0288075D02*
X0179843Y0288843D01*
X0181378Y0288843D01*
X0182145Y0288075D01*
X0182145Y0287308D01*
X0181378Y0286541D01*
X0182145Y0285773D01*
X0182145Y0285006D01*
X0181378Y0286541D02*
X0180610Y0286541D01*
X0159961Y0280299D02*
X0159961Y0275695D01*
X0161495Y0275695D02*
X0158426Y0275695D01*
X0156892Y0275695D02*
X0153822Y0275695D01*
X0155357Y0275695D02*
X0155357Y0280299D01*
X0153822Y0278764D01*
X0152288Y0277997D02*
X0151520Y0277230D01*
X0149218Y0277230D01*
X0149218Y0275695D02*
X0149218Y0280299D01*
X0151520Y0280299D01*
X0152288Y0279532D01*
X0152288Y0277997D01*
X0147684Y0280299D02*
X0144614Y0280299D01*
X0146149Y0280299D02*
X0146149Y0275695D01*
X0158426Y0278764D02*
X0159961Y0280299D01*
X0133625Y0243442D02*
X0133625Y0240373D01*
X0133625Y0184387D02*
X0133625Y0181318D01*
X0132091Y0182853D02*
X0135160Y0182853D01*
X0125416Y0151996D02*
X0122347Y0151996D01*
X0121579Y0151228D01*
X0121579Y0149694D01*
X0122347Y0148926D01*
X0123114Y0148926D01*
X0123881Y0149694D01*
X0123881Y0151996D01*
X0125416Y0151996D02*
X0126183Y0151228D01*
X0126183Y0149694D01*
X0125416Y0148926D01*
X0126183Y0147392D02*
X0126183Y0144322D01*
X0126183Y0142788D02*
X0124649Y0141253D01*
X0124649Y0142020D02*
X0124649Y0139718D01*
X0126183Y0139718D02*
X0121579Y0139718D01*
X0121579Y0142020D01*
X0122347Y0142788D01*
X0123881Y0142788D01*
X0124649Y0142020D01*
X0123114Y0144322D02*
X0121579Y0145857D01*
X0126183Y0145857D01*
X0115416Y0134496D02*
X0116183Y0133728D01*
X0116183Y0132194D01*
X0115416Y0131426D01*
X0114649Y0131426D01*
X0113881Y0132194D01*
X0113881Y0133728D01*
X0114649Y0134496D01*
X0115416Y0134496D01*
X0113881Y0133728D02*
X0113114Y0134496D01*
X0112347Y0134496D01*
X0111579Y0133728D01*
X0111579Y0132194D01*
X0112347Y0131426D01*
X0113114Y0131426D01*
X0113881Y0132194D01*
X0116183Y0129892D02*
X0116183Y0126822D01*
X0116183Y0125288D02*
X0114649Y0123753D01*
X0114649Y0124520D02*
X0114649Y0122218D01*
X0116183Y0122218D02*
X0111579Y0122218D01*
X0111579Y0124520D01*
X0112347Y0125288D01*
X0113881Y0125288D01*
X0114649Y0124520D01*
X0113114Y0126822D02*
X0111579Y0128357D01*
X0116183Y0128357D01*
X0136579Y0129694D02*
X0136579Y0131228D01*
X0137347Y0131996D01*
X0140416Y0128926D01*
X0141183Y0129694D01*
X0141183Y0131228D01*
X0140416Y0131996D01*
X0137347Y0131996D01*
X0136579Y0129694D02*
X0137347Y0128926D01*
X0140416Y0128926D01*
X0141183Y0127392D02*
X0141183Y0124322D01*
X0138114Y0127392D01*
X0137347Y0127392D01*
X0136579Y0126624D01*
X0136579Y0125090D01*
X0137347Y0124322D01*
X0137347Y0122788D02*
X0136579Y0122020D01*
X0136579Y0119718D01*
X0141183Y0119718D01*
X0139649Y0119718D02*
X0139649Y0122020D01*
X0138881Y0122788D01*
X0137347Y0122788D01*
X0139649Y0121253D02*
X0141183Y0122788D01*
X0171914Y0123096D02*
X0176518Y0123096D01*
X0176518Y0126165D02*
X0171914Y0126165D01*
X0171914Y0128467D01*
X0172682Y0129235D01*
X0174216Y0129235D01*
X0174984Y0128467D01*
X0174984Y0126165D01*
X0171914Y0124631D02*
X0171914Y0121561D01*
X0172682Y0130769D02*
X0171914Y0131536D01*
X0171914Y0133071D01*
X0172682Y0133838D01*
X0173449Y0133838D01*
X0176518Y0130769D01*
X0176518Y0133838D01*
X0175751Y0135373D02*
X0174984Y0135373D01*
X0174216Y0136140D01*
X0174216Y0137675D01*
X0174984Y0138442D01*
X0175751Y0138442D01*
X0176518Y0137675D01*
X0176518Y0136140D01*
X0175751Y0135373D01*
X0174216Y0136140D02*
X0173449Y0135373D01*
X0172682Y0135373D01*
X0171914Y0136140D01*
X0171914Y0137675D01*
X0172682Y0138442D01*
X0173449Y0138442D01*
X0174216Y0137675D01*
X0224079Y0212218D02*
X0224079Y0214520D01*
X0224847Y0215288D01*
X0226381Y0215288D01*
X0227149Y0214520D01*
X0227149Y0212218D01*
X0228683Y0212218D02*
X0224079Y0212218D01*
X0227149Y0213753D02*
X0228683Y0215288D01*
X0228683Y0216822D02*
X0228683Y0219892D01*
X0228683Y0221426D02*
X0228683Y0224496D01*
X0228683Y0222961D02*
X0224079Y0222961D01*
X0225614Y0221426D01*
X0224079Y0218357D02*
X0228683Y0218357D01*
X0225614Y0216822D02*
X0224079Y0218357D01*
X0266125Y0189384D02*
X0266125Y0184780D01*
X0266125Y0186315D02*
X0268427Y0186315D01*
X0269195Y0187082D01*
X0269195Y0188617D01*
X0268427Y0189384D01*
X0266125Y0189384D01*
X0267660Y0186315D02*
X0269195Y0184780D01*
X0270729Y0187082D02*
X0273799Y0187082D01*
X0273031Y0184780D02*
X0273031Y0189384D01*
X0270729Y0187082D01*
X0269875Y0192280D02*
X0269875Y0196884D01*
X0272177Y0196884D01*
X0272945Y0196117D01*
X0272945Y0194582D01*
X0272177Y0193815D01*
X0269875Y0193815D01*
X0271410Y0193815D02*
X0272945Y0192280D01*
X0274479Y0193048D02*
X0275247Y0192280D01*
X0276781Y0192280D01*
X0277549Y0193048D01*
X0277549Y0193815D01*
X0276781Y0194582D01*
X0276014Y0194582D01*
X0276781Y0194582D02*
X0277549Y0195349D01*
X0277549Y0196117D01*
X0276781Y0196884D01*
X0275247Y0196884D01*
X0274479Y0196117D01*
X0293364Y0214049D02*
X0296434Y0214049D01*
X0297968Y0214049D02*
X0300270Y0214049D01*
X0301038Y0213282D01*
X0301038Y0211747D01*
X0300270Y0210980D01*
X0297968Y0210980D01*
X0297968Y0209445D02*
X0297968Y0214049D01*
X0297968Y0215695D02*
X0297968Y0220299D01*
X0300270Y0220299D01*
X0301038Y0219532D01*
X0301038Y0217997D01*
X0300270Y0217230D01*
X0297968Y0217230D01*
X0296434Y0220299D02*
X0293364Y0220299D01*
X0294899Y0220299D02*
X0294899Y0215695D01*
X0294899Y0214049D02*
X0294899Y0209445D01*
X0302572Y0210212D02*
X0303340Y0209445D01*
X0304874Y0209445D01*
X0305642Y0210212D01*
X0305642Y0211747D01*
X0304874Y0212514D01*
X0304107Y0212514D01*
X0302572Y0211747D01*
X0302572Y0214049D01*
X0305642Y0214049D01*
X0304874Y0215695D02*
X0303340Y0215695D01*
X0302572Y0216462D01*
X0302572Y0217230D01*
X0303340Y0217997D01*
X0304874Y0217997D01*
X0305642Y0217230D01*
X0305642Y0216462D01*
X0304874Y0215695D01*
X0304874Y0217997D02*
X0305642Y0218764D01*
X0305642Y0219532D01*
X0304874Y0220299D01*
X0303340Y0220299D01*
X0302572Y0219532D01*
X0302572Y0218764D01*
X0303340Y0217997D01*
X0302572Y0221945D02*
X0302572Y0222712D01*
X0305642Y0225782D01*
X0305642Y0226549D01*
X0302572Y0226549D01*
X0301038Y0225782D02*
X0300270Y0226549D01*
X0297968Y0226549D01*
X0297968Y0221945D01*
X0297968Y0223480D02*
X0300270Y0223480D01*
X0301038Y0224247D01*
X0301038Y0225782D01*
X0296434Y0226549D02*
X0293364Y0226549D01*
X0294899Y0226549D02*
X0294899Y0221945D01*
X0312772Y0175634D02*
X0315073Y0175634D01*
X0315841Y0174867D01*
X0315841Y0173332D01*
X0315073Y0172565D01*
X0312772Y0172565D01*
X0314306Y0172565D02*
X0315841Y0171030D01*
X0317375Y0171798D02*
X0318143Y0171030D01*
X0319677Y0171030D01*
X0320445Y0171798D01*
X0320445Y0172565D01*
X0319677Y0173332D01*
X0318910Y0173332D01*
X0319677Y0173332D02*
X0320445Y0174099D01*
X0320445Y0174867D01*
X0319677Y0175634D01*
X0318143Y0175634D01*
X0317375Y0174867D01*
X0321979Y0174867D02*
X0321979Y0171798D01*
X0325049Y0174867D01*
X0325049Y0171798D01*
X0324281Y0171030D01*
X0322747Y0171030D01*
X0321979Y0171798D01*
X0321979Y0174867D02*
X0322747Y0175634D01*
X0324281Y0175634D01*
X0325049Y0174867D01*
X0312772Y0175634D02*
X0312772Y0171030D01*
X0313403Y0153134D02*
X0310333Y0153134D01*
X0311868Y0153134D02*
X0311868Y0148530D01*
X0314937Y0148530D02*
X0318007Y0151599D01*
X0318007Y0152367D01*
X0317239Y0153134D01*
X0315705Y0153134D01*
X0314937Y0152367D01*
X0314937Y0148530D02*
X0318007Y0148530D01*
X0318031Y0130634D02*
X0316497Y0130634D01*
X0315729Y0129867D01*
X0314195Y0129867D02*
X0314195Y0128332D01*
X0313427Y0127565D01*
X0311125Y0127565D01*
X0311125Y0126030D02*
X0311125Y0130634D01*
X0313427Y0130634D01*
X0314195Y0129867D01*
X0312660Y0127565D02*
X0314195Y0126030D01*
X0315729Y0126030D02*
X0318799Y0129099D01*
X0318799Y0129867D01*
X0318031Y0130634D01*
X0318799Y0126030D02*
X0315729Y0126030D01*
X0300049Y0136798D02*
X0299281Y0136030D01*
X0297747Y0136030D01*
X0296979Y0136798D01*
X0300049Y0139867D01*
X0300049Y0136798D01*
X0300049Y0139867D02*
X0299281Y0140634D01*
X0297747Y0140634D01*
X0296979Y0139867D01*
X0296979Y0136798D01*
X0295445Y0138332D02*
X0292375Y0138332D01*
X0294677Y0140634D01*
X0294677Y0136030D01*
X0290841Y0136030D02*
X0289306Y0137565D01*
X0290073Y0137565D02*
X0287772Y0137565D01*
X0287772Y0136030D02*
X0287772Y0140634D01*
X0290073Y0140634D01*
X0290841Y0139867D01*
X0290841Y0138332D01*
X0290073Y0137565D01*
X0289739Y0128134D02*
X0287437Y0125832D01*
X0290507Y0125832D01*
X0292041Y0124298D02*
X0292808Y0123530D01*
X0294343Y0123530D01*
X0295110Y0124298D01*
X0295110Y0125065D01*
X0294343Y0125832D01*
X0293576Y0125832D01*
X0294343Y0125832D02*
X0295110Y0126599D01*
X0295110Y0127367D01*
X0294343Y0128134D01*
X0292808Y0128134D01*
X0292041Y0127367D01*
X0289739Y0128134D02*
X0289739Y0123530D01*
X0285903Y0123530D02*
X0284368Y0125065D01*
X0285135Y0125065D02*
X0282833Y0125065D01*
X0282833Y0123530D02*
X0282833Y0128134D01*
X0285135Y0128134D01*
X0285903Y0127367D01*
X0285903Y0125832D01*
X0285135Y0125065D01*
X0280110Y0125832D02*
X0277041Y0125832D01*
X0279343Y0128134D01*
X0279343Y0123530D01*
X0275507Y0125832D02*
X0272437Y0125832D01*
X0274739Y0128134D01*
X0274739Y0123530D01*
X0270903Y0123530D02*
X0269368Y0125065D01*
X0270135Y0125065D02*
X0267833Y0125065D01*
X0267833Y0123530D02*
X0267833Y0128134D01*
X0270135Y0128134D01*
X0270903Y0127367D01*
X0270903Y0125832D01*
X0270135Y0125065D01*
X0262433Y0124718D02*
X0257829Y0124718D01*
X0257829Y0127020D01*
X0258597Y0127788D01*
X0260131Y0127788D01*
X0260899Y0127020D01*
X0260899Y0124718D01*
X0260899Y0126253D02*
X0262433Y0127788D01*
X0262433Y0129322D02*
X0259364Y0132392D01*
X0258597Y0132392D01*
X0257829Y0131624D01*
X0257829Y0130090D01*
X0258597Y0129322D01*
X0262433Y0129322D02*
X0262433Y0132392D01*
X0262433Y0133926D02*
X0262433Y0136996D01*
X0262433Y0135461D02*
X0257829Y0135461D01*
X0259364Y0133926D01*
X0259022Y0141030D02*
X0259022Y0145634D01*
X0261323Y0145634D01*
X0262091Y0144867D01*
X0262091Y0143332D01*
X0261323Y0142565D01*
X0259022Y0142565D01*
X0260556Y0142565D02*
X0262091Y0141030D01*
X0263625Y0143332D02*
X0266695Y0143332D01*
X0268229Y0144867D02*
X0268997Y0145634D01*
X0270531Y0145634D01*
X0271299Y0144867D01*
X0271299Y0144099D01*
X0268229Y0141030D01*
X0271299Y0141030D01*
X0265927Y0141030D02*
X0265927Y0145634D01*
X0263625Y0143332D01*
X0339022Y0157280D02*
X0339022Y0161884D01*
X0341323Y0161884D01*
X0342091Y0161117D01*
X0342091Y0159582D01*
X0341323Y0158815D01*
X0339022Y0158815D01*
X0340556Y0158815D02*
X0342091Y0157280D01*
X0343625Y0158048D02*
X0344393Y0157280D01*
X0345927Y0157280D01*
X0346695Y0158048D01*
X0346695Y0159582D01*
X0345927Y0160349D01*
X0345160Y0160349D01*
X0343625Y0159582D01*
X0343625Y0161884D01*
X0346695Y0161884D01*
X0348229Y0161884D02*
X0348229Y0159582D01*
X0349764Y0160349D01*
X0350531Y0160349D01*
X0351299Y0159582D01*
X0351299Y0158048D01*
X0350531Y0157280D01*
X0348997Y0157280D01*
X0348229Y0158048D01*
X0348229Y0161884D02*
X0351299Y0161884D01*
X0358364Y0164049D02*
X0361434Y0164049D01*
X0362968Y0164049D02*
X0365270Y0164049D01*
X0366038Y0163282D01*
X0366038Y0161747D01*
X0365270Y0160980D01*
X0362968Y0160980D01*
X0362968Y0159445D02*
X0362968Y0164049D01*
X0359899Y0164049D02*
X0359899Y0159445D01*
X0367572Y0160212D02*
X0368340Y0159445D01*
X0369874Y0159445D01*
X0370642Y0160212D01*
X0370642Y0163282D01*
X0369874Y0164049D01*
X0368340Y0164049D01*
X0367572Y0163282D01*
X0367572Y0162514D01*
X0368340Y0161747D01*
X0370642Y0161747D01*
X0376149Y0175695D02*
X0376149Y0180299D01*
X0374614Y0180299D02*
X0377684Y0180299D01*
X0379218Y0180299D02*
X0381520Y0180299D01*
X0382288Y0179532D01*
X0382288Y0177997D01*
X0381520Y0177230D01*
X0379218Y0177230D01*
X0379218Y0175695D02*
X0379218Y0180299D01*
X0383822Y0179532D02*
X0384590Y0180299D01*
X0386124Y0180299D01*
X0386892Y0179532D01*
X0386892Y0178764D01*
X0383822Y0175695D01*
X0386892Y0175695D01*
X0367423Y0201618D02*
X0362820Y0201618D01*
X0362820Y0204687D01*
X0363587Y0206222D02*
X0364354Y0206222D01*
X0365122Y0206989D01*
X0365122Y0208524D01*
X0365889Y0209291D01*
X0366656Y0209291D01*
X0367423Y0208524D01*
X0367423Y0206989D01*
X0366656Y0206222D01*
X0367423Y0204687D02*
X0367423Y0201618D01*
X0365122Y0201618D02*
X0365122Y0203152D01*
X0363587Y0206222D02*
X0362820Y0206989D01*
X0362820Y0208524D01*
X0363587Y0209291D01*
X0362820Y0210825D02*
X0362820Y0213127D01*
X0363587Y0213895D01*
X0365122Y0213895D01*
X0365889Y0213127D01*
X0365889Y0210825D01*
X0367423Y0210825D02*
X0362820Y0210825D01*
X0365122Y0215429D02*
X0365122Y0218499D01*
X0364354Y0220033D02*
X0362820Y0221568D01*
X0367423Y0221568D01*
X0367423Y0220033D02*
X0367423Y0223103D01*
X0367423Y0224637D02*
X0364354Y0227707D01*
X0363587Y0227707D01*
X0362820Y0226939D01*
X0362820Y0225405D01*
X0363587Y0224637D01*
X0367423Y0224637D02*
X0367423Y0227707D01*
X0367423Y0229241D02*
X0367423Y0232310D01*
X0365122Y0230776D02*
X0365122Y0229241D01*
X0367423Y0229241D02*
X0362820Y0229241D01*
X0362820Y0232310D01*
X0356054Y0225949D02*
X0356054Y0221345D01*
X0357588Y0221345D02*
X0354519Y0221345D01*
X0352984Y0221345D02*
X0351450Y0222880D01*
X0352217Y0222880D02*
X0349915Y0222880D01*
X0349915Y0221345D02*
X0349915Y0225949D01*
X0352217Y0225949D01*
X0352984Y0225182D01*
X0352984Y0223647D01*
X0352217Y0222880D01*
X0354519Y0224414D02*
X0356054Y0225949D01*
X0348381Y0225949D02*
X0346846Y0225949D01*
X0347613Y0225949D02*
X0347613Y0222112D01*
X0346846Y0221345D01*
X0346079Y0221345D01*
X0345311Y0222112D01*
X0343777Y0222112D02*
X0343009Y0221345D01*
X0341475Y0221345D01*
X0340707Y0222112D01*
X0341475Y0223647D02*
X0343009Y0223647D01*
X0343777Y0222880D01*
X0343777Y0222112D01*
X0341475Y0223647D02*
X0340707Y0224414D01*
X0340707Y0225182D01*
X0341475Y0225949D01*
X0343009Y0225949D01*
X0343777Y0225182D01*
X0343649Y0174049D02*
X0343649Y0169445D01*
X0346718Y0169445D02*
X0346718Y0174049D01*
X0349020Y0174049D01*
X0349788Y0173282D01*
X0349788Y0171747D01*
X0349020Y0170980D01*
X0346718Y0170980D01*
X0345184Y0174049D02*
X0342114Y0174049D01*
X0351322Y0171747D02*
X0353624Y0171747D01*
X0354392Y0170980D01*
X0354392Y0170212D01*
X0353624Y0169445D01*
X0352090Y0169445D01*
X0351322Y0170212D01*
X0351322Y0171747D01*
X0352857Y0173282D01*
X0354392Y0174049D01*
X0350222Y0151884D02*
X0350222Y0147280D01*
X0348687Y0147280D02*
X0351757Y0147280D01*
X0348687Y0150349D02*
X0350222Y0151884D01*
X0347153Y0151884D02*
X0344083Y0151884D01*
X0345618Y0151884D02*
X0345618Y0147280D01*
X0346125Y0129384D02*
X0348427Y0129384D01*
X0349195Y0128617D01*
X0349195Y0127082D01*
X0348427Y0126315D01*
X0346125Y0126315D01*
X0346125Y0124780D02*
X0346125Y0129384D01*
X0347660Y0126315D02*
X0349195Y0124780D01*
X0350729Y0124780D02*
X0353799Y0124780D01*
X0352264Y0124780D02*
X0352264Y0129384D01*
X0350729Y0127849D01*
X0243878Y0344239D02*
X0243878Y0348843D01*
X0241576Y0346541D01*
X0244645Y0346541D01*
X0240041Y0344239D02*
X0236972Y0344239D01*
X0238507Y0344239D02*
X0238507Y0348843D01*
X0236972Y0347308D01*
X0235437Y0348075D02*
X0234670Y0348843D01*
X0233135Y0348843D01*
X0232368Y0348075D01*
X0232368Y0345006D01*
X0233135Y0344239D01*
X0234670Y0344239D01*
X0235437Y0345006D01*
X0296149Y0426945D02*
X0296149Y0431549D01*
X0294614Y0431549D02*
X0297684Y0431549D01*
X0299218Y0431549D02*
X0299218Y0426945D01*
X0299218Y0428480D02*
X0301520Y0428480D01*
X0302288Y0429247D01*
X0302288Y0430782D01*
X0301520Y0431549D01*
X0299218Y0431549D01*
X0303822Y0430014D02*
X0305357Y0431549D01*
X0305357Y0426945D01*
X0303822Y0426945D02*
X0306892Y0426945D01*
X0308426Y0427712D02*
X0311495Y0430782D01*
X0311495Y0427712D01*
X0310728Y0426945D01*
X0309194Y0426945D01*
X0308426Y0427712D01*
X0308426Y0430782D01*
X0309194Y0431549D01*
X0310728Y0431549D01*
X0311495Y0430782D01*
X0312572Y0440695D02*
X0315642Y0443764D01*
X0315642Y0444532D01*
X0314874Y0445299D01*
X0313340Y0445299D01*
X0312572Y0444532D01*
X0311038Y0444532D02*
X0311038Y0442997D01*
X0310270Y0442230D01*
X0307968Y0442230D01*
X0307968Y0440695D02*
X0307968Y0445299D01*
X0310270Y0445299D01*
X0311038Y0444532D01*
X0312572Y0440695D02*
X0315642Y0440695D01*
X0317176Y0442997D02*
X0320245Y0442997D01*
X0319478Y0440695D02*
X0319478Y0445299D01*
X0317176Y0442997D01*
X0306434Y0445299D02*
X0303364Y0445299D01*
X0304899Y0445299D02*
X0304899Y0440695D01*
X0341579Y0456798D02*
X0342347Y0456030D01*
X0345416Y0456030D01*
X0346183Y0456798D01*
X0346183Y0458332D01*
X0345416Y0459099D01*
X0346183Y0460634D02*
X0343114Y0463703D01*
X0342347Y0463703D01*
X0341579Y0462936D01*
X0341579Y0461401D01*
X0342347Y0460634D01*
X0342347Y0459099D02*
X0341579Y0458332D01*
X0341579Y0456798D01*
X0346183Y0460634D02*
X0346183Y0463703D01*
X0345416Y0465238D02*
X0346183Y0466005D01*
X0346183Y0467540D01*
X0345416Y0468307D01*
X0342347Y0468307D01*
X0341579Y0467540D01*
X0341579Y0466005D01*
X0342347Y0465238D01*
X0343114Y0465238D01*
X0343881Y0466005D01*
X0343881Y0468307D01*
X0343164Y0470311D02*
X0343164Y0473381D01*
X0343164Y0474915D02*
X0343164Y0477217D01*
X0343932Y0477985D01*
X0345466Y0477985D01*
X0346234Y0477217D01*
X0346234Y0474915D01*
X0347768Y0474915D02*
X0343164Y0474915D01*
X0343164Y0471846D02*
X0347768Y0471846D01*
X0350664Y0471846D02*
X0355268Y0471846D01*
X0358164Y0471846D02*
X0362768Y0471846D01*
X0362768Y0474915D02*
X0358164Y0474915D01*
X0358164Y0477217D01*
X0358932Y0477985D01*
X0360466Y0477985D01*
X0361234Y0477217D01*
X0361234Y0474915D01*
X0358164Y0473381D02*
X0358164Y0470311D01*
X0355416Y0468307D02*
X0356183Y0467540D01*
X0356183Y0466005D01*
X0355416Y0465238D01*
X0352347Y0468307D01*
X0355416Y0468307D01*
X0355416Y0465238D02*
X0352347Y0465238D01*
X0351579Y0466005D01*
X0351579Y0467540D01*
X0352347Y0468307D01*
X0350664Y0470311D02*
X0350664Y0473381D01*
X0350664Y0474915D02*
X0350664Y0477217D01*
X0351432Y0477985D01*
X0352966Y0477985D01*
X0353734Y0477217D01*
X0353734Y0474915D01*
X0355268Y0474915D02*
X0350664Y0474915D01*
X0352199Y0479519D02*
X0350664Y0481054D01*
X0355268Y0481054D01*
X0355268Y0482588D02*
X0355268Y0479519D01*
X0358164Y0481054D02*
X0362768Y0481054D01*
X0362768Y0482588D02*
X0362768Y0479519D01*
X0359699Y0479519D02*
X0358164Y0481054D01*
X0360466Y0484123D02*
X0360466Y0486425D01*
X0361234Y0487192D01*
X0362001Y0487192D01*
X0362768Y0486425D01*
X0362768Y0484890D01*
X0362001Y0484123D01*
X0360466Y0484123D01*
X0358932Y0485658D01*
X0358164Y0487192D01*
X0355268Y0486425D02*
X0355268Y0484890D01*
X0354501Y0484123D01*
X0352966Y0484123D02*
X0352199Y0485658D01*
X0352199Y0486425D01*
X0352966Y0487192D01*
X0354501Y0487192D01*
X0355268Y0486425D01*
X0352966Y0484123D02*
X0350664Y0484123D01*
X0350664Y0487192D01*
X0347768Y0486425D02*
X0343164Y0486425D01*
X0345466Y0484123D01*
X0345466Y0487192D01*
X0347768Y0482588D02*
X0347768Y0479519D01*
X0347768Y0481054D02*
X0343164Y0481054D01*
X0344699Y0479519D01*
X0352347Y0463703D02*
X0353114Y0463703D01*
X0353881Y0462936D01*
X0354649Y0463703D01*
X0355416Y0463703D01*
X0356183Y0462936D01*
X0356183Y0461401D01*
X0355416Y0460634D01*
X0355416Y0459099D02*
X0356183Y0458332D01*
X0356183Y0456798D01*
X0355416Y0456030D01*
X0352347Y0456030D01*
X0351579Y0456798D01*
X0351579Y0458332D01*
X0352347Y0459099D01*
X0352347Y0460634D02*
X0351579Y0461401D01*
X0351579Y0462936D01*
X0352347Y0463703D01*
X0353881Y0462936D02*
X0353881Y0462169D01*
X0373529Y0442208D02*
X0379238Y0442208D01*
X0379238Y0439452D02*
X0373529Y0439452D01*
X0373529Y0430958D02*
X0379238Y0430958D01*
X0379238Y0428202D02*
X0373529Y0428202D01*
D17*
X0296383Y0315830D03*
X0291383Y0315830D03*
X0288883Y0195830D03*
X0283883Y0195830D03*
X0286383Y0185830D03*
X0291383Y0185830D03*
X0293883Y0145830D03*
X0298883Y0145830D03*
X0283883Y0140830D03*
X0278883Y0140830D03*
X0276383Y0132080D03*
X0271383Y0132080D03*
X0326383Y0129580D03*
X0331383Y0129580D03*
X0328883Y0173330D03*
X0333883Y0173330D03*
X0143883Y0393330D03*
X0138883Y0393330D03*
D18*
X0321383Y0147280D03*
X0317683Y0139380D03*
X0325083Y0139380D03*
X0332683Y0139380D03*
X0340083Y0139380D03*
X0336383Y0147280D03*
D19*
X0265133Y0249580D03*
X0255133Y0249580D03*
X0245133Y0249580D03*
X0235133Y0249580D03*
X0225133Y0249580D03*
X0215133Y0249580D03*
X0159415Y0131320D03*
X0149415Y0131320D03*
X0217766Y0386489D03*
X0227766Y0386489D03*
X0237766Y0386489D03*
X0247766Y0386489D03*
X0247764Y0457224D03*
X0237764Y0457224D03*
X0227764Y0457224D03*
X0217764Y0457224D03*
D20*
X0282708Y0310155D03*
D21*
X0277633Y0315053D03*
X0272633Y0315053D03*
X0267633Y0315053D03*
X0262633Y0315053D03*
X0262633Y0289108D03*
X0267633Y0289108D03*
X0272633Y0289108D03*
X0277633Y0289108D03*
D22*
X0251383Y0299620D03*
X0251383Y0304541D03*
D23*
X0165246Y0366468D02*
X0164246Y0366468D01*
X0164746Y0366968D01*
X0164246Y0366468D02*
X0164746Y0365968D01*
X0163469Y0366066D02*
X0162801Y0367068D01*
X0163469Y0367068D02*
X0162801Y0366066D01*
X0163135Y0368036D02*
X0163135Y0368537D01*
X0163469Y0368871D01*
X0163469Y0369038D01*
X0163135Y0368537D02*
X0162801Y0368871D01*
X0162801Y0369038D01*
X0162802Y0370006D02*
X0163469Y0370006D01*
X0162802Y0370006D02*
X0162802Y0370173D01*
X0163469Y0370840D01*
X0163469Y0371007D01*
X0162802Y0371007D01*
X0164390Y0370511D02*
X0164392Y0370531D01*
X0164398Y0370549D01*
X0164407Y0370567D01*
X0164419Y0370582D01*
X0164434Y0370594D01*
X0164452Y0370603D01*
X0164470Y0370609D01*
X0164490Y0370611D01*
X0164510Y0370609D01*
X0164528Y0370603D01*
X0164546Y0370594D01*
X0164561Y0370582D01*
X0164573Y0370567D01*
X0164582Y0370549D01*
X0164588Y0370531D01*
X0164590Y0370511D01*
X0164588Y0370491D01*
X0164582Y0370473D01*
X0164573Y0370455D01*
X0164561Y0370440D01*
X0164546Y0370428D01*
X0164528Y0370419D01*
X0164510Y0370413D01*
X0164490Y0370411D01*
X0164470Y0370413D01*
X0164452Y0370419D01*
X0164434Y0370428D01*
X0164419Y0370440D01*
X0164407Y0370455D01*
X0164398Y0370473D01*
X0164392Y0370491D01*
X0164390Y0370511D01*
X0163990Y0370511D02*
X0163992Y0370555D01*
X0163998Y0370599D01*
X0164008Y0370642D01*
X0164021Y0370684D01*
X0164038Y0370725D01*
X0164059Y0370764D01*
X0164083Y0370801D01*
X0164110Y0370836D01*
X0164140Y0370868D01*
X0164173Y0370898D01*
X0164209Y0370924D01*
X0164246Y0370948D01*
X0164286Y0370967D01*
X0164327Y0370984D01*
X0164370Y0370996D01*
X0164413Y0371005D01*
X0164457Y0371010D01*
X0164501Y0371011D01*
X0164545Y0371008D01*
X0164589Y0371001D01*
X0164632Y0370990D01*
X0164674Y0370976D01*
X0164714Y0370958D01*
X0164753Y0370936D01*
X0164789Y0370912D01*
X0164823Y0370884D01*
X0164855Y0370853D01*
X0164884Y0370819D01*
X0164910Y0370783D01*
X0164932Y0370745D01*
X0164951Y0370705D01*
X0164966Y0370663D01*
X0164978Y0370621D01*
X0164986Y0370577D01*
X0164990Y0370533D01*
X0164990Y0370489D01*
X0164986Y0370445D01*
X0164978Y0370401D01*
X0164966Y0370359D01*
X0164951Y0370317D01*
X0164932Y0370277D01*
X0164910Y0370239D01*
X0164884Y0370203D01*
X0164855Y0370169D01*
X0164823Y0370138D01*
X0164789Y0370110D01*
X0164753Y0370086D01*
X0164714Y0370064D01*
X0164674Y0370046D01*
X0164632Y0370032D01*
X0164589Y0370021D01*
X0164545Y0370014D01*
X0164501Y0370011D01*
X0164457Y0370012D01*
X0164413Y0370017D01*
X0164370Y0370026D01*
X0164327Y0370038D01*
X0164286Y0370055D01*
X0164246Y0370074D01*
X0164209Y0370098D01*
X0164173Y0370124D01*
X0164140Y0370154D01*
X0164110Y0370186D01*
X0164083Y0370221D01*
X0164059Y0370258D01*
X0164038Y0370297D01*
X0164021Y0370338D01*
X0164008Y0370380D01*
X0163998Y0370423D01*
X0163992Y0370467D01*
X0163990Y0370511D01*
X0164596Y0369011D02*
X0164596Y0368011D01*
X0164096Y0368511D01*
X0164596Y0368011D02*
X0165096Y0368511D01*
X0232221Y0131316D02*
X0232822Y0131316D01*
X0232522Y0131316D02*
X0232522Y0129814D01*
X0232221Y0129514D01*
X0231921Y0129514D01*
X0231621Y0129814D01*
X0233462Y0129814D02*
X0233763Y0129514D01*
X0234363Y0129514D01*
X0234663Y0129814D01*
X0234663Y0130115D01*
X0234363Y0130415D01*
X0234063Y0130415D01*
X0234363Y0130415D02*
X0234663Y0130715D01*
X0234663Y0131016D01*
X0234363Y0131316D01*
X0233763Y0131316D01*
X0233462Y0131016D01*
D24*
X0143844Y0369580D03*
X0138923Y0369580D03*
X0138923Y0377080D03*
X0143844Y0377080D03*
X0143844Y0384580D03*
X0138923Y0384580D03*
X0373923Y0429580D03*
X0378844Y0429580D03*
X0378844Y0440830D03*
X0373923Y0440830D03*
D25*
X0169789Y0374236D02*
X0167203Y0374236D01*
X0169789Y0374236D02*
X0169789Y0373618D01*
X0160564Y0374236D02*
X0157978Y0374236D01*
X0157978Y0373618D01*
X0157978Y0363042D02*
X0157978Y0362425D01*
X0160564Y0362425D01*
X0167203Y0362425D02*
X0169789Y0362425D01*
X0169789Y0363042D01*
D26*
X0163883Y0363737D03*
D27*
X0165853Y0363734D03*
D28*
X0161913Y0363733D03*
D29*
X0163883Y0372926D03*
D30*
X0165852Y0372924D03*
D31*
X0161914Y0372924D03*
D32*
X0159288Y0368330D03*
D33*
X0159289Y0370299D03*
D34*
X0159289Y0372268D03*
D35*
X0159287Y0366360D03*
D36*
X0159287Y0364390D03*
D37*
X0168479Y0368330D03*
D38*
X0168479Y0370300D03*
D39*
X0168476Y0372268D03*
D40*
X0168479Y0366359D03*
D41*
X0168477Y0364392D03*
D42*
X0161154Y0378392D02*
X0161405Y0378642D01*
X0161405Y0378893D01*
X0161154Y0379143D01*
X0160403Y0379143D01*
X0160403Y0378642D01*
X0160653Y0378392D01*
X0161154Y0378392D01*
X0160403Y0379143D02*
X0160904Y0379644D01*
X0161405Y0379895D01*
X0159930Y0379895D02*
X0159930Y0378642D01*
X0159679Y0378392D01*
X0159178Y0378392D01*
X0158928Y0378642D01*
X0158928Y0379895D01*
D43*
X0337652Y0446740D03*
X0337652Y0449940D03*
X0347652Y0449940D03*
X0347652Y0446740D03*
M02*
