G75*
%MOIN*%
%OFA0B0*%
%FSLAX25Y25*%
%IPPOS*%
%LPD*%
%AMOC8*
5,1,8,0,0,1.08239X$1,22.5*
%
%ADD10C,0.13005*%
%ADD11R,0.04934X0.05052*%
%ADD12R,0.05052X0.04934*%
%ADD13R,0.07300X0.04737*%
%ADD14R,0.04737X0.05131*%
%ADD15R,0.03162X0.05524*%
%ADD16R,0.05131X0.04737*%
%ADD17R,0.08400X0.21800*%
%ADD18R,0.04343X0.03556*%
%ADD19C,0.08200*%
%ADD20C,0.00500*%
%ADD21R,0.04737X0.06312*%
%ADD22C,0.06800*%
%ADD23R,0.04737X0.07887*%
%ADD24C,0.00600*%
%ADD25R,0.03950X0.02178*%
%ADD26R,0.05524X0.02965*%
%ADD27R,0.09461X0.07099*%
%ADD28R,0.07887X0.04737*%
%ADD29C,0.07400*%
%ADD30C,0.05156*%
%ADD31C,0.06706*%
D10*
X0097318Y0141952D03*
X0368972Y0141952D03*
X0368972Y0464787D03*
X0097318Y0464787D03*
D11*
X0101688Y0347080D03*
X0108578Y0347080D03*
X0172938Y0274580D03*
X0179828Y0274580D03*
X0224188Y0288330D03*
X0231078Y0288330D03*
X0229188Y0399580D03*
X0236078Y0399580D03*
X0236078Y0468330D03*
X0229188Y0468330D03*
X0337938Y0204580D03*
X0344828Y0204580D03*
X0254828Y0170830D03*
X0247938Y0170830D03*
D12*
X0242633Y0212385D03*
X0242633Y0219275D03*
X0233883Y0219275D03*
X0233883Y0212385D03*
X0223883Y0212385D03*
X0223883Y0219275D03*
X0215133Y0219275D03*
X0215133Y0212385D03*
X0153883Y0210525D03*
X0153883Y0203635D03*
X0188883Y0281135D03*
X0188883Y0288025D03*
X0135133Y0324885D03*
X0135133Y0331775D03*
X0100133Y0332385D03*
X0100133Y0339275D03*
X0335133Y0238025D03*
X0335133Y0231135D03*
X0342633Y0231135D03*
X0342633Y0238025D03*
X0337633Y0220525D03*
X0337633Y0213635D03*
D13*
X0242779Y0297031D03*
X0242779Y0309629D03*
X0222488Y0309629D03*
X0222488Y0297031D03*
D14*
X0144730Y0229580D03*
X0138037Y0229580D03*
X0115980Y0262080D03*
X0109287Y0262080D03*
X0129287Y0315830D03*
X0135980Y0315830D03*
X0125980Y0338330D03*
X0119287Y0338330D03*
X0108480Y0357080D03*
X0101787Y0357080D03*
X0220537Y0163330D03*
X0227230Y0163330D03*
X0236787Y0163330D03*
X0243480Y0163330D03*
X0263037Y0185830D03*
X0269730Y0185830D03*
X0269730Y0195830D03*
X0263037Y0195830D03*
X0343037Y0248330D03*
X0349730Y0248330D03*
X0360537Y0237080D03*
X0367230Y0237080D03*
X0367230Y0227080D03*
X0360537Y0227080D03*
X0332230Y0360830D03*
X0325537Y0360830D03*
X0325537Y0370830D03*
X0332230Y0370830D03*
D15*
X0255133Y0200604D03*
X0250133Y0200604D03*
X0245133Y0200604D03*
X0240133Y0200604D03*
X0235133Y0200604D03*
X0230133Y0200604D03*
X0225133Y0200604D03*
X0220133Y0200604D03*
X0220133Y0178557D03*
X0225133Y0178557D03*
X0230133Y0178557D03*
X0235133Y0178557D03*
X0240133Y0178557D03*
X0245133Y0178557D03*
X0250133Y0178557D03*
X0255133Y0178557D03*
X0143883Y0196057D03*
X0138883Y0196057D03*
X0133883Y0196057D03*
X0128883Y0196057D03*
X0128883Y0218104D03*
X0133883Y0218104D03*
X0138883Y0218104D03*
X0143883Y0218104D03*
D16*
X0110133Y0273734D03*
X0110133Y0280427D03*
X0120133Y0312484D03*
X0120133Y0319177D03*
X0110133Y0319984D03*
X0110133Y0326677D03*
X0110133Y0332484D03*
X0110133Y0339177D03*
X0196383Y0287927D03*
X0196383Y0281234D03*
X0221383Y0279177D03*
X0221383Y0272484D03*
X0222633Y0318734D03*
X0222633Y0325427D03*
X0232633Y0414984D03*
X0232633Y0421677D03*
X0341383Y0365427D03*
X0341383Y0358734D03*
X0346383Y0220427D03*
X0346383Y0213734D03*
X0370133Y0211677D03*
X0370133Y0204984D03*
X0380133Y0204984D03*
X0380133Y0211677D03*
X0236383Y0170427D03*
X0236383Y0163734D03*
X0227633Y0163734D03*
X0227633Y0170427D03*
D17*
X0202633Y0156830D03*
X0202633Y0194830D03*
D18*
X0187633Y0194639D03*
X0187633Y0189521D03*
X0187633Y0162139D03*
X0187633Y0157021D03*
D19*
X0215133Y0245880D02*
X0215133Y0253280D01*
X0225133Y0253280D02*
X0225133Y0245880D01*
X0235133Y0245880D02*
X0235133Y0253280D01*
X0245133Y0253280D02*
X0245133Y0245880D01*
X0255133Y0245880D02*
X0255133Y0253280D01*
X0265133Y0253280D02*
X0265133Y0245880D01*
D20*
X0138877Y0295571D02*
X0138530Y0294937D01*
X0138064Y0294382D01*
X0137500Y0293930D01*
X0136859Y0293596D01*
X0136164Y0293393D01*
X0135443Y0293330D01*
X0134718Y0293392D01*
X0134020Y0293594D01*
X0133374Y0293928D01*
X0132805Y0294382D01*
X0132337Y0294938D01*
X0131985Y0295575D01*
X0131765Y0296268D01*
X0131684Y0296990D01*
X0131733Y0297650D01*
X0131897Y0298291D01*
X0132169Y0298894D01*
X0132542Y0299440D01*
X0133005Y0299914D01*
X0133542Y0300300D01*
X0134138Y0300586D01*
X0134775Y0300765D01*
X0135433Y0300831D01*
X0136092Y0300763D01*
X0136728Y0300583D01*
X0137324Y0300295D01*
X0137860Y0299907D01*
X0138321Y0299433D01*
X0138693Y0298885D01*
X0138963Y0298282D01*
X0139125Y0297640D01*
X0139173Y0296980D01*
X0139095Y0296261D01*
X0138877Y0295571D01*
X0138950Y0295800D02*
X0131913Y0295800D01*
X0131761Y0296299D02*
X0139099Y0296299D01*
X0139153Y0296797D02*
X0131705Y0296797D01*
X0131707Y0297296D02*
X0139150Y0297296D01*
X0139086Y0297794D02*
X0131770Y0297794D01*
X0131898Y0298293D02*
X0138958Y0298293D01*
X0138735Y0298791D02*
X0132123Y0298791D01*
X0132440Y0299290D02*
X0138418Y0299290D01*
X0137976Y0299788D02*
X0132882Y0299788D01*
X0133524Y0300287D02*
X0137334Y0300287D01*
X0135876Y0300785D02*
X0134978Y0300785D01*
X0132136Y0295302D02*
X0138730Y0295302D01*
X0138418Y0294803D02*
X0132450Y0294803D01*
X0132902Y0294305D02*
X0137968Y0294305D01*
X0137263Y0293806D02*
X0133609Y0293806D01*
X0113495Y0296261D02*
X0113277Y0295571D01*
X0112930Y0294937D01*
X0112464Y0294382D01*
X0111900Y0293930D01*
X0111259Y0293596D01*
X0110564Y0293393D01*
X0109843Y0293330D01*
X0109118Y0293392D01*
X0108420Y0293594D01*
X0107774Y0293928D01*
X0107205Y0294382D01*
X0106737Y0294938D01*
X0106385Y0295575D01*
X0106165Y0296268D01*
X0106084Y0296990D01*
X0106133Y0297650D01*
X0106297Y0298291D01*
X0106569Y0298894D01*
X0106942Y0299440D01*
X0107405Y0299914D01*
X0107942Y0300300D01*
X0108538Y0300586D01*
X0109175Y0300765D01*
X0109833Y0300831D01*
X0110492Y0300763D01*
X0111128Y0300583D01*
X0111724Y0300295D01*
X0112260Y0299907D01*
X0112721Y0299433D01*
X0113093Y0298885D01*
X0113363Y0298282D01*
X0113525Y0297640D01*
X0113573Y0296980D01*
X0113495Y0296261D01*
X0113499Y0296299D02*
X0106161Y0296299D01*
X0106105Y0296797D02*
X0113553Y0296797D01*
X0113550Y0297296D02*
X0106107Y0297296D01*
X0106170Y0297794D02*
X0113486Y0297794D01*
X0113358Y0298293D02*
X0106298Y0298293D01*
X0106523Y0298791D02*
X0113135Y0298791D01*
X0112818Y0299290D02*
X0106840Y0299290D01*
X0107282Y0299788D02*
X0112376Y0299788D01*
X0111734Y0300287D02*
X0107924Y0300287D01*
X0109378Y0300785D02*
X0110276Y0300785D01*
X0113350Y0295800D02*
X0106313Y0295800D01*
X0106536Y0295302D02*
X0113130Y0295302D01*
X0112818Y0294803D02*
X0106850Y0294803D01*
X0107302Y0294305D02*
X0112368Y0294305D01*
X0111663Y0293806D02*
X0108009Y0293806D01*
D21*
X0120133Y0281411D03*
X0116393Y0272749D03*
X0123873Y0272749D03*
X0228893Y0272749D03*
X0236373Y0272749D03*
X0232633Y0281411D03*
X0258893Y0212661D03*
X0266373Y0212661D03*
X0262633Y0203999D03*
D22*
X0159415Y0134320D02*
X0159415Y0128320D01*
X0149415Y0128320D02*
X0149415Y0134320D01*
X0217766Y0383489D02*
X0217766Y0389489D01*
X0227766Y0389489D02*
X0227766Y0383489D01*
X0237766Y0383489D02*
X0237766Y0389489D01*
X0247766Y0389489D02*
X0247766Y0383489D01*
X0247764Y0454224D02*
X0247764Y0460224D01*
X0237764Y0460224D02*
X0237764Y0454224D01*
X0227764Y0454224D02*
X0227764Y0460224D01*
X0217764Y0460224D02*
X0217764Y0454224D01*
D23*
X0148805Y0184580D03*
X0138962Y0184580D03*
D24*
X0135186Y0176733D02*
X0134495Y0176918D01*
X0133783Y0176980D01*
X0133090Y0176902D01*
X0132421Y0176705D01*
X0131797Y0176394D01*
X0131236Y0175980D01*
X0130755Y0175475D01*
X0130369Y0174894D01*
X0130090Y0174254D01*
X0129927Y0173576D01*
X0129883Y0172880D01*
X0129944Y0172186D01*
X0130125Y0171512D01*
X0130419Y0170880D01*
X0130819Y0170309D01*
X0131312Y0169816D01*
X0131883Y0169416D01*
X0132515Y0169121D01*
X0133189Y0168941D01*
X0133883Y0168880D01*
X0134578Y0168941D01*
X0135251Y0169121D01*
X0135883Y0169416D01*
X0136454Y0169816D01*
X0136948Y0170309D01*
X0137347Y0170880D01*
X0137642Y0171512D01*
X0137823Y0172186D01*
X0137883Y0172880D01*
X0137821Y0173592D01*
X0137636Y0174282D01*
X0137334Y0174930D01*
X0136924Y0175516D01*
X0136419Y0176021D01*
X0135833Y0176431D01*
X0135186Y0176733D01*
X0135898Y0176386D02*
X0131785Y0176386D01*
X0131052Y0175787D02*
X0136652Y0175787D01*
X0137153Y0175189D02*
X0130565Y0175189D01*
X0130237Y0174590D02*
X0137493Y0174590D01*
X0137714Y0173992D02*
X0130027Y0173992D01*
X0129915Y0173393D02*
X0137838Y0173393D01*
X0137876Y0172795D02*
X0129891Y0172795D01*
X0129943Y0172196D02*
X0137823Y0172196D01*
X0137665Y0171598D02*
X0130102Y0171598D01*
X0130364Y0170999D02*
X0137403Y0170999D01*
X0137012Y0170401D02*
X0130755Y0170401D01*
X0131332Y0169802D02*
X0136435Y0169802D01*
X0135428Y0169204D02*
X0132339Y0169204D01*
X0133883Y0247580D02*
X0133189Y0247641D01*
X0132515Y0247821D01*
X0131883Y0248116D01*
X0131312Y0248516D01*
X0130819Y0249009D01*
X0130419Y0249580D01*
X0130125Y0250212D01*
X0129944Y0250886D01*
X0129883Y0251580D01*
X0129927Y0252276D01*
X0130090Y0252954D01*
X0130369Y0253594D01*
X0137351Y0253594D01*
X0137334Y0253630D02*
X0137636Y0252982D01*
X0137821Y0252292D01*
X0137883Y0251580D01*
X0137823Y0250886D01*
X0137642Y0250212D01*
X0137347Y0249580D01*
X0136948Y0249009D01*
X0136454Y0248516D01*
X0135883Y0248116D01*
X0135251Y0247821D01*
X0134578Y0247641D01*
X0133883Y0247580D01*
X0133558Y0247609D02*
X0134208Y0247609D01*
X0136013Y0248207D02*
X0131753Y0248207D01*
X0131023Y0248806D02*
X0136744Y0248806D01*
X0137224Y0249404D02*
X0130542Y0249404D01*
X0130222Y0250003D02*
X0137544Y0250003D01*
X0137746Y0250601D02*
X0130020Y0250601D01*
X0129917Y0251200D02*
X0137850Y0251200D01*
X0137864Y0251798D02*
X0129897Y0251798D01*
X0129956Y0252397D02*
X0137793Y0252397D01*
X0137630Y0252995D02*
X0130108Y0252995D01*
X0130369Y0253594D02*
X0130755Y0254175D01*
X0131236Y0254680D01*
X0131797Y0255094D01*
X0132421Y0255405D01*
X0133090Y0255602D01*
X0133783Y0255680D01*
X0134495Y0255618D01*
X0135186Y0255433D01*
X0135833Y0255131D01*
X0136419Y0254721D01*
X0136924Y0254216D01*
X0137334Y0253630D01*
X0136940Y0254192D02*
X0130772Y0254192D01*
X0131386Y0254791D02*
X0136319Y0254791D01*
X0135279Y0255389D02*
X0132390Y0255389D01*
D25*
X0125980Y0325771D03*
X0125980Y0330889D03*
X0119287Y0330889D03*
X0119287Y0328330D03*
X0119287Y0325771D03*
D26*
X0171265Y0288320D03*
X0171265Y0280840D03*
X0181502Y0280840D03*
X0181502Y0284580D03*
X0181502Y0288320D03*
D27*
X0158883Y0290092D03*
X0158883Y0279068D03*
D28*
X0202633Y0180751D03*
X0202633Y0170909D03*
D29*
X0283883Y0163330D03*
D30*
X0242664Y0138712D03*
X0223365Y0138895D03*
D31*
X0222183Y0126740D03*
X0243625Y0126872D03*
M02*
