G75*
%MOIN*%
%OFA0B0*%
%FSLAX25Y25*%
%IPPOS*%
%LPD*%
%AMOC8*
5,1,8,0,0,1.08239X$1,22.5*
%
%ADD10C,0.00000*%
D10*
X0077633Y0118330D02*
X0077633Y0488409D01*
X0388657Y0488409D01*
X0388657Y0118330D01*
X0077633Y0118330D01*
X0091216Y0141952D02*
X0091218Y0142108D01*
X0091224Y0142264D01*
X0091234Y0142419D01*
X0091248Y0142574D01*
X0091266Y0142729D01*
X0091288Y0142883D01*
X0091313Y0143037D01*
X0091343Y0143190D01*
X0091377Y0143342D01*
X0091414Y0143494D01*
X0091455Y0143644D01*
X0091500Y0143793D01*
X0091549Y0143941D01*
X0091602Y0144088D01*
X0091658Y0144233D01*
X0091718Y0144377D01*
X0091782Y0144519D01*
X0091850Y0144660D01*
X0091921Y0144798D01*
X0091995Y0144935D01*
X0092073Y0145070D01*
X0092154Y0145203D01*
X0092239Y0145334D01*
X0092327Y0145463D01*
X0092418Y0145589D01*
X0092513Y0145713D01*
X0092610Y0145834D01*
X0092711Y0145953D01*
X0092815Y0146070D01*
X0092921Y0146183D01*
X0093031Y0146294D01*
X0093143Y0146402D01*
X0093258Y0146507D01*
X0093376Y0146610D01*
X0093496Y0146709D01*
X0093619Y0146805D01*
X0093744Y0146898D01*
X0093871Y0146987D01*
X0094001Y0147074D01*
X0094133Y0147157D01*
X0094267Y0147236D01*
X0094403Y0147313D01*
X0094541Y0147385D01*
X0094680Y0147455D01*
X0094822Y0147520D01*
X0094965Y0147582D01*
X0095109Y0147640D01*
X0095255Y0147695D01*
X0095403Y0147746D01*
X0095551Y0147793D01*
X0095701Y0147836D01*
X0095852Y0147875D01*
X0096004Y0147911D01*
X0096156Y0147942D01*
X0096310Y0147970D01*
X0096464Y0147994D01*
X0096618Y0148014D01*
X0096773Y0148030D01*
X0096929Y0148042D01*
X0097084Y0148050D01*
X0097240Y0148054D01*
X0097396Y0148054D01*
X0097552Y0148050D01*
X0097707Y0148042D01*
X0097863Y0148030D01*
X0098018Y0148014D01*
X0098172Y0147994D01*
X0098326Y0147970D01*
X0098480Y0147942D01*
X0098632Y0147911D01*
X0098784Y0147875D01*
X0098935Y0147836D01*
X0099085Y0147793D01*
X0099233Y0147746D01*
X0099381Y0147695D01*
X0099527Y0147640D01*
X0099671Y0147582D01*
X0099814Y0147520D01*
X0099956Y0147455D01*
X0100095Y0147385D01*
X0100233Y0147313D01*
X0100369Y0147236D01*
X0100503Y0147157D01*
X0100635Y0147074D01*
X0100765Y0146987D01*
X0100892Y0146898D01*
X0101017Y0146805D01*
X0101140Y0146709D01*
X0101260Y0146610D01*
X0101378Y0146507D01*
X0101493Y0146402D01*
X0101605Y0146294D01*
X0101715Y0146183D01*
X0101821Y0146070D01*
X0101925Y0145953D01*
X0102026Y0145834D01*
X0102123Y0145713D01*
X0102218Y0145589D01*
X0102309Y0145463D01*
X0102397Y0145334D01*
X0102482Y0145203D01*
X0102563Y0145070D01*
X0102641Y0144935D01*
X0102715Y0144798D01*
X0102786Y0144660D01*
X0102854Y0144519D01*
X0102918Y0144377D01*
X0102978Y0144233D01*
X0103034Y0144088D01*
X0103087Y0143941D01*
X0103136Y0143793D01*
X0103181Y0143644D01*
X0103222Y0143494D01*
X0103259Y0143342D01*
X0103293Y0143190D01*
X0103323Y0143037D01*
X0103348Y0142883D01*
X0103370Y0142729D01*
X0103388Y0142574D01*
X0103402Y0142419D01*
X0103412Y0142264D01*
X0103418Y0142108D01*
X0103420Y0141952D01*
X0103418Y0141796D01*
X0103412Y0141640D01*
X0103402Y0141485D01*
X0103388Y0141330D01*
X0103370Y0141175D01*
X0103348Y0141021D01*
X0103323Y0140867D01*
X0103293Y0140714D01*
X0103259Y0140562D01*
X0103222Y0140410D01*
X0103181Y0140260D01*
X0103136Y0140111D01*
X0103087Y0139963D01*
X0103034Y0139816D01*
X0102978Y0139671D01*
X0102918Y0139527D01*
X0102854Y0139385D01*
X0102786Y0139244D01*
X0102715Y0139106D01*
X0102641Y0138969D01*
X0102563Y0138834D01*
X0102482Y0138701D01*
X0102397Y0138570D01*
X0102309Y0138441D01*
X0102218Y0138315D01*
X0102123Y0138191D01*
X0102026Y0138070D01*
X0101925Y0137951D01*
X0101821Y0137834D01*
X0101715Y0137721D01*
X0101605Y0137610D01*
X0101493Y0137502D01*
X0101378Y0137397D01*
X0101260Y0137294D01*
X0101140Y0137195D01*
X0101017Y0137099D01*
X0100892Y0137006D01*
X0100765Y0136917D01*
X0100635Y0136830D01*
X0100503Y0136747D01*
X0100369Y0136668D01*
X0100233Y0136591D01*
X0100095Y0136519D01*
X0099956Y0136449D01*
X0099814Y0136384D01*
X0099671Y0136322D01*
X0099527Y0136264D01*
X0099381Y0136209D01*
X0099233Y0136158D01*
X0099085Y0136111D01*
X0098935Y0136068D01*
X0098784Y0136029D01*
X0098632Y0135993D01*
X0098480Y0135962D01*
X0098326Y0135934D01*
X0098172Y0135910D01*
X0098018Y0135890D01*
X0097863Y0135874D01*
X0097707Y0135862D01*
X0097552Y0135854D01*
X0097396Y0135850D01*
X0097240Y0135850D01*
X0097084Y0135854D01*
X0096929Y0135862D01*
X0096773Y0135874D01*
X0096618Y0135890D01*
X0096464Y0135910D01*
X0096310Y0135934D01*
X0096156Y0135962D01*
X0096004Y0135993D01*
X0095852Y0136029D01*
X0095701Y0136068D01*
X0095551Y0136111D01*
X0095403Y0136158D01*
X0095255Y0136209D01*
X0095109Y0136264D01*
X0094965Y0136322D01*
X0094822Y0136384D01*
X0094680Y0136449D01*
X0094541Y0136519D01*
X0094403Y0136591D01*
X0094267Y0136668D01*
X0094133Y0136747D01*
X0094001Y0136830D01*
X0093871Y0136917D01*
X0093744Y0137006D01*
X0093619Y0137099D01*
X0093496Y0137195D01*
X0093376Y0137294D01*
X0093258Y0137397D01*
X0093143Y0137502D01*
X0093031Y0137610D01*
X0092921Y0137721D01*
X0092815Y0137834D01*
X0092711Y0137951D01*
X0092610Y0138070D01*
X0092513Y0138191D01*
X0092418Y0138315D01*
X0092327Y0138441D01*
X0092239Y0138570D01*
X0092154Y0138701D01*
X0092073Y0138834D01*
X0091995Y0138969D01*
X0091921Y0139106D01*
X0091850Y0139244D01*
X0091782Y0139385D01*
X0091718Y0139527D01*
X0091658Y0139671D01*
X0091602Y0139816D01*
X0091549Y0139963D01*
X0091500Y0140111D01*
X0091455Y0140260D01*
X0091414Y0140410D01*
X0091377Y0140562D01*
X0091343Y0140714D01*
X0091313Y0140867D01*
X0091288Y0141021D01*
X0091266Y0141175D01*
X0091248Y0141330D01*
X0091234Y0141485D01*
X0091224Y0141640D01*
X0091218Y0141796D01*
X0091216Y0141952D01*
X0091216Y0464787D02*
X0091218Y0464943D01*
X0091224Y0465099D01*
X0091234Y0465254D01*
X0091248Y0465409D01*
X0091266Y0465564D01*
X0091288Y0465718D01*
X0091313Y0465872D01*
X0091343Y0466025D01*
X0091377Y0466177D01*
X0091414Y0466329D01*
X0091455Y0466479D01*
X0091500Y0466628D01*
X0091549Y0466776D01*
X0091602Y0466923D01*
X0091658Y0467068D01*
X0091718Y0467212D01*
X0091782Y0467354D01*
X0091850Y0467495D01*
X0091921Y0467633D01*
X0091995Y0467770D01*
X0092073Y0467905D01*
X0092154Y0468038D01*
X0092239Y0468169D01*
X0092327Y0468298D01*
X0092418Y0468424D01*
X0092513Y0468548D01*
X0092610Y0468669D01*
X0092711Y0468788D01*
X0092815Y0468905D01*
X0092921Y0469018D01*
X0093031Y0469129D01*
X0093143Y0469237D01*
X0093258Y0469342D01*
X0093376Y0469445D01*
X0093496Y0469544D01*
X0093619Y0469640D01*
X0093744Y0469733D01*
X0093871Y0469822D01*
X0094001Y0469909D01*
X0094133Y0469992D01*
X0094267Y0470071D01*
X0094403Y0470148D01*
X0094541Y0470220D01*
X0094680Y0470290D01*
X0094822Y0470355D01*
X0094965Y0470417D01*
X0095109Y0470475D01*
X0095255Y0470530D01*
X0095403Y0470581D01*
X0095551Y0470628D01*
X0095701Y0470671D01*
X0095852Y0470710D01*
X0096004Y0470746D01*
X0096156Y0470777D01*
X0096310Y0470805D01*
X0096464Y0470829D01*
X0096618Y0470849D01*
X0096773Y0470865D01*
X0096929Y0470877D01*
X0097084Y0470885D01*
X0097240Y0470889D01*
X0097396Y0470889D01*
X0097552Y0470885D01*
X0097707Y0470877D01*
X0097863Y0470865D01*
X0098018Y0470849D01*
X0098172Y0470829D01*
X0098326Y0470805D01*
X0098480Y0470777D01*
X0098632Y0470746D01*
X0098784Y0470710D01*
X0098935Y0470671D01*
X0099085Y0470628D01*
X0099233Y0470581D01*
X0099381Y0470530D01*
X0099527Y0470475D01*
X0099671Y0470417D01*
X0099814Y0470355D01*
X0099956Y0470290D01*
X0100095Y0470220D01*
X0100233Y0470148D01*
X0100369Y0470071D01*
X0100503Y0469992D01*
X0100635Y0469909D01*
X0100765Y0469822D01*
X0100892Y0469733D01*
X0101017Y0469640D01*
X0101140Y0469544D01*
X0101260Y0469445D01*
X0101378Y0469342D01*
X0101493Y0469237D01*
X0101605Y0469129D01*
X0101715Y0469018D01*
X0101821Y0468905D01*
X0101925Y0468788D01*
X0102026Y0468669D01*
X0102123Y0468548D01*
X0102218Y0468424D01*
X0102309Y0468298D01*
X0102397Y0468169D01*
X0102482Y0468038D01*
X0102563Y0467905D01*
X0102641Y0467770D01*
X0102715Y0467633D01*
X0102786Y0467495D01*
X0102854Y0467354D01*
X0102918Y0467212D01*
X0102978Y0467068D01*
X0103034Y0466923D01*
X0103087Y0466776D01*
X0103136Y0466628D01*
X0103181Y0466479D01*
X0103222Y0466329D01*
X0103259Y0466177D01*
X0103293Y0466025D01*
X0103323Y0465872D01*
X0103348Y0465718D01*
X0103370Y0465564D01*
X0103388Y0465409D01*
X0103402Y0465254D01*
X0103412Y0465099D01*
X0103418Y0464943D01*
X0103420Y0464787D01*
X0103418Y0464631D01*
X0103412Y0464475D01*
X0103402Y0464320D01*
X0103388Y0464165D01*
X0103370Y0464010D01*
X0103348Y0463856D01*
X0103323Y0463702D01*
X0103293Y0463549D01*
X0103259Y0463397D01*
X0103222Y0463245D01*
X0103181Y0463095D01*
X0103136Y0462946D01*
X0103087Y0462798D01*
X0103034Y0462651D01*
X0102978Y0462506D01*
X0102918Y0462362D01*
X0102854Y0462220D01*
X0102786Y0462079D01*
X0102715Y0461941D01*
X0102641Y0461804D01*
X0102563Y0461669D01*
X0102482Y0461536D01*
X0102397Y0461405D01*
X0102309Y0461276D01*
X0102218Y0461150D01*
X0102123Y0461026D01*
X0102026Y0460905D01*
X0101925Y0460786D01*
X0101821Y0460669D01*
X0101715Y0460556D01*
X0101605Y0460445D01*
X0101493Y0460337D01*
X0101378Y0460232D01*
X0101260Y0460129D01*
X0101140Y0460030D01*
X0101017Y0459934D01*
X0100892Y0459841D01*
X0100765Y0459752D01*
X0100635Y0459665D01*
X0100503Y0459582D01*
X0100369Y0459503D01*
X0100233Y0459426D01*
X0100095Y0459354D01*
X0099956Y0459284D01*
X0099814Y0459219D01*
X0099671Y0459157D01*
X0099527Y0459099D01*
X0099381Y0459044D01*
X0099233Y0458993D01*
X0099085Y0458946D01*
X0098935Y0458903D01*
X0098784Y0458864D01*
X0098632Y0458828D01*
X0098480Y0458797D01*
X0098326Y0458769D01*
X0098172Y0458745D01*
X0098018Y0458725D01*
X0097863Y0458709D01*
X0097707Y0458697D01*
X0097552Y0458689D01*
X0097396Y0458685D01*
X0097240Y0458685D01*
X0097084Y0458689D01*
X0096929Y0458697D01*
X0096773Y0458709D01*
X0096618Y0458725D01*
X0096464Y0458745D01*
X0096310Y0458769D01*
X0096156Y0458797D01*
X0096004Y0458828D01*
X0095852Y0458864D01*
X0095701Y0458903D01*
X0095551Y0458946D01*
X0095403Y0458993D01*
X0095255Y0459044D01*
X0095109Y0459099D01*
X0094965Y0459157D01*
X0094822Y0459219D01*
X0094680Y0459284D01*
X0094541Y0459354D01*
X0094403Y0459426D01*
X0094267Y0459503D01*
X0094133Y0459582D01*
X0094001Y0459665D01*
X0093871Y0459752D01*
X0093744Y0459841D01*
X0093619Y0459934D01*
X0093496Y0460030D01*
X0093376Y0460129D01*
X0093258Y0460232D01*
X0093143Y0460337D01*
X0093031Y0460445D01*
X0092921Y0460556D01*
X0092815Y0460669D01*
X0092711Y0460786D01*
X0092610Y0460905D01*
X0092513Y0461026D01*
X0092418Y0461150D01*
X0092327Y0461276D01*
X0092239Y0461405D01*
X0092154Y0461536D01*
X0092073Y0461669D01*
X0091995Y0461804D01*
X0091921Y0461941D01*
X0091850Y0462079D01*
X0091782Y0462220D01*
X0091718Y0462362D01*
X0091658Y0462506D01*
X0091602Y0462651D01*
X0091549Y0462798D01*
X0091500Y0462946D01*
X0091455Y0463095D01*
X0091414Y0463245D01*
X0091377Y0463397D01*
X0091343Y0463549D01*
X0091313Y0463702D01*
X0091288Y0463856D01*
X0091266Y0464010D01*
X0091248Y0464165D01*
X0091234Y0464320D01*
X0091224Y0464475D01*
X0091218Y0464631D01*
X0091216Y0464787D01*
X0362870Y0464787D02*
X0362872Y0464943D01*
X0362878Y0465099D01*
X0362888Y0465254D01*
X0362902Y0465409D01*
X0362920Y0465564D01*
X0362942Y0465718D01*
X0362967Y0465872D01*
X0362997Y0466025D01*
X0363031Y0466177D01*
X0363068Y0466329D01*
X0363109Y0466479D01*
X0363154Y0466628D01*
X0363203Y0466776D01*
X0363256Y0466923D01*
X0363312Y0467068D01*
X0363372Y0467212D01*
X0363436Y0467354D01*
X0363504Y0467495D01*
X0363575Y0467633D01*
X0363649Y0467770D01*
X0363727Y0467905D01*
X0363808Y0468038D01*
X0363893Y0468169D01*
X0363981Y0468298D01*
X0364072Y0468424D01*
X0364167Y0468548D01*
X0364264Y0468669D01*
X0364365Y0468788D01*
X0364469Y0468905D01*
X0364575Y0469018D01*
X0364685Y0469129D01*
X0364797Y0469237D01*
X0364912Y0469342D01*
X0365030Y0469445D01*
X0365150Y0469544D01*
X0365273Y0469640D01*
X0365398Y0469733D01*
X0365525Y0469822D01*
X0365655Y0469909D01*
X0365787Y0469992D01*
X0365921Y0470071D01*
X0366057Y0470148D01*
X0366195Y0470220D01*
X0366334Y0470290D01*
X0366476Y0470355D01*
X0366619Y0470417D01*
X0366763Y0470475D01*
X0366909Y0470530D01*
X0367057Y0470581D01*
X0367205Y0470628D01*
X0367355Y0470671D01*
X0367506Y0470710D01*
X0367658Y0470746D01*
X0367810Y0470777D01*
X0367964Y0470805D01*
X0368118Y0470829D01*
X0368272Y0470849D01*
X0368427Y0470865D01*
X0368583Y0470877D01*
X0368738Y0470885D01*
X0368894Y0470889D01*
X0369050Y0470889D01*
X0369206Y0470885D01*
X0369361Y0470877D01*
X0369517Y0470865D01*
X0369672Y0470849D01*
X0369826Y0470829D01*
X0369980Y0470805D01*
X0370134Y0470777D01*
X0370286Y0470746D01*
X0370438Y0470710D01*
X0370589Y0470671D01*
X0370739Y0470628D01*
X0370887Y0470581D01*
X0371035Y0470530D01*
X0371181Y0470475D01*
X0371325Y0470417D01*
X0371468Y0470355D01*
X0371610Y0470290D01*
X0371749Y0470220D01*
X0371887Y0470148D01*
X0372023Y0470071D01*
X0372157Y0469992D01*
X0372289Y0469909D01*
X0372419Y0469822D01*
X0372546Y0469733D01*
X0372671Y0469640D01*
X0372794Y0469544D01*
X0372914Y0469445D01*
X0373032Y0469342D01*
X0373147Y0469237D01*
X0373259Y0469129D01*
X0373369Y0469018D01*
X0373475Y0468905D01*
X0373579Y0468788D01*
X0373680Y0468669D01*
X0373777Y0468548D01*
X0373872Y0468424D01*
X0373963Y0468298D01*
X0374051Y0468169D01*
X0374136Y0468038D01*
X0374217Y0467905D01*
X0374295Y0467770D01*
X0374369Y0467633D01*
X0374440Y0467495D01*
X0374508Y0467354D01*
X0374572Y0467212D01*
X0374632Y0467068D01*
X0374688Y0466923D01*
X0374741Y0466776D01*
X0374790Y0466628D01*
X0374835Y0466479D01*
X0374876Y0466329D01*
X0374913Y0466177D01*
X0374947Y0466025D01*
X0374977Y0465872D01*
X0375002Y0465718D01*
X0375024Y0465564D01*
X0375042Y0465409D01*
X0375056Y0465254D01*
X0375066Y0465099D01*
X0375072Y0464943D01*
X0375074Y0464787D01*
X0375072Y0464631D01*
X0375066Y0464475D01*
X0375056Y0464320D01*
X0375042Y0464165D01*
X0375024Y0464010D01*
X0375002Y0463856D01*
X0374977Y0463702D01*
X0374947Y0463549D01*
X0374913Y0463397D01*
X0374876Y0463245D01*
X0374835Y0463095D01*
X0374790Y0462946D01*
X0374741Y0462798D01*
X0374688Y0462651D01*
X0374632Y0462506D01*
X0374572Y0462362D01*
X0374508Y0462220D01*
X0374440Y0462079D01*
X0374369Y0461941D01*
X0374295Y0461804D01*
X0374217Y0461669D01*
X0374136Y0461536D01*
X0374051Y0461405D01*
X0373963Y0461276D01*
X0373872Y0461150D01*
X0373777Y0461026D01*
X0373680Y0460905D01*
X0373579Y0460786D01*
X0373475Y0460669D01*
X0373369Y0460556D01*
X0373259Y0460445D01*
X0373147Y0460337D01*
X0373032Y0460232D01*
X0372914Y0460129D01*
X0372794Y0460030D01*
X0372671Y0459934D01*
X0372546Y0459841D01*
X0372419Y0459752D01*
X0372289Y0459665D01*
X0372157Y0459582D01*
X0372023Y0459503D01*
X0371887Y0459426D01*
X0371749Y0459354D01*
X0371610Y0459284D01*
X0371468Y0459219D01*
X0371325Y0459157D01*
X0371181Y0459099D01*
X0371035Y0459044D01*
X0370887Y0458993D01*
X0370739Y0458946D01*
X0370589Y0458903D01*
X0370438Y0458864D01*
X0370286Y0458828D01*
X0370134Y0458797D01*
X0369980Y0458769D01*
X0369826Y0458745D01*
X0369672Y0458725D01*
X0369517Y0458709D01*
X0369361Y0458697D01*
X0369206Y0458689D01*
X0369050Y0458685D01*
X0368894Y0458685D01*
X0368738Y0458689D01*
X0368583Y0458697D01*
X0368427Y0458709D01*
X0368272Y0458725D01*
X0368118Y0458745D01*
X0367964Y0458769D01*
X0367810Y0458797D01*
X0367658Y0458828D01*
X0367506Y0458864D01*
X0367355Y0458903D01*
X0367205Y0458946D01*
X0367057Y0458993D01*
X0366909Y0459044D01*
X0366763Y0459099D01*
X0366619Y0459157D01*
X0366476Y0459219D01*
X0366334Y0459284D01*
X0366195Y0459354D01*
X0366057Y0459426D01*
X0365921Y0459503D01*
X0365787Y0459582D01*
X0365655Y0459665D01*
X0365525Y0459752D01*
X0365398Y0459841D01*
X0365273Y0459934D01*
X0365150Y0460030D01*
X0365030Y0460129D01*
X0364912Y0460232D01*
X0364797Y0460337D01*
X0364685Y0460445D01*
X0364575Y0460556D01*
X0364469Y0460669D01*
X0364365Y0460786D01*
X0364264Y0460905D01*
X0364167Y0461026D01*
X0364072Y0461150D01*
X0363981Y0461276D01*
X0363893Y0461405D01*
X0363808Y0461536D01*
X0363727Y0461669D01*
X0363649Y0461804D01*
X0363575Y0461941D01*
X0363504Y0462079D01*
X0363436Y0462220D01*
X0363372Y0462362D01*
X0363312Y0462506D01*
X0363256Y0462651D01*
X0363203Y0462798D01*
X0363154Y0462946D01*
X0363109Y0463095D01*
X0363068Y0463245D01*
X0363031Y0463397D01*
X0362997Y0463549D01*
X0362967Y0463702D01*
X0362942Y0463856D01*
X0362920Y0464010D01*
X0362902Y0464165D01*
X0362888Y0464320D01*
X0362878Y0464475D01*
X0362872Y0464631D01*
X0362870Y0464787D01*
X0362870Y0141952D02*
X0362872Y0142108D01*
X0362878Y0142264D01*
X0362888Y0142419D01*
X0362902Y0142574D01*
X0362920Y0142729D01*
X0362942Y0142883D01*
X0362967Y0143037D01*
X0362997Y0143190D01*
X0363031Y0143342D01*
X0363068Y0143494D01*
X0363109Y0143644D01*
X0363154Y0143793D01*
X0363203Y0143941D01*
X0363256Y0144088D01*
X0363312Y0144233D01*
X0363372Y0144377D01*
X0363436Y0144519D01*
X0363504Y0144660D01*
X0363575Y0144798D01*
X0363649Y0144935D01*
X0363727Y0145070D01*
X0363808Y0145203D01*
X0363893Y0145334D01*
X0363981Y0145463D01*
X0364072Y0145589D01*
X0364167Y0145713D01*
X0364264Y0145834D01*
X0364365Y0145953D01*
X0364469Y0146070D01*
X0364575Y0146183D01*
X0364685Y0146294D01*
X0364797Y0146402D01*
X0364912Y0146507D01*
X0365030Y0146610D01*
X0365150Y0146709D01*
X0365273Y0146805D01*
X0365398Y0146898D01*
X0365525Y0146987D01*
X0365655Y0147074D01*
X0365787Y0147157D01*
X0365921Y0147236D01*
X0366057Y0147313D01*
X0366195Y0147385D01*
X0366334Y0147455D01*
X0366476Y0147520D01*
X0366619Y0147582D01*
X0366763Y0147640D01*
X0366909Y0147695D01*
X0367057Y0147746D01*
X0367205Y0147793D01*
X0367355Y0147836D01*
X0367506Y0147875D01*
X0367658Y0147911D01*
X0367810Y0147942D01*
X0367964Y0147970D01*
X0368118Y0147994D01*
X0368272Y0148014D01*
X0368427Y0148030D01*
X0368583Y0148042D01*
X0368738Y0148050D01*
X0368894Y0148054D01*
X0369050Y0148054D01*
X0369206Y0148050D01*
X0369361Y0148042D01*
X0369517Y0148030D01*
X0369672Y0148014D01*
X0369826Y0147994D01*
X0369980Y0147970D01*
X0370134Y0147942D01*
X0370286Y0147911D01*
X0370438Y0147875D01*
X0370589Y0147836D01*
X0370739Y0147793D01*
X0370887Y0147746D01*
X0371035Y0147695D01*
X0371181Y0147640D01*
X0371325Y0147582D01*
X0371468Y0147520D01*
X0371610Y0147455D01*
X0371749Y0147385D01*
X0371887Y0147313D01*
X0372023Y0147236D01*
X0372157Y0147157D01*
X0372289Y0147074D01*
X0372419Y0146987D01*
X0372546Y0146898D01*
X0372671Y0146805D01*
X0372794Y0146709D01*
X0372914Y0146610D01*
X0373032Y0146507D01*
X0373147Y0146402D01*
X0373259Y0146294D01*
X0373369Y0146183D01*
X0373475Y0146070D01*
X0373579Y0145953D01*
X0373680Y0145834D01*
X0373777Y0145713D01*
X0373872Y0145589D01*
X0373963Y0145463D01*
X0374051Y0145334D01*
X0374136Y0145203D01*
X0374217Y0145070D01*
X0374295Y0144935D01*
X0374369Y0144798D01*
X0374440Y0144660D01*
X0374508Y0144519D01*
X0374572Y0144377D01*
X0374632Y0144233D01*
X0374688Y0144088D01*
X0374741Y0143941D01*
X0374790Y0143793D01*
X0374835Y0143644D01*
X0374876Y0143494D01*
X0374913Y0143342D01*
X0374947Y0143190D01*
X0374977Y0143037D01*
X0375002Y0142883D01*
X0375024Y0142729D01*
X0375042Y0142574D01*
X0375056Y0142419D01*
X0375066Y0142264D01*
X0375072Y0142108D01*
X0375074Y0141952D01*
X0375072Y0141796D01*
X0375066Y0141640D01*
X0375056Y0141485D01*
X0375042Y0141330D01*
X0375024Y0141175D01*
X0375002Y0141021D01*
X0374977Y0140867D01*
X0374947Y0140714D01*
X0374913Y0140562D01*
X0374876Y0140410D01*
X0374835Y0140260D01*
X0374790Y0140111D01*
X0374741Y0139963D01*
X0374688Y0139816D01*
X0374632Y0139671D01*
X0374572Y0139527D01*
X0374508Y0139385D01*
X0374440Y0139244D01*
X0374369Y0139106D01*
X0374295Y0138969D01*
X0374217Y0138834D01*
X0374136Y0138701D01*
X0374051Y0138570D01*
X0373963Y0138441D01*
X0373872Y0138315D01*
X0373777Y0138191D01*
X0373680Y0138070D01*
X0373579Y0137951D01*
X0373475Y0137834D01*
X0373369Y0137721D01*
X0373259Y0137610D01*
X0373147Y0137502D01*
X0373032Y0137397D01*
X0372914Y0137294D01*
X0372794Y0137195D01*
X0372671Y0137099D01*
X0372546Y0137006D01*
X0372419Y0136917D01*
X0372289Y0136830D01*
X0372157Y0136747D01*
X0372023Y0136668D01*
X0371887Y0136591D01*
X0371749Y0136519D01*
X0371610Y0136449D01*
X0371468Y0136384D01*
X0371325Y0136322D01*
X0371181Y0136264D01*
X0371035Y0136209D01*
X0370887Y0136158D01*
X0370739Y0136111D01*
X0370589Y0136068D01*
X0370438Y0136029D01*
X0370286Y0135993D01*
X0370134Y0135962D01*
X0369980Y0135934D01*
X0369826Y0135910D01*
X0369672Y0135890D01*
X0369517Y0135874D01*
X0369361Y0135862D01*
X0369206Y0135854D01*
X0369050Y0135850D01*
X0368894Y0135850D01*
X0368738Y0135854D01*
X0368583Y0135862D01*
X0368427Y0135874D01*
X0368272Y0135890D01*
X0368118Y0135910D01*
X0367964Y0135934D01*
X0367810Y0135962D01*
X0367658Y0135993D01*
X0367506Y0136029D01*
X0367355Y0136068D01*
X0367205Y0136111D01*
X0367057Y0136158D01*
X0366909Y0136209D01*
X0366763Y0136264D01*
X0366619Y0136322D01*
X0366476Y0136384D01*
X0366334Y0136449D01*
X0366195Y0136519D01*
X0366057Y0136591D01*
X0365921Y0136668D01*
X0365787Y0136747D01*
X0365655Y0136830D01*
X0365525Y0136917D01*
X0365398Y0137006D01*
X0365273Y0137099D01*
X0365150Y0137195D01*
X0365030Y0137294D01*
X0364912Y0137397D01*
X0364797Y0137502D01*
X0364685Y0137610D01*
X0364575Y0137721D01*
X0364469Y0137834D01*
X0364365Y0137951D01*
X0364264Y0138070D01*
X0364167Y0138191D01*
X0364072Y0138315D01*
X0363981Y0138441D01*
X0363893Y0138570D01*
X0363808Y0138701D01*
X0363727Y0138834D01*
X0363649Y0138969D01*
X0363575Y0139106D01*
X0363504Y0139244D01*
X0363436Y0139385D01*
X0363372Y0139527D01*
X0363312Y0139671D01*
X0363256Y0139816D01*
X0363203Y0139963D01*
X0363154Y0140111D01*
X0363109Y0140260D01*
X0363068Y0140410D01*
X0363031Y0140562D01*
X0362997Y0140714D01*
X0362967Y0140867D01*
X0362942Y0141021D01*
X0362920Y0141175D01*
X0362902Y0141330D01*
X0362888Y0141485D01*
X0362878Y0141640D01*
X0362872Y0141796D01*
X0362870Y0141952D01*
M02*
