G75*
%MOIN*%
%OFA0B0*%
%FSLAX25Y25*%
%IPPOS*%
%LPD*%
%AMOC8*
5,1,8,0,0,1.08239X$1,22.5*
%
%ADD10R,0.03937X0.01181*%
%ADD11R,0.10630X0.10630*%
%ADD12R,0.01713X0.01713*%
%ADD13R,0.01181X0.03937*%
%ADD14R,0.04331X0.03937*%
%ADD15R,0.03937X0.04331*%
%ADD16R,0.03937X0.05512*%
%ADD17R,0.03543X0.05906*%
%ADD18R,0.05906X0.03543*%
%ADD19R,0.23622X0.23622*%
%ADD20C,0.07400*%
%ADD21C,0.07400*%
%ADD22C,0.06000*%
%ADD23R,0.13780X0.06299*%
%ADD24R,0.04724X0.07874*%
%ADD25R,0.07874X0.04724*%
%ADD26C,0.03937*%
%ADD27C,0.07677*%
%ADD28R,0.02400X0.06700*%
%ADD29R,0.04252X0.04134*%
%ADD30R,0.01575X0.06890*%
%ADD31R,0.07874X0.05748*%
%ADD32R,0.05610X0.09843*%
%ADD33C,0.04331*%
%ADD34C,0.00800*%
%ADD35R,0.04134X0.04252*%
%ADD36R,0.05906X0.00984*%
%ADD37R,0.00984X0.05906*%
%ADD38R,0.03937X0.07087*%
%ADD39R,0.03543X0.02756*%
%ADD40C,0.01600*%
%ADD41C,0.01200*%
%ADD42C,0.03200*%
%ADD43C,0.06600*%
%ADD44C,0.02400*%
%ADD45C,0.05000*%
%ADD46C,0.01000*%
%ADD47C,0.03200*%
%ADD48C,0.04000*%
%ADD49C,0.04724*%
%ADD50C,0.03189*%
%ADD51C,0.01969*%
%ADD52C,0.03232*%
%ADD53C,0.04356*%
%ADD54C,0.05906*%
D10*
X0274041Y0157425D03*
X0274041Y0159393D03*
X0274041Y0161362D03*
X0274041Y0163330D03*
X0274041Y0165299D03*
X0274041Y0167267D03*
X0274041Y0169236D03*
X0293726Y0169236D03*
X0293726Y0167267D03*
X0293726Y0165299D03*
X0293726Y0163330D03*
X0293726Y0161362D03*
X0293726Y0159393D03*
X0293726Y0157425D03*
D11*
X0283883Y0163330D03*
D12*
X0275606Y0171608D03*
D13*
X0277978Y0173173D03*
X0279946Y0173173D03*
X0281915Y0173173D03*
X0283883Y0173173D03*
X0285852Y0173173D03*
X0287820Y0173173D03*
X0289789Y0173173D03*
X0289789Y0153488D03*
X0287820Y0153488D03*
X0285852Y0153488D03*
X0283883Y0153488D03*
X0281915Y0153488D03*
X0279946Y0153488D03*
X0277978Y0153488D03*
D14*
X0266383Y0156677D03*
X0266383Y0149984D03*
X0253883Y0139177D03*
X0253883Y0132484D03*
X0235133Y0212484D03*
X0235133Y0219177D03*
X0288883Y0283734D03*
X0288883Y0290427D03*
X0352633Y0280427D03*
X0352633Y0273734D03*
X0365133Y0282484D03*
X0365133Y0289177D03*
X0380133Y0289177D03*
X0380133Y0282484D03*
X0371383Y0274177D03*
X0371383Y0267484D03*
X0371383Y0326234D03*
X0371383Y0332927D03*
X0380133Y0332927D03*
X0380133Y0326234D03*
X0355133Y0326234D03*
X0355133Y0332927D03*
X0336383Y0165427D03*
X0336383Y0158734D03*
X0341383Y0130427D03*
X0341383Y0123734D03*
X0132633Y0127484D03*
X0132633Y0134177D03*
X0132633Y0142484D03*
X0132633Y0149177D03*
X0122633Y0134177D03*
X0122633Y0127484D03*
X0128883Y0384984D03*
X0128883Y0391677D03*
D15*
X0138037Y0393330D03*
X0144730Y0393330D03*
X0290537Y0315830D03*
X0297230Y0315830D03*
X0289730Y0195830D03*
X0283037Y0195830D03*
X0285537Y0185830D03*
X0292230Y0185830D03*
X0293037Y0145830D03*
X0299730Y0145830D03*
X0284730Y0140830D03*
X0278037Y0140830D03*
X0277230Y0132080D03*
X0270537Y0132080D03*
X0325537Y0129580D03*
X0332230Y0129580D03*
X0334730Y0173330D03*
X0328037Y0173330D03*
D16*
X0321383Y0147661D03*
X0317643Y0138999D03*
X0325123Y0138999D03*
X0332643Y0138999D03*
X0340123Y0138999D03*
X0336383Y0147661D03*
D17*
X0336570Y0347897D03*
X0341570Y0347897D03*
X0346570Y0347897D03*
X0351570Y0347897D03*
X0356570Y0347897D03*
X0361570Y0347897D03*
X0366570Y0347897D03*
X0371570Y0347897D03*
X0376570Y0347897D03*
X0381570Y0347897D03*
X0331570Y0347897D03*
X0326570Y0347897D03*
X0321570Y0347897D03*
X0316570Y0347897D03*
X0316570Y0418763D03*
X0321570Y0418763D03*
X0326570Y0418763D03*
X0331570Y0418763D03*
X0336570Y0418763D03*
X0341570Y0418763D03*
X0346570Y0418763D03*
X0351570Y0418763D03*
X0356570Y0418763D03*
X0361570Y0418763D03*
X0366570Y0418763D03*
X0371570Y0418763D03*
X0376570Y0418763D03*
X0381570Y0418763D03*
D18*
X0310704Y0405830D03*
X0310704Y0400830D03*
X0310704Y0395830D03*
X0310704Y0390830D03*
X0310704Y0385830D03*
X0310704Y0380830D03*
X0310704Y0375830D03*
X0310704Y0370830D03*
X0310704Y0365830D03*
X0310704Y0360830D03*
D19*
X0351255Y0383330D03*
D20*
X0265133Y0253280D02*
X0265133Y0245880D01*
X0255133Y0245880D02*
X0255133Y0253280D01*
X0245133Y0253280D02*
X0245133Y0245880D01*
X0235133Y0245880D02*
X0235133Y0253280D01*
X0225133Y0253280D02*
X0225133Y0245880D01*
X0215133Y0245880D02*
X0215133Y0253280D01*
D21*
X0135429Y0297080D03*
X0109838Y0297080D03*
D22*
X0217766Y0383489D02*
X0217766Y0389489D01*
X0227766Y0389489D02*
X0227766Y0383489D01*
X0237766Y0383489D02*
X0237766Y0389489D01*
X0247766Y0389489D02*
X0247766Y0383489D01*
X0247764Y0454224D02*
X0247764Y0460224D01*
X0237764Y0460224D02*
X0237764Y0454224D01*
X0227764Y0454224D02*
X0227764Y0460224D01*
X0217764Y0460224D02*
X0217764Y0454224D01*
X0159415Y0134320D02*
X0159415Y0128320D01*
X0149415Y0128320D02*
X0149415Y0134320D01*
D23*
X0165753Y0269580D03*
X0187013Y0269580D03*
X0222003Y0363330D03*
X0243263Y0363330D03*
X0243263Y0433330D03*
X0222003Y0433330D03*
D24*
X0326757Y0253330D03*
X0334631Y0253330D03*
X0342505Y0253330D03*
X0350379Y0253330D03*
X0358253Y0253330D03*
X0366127Y0253330D03*
X0374001Y0253330D03*
X0381875Y0253330D03*
X0381875Y0189551D03*
X0374001Y0189551D03*
X0366127Y0189551D03*
X0358253Y0189551D03*
X0350379Y0189551D03*
X0342505Y0189551D03*
X0334631Y0189551D03*
X0326757Y0189551D03*
D25*
X0318883Y0202149D03*
X0318883Y0210023D03*
X0318883Y0217897D03*
X0318883Y0225771D03*
X0318883Y0233645D03*
X0318883Y0241519D03*
D26*
X0310133Y0225830D03*
X0310133Y0218330D03*
X0310133Y0209580D03*
X0350133Y0179580D03*
X0360133Y0180830D03*
X0367633Y0180830D03*
X0360133Y0263330D03*
X0352633Y0263330D03*
X0333883Y0263330D03*
X0326383Y0332080D03*
X0321383Y0339580D03*
X0316383Y0332080D03*
X0331383Y0339580D03*
X0302633Y0370830D03*
X0297633Y0375830D03*
X0302633Y0380830D03*
X0297633Y0385830D03*
X0302633Y0390830D03*
X0297633Y0395830D03*
X0302633Y0400830D03*
X0316383Y0428330D03*
X0321383Y0435830D03*
X0352633Y0428330D03*
X0357633Y0425830D03*
X0362633Y0428330D03*
X0201383Y0267080D03*
X0153883Y0269580D03*
X0182633Y0128330D03*
X0192633Y0128330D03*
X0243651Y0127776D03*
X0255133Y0124580D03*
D27*
X0133883Y0172927D03*
X0133883Y0251667D03*
D28*
X0262633Y0289280D03*
X0267633Y0289280D03*
X0272633Y0289280D03*
X0277633Y0289280D03*
X0277633Y0314880D03*
X0272633Y0314880D03*
X0267633Y0314880D03*
X0262633Y0314880D03*
D29*
X0251383Y0305525D03*
X0251383Y0298635D03*
D30*
X0238139Y0137914D03*
X0235580Y0137914D03*
X0233021Y0137914D03*
X0230462Y0137914D03*
X0227903Y0137914D03*
D31*
X0221604Y0138997D03*
X0244438Y0138997D03*
D32*
X0236810Y0127383D03*
X0229231Y0127383D03*
D33*
X0222267Y0127951D02*
X0222267Y0126375D01*
X0222267Y0126375D01*
X0222267Y0127951D01*
X0222267Y0127951D01*
D34*
X0222267Y0127950D02*
X0222267Y0127163D01*
X0219827Y0127114D02*
X0224757Y0127114D01*
X0224758Y0127912D02*
X0219825Y0127912D01*
X0219823Y0128711D02*
X0224760Y0128711D01*
X0224762Y0129509D02*
X0219821Y0129509D01*
X0219818Y0130308D02*
X0224763Y0130308D01*
X0224765Y0131106D02*
X0219816Y0131106D01*
X0219814Y0131905D02*
X0224766Y0131905D01*
X0224768Y0132703D02*
X0218336Y0132703D01*
X0218336Y0132698D02*
X0219812Y0132698D01*
X0219832Y0125257D01*
X0219915Y0124956D01*
X0220062Y0124680D01*
X0220267Y0124445D01*
X0220520Y0124261D01*
X0220807Y0124138D01*
X0221114Y0124082D01*
X0221426Y0124095D01*
X0223789Y0124095D01*
X0224056Y0124151D01*
X0224300Y0124274D01*
X0224503Y0124457D01*
X0224653Y0124685D01*
X0224738Y0124945D01*
X0224753Y0125217D01*
X0224773Y0135217D01*
X0218355Y0135217D01*
X0218336Y0132698D01*
X0218342Y0133502D02*
X0224769Y0133502D01*
X0224771Y0134300D02*
X0218348Y0134300D01*
X0218355Y0135099D02*
X0224773Y0135099D01*
X0223454Y0138682D02*
X0221918Y0138682D01*
X0221604Y0138997D01*
X0223139Y0138997D01*
X0223454Y0138682D01*
X0224755Y0126315D02*
X0219829Y0126315D01*
X0219831Y0125517D02*
X0224754Y0125517D01*
X0224664Y0124718D02*
X0220042Y0124718D01*
X0241434Y0124942D02*
X0241434Y0135217D01*
X0247659Y0135217D01*
X0247659Y0132717D01*
X0246170Y0132717D01*
X0246170Y0124509D01*
X0246133Y0124352D01*
X0246050Y0124215D01*
X0245928Y0124111D01*
X0245779Y0124049D01*
X0245619Y0124036D01*
X0242214Y0124135D01*
X0242009Y0124165D01*
X0241819Y0124248D01*
X0241657Y0124377D01*
X0241534Y0124543D01*
X0241458Y0124736D01*
X0241434Y0124942D01*
X0241465Y0124718D02*
X0246170Y0124718D01*
X0246170Y0125517D02*
X0241434Y0125517D01*
X0241434Y0126315D02*
X0246170Y0126315D01*
X0246170Y0127114D02*
X0241434Y0127114D01*
X0241434Y0127912D02*
X0246170Y0127912D01*
X0246170Y0128711D02*
X0241434Y0128711D01*
X0241434Y0129509D02*
X0246170Y0129509D01*
X0246170Y0130308D02*
X0241434Y0130308D01*
X0241434Y0131106D02*
X0246170Y0131106D01*
X0246170Y0131905D02*
X0241434Y0131905D01*
X0241434Y0132703D02*
X0246170Y0132703D01*
X0247659Y0133502D02*
X0241434Y0133502D01*
X0241434Y0134300D02*
X0247659Y0134300D01*
X0247659Y0135099D02*
X0241434Y0135099D01*
X0242588Y0138682D02*
X0244123Y0138682D01*
X0244438Y0138997D01*
X0242903Y0138997D01*
X0242588Y0138682D01*
X0243763Y0127950D02*
X0243651Y0127837D01*
X0243651Y0127776D01*
X0199449Y0135830D02*
X0193883Y0139580D01*
X0183165Y0366362D02*
X0170143Y0366362D01*
X0183165Y0366362D02*
X0185133Y0368330D01*
D35*
X0144828Y0369580D03*
X0137938Y0369580D03*
X0137938Y0377080D03*
X0144828Y0377080D03*
X0144828Y0384580D03*
X0137938Y0384580D03*
X0372938Y0429580D03*
X0379828Y0429580D03*
X0379828Y0440830D03*
X0372938Y0440830D03*
D36*
X0170143Y0372267D03*
X0170143Y0370299D03*
X0170143Y0368330D03*
X0170143Y0366362D03*
X0170143Y0364393D03*
X0157623Y0364393D03*
X0157623Y0366362D03*
X0157623Y0368330D03*
X0157623Y0370299D03*
X0157623Y0372267D03*
D37*
X0161915Y0374590D03*
X0163883Y0374590D03*
X0165852Y0374590D03*
X0165852Y0362070D03*
X0163883Y0362070D03*
X0161915Y0362070D03*
D38*
X0337712Y0437080D03*
X0347555Y0437080D03*
D39*
X0347633Y0445771D03*
X0347633Y0450889D03*
X0337633Y0450889D03*
X0337633Y0445771D03*
D40*
X0080033Y0486009D02*
X0080033Y0120730D01*
X0212726Y0120730D01*
X0211618Y0121189D01*
X0210492Y0122314D01*
X0209883Y0123785D01*
X0209883Y0125376D01*
X0210492Y0126846D01*
X0210883Y0127237D01*
X0210883Y0135901D01*
X0210409Y0135426D01*
X0208608Y0134680D01*
X0206783Y0134680D01*
X0206783Y0132753D01*
X0206342Y0131687D01*
X0205526Y0130872D01*
X0204460Y0130430D01*
X0196492Y0130430D01*
X0197002Y0129199D01*
X0197002Y0127461D01*
X0196337Y0125856D01*
X0195108Y0124627D01*
X0193502Y0123962D01*
X0191764Y0123962D01*
X0190159Y0124627D01*
X0188930Y0125856D01*
X0188265Y0127461D01*
X0188265Y0129199D01*
X0188775Y0130430D01*
X0186492Y0130430D01*
X0187002Y0129199D01*
X0187002Y0127461D01*
X0186337Y0125856D01*
X0185108Y0124627D01*
X0183502Y0123962D01*
X0181764Y0123962D01*
X0180159Y0124627D01*
X0178930Y0125856D01*
X0178265Y0127461D01*
X0178265Y0129199D01*
X0178930Y0130805D01*
X0179369Y0131244D01*
X0178925Y0131687D01*
X0178483Y0132753D01*
X0178483Y0143907D01*
X0178925Y0144973D01*
X0179741Y0145789D01*
X0180806Y0146230D01*
X0204460Y0146230D01*
X0205526Y0145789D01*
X0206317Y0144998D01*
X0209936Y0148617D01*
X0211933Y0150615D01*
X0211933Y0176467D01*
X0212420Y0177643D01*
X0213321Y0178543D01*
X0247389Y0212611D01*
X0247389Y0212875D01*
X0247997Y0214343D01*
X0249121Y0215467D01*
X0250589Y0216075D01*
X0252178Y0216075D01*
X0253646Y0215467D01*
X0254770Y0214343D01*
X0255378Y0212875D01*
X0255378Y0211286D01*
X0254770Y0209818D01*
X0253646Y0208694D01*
X0252178Y0208086D01*
X0251914Y0208086D01*
X0234841Y0191013D01*
X0236149Y0190471D01*
X0237008Y0189612D01*
X0237868Y0190471D01*
X0239338Y0191080D01*
X0240929Y0191080D01*
X0242399Y0190471D01*
X0242790Y0190080D01*
X0245391Y0190080D01*
X0244891Y0190580D01*
X0244338Y0190580D01*
X0242868Y0191189D01*
X0241742Y0192314D01*
X0241133Y0193785D01*
X0241133Y0195376D01*
X0241742Y0196846D01*
X0242868Y0197971D01*
X0244338Y0198580D01*
X0245929Y0198580D01*
X0247399Y0197971D01*
X0248524Y0196846D01*
X0249133Y0195376D01*
X0249133Y0194823D01*
X0250126Y0193830D01*
X0271980Y0193830D01*
X0273083Y0193373D01*
X0278915Y0187541D01*
X0278915Y0192592D01*
X0278668Y0193187D01*
X0278668Y0198473D01*
X0279034Y0199355D01*
X0279709Y0200030D01*
X0280591Y0200396D01*
X0285483Y0200396D01*
X0286365Y0200030D01*
X0286383Y0200012D01*
X0286402Y0200030D01*
X0286730Y0200166D01*
X0286730Y0201095D01*
X0286133Y0202535D01*
X0286133Y0204126D01*
X0286632Y0205330D01*
X0276376Y0205330D01*
X0276205Y0205159D01*
X0276633Y0204126D01*
X0276633Y0202535D01*
X0276024Y0201064D01*
X0274899Y0199939D01*
X0273429Y0199330D01*
X0271838Y0199330D01*
X0270368Y0199939D01*
X0269242Y0201064D01*
X0268633Y0202535D01*
X0268633Y0204126D01*
X0269242Y0205596D01*
X0269633Y0205987D01*
X0269633Y0206427D01*
X0270090Y0207530D01*
X0270934Y0208373D01*
X0270934Y0208373D01*
X0272590Y0210030D01*
X0272590Y0210030D01*
X0273434Y0210873D01*
X0274537Y0211330D01*
X0279132Y0211330D01*
X0278633Y0212535D01*
X0278633Y0214126D01*
X0279242Y0215596D01*
X0280184Y0216537D01*
X0280090Y0216631D01*
X0270141Y0226580D01*
X0245383Y0226580D01*
X0245383Y0225035D01*
X0244774Y0223564D01*
X0243649Y0222439D01*
X0242179Y0221830D01*
X0240588Y0221830D01*
X0239554Y0222258D01*
X0239470Y0222174D01*
X0239699Y0221623D01*
X0239699Y0216731D01*
X0239333Y0215849D01*
X0239315Y0215830D01*
X0239333Y0215812D01*
X0239699Y0214930D01*
X0239699Y0210038D01*
X0239333Y0209156D01*
X0238658Y0208481D01*
X0237776Y0208115D01*
X0235007Y0208115D01*
X0232676Y0205784D01*
X0232274Y0204814D01*
X0231149Y0203689D01*
X0229679Y0203080D01*
X0228088Y0203080D01*
X0226618Y0203689D01*
X0225492Y0204814D01*
X0225092Y0205780D01*
X0221142Y0209730D01*
X0164395Y0209730D01*
X0163429Y0209330D01*
X0161838Y0209330D01*
X0160368Y0209939D01*
X0159242Y0211064D01*
X0158633Y0212535D01*
X0158633Y0214126D01*
X0159242Y0215596D01*
X0160368Y0216721D01*
X0161838Y0217330D01*
X0163429Y0217330D01*
X0164395Y0216930D01*
X0223349Y0216930D01*
X0224673Y0216382D01*
X0225685Y0215369D01*
X0229731Y0211324D01*
X0230568Y0212161D01*
X0230568Y0214930D01*
X0230933Y0215812D01*
X0230952Y0215830D01*
X0230933Y0215849D01*
X0230568Y0216731D01*
X0230568Y0221623D01*
X0230933Y0222505D01*
X0231608Y0223180D01*
X0232491Y0223545D01*
X0232493Y0223545D01*
X0232590Y0223780D01*
X0235391Y0226580D01*
X0134988Y0226580D01*
X0134774Y0226064D01*
X0133649Y0224939D01*
X0132179Y0224330D01*
X0130588Y0224330D01*
X0130383Y0224415D01*
X0130383Y0223785D01*
X0129774Y0222314D01*
X0128649Y0221189D01*
X0127179Y0220580D01*
X0125588Y0220580D01*
X0124118Y0221189D01*
X0122992Y0222314D01*
X0122383Y0223785D01*
X0122383Y0225376D01*
X0122992Y0226846D01*
X0123383Y0227237D01*
X0123383Y0230177D01*
X0123840Y0231280D01*
X0127891Y0235330D01*
X0120126Y0235330D01*
X0115633Y0230838D01*
X0115633Y0197073D01*
X0123083Y0189623D01*
X0123927Y0188780D01*
X0124383Y0187677D01*
X0124383Y0148323D01*
X0127626Y0145080D01*
X0128130Y0145080D01*
X0128433Y0145812D01*
X0128917Y0146295D01*
X0128791Y0146513D01*
X0128668Y0146971D01*
X0128668Y0148992D01*
X0132449Y0148992D01*
X0132449Y0149361D01*
X0132449Y0152945D01*
X0130231Y0152945D01*
X0129773Y0152822D01*
X0129363Y0152586D01*
X0129028Y0152250D01*
X0128791Y0151840D01*
X0128668Y0151382D01*
X0128668Y0149361D01*
X0132449Y0149361D01*
X0132818Y0149361D01*
X0136599Y0149361D01*
X0136599Y0151382D01*
X0136476Y0151840D01*
X0136239Y0152250D01*
X0135904Y0152586D01*
X0135493Y0152822D01*
X0135036Y0152945D01*
X0132818Y0152945D01*
X0132818Y0149361D01*
X0132818Y0148992D01*
X0136599Y0148992D01*
X0136599Y0146971D01*
X0136476Y0146513D01*
X0136350Y0146295D01*
X0136833Y0145812D01*
X0136886Y0145684D01*
X0160366Y0145684D01*
X0161542Y0145197D01*
X0162443Y0144296D01*
X0162846Y0143893D01*
X0163333Y0142717D01*
X0163333Y0138039D01*
X0163993Y0137379D01*
X0164815Y0135395D01*
X0164815Y0127246D01*
X0163993Y0125262D01*
X0162474Y0123742D01*
X0160489Y0122920D01*
X0158341Y0122920D01*
X0156356Y0123742D01*
X0154837Y0125262D01*
X0154415Y0126281D01*
X0153993Y0125262D01*
X0152474Y0123742D01*
X0150489Y0122920D01*
X0148341Y0122920D01*
X0146356Y0123742D01*
X0145815Y0124284D01*
X0136886Y0124284D01*
X0136833Y0124156D01*
X0136158Y0123481D01*
X0135276Y0123115D01*
X0129991Y0123115D01*
X0129108Y0123481D01*
X0128433Y0124156D01*
X0128380Y0124284D01*
X0126886Y0124284D01*
X0126833Y0124156D01*
X0126158Y0123481D01*
X0125276Y0123115D01*
X0119991Y0123115D01*
X0119108Y0123481D01*
X0118433Y0124156D01*
X0118068Y0125038D01*
X0118068Y0129930D01*
X0118433Y0130812D01*
X0118452Y0130830D01*
X0118433Y0130849D01*
X0118068Y0131731D01*
X0118068Y0136623D01*
X0118433Y0137505D01*
X0119108Y0138180D01*
X0119991Y0138545D01*
X0125276Y0138545D01*
X0126158Y0138180D01*
X0126833Y0137505D01*
X0126886Y0137377D01*
X0128380Y0137377D01*
X0128433Y0137505D01*
X0129108Y0138180D01*
X0129433Y0138314D01*
X0129433Y0138346D01*
X0129108Y0138481D01*
X0128509Y0139080D01*
X0125787Y0139080D01*
X0124684Y0139537D01*
X0123840Y0140381D01*
X0118840Y0145381D01*
X0118383Y0146483D01*
X0118383Y0185838D01*
X0110090Y0194131D01*
X0109633Y0195233D01*
X0109633Y0232677D01*
X0110090Y0233780D01*
X0110934Y0234623D01*
X0110934Y0234623D01*
X0117184Y0240873D01*
X0118287Y0241330D01*
X0168411Y0241330D01*
X0167653Y0242088D01*
X0166983Y0243705D01*
X0166983Y0249180D01*
X0159556Y0249180D01*
X0158491Y0249622D01*
X0157675Y0250437D01*
X0157233Y0251503D01*
X0157233Y0263907D01*
X0157456Y0264444D01*
X0156829Y0265071D01*
X0156618Y0265580D01*
X0155642Y0265580D01*
X0154752Y0265212D01*
X0153014Y0265212D01*
X0151783Y0265722D01*
X0151783Y0249837D01*
X0152274Y0249346D01*
X0152883Y0247876D01*
X0152883Y0246285D01*
X0152274Y0244814D01*
X0151149Y0243689D01*
X0149679Y0243080D01*
X0148088Y0243080D01*
X0146618Y0243689D01*
X0145492Y0244814D01*
X0144883Y0246285D01*
X0144883Y0247876D01*
X0145486Y0249330D01*
X0144338Y0249330D01*
X0142868Y0249939D01*
X0141742Y0251064D01*
X0141133Y0252535D01*
X0141133Y0254126D01*
X0141742Y0255596D01*
X0142233Y0256087D01*
X0142233Y0360449D01*
X0142675Y0361515D01*
X0143491Y0362330D01*
X0146214Y0365054D01*
X0142284Y0365054D01*
X0141402Y0365420D01*
X0140918Y0365903D01*
X0140700Y0365777D01*
X0140242Y0365654D01*
X0138172Y0365654D01*
X0138172Y0369347D01*
X0137705Y0369347D01*
X0134072Y0369347D01*
X0134072Y0367217D01*
X0134194Y0366759D01*
X0134431Y0366349D01*
X0134766Y0366014D01*
X0135177Y0365777D01*
X0135635Y0365654D01*
X0137705Y0365654D01*
X0137705Y0369347D01*
X0137705Y0369814D01*
X0137705Y0376847D01*
X0134072Y0376847D01*
X0134072Y0374717D01*
X0134194Y0374259D01*
X0134431Y0373849D01*
X0134766Y0373514D01*
X0135084Y0373330D01*
X0134766Y0373147D01*
X0134431Y0372811D01*
X0134194Y0372401D01*
X0134072Y0371943D01*
X0134072Y0369814D01*
X0137705Y0369814D01*
X0138172Y0369814D01*
X0138172Y0373154D01*
X0138172Y0376847D01*
X0137705Y0376847D01*
X0137705Y0377314D01*
X0137705Y0384347D01*
X0134072Y0384347D01*
X0134072Y0382217D01*
X0134194Y0381759D01*
X0134431Y0381349D01*
X0134766Y0381014D01*
X0135084Y0380830D01*
X0134766Y0380647D01*
X0134431Y0380311D01*
X0134194Y0379901D01*
X0134072Y0379443D01*
X0134072Y0377314D01*
X0137705Y0377314D01*
X0138172Y0377314D01*
X0138172Y0380654D01*
X0138172Y0384347D01*
X0137705Y0384347D01*
X0137705Y0384814D01*
X0137705Y0388506D01*
X0135635Y0388506D01*
X0135177Y0388384D01*
X0134766Y0388147D01*
X0134431Y0387811D01*
X0134194Y0387401D01*
X0134072Y0386943D01*
X0134072Y0384814D01*
X0137705Y0384814D01*
X0138172Y0384814D01*
X0138172Y0388506D01*
X0140242Y0388506D01*
X0140700Y0388384D01*
X0140730Y0388366D01*
X0140730Y0388867D01*
X0140483Y0388765D01*
X0135591Y0388765D01*
X0134709Y0389130D01*
X0134034Y0389805D01*
X0133775Y0390430D01*
X0133449Y0390430D01*
X0133449Y0389231D01*
X0133083Y0388349D01*
X0132600Y0387865D01*
X0132726Y0387647D01*
X0132849Y0387189D01*
X0132849Y0385168D01*
X0129068Y0385168D01*
X0129068Y0384799D01*
X0132849Y0384799D01*
X0132849Y0382778D01*
X0132726Y0382320D01*
X0132489Y0381910D01*
X0132154Y0381575D01*
X0131743Y0381338D01*
X0131286Y0381215D01*
X0129068Y0381215D01*
X0129068Y0384799D01*
X0128699Y0384799D01*
X0128699Y0381215D01*
X0126481Y0381215D01*
X0126023Y0381338D01*
X0125613Y0381575D01*
X0125278Y0381910D01*
X0125041Y0382320D01*
X0124918Y0382778D01*
X0124918Y0384799D01*
X0128699Y0384799D01*
X0128699Y0385168D01*
X0124918Y0385168D01*
X0124918Y0387189D01*
X0125041Y0387647D01*
X0125167Y0387865D01*
X0124683Y0388349D01*
X0124318Y0389231D01*
X0124318Y0394123D01*
X0124683Y0395005D01*
X0125358Y0395680D01*
X0126241Y0396045D01*
X0129513Y0396045D01*
X0129960Y0396230D01*
X0133775Y0396230D01*
X0133953Y0396660D01*
X0133782Y0396830D01*
X0133088Y0396830D01*
X0131618Y0397439D01*
X0130492Y0398564D01*
X0129883Y0400035D01*
X0129883Y0401626D01*
X0130492Y0403096D01*
X0131618Y0404221D01*
X0133088Y0404830D01*
X0134679Y0404830D01*
X0136149Y0404221D01*
X0137274Y0403096D01*
X0137883Y0401626D01*
X0137883Y0400931D01*
X0139680Y0399135D01*
X0140495Y0398319D01*
X0140710Y0397801D01*
X0140730Y0397793D01*
X0140730Y0405430D01*
X0138306Y0405430D01*
X0137241Y0405872D01*
X0136425Y0406687D01*
X0132675Y0410437D01*
X0132233Y0411503D01*
X0132233Y0430157D01*
X0132675Y0431223D01*
X0133491Y0432039D01*
X0133925Y0432473D01*
X0133925Y0432473D01*
X0134741Y0433289D01*
X0135806Y0433730D01*
X0153210Y0433730D01*
X0154276Y0433289D01*
X0155092Y0432473D01*
X0156342Y0431223D01*
X0156783Y0430157D01*
X0156783Y0411503D01*
X0156342Y0410437D01*
X0155526Y0409622D01*
X0151776Y0405872D01*
X0150710Y0405430D01*
X0148730Y0405430D01*
X0148730Y0396858D01*
X0148733Y0396855D01*
X0149098Y0395973D01*
X0149098Y0390687D01*
X0148733Y0389805D01*
X0148730Y0389802D01*
X0148730Y0388580D01*
X0162233Y0388580D01*
X0162233Y0388907D01*
X0162675Y0389973D01*
X0163491Y0390789D01*
X0163925Y0391223D01*
X0164741Y0392039D01*
X0165806Y0392480D01*
X0181960Y0392480D01*
X0183026Y0392039D01*
X0183842Y0391223D01*
X0184633Y0390431D01*
X0184633Y0451427D01*
X0185090Y0452530D01*
X0185934Y0453373D01*
X0185934Y0453373D01*
X0216340Y0483780D01*
X0217184Y0484623D01*
X0218287Y0485080D01*
X0313230Y0485080D01*
X0314333Y0484623D01*
X0334333Y0464623D01*
X0335177Y0463780D01*
X0335633Y0462677D01*
X0335633Y0454067D01*
X0337633Y0454067D01*
X0337633Y0450889D01*
X0337633Y0450889D01*
X0337633Y0449549D01*
X0337633Y0449549D01*
X0337633Y0450889D01*
X0337633Y0450889D01*
X0337633Y0450889D01*
X0341205Y0450889D01*
X0341205Y0449274D01*
X0341093Y0448855D01*
X0341440Y0448509D01*
X0341805Y0447626D01*
X0341805Y0443916D01*
X0341440Y0443034D01*
X0341052Y0442646D01*
X0341715Y0441983D01*
X0342081Y0441101D01*
X0342081Y0436954D01*
X0343186Y0435849D01*
X0343186Y0441101D01*
X0343551Y0441983D01*
X0344215Y0442646D01*
X0343827Y0443034D01*
X0343462Y0443916D01*
X0343462Y0447626D01*
X0343827Y0448509D01*
X0344174Y0448855D01*
X0344062Y0449274D01*
X0344062Y0450889D01*
X0347633Y0450889D01*
X0347633Y0450889D01*
X0344062Y0450889D01*
X0344062Y0452504D01*
X0344184Y0452962D01*
X0344421Y0453372D01*
X0344756Y0453708D01*
X0345167Y0453945D01*
X0345625Y0454067D01*
X0347633Y0454067D01*
X0347633Y0450889D01*
X0347633Y0450889D01*
X0347633Y0450889D01*
X0351205Y0450889D01*
X0351205Y0449627D01*
X0352056Y0449980D01*
X0366960Y0449980D01*
X0368026Y0449539D01*
X0368842Y0448723D01*
X0370092Y0447473D01*
X0370533Y0446407D01*
X0370533Y0445356D01*
X0375483Y0445356D01*
X0376365Y0444991D01*
X0376848Y0444507D01*
X0377066Y0444634D01*
X0377524Y0444756D01*
X0379595Y0444756D01*
X0379595Y0441064D01*
X0380062Y0441064D01*
X0380062Y0444756D01*
X0382132Y0444756D01*
X0382590Y0444634D01*
X0383000Y0444397D01*
X0383335Y0444061D01*
X0383572Y0443651D01*
X0383695Y0443193D01*
X0383695Y0441064D01*
X0380062Y0441064D01*
X0380062Y0440597D01*
X0383695Y0440597D01*
X0383695Y0438467D01*
X0383572Y0438009D01*
X0383335Y0437599D01*
X0383000Y0437264D01*
X0382590Y0437027D01*
X0382132Y0436904D01*
X0380062Y0436904D01*
X0380062Y0440597D01*
X0379595Y0440597D01*
X0379595Y0436904D01*
X0377524Y0436904D01*
X0377066Y0437027D01*
X0376848Y0437153D01*
X0376365Y0436670D01*
X0375938Y0436493D01*
X0375938Y0433917D01*
X0376365Y0433741D01*
X0376848Y0433257D01*
X0377066Y0433384D01*
X0377524Y0433506D01*
X0379595Y0433506D01*
X0379595Y0429814D01*
X0380062Y0429814D01*
X0380062Y0433506D01*
X0382132Y0433506D01*
X0382590Y0433384D01*
X0383000Y0433147D01*
X0383335Y0432811D01*
X0383572Y0432401D01*
X0383695Y0431943D01*
X0383695Y0429814D01*
X0380062Y0429814D01*
X0380062Y0429347D01*
X0383695Y0429347D01*
X0383695Y0427217D01*
X0383572Y0426759D01*
X0383335Y0426349D01*
X0383000Y0426014D01*
X0382590Y0425777D01*
X0382132Y0425654D01*
X0380062Y0425654D01*
X0380062Y0429347D01*
X0379595Y0429347D01*
X0379595Y0425654D01*
X0378302Y0425654D01*
X0378927Y0425030D01*
X0378927Y0425030D01*
X0379114Y0424843D01*
X0379538Y0423818D01*
X0379701Y0423751D01*
X0379936Y0423516D01*
X0381484Y0423516D01*
X0381484Y0418849D01*
X0381656Y0418849D01*
X0381656Y0423516D01*
X0383579Y0423516D01*
X0384037Y0423393D01*
X0384447Y0423156D01*
X0384782Y0422821D01*
X0385019Y0422411D01*
X0385142Y0421953D01*
X0385142Y0418849D01*
X0381656Y0418849D01*
X0381656Y0418677D01*
X0381656Y0414011D01*
X0383579Y0414011D01*
X0384037Y0414133D01*
X0384447Y0414370D01*
X0384782Y0414705D01*
X0385019Y0415116D01*
X0385142Y0415574D01*
X0385142Y0418677D01*
X0381656Y0418677D01*
X0381484Y0418677D01*
X0381484Y0414011D01*
X0379936Y0414011D01*
X0379701Y0413776D01*
X0378819Y0413411D01*
X0374460Y0413411D01*
X0374774Y0413096D01*
X0375383Y0411626D01*
X0375383Y0410035D01*
X0374774Y0408564D01*
X0373649Y0407439D01*
X0372179Y0406830D01*
X0370588Y0406830D01*
X0369383Y0407329D01*
X0369383Y0405823D01*
X0378927Y0396280D01*
X0379383Y0395177D01*
X0379383Y0359737D01*
X0379774Y0359346D01*
X0380383Y0357876D01*
X0380383Y0356285D01*
X0379774Y0354814D01*
X0378649Y0353689D01*
X0377589Y0353250D01*
X0378819Y0353250D01*
X0379701Y0352884D01*
X0379936Y0352650D01*
X0381484Y0352650D01*
X0381484Y0347983D01*
X0381656Y0347983D01*
X0381656Y0352650D01*
X0383579Y0352650D01*
X0384037Y0352527D01*
X0384447Y0352290D01*
X0384782Y0351955D01*
X0385019Y0351545D01*
X0385142Y0351087D01*
X0385142Y0347983D01*
X0381656Y0347983D01*
X0381656Y0347811D01*
X0381656Y0343144D01*
X0383579Y0343144D01*
X0384037Y0343267D01*
X0384447Y0343504D01*
X0384782Y0343839D01*
X0385019Y0344250D01*
X0385142Y0344707D01*
X0385142Y0347811D01*
X0381656Y0347811D01*
X0381484Y0347811D01*
X0381484Y0343144D01*
X0379936Y0343144D01*
X0379890Y0343099D01*
X0382846Y0340143D01*
X0383333Y0338967D01*
X0383333Y0337064D01*
X0383658Y0336930D01*
X0384333Y0336255D01*
X0384699Y0335373D01*
X0384699Y0330481D01*
X0384333Y0329599D01*
X0384315Y0329580D01*
X0384333Y0329562D01*
X0384699Y0328680D01*
X0384699Y0323788D01*
X0384333Y0322906D01*
X0383658Y0322231D01*
X0383292Y0322079D01*
X0383524Y0321846D01*
X0384133Y0320376D01*
X0384133Y0318785D01*
X0383524Y0317314D01*
X0382399Y0316189D01*
X0380929Y0315580D01*
X0379338Y0315580D01*
X0377868Y0316189D01*
X0376742Y0317314D01*
X0376133Y0318785D01*
X0376133Y0320376D01*
X0376742Y0321846D01*
X0376975Y0322079D01*
X0376608Y0322231D01*
X0375933Y0322906D01*
X0375758Y0323328D01*
X0375583Y0322906D01*
X0374908Y0322231D01*
X0374026Y0321865D01*
X0368741Y0321865D01*
X0367858Y0322231D01*
X0367183Y0322906D01*
X0367130Y0323034D01*
X0359386Y0323034D01*
X0359333Y0322906D01*
X0358661Y0322234D01*
X0359899Y0321721D01*
X0361024Y0320596D01*
X0361383Y0319729D01*
X0361742Y0320596D01*
X0362868Y0321721D01*
X0364338Y0322330D01*
X0365929Y0322330D01*
X0367399Y0321721D01*
X0368524Y0320596D01*
X0369133Y0319126D01*
X0369133Y0318573D01*
X0374333Y0313373D01*
X0375177Y0312530D01*
X0375633Y0311427D01*
X0375633Y0302237D01*
X0376024Y0301846D01*
X0376633Y0300376D01*
X0376633Y0298785D01*
X0376024Y0297314D01*
X0374899Y0296189D01*
X0373429Y0295580D01*
X0371838Y0295580D01*
X0370368Y0296189D01*
X0369242Y0297314D01*
X0368633Y0298785D01*
X0368633Y0300376D01*
X0369242Y0301846D01*
X0369633Y0302237D01*
X0369633Y0309588D01*
X0364891Y0314330D01*
X0364338Y0314330D01*
X0362868Y0314939D01*
X0361883Y0315923D01*
X0361883Y0298237D01*
X0362868Y0299221D01*
X0364338Y0299830D01*
X0365929Y0299830D01*
X0367399Y0299221D01*
X0368524Y0298096D01*
X0369133Y0296626D01*
X0369133Y0295035D01*
X0368524Y0293564D01*
X0368292Y0293332D01*
X0368658Y0293180D01*
X0369333Y0292505D01*
X0369469Y0292177D01*
X0375797Y0292177D01*
X0375933Y0292505D01*
X0376608Y0293180D01*
X0377491Y0293545D01*
X0382133Y0293545D01*
X0382133Y0303476D01*
X0381618Y0303689D01*
X0380492Y0304814D01*
X0379883Y0306285D01*
X0379883Y0307876D01*
X0380492Y0309346D01*
X0381618Y0310471D01*
X0383088Y0311080D01*
X0384679Y0311080D01*
X0386149Y0310471D01*
X0386257Y0310363D01*
X0386257Y0486009D01*
X0080033Y0486009D01*
X0080033Y0485988D02*
X0386257Y0485988D01*
X0386257Y0484389D02*
X0314567Y0484389D01*
X0316165Y0482791D02*
X0386257Y0482791D01*
X0386257Y0481192D02*
X0317764Y0481192D01*
X0319362Y0479594D02*
X0386257Y0479594D01*
X0386257Y0477995D02*
X0320961Y0477995D01*
X0322559Y0476397D02*
X0386257Y0476397D01*
X0386257Y0474798D02*
X0324158Y0474798D01*
X0325756Y0473200D02*
X0367065Y0473200D01*
X0367281Y0473289D02*
X0364156Y0471995D01*
X0361764Y0469603D01*
X0360470Y0466478D01*
X0360470Y0463096D01*
X0361764Y0459971D01*
X0364156Y0457579D01*
X0367281Y0456285D01*
X0370663Y0456285D01*
X0373788Y0457579D01*
X0376180Y0459971D01*
X0377474Y0463096D01*
X0377474Y0466478D01*
X0376180Y0469603D01*
X0373788Y0471995D01*
X0370663Y0473289D01*
X0367281Y0473289D01*
X0370879Y0473200D02*
X0386257Y0473200D01*
X0386257Y0471601D02*
X0374182Y0471601D01*
X0375780Y0470003D02*
X0386257Y0470003D01*
X0386257Y0468404D02*
X0376676Y0468404D01*
X0377339Y0466806D02*
X0386257Y0466806D01*
X0386257Y0465207D02*
X0377474Y0465207D01*
X0377474Y0463609D02*
X0386257Y0463609D01*
X0386257Y0462010D02*
X0377025Y0462010D01*
X0376362Y0460412D02*
X0386257Y0460412D01*
X0386257Y0458813D02*
X0375022Y0458813D01*
X0372909Y0457215D02*
X0386257Y0457215D01*
X0386257Y0455616D02*
X0335633Y0455616D01*
X0335633Y0457215D02*
X0365035Y0457215D01*
X0362922Y0458813D02*
X0335633Y0458813D01*
X0335633Y0460412D02*
X0361581Y0460412D01*
X0360919Y0462010D02*
X0335633Y0462010D01*
X0335247Y0463609D02*
X0360470Y0463609D01*
X0360470Y0465207D02*
X0333749Y0465207D01*
X0332150Y0466806D02*
X0360605Y0466806D01*
X0361267Y0468404D02*
X0330552Y0468404D01*
X0328953Y0470003D02*
X0362164Y0470003D01*
X0363762Y0471601D02*
X0327355Y0471601D01*
X0319362Y0463609D02*
X0252016Y0463609D01*
X0252342Y0463283D02*
X0250823Y0464802D01*
X0248838Y0465624D01*
X0246690Y0465624D01*
X0244705Y0464802D01*
X0243186Y0463283D01*
X0242419Y0461431D01*
X0242212Y0462067D01*
X0241869Y0462740D01*
X0241425Y0463351D01*
X0240891Y0463886D01*
X0240280Y0464330D01*
X0239606Y0464673D01*
X0238888Y0464906D01*
X0238142Y0465024D01*
X0237964Y0465024D01*
X0237964Y0457424D01*
X0237564Y0457424D01*
X0237564Y0465024D01*
X0237386Y0465024D01*
X0236640Y0464906D01*
X0235921Y0464673D01*
X0235248Y0464330D01*
X0234637Y0463886D01*
X0234103Y0463351D01*
X0233659Y0462740D01*
X0233316Y0462067D01*
X0233109Y0461431D01*
X0232342Y0463283D01*
X0230823Y0464802D01*
X0228838Y0465624D01*
X0226690Y0465624D01*
X0224705Y0464802D01*
X0223186Y0463283D01*
X0222764Y0462264D01*
X0222342Y0463283D01*
X0220823Y0464802D01*
X0218838Y0465624D01*
X0216690Y0465624D01*
X0214705Y0464802D01*
X0213186Y0463283D01*
X0212364Y0461298D01*
X0212364Y0453150D01*
X0213186Y0451165D01*
X0214705Y0449646D01*
X0216690Y0448824D01*
X0218838Y0448824D01*
X0220823Y0449646D01*
X0222342Y0451165D01*
X0222764Y0452185D01*
X0223186Y0451165D01*
X0223364Y0450988D01*
X0223364Y0440913D01*
X0221330Y0438880D01*
X0214636Y0438880D01*
X0213754Y0438514D01*
X0213079Y0437839D01*
X0212714Y0436957D01*
X0212714Y0429703D01*
X0213079Y0428821D01*
X0213754Y0428146D01*
X0214636Y0427781D01*
X0219883Y0427781D01*
X0219883Y0400035D01*
X0220492Y0398564D01*
X0223633Y0395423D01*
X0223633Y0392993D01*
X0223188Y0392548D01*
X0222766Y0391529D01*
X0222344Y0392548D01*
X0220825Y0394067D01*
X0218840Y0394889D01*
X0216692Y0394889D01*
X0214707Y0394067D01*
X0213188Y0392548D01*
X0212366Y0390563D01*
X0212366Y0382415D01*
X0213188Y0380430D01*
X0214707Y0378911D01*
X0216692Y0378089D01*
X0218840Y0378089D01*
X0220825Y0378911D01*
X0222344Y0380430D01*
X0222766Y0381449D01*
X0223188Y0380430D01*
X0223233Y0380385D01*
X0223233Y0370783D01*
X0221330Y0368880D01*
X0214636Y0368880D01*
X0213754Y0368514D01*
X0213079Y0367839D01*
X0212714Y0366957D01*
X0212714Y0359703D01*
X0213079Y0358821D01*
X0213754Y0358146D01*
X0214636Y0357781D01*
X0229371Y0357781D01*
X0230253Y0358146D01*
X0230928Y0358821D01*
X0231293Y0359703D01*
X0231293Y0366397D01*
X0231363Y0366468D01*
X0231496Y0366600D01*
X0232166Y0368218D01*
X0232166Y0380252D01*
X0232344Y0380430D01*
X0233111Y0382282D01*
X0233318Y0381646D01*
X0233661Y0380973D01*
X0234105Y0380362D01*
X0234639Y0379828D01*
X0235250Y0379383D01*
X0235923Y0379040D01*
X0236642Y0378807D01*
X0237388Y0378689D01*
X0237566Y0378689D01*
X0237566Y0386289D01*
X0237966Y0386289D01*
X0237966Y0378689D01*
X0238144Y0378689D01*
X0238890Y0378807D01*
X0239609Y0379040D01*
X0240282Y0379383D01*
X0240893Y0379828D01*
X0241427Y0380362D01*
X0241871Y0380973D01*
X0242214Y0381646D01*
X0242421Y0382282D01*
X0243188Y0380430D01*
X0244707Y0378911D01*
X0246692Y0378089D01*
X0248840Y0378089D01*
X0250825Y0378911D01*
X0252344Y0380430D01*
X0253166Y0382415D01*
X0253166Y0390563D01*
X0252344Y0392548D01*
X0250825Y0394067D01*
X0248840Y0394889D01*
X0246692Y0394889D01*
X0244707Y0394067D01*
X0243188Y0392548D01*
X0242421Y0390695D01*
X0242214Y0391331D01*
X0241871Y0392005D01*
X0241427Y0392616D01*
X0240893Y0393150D01*
X0240282Y0393594D01*
X0239609Y0393937D01*
X0238890Y0394171D01*
X0238144Y0394289D01*
X0237966Y0394289D01*
X0237966Y0386689D01*
X0237566Y0386689D01*
X0237566Y0394289D01*
X0237388Y0394289D01*
X0236642Y0394171D01*
X0235923Y0393937D01*
X0235250Y0393594D01*
X0234639Y0393150D01*
X0234105Y0392616D01*
X0233661Y0392005D01*
X0233318Y0391331D01*
X0233111Y0390695D01*
X0232344Y0392548D01*
X0231633Y0393258D01*
X0231633Y0397876D01*
X0231024Y0399346D01*
X0229899Y0400471D01*
X0227883Y0402487D01*
X0227883Y0427781D01*
X0229371Y0427781D01*
X0230253Y0428146D01*
X0230928Y0428821D01*
X0231293Y0429703D01*
X0231293Y0436397D01*
X0231494Y0436598D01*
X0232164Y0438215D01*
X0232164Y0450988D01*
X0232342Y0451165D01*
X0233109Y0453018D01*
X0233316Y0452382D01*
X0233659Y0451709D01*
X0234103Y0451097D01*
X0234637Y0450563D01*
X0235248Y0450119D01*
X0235921Y0449776D01*
X0236640Y0449542D01*
X0237386Y0449424D01*
X0237564Y0449424D01*
X0237564Y0457024D01*
X0237964Y0457024D01*
X0237964Y0449424D01*
X0238142Y0449424D01*
X0238888Y0449542D01*
X0239606Y0449776D01*
X0240280Y0450119D01*
X0240891Y0450563D01*
X0241425Y0451097D01*
X0241869Y0451709D01*
X0242212Y0452382D01*
X0242419Y0453018D01*
X0243186Y0451165D01*
X0244705Y0449646D01*
X0246690Y0448824D01*
X0248838Y0448824D01*
X0250823Y0449646D01*
X0252342Y0451165D01*
X0253164Y0453150D01*
X0253164Y0461298D01*
X0252342Y0463283D01*
X0252869Y0462010D02*
X0320961Y0462010D01*
X0322559Y0460412D02*
X0253164Y0460412D01*
X0253164Y0458813D02*
X0324158Y0458813D01*
X0324633Y0458338D02*
X0324633Y0438758D01*
X0323858Y0439534D01*
X0322252Y0440199D01*
X0320514Y0440199D01*
X0318909Y0439534D01*
X0317680Y0438305D01*
X0317015Y0436699D01*
X0317015Y0434961D01*
X0317680Y0433356D01*
X0318383Y0432652D01*
X0318383Y0432230D01*
X0317252Y0432699D01*
X0315514Y0432699D01*
X0313909Y0432034D01*
X0312680Y0430805D01*
X0312015Y0429199D01*
X0312015Y0427461D01*
X0312680Y0425856D01*
X0313383Y0425152D01*
X0313383Y0423695D01*
X0312764Y0423076D01*
X0312399Y0422193D01*
X0312399Y0415333D01*
X0312764Y0414451D01*
X0313439Y0413776D01*
X0314321Y0413411D01*
X0318819Y0413411D01*
X0319070Y0413514D01*
X0319321Y0413411D01*
X0323819Y0413411D01*
X0324070Y0413514D01*
X0324321Y0413411D01*
X0328819Y0413411D01*
X0329070Y0413514D01*
X0329321Y0413411D01*
X0333383Y0413411D01*
X0333383Y0406483D01*
X0333840Y0405381D01*
X0340090Y0399131D01*
X0340934Y0398287D01*
X0342037Y0397830D01*
X0361391Y0397830D01*
X0362280Y0396941D01*
X0352055Y0396941D01*
X0352055Y0384130D01*
X0350455Y0384130D01*
X0350455Y0382530D01*
X0337644Y0382530D01*
X0337644Y0371282D01*
X0337767Y0370824D01*
X0338004Y0370414D01*
X0338339Y0370079D01*
X0338750Y0369842D01*
X0339207Y0369719D01*
X0350455Y0369719D01*
X0350455Y0382530D01*
X0352055Y0382530D01*
X0352055Y0369719D01*
X0363303Y0369719D01*
X0363761Y0369842D01*
X0364172Y0370079D01*
X0364507Y0370414D01*
X0364744Y0370824D01*
X0364866Y0371282D01*
X0364866Y0382530D01*
X0352055Y0382530D01*
X0352055Y0384130D01*
X0364866Y0384130D01*
X0364866Y0394355D01*
X0368383Y0390838D01*
X0368383Y0365987D01*
X0367992Y0365596D01*
X0367383Y0364126D01*
X0367383Y0362535D01*
X0367992Y0361064D01*
X0369118Y0359939D01*
X0370588Y0359330D01*
X0372179Y0359330D01*
X0373383Y0359829D01*
X0373383Y0359737D01*
X0372992Y0359346D01*
X0372383Y0357876D01*
X0372383Y0356285D01*
X0372992Y0354814D01*
X0374118Y0353689D01*
X0375178Y0353250D01*
X0374321Y0353250D01*
X0374070Y0353146D01*
X0373819Y0353250D01*
X0369570Y0353250D01*
X0369570Y0356240D01*
X0369114Y0357343D01*
X0365177Y0361280D01*
X0364333Y0362123D01*
X0363230Y0362580D01*
X0326376Y0362580D01*
X0322883Y0366073D01*
X0322883Y0366626D01*
X0322274Y0368096D01*
X0321149Y0369221D01*
X0320283Y0369580D01*
X0321149Y0369939D01*
X0322274Y0371064D01*
X0322883Y0372535D01*
X0322883Y0374126D01*
X0322274Y0375596D01*
X0321149Y0376721D01*
X0319679Y0377330D01*
X0318088Y0377330D01*
X0316618Y0376721D01*
X0316057Y0376161D01*
X0316057Y0378079D01*
X0315953Y0378330D01*
X0316057Y0378581D01*
X0316057Y0383079D01*
X0315953Y0383330D01*
X0316057Y0383581D01*
X0316057Y0388079D01*
X0315953Y0388330D01*
X0316057Y0388581D01*
X0316057Y0393079D01*
X0315953Y0393330D01*
X0316057Y0393581D01*
X0316057Y0398079D01*
X0315953Y0398330D01*
X0316057Y0398581D01*
X0316057Y0403079D01*
X0315692Y0403961D01*
X0315457Y0404196D01*
X0315457Y0405744D01*
X0310790Y0405744D01*
X0310790Y0405916D01*
X0315457Y0405916D01*
X0315457Y0407839D01*
X0315334Y0408297D01*
X0315097Y0408707D01*
X0314762Y0409042D01*
X0314352Y0409279D01*
X0313894Y0409402D01*
X0310790Y0409402D01*
X0310790Y0405916D01*
X0310618Y0405916D01*
X0310618Y0405744D01*
X0305951Y0405744D01*
X0305951Y0404196D01*
X0305786Y0404030D01*
X0305611Y0404030D01*
X0305108Y0404534D01*
X0303502Y0405199D01*
X0301764Y0405199D01*
X0300159Y0404534D01*
X0298930Y0403305D01*
X0298265Y0401699D01*
X0298265Y0400199D01*
X0296764Y0400199D01*
X0295159Y0399534D01*
X0293930Y0398305D01*
X0293265Y0396699D01*
X0293265Y0394961D01*
X0293930Y0393356D01*
X0295159Y0392127D01*
X0296764Y0391462D01*
X0298265Y0391462D01*
X0298265Y0390199D01*
X0296764Y0390199D01*
X0295159Y0389534D01*
X0293930Y0388305D01*
X0293265Y0386699D01*
X0293265Y0384961D01*
X0293930Y0383356D01*
X0295159Y0382127D01*
X0296764Y0381462D01*
X0298265Y0381462D01*
X0298265Y0380199D01*
X0296764Y0380199D01*
X0295159Y0379534D01*
X0293930Y0378305D01*
X0293265Y0376699D01*
X0293265Y0374961D01*
X0293930Y0373356D01*
X0295159Y0372127D01*
X0296764Y0371462D01*
X0298265Y0371462D01*
X0298265Y0369961D01*
X0298930Y0368356D01*
X0300159Y0367127D01*
X0301764Y0366462D01*
X0303502Y0366462D01*
X0305108Y0367127D01*
X0305351Y0367370D01*
X0305351Y0363581D01*
X0305455Y0363330D01*
X0305351Y0363079D01*
X0305351Y0358581D01*
X0305717Y0357699D01*
X0306392Y0357024D01*
X0307274Y0356659D01*
X0307704Y0356659D01*
X0307704Y0328413D01*
X0308161Y0327310D01*
X0315883Y0319588D01*
X0315883Y0291987D01*
X0315633Y0292237D01*
X0315633Y0311427D01*
X0315177Y0312530D01*
X0304133Y0323573D01*
X0304133Y0324126D01*
X0303524Y0325596D01*
X0302399Y0326721D01*
X0300929Y0327330D01*
X0299338Y0327330D01*
X0297868Y0326721D01*
X0297476Y0326330D01*
X0292037Y0326330D01*
X0290934Y0325873D01*
X0288434Y0323373D01*
X0287590Y0322530D01*
X0287133Y0321427D01*
X0287133Y0319955D01*
X0286534Y0319355D01*
X0286316Y0318830D01*
X0281183Y0318830D01*
X0280868Y0319590D01*
X0280193Y0320265D01*
X0279311Y0320630D01*
X0275956Y0320630D01*
X0275133Y0320289D01*
X0274311Y0320630D01*
X0270956Y0320630D01*
X0270133Y0320289D01*
X0269311Y0320630D01*
X0265956Y0320630D01*
X0265074Y0320265D01*
X0264648Y0319839D01*
X0264528Y0319908D01*
X0264070Y0320030D01*
X0262633Y0320030D01*
X0261196Y0320030D01*
X0260739Y0319908D01*
X0260328Y0319671D01*
X0259993Y0319335D01*
X0259756Y0318925D01*
X0259633Y0318467D01*
X0259633Y0314880D01*
X0259633Y0311293D01*
X0259756Y0310835D01*
X0259993Y0310425D01*
X0260328Y0310090D01*
X0260739Y0309853D01*
X0261196Y0309730D01*
X0262633Y0309730D01*
X0262633Y0314880D01*
X0259633Y0314880D01*
X0262633Y0314880D01*
X0262633Y0314880D01*
X0262633Y0314880D01*
X0262633Y0309730D01*
X0264070Y0309730D01*
X0264528Y0309853D01*
X0264633Y0309914D01*
X0264633Y0309573D01*
X0257391Y0302330D01*
X0256838Y0302330D01*
X0255638Y0301833D01*
X0255544Y0302062D01*
X0255061Y0302545D01*
X0255187Y0302763D01*
X0255309Y0303221D01*
X0255309Y0305292D01*
X0251617Y0305292D01*
X0251617Y0305759D01*
X0251150Y0305759D01*
X0251150Y0309392D01*
X0249020Y0309392D01*
X0248563Y0309269D01*
X0248152Y0309032D01*
X0247817Y0308697D01*
X0247580Y0308287D01*
X0247457Y0307829D01*
X0247457Y0305759D01*
X0251150Y0305759D01*
X0251150Y0305292D01*
X0247457Y0305292D01*
X0247457Y0303221D01*
X0247580Y0302763D01*
X0247706Y0302545D01*
X0247223Y0302062D01*
X0246857Y0301180D01*
X0246857Y0296091D01*
X0247223Y0295209D01*
X0247898Y0294534D01*
X0248383Y0294333D01*
X0248383Y0292733D01*
X0248840Y0291631D01*
X0249684Y0290787D01*
X0250934Y0289537D01*
X0252037Y0289080D01*
X0258230Y0289080D01*
X0259033Y0289413D01*
X0259033Y0285453D01*
X0259399Y0284571D01*
X0259633Y0284336D01*
X0259633Y0283073D01*
X0259333Y0283373D01*
X0254333Y0288373D01*
X0253230Y0288830D01*
X0245126Y0288830D01*
X0244383Y0289573D01*
X0244383Y0322088D01*
X0246626Y0324330D01*
X0247179Y0324330D01*
X0248649Y0324939D01*
X0249774Y0326064D01*
X0250383Y0327535D01*
X0250383Y0329126D01*
X0249774Y0330596D01*
X0248649Y0331721D01*
X0247179Y0332330D01*
X0245588Y0332330D01*
X0244118Y0331721D01*
X0242992Y0330596D01*
X0242383Y0329126D01*
X0242383Y0328573D01*
X0241633Y0327823D01*
X0241633Y0327876D01*
X0241024Y0329346D01*
X0239899Y0330471D01*
X0238429Y0331080D01*
X0236838Y0331080D01*
X0235368Y0330471D01*
X0234242Y0329346D01*
X0233633Y0327876D01*
X0233633Y0327323D01*
X0231340Y0325030D01*
X0230883Y0323927D01*
X0230883Y0283983D01*
X0231340Y0282881D01*
X0235934Y0278287D01*
X0237037Y0277830D01*
X0247133Y0277830D01*
X0247133Y0274737D01*
X0246742Y0274346D01*
X0246133Y0272876D01*
X0246133Y0271285D01*
X0246742Y0269814D01*
X0247576Y0268980D01*
X0211758Y0268980D01*
X0210141Y0268310D01*
X0190811Y0248980D01*
X0175783Y0248980D01*
X0175783Y0249211D01*
X0176776Y0249622D01*
X0177592Y0250437D01*
X0178033Y0251503D01*
X0178033Y0263907D01*
X0177592Y0264973D01*
X0176776Y0265789D01*
X0175710Y0266230D01*
X0175043Y0266230D01*
X0175043Y0273207D01*
X0174678Y0274089D01*
X0174003Y0274764D01*
X0173121Y0275130D01*
X0170383Y0275130D01*
X0170383Y0326680D01*
X0175710Y0326680D01*
X0176776Y0327122D01*
X0177592Y0327937D01*
X0178033Y0329003D01*
X0178033Y0336407D01*
X0177592Y0337473D01*
X0170092Y0344973D01*
X0169276Y0345789D01*
X0168210Y0346230D01*
X0158306Y0346230D01*
X0157241Y0345789D01*
X0156425Y0344973D01*
X0154741Y0343289D01*
X0153925Y0342473D01*
X0153483Y0341407D01*
X0153483Y0331503D01*
X0153925Y0330437D01*
X0156425Y0327937D01*
X0157241Y0327122D01*
X0158306Y0326680D01*
X0162383Y0326680D01*
X0162383Y0301230D01*
X0151783Y0301230D01*
X0151783Y0349629D01*
X0152585Y0350430D01*
X0158998Y0350430D01*
X0160064Y0350872D01*
X0160880Y0351687D01*
X0162402Y0353210D01*
X0163925Y0351687D01*
X0164741Y0350872D01*
X0165806Y0350430D01*
X0167376Y0350430D01*
X0167868Y0349939D01*
X0169338Y0349330D01*
X0170929Y0349330D01*
X0172399Y0349939D01*
X0173524Y0351064D01*
X0174133Y0352535D01*
X0174133Y0354126D01*
X0173524Y0355596D01*
X0172399Y0356721D01*
X0170929Y0357330D01*
X0169338Y0357330D01*
X0167868Y0356721D01*
X0167480Y0356334D01*
X0167016Y0356798D01*
X0167703Y0357083D01*
X0168379Y0357758D01*
X0168744Y0358640D01*
X0168744Y0361501D01*
X0169286Y0361501D01*
X0169546Y0361393D01*
X0186793Y0361393D01*
X0187896Y0361850D01*
X0195177Y0369131D01*
X0195633Y0370233D01*
X0195633Y0448338D01*
X0222626Y0475330D01*
X0307641Y0475330D01*
X0324633Y0458338D01*
X0324633Y0457215D02*
X0253164Y0457215D01*
X0253164Y0455616D02*
X0324633Y0455616D01*
X0324633Y0454018D02*
X0253164Y0454018D01*
X0252861Y0452419D02*
X0324633Y0452419D01*
X0324633Y0450821D02*
X0251997Y0450821D01*
X0249798Y0449222D02*
X0324633Y0449222D01*
X0324633Y0447624D02*
X0232164Y0447624D01*
X0232164Y0449222D02*
X0245729Y0449222D01*
X0243531Y0450821D02*
X0241148Y0450821D01*
X0242224Y0452419D02*
X0242667Y0452419D01*
X0237964Y0452419D02*
X0237564Y0452419D01*
X0237564Y0450821D02*
X0237964Y0450821D01*
X0237964Y0454018D02*
X0237564Y0454018D01*
X0237564Y0455616D02*
X0237964Y0455616D01*
X0237964Y0458813D02*
X0237564Y0458813D01*
X0237564Y0460412D02*
X0237964Y0460412D01*
X0237964Y0462010D02*
X0237564Y0462010D01*
X0237564Y0463609D02*
X0237964Y0463609D01*
X0241168Y0463609D02*
X0243511Y0463609D01*
X0242659Y0462010D02*
X0242231Y0462010D01*
X0245683Y0465207D02*
X0229845Y0465207D01*
X0232016Y0463609D02*
X0234360Y0463609D01*
X0233297Y0462010D02*
X0232869Y0462010D01*
X0225683Y0465207D02*
X0219845Y0465207D01*
X0222016Y0463609D02*
X0223511Y0463609D01*
X0217298Y0470003D02*
X0312968Y0470003D01*
X0311370Y0471601D02*
X0218897Y0471601D01*
X0220495Y0473200D02*
X0309771Y0473200D01*
X0308173Y0474798D02*
X0222094Y0474798D01*
X0215700Y0468404D02*
X0314567Y0468404D01*
X0316165Y0466806D02*
X0214101Y0466806D01*
X0215683Y0465207D02*
X0212503Y0465207D01*
X0213511Y0463609D02*
X0210904Y0463609D01*
X0209306Y0462010D02*
X0212659Y0462010D01*
X0212364Y0460412D02*
X0207707Y0460412D01*
X0206109Y0458813D02*
X0212364Y0458813D01*
X0212364Y0457215D02*
X0204510Y0457215D01*
X0202912Y0455616D02*
X0212364Y0455616D01*
X0212364Y0454018D02*
X0201313Y0454018D01*
X0199715Y0452419D02*
X0212667Y0452419D01*
X0213531Y0450821D02*
X0198116Y0450821D01*
X0196518Y0449222D02*
X0215729Y0449222D01*
X0219798Y0449222D02*
X0223364Y0449222D01*
X0223364Y0447624D02*
X0195633Y0447624D01*
X0195633Y0446025D02*
X0223364Y0446025D01*
X0223364Y0444427D02*
X0195633Y0444427D01*
X0195633Y0442828D02*
X0223364Y0442828D01*
X0223364Y0441229D02*
X0195633Y0441229D01*
X0195633Y0439631D02*
X0222082Y0439631D01*
X0213272Y0438032D02*
X0195633Y0438032D01*
X0195633Y0436434D02*
X0212714Y0436434D01*
X0212714Y0434835D02*
X0195633Y0434835D01*
X0195633Y0433237D02*
X0212714Y0433237D01*
X0212714Y0431638D02*
X0195633Y0431638D01*
X0195633Y0430040D02*
X0212714Y0430040D01*
X0213459Y0428441D02*
X0195633Y0428441D01*
X0195633Y0426843D02*
X0219883Y0426843D01*
X0219883Y0425244D02*
X0195633Y0425244D01*
X0195633Y0423646D02*
X0219883Y0423646D01*
X0219883Y0422047D02*
X0195633Y0422047D01*
X0195633Y0420449D02*
X0219883Y0420449D01*
X0219883Y0418850D02*
X0195633Y0418850D01*
X0195633Y0417252D02*
X0219883Y0417252D01*
X0219883Y0415653D02*
X0195633Y0415653D01*
X0195633Y0414055D02*
X0219883Y0414055D01*
X0219883Y0412456D02*
X0195633Y0412456D01*
X0195633Y0410858D02*
X0219883Y0410858D01*
X0219883Y0409259D02*
X0195633Y0409259D01*
X0195633Y0407661D02*
X0219883Y0407661D01*
X0219883Y0406062D02*
X0195633Y0406062D01*
X0195633Y0404464D02*
X0219883Y0404464D01*
X0219883Y0402865D02*
X0195633Y0402865D01*
X0195633Y0401267D02*
X0219883Y0401267D01*
X0220035Y0399668D02*
X0195633Y0399668D01*
X0195633Y0398070D02*
X0220987Y0398070D01*
X0222585Y0396471D02*
X0195633Y0396471D01*
X0195633Y0394873D02*
X0216653Y0394873D01*
X0218879Y0394873D02*
X0223633Y0394873D01*
X0223633Y0393274D02*
X0221617Y0393274D01*
X0222705Y0391676D02*
X0222827Y0391676D01*
X0231633Y0393274D02*
X0234810Y0393274D01*
X0233493Y0391676D02*
X0232705Y0391676D01*
X0231633Y0394873D02*
X0246653Y0394873D01*
X0248879Y0394873D02*
X0293302Y0394873D01*
X0293265Y0396471D02*
X0231633Y0396471D01*
X0231553Y0398070D02*
X0293833Y0398070D01*
X0295484Y0399668D02*
X0230702Y0399668D01*
X0229104Y0401267D02*
X0298265Y0401267D01*
X0298748Y0402865D02*
X0227883Y0402865D01*
X0227883Y0404464D02*
X0300089Y0404464D01*
X0302633Y0400830D02*
X0310704Y0400830D01*
X0310704Y0395830D02*
X0297633Y0395830D01*
X0296248Y0391676D02*
X0252705Y0391676D01*
X0253166Y0390077D02*
X0296471Y0390077D01*
X0294104Y0388479D02*
X0253166Y0388479D01*
X0253166Y0386880D02*
X0293340Y0386880D01*
X0293265Y0385282D02*
X0253166Y0385282D01*
X0253166Y0383683D02*
X0293794Y0383683D01*
X0295261Y0382085D02*
X0253029Y0382085D01*
X0252367Y0380486D02*
X0298265Y0380486D01*
X0294513Y0378888D02*
X0250768Y0378888D01*
X0244764Y0378888D02*
X0239138Y0378888D01*
X0237966Y0378888D02*
X0237566Y0378888D01*
X0236394Y0378888D02*
X0232166Y0378888D01*
X0232166Y0377289D02*
X0293509Y0377289D01*
X0293265Y0375691D02*
X0232166Y0375691D01*
X0232166Y0374092D02*
X0293625Y0374092D01*
X0294792Y0372494D02*
X0232166Y0372494D01*
X0232166Y0370895D02*
X0298265Y0370895D01*
X0298540Y0369296D02*
X0232166Y0369296D01*
X0231951Y0367698D02*
X0235046Y0367698D01*
X0234933Y0367585D02*
X0234696Y0367175D01*
X0234573Y0366717D01*
X0234573Y0364105D01*
X0242488Y0364105D01*
X0242488Y0362555D01*
X0234573Y0362555D01*
X0234573Y0359944D01*
X0234696Y0359486D01*
X0234933Y0359075D01*
X0235268Y0358740D01*
X0235679Y0358503D01*
X0236137Y0358381D01*
X0242488Y0358381D01*
X0242488Y0362555D01*
X0244038Y0362555D01*
X0244038Y0358381D01*
X0250390Y0358381D01*
X0250848Y0358503D01*
X0251258Y0358740D01*
X0251593Y0359075D01*
X0251830Y0359486D01*
X0251953Y0359944D01*
X0251953Y0362555D01*
X0244038Y0362555D01*
X0244038Y0364105D01*
X0242488Y0364105D01*
X0242488Y0368280D01*
X0236137Y0368280D01*
X0235679Y0368157D01*
X0235268Y0367920D01*
X0234933Y0367585D01*
X0234573Y0366099D02*
X0231293Y0366099D01*
X0231363Y0366468D02*
X0231363Y0366468D01*
X0231293Y0364501D02*
X0234573Y0364501D01*
X0234573Y0361304D02*
X0231293Y0361304D01*
X0231293Y0362902D02*
X0242488Y0362902D01*
X0244038Y0362902D02*
X0305351Y0362902D01*
X0305351Y0361304D02*
X0251953Y0361304D01*
X0251889Y0359705D02*
X0305351Y0359705D01*
X0305548Y0358107D02*
X0230158Y0358107D01*
X0231293Y0359705D02*
X0234637Y0359705D01*
X0242488Y0359705D02*
X0244038Y0359705D01*
X0244038Y0361304D02*
X0242488Y0361304D01*
X0242488Y0364501D02*
X0244038Y0364501D01*
X0244038Y0364105D02*
X0244038Y0368280D01*
X0250390Y0368280D01*
X0250848Y0368157D01*
X0251258Y0367920D01*
X0251593Y0367585D01*
X0251830Y0367175D01*
X0251953Y0366717D01*
X0251953Y0364105D01*
X0244038Y0364105D01*
X0244038Y0366099D02*
X0242488Y0366099D01*
X0242488Y0367698D02*
X0244038Y0367698D01*
X0251480Y0367698D02*
X0299588Y0367698D01*
X0302633Y0370830D02*
X0310704Y0370830D01*
X0310704Y0375830D02*
X0297633Y0375830D01*
X0302633Y0380830D02*
X0310704Y0380830D01*
X0310704Y0385830D02*
X0297633Y0385830D01*
X0302633Y0390830D02*
X0310704Y0390830D01*
X0316057Y0390077D02*
X0337644Y0390077D01*
X0337644Y0388479D02*
X0316014Y0388479D01*
X0316057Y0386880D02*
X0337644Y0386880D01*
X0337644Y0385282D02*
X0316057Y0385282D01*
X0316057Y0383683D02*
X0350455Y0383683D01*
X0350455Y0384130D02*
X0337644Y0384130D01*
X0337644Y0395378D01*
X0337767Y0395836D01*
X0338004Y0396246D01*
X0338339Y0396582D01*
X0338750Y0396819D01*
X0339207Y0396941D01*
X0350455Y0396941D01*
X0350455Y0384130D01*
X0351255Y0383330D02*
X0353755Y0385830D01*
X0352055Y0385282D02*
X0350455Y0385282D01*
X0350455Y0386880D02*
X0352055Y0386880D01*
X0352055Y0388479D02*
X0350455Y0388479D01*
X0350455Y0390077D02*
X0352055Y0390077D01*
X0352055Y0391676D02*
X0350455Y0391676D01*
X0350455Y0393274D02*
X0352055Y0393274D01*
X0352055Y0394873D02*
X0350455Y0394873D01*
X0350455Y0396471D02*
X0352055Y0396471D01*
X0341458Y0398070D02*
X0316057Y0398070D01*
X0316057Y0399668D02*
X0339553Y0399668D01*
X0337954Y0401267D02*
X0316057Y0401267D01*
X0316057Y0402865D02*
X0336356Y0402865D01*
X0334757Y0404464D02*
X0315457Y0404464D01*
X0315457Y0406062D02*
X0333558Y0406062D01*
X0333383Y0407661D02*
X0315457Y0407661D01*
X0314386Y0409259D02*
X0333383Y0409259D01*
X0333383Y0410858D02*
X0227883Y0410858D01*
X0227883Y0412456D02*
X0333383Y0412456D01*
X0338229Y0396471D02*
X0316057Y0396471D01*
X0316057Y0394873D02*
X0337644Y0394873D01*
X0337644Y0393274D02*
X0315976Y0393274D01*
X0316057Y0391676D02*
X0337644Y0391676D01*
X0337644Y0382085D02*
X0316057Y0382085D01*
X0316057Y0380486D02*
X0337644Y0380486D01*
X0337644Y0378888D02*
X0316057Y0378888D01*
X0316057Y0377289D02*
X0317988Y0377289D01*
X0319778Y0377289D02*
X0337644Y0377289D01*
X0337644Y0375691D02*
X0322180Y0375691D01*
X0322883Y0374092D02*
X0337644Y0374092D01*
X0337644Y0372494D02*
X0322866Y0372494D01*
X0322105Y0370895D02*
X0337748Y0370895D01*
X0350455Y0370895D02*
X0352055Y0370895D01*
X0352055Y0372494D02*
X0350455Y0372494D01*
X0350455Y0374092D02*
X0352055Y0374092D01*
X0352055Y0375691D02*
X0350455Y0375691D01*
X0350455Y0377289D02*
X0352055Y0377289D01*
X0352055Y0378888D02*
X0350455Y0378888D01*
X0350455Y0380486D02*
X0352055Y0380486D01*
X0352055Y0382085D02*
X0350455Y0382085D01*
X0352055Y0383683D02*
X0368383Y0383683D01*
X0368383Y0382085D02*
X0364866Y0382085D01*
X0364866Y0380486D02*
X0368383Y0380486D01*
X0368383Y0378888D02*
X0364866Y0378888D01*
X0364866Y0377289D02*
X0368383Y0377289D01*
X0368383Y0375691D02*
X0364866Y0375691D01*
X0364866Y0374092D02*
X0368383Y0374092D01*
X0368383Y0372494D02*
X0364866Y0372494D01*
X0364763Y0370895D02*
X0368383Y0370895D01*
X0368383Y0369296D02*
X0320967Y0369296D01*
X0322439Y0367698D02*
X0368383Y0367698D01*
X0368383Y0366099D02*
X0322883Y0366099D01*
X0324455Y0364501D02*
X0367539Y0364501D01*
X0367383Y0362902D02*
X0326054Y0362902D01*
X0307704Y0356508D02*
X0172612Y0356508D01*
X0173809Y0354910D02*
X0307704Y0354910D01*
X0307704Y0353311D02*
X0174133Y0353311D01*
X0173793Y0351713D02*
X0307704Y0351713D01*
X0307704Y0350114D02*
X0172574Y0350114D01*
X0170133Y0348330D02*
X0182633Y0335830D01*
X0205133Y0335830D01*
X0210133Y0330830D01*
X0210133Y0330200D01*
X0210133Y0328330D02*
X0211383Y0327080D01*
X0200526Y0310789D02*
X0199460Y0311230D01*
X0187890Y0311230D01*
X0187399Y0311721D01*
X0185929Y0312330D01*
X0184338Y0312330D01*
X0182868Y0311721D01*
X0181742Y0310596D01*
X0181133Y0309126D01*
X0181133Y0307535D01*
X0181742Y0306064D01*
X0182868Y0304939D01*
X0184338Y0304330D01*
X0185929Y0304330D01*
X0187399Y0304939D01*
X0187890Y0305430D01*
X0197682Y0305430D01*
X0199883Y0303229D01*
X0199883Y0302535D01*
X0200492Y0301064D01*
X0201618Y0299939D01*
X0203088Y0299330D01*
X0204679Y0299330D01*
X0206149Y0299939D01*
X0207274Y0301064D01*
X0207883Y0302535D01*
X0207883Y0304126D01*
X0207274Y0305596D01*
X0206149Y0306721D01*
X0204679Y0307330D01*
X0203985Y0307330D01*
X0201342Y0309973D01*
X0200526Y0310789D01*
X0201163Y0310152D02*
X0230883Y0310152D01*
X0230883Y0311750D02*
X0187330Y0311750D01*
X0182937Y0311750D02*
X0170383Y0311750D01*
X0170383Y0310152D02*
X0181558Y0310152D01*
X0181133Y0308553D02*
X0170383Y0308553D01*
X0170383Y0306955D02*
X0181374Y0306955D01*
X0182451Y0305356D02*
X0170383Y0305356D01*
X0170383Y0303758D02*
X0199355Y0303758D01*
X0200039Y0302159D02*
X0170383Y0302159D01*
X0170383Y0300560D02*
X0174333Y0300560D01*
X0174118Y0300471D02*
X0175588Y0301080D01*
X0177179Y0301080D01*
X0178649Y0300471D01*
X0179040Y0300080D01*
X0188230Y0300080D01*
X0189333Y0299623D01*
X0190177Y0298780D01*
X0195177Y0293780D01*
X0195633Y0292677D01*
X0195633Y0280823D01*
X0198801Y0277655D01*
X0199118Y0277971D01*
X0200588Y0278580D01*
X0202179Y0278580D01*
X0203649Y0277971D01*
X0204774Y0276846D01*
X0205383Y0275376D01*
X0205383Y0273785D01*
X0204774Y0272314D01*
X0203649Y0271189D01*
X0202479Y0270705D01*
X0202483Y0270704D01*
X0203168Y0270420D01*
X0203786Y0270007D01*
X0204311Y0269482D01*
X0204723Y0268865D01*
X0205007Y0268179D01*
X0205152Y0267451D01*
X0205152Y0267264D01*
X0201568Y0267264D01*
X0201568Y0266896D01*
X0205152Y0266896D01*
X0205152Y0266709D01*
X0205007Y0265981D01*
X0204723Y0265295D01*
X0204311Y0264678D01*
X0203786Y0264153D01*
X0203168Y0263741D01*
X0202483Y0263457D01*
X0201754Y0263312D01*
X0201568Y0263312D01*
X0201568Y0266896D01*
X0201199Y0266896D01*
X0197615Y0266896D01*
X0197615Y0266709D01*
X0197760Y0265981D01*
X0198044Y0265295D01*
X0198456Y0264678D01*
X0198981Y0264153D01*
X0199598Y0263741D01*
X0200284Y0263457D01*
X0201012Y0263312D01*
X0201199Y0263312D01*
X0201199Y0266896D01*
X0201199Y0267264D01*
X0197615Y0267264D01*
X0197615Y0267451D01*
X0197760Y0268179D01*
X0198044Y0268865D01*
X0198456Y0269482D01*
X0198981Y0270007D01*
X0199598Y0270420D01*
X0200284Y0270704D01*
X0200287Y0270705D01*
X0199118Y0271189D01*
X0198726Y0271580D01*
X0197037Y0271580D01*
X0195934Y0272037D01*
X0195703Y0272268D01*
X0195703Y0270355D01*
X0187788Y0270355D01*
X0186238Y0270355D01*
X0186238Y0268805D01*
X0187788Y0268805D01*
X0187788Y0264631D01*
X0194140Y0264631D01*
X0194598Y0264753D01*
X0195008Y0264990D01*
X0195343Y0265325D01*
X0195580Y0265736D01*
X0195703Y0266194D01*
X0195703Y0268805D01*
X0187788Y0268805D01*
X0187788Y0270355D01*
X0187788Y0274530D01*
X0193441Y0274530D01*
X0190934Y0277037D01*
X0190090Y0277881D01*
X0189633Y0278983D01*
X0189633Y0290838D01*
X0186391Y0294080D01*
X0179040Y0294080D01*
X0178649Y0293689D01*
X0177179Y0293080D01*
X0175588Y0293080D01*
X0174118Y0293689D01*
X0172992Y0294814D01*
X0172383Y0296285D01*
X0172383Y0297876D01*
X0172992Y0299346D01*
X0174118Y0300471D01*
X0172833Y0298962D02*
X0170383Y0298962D01*
X0170383Y0297363D02*
X0172383Y0297363D01*
X0172599Y0295765D02*
X0170383Y0295765D01*
X0170383Y0294166D02*
X0173640Y0294166D01*
X0170383Y0292568D02*
X0187903Y0292568D01*
X0189501Y0290969D02*
X0170383Y0290969D01*
X0170383Y0289371D02*
X0189633Y0289371D01*
X0189633Y0287772D02*
X0170383Y0287772D01*
X0170383Y0286174D02*
X0189633Y0286174D01*
X0189633Y0284575D02*
X0170383Y0284575D01*
X0170383Y0282977D02*
X0189633Y0282977D01*
X0189633Y0281378D02*
X0170383Y0281378D01*
X0170383Y0279780D02*
X0189633Y0279780D01*
X0189966Y0278181D02*
X0170383Y0278181D01*
X0170383Y0276583D02*
X0191388Y0276583D01*
X0192987Y0274984D02*
X0173472Y0274984D01*
X0174969Y0273386D02*
X0178436Y0273386D01*
X0178446Y0273425D02*
X0178323Y0272967D01*
X0178323Y0270355D01*
X0186238Y0270355D01*
X0186238Y0274530D01*
X0179887Y0274530D01*
X0179429Y0274407D01*
X0179018Y0274170D01*
X0178683Y0273835D01*
X0178446Y0273425D01*
X0178323Y0271787D02*
X0175043Y0271787D01*
X0175043Y0270189D02*
X0186238Y0270189D01*
X0186238Y0268805D02*
X0178323Y0268805D01*
X0178323Y0266194D01*
X0178446Y0265736D01*
X0178683Y0265325D01*
X0179018Y0264990D01*
X0179429Y0264753D01*
X0179887Y0264631D01*
X0186238Y0264631D01*
X0186238Y0268805D01*
X0186238Y0268590D02*
X0187788Y0268590D01*
X0187788Y0266992D02*
X0186238Y0266992D01*
X0186238Y0265393D02*
X0187788Y0265393D01*
X0187788Y0270189D02*
X0199253Y0270189D01*
X0201199Y0270189D02*
X0201568Y0270189D01*
X0201568Y0270580D02*
X0201568Y0267265D01*
X0201199Y0267265D01*
X0201199Y0270580D01*
X0201568Y0270580D01*
X0203514Y0270189D02*
X0246587Y0270189D01*
X0246133Y0271787D02*
X0204247Y0271787D01*
X0205218Y0273386D02*
X0246345Y0273386D01*
X0247133Y0274984D02*
X0205383Y0274984D01*
X0204883Y0276583D02*
X0247133Y0276583D01*
X0244585Y0289371D02*
X0251335Y0289371D01*
X0249501Y0290969D02*
X0244383Y0290969D01*
X0244383Y0292568D02*
X0248452Y0292568D01*
X0248383Y0294166D02*
X0244383Y0294166D01*
X0244383Y0295765D02*
X0246992Y0295765D01*
X0246857Y0297363D02*
X0244383Y0297363D01*
X0244383Y0298962D02*
X0246857Y0298962D01*
X0246857Y0300560D02*
X0244383Y0300560D01*
X0244383Y0302159D02*
X0247320Y0302159D01*
X0247457Y0303758D02*
X0244383Y0303758D01*
X0244383Y0305356D02*
X0251150Y0305356D01*
X0251617Y0305356D02*
X0260417Y0305356D01*
X0262015Y0306955D02*
X0255309Y0306955D01*
X0255309Y0307829D02*
X0255187Y0308287D01*
X0254950Y0308697D01*
X0254615Y0309032D01*
X0254204Y0309269D01*
X0253746Y0309392D01*
X0251617Y0309392D01*
X0251617Y0305759D01*
X0255309Y0305759D01*
X0255309Y0307829D01*
X0255033Y0308553D02*
X0263614Y0308553D01*
X0262633Y0310152D02*
X0262633Y0310152D01*
X0262633Y0311750D02*
X0262633Y0311750D01*
X0262633Y0313349D02*
X0262633Y0313349D01*
X0262633Y0314880D02*
X0262633Y0320830D01*
X0246383Y0337080D01*
X0231383Y0337080D01*
X0224198Y0344265D01*
X0213848Y0358107D02*
X0168523Y0358107D01*
X0168744Y0359705D02*
X0212714Y0359705D01*
X0212714Y0361304D02*
X0168744Y0361304D01*
X0167655Y0356508D02*
X0167306Y0356508D01*
X0163899Y0351713D02*
X0160905Y0351713D01*
X0157220Y0356230D02*
X0150806Y0356230D01*
X0149741Y0355789D01*
X0148033Y0354081D01*
X0148033Y0358671D01*
X0152767Y0363404D01*
X0152940Y0363404D01*
X0152993Y0363206D01*
X0153230Y0362796D01*
X0153566Y0362461D01*
X0153976Y0362224D01*
X0154434Y0362101D01*
X0157623Y0362101D01*
X0157623Y0363404D01*
X0157624Y0363404D01*
X0157624Y0362101D01*
X0159009Y0362101D01*
X0159009Y0358019D01*
X0157220Y0356230D01*
X0157498Y0356508D02*
X0148033Y0356508D01*
X0148033Y0354910D02*
X0148862Y0354910D01*
X0148033Y0358107D02*
X0159009Y0358107D01*
X0159009Y0359705D02*
X0149068Y0359705D01*
X0150667Y0361304D02*
X0159009Y0361304D01*
X0157624Y0362902D02*
X0157623Y0362902D01*
X0153169Y0362902D02*
X0152265Y0362902D01*
X0145661Y0364501D02*
X0080033Y0364501D01*
X0080033Y0366099D02*
X0134681Y0366099D01*
X0134072Y0367698D02*
X0080033Y0367698D01*
X0080033Y0369296D02*
X0134072Y0369296D01*
X0134072Y0370895D02*
X0080033Y0370895D01*
X0080033Y0372494D02*
X0134248Y0372494D01*
X0134291Y0374092D02*
X0080033Y0374092D01*
X0080033Y0375691D02*
X0134072Y0375691D01*
X0134072Y0378888D02*
X0080033Y0378888D01*
X0080033Y0380486D02*
X0134606Y0380486D01*
X0134107Y0382085D02*
X0132590Y0382085D01*
X0132849Y0383683D02*
X0134072Y0383683D01*
X0134072Y0385282D02*
X0132849Y0385282D01*
X0132849Y0386880D02*
X0134072Y0386880D01*
X0133137Y0388479D02*
X0135532Y0388479D01*
X0137705Y0388479D02*
X0138172Y0388479D01*
X0138172Y0386880D02*
X0137705Y0386880D01*
X0137705Y0385282D02*
X0138172Y0385282D01*
X0138172Y0383683D02*
X0137705Y0383683D01*
X0137705Y0382085D02*
X0138172Y0382085D01*
X0138172Y0380486D02*
X0137705Y0380486D01*
X0137705Y0378888D02*
X0138172Y0378888D01*
X0137705Y0377289D02*
X0080033Y0377289D01*
X0080033Y0382085D02*
X0125177Y0382085D01*
X0124918Y0383683D02*
X0080033Y0383683D01*
X0080033Y0385282D02*
X0124918Y0385282D01*
X0124918Y0386880D02*
X0080033Y0386880D01*
X0080033Y0388479D02*
X0124630Y0388479D01*
X0124318Y0390077D02*
X0080033Y0390077D01*
X0080033Y0391676D02*
X0124318Y0391676D01*
X0124318Y0393274D02*
X0080033Y0393274D01*
X0080033Y0394873D02*
X0124629Y0394873D01*
X0130987Y0398070D02*
X0080033Y0398070D01*
X0080033Y0399668D02*
X0130035Y0399668D01*
X0129883Y0401267D02*
X0080033Y0401267D01*
X0080033Y0402865D02*
X0130397Y0402865D01*
X0132203Y0404464D02*
X0080033Y0404464D01*
X0080033Y0406062D02*
X0137050Y0406062D01*
X0135564Y0404464D02*
X0140730Y0404464D01*
X0140730Y0402865D02*
X0137370Y0402865D01*
X0137883Y0401267D02*
X0140730Y0401267D01*
X0140730Y0399668D02*
X0139147Y0399668D01*
X0140599Y0398070D02*
X0140730Y0398070D01*
X0133875Y0396471D02*
X0080033Y0396471D01*
X0080033Y0407661D02*
X0135452Y0407661D01*
X0133853Y0409259D02*
X0080033Y0409259D01*
X0080033Y0410858D02*
X0132501Y0410858D01*
X0132233Y0412456D02*
X0080033Y0412456D01*
X0080033Y0414055D02*
X0132233Y0414055D01*
X0132233Y0415653D02*
X0080033Y0415653D01*
X0080033Y0417252D02*
X0132233Y0417252D01*
X0132233Y0418850D02*
X0080033Y0418850D01*
X0080033Y0420449D02*
X0132233Y0420449D01*
X0132233Y0422047D02*
X0080033Y0422047D01*
X0080033Y0423646D02*
X0132233Y0423646D01*
X0132233Y0425244D02*
X0080033Y0425244D01*
X0080033Y0426843D02*
X0132233Y0426843D01*
X0132233Y0428441D02*
X0080033Y0428441D01*
X0080033Y0430040D02*
X0132233Y0430040D01*
X0133090Y0431638D02*
X0080033Y0431638D01*
X0080033Y0433237D02*
X0134689Y0433237D01*
X0154328Y0433237D02*
X0184633Y0433237D01*
X0184633Y0434835D02*
X0080033Y0434835D01*
X0080033Y0436434D02*
X0184633Y0436434D01*
X0184633Y0438032D02*
X0080033Y0438032D01*
X0080033Y0439631D02*
X0184633Y0439631D01*
X0184633Y0441229D02*
X0080033Y0441229D01*
X0080033Y0442828D02*
X0184633Y0442828D01*
X0184633Y0444427D02*
X0080033Y0444427D01*
X0080033Y0446025D02*
X0184633Y0446025D01*
X0184633Y0447624D02*
X0080033Y0447624D01*
X0080033Y0449222D02*
X0184633Y0449222D01*
X0184633Y0450821D02*
X0080033Y0450821D01*
X0080033Y0452419D02*
X0185044Y0452419D01*
X0186578Y0454018D02*
X0080033Y0454018D01*
X0080033Y0455616D02*
X0188177Y0455616D01*
X0189775Y0457215D02*
X0101255Y0457215D01*
X0102135Y0457579D02*
X0104526Y0459971D01*
X0105821Y0463096D01*
X0105821Y0466478D01*
X0104526Y0469603D01*
X0102135Y0471995D01*
X0099010Y0473289D01*
X0095627Y0473289D01*
X0092502Y0471995D01*
X0090110Y0469603D01*
X0088816Y0466478D01*
X0088816Y0463096D01*
X0090110Y0459971D01*
X0092502Y0457579D01*
X0095627Y0456285D01*
X0099010Y0456285D01*
X0102135Y0457579D01*
X0103369Y0458813D02*
X0191374Y0458813D01*
X0192972Y0460412D02*
X0104709Y0460412D01*
X0105371Y0462010D02*
X0194571Y0462010D01*
X0196169Y0463609D02*
X0105821Y0463609D01*
X0105821Y0465207D02*
X0197768Y0465207D01*
X0199366Y0466806D02*
X0105685Y0466806D01*
X0105023Y0468404D02*
X0200965Y0468404D01*
X0202563Y0470003D02*
X0104127Y0470003D01*
X0102528Y0471601D02*
X0204162Y0471601D01*
X0205760Y0473200D02*
X0099226Y0473200D01*
X0095411Y0473200D02*
X0080033Y0473200D01*
X0080033Y0474798D02*
X0207359Y0474798D01*
X0208957Y0476397D02*
X0080033Y0476397D01*
X0080033Y0477995D02*
X0210556Y0477995D01*
X0212154Y0479594D02*
X0080033Y0479594D01*
X0080033Y0481192D02*
X0213753Y0481192D01*
X0215351Y0482791D02*
X0080033Y0482791D01*
X0080033Y0484389D02*
X0216950Y0484389D01*
X0232861Y0452419D02*
X0233303Y0452419D01*
X0234379Y0450821D02*
X0232164Y0450821D01*
X0232164Y0446025D02*
X0324633Y0446025D01*
X0324633Y0444427D02*
X0232164Y0444427D01*
X0232164Y0442828D02*
X0324633Y0442828D01*
X0324633Y0441229D02*
X0232164Y0441229D01*
X0232164Y0439631D02*
X0319144Y0439631D01*
X0317567Y0438032D02*
X0251064Y0438032D01*
X0251258Y0437920D02*
X0250848Y0438157D01*
X0250390Y0438280D01*
X0244038Y0438280D01*
X0244038Y0434105D01*
X0242488Y0434105D01*
X0242488Y0432555D01*
X0234573Y0432555D01*
X0234573Y0429944D01*
X0234696Y0429486D01*
X0234933Y0429075D01*
X0235268Y0428740D01*
X0235679Y0428503D01*
X0236137Y0428381D01*
X0242488Y0428381D01*
X0242488Y0432555D01*
X0244038Y0432555D01*
X0244038Y0428381D01*
X0250390Y0428381D01*
X0250848Y0428503D01*
X0251258Y0428740D01*
X0251593Y0429075D01*
X0251830Y0429486D01*
X0251953Y0429944D01*
X0251953Y0432555D01*
X0244038Y0432555D01*
X0244038Y0434105D01*
X0251953Y0434105D01*
X0251953Y0436717D01*
X0251830Y0437175D01*
X0251593Y0437585D01*
X0251258Y0437920D01*
X0251953Y0436434D02*
X0317015Y0436434D01*
X0317067Y0434835D02*
X0251953Y0434835D01*
X0251953Y0431638D02*
X0313514Y0431638D01*
X0312363Y0430040D02*
X0251953Y0430040D01*
X0250617Y0428441D02*
X0312015Y0428441D01*
X0312271Y0426843D02*
X0227883Y0426843D01*
X0227883Y0425244D02*
X0313291Y0425244D01*
X0313334Y0423646D02*
X0227883Y0423646D01*
X0227883Y0422047D02*
X0312399Y0422047D01*
X0312399Y0420449D02*
X0227883Y0420449D01*
X0227883Y0418850D02*
X0312399Y0418850D01*
X0312399Y0417252D02*
X0227883Y0417252D01*
X0227883Y0415653D02*
X0312399Y0415653D01*
X0313160Y0414055D02*
X0227883Y0414055D01*
X0227883Y0409259D02*
X0307022Y0409259D01*
X0307057Y0409279D02*
X0306646Y0409042D01*
X0306311Y0408707D01*
X0306074Y0408297D01*
X0305951Y0407839D01*
X0305951Y0405916D01*
X0310618Y0405916D01*
X0310618Y0409402D01*
X0307514Y0409402D01*
X0307057Y0409279D01*
X0305951Y0407661D02*
X0227883Y0407661D01*
X0227883Y0406062D02*
X0305951Y0406062D01*
X0305951Y0404464D02*
X0305178Y0404464D01*
X0310618Y0406062D02*
X0310790Y0406062D01*
X0310790Y0407661D02*
X0310618Y0407661D01*
X0310618Y0409259D02*
X0310790Y0409259D01*
X0294011Y0393274D02*
X0251617Y0393274D01*
X0243915Y0393274D02*
X0240722Y0393274D01*
X0242039Y0391676D02*
X0242827Y0391676D01*
X0237966Y0391676D02*
X0237566Y0391676D01*
X0237566Y0393274D02*
X0237966Y0393274D01*
X0237966Y0390077D02*
X0237566Y0390077D01*
X0237566Y0388479D02*
X0237966Y0388479D01*
X0237966Y0386880D02*
X0237566Y0386880D01*
X0237566Y0385282D02*
X0237966Y0385282D01*
X0237966Y0383683D02*
X0237566Y0383683D01*
X0237566Y0382085D02*
X0237966Y0382085D01*
X0237966Y0380486D02*
X0237566Y0380486D01*
X0234015Y0380486D02*
X0232367Y0380486D01*
X0233029Y0382085D02*
X0233175Y0382085D01*
X0241518Y0380486D02*
X0243165Y0380486D01*
X0242503Y0382085D02*
X0242357Y0382085D01*
X0251953Y0366099D02*
X0305351Y0366099D01*
X0305351Y0364501D02*
X0251953Y0364501D01*
X0223233Y0370895D02*
X0195633Y0370895D01*
X0195633Y0372494D02*
X0223233Y0372494D01*
X0223233Y0374092D02*
X0195633Y0374092D01*
X0195633Y0375691D02*
X0223233Y0375691D01*
X0223233Y0377289D02*
X0195633Y0377289D01*
X0195633Y0378888D02*
X0214764Y0378888D01*
X0213165Y0380486D02*
X0195633Y0380486D01*
X0195633Y0382085D02*
X0212503Y0382085D01*
X0212366Y0383683D02*
X0195633Y0383683D01*
X0195633Y0385282D02*
X0212366Y0385282D01*
X0212366Y0386880D02*
X0195633Y0386880D01*
X0195633Y0388479D02*
X0212366Y0388479D01*
X0212366Y0390077D02*
X0195633Y0390077D01*
X0195633Y0391676D02*
X0212827Y0391676D01*
X0213915Y0393274D02*
X0195633Y0393274D01*
X0184633Y0393274D02*
X0149098Y0393274D01*
X0149098Y0391676D02*
X0164378Y0391676D01*
X0162779Y0390077D02*
X0148845Y0390077D01*
X0149098Y0394873D02*
X0184633Y0394873D01*
X0184633Y0396471D02*
X0148892Y0396471D01*
X0148730Y0398070D02*
X0184633Y0398070D01*
X0184633Y0399668D02*
X0148730Y0399668D01*
X0148730Y0401267D02*
X0184633Y0401267D01*
X0184633Y0402865D02*
X0148730Y0402865D01*
X0148730Y0404464D02*
X0184633Y0404464D01*
X0184633Y0406062D02*
X0151967Y0406062D01*
X0153565Y0407661D02*
X0184633Y0407661D01*
X0184633Y0409259D02*
X0155164Y0409259D01*
X0156516Y0410858D02*
X0184633Y0410858D01*
X0184633Y0412456D02*
X0156783Y0412456D01*
X0156783Y0414055D02*
X0184633Y0414055D01*
X0184633Y0415653D02*
X0156783Y0415653D01*
X0156783Y0417252D02*
X0184633Y0417252D01*
X0184633Y0418850D02*
X0156783Y0418850D01*
X0156783Y0420449D02*
X0184633Y0420449D01*
X0184633Y0422047D02*
X0156783Y0422047D01*
X0156783Y0423646D02*
X0184633Y0423646D01*
X0184633Y0425244D02*
X0156783Y0425244D01*
X0156783Y0426843D02*
X0184633Y0426843D01*
X0184633Y0428441D02*
X0156783Y0428441D01*
X0156783Y0430040D02*
X0184633Y0430040D01*
X0184633Y0431638D02*
X0155926Y0431638D01*
X0140730Y0388479D02*
X0140345Y0388479D01*
X0133921Y0390077D02*
X0133449Y0390077D01*
X0129068Y0383683D02*
X0128699Y0383683D01*
X0128699Y0382085D02*
X0129068Y0382085D01*
X0137705Y0375691D02*
X0138172Y0375691D01*
X0138172Y0374092D02*
X0137705Y0374092D01*
X0137705Y0372494D02*
X0138172Y0372494D01*
X0138172Y0370895D02*
X0137705Y0370895D01*
X0137705Y0369296D02*
X0138172Y0369296D01*
X0138172Y0367698D02*
X0137705Y0367698D01*
X0137705Y0366099D02*
X0138172Y0366099D01*
X0142588Y0361304D02*
X0080033Y0361304D01*
X0080033Y0362902D02*
X0144063Y0362902D01*
X0142233Y0359705D02*
X0080033Y0359705D01*
X0080033Y0358107D02*
X0142233Y0358107D01*
X0142233Y0356508D02*
X0080033Y0356508D01*
X0080033Y0354910D02*
X0142233Y0354910D01*
X0142233Y0353311D02*
X0080033Y0353311D01*
X0080033Y0351713D02*
X0142233Y0351713D01*
X0142233Y0350114D02*
X0080033Y0350114D01*
X0080033Y0348516D02*
X0142233Y0348516D01*
X0142233Y0346917D02*
X0080033Y0346917D01*
X0080033Y0345319D02*
X0142233Y0345319D01*
X0142233Y0343720D02*
X0080033Y0343720D01*
X0080033Y0342122D02*
X0142233Y0342122D01*
X0142233Y0340523D02*
X0080033Y0340523D01*
X0080033Y0338925D02*
X0142233Y0338925D01*
X0142233Y0337326D02*
X0080033Y0337326D01*
X0080033Y0335728D02*
X0142233Y0335728D01*
X0142233Y0334129D02*
X0080033Y0334129D01*
X0080033Y0332531D02*
X0142233Y0332531D01*
X0142233Y0330932D02*
X0080033Y0330932D01*
X0080033Y0329334D02*
X0142233Y0329334D01*
X0142233Y0327735D02*
X0080033Y0327735D01*
X0080033Y0326137D02*
X0142233Y0326137D01*
X0142233Y0324538D02*
X0080033Y0324538D01*
X0080033Y0322940D02*
X0142233Y0322940D01*
X0142233Y0321341D02*
X0080033Y0321341D01*
X0080033Y0319743D02*
X0142233Y0319743D01*
X0142233Y0318144D02*
X0080033Y0318144D01*
X0080033Y0316546D02*
X0142233Y0316546D01*
X0142233Y0314947D02*
X0080033Y0314947D01*
X0080033Y0313349D02*
X0142233Y0313349D01*
X0142233Y0311750D02*
X0080033Y0311750D01*
X0080033Y0310152D02*
X0142233Y0310152D01*
X0142233Y0308553D02*
X0080033Y0308553D01*
X0080033Y0306955D02*
X0142233Y0306955D01*
X0142233Y0305356D02*
X0080033Y0305356D01*
X0080033Y0303758D02*
X0142233Y0303758D01*
X0142233Y0302159D02*
X0138976Y0302159D01*
X0138884Y0302252D02*
X0136642Y0303180D01*
X0134215Y0303180D01*
X0131973Y0302252D01*
X0130257Y0300536D01*
X0129329Y0298294D01*
X0129329Y0295867D01*
X0130257Y0293625D01*
X0131973Y0291909D01*
X0134215Y0290980D01*
X0136642Y0290980D01*
X0138884Y0291909D01*
X0140600Y0293625D01*
X0141529Y0295867D01*
X0141529Y0298294D01*
X0140600Y0300536D01*
X0138884Y0302252D01*
X0140575Y0300560D02*
X0142233Y0300560D01*
X0142233Y0298962D02*
X0141252Y0298962D01*
X0141529Y0297363D02*
X0142233Y0297363D01*
X0142233Y0295765D02*
X0141486Y0295765D01*
X0140824Y0294166D02*
X0142233Y0294166D01*
X0142233Y0292568D02*
X0139543Y0292568D01*
X0142233Y0290969D02*
X0080033Y0290969D01*
X0080033Y0289371D02*
X0142233Y0289371D01*
X0142233Y0287772D02*
X0080033Y0287772D01*
X0080033Y0286174D02*
X0142233Y0286174D01*
X0142233Y0284575D02*
X0080033Y0284575D01*
X0080033Y0282977D02*
X0142233Y0282977D01*
X0142233Y0281378D02*
X0080033Y0281378D01*
X0080033Y0279780D02*
X0142233Y0279780D01*
X0142233Y0278181D02*
X0080033Y0278181D01*
X0080033Y0276583D02*
X0142233Y0276583D01*
X0142233Y0274984D02*
X0080033Y0274984D01*
X0080033Y0273386D02*
X0142233Y0273386D01*
X0142233Y0271787D02*
X0080033Y0271787D01*
X0080033Y0270189D02*
X0142233Y0270189D01*
X0142233Y0268590D02*
X0080033Y0268590D01*
X0080033Y0266992D02*
X0142233Y0266992D01*
X0142233Y0265393D02*
X0080033Y0265393D01*
X0080033Y0263795D02*
X0142233Y0263795D01*
X0142233Y0262196D02*
X0080033Y0262196D01*
X0080033Y0260598D02*
X0142233Y0260598D01*
X0142233Y0258999D02*
X0080033Y0258999D01*
X0080033Y0257401D02*
X0142233Y0257401D01*
X0141948Y0255802D02*
X0137722Y0255802D01*
X0137557Y0255968D02*
X0136839Y0256489D01*
X0136048Y0256892D01*
X0135204Y0257167D01*
X0134363Y0257300D01*
X0134363Y0252146D01*
X0139516Y0252146D01*
X0139383Y0252987D01*
X0139109Y0253831D01*
X0138706Y0254622D01*
X0138184Y0255340D01*
X0137557Y0255968D01*
X0138919Y0254204D02*
X0141166Y0254204D01*
X0141133Y0252605D02*
X0139444Y0252605D01*
X0139516Y0251187D02*
X0134363Y0251187D01*
X0134363Y0246034D01*
X0135204Y0246167D01*
X0136048Y0246441D01*
X0136839Y0246844D01*
X0137557Y0247366D01*
X0138184Y0247994D01*
X0138706Y0248712D01*
X0139109Y0249502D01*
X0139383Y0250346D01*
X0139516Y0251187D01*
X0139488Y0251007D02*
X0141800Y0251007D01*
X0144150Y0249408D02*
X0139061Y0249408D01*
X0138000Y0247810D02*
X0144883Y0247810D01*
X0144914Y0246211D02*
X0135339Y0246211D01*
X0134363Y0246211D02*
X0133404Y0246211D01*
X0133404Y0246034D02*
X0133404Y0251187D01*
X0134363Y0251187D01*
X0134363Y0252146D01*
X0133404Y0252146D01*
X0133404Y0251187D01*
X0128250Y0251187D01*
X0128384Y0250346D01*
X0128658Y0249502D01*
X0129061Y0248712D01*
X0129582Y0247994D01*
X0130210Y0247366D01*
X0130928Y0246844D01*
X0131719Y0246441D01*
X0132563Y0246167D01*
X0133404Y0246034D01*
X0132427Y0246211D02*
X0080033Y0246211D01*
X0080033Y0244613D02*
X0145694Y0244613D01*
X0152073Y0244613D02*
X0166983Y0244613D01*
X0166983Y0246211D02*
X0152853Y0246211D01*
X0152883Y0247810D02*
X0166983Y0247810D01*
X0167270Y0243014D02*
X0080033Y0243014D01*
X0080033Y0241416D02*
X0168325Y0241416D01*
X0176260Y0249408D02*
X0191239Y0249408D01*
X0192837Y0251007D02*
X0177828Y0251007D01*
X0178033Y0252605D02*
X0194436Y0252605D01*
X0196034Y0254204D02*
X0178033Y0254204D01*
X0178033Y0255802D02*
X0197633Y0255802D01*
X0199231Y0257401D02*
X0178033Y0257401D01*
X0178033Y0258999D02*
X0200830Y0258999D01*
X0202428Y0260598D02*
X0178033Y0260598D01*
X0178033Y0262196D02*
X0204027Y0262196D01*
X0203249Y0263795D02*
X0205625Y0263795D01*
X0204764Y0265393D02*
X0207224Y0265393D01*
X0208822Y0266992D02*
X0201568Y0266992D01*
X0201199Y0266992D02*
X0195703Y0266992D01*
X0195703Y0268590D02*
X0197930Y0268590D01*
X0198003Y0265393D02*
X0195383Y0265393D01*
X0199517Y0263795D02*
X0178033Y0263795D01*
X0178644Y0265393D02*
X0177171Y0265393D01*
X0178323Y0266992D02*
X0175043Y0266992D01*
X0175043Y0268590D02*
X0178323Y0268590D01*
X0186238Y0271787D02*
X0187788Y0271787D01*
X0187788Y0273386D02*
X0186238Y0273386D01*
X0195703Y0271787D02*
X0196537Y0271787D01*
X0201199Y0268590D02*
X0201568Y0268590D01*
X0201568Y0265393D02*
X0201199Y0265393D01*
X0201199Y0263795D02*
X0201568Y0263795D01*
X0204837Y0268590D02*
X0210817Y0268590D01*
X0214456Y0260180D02*
X0272061Y0260180D01*
X0282641Y0249600D01*
X0284258Y0248930D01*
X0297259Y0248930D01*
X0298876Y0249600D01*
X0300113Y0250838D01*
X0306956Y0257680D01*
X0319561Y0257680D01*
X0321983Y0255258D01*
X0321983Y0252829D01*
X0321995Y0252800D01*
X0321995Y0248916D01*
X0322361Y0248034D01*
X0323036Y0247359D01*
X0323557Y0247142D01*
X0323557Y0246174D01*
X0323298Y0246281D01*
X0314469Y0246281D01*
X0313587Y0245916D01*
X0312912Y0245241D01*
X0312546Y0244359D01*
X0312546Y0241574D01*
X0312399Y0241721D01*
X0310929Y0242330D01*
X0309338Y0242330D01*
X0307868Y0241721D01*
X0306742Y0240596D01*
X0306133Y0239126D01*
X0306133Y0237535D01*
X0306742Y0236064D01*
X0307868Y0234939D01*
X0309338Y0234330D01*
X0309891Y0234330D01*
X0312546Y0231675D01*
X0312546Y0230806D01*
X0312912Y0229923D01*
X0313127Y0229708D01*
X0312912Y0229493D01*
X0312835Y0229307D01*
X0312608Y0229534D01*
X0311002Y0230199D01*
X0309264Y0230199D01*
X0308906Y0230050D01*
X0306633Y0232323D01*
X0306633Y0232876D01*
X0306024Y0234346D01*
X0304899Y0235471D01*
X0303429Y0236080D01*
X0301838Y0236080D01*
X0300368Y0235471D01*
X0299242Y0234346D01*
X0298883Y0233479D01*
X0298524Y0234346D01*
X0297399Y0235471D01*
X0297360Y0235488D01*
X0298083Y0235787D01*
X0311626Y0249330D01*
X0312179Y0249330D01*
X0313649Y0249939D01*
X0314774Y0251064D01*
X0315383Y0252535D01*
X0315383Y0254126D01*
X0314774Y0255596D01*
X0313649Y0256721D01*
X0312179Y0257330D01*
X0310588Y0257330D01*
X0309118Y0256721D01*
X0307992Y0255596D01*
X0307383Y0254126D01*
X0307383Y0253573D01*
X0295141Y0241330D01*
X0269210Y0241330D01*
X0270305Y0242425D01*
X0271233Y0244667D01*
X0271233Y0254494D01*
X0270305Y0256736D01*
X0268589Y0258452D01*
X0266347Y0259380D01*
X0263920Y0259380D01*
X0261678Y0258452D01*
X0260133Y0256907D01*
X0258589Y0258452D01*
X0256347Y0259380D01*
X0253920Y0259380D01*
X0251678Y0258452D01*
X0250133Y0256907D01*
X0248589Y0258452D01*
X0246347Y0259380D01*
X0243920Y0259380D01*
X0241678Y0258452D01*
X0240133Y0256907D01*
X0238589Y0258452D01*
X0236347Y0259380D01*
X0233920Y0259380D01*
X0231678Y0258452D01*
X0230133Y0256907D01*
X0228589Y0258452D01*
X0226347Y0259380D01*
X0223920Y0259380D01*
X0221678Y0258452D01*
X0219962Y0256736D01*
X0219766Y0256262D01*
X0219328Y0256863D01*
X0218716Y0257475D01*
X0218016Y0257984D01*
X0217245Y0258377D01*
X0216421Y0258645D01*
X0215566Y0258780D01*
X0215433Y0258780D01*
X0215433Y0249880D01*
X0214833Y0249880D01*
X0214833Y0249280D01*
X0209633Y0249280D01*
X0209633Y0245447D01*
X0209769Y0244592D01*
X0210036Y0243769D01*
X0210429Y0242998D01*
X0210938Y0242297D01*
X0211550Y0241685D01*
X0212039Y0241330D01*
X0195606Y0241330D01*
X0196363Y0242088D01*
X0210420Y0256144D01*
X0210036Y0255391D01*
X0209769Y0254568D01*
X0209633Y0253713D01*
X0209633Y0249880D01*
X0214833Y0249880D01*
X0214833Y0258780D01*
X0214700Y0258780D01*
X0213845Y0258645D01*
X0213022Y0258377D01*
X0212269Y0257994D01*
X0214456Y0260180D01*
X0213275Y0258999D02*
X0223000Y0258999D01*
X0220627Y0257401D02*
X0218791Y0257401D01*
X0215433Y0257401D02*
X0214833Y0257401D01*
X0214833Y0255802D02*
X0215433Y0255802D01*
X0215433Y0254204D02*
X0214833Y0254204D01*
X0214833Y0252605D02*
X0215433Y0252605D01*
X0215433Y0251007D02*
X0214833Y0251007D01*
X0214833Y0249408D02*
X0203684Y0249408D01*
X0205282Y0251007D02*
X0209633Y0251007D01*
X0209633Y0252605D02*
X0206881Y0252605D01*
X0208479Y0254204D02*
X0209711Y0254204D01*
X0210078Y0255802D02*
X0210246Y0255802D01*
X0209633Y0247810D02*
X0202085Y0247810D01*
X0200487Y0246211D02*
X0209633Y0246211D01*
X0209766Y0244613D02*
X0198888Y0244613D01*
X0197290Y0243014D02*
X0210421Y0243014D01*
X0211921Y0241416D02*
X0195691Y0241416D01*
X0227266Y0258999D02*
X0233000Y0258999D01*
X0230627Y0257401D02*
X0229640Y0257401D01*
X0237266Y0258999D02*
X0243000Y0258999D01*
X0240627Y0257401D02*
X0239640Y0257401D01*
X0247266Y0258999D02*
X0253000Y0258999D01*
X0250627Y0257401D02*
X0249640Y0257401D01*
X0257266Y0258999D02*
X0263000Y0258999D01*
X0260627Y0257401D02*
X0259640Y0257401D01*
X0267266Y0258999D02*
X0273242Y0258999D01*
X0274840Y0257401D02*
X0269640Y0257401D01*
X0270691Y0255802D02*
X0276439Y0255802D01*
X0278037Y0254204D02*
X0271233Y0254204D01*
X0271233Y0252605D02*
X0279636Y0252605D01*
X0281234Y0251007D02*
X0271233Y0251007D01*
X0271233Y0249408D02*
X0283104Y0249408D01*
X0271233Y0247810D02*
X0301620Y0247810D01*
X0303219Y0249408D02*
X0298412Y0249408D01*
X0300113Y0250838D02*
X0300113Y0250838D01*
X0300282Y0251007D02*
X0304817Y0251007D01*
X0306416Y0252605D02*
X0301881Y0252605D01*
X0303479Y0254204D02*
X0307416Y0254204D01*
X0308198Y0255802D02*
X0305078Y0255802D01*
X0306676Y0257401D02*
X0319840Y0257401D01*
X0321439Y0255802D02*
X0314568Y0255802D01*
X0315351Y0254204D02*
X0321983Y0254204D01*
X0321995Y0252605D02*
X0315383Y0252605D01*
X0314717Y0251007D02*
X0321995Y0251007D01*
X0321995Y0249408D02*
X0312367Y0249408D01*
X0310105Y0247810D02*
X0322585Y0247810D01*
X0323467Y0246211D02*
X0323557Y0246211D01*
X0326757Y0246706D02*
X0326757Y0253330D01*
X0326757Y0246706D02*
X0330133Y0243330D01*
X0333735Y0241572D02*
X0334118Y0241189D01*
X0335588Y0240580D01*
X0335883Y0240580D01*
X0335883Y0208323D01*
X0332590Y0205030D01*
X0332133Y0203927D01*
X0332133Y0198983D01*
X0332590Y0197881D01*
X0333434Y0197037D01*
X0334583Y0195888D01*
X0331792Y0195888D01*
X0330910Y0195522D01*
X0330270Y0194883D01*
X0330225Y0194928D01*
X0329814Y0195165D01*
X0329357Y0195288D01*
X0327138Y0195288D01*
X0327138Y0189932D01*
X0326376Y0189932D01*
X0326376Y0195288D01*
X0324158Y0195288D01*
X0323700Y0195165D01*
X0323290Y0194928D01*
X0322955Y0194593D01*
X0322718Y0194182D01*
X0322595Y0193725D01*
X0322595Y0189932D01*
X0326376Y0189932D01*
X0326376Y0189170D01*
X0322595Y0189170D01*
X0322595Y0185377D01*
X0322718Y0184919D01*
X0322955Y0184508D01*
X0323290Y0184173D01*
X0323700Y0183936D01*
X0324158Y0183814D01*
X0326376Y0183814D01*
X0326376Y0189169D01*
X0327138Y0189169D01*
X0327138Y0183814D01*
X0329357Y0183814D01*
X0329814Y0183936D01*
X0330225Y0184173D01*
X0330270Y0184219D01*
X0330910Y0183579D01*
X0331631Y0183280D01*
X0331631Y0177736D01*
X0331617Y0177698D01*
X0331619Y0177620D01*
X0331402Y0177530D01*
X0330918Y0177047D01*
X0330700Y0177173D01*
X0330242Y0177296D01*
X0328221Y0177296D01*
X0328221Y0173515D01*
X0327853Y0173515D01*
X0327853Y0177296D01*
X0325831Y0177296D01*
X0325374Y0177173D01*
X0324963Y0176936D01*
X0324628Y0176601D01*
X0324391Y0176190D01*
X0324268Y0175733D01*
X0324268Y0173514D01*
X0327853Y0173514D01*
X0327853Y0173146D01*
X0328221Y0173146D01*
X0328221Y0169365D01*
X0330242Y0169365D01*
X0330700Y0169488D01*
X0330918Y0169614D01*
X0331402Y0169130D01*
X0332220Y0168791D01*
X0332183Y0168755D01*
X0331818Y0167873D01*
X0331818Y0162981D01*
X0332183Y0162099D01*
X0332202Y0162080D01*
X0332183Y0162062D01*
X0331818Y0161180D01*
X0331818Y0156288D01*
X0332183Y0155406D01*
X0332858Y0154731D01*
X0333183Y0154596D01*
X0333183Y0152504D01*
X0333055Y0152451D01*
X0332692Y0152088D01*
X0332274Y0153096D01*
X0331149Y0154221D01*
X0329679Y0154830D01*
X0328088Y0154830D01*
X0326618Y0154221D01*
X0325492Y0153096D01*
X0325075Y0152088D01*
X0324711Y0152451D01*
X0324383Y0152587D01*
X0324383Y0156923D01*
X0324774Y0157314D01*
X0325383Y0158785D01*
X0325383Y0160376D01*
X0324774Y0161846D01*
X0323649Y0162971D01*
X0322179Y0163580D01*
X0320588Y0163580D01*
X0319118Y0162971D01*
X0317992Y0161846D01*
X0317383Y0160376D01*
X0317383Y0158785D01*
X0317992Y0157314D01*
X0318383Y0156923D01*
X0318383Y0152587D01*
X0318055Y0152451D01*
X0317380Y0151776D01*
X0317015Y0150894D01*
X0317015Y0144428D01*
X0317128Y0144155D01*
X0315197Y0144155D01*
X0314315Y0143790D01*
X0313640Y0143115D01*
X0313275Y0142233D01*
X0313275Y0135766D01*
X0313640Y0134884D01*
X0314315Y0134209D01*
X0314443Y0134156D01*
X0314443Y0123934D01*
X0314930Y0122758D01*
X0315831Y0121858D01*
X0316958Y0120730D01*
X0241278Y0120730D01*
X0241650Y0121102D01*
X0241751Y0121347D01*
X0241966Y0121341D01*
X0242351Y0121283D01*
X0242518Y0121325D01*
X0245139Y0121249D01*
X0245289Y0121201D01*
X0245691Y0121233D01*
X0246095Y0121221D01*
X0246170Y0121250D01*
X0246341Y0121250D01*
X0246446Y0121294D01*
X0246559Y0121303D01*
X0246930Y0121493D01*
X0247327Y0121622D01*
X0247413Y0121696D01*
X0247518Y0121740D01*
X0247812Y0122035D01*
X0248149Y0122281D01*
X0248208Y0122378D01*
X0248295Y0122452D01*
X0248483Y0122824D01*
X0248728Y0123162D01*
X0248754Y0123272D01*
X0248813Y0123369D01*
X0248865Y0123696D01*
X0248970Y0123952D01*
X0248970Y0124180D01*
X0249023Y0124402D01*
X0248970Y0124732D01*
X0248970Y0125789D01*
X0248978Y0125807D01*
X0248978Y0127936D01*
X0248970Y0127954D01*
X0248970Y0130230D01*
X0249245Y0130344D01*
X0249918Y0131017D01*
X0249918Y0130278D01*
X0250041Y0129820D01*
X0250278Y0129410D01*
X0250613Y0129075D01*
X0251023Y0128838D01*
X0251481Y0128715D01*
X0253699Y0128715D01*
X0253699Y0132299D01*
X0254068Y0132299D01*
X0254068Y0132668D01*
X0257849Y0132668D01*
X0257849Y0134689D01*
X0257726Y0135147D01*
X0257600Y0135365D01*
X0258083Y0135849D01*
X0258449Y0136731D01*
X0258449Y0141623D01*
X0258083Y0142505D01*
X0257408Y0143180D01*
X0256526Y0143545D01*
X0254764Y0143545D01*
X0254679Y0143580D01*
X0250060Y0143580D01*
X0249735Y0143906D01*
X0248853Y0144271D01*
X0240024Y0144271D01*
X0239142Y0143906D01*
X0238467Y0143230D01*
X0238437Y0143159D01*
X0238139Y0143159D01*
X0238139Y0142981D01*
X0238139Y0142982D01*
X0238139Y0143159D01*
X0237961Y0143159D01*
X0237727Y0143394D01*
X0236845Y0143759D01*
X0236285Y0143759D01*
X0236285Y0147588D01*
X0236740Y0148042D01*
X0237185Y0148226D01*
X0238137Y0149178D01*
X0238652Y0150422D01*
X0238652Y0151058D01*
X0238659Y0151064D01*
X0239268Y0152535D01*
X0239268Y0154080D01*
X0251980Y0154080D01*
X0253083Y0154537D01*
X0253927Y0155381D01*
X0256133Y0157588D01*
X0256133Y0156285D01*
X0256742Y0154814D01*
X0257868Y0153689D01*
X0259338Y0153080D01*
X0260929Y0153080D01*
X0262095Y0153563D01*
X0262183Y0153349D01*
X0262202Y0153330D01*
X0262183Y0153312D01*
X0261818Y0152430D01*
X0261818Y0147538D01*
X0262183Y0146656D01*
X0262858Y0145981D01*
X0263741Y0145615D01*
X0266752Y0145615D01*
X0267440Y0145330D01*
X0269976Y0145330D01*
X0270368Y0144939D01*
X0271838Y0144330D01*
X0273429Y0144330D01*
X0274419Y0144740D01*
X0274034Y0144355D01*
X0273668Y0143473D01*
X0273668Y0138187D01*
X0274034Y0137305D01*
X0274230Y0137109D01*
X0274230Y0136416D01*
X0273902Y0136280D01*
X0273418Y0135797D01*
X0273200Y0135923D01*
X0272742Y0136046D01*
X0270721Y0136046D01*
X0270721Y0132265D01*
X0270353Y0132265D01*
X0270353Y0136046D01*
X0268331Y0136046D01*
X0267874Y0135923D01*
X0267463Y0135686D01*
X0267128Y0135351D01*
X0266891Y0134940D01*
X0266768Y0134483D01*
X0266768Y0132264D01*
X0270353Y0132264D01*
X0270353Y0131896D01*
X0270721Y0131896D01*
X0270721Y0128115D01*
X0272742Y0128115D01*
X0273200Y0128238D01*
X0273418Y0128364D01*
X0273902Y0127880D01*
X0274784Y0127515D01*
X0279676Y0127515D01*
X0280558Y0127880D01*
X0281233Y0128555D01*
X0281598Y0129437D01*
X0281598Y0130162D01*
X0281742Y0129814D01*
X0282868Y0128689D01*
X0284338Y0128080D01*
X0285929Y0128080D01*
X0287399Y0128689D01*
X0288524Y0129814D01*
X0289133Y0131285D01*
X0289133Y0132876D01*
X0288524Y0134346D01*
X0288333Y0134537D01*
X0288333Y0136906D01*
X0288733Y0137305D01*
X0289098Y0138187D01*
X0289098Y0142241D01*
X0289709Y0141630D01*
X0290591Y0141265D01*
X0295483Y0141265D01*
X0296365Y0141630D01*
X0296848Y0142114D01*
X0297066Y0141988D01*
X0297524Y0141865D01*
X0299546Y0141865D01*
X0299546Y0145646D01*
X0299914Y0145646D01*
X0299914Y0146014D01*
X0303498Y0146014D01*
X0303498Y0148233D01*
X0303376Y0148690D01*
X0303139Y0149101D01*
X0302804Y0149436D01*
X0302393Y0149673D01*
X0301935Y0149796D01*
X0299914Y0149796D01*
X0299914Y0146015D01*
X0299546Y0146015D01*
X0299546Y0149796D01*
X0297524Y0149796D01*
X0297066Y0149673D01*
X0296848Y0149547D01*
X0296365Y0150030D01*
X0295483Y0150396D01*
X0292714Y0150396D01*
X0292571Y0150539D01*
X0292779Y0151042D01*
X0292779Y0154434D01*
X0296172Y0154434D01*
X0297054Y0154800D01*
X0297729Y0155475D01*
X0298094Y0156357D01*
X0298094Y0170304D01*
X0297729Y0171186D01*
X0297054Y0171861D01*
X0296172Y0172226D01*
X0292779Y0172226D01*
X0292779Y0174579D01*
X0293649Y0174939D01*
X0294774Y0176064D01*
X0295383Y0177535D01*
X0295383Y0179126D01*
X0294774Y0180596D01*
X0294106Y0181265D01*
X0294676Y0181265D01*
X0295558Y0181630D01*
X0296233Y0182305D01*
X0296598Y0183187D01*
X0296598Y0184303D01*
X0298083Y0185787D01*
X0298927Y0186631D01*
X0299383Y0187733D01*
X0299383Y0196830D01*
X0299679Y0196830D01*
X0301149Y0197439D01*
X0302274Y0198564D01*
X0302533Y0199188D01*
X0303383Y0198338D01*
X0303383Y0189737D01*
X0302992Y0189346D01*
X0302383Y0187876D01*
X0302383Y0186285D01*
X0302992Y0184814D01*
X0304118Y0183689D01*
X0305588Y0183080D01*
X0307179Y0183080D01*
X0308649Y0183689D01*
X0309774Y0184814D01*
X0310383Y0186285D01*
X0310383Y0187876D01*
X0310239Y0188225D01*
X0310588Y0188080D01*
X0312179Y0188080D01*
X0313649Y0188689D01*
X0314774Y0189814D01*
X0315383Y0191285D01*
X0315383Y0192876D01*
X0314774Y0194346D01*
X0314383Y0194737D01*
X0314383Y0197422D01*
X0314469Y0197387D01*
X0323298Y0197387D01*
X0324180Y0197752D01*
X0324855Y0198427D01*
X0325125Y0199080D01*
X0325730Y0199080D01*
X0326833Y0199537D01*
X0329333Y0202037D01*
X0330177Y0202881D01*
X0330633Y0203983D01*
X0330633Y0215673D01*
X0331024Y0216064D01*
X0331633Y0217535D01*
X0331633Y0219126D01*
X0331024Y0220596D01*
X0329899Y0221721D01*
X0328429Y0222330D01*
X0326838Y0222330D01*
X0325368Y0221721D01*
X0324975Y0221329D01*
X0324855Y0221619D01*
X0324640Y0221834D01*
X0324855Y0222049D01*
X0325220Y0222932D01*
X0325220Y0228611D01*
X0324855Y0229493D01*
X0324640Y0229708D01*
X0324855Y0229923D01*
X0325220Y0230806D01*
X0325220Y0232586D01*
X0325368Y0232439D01*
X0326838Y0231830D01*
X0328429Y0231830D01*
X0329899Y0232439D01*
X0331024Y0233564D01*
X0331633Y0235035D01*
X0331633Y0236626D01*
X0331024Y0238096D01*
X0329899Y0239221D01*
X0329636Y0239330D01*
X0330929Y0239330D01*
X0332399Y0239939D01*
X0333524Y0241064D01*
X0333735Y0241572D01*
X0333670Y0241416D02*
X0333891Y0241416D01*
X0332104Y0239817D02*
X0335883Y0239817D01*
X0335883Y0238219D02*
X0330902Y0238219D01*
X0331633Y0236620D02*
X0335883Y0236620D01*
X0335883Y0235022D02*
X0331628Y0235022D01*
X0330883Y0233423D02*
X0335883Y0233423D01*
X0335883Y0231825D02*
X0325220Y0231825D01*
X0324980Y0230226D02*
X0335883Y0230226D01*
X0335883Y0228627D02*
X0325213Y0228627D01*
X0325220Y0227029D02*
X0335883Y0227029D01*
X0335883Y0225430D02*
X0325220Y0225430D01*
X0325220Y0223832D02*
X0335883Y0223832D01*
X0335883Y0222233D02*
X0328663Y0222233D01*
X0326604Y0222233D02*
X0324931Y0222233D01*
X0330985Y0220635D02*
X0335883Y0220635D01*
X0335883Y0219036D02*
X0331633Y0219036D01*
X0331593Y0217438D02*
X0335883Y0217438D01*
X0335883Y0215839D02*
X0330799Y0215839D01*
X0330633Y0214241D02*
X0335883Y0214241D01*
X0335883Y0212642D02*
X0330633Y0212642D01*
X0330633Y0211044D02*
X0335883Y0211044D01*
X0335883Y0209445D02*
X0330633Y0209445D01*
X0330633Y0207847D02*
X0335407Y0207847D01*
X0333809Y0206248D02*
X0330633Y0206248D01*
X0330633Y0204650D02*
X0332433Y0204650D01*
X0332133Y0203051D02*
X0330247Y0203051D01*
X0329333Y0202037D02*
X0329333Y0202037D01*
X0328749Y0201453D02*
X0332133Y0201453D01*
X0332133Y0199854D02*
X0327150Y0199854D01*
X0324683Y0198256D02*
X0332435Y0198256D01*
X0333814Y0196657D02*
X0314383Y0196657D01*
X0314383Y0195059D02*
X0323516Y0195059D01*
X0322595Y0193460D02*
X0315141Y0193460D01*
X0315383Y0191862D02*
X0322595Y0191862D01*
X0322595Y0190263D02*
X0314960Y0190263D01*
X0313590Y0188665D02*
X0322595Y0188665D01*
X0322595Y0187066D02*
X0310383Y0187066D01*
X0310045Y0185468D02*
X0322595Y0185468D01*
X0323951Y0183869D02*
X0308829Y0183869D01*
X0303938Y0183869D02*
X0296598Y0183869D01*
X0296198Y0182271D02*
X0331631Y0182271D01*
X0331631Y0180672D02*
X0294698Y0180672D01*
X0295383Y0179074D02*
X0331631Y0179074D01*
X0331347Y0177475D02*
X0295359Y0177475D01*
X0294587Y0175877D02*
X0324307Y0175877D01*
X0324268Y0174278D02*
X0292779Y0174278D01*
X0292779Y0172680D02*
X0324268Y0172680D01*
X0324268Y0173146D02*
X0324268Y0170928D01*
X0324391Y0170470D01*
X0324628Y0170060D01*
X0324963Y0169724D01*
X0325374Y0169488D01*
X0325831Y0169365D01*
X0327853Y0169365D01*
X0327853Y0173146D01*
X0324268Y0173146D01*
X0324268Y0171081D02*
X0297772Y0171081D01*
X0298094Y0169483D02*
X0325392Y0169483D01*
X0327853Y0169483D02*
X0328221Y0169483D01*
X0328221Y0171081D02*
X0327853Y0171081D01*
X0327853Y0172680D02*
X0328221Y0172680D01*
X0328221Y0174278D02*
X0327853Y0174278D01*
X0327853Y0175877D02*
X0328221Y0175877D01*
X0330682Y0169483D02*
X0331049Y0169483D01*
X0331823Y0167884D02*
X0298094Y0167884D01*
X0298094Y0166286D02*
X0331818Y0166286D01*
X0331818Y0164687D02*
X0298094Y0164687D01*
X0298094Y0163089D02*
X0319401Y0163089D01*
X0317845Y0161490D02*
X0298094Y0161490D01*
X0298094Y0159891D02*
X0317383Y0159891D01*
X0317587Y0158293D02*
X0298094Y0158293D01*
X0298094Y0156694D02*
X0318383Y0156694D01*
X0318383Y0155096D02*
X0297350Y0155096D01*
X0292779Y0153497D02*
X0318383Y0153497D01*
X0317503Y0151899D02*
X0292779Y0151899D01*
X0295712Y0150300D02*
X0317015Y0150300D01*
X0317015Y0148702D02*
X0303369Y0148702D01*
X0303498Y0147103D02*
X0317015Y0147103D01*
X0317015Y0145505D02*
X0303498Y0145505D01*
X0303498Y0145646D02*
X0299914Y0145646D01*
X0299914Y0141865D01*
X0301935Y0141865D01*
X0302393Y0141988D01*
X0302804Y0142224D01*
X0303139Y0142560D01*
X0303376Y0142970D01*
X0303498Y0143428D01*
X0303498Y0145646D01*
X0303498Y0143906D02*
X0314596Y0143906D01*
X0313306Y0142308D02*
X0302887Y0142308D01*
X0299914Y0142308D02*
X0299546Y0142308D01*
X0299546Y0143906D02*
X0299914Y0143906D01*
X0299914Y0145505D02*
X0299546Y0145505D01*
X0299546Y0147103D02*
X0299914Y0147103D01*
X0299914Y0148702D02*
X0299546Y0148702D01*
X0289098Y0140709D02*
X0313275Y0140709D01*
X0313275Y0139111D02*
X0289098Y0139111D01*
X0288819Y0137512D02*
X0313275Y0137512D01*
X0313275Y0135914D02*
X0288333Y0135914D01*
X0288537Y0134315D02*
X0314209Y0134315D01*
X0314443Y0132717D02*
X0289133Y0132717D01*
X0289064Y0131118D02*
X0314443Y0131118D01*
X0314443Y0129520D02*
X0288230Y0129520D01*
X0285133Y0132080D02*
X0285133Y0140427D01*
X0284730Y0140830D01*
X0273948Y0137512D02*
X0258449Y0137512D01*
X0258449Y0139111D02*
X0273668Y0139111D01*
X0273668Y0140709D02*
X0258449Y0140709D01*
X0258165Y0142308D02*
X0273668Y0142308D01*
X0273848Y0143906D02*
X0249733Y0143906D01*
X0258110Y0135914D02*
X0267858Y0135914D01*
X0266768Y0134315D02*
X0257849Y0134315D01*
X0257849Y0132717D02*
X0266768Y0132717D01*
X0266768Y0131896D02*
X0266768Y0129678D01*
X0266891Y0129220D01*
X0267128Y0128810D01*
X0267463Y0128474D01*
X0267874Y0128238D01*
X0268331Y0128115D01*
X0270353Y0128115D01*
X0270353Y0131896D01*
X0266768Y0131896D01*
X0266768Y0131118D02*
X0257849Y0131118D01*
X0257849Y0130278D02*
X0257849Y0132299D01*
X0254068Y0132299D01*
X0254068Y0128715D01*
X0256286Y0128715D01*
X0256743Y0128838D01*
X0257154Y0129075D01*
X0257489Y0129410D01*
X0257726Y0129820D01*
X0257849Y0130278D01*
X0257552Y0129520D02*
X0266811Y0129520D01*
X0270353Y0129520D02*
X0270721Y0129520D01*
X0270721Y0131118D02*
X0270353Y0131118D01*
X0270353Y0132717D02*
X0270721Y0132717D01*
X0270721Y0134315D02*
X0270353Y0134315D01*
X0270353Y0135914D02*
X0270721Y0135914D01*
X0273216Y0135914D02*
X0273535Y0135914D01*
X0273861Y0127921D02*
X0256915Y0127921D01*
X0256918Y0127920D02*
X0256233Y0128204D01*
X0255504Y0128349D01*
X0255318Y0128349D01*
X0255318Y0124765D01*
X0254949Y0124765D01*
X0254949Y0128349D01*
X0254762Y0128349D01*
X0254034Y0128204D01*
X0253348Y0127920D01*
X0252731Y0127507D01*
X0252206Y0126982D01*
X0251794Y0126365D01*
X0251510Y0125679D01*
X0251365Y0124951D01*
X0251365Y0124764D01*
X0254949Y0124764D01*
X0254949Y0124396D01*
X0251365Y0124396D01*
X0251365Y0124209D01*
X0251510Y0123481D01*
X0251794Y0122795D01*
X0252206Y0122178D01*
X0252731Y0121653D01*
X0253348Y0121241D01*
X0254034Y0120957D01*
X0254762Y0120812D01*
X0254949Y0120812D01*
X0254949Y0124396D01*
X0255318Y0124396D01*
X0255318Y0124764D01*
X0258902Y0124764D01*
X0258902Y0124951D01*
X0258757Y0125679D01*
X0258473Y0126365D01*
X0258061Y0126982D01*
X0257536Y0127507D01*
X0256918Y0127920D01*
X0255318Y0127921D02*
X0254949Y0127921D01*
X0253352Y0127921D02*
X0248978Y0127921D01*
X0248978Y0126323D02*
X0251776Y0126323D01*
X0254949Y0126323D02*
X0255318Y0126323D01*
X0255318Y0124724D02*
X0314443Y0124724D01*
X0314443Y0126323D02*
X0258491Y0126323D01*
X0258902Y0124396D02*
X0255318Y0124396D01*
X0255318Y0120812D01*
X0255504Y0120812D01*
X0256233Y0120957D01*
X0256918Y0121241D01*
X0257536Y0121653D01*
X0258061Y0122178D01*
X0258473Y0122795D01*
X0258757Y0123481D01*
X0258902Y0124209D01*
X0258902Y0124396D01*
X0258610Y0123126D02*
X0314778Y0123126D01*
X0316161Y0121527D02*
X0257347Y0121527D01*
X0255318Y0121527D02*
X0254949Y0121527D01*
X0254949Y0123126D02*
X0255318Y0123126D01*
X0254949Y0124724D02*
X0248972Y0124724D01*
X0248702Y0123126D02*
X0251657Y0123126D01*
X0252919Y0121527D02*
X0247036Y0121527D01*
X0248970Y0129520D02*
X0250214Y0129520D01*
X0253699Y0129520D02*
X0254068Y0129520D01*
X0254068Y0131118D02*
X0253699Y0131118D01*
X0261998Y0147103D02*
X0236285Y0147103D01*
X0236285Y0145505D02*
X0267018Y0145505D01*
X0261818Y0148702D02*
X0237660Y0148702D01*
X0238211Y0147064D02*
X0238211Y0137987D01*
X0238139Y0137914D01*
X0233085Y0137979D02*
X0233021Y0137914D01*
X0233085Y0137979D02*
X0233085Y0148913D01*
X0235268Y0151095D01*
X0238601Y0150300D02*
X0261818Y0150300D01*
X0261818Y0151899D02*
X0239004Y0151899D01*
X0239268Y0153497D02*
X0258330Y0153497D01*
X0256626Y0155096D02*
X0253642Y0155096D01*
X0253927Y0155381D02*
X0253927Y0155381D01*
X0255240Y0156694D02*
X0256133Y0156694D01*
X0261936Y0153497D02*
X0262122Y0153497D01*
X0264133Y0166330D02*
X0264133Y0167876D01*
X0263524Y0169346D01*
X0262399Y0170471D01*
X0260929Y0171080D01*
X0260235Y0171080D01*
X0251342Y0179973D01*
X0250526Y0180789D01*
X0249460Y0181230D01*
X0236783Y0181230D01*
X0236783Y0184323D01*
X0237008Y0184548D01*
X0237868Y0183689D01*
X0239338Y0183080D01*
X0240929Y0183080D01*
X0242399Y0183689D01*
X0242790Y0184080D01*
X0262828Y0184080D01*
X0267477Y0179431D01*
X0267477Y0178878D01*
X0268086Y0177408D01*
X0269211Y0176283D01*
X0270681Y0175674D01*
X0271234Y0175674D01*
X0273324Y0173584D01*
X0273309Y0173569D01*
X0273072Y0173159D01*
X0272949Y0172701D01*
X0272949Y0172226D01*
X0271595Y0172226D01*
X0270713Y0171861D01*
X0270038Y0171186D01*
X0269672Y0170304D01*
X0269672Y0166330D01*
X0264133Y0166330D01*
X0264130Y0167884D02*
X0269672Y0167884D01*
X0269672Y0169483D02*
X0263388Y0169483D01*
X0260234Y0171081D02*
X0269994Y0171081D01*
X0272949Y0172680D02*
X0258635Y0172680D01*
X0257037Y0174278D02*
X0272630Y0174278D01*
X0270191Y0175877D02*
X0255438Y0175877D01*
X0253840Y0177475D02*
X0268058Y0177475D01*
X0267477Y0179074D02*
X0252241Y0179074D01*
X0250643Y0180672D02*
X0266236Y0180672D01*
X0264637Y0182271D02*
X0236783Y0182271D01*
X0236783Y0183869D02*
X0237687Y0183869D01*
X0242579Y0183869D02*
X0263039Y0183869D01*
X0272873Y0193460D02*
X0278668Y0193460D01*
X0278668Y0195059D02*
X0249133Y0195059D01*
X0248603Y0196657D02*
X0278668Y0196657D01*
X0278668Y0198256D02*
X0246712Y0198256D01*
X0243554Y0198256D02*
X0242084Y0198256D01*
X0241664Y0196657D02*
X0240486Y0196657D01*
X0241133Y0195059D02*
X0238887Y0195059D01*
X0237289Y0193460D02*
X0241268Y0193460D01*
X0242195Y0191862D02*
X0235690Y0191862D01*
X0236357Y0190263D02*
X0237659Y0190263D01*
X0242607Y0190263D02*
X0245208Y0190263D01*
X0243683Y0199854D02*
X0270572Y0199854D01*
X0269081Y0201453D02*
X0245281Y0201453D01*
X0246880Y0203051D02*
X0268633Y0203051D01*
X0268850Y0204650D02*
X0248478Y0204650D01*
X0250077Y0206248D02*
X0269633Y0206248D01*
X0270407Y0207847D02*
X0251675Y0207847D01*
X0254398Y0209445D02*
X0272006Y0209445D01*
X0273845Y0211044D02*
X0255278Y0211044D01*
X0255378Y0212642D02*
X0278633Y0212642D01*
X0278681Y0214241D02*
X0254812Y0214241D01*
X0252746Y0215839D02*
X0279486Y0215839D01*
X0279283Y0217438D02*
X0239699Y0217438D01*
X0239699Y0219036D02*
X0277684Y0219036D01*
X0276086Y0220635D02*
X0239699Y0220635D01*
X0239614Y0222233D02*
X0239529Y0222233D01*
X0243152Y0222233D02*
X0274487Y0222233D01*
X0272889Y0223832D02*
X0244885Y0223832D01*
X0245383Y0225430D02*
X0271290Y0225430D01*
X0269295Y0241416D02*
X0295226Y0241416D01*
X0296825Y0243014D02*
X0270549Y0243014D01*
X0271211Y0244613D02*
X0298423Y0244613D01*
X0300022Y0246211D02*
X0271233Y0246211D01*
X0297849Y0235022D02*
X0299918Y0235022D01*
X0298916Y0236620D02*
X0306512Y0236620D01*
X0306133Y0238219D02*
X0300514Y0238219D01*
X0302113Y0239817D02*
X0306420Y0239817D01*
X0307562Y0241416D02*
X0303711Y0241416D01*
X0305310Y0243014D02*
X0312546Y0243014D01*
X0312651Y0244613D02*
X0306908Y0244613D01*
X0308507Y0246211D02*
X0314299Y0246211D01*
X0307785Y0235022D02*
X0305349Y0235022D01*
X0306407Y0233423D02*
X0310798Y0233423D01*
X0312396Y0231825D02*
X0307132Y0231825D01*
X0308730Y0230226D02*
X0312786Y0230226D01*
X0310133Y0209580D02*
X0318440Y0209580D01*
X0318883Y0210023D01*
X0326376Y0195059D02*
X0327138Y0195059D01*
X0327138Y0193460D02*
X0326376Y0193460D01*
X0326376Y0191862D02*
X0327138Y0191862D01*
X0327138Y0190263D02*
X0326376Y0190263D01*
X0326383Y0189925D02*
X0326757Y0189551D01*
X0327139Y0189932D02*
X0329869Y0189932D01*
X0329869Y0189170D01*
X0327139Y0189170D01*
X0327139Y0189932D01*
X0327138Y0188665D02*
X0326376Y0188665D01*
X0326376Y0187066D02*
X0327138Y0187066D01*
X0327138Y0185468D02*
X0326376Y0185468D01*
X0326376Y0183869D02*
X0327138Y0183869D01*
X0329564Y0183869D02*
X0330620Y0183869D01*
X0330446Y0195059D02*
X0329998Y0195059D01*
X0353379Y0183280D02*
X0354101Y0183579D01*
X0354316Y0183794D01*
X0354532Y0183579D01*
X0355253Y0183280D01*
X0355253Y0182113D01*
X0355710Y0181011D01*
X0355765Y0180956D01*
X0355765Y0179961D01*
X0356430Y0178356D01*
X0357133Y0177652D01*
X0357133Y0172237D01*
X0356742Y0171846D01*
X0356133Y0170376D01*
X0356133Y0168785D01*
X0356742Y0167314D01*
X0357868Y0166189D01*
X0359338Y0165580D01*
X0360929Y0165580D01*
X0362399Y0166189D01*
X0363524Y0167314D01*
X0364133Y0168785D01*
X0364133Y0170376D01*
X0363524Y0171846D01*
X0363133Y0172237D01*
X0363133Y0177652D01*
X0363837Y0178356D01*
X0363883Y0178468D01*
X0363930Y0178356D01*
X0365159Y0177127D01*
X0366764Y0176462D01*
X0368502Y0176462D01*
X0370108Y0177127D01*
X0371337Y0178356D01*
X0372002Y0179961D01*
X0372002Y0181699D01*
X0371374Y0183214D01*
X0376841Y0183214D01*
X0377723Y0183579D01*
X0377938Y0183794D01*
X0378154Y0183579D01*
X0379036Y0183214D01*
X0384715Y0183214D01*
X0385597Y0183579D01*
X0386257Y0184239D01*
X0386257Y0120730D01*
X0345718Y0120730D01*
X0345949Y0121288D01*
X0345949Y0126180D01*
X0345583Y0127062D01*
X0345565Y0127080D01*
X0345583Y0127099D01*
X0345949Y0127981D01*
X0345949Y0132873D01*
X0345583Y0133755D01*
X0344908Y0134430D01*
X0344034Y0134792D01*
X0344127Y0134884D01*
X0344492Y0135766D01*
X0344492Y0136034D01*
X0345588Y0135580D01*
X0347179Y0135580D01*
X0348649Y0136189D01*
X0349774Y0137314D01*
X0350383Y0138785D01*
X0350383Y0140376D01*
X0349774Y0141846D01*
X0348649Y0142971D01*
X0347179Y0143580D01*
X0345588Y0143580D01*
X0344176Y0142995D01*
X0344127Y0143115D01*
X0343451Y0143790D01*
X0342569Y0144155D01*
X0340639Y0144155D01*
X0340752Y0144428D01*
X0340752Y0150894D01*
X0340386Y0151776D01*
X0339711Y0152451D01*
X0339583Y0152504D01*
X0339583Y0154596D01*
X0339908Y0154731D01*
X0340583Y0155406D01*
X0340949Y0156288D01*
X0340949Y0161180D01*
X0340783Y0161580D01*
X0346980Y0161580D01*
X0348083Y0162037D01*
X0351833Y0165787D01*
X0352677Y0166631D01*
X0353133Y0167733D01*
X0353133Y0176402D01*
X0353837Y0177106D01*
X0354502Y0178711D01*
X0354502Y0180449D01*
X0353837Y0182055D01*
X0353379Y0182512D01*
X0353379Y0183280D01*
X0353621Y0182271D02*
X0355253Y0182271D01*
X0355765Y0180672D02*
X0354409Y0180672D01*
X0354502Y0179074D02*
X0356132Y0179074D01*
X0357133Y0177475D02*
X0353990Y0177475D01*
X0353133Y0175877D02*
X0357133Y0175877D01*
X0357133Y0174278D02*
X0353133Y0174278D01*
X0353133Y0172680D02*
X0357133Y0172680D01*
X0356425Y0171081D02*
X0353133Y0171081D01*
X0353133Y0169483D02*
X0356133Y0169483D01*
X0356506Y0167884D02*
X0353133Y0167884D01*
X0352331Y0166286D02*
X0357771Y0166286D01*
X0362496Y0166286D02*
X0386257Y0166286D01*
X0386257Y0167884D02*
X0363760Y0167884D01*
X0364133Y0169483D02*
X0386257Y0169483D01*
X0386257Y0171081D02*
X0363841Y0171081D01*
X0363133Y0172680D02*
X0386257Y0172680D01*
X0386257Y0174278D02*
X0363133Y0174278D01*
X0363133Y0175877D02*
X0386257Y0175877D01*
X0386257Y0177475D02*
X0370456Y0177475D01*
X0371634Y0179074D02*
X0386257Y0179074D01*
X0386257Y0180672D02*
X0372002Y0180672D01*
X0371765Y0182271D02*
X0386257Y0182271D01*
X0386257Y0183869D02*
X0385887Y0183869D01*
X0386257Y0164687D02*
X0350733Y0164687D01*
X0349134Y0163089D02*
X0386257Y0163089D01*
X0386257Y0161490D02*
X0340820Y0161490D01*
X0340949Y0159891D02*
X0386257Y0159891D01*
X0386257Y0158293D02*
X0340949Y0158293D01*
X0340949Y0156694D02*
X0386257Y0156694D01*
X0386257Y0155096D02*
X0340274Y0155096D01*
X0339583Y0153497D02*
X0386257Y0153497D01*
X0386257Y0151899D02*
X0340264Y0151899D01*
X0340752Y0150300D02*
X0366908Y0150300D01*
X0367281Y0150455D02*
X0364156Y0149160D01*
X0361764Y0146768D01*
X0360470Y0143643D01*
X0360470Y0140261D01*
X0361764Y0137136D01*
X0364156Y0134744D01*
X0367281Y0133450D01*
X0370663Y0133450D01*
X0373788Y0134744D01*
X0376180Y0137136D01*
X0377474Y0140261D01*
X0377474Y0143643D01*
X0376180Y0146768D01*
X0373788Y0149160D01*
X0370663Y0150455D01*
X0367281Y0150455D01*
X0371035Y0150300D02*
X0386257Y0150300D01*
X0386257Y0148702D02*
X0374246Y0148702D01*
X0375845Y0147103D02*
X0386257Y0147103D01*
X0386257Y0145505D02*
X0376703Y0145505D01*
X0377365Y0143906D02*
X0386257Y0143906D01*
X0386257Y0142308D02*
X0377474Y0142308D01*
X0377474Y0140709D02*
X0386257Y0140709D01*
X0386257Y0139111D02*
X0376998Y0139111D01*
X0376336Y0137512D02*
X0386257Y0137512D01*
X0386257Y0135914D02*
X0374958Y0135914D01*
X0372752Y0134315D02*
X0386257Y0134315D01*
X0386257Y0132717D02*
X0345949Y0132717D01*
X0345949Y0131118D02*
X0386257Y0131118D01*
X0386257Y0129520D02*
X0345949Y0129520D01*
X0345924Y0127921D02*
X0386257Y0127921D01*
X0386257Y0126323D02*
X0345889Y0126323D01*
X0345949Y0124724D02*
X0386257Y0124724D01*
X0386257Y0123126D02*
X0345949Y0123126D01*
X0345949Y0121527D02*
X0386257Y0121527D01*
X0365191Y0134315D02*
X0345023Y0134315D01*
X0344782Y0135914D02*
X0344492Y0135914D01*
X0347984Y0135914D02*
X0362986Y0135914D01*
X0361608Y0137512D02*
X0349856Y0137512D01*
X0350383Y0139111D02*
X0360946Y0139111D01*
X0360470Y0140709D02*
X0350245Y0140709D01*
X0349312Y0142308D02*
X0360470Y0142308D01*
X0360578Y0143906D02*
X0343171Y0143906D01*
X0340752Y0145505D02*
X0361241Y0145505D01*
X0362099Y0147103D02*
X0340752Y0147103D01*
X0340752Y0148702D02*
X0363697Y0148702D01*
X0346383Y0139580D02*
X0340704Y0139580D01*
X0340123Y0138999D01*
X0340123Y0131687D01*
X0341383Y0130427D01*
X0341383Y0123734D02*
X0339730Y0122080D01*
X0320133Y0122080D01*
X0317643Y0124570D01*
X0317643Y0138999D01*
X0325123Y0138999D02*
X0325537Y0138586D01*
X0325537Y0129580D01*
X0332230Y0129580D02*
X0332230Y0138586D01*
X0332643Y0138999D01*
X0336383Y0147661D02*
X0336383Y0158734D01*
X0331947Y0161490D02*
X0324922Y0161490D01*
X0325383Y0159891D02*
X0331818Y0159891D01*
X0331818Y0158293D02*
X0325180Y0158293D01*
X0324383Y0156694D02*
X0331818Y0156694D01*
X0332493Y0155096D02*
X0324383Y0155096D01*
X0324383Y0153497D02*
X0325894Y0153497D01*
X0331873Y0153497D02*
X0333183Y0153497D01*
X0331818Y0163089D02*
X0323366Y0163089D01*
X0302722Y0185468D02*
X0297763Y0185468D01*
X0299107Y0187066D02*
X0302383Y0187066D01*
X0302710Y0188665D02*
X0299383Y0188665D01*
X0299383Y0190263D02*
X0303383Y0190263D01*
X0303383Y0191862D02*
X0299383Y0191862D01*
X0299383Y0193460D02*
X0303383Y0193460D01*
X0303383Y0195059D02*
X0299383Y0195059D01*
X0299383Y0196657D02*
X0303383Y0196657D01*
X0303383Y0198256D02*
X0301966Y0198256D01*
X0286581Y0201453D02*
X0276185Y0201453D01*
X0276633Y0203051D02*
X0286133Y0203051D01*
X0286350Y0204650D02*
X0276416Y0204650D01*
X0274694Y0199854D02*
X0279533Y0199854D01*
X0278915Y0191862D02*
X0274594Y0191862D01*
X0276193Y0190263D02*
X0278915Y0190263D01*
X0278915Y0188665D02*
X0277791Y0188665D01*
X0283083Y0168804D02*
X0284683Y0168804D01*
X0284683Y0164130D01*
X0283083Y0164130D01*
X0278409Y0164130D01*
X0278409Y0162530D01*
X0283083Y0162530D01*
X0283083Y0164130D01*
X0283083Y0168804D01*
X0283083Y0167884D02*
X0284683Y0167884D01*
X0284683Y0166286D02*
X0283083Y0166286D01*
X0283083Y0164687D02*
X0284683Y0164687D01*
X0284683Y0164130D02*
X0289357Y0164130D01*
X0289357Y0162530D01*
X0284683Y0162530D01*
X0284683Y0157856D01*
X0283083Y0157856D01*
X0283083Y0162530D01*
X0284683Y0162530D01*
X0284683Y0164130D01*
X0284683Y0163089D02*
X0289357Y0163089D01*
X0284683Y0161490D02*
X0283083Y0161490D01*
X0283083Y0159891D02*
X0284683Y0159891D01*
X0284683Y0158293D02*
X0283083Y0158293D01*
X0283083Y0163089D02*
X0278409Y0163089D01*
X0281598Y0129520D02*
X0282037Y0129520D01*
X0280599Y0127921D02*
X0314443Y0127921D01*
X0363133Y0177475D02*
X0364810Y0177475D01*
X0342505Y0253330D02*
X0342505Y0296952D01*
X0342633Y0303330D01*
X0342633Y0313734D01*
X0355133Y0326234D01*
X0371383Y0326234D01*
X0367169Y0322940D02*
X0359347Y0322940D01*
X0360279Y0321341D02*
X0362487Y0321341D01*
X0361389Y0319743D02*
X0361378Y0319743D01*
X0361883Y0314947D02*
X0362860Y0314947D01*
X0361883Y0313349D02*
X0365872Y0313349D01*
X0367471Y0311750D02*
X0361883Y0311750D01*
X0361883Y0310152D02*
X0369069Y0310152D01*
X0369633Y0308553D02*
X0361883Y0308553D01*
X0361883Y0306955D02*
X0369633Y0306955D01*
X0369633Y0305356D02*
X0361883Y0305356D01*
X0361883Y0303758D02*
X0369633Y0303758D01*
X0369555Y0302159D02*
X0361883Y0302159D01*
X0361883Y0300560D02*
X0368710Y0300560D01*
X0368633Y0298962D02*
X0367658Y0298962D01*
X0368828Y0297363D02*
X0369222Y0297363D01*
X0369133Y0295765D02*
X0371392Y0295765D01*
X0373875Y0295765D02*
X0382133Y0295765D01*
X0382133Y0297363D02*
X0376045Y0297363D01*
X0376633Y0298962D02*
X0382133Y0298962D01*
X0382133Y0300560D02*
X0376557Y0300560D01*
X0375711Y0302159D02*
X0382133Y0302159D01*
X0381549Y0303758D02*
X0375633Y0303758D01*
X0375633Y0305356D02*
X0380268Y0305356D01*
X0379883Y0306955D02*
X0375633Y0306955D01*
X0375633Y0308553D02*
X0380164Y0308553D01*
X0381298Y0310152D02*
X0375633Y0310152D01*
X0375499Y0311750D02*
X0386257Y0311750D01*
X0386257Y0313349D02*
X0374358Y0313349D01*
X0372759Y0314947D02*
X0386257Y0314947D01*
X0386257Y0316546D02*
X0382756Y0316546D01*
X0383868Y0318144D02*
X0386257Y0318144D01*
X0386257Y0319743D02*
X0384133Y0319743D01*
X0383733Y0321341D02*
X0386257Y0321341D01*
X0386257Y0322940D02*
X0384347Y0322940D01*
X0384699Y0324538D02*
X0386257Y0324538D01*
X0386257Y0326137D02*
X0384699Y0326137D01*
X0384699Y0327735D02*
X0386257Y0327735D01*
X0386257Y0329334D02*
X0384428Y0329334D01*
X0384699Y0330932D02*
X0386257Y0330932D01*
X0386257Y0332531D02*
X0384699Y0332531D01*
X0384699Y0334129D02*
X0386257Y0334129D01*
X0386257Y0335728D02*
X0384552Y0335728D01*
X0383333Y0337326D02*
X0386257Y0337326D01*
X0386257Y0338925D02*
X0383333Y0338925D01*
X0382466Y0340523D02*
X0386257Y0340523D01*
X0386257Y0342122D02*
X0380867Y0342122D01*
X0381484Y0343720D02*
X0381656Y0343720D01*
X0381656Y0345319D02*
X0381484Y0345319D01*
X0381484Y0346917D02*
X0381656Y0346917D01*
X0381570Y0347897D02*
X0381570Y0385643D01*
X0381383Y0385830D01*
X0381570Y0386017D01*
X0381570Y0418763D01*
X0381484Y0418850D02*
X0381656Y0418850D01*
X0381656Y0417252D02*
X0381484Y0417252D01*
X0381484Y0415653D02*
X0381656Y0415653D01*
X0381656Y0414055D02*
X0381484Y0414055D01*
X0383744Y0414055D02*
X0386257Y0414055D01*
X0386257Y0415653D02*
X0385142Y0415653D01*
X0385142Y0417252D02*
X0386257Y0417252D01*
X0386257Y0418850D02*
X0385142Y0418850D01*
X0385142Y0420449D02*
X0386257Y0420449D01*
X0386257Y0422047D02*
X0385117Y0422047D01*
X0386257Y0423646D02*
X0379806Y0423646D01*
X0378712Y0425244D02*
X0386257Y0425244D01*
X0386257Y0426843D02*
X0383595Y0426843D01*
X0383695Y0428441D02*
X0386257Y0428441D01*
X0386257Y0430040D02*
X0383695Y0430040D01*
X0383695Y0431638D02*
X0386257Y0431638D01*
X0386257Y0433237D02*
X0382844Y0433237D01*
X0380062Y0433237D02*
X0379595Y0433237D01*
X0379595Y0431638D02*
X0380062Y0431638D01*
X0380062Y0430040D02*
X0379595Y0430040D01*
X0379595Y0428441D02*
X0380062Y0428441D01*
X0380062Y0426843D02*
X0379595Y0426843D01*
X0381484Y0422047D02*
X0381656Y0422047D01*
X0381656Y0420449D02*
X0381484Y0420449D01*
X0386257Y0412456D02*
X0375039Y0412456D01*
X0375383Y0410858D02*
X0386257Y0410858D01*
X0386257Y0409259D02*
X0375062Y0409259D01*
X0373871Y0407661D02*
X0386257Y0407661D01*
X0386257Y0406062D02*
X0369383Y0406062D01*
X0370742Y0404464D02*
X0386257Y0404464D01*
X0386257Y0402865D02*
X0372341Y0402865D01*
X0373939Y0401267D02*
X0386257Y0401267D01*
X0386257Y0399668D02*
X0375538Y0399668D01*
X0377136Y0398070D02*
X0386257Y0398070D01*
X0386257Y0396471D02*
X0378735Y0396471D01*
X0379383Y0394873D02*
X0386257Y0394873D01*
X0386257Y0393274D02*
X0379383Y0393274D01*
X0379383Y0391676D02*
X0386257Y0391676D01*
X0386257Y0390077D02*
X0379383Y0390077D01*
X0379383Y0388479D02*
X0386257Y0388479D01*
X0386257Y0386880D02*
X0379383Y0386880D01*
X0379383Y0385282D02*
X0386257Y0385282D01*
X0386257Y0383683D02*
X0379383Y0383683D01*
X0379383Y0382085D02*
X0386257Y0382085D01*
X0386257Y0380486D02*
X0379383Y0380486D01*
X0379383Y0378888D02*
X0386257Y0378888D01*
X0386257Y0377289D02*
X0379383Y0377289D01*
X0379383Y0375691D02*
X0386257Y0375691D01*
X0386257Y0374092D02*
X0379383Y0374092D01*
X0379383Y0372494D02*
X0386257Y0372494D01*
X0386257Y0370895D02*
X0379383Y0370895D01*
X0379383Y0369296D02*
X0386257Y0369296D01*
X0386257Y0367698D02*
X0379383Y0367698D01*
X0379383Y0366099D02*
X0386257Y0366099D01*
X0386257Y0364501D02*
X0379383Y0364501D01*
X0379383Y0362902D02*
X0386257Y0362902D01*
X0386257Y0361304D02*
X0379383Y0361304D01*
X0379415Y0359705D02*
X0386257Y0359705D01*
X0386257Y0358107D02*
X0380288Y0358107D01*
X0380383Y0356508D02*
X0386257Y0356508D01*
X0386257Y0354910D02*
X0379814Y0354910D01*
X0377737Y0353311D02*
X0386257Y0353311D01*
X0386257Y0351713D02*
X0384922Y0351713D01*
X0385142Y0350114D02*
X0386257Y0350114D01*
X0386257Y0348516D02*
X0385142Y0348516D01*
X0385142Y0346917D02*
X0386257Y0346917D01*
X0386257Y0345319D02*
X0385142Y0345319D01*
X0384663Y0343720D02*
X0386257Y0343720D01*
X0381656Y0348516D02*
X0381484Y0348516D01*
X0381484Y0350114D02*
X0381656Y0350114D01*
X0381656Y0351713D02*
X0381484Y0351713D01*
X0376570Y0347897D02*
X0376570Y0341893D01*
X0380133Y0338330D01*
X0380133Y0332927D01*
X0375919Y0322940D02*
X0375597Y0322940D01*
X0376533Y0321341D02*
X0367779Y0321341D01*
X0368878Y0319743D02*
X0376133Y0319743D01*
X0376399Y0318144D02*
X0369562Y0318144D01*
X0371161Y0316546D02*
X0377511Y0316546D01*
X0362608Y0298962D02*
X0361883Y0298962D01*
X0368774Y0294166D02*
X0382133Y0294166D01*
X0375997Y0292568D02*
X0369270Y0292568D01*
X0355883Y0292568D02*
X0355302Y0292568D01*
X0354899Y0292971D02*
X0353429Y0293580D01*
X0351838Y0293580D01*
X0350368Y0292971D01*
X0349242Y0291846D01*
X0348633Y0290376D01*
X0348633Y0288785D01*
X0349242Y0287314D01*
X0349633Y0286923D01*
X0349633Y0284647D01*
X0349108Y0284430D01*
X0348433Y0283755D01*
X0348068Y0282873D01*
X0348068Y0277981D01*
X0348433Y0277099D01*
X0348452Y0277080D01*
X0348433Y0277062D01*
X0348068Y0276180D01*
X0348068Y0271288D01*
X0348433Y0270406D01*
X0349108Y0269731D01*
X0349633Y0269513D01*
X0349633Y0266508D01*
X0348930Y0265805D01*
X0348265Y0264199D01*
X0348265Y0263204D01*
X0347590Y0262530D01*
X0347133Y0261427D01*
X0347133Y0259499D01*
X0346658Y0259302D01*
X0346442Y0259087D01*
X0346227Y0259302D01*
X0345705Y0259518D01*
X0345705Y0296920D01*
X0345784Y0300824D01*
X0346024Y0301064D01*
X0346633Y0302535D01*
X0346633Y0304126D01*
X0346024Y0305596D01*
X0345833Y0305787D01*
X0345833Y0312408D01*
X0355290Y0321865D01*
X0355715Y0321865D01*
X0355368Y0321721D01*
X0354242Y0320596D01*
X0353633Y0319126D01*
X0353633Y0317535D01*
X0354242Y0316064D01*
X0355368Y0314939D01*
X0355883Y0314726D01*
X0355883Y0291987D01*
X0354899Y0292971D01*
X0355883Y0294166D02*
X0345705Y0294166D01*
X0345705Y0292568D02*
X0349964Y0292568D01*
X0348879Y0290969D02*
X0345705Y0290969D01*
X0345705Y0289371D02*
X0348633Y0289371D01*
X0349053Y0287772D02*
X0345705Y0287772D01*
X0345705Y0286174D02*
X0349633Y0286174D01*
X0349460Y0284575D02*
X0345705Y0284575D01*
X0345705Y0282977D02*
X0348111Y0282977D01*
X0348068Y0281378D02*
X0345705Y0281378D01*
X0345705Y0279780D02*
X0348068Y0279780D01*
X0348068Y0278181D02*
X0345705Y0278181D01*
X0345705Y0276583D02*
X0348235Y0276583D01*
X0348068Y0274984D02*
X0345705Y0274984D01*
X0345705Y0273386D02*
X0348068Y0273386D01*
X0348068Y0271787D02*
X0345705Y0271787D01*
X0345705Y0270189D02*
X0348650Y0270189D01*
X0349633Y0268590D02*
X0345705Y0268590D01*
X0345705Y0266992D02*
X0349633Y0266992D01*
X0348759Y0265393D02*
X0345705Y0265393D01*
X0345705Y0263795D02*
X0348265Y0263795D01*
X0347452Y0262196D02*
X0345705Y0262196D01*
X0345705Y0260598D02*
X0347133Y0260598D01*
X0331551Y0259568D02*
X0330910Y0259302D01*
X0330694Y0259087D01*
X0330479Y0259302D01*
X0330173Y0259429D01*
X0330113Y0259573D01*
X0328876Y0260810D01*
X0327241Y0262445D01*
X0327677Y0262881D01*
X0328133Y0263983D01*
X0328133Y0290673D01*
X0328524Y0291064D01*
X0329133Y0292535D01*
X0329133Y0294126D01*
X0328524Y0295596D01*
X0327399Y0296721D01*
X0325929Y0297330D01*
X0324338Y0297330D01*
X0322868Y0296721D01*
X0321883Y0295737D01*
X0321883Y0321427D01*
X0321427Y0322530D01*
X0320583Y0323373D01*
X0316244Y0327712D01*
X0317252Y0327712D01*
X0318858Y0328377D01*
X0320087Y0329606D01*
X0320752Y0331211D01*
X0320752Y0332949D01*
X0320087Y0334555D01*
X0319570Y0335071D01*
X0319570Y0335603D01*
X0320514Y0335212D01*
X0322252Y0335212D01*
X0323570Y0335758D01*
X0323570Y0335445D01*
X0322680Y0334555D01*
X0322015Y0332949D01*
X0322015Y0331211D01*
X0322680Y0329606D01*
X0323909Y0328377D01*
X0325514Y0327712D01*
X0327252Y0327712D01*
X0328858Y0328377D01*
X0330087Y0329606D01*
X0330752Y0331211D01*
X0330752Y0332949D01*
X0330087Y0334555D01*
X0329570Y0335071D01*
X0329570Y0335603D01*
X0330514Y0335212D01*
X0332252Y0335212D01*
X0333858Y0335877D01*
X0335087Y0337106D01*
X0335681Y0338540D01*
X0336133Y0338088D01*
X0336133Y0337535D01*
X0336742Y0336064D01*
X0337868Y0334939D01*
X0339338Y0334330D01*
X0340929Y0334330D01*
X0342399Y0334939D01*
X0342416Y0334956D01*
X0342992Y0333564D01*
X0344118Y0332439D01*
X0345588Y0331830D01*
X0347133Y0331830D01*
X0347133Y0329573D01*
X0345033Y0327472D01*
X0344774Y0328096D01*
X0343649Y0329221D01*
X0342179Y0329830D01*
X0340588Y0329830D01*
X0339118Y0329221D01*
X0337992Y0328096D01*
X0337383Y0326626D01*
X0337383Y0326073D01*
X0331340Y0320030D01*
X0330883Y0318927D01*
X0330883Y0266508D01*
X0330180Y0265805D01*
X0329515Y0264199D01*
X0329515Y0262461D01*
X0330180Y0260856D01*
X0331409Y0259627D01*
X0331551Y0259568D01*
X0330438Y0260598D02*
X0329088Y0260598D01*
X0329625Y0262196D02*
X0327490Y0262196D01*
X0328055Y0263795D02*
X0329515Y0263795D01*
X0330009Y0265393D02*
X0328133Y0265393D01*
X0328133Y0266992D02*
X0330883Y0266992D01*
X0330883Y0268590D02*
X0328133Y0268590D01*
X0328133Y0270189D02*
X0330883Y0270189D01*
X0330883Y0271787D02*
X0328133Y0271787D01*
X0328133Y0273386D02*
X0330883Y0273386D01*
X0330883Y0274984D02*
X0328133Y0274984D01*
X0328133Y0276583D02*
X0330883Y0276583D01*
X0330883Y0278181D02*
X0328133Y0278181D01*
X0328133Y0279780D02*
X0330883Y0279780D01*
X0330883Y0281378D02*
X0328133Y0281378D01*
X0328133Y0282977D02*
X0330883Y0282977D01*
X0330883Y0284575D02*
X0328133Y0284575D01*
X0328133Y0286174D02*
X0330883Y0286174D01*
X0330883Y0287772D02*
X0328133Y0287772D01*
X0328133Y0289371D02*
X0330883Y0289371D01*
X0330883Y0290969D02*
X0328429Y0290969D01*
X0329133Y0292568D02*
X0330883Y0292568D01*
X0330883Y0294166D02*
X0329117Y0294166D01*
X0328355Y0295765D02*
X0330883Y0295765D01*
X0330883Y0297363D02*
X0321883Y0297363D01*
X0321883Y0295765D02*
X0321911Y0295765D01*
X0321883Y0298962D02*
X0330883Y0298962D01*
X0330883Y0300560D02*
X0321883Y0300560D01*
X0321883Y0302159D02*
X0330883Y0302159D01*
X0330883Y0303758D02*
X0321883Y0303758D01*
X0321883Y0305356D02*
X0330883Y0305356D01*
X0330883Y0306955D02*
X0321883Y0306955D01*
X0321883Y0308553D02*
X0330883Y0308553D01*
X0330883Y0310152D02*
X0321883Y0310152D01*
X0321883Y0311750D02*
X0330883Y0311750D01*
X0330883Y0313349D02*
X0321883Y0313349D01*
X0321883Y0314947D02*
X0330883Y0314947D01*
X0330883Y0316546D02*
X0321883Y0316546D01*
X0321883Y0318144D02*
X0330883Y0318144D01*
X0331221Y0319743D02*
X0321883Y0319743D01*
X0321883Y0321341D02*
X0332652Y0321341D01*
X0334250Y0322940D02*
X0321017Y0322940D01*
X0320583Y0323373D02*
X0320583Y0323373D01*
X0319418Y0324538D02*
X0335849Y0324538D01*
X0337383Y0326137D02*
X0317819Y0326137D01*
X0317309Y0327735D02*
X0325458Y0327735D01*
X0327309Y0327735D02*
X0337843Y0327735D01*
X0339389Y0329334D02*
X0329815Y0329334D01*
X0330636Y0330932D02*
X0347133Y0330932D01*
X0346894Y0329334D02*
X0343378Y0329334D01*
X0344924Y0327735D02*
X0345296Y0327735D01*
X0344026Y0332531D02*
X0330752Y0332531D01*
X0330263Y0334129D02*
X0342758Y0334129D01*
X0337079Y0335728D02*
X0333498Y0335728D01*
X0335178Y0337326D02*
X0336220Y0337326D01*
X0323570Y0335728D02*
X0323498Y0335728D01*
X0322504Y0334129D02*
X0320263Y0334129D01*
X0320752Y0332531D02*
X0322015Y0332531D01*
X0322130Y0330932D02*
X0320636Y0330932D01*
X0319815Y0329334D02*
X0322952Y0329334D01*
X0314130Y0321341D02*
X0306365Y0321341D01*
X0307964Y0319743D02*
X0315728Y0319743D01*
X0315883Y0318144D02*
X0309562Y0318144D01*
X0311161Y0316546D02*
X0315883Y0316546D01*
X0315883Y0314947D02*
X0312759Y0314947D01*
X0314358Y0313349D02*
X0315883Y0313349D01*
X0315883Y0311750D02*
X0315499Y0311750D01*
X0315633Y0310152D02*
X0315883Y0310152D01*
X0315883Y0308553D02*
X0315633Y0308553D01*
X0315633Y0306955D02*
X0315883Y0306955D01*
X0315883Y0305356D02*
X0315633Y0305356D01*
X0315633Y0303758D02*
X0315883Y0303758D01*
X0315883Y0302159D02*
X0315633Y0302159D01*
X0315633Y0300560D02*
X0315883Y0300560D01*
X0315883Y0298962D02*
X0315633Y0298962D01*
X0315633Y0297363D02*
X0315883Y0297363D01*
X0315883Y0295765D02*
X0315633Y0295765D01*
X0315633Y0294166D02*
X0315883Y0294166D01*
X0315883Y0292568D02*
X0315633Y0292568D01*
X0302133Y0294331D02*
X0300929Y0294830D01*
X0299338Y0294830D01*
X0297868Y0294221D01*
X0297073Y0293427D01*
X0293219Y0293427D01*
X0293083Y0293755D01*
X0292408Y0294430D01*
X0291526Y0294795D01*
X0288757Y0294795D01*
X0282273Y0301280D01*
X0281429Y0302123D01*
X0280327Y0302580D01*
X0275633Y0302580D01*
X0275633Y0309264D01*
X0275956Y0309130D01*
X0279311Y0309130D01*
X0280193Y0309496D01*
X0280868Y0310171D01*
X0281233Y0311053D01*
X0281233Y0312830D01*
X0286316Y0312830D01*
X0286534Y0312305D01*
X0287209Y0311630D01*
X0288091Y0311265D01*
X0292983Y0311265D01*
X0293865Y0311630D01*
X0293883Y0311649D01*
X0293902Y0311630D01*
X0294784Y0311265D01*
X0297552Y0311265D01*
X0302133Y0306684D01*
X0302133Y0294331D01*
X0302133Y0295765D02*
X0287788Y0295765D01*
X0286189Y0297363D02*
X0302133Y0297363D01*
X0302133Y0298962D02*
X0284591Y0298962D01*
X0282992Y0300560D02*
X0302133Y0300560D01*
X0302133Y0302159D02*
X0281343Y0302159D01*
X0275633Y0303758D02*
X0302133Y0303758D01*
X0302133Y0305356D02*
X0275633Y0305356D01*
X0275633Y0306955D02*
X0301863Y0306955D01*
X0300264Y0308553D02*
X0275633Y0308553D01*
X0280849Y0310152D02*
X0298666Y0310152D01*
X0287089Y0311750D02*
X0281233Y0311750D01*
X0280715Y0319743D02*
X0286921Y0319743D01*
X0287133Y0321341D02*
X0244383Y0321341D01*
X0244383Y0319743D02*
X0260453Y0319743D01*
X0259633Y0318144D02*
X0244383Y0318144D01*
X0244383Y0316546D02*
X0259633Y0316546D01*
X0259633Y0314947D02*
X0244383Y0314947D01*
X0244383Y0313349D02*
X0259633Y0313349D01*
X0259633Y0311750D02*
X0244383Y0311750D01*
X0244383Y0310152D02*
X0260266Y0310152D01*
X0262633Y0314880D02*
X0262633Y0320030D01*
X0262633Y0314880D01*
X0262633Y0314880D01*
X0262633Y0314947D02*
X0262633Y0314947D01*
X0262633Y0316546D02*
X0262633Y0316546D01*
X0262633Y0318144D02*
X0262633Y0318144D01*
X0262633Y0319743D02*
X0262633Y0319743D01*
X0249804Y0326137D02*
X0291569Y0326137D01*
X0289599Y0324538D02*
X0247681Y0324538D01*
X0245235Y0322940D02*
X0288000Y0322940D01*
X0302984Y0326137D02*
X0309334Y0326137D01*
X0307985Y0327735D02*
X0250383Y0327735D01*
X0250297Y0329334D02*
X0307704Y0329334D01*
X0307704Y0330932D02*
X0249438Y0330932D01*
X0243328Y0330932D02*
X0238786Y0330932D01*
X0236480Y0330932D02*
X0178033Y0330932D01*
X0178033Y0329334D02*
X0234237Y0329334D01*
X0233633Y0327735D02*
X0177390Y0327735D01*
X0178033Y0332531D02*
X0307704Y0332531D01*
X0307704Y0334129D02*
X0178033Y0334129D01*
X0178033Y0335728D02*
X0307704Y0335728D01*
X0307704Y0337326D02*
X0177653Y0337326D01*
X0176140Y0338925D02*
X0307704Y0338925D01*
X0307704Y0340523D02*
X0174541Y0340523D01*
X0172943Y0342122D02*
X0307704Y0342122D01*
X0307704Y0343720D02*
X0171344Y0343720D01*
X0169746Y0345319D02*
X0307704Y0345319D01*
X0307704Y0346917D02*
X0151783Y0346917D01*
X0151783Y0345319D02*
X0156771Y0345319D01*
X0156425Y0344973D02*
X0156425Y0344973D01*
X0155172Y0343720D02*
X0151783Y0343720D01*
X0151783Y0342122D02*
X0153779Y0342122D01*
X0153483Y0340523D02*
X0151783Y0340523D01*
X0151783Y0338925D02*
X0153483Y0338925D01*
X0153483Y0337326D02*
X0151783Y0337326D01*
X0151783Y0335728D02*
X0153483Y0335728D01*
X0153483Y0334129D02*
X0151783Y0334129D01*
X0151783Y0332531D02*
X0153483Y0332531D01*
X0153720Y0330932D02*
X0151783Y0330932D01*
X0151783Y0329334D02*
X0155029Y0329334D01*
X0156627Y0327735D02*
X0151783Y0327735D01*
X0151783Y0326137D02*
X0162383Y0326137D01*
X0162383Y0324538D02*
X0151783Y0324538D01*
X0151783Y0322940D02*
X0162383Y0322940D01*
X0162383Y0321341D02*
X0151783Y0321341D01*
X0151783Y0319743D02*
X0162383Y0319743D01*
X0162383Y0318144D02*
X0151783Y0318144D01*
X0151783Y0316546D02*
X0162383Y0316546D01*
X0162383Y0314947D02*
X0151783Y0314947D01*
X0151783Y0313349D02*
X0162383Y0313349D01*
X0162383Y0311750D02*
X0151783Y0311750D01*
X0151783Y0310152D02*
X0162383Y0310152D01*
X0162383Y0308553D02*
X0151783Y0308553D01*
X0151783Y0306955D02*
X0162383Y0306955D01*
X0162383Y0305356D02*
X0151783Y0305356D01*
X0151783Y0303758D02*
X0162383Y0303758D01*
X0162383Y0302159D02*
X0151783Y0302159D01*
X0131881Y0302159D02*
X0113386Y0302159D01*
X0113293Y0302252D02*
X0111051Y0303180D01*
X0108625Y0303180D01*
X0106383Y0302252D01*
X0104667Y0300536D01*
X0103738Y0298294D01*
X0103738Y0295867D01*
X0104667Y0293625D01*
X0106383Y0291909D01*
X0108625Y0290980D01*
X0111051Y0290980D01*
X0113293Y0291909D01*
X0115009Y0293625D01*
X0115938Y0295867D01*
X0115938Y0298294D01*
X0115009Y0300536D01*
X0113293Y0302252D01*
X0114984Y0300560D02*
X0130282Y0300560D01*
X0129605Y0298962D02*
X0115661Y0298962D01*
X0115938Y0297363D02*
X0129329Y0297363D01*
X0129371Y0295765D02*
X0115896Y0295765D01*
X0115234Y0294166D02*
X0130033Y0294166D01*
X0131314Y0292568D02*
X0113952Y0292568D01*
X0105724Y0292568D02*
X0080033Y0292568D01*
X0080033Y0294166D02*
X0104442Y0294166D01*
X0103780Y0295765D02*
X0080033Y0295765D01*
X0080033Y0297363D02*
X0103738Y0297363D01*
X0104015Y0298962D02*
X0080033Y0298962D01*
X0080033Y0300560D02*
X0104692Y0300560D01*
X0106290Y0302159D02*
X0080033Y0302159D01*
X0080033Y0255802D02*
X0130045Y0255802D01*
X0130210Y0255968D02*
X0129582Y0255340D01*
X0129061Y0254622D01*
X0128658Y0253831D01*
X0128384Y0252987D01*
X0128250Y0252146D01*
X0133404Y0252146D01*
X0133404Y0257300D01*
X0132563Y0257167D01*
X0131719Y0256892D01*
X0130928Y0256489D01*
X0130210Y0255968D01*
X0128848Y0254204D02*
X0080033Y0254204D01*
X0080033Y0252605D02*
X0128323Y0252605D01*
X0128279Y0251007D02*
X0080033Y0251007D01*
X0080033Y0249408D02*
X0128706Y0249408D01*
X0129766Y0247810D02*
X0080033Y0247810D01*
X0080033Y0239817D02*
X0116128Y0239817D01*
X0114529Y0238219D02*
X0080033Y0238219D01*
X0080033Y0236620D02*
X0112931Y0236620D01*
X0111332Y0235022D02*
X0080033Y0235022D01*
X0080033Y0233423D02*
X0109942Y0233423D01*
X0109633Y0231825D02*
X0080033Y0231825D01*
X0080033Y0230226D02*
X0109633Y0230226D01*
X0109633Y0228627D02*
X0080033Y0228627D01*
X0080033Y0227029D02*
X0109633Y0227029D01*
X0109633Y0225430D02*
X0080033Y0225430D01*
X0080033Y0223832D02*
X0109633Y0223832D01*
X0109633Y0222233D02*
X0080033Y0222233D01*
X0080033Y0220635D02*
X0109633Y0220635D01*
X0109633Y0219036D02*
X0080033Y0219036D01*
X0080033Y0217438D02*
X0109633Y0217438D01*
X0109633Y0215839D02*
X0080033Y0215839D01*
X0080033Y0214241D02*
X0109633Y0214241D01*
X0109633Y0212642D02*
X0080033Y0212642D01*
X0080033Y0211044D02*
X0109633Y0211044D01*
X0109633Y0209445D02*
X0080033Y0209445D01*
X0080033Y0207847D02*
X0109633Y0207847D01*
X0109633Y0206248D02*
X0080033Y0206248D01*
X0080033Y0204650D02*
X0109633Y0204650D01*
X0109633Y0203051D02*
X0080033Y0203051D01*
X0080033Y0201453D02*
X0109633Y0201453D01*
X0109633Y0199854D02*
X0080033Y0199854D01*
X0080033Y0198256D02*
X0109633Y0198256D01*
X0109633Y0196657D02*
X0080033Y0196657D01*
X0080033Y0195059D02*
X0109706Y0195059D01*
X0110761Y0193460D02*
X0080033Y0193460D01*
X0080033Y0191862D02*
X0112359Y0191862D01*
X0113958Y0190263D02*
X0080033Y0190263D01*
X0080033Y0188665D02*
X0115556Y0188665D01*
X0117155Y0187066D02*
X0080033Y0187066D01*
X0080033Y0185468D02*
X0118383Y0185468D01*
X0118383Y0183869D02*
X0080033Y0183869D01*
X0080033Y0182271D02*
X0118383Y0182271D01*
X0118383Y0180672D02*
X0080033Y0180672D01*
X0080033Y0179074D02*
X0118383Y0179074D01*
X0118383Y0177475D02*
X0080033Y0177475D01*
X0080033Y0175877D02*
X0118383Y0175877D01*
X0118383Y0174278D02*
X0080033Y0174278D01*
X0080033Y0172680D02*
X0118383Y0172680D01*
X0118383Y0171081D02*
X0080033Y0171081D01*
X0080033Y0169483D02*
X0118383Y0169483D01*
X0118383Y0167884D02*
X0080033Y0167884D01*
X0080033Y0166286D02*
X0118383Y0166286D01*
X0118383Y0164687D02*
X0080033Y0164687D01*
X0080033Y0163089D02*
X0118383Y0163089D01*
X0118383Y0161490D02*
X0080033Y0161490D01*
X0080033Y0159891D02*
X0118383Y0159891D01*
X0118383Y0158293D02*
X0080033Y0158293D01*
X0080033Y0156694D02*
X0118383Y0156694D01*
X0118383Y0155096D02*
X0080033Y0155096D01*
X0080033Y0153497D02*
X0118383Y0153497D01*
X0118383Y0151899D02*
X0080033Y0151899D01*
X0080033Y0150300D02*
X0095255Y0150300D01*
X0095627Y0150455D02*
X0092502Y0149160D01*
X0090110Y0146768D01*
X0088816Y0143643D01*
X0088816Y0140261D01*
X0090110Y0137136D01*
X0092502Y0134744D01*
X0095627Y0133450D01*
X0099010Y0133450D01*
X0102135Y0134744D01*
X0104526Y0137136D01*
X0105821Y0140261D01*
X0105821Y0143643D01*
X0104526Y0146768D01*
X0102135Y0149160D01*
X0099010Y0150455D01*
X0095627Y0150455D01*
X0099382Y0150300D02*
X0118383Y0150300D01*
X0118383Y0148702D02*
X0102593Y0148702D01*
X0104191Y0147103D02*
X0118383Y0147103D01*
X0118789Y0145505D02*
X0105050Y0145505D01*
X0105712Y0143906D02*
X0120314Y0143906D01*
X0121913Y0142308D02*
X0105821Y0142308D01*
X0105821Y0140709D02*
X0123512Y0140709D01*
X0125713Y0139111D02*
X0105344Y0139111D01*
X0104682Y0137512D02*
X0118441Y0137512D01*
X0118068Y0135914D02*
X0103304Y0135914D01*
X0101099Y0134315D02*
X0118068Y0134315D01*
X0118068Y0132717D02*
X0080033Y0132717D01*
X0080033Y0134315D02*
X0093538Y0134315D01*
X0091333Y0135914D02*
X0080033Y0135914D01*
X0080033Y0137512D02*
X0089955Y0137512D01*
X0089292Y0139111D02*
X0080033Y0139111D01*
X0080033Y0140709D02*
X0088816Y0140709D01*
X0088816Y0142308D02*
X0080033Y0142308D01*
X0080033Y0143906D02*
X0088925Y0143906D01*
X0089587Y0145505D02*
X0080033Y0145505D01*
X0080033Y0147103D02*
X0090445Y0147103D01*
X0092044Y0148702D02*
X0080033Y0148702D01*
X0080033Y0131118D02*
X0118322Y0131118D01*
X0118068Y0129520D02*
X0080033Y0129520D01*
X0080033Y0127921D02*
X0118068Y0127921D01*
X0118068Y0126323D02*
X0080033Y0126323D01*
X0080033Y0124724D02*
X0118198Y0124724D01*
X0119965Y0123126D02*
X0080033Y0123126D01*
X0080033Y0121527D02*
X0211279Y0121527D01*
X0210156Y0123126D02*
X0160985Y0123126D01*
X0163456Y0124724D02*
X0180061Y0124724D01*
X0178736Y0126323D02*
X0164432Y0126323D01*
X0164815Y0127921D02*
X0178265Y0127921D01*
X0178398Y0129520D02*
X0164815Y0129520D01*
X0164815Y0131118D02*
X0179243Y0131118D01*
X0178498Y0132717D02*
X0164815Y0132717D01*
X0164815Y0134315D02*
X0178483Y0134315D01*
X0178483Y0135914D02*
X0164600Y0135914D01*
X0163860Y0137512D02*
X0178483Y0137512D01*
X0178483Y0139111D02*
X0163333Y0139111D01*
X0163333Y0140709D02*
X0178483Y0140709D01*
X0178483Y0142308D02*
X0163333Y0142308D01*
X0162833Y0143906D02*
X0178483Y0143906D01*
X0179457Y0145505D02*
X0160798Y0145505D01*
X0159730Y0142484D02*
X0132633Y0142484D01*
X0132633Y0134177D01*
X0122633Y0134177D01*
X0126826Y0137512D02*
X0128441Y0137512D01*
X0128306Y0145505D02*
X0127201Y0145505D01*
X0128668Y0147103D02*
X0125603Y0147103D01*
X0124383Y0148702D02*
X0128668Y0148702D01*
X0128668Y0150300D02*
X0124383Y0150300D01*
X0124383Y0151899D02*
X0128825Y0151899D01*
X0132449Y0151899D02*
X0132818Y0151899D01*
X0132818Y0150300D02*
X0132449Y0150300D01*
X0136599Y0150300D02*
X0211619Y0150300D01*
X0211933Y0151899D02*
X0136442Y0151899D01*
X0136599Y0148702D02*
X0210020Y0148702D01*
X0208422Y0147103D02*
X0136599Y0147103D01*
X0124383Y0153497D02*
X0211933Y0153497D01*
X0211933Y0155096D02*
X0124383Y0155096D01*
X0124383Y0156694D02*
X0211933Y0156694D01*
X0211933Y0158293D02*
X0124383Y0158293D01*
X0124383Y0159891D02*
X0211933Y0159891D01*
X0211933Y0161490D02*
X0124383Y0161490D01*
X0124383Y0163089D02*
X0211933Y0163089D01*
X0211933Y0164687D02*
X0124383Y0164687D01*
X0124383Y0166286D02*
X0211933Y0166286D01*
X0211933Y0167884D02*
X0137663Y0167884D01*
X0137417Y0167638D02*
X0139172Y0169393D01*
X0140122Y0171686D01*
X0140122Y0174168D01*
X0139172Y0176461D01*
X0137417Y0178215D01*
X0135124Y0179165D01*
X0132642Y0179165D01*
X0130349Y0178215D01*
X0128595Y0176461D01*
X0127645Y0174168D01*
X0127645Y0171686D01*
X0128595Y0169393D01*
X0130349Y0167638D01*
X0132642Y0166688D01*
X0135124Y0166688D01*
X0137417Y0167638D01*
X0139209Y0169483D02*
X0211933Y0169483D01*
X0211933Y0171081D02*
X0139871Y0171081D01*
X0140122Y0172680D02*
X0211933Y0172680D01*
X0211933Y0174278D02*
X0140076Y0174278D01*
X0139414Y0175877D02*
X0211933Y0175877D01*
X0212351Y0177475D02*
X0138158Y0177475D01*
X0135345Y0179074D02*
X0213851Y0179074D01*
X0215450Y0180672D02*
X0124383Y0180672D01*
X0124383Y0179074D02*
X0132421Y0179074D01*
X0129609Y0177475D02*
X0124383Y0177475D01*
X0124383Y0175877D02*
X0128353Y0175877D01*
X0127691Y0174278D02*
X0124383Y0174278D01*
X0124383Y0172680D02*
X0127645Y0172680D01*
X0127895Y0171081D02*
X0124383Y0171081D01*
X0124383Y0169483D02*
X0128557Y0169483D01*
X0130103Y0167884D02*
X0124383Y0167884D01*
X0124383Y0182271D02*
X0217048Y0182271D01*
X0218647Y0183869D02*
X0124383Y0183869D01*
X0124383Y0185468D02*
X0220245Y0185468D01*
X0221844Y0187066D02*
X0124383Y0187066D01*
X0123974Y0188665D02*
X0223442Y0188665D01*
X0225041Y0190263D02*
X0122443Y0190263D01*
X0120844Y0191862D02*
X0226639Y0191862D01*
X0228238Y0193460D02*
X0119246Y0193460D01*
X0117647Y0195059D02*
X0229836Y0195059D01*
X0231435Y0196657D02*
X0116049Y0196657D01*
X0115633Y0198256D02*
X0233033Y0198256D01*
X0234632Y0199854D02*
X0115633Y0199854D01*
X0115633Y0201453D02*
X0236230Y0201453D01*
X0237829Y0203051D02*
X0115633Y0203051D01*
X0115633Y0204650D02*
X0225657Y0204650D01*
X0224624Y0206248D02*
X0115633Y0206248D01*
X0115633Y0207847D02*
X0223026Y0207847D01*
X0221427Y0209445D02*
X0163707Y0209445D01*
X0161560Y0209445D02*
X0115633Y0209445D01*
X0115633Y0211044D02*
X0159263Y0211044D01*
X0158633Y0212642D02*
X0115633Y0212642D01*
X0115633Y0214241D02*
X0158681Y0214241D01*
X0159486Y0215839D02*
X0115633Y0215839D01*
X0115633Y0217438D02*
X0230568Y0217438D01*
X0230568Y0219036D02*
X0115633Y0219036D01*
X0115633Y0220635D02*
X0125456Y0220635D01*
X0127311Y0220635D02*
X0230568Y0220635D01*
X0230821Y0222233D02*
X0129693Y0222233D01*
X0130383Y0223832D02*
X0232642Y0223832D01*
X0234241Y0225430D02*
X0134140Y0225430D01*
X0125984Y0233423D02*
X0118219Y0233423D01*
X0119817Y0235022D02*
X0127582Y0235022D01*
X0124385Y0231825D02*
X0116620Y0231825D01*
X0115633Y0230226D02*
X0123404Y0230226D01*
X0123383Y0228627D02*
X0115633Y0228627D01*
X0115633Y0227029D02*
X0123175Y0227029D01*
X0122406Y0225430D02*
X0115633Y0225430D01*
X0115633Y0223832D02*
X0122383Y0223832D01*
X0123073Y0222233D02*
X0115633Y0222233D01*
X0133404Y0247810D02*
X0134363Y0247810D01*
X0134363Y0249408D02*
X0133404Y0249408D01*
X0133404Y0251007D02*
X0134363Y0251007D01*
X0134363Y0252605D02*
X0133404Y0252605D01*
X0133404Y0254204D02*
X0134363Y0254204D01*
X0134363Y0255802D02*
X0133404Y0255802D01*
X0151783Y0255802D02*
X0157233Y0255802D01*
X0157233Y0254204D02*
X0151783Y0254204D01*
X0151783Y0252605D02*
X0157233Y0252605D01*
X0157439Y0251007D02*
X0151783Y0251007D01*
X0152212Y0249408D02*
X0159006Y0249408D01*
X0157233Y0257401D02*
X0151783Y0257401D01*
X0151783Y0258999D02*
X0157233Y0258999D01*
X0157233Y0260598D02*
X0151783Y0260598D01*
X0151783Y0262196D02*
X0157233Y0262196D01*
X0157233Y0263795D02*
X0151783Y0263795D01*
X0151783Y0265393D02*
X0152576Y0265393D01*
X0155191Y0265393D02*
X0156696Y0265393D01*
X0178434Y0300560D02*
X0200996Y0300560D01*
X0206770Y0300560D02*
X0230883Y0300560D01*
X0230883Y0298962D02*
X0189994Y0298962D01*
X0191593Y0297363D02*
X0230883Y0297363D01*
X0230883Y0295765D02*
X0193191Y0295765D01*
X0194790Y0294166D02*
X0230883Y0294166D01*
X0230883Y0292568D02*
X0195633Y0292568D01*
X0195633Y0290969D02*
X0230883Y0290969D01*
X0230883Y0289371D02*
X0195633Y0289371D01*
X0195633Y0287772D02*
X0230883Y0287772D01*
X0230883Y0286174D02*
X0195633Y0286174D01*
X0195633Y0284575D02*
X0230883Y0284575D01*
X0231300Y0282977D02*
X0195633Y0282977D01*
X0195633Y0281378D02*
X0232843Y0281378D01*
X0234441Y0279780D02*
X0196676Y0279780D01*
X0198275Y0278181D02*
X0199625Y0278181D01*
X0203142Y0278181D02*
X0236189Y0278181D01*
X0254934Y0287772D02*
X0259033Y0287772D01*
X0259033Y0286174D02*
X0256532Y0286174D01*
X0258131Y0284575D02*
X0259397Y0284575D01*
X0259033Y0289371D02*
X0258932Y0289371D01*
X0256424Y0302159D02*
X0255447Y0302159D01*
X0255309Y0303758D02*
X0258818Y0303758D01*
X0251617Y0306955D02*
X0251150Y0306955D01*
X0251150Y0308553D02*
X0251617Y0308553D01*
X0247734Y0308553D02*
X0244383Y0308553D01*
X0244383Y0306955D02*
X0247457Y0306955D01*
X0230883Y0306955D02*
X0205586Y0306955D01*
X0207374Y0305356D02*
X0230883Y0305356D01*
X0230883Y0303758D02*
X0207883Y0303758D01*
X0207728Y0302159D02*
X0230883Y0302159D01*
X0230883Y0308553D02*
X0202762Y0308553D01*
X0201342Y0309973D02*
X0201342Y0309973D01*
X0197756Y0305356D02*
X0187816Y0305356D01*
X0170383Y0313349D02*
X0230883Y0313349D01*
X0230883Y0314947D02*
X0170383Y0314947D01*
X0170383Y0316546D02*
X0230883Y0316546D01*
X0230883Y0318144D02*
X0170383Y0318144D01*
X0170383Y0319743D02*
X0230883Y0319743D01*
X0230883Y0321341D02*
X0170383Y0321341D01*
X0170383Y0322940D02*
X0230883Y0322940D01*
X0231137Y0324538D02*
X0170383Y0324538D01*
X0170383Y0326137D02*
X0232447Y0326137D01*
X0241029Y0329334D02*
X0242469Y0329334D01*
X0212714Y0362902D02*
X0188948Y0362902D01*
X0190547Y0364501D02*
X0212714Y0364501D01*
X0212714Y0366099D02*
X0192145Y0366099D01*
X0193744Y0367698D02*
X0213020Y0367698D01*
X0221747Y0369296D02*
X0195245Y0369296D01*
X0189633Y0372073D02*
X0189633Y0374838D01*
X0189333Y0374537D01*
X0189091Y0374437D01*
X0183026Y0368372D01*
X0181960Y0367930D01*
X0180085Y0367930D01*
X0179548Y0367393D01*
X0184954Y0367393D01*
X0189633Y0372073D01*
X0189633Y0372494D02*
X0187148Y0372494D01*
X0188455Y0370895D02*
X0185549Y0370895D01*
X0186857Y0369296D02*
X0183951Y0369296D01*
X0185258Y0367698D02*
X0179852Y0367698D01*
X0175496Y0371544D02*
X0175496Y0373237D01*
X0175131Y0374119D01*
X0174455Y0374794D01*
X0173573Y0375159D01*
X0168752Y0375159D01*
X0168752Y0376680D01*
X0180710Y0376680D01*
X0181776Y0377122D01*
X0184276Y0379622D01*
X0184633Y0379979D01*
X0184633Y0378181D01*
X0180182Y0373730D01*
X0178306Y0373730D01*
X0177241Y0373289D01*
X0176425Y0372473D01*
X0175496Y0371544D01*
X0175496Y0372494D02*
X0176445Y0372494D01*
X0176425Y0372473D02*
X0176425Y0372473D01*
X0175142Y0374092D02*
X0180544Y0374092D01*
X0182142Y0375691D02*
X0168752Y0375691D01*
X0181943Y0377289D02*
X0183741Y0377289D01*
X0183542Y0378888D02*
X0184633Y0378888D01*
X0188746Y0374092D02*
X0189633Y0374092D01*
X0184633Y0391676D02*
X0183389Y0391676D01*
X0167692Y0350114D02*
X0152269Y0350114D01*
X0151783Y0348516D02*
X0307704Y0348516D01*
X0310933Y0324538D02*
X0303963Y0324538D01*
X0304767Y0322940D02*
X0312531Y0322940D01*
X0297813Y0294166D02*
X0292671Y0294166D01*
X0345705Y0295765D02*
X0355883Y0295765D01*
X0355883Y0297363D02*
X0345714Y0297363D01*
X0345746Y0298962D02*
X0355883Y0298962D01*
X0355883Y0300560D02*
X0345778Y0300560D01*
X0346478Y0302159D02*
X0355883Y0302159D01*
X0355883Y0303758D02*
X0346633Y0303758D01*
X0346124Y0305356D02*
X0355883Y0305356D01*
X0355883Y0306955D02*
X0345833Y0306955D01*
X0345833Y0308553D02*
X0355883Y0308553D01*
X0355883Y0310152D02*
X0345833Y0310152D01*
X0345833Y0311750D02*
X0355883Y0311750D01*
X0355883Y0313349D02*
X0346774Y0313349D01*
X0348372Y0314947D02*
X0355360Y0314947D01*
X0354043Y0316546D02*
X0349971Y0316546D01*
X0351569Y0318144D02*
X0353633Y0318144D01*
X0353889Y0319743D02*
X0353168Y0319743D01*
X0354766Y0321341D02*
X0354987Y0321341D01*
X0369570Y0353311D02*
X0375030Y0353311D01*
X0372953Y0354910D02*
X0369570Y0354910D01*
X0369459Y0356508D02*
X0372383Y0356508D01*
X0372479Y0358107D02*
X0368349Y0358107D01*
X0369682Y0359705D02*
X0366751Y0359705D01*
X0367893Y0361304D02*
X0365152Y0361304D01*
X0373085Y0359705D02*
X0373352Y0359705D01*
X0368383Y0385282D02*
X0364866Y0385282D01*
X0364866Y0386880D02*
X0368383Y0386880D01*
X0368383Y0388479D02*
X0364866Y0388479D01*
X0364866Y0390077D02*
X0368383Y0390077D01*
X0367545Y0391676D02*
X0364866Y0391676D01*
X0364866Y0393274D02*
X0365947Y0393274D01*
X0375938Y0434835D02*
X0386257Y0434835D01*
X0386257Y0436434D02*
X0375938Y0436434D01*
X0379595Y0438032D02*
X0380062Y0438032D01*
X0380062Y0439631D02*
X0379595Y0439631D01*
X0379595Y0441229D02*
X0380062Y0441229D01*
X0380062Y0442828D02*
X0379595Y0442828D01*
X0379595Y0444427D02*
X0380062Y0444427D01*
X0382948Y0444427D02*
X0386257Y0444427D01*
X0386257Y0446025D02*
X0370533Y0446025D01*
X0369941Y0447624D02*
X0386257Y0447624D01*
X0386257Y0449222D02*
X0368343Y0449222D01*
X0383695Y0442828D02*
X0386257Y0442828D01*
X0386257Y0441229D02*
X0383695Y0441229D01*
X0383695Y0439631D02*
X0386257Y0439631D01*
X0386257Y0438032D02*
X0383579Y0438032D01*
X0386257Y0450821D02*
X0351205Y0450821D01*
X0351205Y0450889D02*
X0351205Y0452504D01*
X0351082Y0452962D01*
X0350845Y0453372D01*
X0350510Y0453708D01*
X0350100Y0453945D01*
X0349642Y0454067D01*
X0347633Y0454067D01*
X0347633Y0450889D01*
X0351205Y0450889D01*
X0351205Y0452419D02*
X0386257Y0452419D01*
X0386257Y0454018D02*
X0349827Y0454018D01*
X0347633Y0454018D02*
X0347633Y0454018D01*
X0347633Y0452419D02*
X0347633Y0452419D01*
X0345440Y0454018D02*
X0339827Y0454018D01*
X0339642Y0454067D02*
X0337633Y0454067D01*
X0337633Y0450889D01*
X0341205Y0450889D01*
X0341205Y0452504D01*
X0341082Y0452962D01*
X0340845Y0453372D01*
X0340510Y0453708D01*
X0340100Y0453945D01*
X0339642Y0454067D01*
X0337633Y0454018D02*
X0337633Y0454018D01*
X0337633Y0452419D02*
X0337633Y0452419D01*
X0337633Y0450821D02*
X0337633Y0450821D01*
X0341205Y0450821D02*
X0344062Y0450821D01*
X0344062Y0452419D02*
X0341205Y0452419D01*
X0341191Y0449222D02*
X0344076Y0449222D01*
X0343462Y0447624D02*
X0341805Y0447624D01*
X0341805Y0446025D02*
X0343462Y0446025D01*
X0343462Y0444427D02*
X0341805Y0444427D01*
X0341234Y0442828D02*
X0344033Y0442828D01*
X0343239Y0441229D02*
X0342027Y0441229D01*
X0342081Y0439631D02*
X0343186Y0439631D01*
X0343186Y0438032D02*
X0342081Y0438032D01*
X0342601Y0436434D02*
X0343186Y0436434D01*
X0324633Y0439631D02*
X0323623Y0439631D01*
X0317799Y0433237D02*
X0244038Y0433237D01*
X0242488Y0433237D02*
X0231293Y0433237D01*
X0231293Y0434835D02*
X0234573Y0434835D01*
X0234573Y0434105D02*
X0242488Y0434105D01*
X0242488Y0438280D01*
X0236137Y0438280D01*
X0235679Y0438157D01*
X0235268Y0437920D01*
X0234933Y0437585D01*
X0234696Y0437175D01*
X0234573Y0436717D01*
X0234573Y0434105D01*
X0234573Y0436434D02*
X0231330Y0436434D01*
X0232088Y0438032D02*
X0235463Y0438032D01*
X0234573Y0431638D02*
X0231293Y0431638D01*
X0231293Y0430040D02*
X0234573Y0430040D01*
X0235910Y0428441D02*
X0230548Y0428441D01*
X0242488Y0428441D02*
X0244038Y0428441D01*
X0244038Y0430040D02*
X0242488Y0430040D01*
X0242488Y0431638D02*
X0244038Y0431638D01*
X0244038Y0434835D02*
X0242488Y0434835D01*
X0242488Y0436434D02*
X0244038Y0436434D01*
X0244038Y0438032D02*
X0242488Y0438032D01*
X0223364Y0450821D02*
X0221997Y0450821D01*
X0249845Y0465207D02*
X0317764Y0465207D01*
X0223165Y0380486D02*
X0222367Y0380486D01*
X0223233Y0378888D02*
X0220768Y0378888D01*
X0093382Y0457215D02*
X0080033Y0457215D01*
X0080033Y0458813D02*
X0091268Y0458813D01*
X0089928Y0460412D02*
X0080033Y0460412D01*
X0080033Y0462010D02*
X0089266Y0462010D01*
X0088816Y0463609D02*
X0080033Y0463609D01*
X0080033Y0465207D02*
X0088816Y0465207D01*
X0088952Y0466806D02*
X0080033Y0466806D01*
X0080033Y0468404D02*
X0089614Y0468404D01*
X0090510Y0470003D02*
X0080033Y0470003D01*
X0080033Y0471601D02*
X0092109Y0471601D01*
X0225215Y0215839D02*
X0230943Y0215839D01*
X0230568Y0214241D02*
X0226814Y0214241D01*
X0228412Y0212642D02*
X0230568Y0212642D01*
X0234739Y0207847D02*
X0242624Y0207847D01*
X0241026Y0206248D02*
X0233141Y0206248D01*
X0232110Y0204650D02*
X0239427Y0204650D01*
X0239453Y0209445D02*
X0244223Y0209445D01*
X0245822Y0211044D02*
X0239699Y0211044D01*
X0239699Y0212642D02*
X0247389Y0212642D01*
X0247955Y0214241D02*
X0239699Y0214241D01*
X0239324Y0215839D02*
X0250021Y0215839D01*
X0251383Y0212080D02*
X0215133Y0175830D01*
X0215133Y0147080D01*
X0206823Y0145505D02*
X0205810Y0145505D01*
X0206783Y0134315D02*
X0210883Y0134315D01*
X0210883Y0132717D02*
X0206768Y0132717D01*
X0205773Y0131118D02*
X0210883Y0131118D01*
X0210883Y0129520D02*
X0196869Y0129520D01*
X0197002Y0127921D02*
X0210883Y0127921D01*
X0210276Y0126323D02*
X0196530Y0126323D01*
X0195205Y0124724D02*
X0209883Y0124724D01*
X0227903Y0137914D02*
X0227903Y0144311D01*
X0225133Y0147080D01*
X0229999Y0149446D02*
X0230460Y0148298D01*
X0230460Y0138210D01*
X0230462Y0137914D01*
X0236285Y0143906D02*
X0239144Y0143906D01*
X0190061Y0124724D02*
X0185205Y0124724D01*
X0186530Y0126323D02*
X0188736Y0126323D01*
X0188265Y0127921D02*
X0187002Y0127921D01*
X0186869Y0129520D02*
X0188398Y0129520D01*
X0160133Y0132039D02*
X0160133Y0142080D01*
X0159730Y0142484D01*
X0160133Y0132039D02*
X0159415Y0131320D01*
X0155374Y0124724D02*
X0153456Y0124724D01*
X0150985Y0123126D02*
X0157845Y0123126D01*
X0149415Y0131320D02*
X0145578Y0127484D01*
X0132633Y0127484D01*
X0122633Y0127484D01*
X0125301Y0123126D02*
X0129965Y0123126D01*
X0135301Y0123126D02*
X0147845Y0123126D01*
D41*
X0132230Y0142080D02*
X0132633Y0142484D01*
X0132230Y0142080D02*
X0126383Y0142080D01*
X0121383Y0147080D01*
X0121383Y0187080D01*
X0112633Y0195830D01*
X0112633Y0232080D01*
X0118883Y0238330D01*
X0296383Y0238330D01*
X0311383Y0253330D01*
X0322008Y0261455D02*
X0325133Y0264580D01*
X0325133Y0293330D01*
X0312633Y0289580D02*
X0312633Y0310830D01*
X0300133Y0323330D01*
X0292633Y0323330D01*
X0290133Y0320830D01*
X0290133Y0316234D01*
X0290537Y0315830D01*
X0278583Y0315830D01*
X0277633Y0314880D01*
X0272633Y0314880D02*
X0272633Y0299580D01*
X0279730Y0299580D01*
X0288883Y0290427D01*
X0299730Y0290427D01*
X0300133Y0290830D01*
X0305133Y0280830D02*
X0305133Y0307927D01*
X0297230Y0315830D01*
X0310704Y0329009D02*
X0318883Y0320830D01*
X0318883Y0273330D01*
X0333883Y0263330D02*
X0333883Y0318330D01*
X0341383Y0325830D01*
X0350133Y0328330D02*
X0337633Y0315830D01*
X0337633Y0278330D01*
X0352633Y0280427D02*
X0352633Y0289580D01*
X0358883Y0278330D02*
X0358883Y0317080D01*
X0357633Y0318330D01*
X0365133Y0318330D02*
X0372633Y0310830D01*
X0372633Y0299580D01*
X0365133Y0295830D02*
X0365133Y0289177D01*
X0380133Y0289177D01*
X0380133Y0282484D02*
X0384287Y0282484D01*
X0385133Y0283330D01*
X0385133Y0305830D01*
X0383883Y0307080D01*
X0380133Y0319580D02*
X0380133Y0326234D01*
X0366570Y0347897D02*
X0366570Y0355643D01*
X0362633Y0359580D01*
X0325133Y0359580D01*
X0318883Y0365830D01*
X0316383Y0368330D02*
X0316383Y0370830D01*
X0318883Y0373330D01*
X0316383Y0368330D02*
X0313883Y0365830D01*
X0310704Y0365830D01*
X0310704Y0360830D02*
X0310704Y0329009D01*
X0316383Y0332080D02*
X0316570Y0332267D01*
X0316570Y0347897D01*
X0321383Y0347710D02*
X0321383Y0339580D01*
X0321383Y0347710D02*
X0321570Y0347897D01*
X0326570Y0347897D02*
X0326570Y0332267D01*
X0326383Y0332080D01*
X0331383Y0339580D02*
X0331383Y0347710D01*
X0331570Y0347897D01*
X0336383Y0347710D02*
X0336383Y0342080D01*
X0340133Y0338330D01*
X0341383Y0344580D02*
X0341383Y0347710D01*
X0341570Y0347897D01*
X0341383Y0344580D02*
X0346383Y0339580D01*
X0346383Y0335830D01*
X0350133Y0340830D02*
X0346570Y0344393D01*
X0346570Y0347897D01*
X0350133Y0340830D02*
X0350133Y0328330D01*
X0361570Y0347897D02*
X0361570Y0353143D01*
X0360133Y0354580D01*
X0323883Y0354580D01*
X0318883Y0359580D01*
X0336383Y0347710D02*
X0336570Y0347897D01*
X0371383Y0363330D02*
X0371383Y0392080D01*
X0362633Y0400830D01*
X0342633Y0400830D01*
X0336383Y0407080D01*
X0336383Y0418576D01*
X0336570Y0418763D01*
X0336383Y0418950D01*
X0336383Y0428330D01*
X0332633Y0432080D01*
X0332633Y0462080D01*
X0312633Y0482080D01*
X0218883Y0482080D01*
X0187633Y0450830D01*
X0187633Y0377080D01*
X0192633Y0370830D02*
X0192633Y0449580D01*
X0221383Y0478330D01*
X0308883Y0478330D01*
X0327633Y0459580D01*
X0327633Y0428330D01*
X0331570Y0424393D01*
X0331570Y0418763D01*
X0321570Y0418763D02*
X0321383Y0418950D01*
X0321383Y0435830D01*
X0316383Y0428330D02*
X0316383Y0418950D01*
X0316570Y0418763D01*
X0310704Y0405830D02*
X0328755Y0405830D01*
X0351255Y0383330D01*
X0366383Y0404580D02*
X0366383Y0418576D01*
X0366570Y0418763D01*
X0362633Y0419826D02*
X0361570Y0418763D01*
X0362633Y0419826D02*
X0362633Y0428330D01*
X0357633Y0425830D02*
X0357633Y0419826D01*
X0356570Y0418763D01*
X0352633Y0419826D02*
X0351570Y0418763D01*
X0352633Y0419826D02*
X0352633Y0428330D01*
X0346570Y0436096D02*
X0346570Y0418763D01*
X0341570Y0418763D02*
X0341570Y0433222D01*
X0337712Y0437080D01*
X0337712Y0445692D01*
X0337633Y0445771D01*
X0337633Y0450830D02*
X0337633Y0457080D01*
X0337633Y0450889D02*
X0347633Y0450889D01*
X0373824Y0450889D01*
X0373883Y0450830D01*
X0337633Y0450830D01*
X0347555Y0445692D02*
X0347555Y0437080D01*
X0346570Y0436096D01*
X0347555Y0445692D02*
X0347633Y0445771D01*
X0372633Y0440830D02*
X0372633Y0430830D01*
X0373883Y0429580D01*
X0373883Y0428635D01*
X0372938Y0429580D01*
X0372938Y0440830D01*
X0379828Y0440830D02*
X0379828Y0429580D01*
X0381570Y0427838D01*
X0381570Y0418763D01*
X0376570Y0418763D02*
X0376570Y0423143D01*
X0376383Y0423330D01*
X0373883Y0425830D01*
X0373883Y0428635D01*
X0376383Y0423330D02*
X0376383Y0418950D01*
X0376570Y0418763D01*
X0371570Y0418763D02*
X0371383Y0418576D01*
X0371383Y0410830D01*
X0366383Y0404580D02*
X0376383Y0394580D01*
X0376383Y0357080D01*
X0381383Y0385830D02*
X0381383Y0429580D01*
X0380133Y0430830D01*
X0380133Y0441135D01*
X0379828Y0440830D01*
X0380133Y0441135D02*
X0380133Y0444580D01*
X0373883Y0450830D01*
X0320133Y0457080D02*
X0311383Y0457080D01*
X0298883Y0444580D01*
X0298883Y0408330D01*
X0246383Y0328330D02*
X0241383Y0323330D01*
X0241383Y0288330D01*
X0243883Y0285830D01*
X0252633Y0285830D01*
X0257633Y0280830D01*
X0257633Y0272080D01*
X0262633Y0275830D02*
X0262633Y0289280D01*
X0267633Y0289280D02*
X0267633Y0283330D01*
X0288883Y0262080D01*
X0295133Y0268330D02*
X0288883Y0274580D01*
X0288883Y0283734D01*
X0288883Y0274580D02*
X0277633Y0285830D01*
X0277633Y0289280D01*
X0277633Y0294580D01*
X0276383Y0295830D01*
X0261383Y0295830D01*
X0257633Y0292080D01*
X0252633Y0292080D01*
X0251383Y0293330D01*
X0251383Y0298635D01*
X0257633Y0298330D02*
X0267633Y0308330D01*
X0267633Y0314880D01*
X0262633Y0314880D02*
X0262333Y0314580D01*
X0256383Y0314580D01*
X0251383Y0309580D01*
X0251383Y0305525D01*
X0233883Y0323330D02*
X0237633Y0327080D01*
X0233883Y0323330D02*
X0233883Y0284580D01*
X0237633Y0280830D01*
X0248883Y0280830D01*
X0250133Y0279580D01*
X0250133Y0272080D01*
X0251383Y0265830D02*
X0252633Y0264580D01*
X0272633Y0283330D02*
X0272633Y0289280D01*
X0272633Y0283330D02*
X0275133Y0280830D01*
X0295133Y0268330D02*
X0295133Y0254580D01*
X0296383Y0253330D01*
X0310133Y0238330D02*
X0314818Y0233645D01*
X0318883Y0233645D01*
X0318824Y0225830D02*
X0310133Y0225830D01*
X0308883Y0225830D01*
X0302633Y0232080D01*
X0295133Y0232080D02*
X0308883Y0218330D01*
X0310133Y0218330D01*
X0310566Y0217897D01*
X0318883Y0217897D01*
X0318883Y0225771D02*
X0318824Y0225830D01*
X0327633Y0218330D02*
X0327633Y0204580D01*
X0325133Y0202080D01*
X0318952Y0202080D01*
X0318883Y0202149D01*
X0311383Y0199580D02*
X0311383Y0192080D01*
X0311383Y0199580D02*
X0288883Y0222080D01*
X0285133Y0222080D01*
X0272633Y0234580D01*
X0131383Y0234580D01*
X0126383Y0229580D01*
X0126383Y0224580D01*
X0131383Y0228330D02*
X0132633Y0229580D01*
X0271383Y0229580D01*
X0282633Y0218330D01*
X0287633Y0218330D01*
X0306383Y0199580D01*
X0306383Y0187080D01*
X0296383Y0188330D02*
X0296383Y0200830D01*
X0298883Y0200830D01*
X0296383Y0200830D02*
X0296383Y0203330D01*
X0291383Y0208330D01*
X0282633Y0208330D01*
X0282633Y0213330D01*
X0282633Y0208330D02*
X0275133Y0208330D01*
X0272633Y0205830D01*
X0272633Y0203330D01*
X0281915Y0194708D02*
X0281915Y0173173D01*
X0283883Y0173173D02*
X0283883Y0178330D01*
X0285133Y0179580D01*
X0285133Y0185427D01*
X0285537Y0185830D01*
X0287633Y0178330D02*
X0285852Y0176549D01*
X0285852Y0173173D01*
X0287633Y0178330D02*
X0291383Y0178330D01*
X0292230Y0185830D02*
X0293883Y0185830D01*
X0296383Y0188330D01*
X0289730Y0195830D02*
X0289730Y0202927D01*
X0290133Y0203330D01*
X0283037Y0195830D02*
X0281915Y0194708D01*
X0277633Y0184580D02*
X0277633Y0180830D01*
X0277633Y0184580D02*
X0271383Y0190830D01*
X0248883Y0190830D01*
X0245133Y0194580D01*
X0240133Y0187080D02*
X0264070Y0187080D01*
X0271477Y0179674D01*
X0277978Y0173173D01*
X0275606Y0171608D02*
X0273883Y0173330D01*
X0263883Y0173330D01*
X0263883Y0170830D01*
X0269415Y0165299D01*
X0274041Y0165299D01*
X0281915Y0165299D01*
X0283883Y0163330D01*
X0274041Y0163330D02*
X0251383Y0163330D01*
X0255665Y0161362D02*
X0251383Y0157080D01*
X0221383Y0157080D01*
X0212633Y0144580D02*
X0213883Y0143330D01*
X0213883Y0124580D01*
X0222267Y0127950D02*
X0222441Y0127776D01*
X0243651Y0127776D01*
X0243763Y0127950D02*
X0229799Y0127950D01*
X0229231Y0127383D01*
X0236810Y0127383D02*
X0243196Y0127383D01*
X0243763Y0127950D01*
X0253883Y0132484D02*
X0254287Y0132080D01*
X0263883Y0132080D01*
X0270537Y0132080D01*
X0277230Y0132080D02*
X0277230Y0140023D01*
X0278037Y0140830D01*
X0277978Y0140889D01*
X0277978Y0153488D01*
X0279946Y0153488D02*
X0279946Y0151017D01*
X0281383Y0148330D01*
X0283883Y0150830D02*
X0283883Y0153488D01*
X0283883Y0150830D02*
X0286383Y0148330D01*
X0290537Y0148330D01*
X0293037Y0145830D01*
X0298883Y0146677D02*
X0298883Y0152080D01*
X0308883Y0152080D01*
X0299730Y0145830D02*
X0298883Y0146677D01*
X0321383Y0147661D02*
X0321383Y0159580D01*
X0328883Y0150830D02*
X0328883Y0144580D01*
X0325123Y0140820D01*
X0325123Y0138999D01*
X0337230Y0164580D02*
X0346383Y0164580D01*
X0350133Y0168330D01*
X0350133Y0179580D01*
X0350379Y0180830D01*
X0350379Y0184580D01*
X0346629Y0180830D01*
X0342633Y0180830D01*
X0342633Y0189423D02*
X0342505Y0189551D01*
X0341383Y0190673D01*
X0341383Y0193330D01*
X0335133Y0199580D01*
X0335133Y0203330D01*
X0338883Y0207080D01*
X0338883Y0242080D01*
X0336383Y0244580D01*
X0334631Y0253330D02*
X0334631Y0262582D01*
X0333883Y0263330D01*
X0350133Y0260830D02*
X0350133Y0253576D01*
X0350379Y0253330D01*
X0350133Y0260830D02*
X0352633Y0263330D01*
X0352633Y0273734D01*
X0360133Y0263330D02*
X0360133Y0255210D01*
X0358253Y0253330D01*
X0365133Y0254324D02*
X0365133Y0282484D01*
X0372633Y0283330D02*
X0372633Y0278330D01*
X0371383Y0277080D01*
X0371383Y0274177D01*
X0371383Y0267484D02*
X0371383Y0264580D01*
X0373883Y0262080D01*
X0373883Y0253448D01*
X0373883Y0244580D01*
X0373883Y0242080D01*
X0375133Y0240830D01*
X0373883Y0244580D02*
X0374001Y0244698D01*
X0374001Y0253330D01*
X0373883Y0253448D01*
X0366127Y0253330D02*
X0365133Y0254324D01*
X0356383Y0244580D02*
X0373883Y0244580D01*
X0381875Y0237572D02*
X0377633Y0233330D01*
X0353883Y0233330D01*
X0347633Y0235830D02*
X0356383Y0244580D01*
X0365133Y0215830D02*
X0346383Y0215830D01*
X0342633Y0212080D01*
X0342633Y0202080D01*
X0340133Y0199580D01*
X0346383Y0198330D02*
X0348883Y0200830D01*
X0348883Y0212080D01*
X0363883Y0212080D01*
X0366383Y0209580D01*
X0366383Y0204580D01*
X0373883Y0197080D01*
X0373883Y0189669D01*
X0374001Y0189551D01*
X0366383Y0189807D02*
X0366383Y0197080D01*
X0360133Y0195830D02*
X0360133Y0198330D01*
X0360133Y0195830D02*
X0358883Y0194580D01*
X0358883Y0190181D01*
X0358253Y0189551D01*
X0358253Y0182710D01*
X0360133Y0180830D01*
X0360133Y0169580D01*
X0367633Y0180830D02*
X0366127Y0182336D01*
X0366127Y0189551D01*
X0366383Y0189807D01*
X0355133Y0202080D02*
X0350133Y0197080D01*
X0350133Y0189797D01*
X0350379Y0189551D01*
X0350379Y0184580D01*
X0334631Y0189551D02*
X0334631Y0177179D01*
X0334730Y0173330D01*
X0328037Y0173330D02*
X0328037Y0188271D01*
X0326757Y0189551D01*
X0326383Y0189580D02*
X0328883Y0189580D01*
X0328539Y0189925D02*
X0326383Y0189925D01*
X0326383Y0189580D02*
X0326383Y0197080D01*
X0330133Y0197080D01*
X0331383Y0204580D01*
X0331383Y0209580D01*
X0332633Y0210830D01*
X0310133Y0209580D02*
X0287633Y0232080D01*
X0318883Y0241519D02*
X0321944Y0241519D01*
X0327633Y0235830D01*
X0365133Y0215830D02*
X0373883Y0207080D01*
X0373883Y0205830D01*
X0381875Y0197838D01*
X0381875Y0189551D01*
X0381875Y0237572D02*
X0381875Y0253330D01*
X0382633Y0254088D01*
X0382633Y0267080D01*
X0380133Y0269580D01*
X0380133Y0282484D01*
X0336383Y0165427D02*
X0337230Y0164580D01*
X0274041Y0161362D02*
X0255665Y0161362D01*
X0266383Y0149984D02*
X0268037Y0148330D01*
X0272633Y0148330D01*
X0253883Y0139177D02*
X0253704Y0138997D01*
X0202633Y0135830D02*
X0198883Y0139580D01*
X0201383Y0140830D01*
X0196383Y0140830D02*
X0195133Y0139580D01*
X0192633Y0134580D02*
X0192633Y0128330D01*
X0182633Y0128330D02*
X0182633Y0134580D01*
X0190133Y0139580D02*
X0190133Y0140830D01*
X0171383Y0158330D02*
X0167633Y0154580D01*
X0162633Y0154580D01*
X0161383Y0153330D01*
X0171383Y0158330D02*
X0171383Y0175830D01*
X0193883Y0175830D01*
X0228883Y0207080D02*
X0229730Y0207080D01*
X0235133Y0212484D01*
X0235133Y0219177D02*
X0235133Y0222080D01*
X0238883Y0225830D01*
X0241383Y0225830D01*
X0201383Y0274580D02*
X0197633Y0274580D01*
X0192633Y0279580D01*
X0192633Y0292080D01*
X0187633Y0297080D01*
X0176383Y0297080D01*
X0171383Y0258330D02*
X0171383Y0257080D01*
X0168883Y0254580D01*
X0165133Y0258330D01*
X0165133Y0259580D01*
X0170143Y0364393D02*
X0186196Y0364393D01*
X0192633Y0370830D01*
D42*
X0185133Y0368330D03*
X0178883Y0374580D03*
X0176383Y0380830D03*
X0170133Y0380830D03*
X0167633Y0387080D03*
X0173883Y0387080D03*
X0180133Y0387080D03*
X0155133Y0358330D03*
X0160133Y0340830D03*
X0166383Y0337080D03*
X0172633Y0332080D03*
X0160133Y0332080D03*
X0170133Y0348330D03*
X0170133Y0353330D03*
X0139070Y0364393D03*
X0133883Y0400830D03*
X0145133Y0412080D03*
X0151383Y0419580D03*
X0151383Y0428330D03*
X0137633Y0428330D03*
X0137633Y0419580D03*
X0185133Y0308330D03*
X0176383Y0297080D03*
X0201383Y0274580D03*
X0193883Y0260830D03*
X0187633Y0260830D03*
X0181383Y0260830D03*
X0181383Y0253330D03*
X0187633Y0253330D03*
X0172633Y0259580D03*
X0168883Y0254580D03*
X0165133Y0259580D03*
X0148883Y0247080D03*
X0145133Y0253330D03*
X0131383Y0228330D03*
X0126383Y0224580D03*
X0162633Y0213330D03*
X0193883Y0207080D03*
X0193883Y0175830D03*
X0221383Y0157080D03*
X0235268Y0153330D03*
X0241383Y0149580D03*
X0246383Y0149580D03*
X0251383Y0149580D03*
X0256383Y0149580D03*
X0260133Y0157080D03*
X0251383Y0163330D03*
X0260133Y0167080D03*
X0263883Y0170830D03*
X0271477Y0179674D03*
X0277633Y0180830D03*
X0291383Y0178330D03*
X0306383Y0187080D03*
X0311383Y0192080D03*
X0298883Y0200830D03*
X0290133Y0203330D03*
X0282633Y0213330D03*
X0272633Y0203330D03*
X0245133Y0194580D03*
X0240133Y0187080D03*
X0233883Y0187080D03*
X0228883Y0207080D03*
X0241383Y0225830D03*
X0250133Y0272080D03*
X0257633Y0272080D03*
X0262633Y0275830D03*
X0275133Y0280830D03*
X0288883Y0262080D03*
X0305133Y0280830D03*
X0300133Y0290830D03*
X0293883Y0297080D03*
X0312633Y0289580D03*
X0325133Y0293330D03*
X0337633Y0278330D03*
X0352633Y0289580D03*
X0358883Y0278330D03*
X0372633Y0283330D03*
X0365133Y0295830D03*
X0372633Y0299580D03*
X0383883Y0307080D03*
X0380133Y0319580D03*
X0365133Y0318330D03*
X0357633Y0318330D03*
X0351383Y0312080D03*
X0351383Y0300830D03*
X0342633Y0303330D03*
X0326383Y0315830D03*
X0341383Y0325830D03*
X0346383Y0335830D03*
X0340133Y0338330D03*
X0318883Y0359580D03*
X0318883Y0365830D03*
X0318883Y0373330D03*
X0282633Y0335830D03*
X0300133Y0323330D03*
X0257633Y0298330D03*
X0246383Y0328330D03*
X0237633Y0327080D03*
X0203883Y0303330D03*
X0287633Y0232080D03*
X0295133Y0232080D03*
X0302633Y0232080D03*
X0310133Y0238330D03*
X0311383Y0253330D03*
X0327633Y0235830D03*
X0330133Y0243330D03*
X0336383Y0244580D03*
X0347633Y0235830D03*
X0353883Y0233330D03*
X0375133Y0240830D03*
X0355133Y0202080D03*
X0360133Y0198330D03*
X0366383Y0197080D03*
X0373883Y0197080D03*
X0373883Y0169580D03*
X0360133Y0169580D03*
X0342633Y0180830D03*
X0346383Y0198330D03*
X0340133Y0199580D03*
X0332633Y0210830D03*
X0327633Y0218330D03*
X0318883Y0273330D03*
X0376383Y0357080D03*
X0371383Y0363330D03*
X0371383Y0410830D03*
X0360133Y0438330D03*
X0355133Y0444580D03*
X0365133Y0444580D03*
X0337633Y0457080D03*
X0320133Y0457080D03*
X0111383Y0164580D03*
X0132633Y0159580D03*
X0161383Y0153330D03*
X0182633Y0142080D03*
X0182633Y0134580D03*
X0192633Y0134580D03*
X0192633Y0142080D03*
X0202633Y0142080D03*
X0202633Y0134580D03*
X0213883Y0124580D03*
X0272633Y0148330D03*
X0281383Y0148330D03*
X0285133Y0132080D03*
X0298883Y0152080D03*
X0321383Y0159580D03*
X0328883Y0150830D03*
X0346383Y0139580D03*
D43*
X0283883Y0163330D03*
D44*
X0255133Y0149580D02*
X0251383Y0149580D01*
X0246383Y0149580D01*
X0241383Y0149580D01*
X0240728Y0149580D01*
X0238211Y0147064D01*
X0228883Y0207080D02*
X0222633Y0213330D01*
X0162633Y0213330D01*
X0136797Y0251667D02*
X0133883Y0251667D01*
X0136787Y0153330D02*
X0161383Y0153330D01*
X0355133Y0332927D02*
X0356570Y0334364D01*
X0356570Y0347897D01*
X0371570Y0347897D02*
X0371570Y0333114D01*
X0371383Y0332927D01*
D45*
X0326757Y0189551D02*
X0322604Y0189551D01*
X0308883Y0175830D01*
X0308883Y0152080D01*
X0308883Y0125830D01*
X0306383Y0123330D01*
X0266383Y0123330D01*
X0265133Y0124580D01*
X0263883Y0125830D01*
X0263883Y0132080D01*
X0263883Y0140830D01*
X0255133Y0149580D01*
X0207633Y0139580D02*
X0195133Y0139580D01*
X0193883Y0139580D01*
X0190133Y0139580D01*
D46*
X0181383Y0139299D02*
X0203883Y0139299D01*
X0203883Y0140297D02*
X0181383Y0140297D01*
X0181383Y0141296D02*
X0203883Y0141296D01*
X0203883Y0142294D02*
X0181383Y0142294D01*
X0181383Y0143293D02*
X0203883Y0143293D01*
X0203883Y0143330D02*
X0203883Y0133330D01*
X0181383Y0133330D01*
X0181383Y0143330D01*
X0203883Y0143330D01*
X0203883Y0138300D02*
X0181383Y0138300D01*
X0181383Y0137302D02*
X0203883Y0137302D01*
X0203883Y0136303D02*
X0181383Y0136303D01*
X0181383Y0135305D02*
X0203883Y0135305D01*
X0203883Y0134306D02*
X0181383Y0134306D01*
X0233883Y0178330D02*
X0233883Y0187080D01*
X0233883Y0178330D02*
X0248883Y0178330D01*
X0260133Y0167080D01*
X0260133Y0157080D02*
X0265980Y0157080D01*
X0266383Y0156677D01*
X0273293Y0156677D01*
X0274041Y0157425D01*
X0274041Y0159393D01*
X0258883Y0152080D02*
X0258883Y0144580D01*
X0238883Y0144580D01*
X0238883Y0154580D01*
X0256383Y0154580D01*
X0258883Y0152080D01*
X0258684Y0152280D02*
X0238883Y0152280D01*
X0238883Y0153278D02*
X0257685Y0153278D01*
X0256687Y0154277D02*
X0238883Y0154277D01*
X0238883Y0151281D02*
X0258883Y0151281D01*
X0258883Y0150283D02*
X0238883Y0150283D01*
X0238883Y0149284D02*
X0258883Y0149284D01*
X0258883Y0148286D02*
X0238883Y0148286D01*
X0238883Y0147287D02*
X0258883Y0147287D01*
X0258883Y0146289D02*
X0238883Y0146289D01*
X0238883Y0145290D02*
X0258883Y0145290D01*
X0255133Y0149580D02*
X0265133Y0139580D01*
X0265133Y0124580D01*
X0253883Y0139177D02*
X0253883Y0139580D01*
X0253300Y0138997D01*
X0244438Y0138997D01*
X0191383Y0252080D02*
X0178883Y0252080D01*
X0178883Y0263330D01*
X0195133Y0263330D01*
X0195133Y0255830D01*
X0191383Y0252080D01*
X0191434Y0252131D02*
X0178883Y0252131D01*
X0178883Y0253129D02*
X0192432Y0253129D01*
X0193431Y0254128D02*
X0178883Y0254128D01*
X0178883Y0255126D02*
X0194429Y0255126D01*
X0195133Y0256125D02*
X0178883Y0256125D01*
X0178883Y0257123D02*
X0195133Y0257123D01*
X0195133Y0258122D02*
X0178883Y0258122D01*
X0178883Y0259120D02*
X0195133Y0259120D01*
X0195133Y0260119D02*
X0178883Y0260119D01*
X0178883Y0261117D02*
X0195133Y0261117D01*
X0195133Y0262116D02*
X0178883Y0262116D01*
X0178883Y0263114D02*
X0195133Y0263114D01*
X0201383Y0267080D02*
X0201383Y0268330D01*
X0175133Y0263330D02*
X0175133Y0252080D01*
X0160133Y0252080D01*
X0160133Y0263330D01*
X0175133Y0263330D01*
X0175133Y0263114D02*
X0160133Y0263114D01*
X0160133Y0262116D02*
X0175133Y0262116D01*
X0175133Y0261117D02*
X0160133Y0261117D01*
X0160133Y0260119D02*
X0175133Y0260119D01*
X0175133Y0259120D02*
X0160133Y0259120D01*
X0160133Y0258122D02*
X0175133Y0258122D01*
X0175133Y0257123D02*
X0160133Y0257123D01*
X0160133Y0256125D02*
X0175133Y0256125D01*
X0175133Y0255126D02*
X0160133Y0255126D01*
X0160133Y0254128D02*
X0175133Y0254128D01*
X0175133Y0253129D02*
X0160133Y0253129D01*
X0160133Y0252131D02*
X0175133Y0252131D01*
X0172633Y0259580D02*
X0172633Y0260830D01*
X0163883Y0269580D01*
X0148883Y0247080D02*
X0148883Y0350830D01*
X0151383Y0353330D01*
X0158421Y0353330D01*
X0161909Y0356818D01*
X0161909Y0362064D01*
X0161915Y0362070D01*
X0163883Y0362070D02*
X0163883Y0355830D01*
X0166383Y0353330D01*
X0170133Y0353330D01*
X0167633Y0343330D02*
X0175133Y0335830D01*
X0175133Y0329580D01*
X0158883Y0329580D01*
X0156383Y0332080D01*
X0156383Y0340830D01*
X0158883Y0343330D01*
X0167633Y0343330D01*
X0167968Y0342995D02*
X0158548Y0342995D01*
X0157550Y0341997D02*
X0168967Y0341997D01*
X0169965Y0340998D02*
X0156551Y0340998D01*
X0156383Y0340000D02*
X0170964Y0340000D01*
X0171962Y0339001D02*
X0156383Y0339001D01*
X0156383Y0338003D02*
X0172961Y0338003D01*
X0173959Y0337004D02*
X0156383Y0337004D01*
X0156383Y0336006D02*
X0174958Y0336006D01*
X0175133Y0335007D02*
X0156383Y0335007D01*
X0156383Y0334009D02*
X0175133Y0334009D01*
X0175133Y0333010D02*
X0156383Y0333010D01*
X0156452Y0332012D02*
X0175133Y0332012D01*
X0175133Y0331013D02*
X0157450Y0331013D01*
X0158449Y0330015D02*
X0175133Y0330015D01*
X0185133Y0308330D02*
X0198883Y0308330D01*
X0203883Y0303330D01*
X0155133Y0358330D02*
X0157623Y0360820D01*
X0157623Y0364393D01*
X0157633Y0364383D01*
X0157633Y0360830D01*
X0155133Y0358330D01*
X0157566Y0366304D02*
X0151566Y0366304D01*
X0145133Y0359872D01*
X0145133Y0253330D01*
X0139070Y0364393D02*
X0137938Y0365525D01*
X0137938Y0369580D01*
X0137938Y0377080D01*
X0137938Y0384580D01*
X0129287Y0384580D01*
X0128883Y0384984D01*
X0128883Y0391677D02*
X0130537Y0393330D01*
X0138037Y0393330D01*
X0138037Y0396677D01*
X0133883Y0400830D01*
X0138883Y0408330D02*
X0135133Y0412080D01*
X0135133Y0429580D01*
X0136383Y0430830D01*
X0152633Y0430830D01*
X0153883Y0429580D01*
X0153883Y0412080D01*
X0150133Y0408330D01*
X0138883Y0408330D01*
X0138317Y0408897D02*
X0150700Y0408897D01*
X0151699Y0409896D02*
X0137318Y0409896D01*
X0136320Y0410894D02*
X0152697Y0410894D01*
X0153696Y0411893D02*
X0135321Y0411893D01*
X0135133Y0412891D02*
X0153883Y0412891D01*
X0153883Y0413890D02*
X0135133Y0413890D01*
X0135133Y0414888D02*
X0153883Y0414888D01*
X0153883Y0415887D02*
X0135133Y0415887D01*
X0135133Y0416885D02*
X0153883Y0416885D01*
X0153883Y0417884D02*
X0135133Y0417884D01*
X0135133Y0418882D02*
X0153883Y0418882D01*
X0153883Y0419881D02*
X0135133Y0419881D01*
X0135133Y0420879D02*
X0153883Y0420879D01*
X0153883Y0421878D02*
X0135133Y0421878D01*
X0135133Y0422876D02*
X0153883Y0422876D01*
X0153883Y0423875D02*
X0135133Y0423875D01*
X0135133Y0424873D02*
X0153883Y0424873D01*
X0153883Y0425872D02*
X0135133Y0425872D01*
X0135133Y0426870D02*
X0153883Y0426870D01*
X0153883Y0427869D02*
X0135133Y0427869D01*
X0135133Y0428867D02*
X0153883Y0428867D01*
X0153598Y0429866D02*
X0135419Y0429866D01*
X0166383Y0389580D02*
X0165133Y0388330D01*
X0165133Y0382080D01*
X0167633Y0379580D01*
X0180133Y0379580D01*
X0182633Y0382080D01*
X0182633Y0388330D01*
X0181383Y0389580D01*
X0166383Y0389580D01*
X0165730Y0388927D02*
X0182037Y0388927D01*
X0182633Y0387928D02*
X0165133Y0387928D01*
X0165133Y0386930D02*
X0182633Y0386930D01*
X0182633Y0385931D02*
X0165133Y0385931D01*
X0165133Y0384933D02*
X0182633Y0384933D01*
X0182633Y0383934D02*
X0165133Y0383934D01*
X0165852Y0384049D02*
X0166383Y0384580D01*
X0165852Y0384049D02*
X0165852Y0374590D01*
X0167273Y0379940D02*
X0180493Y0379940D01*
X0181492Y0380939D02*
X0166275Y0380939D01*
X0165276Y0381937D02*
X0182490Y0381937D01*
X0182633Y0382936D02*
X0165133Y0382936D01*
X0157623Y0372267D02*
X0154946Y0372267D01*
X0150133Y0377080D01*
X0144828Y0377080D01*
X0145547Y0370299D02*
X0144828Y0369580D01*
X0145547Y0370299D02*
X0157623Y0370299D01*
X0157623Y0366362D02*
X0157566Y0366304D01*
X0170143Y0368330D02*
X0176383Y0368330D01*
X0178883Y0370830D01*
X0181383Y0370830D01*
X0187633Y0377080D01*
X0178883Y0374580D02*
X0174602Y0370299D01*
X0170143Y0370299D01*
X0139070Y0364393D02*
X0137633Y0365830D01*
X0137633Y0369275D01*
X0137938Y0369580D01*
X0352633Y0437080D02*
X0353883Y0435830D01*
X0366383Y0435830D01*
X0367633Y0437080D01*
X0367633Y0445830D01*
X0366383Y0447080D01*
X0352633Y0447080D01*
X0352633Y0437080D01*
X0352858Y0436855D02*
X0367408Y0436855D01*
X0367633Y0437854D02*
X0352633Y0437854D01*
X0352633Y0438852D02*
X0367633Y0438852D01*
X0367633Y0439851D02*
X0352633Y0439851D01*
X0352633Y0440849D02*
X0367633Y0440849D01*
X0367633Y0441848D02*
X0352633Y0441848D01*
X0352633Y0442846D02*
X0367633Y0442846D01*
X0367633Y0443845D02*
X0352633Y0443845D01*
X0352633Y0444843D02*
X0367633Y0444843D01*
X0367622Y0445842D02*
X0352633Y0445842D01*
X0352633Y0446840D02*
X0366623Y0446840D01*
X0366410Y0435857D02*
X0353857Y0435857D01*
D47*
X0361383Y0440830D02*
X0372633Y0440830D01*
X0310704Y0405830D02*
X0308204Y0408330D01*
X0298883Y0408330D01*
X0243883Y0408330D01*
X0243883Y0402080D01*
X0237766Y0395963D01*
X0237766Y0386489D01*
X0227766Y0386489D02*
X0227766Y0384713D01*
X0227633Y0384580D01*
X0227633Y0385830D01*
X0227633Y0397080D01*
X0223883Y0400830D01*
X0223883Y0431450D01*
X0222003Y0433330D01*
X0243263Y0433330D02*
X0243883Y0432710D01*
X0243883Y0408330D01*
X0180133Y0387080D02*
X0177633Y0384580D01*
X0166383Y0384580D01*
X0145133Y0384580D01*
X0145133Y0377385D01*
X0144828Y0377080D01*
X0144828Y0384580D02*
X0145133Y0384580D01*
X0144828Y0384580D02*
X0144730Y0384679D01*
X0144730Y0393330D01*
X0144730Y0411677D01*
X0145133Y0412080D01*
X0166383Y0337080D02*
X0166383Y0270210D01*
X0165753Y0269580D01*
X0165753Y0266460D01*
X0172633Y0259580D01*
X0181383Y0260830D02*
X0187013Y0266460D01*
X0187013Y0269580D01*
X0165753Y0269580D02*
X0163883Y0269580D01*
X0153883Y0269580D01*
X0136797Y0251667D02*
X0119720Y0251667D01*
X0101383Y0233330D01*
X0101383Y0174580D01*
X0111383Y0164580D01*
X0193883Y0175830D02*
X0193883Y0207080D01*
X0243883Y0139580D02*
X0253883Y0139580D01*
D48*
X0192633Y0244580D02*
X0171383Y0244580D01*
X0171383Y0258330D01*
X0172633Y0259580D01*
X0181383Y0260830D02*
X0181383Y0262080D01*
X0187013Y0266460D01*
X0188883Y0268330D01*
X0201383Y0268330D01*
X0205133Y0268330D01*
X0210133Y0273330D01*
X0210133Y0328330D01*
X0210133Y0330200D01*
X0224198Y0344265D01*
X0243263Y0363330D01*
X0237766Y0368827D01*
X0237766Y0386489D01*
X0227766Y0386489D02*
X0227766Y0369093D01*
X0222003Y0363330D01*
X0227633Y0368960D01*
X0227633Y0385830D01*
X0222003Y0433330D02*
X0227764Y0439091D01*
X0227764Y0457224D01*
X0237764Y0457224D02*
X0237764Y0438830D01*
X0243263Y0433330D01*
X0252633Y0264580D02*
X0212633Y0264580D01*
X0192633Y0244580D01*
X0252633Y0264580D02*
X0273883Y0264580D01*
X0285133Y0253330D01*
X0296383Y0253330D01*
X0305133Y0262080D01*
X0321383Y0262080D01*
X0322008Y0261455D01*
X0326383Y0257080D01*
X0326383Y0253704D01*
X0326757Y0253330D01*
D49*
X0225133Y0147080D02*
X0215133Y0147080D01*
X0212633Y0144580D01*
X0207633Y0139580D01*
D50*
X0251383Y0212080D03*
D51*
X0235268Y0153330D02*
X0235268Y0151095D01*
X0229999Y0152080D02*
X0229999Y0149446D01*
D52*
X0229999Y0152080D03*
D53*
X0223365Y0138895D03*
X0242664Y0138712D03*
D54*
X0243625Y0126872D03*
X0222183Y0126740D03*
M02*
