%
M48
M72
T01C0.01575
T02C0.02756
T03C0.03543
T04C0.03937
T05C0.04000
T06C0.04400
T07C0.05118
T08C0.12205
%
T01
X132633Y159580
X111383Y164580
X161383Y153330
X182633Y142080
X182633Y134580
X192633Y134580
X192633Y142080
X202633Y142080
X202633Y134580
X213883Y124580
X229999Y152080
X235268Y153330
X241383Y149580
X246383Y149580
X251383Y149580
X256383Y149580
X260133Y157080
X251383Y163330
X260133Y167080
X263883Y170830
X271477Y179674
X277633Y180830
X291383Y178330
X306383Y187080
X311383Y192080
X298883Y200830
X290133Y203330
X282633Y213330
X272633Y203330
X251383Y212080
X241383Y225830
X228883Y207080
X245133Y194580
X240133Y187080
X233883Y187080
X221383Y157080
X193883Y175830
X193883Y207080
X162633Y213330
X148883Y247080
X145133Y253330
X165133Y259580
X168883Y254580
X172633Y259580
X181383Y260830
X187633Y260830
X193883Y260830
X187633Y253330
X181383Y253330
X201383Y274580
X203883Y303330
X185133Y308330
X176383Y297080
X172633Y332080
X166383Y337080
X160133Y340830
X160133Y332080
X170133Y348330
X170133Y353330
X185133Y368330
X178883Y374580
X176383Y380830
X170133Y380830
X167633Y387080
X173883Y387080
X180133Y387080
X155133Y358330
X139070Y364393
X133883Y400830
X145133Y412080
X151383Y419580
X151383Y428330
X137633Y428330
X137633Y419580
X237633Y327080
X246383Y328330
X257633Y298330
X262633Y275830
X257633Y272080
X250133Y272080
X275133Y280830
X288883Y262080
X305133Y280830
X300133Y290830
X293883Y297080
X312633Y289580
X325133Y293330
X337633Y278330
X352633Y289580
X358883Y278330
X372633Y283330
X365133Y295830
X372633Y299580
X383883Y307080
X380133Y319580
X365133Y318330
X357633Y318330
X351383Y312080
X351383Y300830
X342633Y303330
X326383Y315830
X341383Y325830
X346383Y335830
X340133Y338330
X318883Y359580
X318883Y365830
X318883Y373330
X282633Y335830
X300133Y323330
X318883Y273330
X311383Y253330
X310133Y238330
X302633Y232080
X295133Y232080
X287633Y232080
X327633Y235830
X330133Y243330
X336383Y244580
X347633Y235830
X353883Y233330
X375133Y240830
X355133Y202080
X360133Y198330
X366383Y197080
X373883Y197080
X373883Y169580
X360133Y169580
X342633Y180830
X346383Y198330
X340133Y199580
X332633Y210830
X327633Y218330
X321383Y159580
X328883Y150830
X346383Y139580
X298883Y152080
X285133Y132080
X281383Y148330
X272633Y148330
X131383Y228330
X126383Y224580
X320133Y457080
X337633Y457080
X355133Y444580
X360133Y438330
X365133Y444580
X371383Y410830
X371383Y363330
X376383Y357080
T02
X242664Y138712
X223365Y138895
T03
X135429Y297080
X109838Y297080
T04
X222183Y126740
X243625Y126872
X283883Y163330
T05
X159415Y131320
X149415Y131320
X217766Y386489
X227766Y386489
X237766Y386489
X247766Y386489
X247764Y457224
X237764Y457224
X227764Y457224
X217764Y457224
T06
X215133Y249580
X225133Y249580
X235133Y249580
X245133Y249580
X255133Y249580
X265133Y249580
T07
X133883Y251667
X133883Y172927
T08
X97318Y141952
X368972Y141952
X368972Y464787
X97318Y464787
M30
