G75*
%MOIN*%
%OFA0B0*%
%FSLAX25Y25*%
%IPPOS*%
%LPD*%
%AMOC8*
5,1,8,0,0,1.08239X$1,22.5*
%
%ADD10R,0.04134X0.04252*%
%ADD11R,0.04252X0.04134*%
%ADD12R,0.06500X0.03937*%
%ADD13R,0.03937X0.04331*%
%ADD14R,0.02362X0.04724*%
%ADD15R,0.04331X0.03937*%
%ADD16R,0.07600X0.21000*%
%ADD17R,0.03543X0.02756*%
%ADD18C,0.07400*%
%ADD19C,0.07400*%
%ADD20R,0.03937X0.05512*%
%ADD21C,0.06000*%
%ADD22R,0.03937X0.07087*%
%ADD23C,0.07677*%
%ADD24R,0.03150X0.01378*%
%ADD25R,0.04724X0.02165*%
%ADD26R,0.08661X0.06299*%
%ADD27C,0.05512*%
%ADD28C,0.03937*%
%ADD29R,0.07087X0.03937*%
%ADD30C,0.03200*%
%ADD31C,0.01200*%
%ADD32C,0.03200*%
%ADD33C,0.02400*%
%ADD34C,0.06600*%
%ADD35C,0.01969*%
%ADD36C,0.01600*%
%ADD37C,0.01000*%
%ADD38C,0.05000*%
%ADD39C,0.04000*%
%ADD40C,0.00800*%
%ADD41C,0.04724*%
%ADD42C,0.03189*%
%ADD43C,0.03232*%
%ADD44C,0.04356*%
%ADD45C,0.05906*%
D10*
X0172938Y0274580D03*
X0179828Y0274580D03*
X0224188Y0288330D03*
X0231078Y0288330D03*
X0229188Y0399580D03*
X0236078Y0399580D03*
X0236078Y0468330D03*
X0229188Y0468330D03*
X0108578Y0347080D03*
X0101688Y0347080D03*
X0247938Y0170830D03*
X0254828Y0170830D03*
X0337938Y0204580D03*
X0344828Y0204580D03*
D11*
X0337633Y0213635D03*
X0337633Y0220525D03*
X0335133Y0231135D03*
X0335133Y0238025D03*
X0342633Y0238025D03*
X0342633Y0231135D03*
X0242633Y0219275D03*
X0242633Y0212385D03*
X0233883Y0212385D03*
X0233883Y0219275D03*
X0223883Y0219275D03*
X0223883Y0212385D03*
X0215133Y0212385D03*
X0215133Y0219275D03*
X0188883Y0281135D03*
X0188883Y0288025D03*
X0135133Y0324885D03*
X0135133Y0331775D03*
X0100133Y0332385D03*
X0100133Y0339275D03*
X0153883Y0210525D03*
X0153883Y0203635D03*
D12*
X0222488Y0297031D03*
X0222488Y0309629D03*
X0242779Y0309629D03*
X0242779Y0297031D03*
D13*
X0325537Y0360830D03*
X0332230Y0360830D03*
X0332230Y0370830D03*
X0325537Y0370830D03*
X0343037Y0248330D03*
X0349730Y0248330D03*
X0360537Y0237080D03*
X0367230Y0237080D03*
X0367230Y0227080D03*
X0360537Y0227080D03*
X0269730Y0195830D03*
X0263037Y0195830D03*
X0263037Y0185830D03*
X0269730Y0185830D03*
X0243480Y0163330D03*
X0236787Y0163330D03*
X0227230Y0163330D03*
X0220537Y0163330D03*
X0144730Y0229580D03*
X0138037Y0229580D03*
X0115980Y0262080D03*
X0109287Y0262080D03*
X0129287Y0315830D03*
X0135980Y0315830D03*
X0125980Y0338330D03*
X0119287Y0338330D03*
X0108480Y0357080D03*
X0101787Y0357080D03*
D14*
X0128883Y0218104D03*
X0133883Y0218104D03*
X0138883Y0218104D03*
X0143883Y0218104D03*
X0143883Y0196057D03*
X0138883Y0196057D03*
X0133883Y0196057D03*
X0128883Y0196057D03*
X0220133Y0200604D03*
X0225133Y0200604D03*
X0230133Y0200604D03*
X0235133Y0200604D03*
X0240133Y0200604D03*
X0245133Y0200604D03*
X0250133Y0200604D03*
X0255133Y0200604D03*
X0255133Y0178557D03*
X0250133Y0178557D03*
X0245133Y0178557D03*
X0240133Y0178557D03*
X0235133Y0178557D03*
X0230133Y0178557D03*
X0225133Y0178557D03*
X0220133Y0178557D03*
D15*
X0227633Y0170427D03*
X0227633Y0163734D03*
X0236383Y0163734D03*
X0236383Y0170427D03*
X0221383Y0272484D03*
X0221383Y0279177D03*
X0196383Y0281234D03*
X0196383Y0287927D03*
X0222633Y0318734D03*
X0222633Y0325427D03*
X0232633Y0414984D03*
X0232633Y0421677D03*
X0341383Y0365427D03*
X0341383Y0358734D03*
X0346383Y0220427D03*
X0346383Y0213734D03*
X0370133Y0211677D03*
X0370133Y0204984D03*
X0380133Y0204984D03*
X0380133Y0211677D03*
X0120133Y0312484D03*
X0120133Y0319177D03*
X0110133Y0319984D03*
X0110133Y0326677D03*
X0110133Y0332484D03*
X0110133Y0339177D03*
X0110133Y0280427D03*
X0110133Y0273734D03*
D16*
X0202633Y0194830D03*
X0202633Y0156830D03*
D17*
X0187633Y0157021D03*
X0187633Y0162139D03*
X0187633Y0189521D03*
X0187633Y0194639D03*
D18*
X0215133Y0245880D02*
X0215133Y0253280D01*
X0225133Y0253280D02*
X0225133Y0245880D01*
X0235133Y0245880D02*
X0235133Y0253280D01*
X0245133Y0253280D02*
X0245133Y0245880D01*
X0255133Y0245880D02*
X0255133Y0253280D01*
X0265133Y0253280D02*
X0265133Y0245880D01*
D19*
X0135429Y0297080D03*
X0109838Y0297080D03*
D20*
X0120133Y0281411D03*
X0116393Y0272749D03*
X0123873Y0272749D03*
X0228893Y0272749D03*
X0236373Y0272749D03*
X0232633Y0281411D03*
X0258893Y0212661D03*
X0266373Y0212661D03*
X0262633Y0203999D03*
D21*
X0159415Y0134320D02*
X0159415Y0128320D01*
X0149415Y0128320D02*
X0149415Y0134320D01*
X0217766Y0383489D02*
X0217766Y0389489D01*
X0227766Y0389489D02*
X0227766Y0383489D01*
X0237766Y0383489D02*
X0237766Y0389489D01*
X0247766Y0389489D02*
X0247766Y0383489D01*
X0247764Y0454224D02*
X0247764Y0460224D01*
X0237764Y0460224D02*
X0237764Y0454224D01*
X0227764Y0454224D02*
X0227764Y0460224D01*
X0217764Y0460224D02*
X0217764Y0454224D01*
D22*
X0148805Y0184580D03*
X0138962Y0184580D03*
D23*
X0133883Y0172927D03*
X0133883Y0251667D03*
D24*
X0125980Y0325771D03*
X0125980Y0330889D03*
X0119287Y0330889D03*
X0119287Y0328330D03*
X0119287Y0325771D03*
D25*
X0171265Y0288320D03*
X0171265Y0280840D03*
X0181502Y0280840D03*
X0181502Y0284580D03*
X0181502Y0288320D03*
D26*
X0158883Y0290092D03*
X0158883Y0279068D03*
D27*
X0222267Y0129328D02*
X0222267Y0126572D01*
X0243763Y0126572D02*
X0243763Y0129328D01*
D28*
X0242588Y0138091D02*
X0242588Y0139273D01*
X0242588Y0138091D02*
X0242588Y0138091D01*
X0242588Y0139273D01*
X0242588Y0139273D01*
X0223454Y0139273D02*
X0223454Y0138091D01*
X0223454Y0138091D01*
X0223454Y0139273D01*
X0223454Y0139273D01*
D29*
X0202633Y0170909D03*
X0202633Y0180751D03*
D30*
X0193883Y0175830D03*
X0193883Y0207080D03*
X0162633Y0213330D03*
X0148883Y0247080D03*
X0145133Y0253330D03*
X0165133Y0259580D03*
X0168883Y0254580D03*
X0172633Y0259580D03*
X0181383Y0260830D03*
X0187633Y0260830D03*
X0193883Y0260830D03*
X0187633Y0253330D03*
X0181383Y0253330D03*
X0201383Y0274580D03*
X0203883Y0303330D03*
X0185133Y0308330D03*
X0176383Y0297080D03*
X0172633Y0332080D03*
X0166383Y0337080D03*
X0160133Y0340830D03*
X0160133Y0332080D03*
X0170133Y0348330D03*
X0170133Y0353330D03*
X0185133Y0368330D03*
X0178883Y0374580D03*
X0176383Y0380830D03*
X0170133Y0380830D03*
X0167633Y0387080D03*
X0173883Y0387080D03*
X0180133Y0387080D03*
X0155133Y0358330D03*
X0139070Y0364393D03*
X0133883Y0400830D03*
X0145133Y0412080D03*
X0151383Y0419580D03*
X0151383Y0428330D03*
X0137633Y0428330D03*
X0137633Y0419580D03*
X0237633Y0327080D03*
X0246383Y0328330D03*
X0257633Y0298330D03*
X0262633Y0275830D03*
X0257633Y0272080D03*
X0250133Y0272080D03*
X0275133Y0280830D03*
X0288883Y0262080D03*
X0305133Y0280830D03*
X0300133Y0290830D03*
X0293883Y0297080D03*
X0312633Y0289580D03*
X0325133Y0293330D03*
X0337633Y0278330D03*
X0352633Y0289580D03*
X0358883Y0278330D03*
X0372633Y0283330D03*
X0365133Y0295830D03*
X0372633Y0299580D03*
X0383883Y0307080D03*
X0380133Y0319580D03*
X0365133Y0318330D03*
X0357633Y0318330D03*
X0351383Y0312080D03*
X0351383Y0300830D03*
X0342633Y0303330D03*
X0326383Y0315830D03*
X0341383Y0325830D03*
X0346383Y0335830D03*
X0340133Y0338330D03*
X0318883Y0359580D03*
X0318883Y0365830D03*
X0318883Y0373330D03*
X0282633Y0335830D03*
X0300133Y0323330D03*
X0318883Y0273330D03*
X0311383Y0253330D03*
X0310133Y0238330D03*
X0302633Y0232080D03*
X0295133Y0232080D03*
X0287633Y0232080D03*
X0282633Y0213330D03*
X0290133Y0203330D03*
X0298883Y0200830D03*
X0306383Y0187080D03*
X0311383Y0192080D03*
X0291383Y0178330D03*
X0277633Y0180830D03*
X0271477Y0179674D03*
X0263883Y0170830D03*
X0260133Y0167080D03*
X0251383Y0163330D03*
X0260133Y0157080D03*
X0256383Y0149580D03*
X0251383Y0149580D03*
X0246383Y0149580D03*
X0241383Y0149580D03*
X0235268Y0153330D03*
X0221383Y0157080D03*
X0202633Y0142080D03*
X0202633Y0134580D03*
X0192633Y0134580D03*
X0192633Y0142080D03*
X0182633Y0142080D03*
X0182633Y0134580D03*
X0161383Y0153330D03*
X0132633Y0159580D03*
X0111383Y0164580D03*
X0126383Y0224580D03*
X0131383Y0228330D03*
X0213883Y0124580D03*
X0233883Y0187080D03*
X0240133Y0187080D03*
X0245133Y0194580D03*
X0228883Y0207080D03*
X0241383Y0225830D03*
X0272633Y0203330D03*
X0272633Y0148330D03*
X0281383Y0148330D03*
X0285133Y0132080D03*
X0298883Y0152080D03*
X0321383Y0159580D03*
X0328883Y0150830D03*
X0346383Y0139580D03*
X0360133Y0169580D03*
X0373883Y0169580D03*
X0373883Y0197080D03*
X0366383Y0197080D03*
X0360133Y0198330D03*
X0355133Y0202080D03*
X0346383Y0198330D03*
X0340133Y0199580D03*
X0332633Y0210830D03*
X0327633Y0218330D03*
X0327633Y0235830D03*
X0330133Y0243330D03*
X0336383Y0244580D03*
X0347633Y0235830D03*
X0353883Y0233330D03*
X0375133Y0240830D03*
X0342633Y0180830D03*
X0376383Y0357080D03*
X0371383Y0363330D03*
X0371383Y0410830D03*
X0360133Y0438330D03*
X0355133Y0444580D03*
X0365133Y0444580D03*
X0337633Y0457080D03*
X0320133Y0457080D03*
D31*
X0337633Y0457080D01*
X0371383Y0410830D02*
X0385133Y0397080D01*
X0385133Y0308330D01*
X0383883Y0307080D01*
X0381383Y0303330D02*
X0377633Y0307080D01*
X0380133Y0309580D01*
X0380133Y0319580D01*
X0381383Y0320830D01*
X0381383Y0360830D01*
X0371383Y0370830D01*
X0332230Y0370830D01*
X0337633Y0364580D02*
X0340537Y0364580D01*
X0341383Y0365427D01*
X0337633Y0364580D02*
X0333883Y0360830D01*
X0332230Y0360830D01*
X0331383Y0359984D01*
X0331383Y0357080D01*
X0328883Y0354580D01*
X0305133Y0354580D01*
X0300133Y0349580D01*
X0300133Y0323330D01*
X0300133Y0290830D02*
X0300133Y0248330D01*
X0310133Y0238330D01*
X0313883Y0242080D02*
X0305133Y0250830D01*
X0305133Y0280830D01*
X0311383Y0273330D02*
X0311383Y0253330D01*
X0313883Y0242080D02*
X0321383Y0242080D01*
X0327633Y0235830D01*
X0336383Y0244580D02*
X0340133Y0248330D01*
X0343037Y0248330D01*
X0342633Y0248734D01*
X0342633Y0268330D01*
X0337633Y0273330D01*
X0318883Y0273330D01*
X0311383Y0273330D02*
X0321383Y0283330D01*
X0372633Y0283330D01*
X0377633Y0278330D02*
X0373883Y0274580D01*
X0373883Y0242080D01*
X0375133Y0240830D01*
X0367633Y0237080D02*
X0372633Y0232080D01*
X0372633Y0222080D01*
X0367633Y0217080D01*
X0361383Y0217080D01*
X0361383Y0199580D01*
X0360133Y0198330D01*
X0355133Y0202080D02*
X0357633Y0204580D01*
X0357633Y0219580D01*
X0358883Y0220830D01*
X0363883Y0220830D01*
X0367230Y0224177D01*
X0367230Y0227080D01*
X0363883Y0230427D01*
X0360537Y0227080D02*
X0360133Y0227484D01*
X0360133Y0237080D01*
X0355133Y0242080D01*
X0350133Y0242080D01*
X0350133Y0247927D01*
X0349730Y0248330D01*
X0350133Y0242080D02*
X0346383Y0242080D01*
X0342633Y0238330D01*
X0342633Y0238025D01*
X0347633Y0235830D02*
X0347633Y0221677D01*
X0346383Y0220427D01*
X0346285Y0220525D01*
X0337633Y0220525D01*
X0337633Y0213635D02*
X0337938Y0213330D01*
X0337938Y0204580D01*
X0340133Y0199580D02*
X0328883Y0199580D01*
X0326383Y0202080D01*
X0298883Y0202080D01*
X0298883Y0200830D01*
X0296383Y0195830D02*
X0290133Y0202080D01*
X0290133Y0203330D01*
X0277633Y0203330D01*
X0277633Y0217080D01*
X0276383Y0218330D01*
X0251383Y0218330D01*
X0248883Y0220830D01*
X0248883Y0234580D01*
X0245133Y0238330D01*
X0245133Y0249580D01*
X0245133Y0255830D01*
X0250133Y0260830D01*
X0250133Y0272080D01*
X0257633Y0272080D02*
X0257633Y0260830D01*
X0255133Y0258330D01*
X0255133Y0249580D01*
X0255133Y0232080D01*
X0260133Y0227080D01*
X0275133Y0227080D01*
X0282633Y0219580D01*
X0282633Y0213330D01*
X0277633Y0203330D02*
X0277633Y0189580D01*
X0273883Y0185830D01*
X0269730Y0185830D01*
X0271477Y0179674D02*
X0277978Y0173173D01*
X0277978Y0156175D01*
X0278883Y0155830D01*
X0283883Y0155830D01*
X0292633Y0147080D01*
X0338883Y0147080D01*
X0346383Y0139580D01*
X0348883Y0155830D02*
X0360133Y0169580D01*
X0350133Y0167080D02*
X0350133Y0204580D01*
X0353883Y0208330D01*
X0353883Y0233330D01*
X0360537Y0237080D02*
X0360537Y0227080D01*
X0367230Y0237080D02*
X0367230Y0269984D01*
X0358883Y0278330D01*
X0352633Y0289580D02*
X0312633Y0289580D01*
X0325133Y0293330D02*
X0350133Y0293330D01*
X0352633Y0295830D01*
X0365133Y0295830D01*
X0372633Y0299580D02*
X0377633Y0294580D01*
X0377633Y0278330D01*
X0381383Y0303330D02*
X0381383Y0234580D01*
X0380133Y0233330D01*
X0380133Y0211677D01*
X0370133Y0211677D01*
X0370133Y0204984D02*
X0370133Y0200830D01*
X0366383Y0197080D01*
X0373883Y0197080D02*
X0380133Y0197080D01*
X0380133Y0204984D01*
X0350133Y0204580D02*
X0344828Y0204580D01*
X0346383Y0198330D02*
X0343883Y0195830D01*
X0296383Y0195830D01*
X0301383Y0192080D02*
X0301383Y0178330D01*
X0316383Y0162080D01*
X0316383Y0155830D01*
X0348883Y0155830D01*
X0347633Y0164580D02*
X0350133Y0167080D01*
X0347633Y0164580D02*
X0322633Y0164580D01*
X0321383Y0163330D01*
X0321383Y0159580D01*
X0315133Y0150830D02*
X0328883Y0150830D01*
X0315133Y0150830D02*
X0298883Y0167080D01*
X0298883Y0175830D01*
X0296383Y0178330D01*
X0291383Y0178330D01*
X0280133Y0178330D01*
X0277633Y0180830D01*
X0269730Y0195830D02*
X0272633Y0198734D01*
X0272633Y0203330D01*
X0251383Y0212080D02*
X0242938Y0212080D01*
X0242633Y0212385D01*
X0233883Y0212385D01*
X0233883Y0219275D02*
X0242633Y0219275D01*
X0241383Y0225830D02*
X0238883Y0225830D01*
X0235133Y0229580D01*
X0235133Y0249580D01*
X0233883Y0267080D02*
X0223883Y0267080D01*
X0221383Y0269580D01*
X0221383Y0272484D01*
X0221383Y0279177D02*
X0210537Y0279177D01*
X0210133Y0279580D01*
X0201383Y0274580D02*
X0196383Y0279580D01*
X0196383Y0281234D01*
X0181502Y0280840D02*
X0181492Y0280830D01*
X0177633Y0280830D01*
X0176383Y0282080D01*
X0176383Y0297080D01*
X0203883Y0303330D02*
X0227633Y0303330D01*
X0230133Y0305830D01*
X0230133Y0315830D01*
X0232633Y0318330D01*
X0246383Y0318330D01*
X0257633Y0307080D01*
X0377633Y0307080D01*
X0365133Y0318330D02*
X0365133Y0345830D01*
X0376383Y0357080D01*
X0371383Y0363330D02*
X0361383Y0363330D01*
X0356383Y0358330D01*
X0356383Y0335830D01*
X0346383Y0325830D01*
X0341383Y0325830D01*
X0341383Y0330830D02*
X0338883Y0330830D01*
X0335133Y0327080D01*
X0335133Y0324580D01*
X0341383Y0318330D01*
X0357633Y0318330D01*
X0341383Y0330830D02*
X0346383Y0335830D01*
X0340133Y0338330D02*
X0336383Y0342080D01*
X0336383Y0354580D01*
X0340537Y0358734D01*
X0341383Y0358734D01*
X0325537Y0360830D02*
X0325537Y0370830D01*
X0321383Y0370830D01*
X0318883Y0373330D01*
X0318883Y0365830D02*
X0286383Y0365830D01*
X0248883Y0328330D01*
X0246383Y0328330D01*
X0241383Y0323330D02*
X0237633Y0327080D01*
X0241383Y0323330D02*
X0255133Y0323330D01*
X0291383Y0359580D01*
X0318883Y0359580D01*
X0257633Y0298330D02*
X0257633Y0282080D01*
X0260133Y0279580D01*
X0266383Y0279580D01*
X0281383Y0264580D01*
X0281383Y0249580D01*
X0295133Y0235830D01*
X0295133Y0232080D01*
X0302633Y0232080D02*
X0302633Y0233330D01*
X0285133Y0250830D01*
X0285133Y0270830D01*
X0275133Y0280830D01*
X0262633Y0275830D02*
X0262633Y0274580D01*
X0275133Y0262080D01*
X0275133Y0244580D01*
X0287633Y0232080D01*
X0288883Y0252080D02*
X0307633Y0233330D01*
X0312633Y0233330D01*
X0327633Y0218330D01*
X0337633Y0213635D02*
X0346285Y0213635D01*
X0346383Y0213734D01*
X0367230Y0237080D02*
X0367633Y0237080D01*
X0363883Y0252080D02*
X0337633Y0278330D01*
X0288883Y0262080D02*
X0288883Y0252080D01*
X0245133Y0200604D02*
X0245133Y0194580D01*
X0240133Y0200604D02*
X0240133Y0187080D01*
X0243480Y0163330D02*
X0251383Y0163330D01*
X0246383Y0140830D02*
X0241383Y0140830D01*
X0241383Y0132080D01*
X0240133Y0130830D01*
X0226383Y0130830D01*
X0225133Y0132080D01*
X0225133Y0141130D01*
X0217633Y0141130D01*
X0217633Y0127080D01*
X0220133Y0124580D01*
X0243883Y0124580D01*
X0246383Y0127080D01*
X0246383Y0140830D01*
X0246383Y0139903D02*
X0241383Y0139903D01*
X0241383Y0138705D02*
X0246383Y0138705D01*
X0246383Y0137506D02*
X0241383Y0137506D01*
X0241383Y0136308D02*
X0246383Y0136308D01*
X0246383Y0135109D02*
X0241383Y0135109D01*
X0241383Y0133911D02*
X0246383Y0133911D01*
X0246383Y0132712D02*
X0241383Y0132712D01*
X0240817Y0131514D02*
X0246383Y0131514D01*
X0246383Y0130315D02*
X0217633Y0130315D01*
X0217633Y0129117D02*
X0246383Y0129117D01*
X0246383Y0127918D02*
X0217633Y0127918D01*
X0217994Y0126720D02*
X0246023Y0126720D01*
X0244824Y0125521D02*
X0219192Y0125521D01*
X0222267Y0127950D02*
X0222267Y0138333D01*
X0221918Y0138682D01*
X0221604Y0138997D01*
X0221918Y0138682D02*
X0223454Y0138682D01*
X0225133Y0138705D02*
X0217633Y0138705D01*
X0217633Y0139903D02*
X0225133Y0139903D01*
X0225133Y0141102D02*
X0217633Y0141102D01*
X0217633Y0137506D02*
X0225133Y0137506D01*
X0225133Y0136308D02*
X0217633Y0136308D01*
X0217633Y0135109D02*
X0225133Y0135109D01*
X0225133Y0133911D02*
X0217633Y0133911D01*
X0217633Y0132712D02*
X0225133Y0132712D01*
X0225700Y0131514D02*
X0217633Y0131514D01*
X0221383Y0157080D02*
X0221383Y0162484D01*
X0220537Y0163330D01*
X0242588Y0138682D02*
X0244123Y0138682D01*
X0244438Y0138997D01*
X0244123Y0138682D02*
X0243763Y0138322D01*
X0243763Y0127950D01*
X0272633Y0148330D02*
X0281383Y0148330D01*
X0283883Y0163330D02*
X0287633Y0163330D01*
X0298883Y0152080D01*
X0306383Y0179580D02*
X0340133Y0179580D01*
X0342633Y0180830D01*
X0311383Y0192080D02*
X0301383Y0192080D01*
X0306383Y0187080D02*
X0306383Y0179580D01*
X0233883Y0267080D02*
X0236373Y0269570D01*
X0236373Y0272749D01*
X0232633Y0281411D02*
X0228303Y0281411D01*
X0225133Y0284580D01*
X0225133Y0287385D01*
X0224188Y0288330D01*
X0222488Y0290031D01*
X0222488Y0297031D01*
X0231078Y0297929D02*
X0231078Y0288330D01*
X0231078Y0297929D02*
X0242779Y0309629D01*
X0185133Y0254580D02*
X0183883Y0253330D01*
X0181383Y0253330D01*
X0140133Y0253762D02*
X0123883Y0253762D01*
X0123883Y0254580D02*
X0125133Y0255830D01*
X0138883Y0255830D01*
X0140133Y0254580D01*
X0140133Y0248330D01*
X0138883Y0247080D01*
X0125133Y0247080D01*
X0123883Y0248330D01*
X0123883Y0254580D01*
X0124264Y0254960D02*
X0139753Y0254960D01*
X0140133Y0252563D02*
X0123883Y0252563D01*
X0123883Y0251365D02*
X0140133Y0251365D01*
X0140133Y0250166D02*
X0123883Y0250166D01*
X0123883Y0248968D02*
X0140133Y0248968D01*
X0139573Y0247769D02*
X0124444Y0247769D01*
X0131383Y0228330D02*
X0131383Y0225830D01*
X0133883Y0223330D01*
X0133883Y0218104D01*
X0128883Y0218104D02*
X0128883Y0222080D01*
X0126383Y0224580D01*
X0123883Y0177080D02*
X0142633Y0177080D01*
X0143883Y0175830D01*
X0143883Y0168330D01*
X0142633Y0167080D01*
X0130507Y0167080D01*
X0129786Y0167802D01*
X0128389Y0168380D01*
X0122633Y0168380D01*
X0122633Y0175830D01*
X0123883Y0177080D01*
X0123860Y0177057D02*
X0142656Y0177057D01*
X0143855Y0175859D02*
X0122662Y0175859D01*
X0122633Y0174660D02*
X0143883Y0174660D01*
X0143883Y0173462D02*
X0122633Y0173462D01*
X0122633Y0172263D02*
X0143883Y0172263D01*
X0143883Y0171065D02*
X0122633Y0171065D01*
X0122633Y0169866D02*
X0143883Y0169866D01*
X0143883Y0168668D02*
X0122633Y0168668D01*
X0130118Y0167469D02*
X0143022Y0167469D01*
X0187633Y0175830D02*
X0193883Y0175830D01*
X0223883Y0212080D02*
X0223883Y0212385D01*
X0119287Y0328330D02*
X0115133Y0328330D01*
X0113883Y0327080D01*
X0110537Y0327080D01*
X0110133Y0326677D01*
X0105980Y0326677D02*
X0105133Y0327523D01*
X0105133Y0332080D01*
X0100133Y0332080D01*
X0108480Y0357080D02*
X0116383Y0357080D01*
D32*
X0135980Y0315830D02*
X0135980Y0297631D01*
X0135429Y0297080D01*
X0120133Y0281411D02*
X0111118Y0281411D01*
X0110133Y0280427D01*
X0109838Y0280722D01*
X0109838Y0297080D01*
X0110133Y0273734D02*
X0111118Y0272749D01*
X0116393Y0272749D01*
X0158883Y0279068D02*
X0170527Y0279068D01*
X0171265Y0278330D01*
X0171265Y0276254D01*
X0172938Y0274580D01*
X0172633Y0274275D01*
X0172633Y0272080D01*
X0172633Y0259580D01*
X0181383Y0260830D02*
X0187633Y0260830D01*
X0188883Y0260830D01*
X0171265Y0278330D02*
X0171265Y0280840D01*
X0171265Y0288320D02*
X0160655Y0288320D01*
X0158883Y0290092D01*
X0181502Y0288320D02*
X0188588Y0288320D01*
X0188883Y0288025D01*
X0215133Y0249580D02*
X0215133Y0219580D01*
X0206383Y0219580D01*
X0193883Y0207080D01*
X0215133Y0219275D02*
X0215133Y0219580D01*
X0132633Y0159580D02*
X0127633Y0164580D01*
X0111383Y0164580D01*
X0161383Y0339580D02*
X0175133Y0339580D01*
X0197633Y0362080D01*
X0197633Y0382080D01*
X0192633Y0387080D01*
X0180133Y0387080D01*
X0145133Y0412080D02*
X0145133Y0452080D01*
X0173883Y0480830D01*
X0333883Y0480830D01*
X0358883Y0455830D01*
X0358883Y0443330D01*
X0361383Y0440830D01*
D33*
X0242828Y0297080D02*
X0242779Y0297031D01*
X0241383Y0288330D02*
X0243883Y0285830D01*
X0243883Y0268330D01*
X0237633Y0262080D01*
X0222633Y0262080D01*
X0215133Y0253330D01*
X0215133Y0249580D01*
X0185133Y0248330D02*
X0185133Y0254580D01*
X0172633Y0259580D02*
X0162633Y0249580D01*
X0162633Y0213330D01*
X0162633Y0172080D01*
X0148883Y0158330D01*
X0148883Y0131852D01*
X0149415Y0131320D01*
X0161383Y0153330D02*
X0162633Y0154580D01*
X0171383Y0154580D01*
X0148805Y0184580D02*
X0148883Y0184659D01*
X0148883Y0192080D01*
X0144907Y0196057D01*
X0143883Y0196057D01*
X0138962Y0195978D02*
X0138883Y0196057D01*
X0138962Y0195978D02*
X0138962Y0184580D01*
X0133883Y0192080D02*
X0130133Y0188330D01*
X0130133Y0176677D01*
X0133883Y0172927D01*
X0133883Y0192080D02*
X0133883Y0196057D01*
X0128883Y0196057D02*
X0128883Y0203330D01*
X0120133Y0212080D01*
X0120133Y0237080D01*
X0133883Y0250830D01*
X0133883Y0251667D01*
X0131383Y0254167D01*
X0131383Y0282080D01*
X0118883Y0294580D01*
X0118883Y0300830D01*
X0112633Y0307080D01*
X0100133Y0307080D01*
X0100133Y0279580D01*
X0105133Y0274580D01*
X0109287Y0274580D01*
X0110133Y0273734D01*
X0109287Y0262080D02*
X0107633Y0262080D01*
X0095133Y0274580D01*
X0095133Y0335830D01*
X0097633Y0338330D01*
X0099188Y0338330D01*
X0100133Y0339275D01*
X0100133Y0345525D01*
X0101688Y0347080D01*
X0101787Y0347179D01*
X0101787Y0357080D01*
X0108578Y0347080D02*
X0110133Y0345525D01*
X0110133Y0339177D01*
X0110980Y0333330D02*
X0115133Y0333330D01*
X0119287Y0337484D01*
X0119287Y0338330D01*
X0110980Y0333330D02*
X0110133Y0332484D01*
X0110133Y0326677D02*
X0105980Y0326677D01*
X0100133Y0320830D01*
X0100133Y0307080D01*
X0100133Y0332385D02*
X0100271Y0332385D01*
X0127633Y0314177D02*
X0127633Y0307080D01*
X0125133Y0304580D01*
X0125133Y0295830D01*
X0135133Y0285830D01*
X0142633Y0285830D01*
X0146383Y0289580D01*
X0146383Y0299580D01*
X0148883Y0302080D01*
X0181383Y0302080D01*
X0191383Y0292080D01*
X0191383Y0288025D01*
X0231078Y0288330D02*
X0241383Y0288330D01*
X0223883Y0212080D02*
X0215438Y0212080D01*
X0215133Y0212385D01*
X0223883Y0212080D02*
X0228883Y0207080D01*
X0162633Y0213330D02*
X0159828Y0210525D01*
X0153883Y0210525D01*
X0153883Y0213330D01*
X0150133Y0217080D01*
X0144907Y0217080D01*
X0143883Y0218104D01*
X0144730Y0218950D01*
X0144730Y0229580D01*
X0138883Y0228734D02*
X0138037Y0229580D01*
X0138883Y0228734D02*
X0138883Y0218104D01*
X0143883Y0207080D02*
X0132633Y0207080D01*
X0128883Y0203330D01*
X0143883Y0207080D02*
X0147633Y0203330D01*
X0153578Y0203330D01*
X0153883Y0203635D01*
X0117633Y0262080D02*
X0115980Y0262080D01*
X0117633Y0262080D02*
X0122633Y0267080D01*
X0122633Y0271509D01*
X0123873Y0272749D01*
X0127633Y0314177D02*
X0129287Y0315830D01*
D34*
X0283883Y0163330D03*
D35*
X0263037Y0185830D02*
X0252633Y0185830D01*
X0250133Y0183330D01*
X0250133Y0178557D01*
X0254828Y0178251D02*
X0255133Y0178557D01*
X0254828Y0178251D02*
X0254828Y0170830D01*
X0247938Y0170830D02*
X0245133Y0170830D01*
X0240133Y0175830D01*
X0240133Y0178557D01*
X0235133Y0178557D02*
X0235133Y0171677D01*
X0236383Y0170427D01*
X0230133Y0172080D02*
X0230133Y0178557D01*
X0225133Y0178557D02*
X0225133Y0175830D01*
X0221383Y0172080D01*
X0212633Y0172080D01*
X0204508Y0163955D01*
X0202633Y0162080D01*
X0202633Y0156830D01*
X0202442Y0157021D01*
X0187633Y0157021D01*
X0187633Y0162139D02*
X0187633Y0175830D01*
X0187633Y0189521D01*
X0187633Y0194639D02*
X0187824Y0194830D01*
X0202633Y0194830D01*
X0205258Y0192205D01*
X0218907Y0178557D01*
X0220133Y0178557D01*
X0227633Y0170427D02*
X0228480Y0170427D01*
X0230133Y0172080D01*
X0229596Y0163734D02*
X0227633Y0163734D01*
X0229596Y0163734D02*
X0229999Y0163330D01*
X0229999Y0152080D01*
X0232633Y0155830D02*
X0235133Y0153330D01*
X0235268Y0153330D01*
X0232633Y0155830D02*
X0232633Y0161946D01*
X0232768Y0162080D01*
X0235671Y0163734D01*
X0236383Y0163734D01*
X0245133Y0178557D02*
X0245133Y0184580D01*
X0252633Y0192080D01*
X0260133Y0192080D01*
X0260133Y0192927D01*
X0263037Y0195830D01*
X0260133Y0200830D02*
X0255360Y0200830D01*
X0255133Y0200604D01*
X0260133Y0200830D02*
X0262633Y0203330D01*
X0262633Y0203999D01*
D36*
X0080033Y0120730D02*
X0080033Y0486009D01*
X0386257Y0486009D01*
X0386257Y0400199D01*
X0375383Y0411073D01*
X0375383Y0411626D01*
X0374774Y0413096D01*
X0373649Y0414221D01*
X0372179Y0414830D01*
X0370588Y0414830D01*
X0369118Y0414221D01*
X0367992Y0413096D01*
X0367383Y0411626D01*
X0367383Y0410035D01*
X0367992Y0408564D01*
X0369118Y0407439D01*
X0370588Y0406830D01*
X0371141Y0406830D01*
X0382133Y0395838D01*
X0382133Y0364323D01*
X0373083Y0373373D01*
X0371980Y0373830D01*
X0336450Y0373830D01*
X0336233Y0374355D01*
X0335558Y0375030D01*
X0334676Y0375396D01*
X0329784Y0375396D01*
X0328902Y0375030D01*
X0328883Y0375012D01*
X0328865Y0375030D01*
X0327983Y0375396D01*
X0323091Y0375396D01*
X0322465Y0375136D01*
X0322274Y0375596D01*
X0321149Y0376721D01*
X0319679Y0377330D01*
X0318088Y0377330D01*
X0316618Y0376721D01*
X0315492Y0375596D01*
X0314883Y0374126D01*
X0314883Y0372535D01*
X0315492Y0371064D01*
X0316618Y0369939D01*
X0317484Y0369580D01*
X0316618Y0369221D01*
X0316226Y0368830D01*
X0285787Y0368830D01*
X0284684Y0368373D01*
X0248213Y0331902D01*
X0247179Y0332330D01*
X0245588Y0332330D01*
X0244118Y0331721D01*
X0242992Y0330596D01*
X0242383Y0329126D01*
X0242383Y0327535D01*
X0242882Y0326330D01*
X0242626Y0326330D01*
X0241633Y0327323D01*
X0241633Y0327876D01*
X0241024Y0329346D01*
X0239899Y0330471D01*
X0238429Y0331080D01*
X0236838Y0331080D01*
X0235368Y0330471D01*
X0234242Y0329346D01*
X0233633Y0327876D01*
X0233633Y0326285D01*
X0234242Y0324814D01*
X0235368Y0323689D01*
X0236838Y0323080D01*
X0237391Y0323080D01*
X0239141Y0321330D01*
X0232037Y0321330D01*
X0230934Y0320873D01*
X0228434Y0318373D01*
X0227590Y0317530D01*
X0227199Y0316585D01*
X0227199Y0321180D01*
X0226833Y0322062D01*
X0226815Y0322080D01*
X0226833Y0322099D01*
X0227199Y0322981D01*
X0227199Y0327873D01*
X0226833Y0328755D01*
X0226158Y0329430D01*
X0225875Y0329547D01*
X0238959Y0342630D01*
X0252020Y0342630D01*
X0253196Y0343117D01*
X0259446Y0349367D01*
X0260346Y0350268D01*
X0260833Y0351444D01*
X0260833Y0468967D01*
X0260346Y0470143D01*
X0253659Y0476830D01*
X0332226Y0476830D01*
X0354883Y0454173D01*
X0354883Y0449980D01*
X0352056Y0449980D01*
X0350991Y0449539D01*
X0350175Y0448723D01*
X0349733Y0447657D01*
X0349733Y0436503D01*
X0350175Y0435437D01*
X0351425Y0434187D01*
X0352241Y0433372D01*
X0353306Y0432930D01*
X0366960Y0432930D01*
X0368026Y0433372D01*
X0369276Y0434622D01*
X0370092Y0435437D01*
X0370533Y0436503D01*
X0370533Y0446407D01*
X0370092Y0447473D01*
X0368842Y0448723D01*
X0368026Y0449539D01*
X0366960Y0449980D01*
X0362883Y0449980D01*
X0362883Y0456626D01*
X0362274Y0458096D01*
X0361149Y0459221D01*
X0336149Y0484221D01*
X0334679Y0484830D01*
X0173088Y0484830D01*
X0171618Y0484221D01*
X0142868Y0455471D01*
X0141742Y0454346D01*
X0141133Y0452876D01*
X0141133Y0433730D01*
X0135806Y0433730D01*
X0134741Y0433289D01*
X0133925Y0432473D01*
X0133491Y0432039D01*
X0132675Y0431223D01*
X0132233Y0430157D01*
X0132233Y0411503D01*
X0132675Y0410437D01*
X0136425Y0406687D01*
X0137241Y0405872D01*
X0138306Y0405430D01*
X0150710Y0405430D01*
X0151776Y0405872D01*
X0155526Y0409622D01*
X0156342Y0410437D01*
X0156783Y0411503D01*
X0156783Y0430157D01*
X0156342Y0431223D01*
X0155092Y0432473D01*
X0154276Y0433289D01*
X0153210Y0433730D01*
X0149133Y0433730D01*
X0149133Y0450423D01*
X0175540Y0476830D01*
X0222858Y0476830D01*
X0222420Y0476393D01*
X0214920Y0468893D01*
X0214433Y0467717D01*
X0214433Y0464530D01*
X0213186Y0463283D01*
X0212364Y0461298D01*
X0212364Y0453150D01*
X0213186Y0451165D01*
X0214705Y0449646D01*
X0216690Y0448824D01*
X0218838Y0448824D01*
X0220823Y0449646D01*
X0222342Y0451165D01*
X0222764Y0452184D01*
X0223186Y0451165D01*
X0224705Y0449646D01*
X0226690Y0448824D01*
X0228838Y0448824D01*
X0230823Y0449646D01*
X0232342Y0451165D01*
X0233109Y0453018D01*
X0233316Y0452382D01*
X0233659Y0451709D01*
X0234103Y0451097D01*
X0234637Y0450563D01*
X0235248Y0450119D01*
X0235921Y0449776D01*
X0236640Y0449542D01*
X0237386Y0449424D01*
X0237564Y0449424D01*
X0237564Y0457024D01*
X0237964Y0457024D01*
X0237964Y0449424D01*
X0238142Y0449424D01*
X0238888Y0449542D01*
X0239606Y0449776D01*
X0240280Y0450119D01*
X0240891Y0450563D01*
X0241425Y0451097D01*
X0241869Y0451709D01*
X0242212Y0452382D01*
X0242419Y0453018D01*
X0243186Y0451165D01*
X0244564Y0449788D01*
X0244564Y0438133D01*
X0232476Y0426045D01*
X0229991Y0426045D01*
X0229108Y0425680D01*
X0228433Y0425005D01*
X0228068Y0424123D01*
X0228068Y0419231D01*
X0228433Y0418349D01*
X0228452Y0418330D01*
X0228433Y0418312D01*
X0228213Y0417780D01*
X0224497Y0417780D01*
X0223321Y0417293D01*
X0215953Y0409926D01*
X0215053Y0409026D01*
X0214566Y0407849D01*
X0214566Y0393926D01*
X0213188Y0392548D01*
X0212366Y0390563D01*
X0212366Y0382415D01*
X0213188Y0380430D01*
X0214707Y0378911D01*
X0216692Y0378089D01*
X0218840Y0378089D01*
X0220825Y0378911D01*
X0222344Y0380430D01*
X0222766Y0381449D01*
X0223188Y0380430D01*
X0223233Y0380385D01*
X0223233Y0371511D01*
X0193979Y0344597D01*
X0193891Y0344560D01*
X0193337Y0344006D01*
X0192760Y0343476D01*
X0192720Y0343390D01*
X0192653Y0343323D01*
X0192353Y0342599D01*
X0192024Y0341888D01*
X0192020Y0341793D01*
X0191983Y0341705D01*
X0191983Y0340922D01*
X0191951Y0340139D01*
X0191983Y0340050D01*
X0191983Y0296571D01*
X0184144Y0304410D01*
X0184338Y0304330D01*
X0185929Y0304330D01*
X0187399Y0304939D01*
X0188524Y0306064D01*
X0189133Y0307535D01*
X0189133Y0309126D01*
X0188524Y0310596D01*
X0187399Y0311721D01*
X0185929Y0312330D01*
X0184338Y0312330D01*
X0182868Y0311721D01*
X0182376Y0311230D01*
X0148835Y0311230D01*
X0145533Y0314531D01*
X0145533Y0335157D01*
X0145092Y0336223D01*
X0144276Y0337039D01*
X0141776Y0339539D01*
X0140710Y0339980D01*
X0137585Y0339980D01*
X0119027Y0358538D01*
X0118927Y0358780D01*
X0118083Y0359623D01*
X0116980Y0360080D01*
X0112700Y0360080D01*
X0112483Y0360605D01*
X0111808Y0361280D01*
X0110926Y0361646D01*
X0106034Y0361646D01*
X0105152Y0361280D01*
X0105133Y0361262D01*
X0105115Y0361280D01*
X0104233Y0361646D01*
X0099341Y0361646D01*
X0098459Y0361280D01*
X0097784Y0360605D01*
X0097418Y0359723D01*
X0097418Y0354437D01*
X0097784Y0353555D01*
X0098187Y0353152D01*
X0098187Y0351166D01*
X0097587Y0350566D01*
X0097222Y0349684D01*
X0097222Y0347704D01*
X0097081Y0347564D01*
X0096533Y0346241D01*
X0096533Y0343262D01*
X0095973Y0342702D01*
X0095607Y0341819D01*
X0095607Y0341388D01*
X0095594Y0341382D01*
X0094581Y0340369D01*
X0092081Y0337869D01*
X0091533Y0336546D01*
X0091533Y0273864D01*
X0092081Y0272541D01*
X0093094Y0271528D01*
X0104918Y0259704D01*
X0104918Y0259437D01*
X0105284Y0258555D01*
X0105959Y0257880D01*
X0106841Y0257515D01*
X0111733Y0257515D01*
X0112615Y0257880D01*
X0112633Y0257899D01*
X0112652Y0257880D01*
X0113534Y0257515D01*
X0118426Y0257515D01*
X0119308Y0257880D01*
X0119983Y0258555D01*
X0120348Y0259437D01*
X0120348Y0259704D01*
X0124673Y0264028D01*
X0125685Y0265041D01*
X0126233Y0266364D01*
X0126233Y0267594D01*
X0126319Y0267594D01*
X0127201Y0267959D01*
X0127877Y0268634D01*
X0128242Y0269516D01*
X0128242Y0275983D01*
X0127877Y0276865D01*
X0127201Y0277540D01*
X0126319Y0277905D01*
X0124389Y0277905D01*
X0124502Y0278178D01*
X0124502Y0284644D01*
X0124136Y0285526D01*
X0123461Y0286201D01*
X0122579Y0286567D01*
X0117687Y0286567D01*
X0116805Y0286201D01*
X0116130Y0285526D01*
X0116082Y0285411D01*
X0113838Y0285411D01*
X0113838Y0292453D01*
X0115009Y0293625D01*
X0115938Y0295867D01*
X0115938Y0298294D01*
X0115009Y0300536D01*
X0113293Y0302252D01*
X0111051Y0303180D01*
X0108625Y0303180D01*
X0106383Y0302252D01*
X0104667Y0300536D01*
X0103738Y0298294D01*
X0103738Y0295867D01*
X0104667Y0293625D01*
X0105838Y0292453D01*
X0105838Y0283525D01*
X0105568Y0282873D01*
X0105568Y0277981D01*
X0105933Y0277099D01*
X0106417Y0276615D01*
X0106291Y0276397D01*
X0106168Y0275939D01*
X0106168Y0273918D01*
X0109949Y0273918D01*
X0109949Y0273549D01*
X0110318Y0273549D01*
X0110318Y0269965D01*
X0112536Y0269965D01*
X0112625Y0269989D01*
X0112625Y0269757D01*
X0112747Y0269299D01*
X0112984Y0268888D01*
X0113319Y0268553D01*
X0113730Y0268316D01*
X0114188Y0268194D01*
X0116209Y0268194D01*
X0116209Y0272565D01*
X0116577Y0272565D01*
X0116577Y0268194D01*
X0118599Y0268194D01*
X0118676Y0268214D01*
X0117108Y0266646D01*
X0113534Y0266646D01*
X0112652Y0266280D01*
X0112633Y0266262D01*
X0112615Y0266280D01*
X0111733Y0266646D01*
X0108159Y0266646D01*
X0098733Y0276071D01*
X0098733Y0328518D01*
X0099900Y0328518D01*
X0099900Y0332152D01*
X0100367Y0332152D01*
X0100367Y0332619D01*
X0104059Y0332619D01*
X0104059Y0334689D01*
X0103937Y0335147D01*
X0103811Y0335365D01*
X0104294Y0335849D01*
X0104659Y0336731D01*
X0104659Y0341819D01*
X0104337Y0342597D01*
X0105115Y0342920D01*
X0105133Y0342938D01*
X0105152Y0342920D01*
X0105998Y0342569D01*
X0105933Y0342505D01*
X0105568Y0341623D01*
X0105568Y0336731D01*
X0105933Y0335849D01*
X0105952Y0335830D01*
X0105933Y0335812D01*
X0105568Y0334930D01*
X0105568Y0330038D01*
X0105933Y0329156D01*
X0106176Y0328913D01*
X0106168Y0328882D01*
X0106168Y0326861D01*
X0109949Y0326861D01*
X0109949Y0326492D01*
X0106168Y0326492D01*
X0106168Y0324471D01*
X0106291Y0324013D01*
X0106417Y0323795D01*
X0105933Y0323312D01*
X0105568Y0322430D01*
X0105568Y0317538D01*
X0105933Y0316656D01*
X0106608Y0315981D01*
X0107491Y0315615D01*
X0108747Y0315615D01*
X0112675Y0311687D01*
X0113491Y0310872D01*
X0114556Y0310430D01*
X0115568Y0310430D01*
X0115568Y0310038D01*
X0115933Y0309156D01*
X0116608Y0308481D01*
X0117491Y0308115D01*
X0122776Y0308115D01*
X0123658Y0308481D01*
X0124033Y0308856D01*
X0124033Y0308571D01*
X0123094Y0307632D01*
X0122081Y0306619D01*
X0121533Y0305296D01*
X0121533Y0295114D01*
X0122081Y0293791D01*
X0132081Y0283791D01*
X0133094Y0282778D01*
X0134417Y0282230D01*
X0140983Y0282230D01*
X0140983Y0281503D01*
X0141425Y0280437D01*
X0142241Y0279622D01*
X0143306Y0279180D01*
X0151960Y0279180D01*
X0152153Y0279260D01*
X0152153Y0275441D01*
X0152518Y0274559D01*
X0153193Y0273884D01*
X0154075Y0273519D01*
X0163691Y0273519D01*
X0164574Y0273884D01*
X0165249Y0274559D01*
X0165460Y0275068D01*
X0167426Y0275068D01*
X0167874Y0273988D01*
X0168472Y0273390D01*
X0168472Y0271977D01*
X0168633Y0271586D01*
X0168633Y0266230D01*
X0159556Y0266230D01*
X0158491Y0265789D01*
X0157675Y0264973D01*
X0157233Y0263907D01*
X0157233Y0254081D01*
X0155526Y0255789D01*
X0154460Y0256230D01*
X0147890Y0256230D01*
X0147399Y0256721D01*
X0145929Y0257330D01*
X0144338Y0257330D01*
X0142868Y0256721D01*
X0141742Y0255596D01*
X0141133Y0254126D01*
X0141133Y0252535D01*
X0141742Y0251064D01*
X0142868Y0249939D01*
X0144338Y0249330D01*
X0145486Y0249330D01*
X0144883Y0247876D01*
X0144883Y0247181D01*
X0143932Y0246230D01*
X0135398Y0246230D01*
X0136048Y0246441D01*
X0136839Y0246844D01*
X0137557Y0247366D01*
X0138184Y0247994D01*
X0138706Y0248712D01*
X0139109Y0249502D01*
X0139383Y0250346D01*
X0139516Y0251187D01*
X0134363Y0251187D01*
X0134363Y0246230D01*
X0133404Y0246230D01*
X0133404Y0251187D01*
X0134363Y0251187D01*
X0134363Y0252146D01*
X0139516Y0252146D01*
X0139383Y0252987D01*
X0139109Y0253831D01*
X0138706Y0254622D01*
X0138184Y0255340D01*
X0137557Y0255968D01*
X0136839Y0256489D01*
X0136048Y0256892D01*
X0135204Y0257167D01*
X0134363Y0257300D01*
X0134363Y0252146D01*
X0133404Y0252146D01*
X0133404Y0251187D01*
X0128250Y0251187D01*
X0128384Y0250346D01*
X0128658Y0249502D01*
X0129061Y0248712D01*
X0129582Y0247994D01*
X0130210Y0247366D01*
X0130928Y0246844D01*
X0131719Y0246441D01*
X0132563Y0246167D01*
X0132991Y0246099D01*
X0132241Y0245789D01*
X0124741Y0238289D01*
X0123925Y0237473D01*
X0123483Y0236407D01*
X0123483Y0227337D01*
X0122992Y0226846D01*
X0122383Y0225376D01*
X0122383Y0223785D01*
X0122992Y0222314D01*
X0124118Y0221189D01*
X0125302Y0220698D01*
X0125302Y0215264D01*
X0125668Y0214382D01*
X0126343Y0213707D01*
X0127225Y0213342D01*
X0130542Y0213342D01*
X0131383Y0213690D01*
X0132225Y0213342D01*
X0135542Y0213342D01*
X0136383Y0213690D01*
X0137225Y0213342D01*
X0140542Y0213342D01*
X0141383Y0213690D01*
X0142225Y0213342D01*
X0145542Y0213342D01*
X0145876Y0213480D01*
X0148642Y0213480D01*
X0149357Y0212765D01*
X0149357Y0207981D01*
X0149723Y0207099D01*
X0150206Y0206615D01*
X0150080Y0206397D01*
X0149957Y0205939D01*
X0149957Y0203869D01*
X0153650Y0203869D01*
X0153650Y0203402D01*
X0149957Y0203402D01*
X0149957Y0201331D01*
X0150080Y0200874D01*
X0150317Y0200463D01*
X0150652Y0200128D01*
X0151063Y0199891D01*
X0151520Y0199768D01*
X0153650Y0199768D01*
X0153650Y0203402D01*
X0154117Y0203402D01*
X0154117Y0203869D01*
X0157809Y0203869D01*
X0157809Y0205939D01*
X0157687Y0206397D01*
X0157561Y0206615D01*
X0157870Y0206925D01*
X0159033Y0206925D01*
X0159033Y0173571D01*
X0145831Y0160369D01*
X0145283Y0159046D01*
X0145283Y0137826D01*
X0144837Y0137379D01*
X0144015Y0135395D01*
X0144015Y0127246D01*
X0144837Y0125262D01*
X0146356Y0123742D01*
X0148341Y0122920D01*
X0150489Y0122920D01*
X0152474Y0123742D01*
X0153993Y0125262D01*
X0154415Y0126281D01*
X0154837Y0125262D01*
X0156356Y0123742D01*
X0158341Y0122920D01*
X0160489Y0122920D01*
X0162474Y0123742D01*
X0163993Y0125262D01*
X0164815Y0127246D01*
X0164815Y0135395D01*
X0163993Y0137379D01*
X0162474Y0138898D01*
X0160489Y0139720D01*
X0158341Y0139720D01*
X0156356Y0138898D01*
X0154837Y0137379D01*
X0154415Y0136360D01*
X0153993Y0137379D01*
X0152483Y0138889D01*
X0152483Y0156839D01*
X0164673Y0169028D01*
X0165685Y0170041D01*
X0166233Y0171364D01*
X0166233Y0211569D01*
X0166633Y0212535D01*
X0166633Y0214126D01*
X0166233Y0215092D01*
X0166233Y0248089D01*
X0167324Y0249180D01*
X0175710Y0249180D01*
X0176776Y0249622D01*
X0177592Y0250437D01*
X0178033Y0251503D01*
X0178033Y0263907D01*
X0177592Y0264973D01*
X0176776Y0265789D01*
X0176633Y0265848D01*
X0176633Y0270688D01*
X0176848Y0270903D01*
X0177066Y0270777D01*
X0177524Y0270654D01*
X0179595Y0270654D01*
X0179595Y0274347D01*
X0180062Y0274347D01*
X0180062Y0274814D01*
X0183695Y0274814D01*
X0183695Y0276943D01*
X0183584Y0277357D01*
X0184341Y0277357D01*
X0185224Y0277723D01*
X0185390Y0277890D01*
X0185652Y0277628D01*
X0186063Y0277391D01*
X0186520Y0277268D01*
X0188650Y0277268D01*
X0188650Y0280902D01*
X0189117Y0280902D01*
X0189117Y0277268D01*
X0191246Y0277268D01*
X0191704Y0277391D01*
X0192115Y0277628D01*
X0192288Y0277801D01*
X0192858Y0277231D01*
X0193741Y0276865D01*
X0194856Y0276865D01*
X0197383Y0274338D01*
X0197383Y0273785D01*
X0197992Y0272314D01*
X0199118Y0271189D01*
X0200588Y0270580D01*
X0202179Y0270580D01*
X0203649Y0271189D01*
X0204774Y0272314D01*
X0205233Y0273422D01*
X0205233Y0262860D01*
X0177358Y0234984D01*
X0175979Y0233606D01*
X0175233Y0231805D01*
X0175233Y0147356D01*
X0175979Y0145555D01*
X0178483Y0143051D01*
X0178483Y0132753D01*
X0178925Y0131687D01*
X0179741Y0130872D01*
X0180806Y0130430D01*
X0204460Y0130430D01*
X0205526Y0130872D01*
X0206342Y0131687D01*
X0206783Y0132753D01*
X0206783Y0143907D01*
X0206774Y0143930D01*
X0206911Y0143930D01*
X0207793Y0144296D01*
X0208468Y0144971D01*
X0208833Y0145853D01*
X0208833Y0163494D01*
X0214035Y0168696D01*
X0222056Y0168696D01*
X0223068Y0169115D01*
X0223068Y0167981D01*
X0223128Y0167835D01*
X0222983Y0167896D01*
X0218091Y0167896D01*
X0217209Y0167530D01*
X0216534Y0166855D01*
X0216168Y0165973D01*
X0216168Y0160687D01*
X0216534Y0159805D01*
X0217209Y0159130D01*
X0217801Y0158885D01*
X0217383Y0157876D01*
X0217383Y0156285D01*
X0217992Y0154814D01*
X0219118Y0153689D01*
X0220588Y0153080D01*
X0222179Y0153080D01*
X0223649Y0153689D01*
X0224774Y0154814D01*
X0225383Y0156285D01*
X0225383Y0157876D01*
X0225015Y0158765D01*
X0226615Y0158765D01*
X0226615Y0154376D01*
X0226594Y0154355D01*
X0225983Y0152879D01*
X0225983Y0151281D01*
X0226594Y0149805D01*
X0227724Y0148675D01*
X0229200Y0148064D01*
X0230798Y0148064D01*
X0232274Y0148675D01*
X0233381Y0149782D01*
X0234472Y0149330D01*
X0236063Y0149330D01*
X0237533Y0149939D01*
X0238659Y0151064D01*
X0239268Y0152535D01*
X0239268Y0154126D01*
X0238659Y0155596D01*
X0237533Y0156721D01*
X0236063Y0157330D01*
X0236018Y0157330D01*
X0236018Y0158765D01*
X0239233Y0158765D01*
X0240115Y0159130D01*
X0240133Y0159149D01*
X0240152Y0159130D01*
X0241034Y0158765D01*
X0245926Y0158765D01*
X0246808Y0159130D01*
X0247483Y0159805D01*
X0247700Y0160330D01*
X0248726Y0160330D01*
X0249118Y0159939D01*
X0250588Y0159330D01*
X0252179Y0159330D01*
X0253649Y0159939D01*
X0254774Y0161064D01*
X0255383Y0162535D01*
X0255383Y0164126D01*
X0254774Y0165596D01*
X0253649Y0166721D01*
X0253207Y0166904D01*
X0254595Y0166904D01*
X0254595Y0170597D01*
X0255062Y0170597D01*
X0255062Y0171064D01*
X0258695Y0171064D01*
X0258695Y0173193D01*
X0258572Y0173651D01*
X0258335Y0174061D01*
X0258000Y0174397D01*
X0257590Y0174634D01*
X0257331Y0174703D01*
X0257420Y0174754D01*
X0257755Y0175089D01*
X0257992Y0175500D01*
X0258114Y0175957D01*
X0258114Y0178557D01*
X0258114Y0181156D01*
X0257992Y0181614D01*
X0257755Y0182024D01*
X0257420Y0182359D01*
X0257269Y0182446D01*
X0258976Y0182446D01*
X0259034Y0182305D01*
X0259709Y0181630D01*
X0260591Y0181265D01*
X0265483Y0181265D01*
X0266365Y0181630D01*
X0266383Y0181649D01*
X0266402Y0181630D01*
X0267284Y0181265D01*
X0267806Y0181265D01*
X0267477Y0180469D01*
X0267477Y0178878D01*
X0268086Y0177408D01*
X0269211Y0176283D01*
X0270681Y0175674D01*
X0271234Y0175674D01*
X0274978Y0171930D01*
X0274978Y0156726D01*
X0274962Y0156684D01*
X0274978Y0156131D01*
X0274978Y0155578D01*
X0274995Y0155536D01*
X0274996Y0155491D01*
X0275223Y0154986D01*
X0275435Y0154475D01*
X0275467Y0154443D01*
X0275485Y0154402D01*
X0275887Y0154023D01*
X0276278Y0153631D01*
X0276320Y0153614D01*
X0276353Y0153583D01*
X0276870Y0153386D01*
X0277381Y0153175D01*
X0277426Y0153175D01*
X0277776Y0153042D01*
X0278287Y0152830D01*
X0278332Y0152830D01*
X0278374Y0152814D01*
X0278927Y0152830D01*
X0282641Y0152830D01*
X0290934Y0144537D01*
X0292037Y0144080D01*
X0337641Y0144080D01*
X0342383Y0139338D01*
X0342383Y0138785D01*
X0342992Y0137314D01*
X0344118Y0136189D01*
X0345588Y0135580D01*
X0347179Y0135580D01*
X0348649Y0136189D01*
X0349774Y0137314D01*
X0350383Y0138785D01*
X0350383Y0140376D01*
X0349774Y0141846D01*
X0348649Y0142971D01*
X0347179Y0143580D01*
X0346626Y0143580D01*
X0341427Y0148780D01*
X0340583Y0149623D01*
X0339480Y0150080D01*
X0332883Y0150080D01*
X0332883Y0151626D01*
X0332384Y0152830D01*
X0348441Y0152830D01*
X0348588Y0152786D01*
X0349033Y0152830D01*
X0349480Y0152830D01*
X0349622Y0152889D01*
X0349776Y0152904D01*
X0350170Y0153116D01*
X0350583Y0153287D01*
X0350692Y0153396D01*
X0350827Y0153469D01*
X0351110Y0153815D01*
X0351427Y0154131D01*
X0351486Y0154273D01*
X0360737Y0165580D01*
X0360929Y0165580D01*
X0362399Y0166189D01*
X0363524Y0167314D01*
X0364133Y0168785D01*
X0364133Y0170376D01*
X0363524Y0171846D01*
X0362399Y0172971D01*
X0360929Y0173580D01*
X0359338Y0173580D01*
X0357868Y0172971D01*
X0356742Y0171846D01*
X0356133Y0170376D01*
X0356133Y0169429D01*
X0347462Y0158830D01*
X0325383Y0158830D01*
X0325383Y0160376D01*
X0324884Y0161580D01*
X0348230Y0161580D01*
X0349333Y0162037D01*
X0351833Y0164537D01*
X0352677Y0165381D01*
X0353133Y0166483D01*
X0353133Y0198579D01*
X0354338Y0198080D01*
X0355929Y0198080D01*
X0356133Y0198165D01*
X0356133Y0197535D01*
X0356742Y0196064D01*
X0357868Y0194939D01*
X0359338Y0194330D01*
X0360929Y0194330D01*
X0362399Y0194939D01*
X0362782Y0195322D01*
X0362992Y0194814D01*
X0364118Y0193689D01*
X0365588Y0193080D01*
X0367179Y0193080D01*
X0368649Y0193689D01*
X0369774Y0194814D01*
X0370133Y0195681D01*
X0370492Y0194814D01*
X0371618Y0193689D01*
X0373088Y0193080D01*
X0374679Y0193080D01*
X0376149Y0193689D01*
X0376540Y0194080D01*
X0380730Y0194080D01*
X0381833Y0194537D01*
X0382677Y0195381D01*
X0383133Y0196483D01*
X0383133Y0200763D01*
X0383658Y0200981D01*
X0383983Y0201306D01*
X0383983Y0187853D01*
X0384349Y0186971D01*
X0385024Y0186296D01*
X0385906Y0185930D01*
X0386257Y0185930D01*
X0386257Y0120730D01*
X0284135Y0120730D01*
X0286776Y0123372D01*
X0287592Y0124187D01*
X0288033Y0125253D01*
X0288033Y0129323D01*
X0288524Y0129814D01*
X0289133Y0131285D01*
X0289133Y0132876D01*
X0288524Y0134346D01*
X0287399Y0135471D01*
X0285929Y0136080D01*
X0284338Y0136080D01*
X0282868Y0135471D01*
X0281742Y0134346D01*
X0281133Y0132876D01*
X0281133Y0131285D01*
X0281742Y0129814D01*
X0282233Y0129323D01*
X0282233Y0127031D01*
X0278932Y0123730D01*
X0248167Y0123730D01*
X0248797Y0125251D01*
X0248927Y0125381D01*
X0249383Y0126483D01*
X0249383Y0141427D01*
X0248927Y0142530D01*
X0248083Y0143373D01*
X0246980Y0143830D01*
X0240787Y0143830D01*
X0239684Y0143373D01*
X0238840Y0142530D01*
X0238383Y0141427D01*
X0238383Y0140538D01*
X0238219Y0140141D01*
X0238219Y0139944D01*
X0238086Y0139622D01*
X0238086Y0137801D01*
X0238219Y0137479D01*
X0238219Y0137222D01*
X0238383Y0136826D01*
X0238383Y0133830D01*
X0228133Y0133830D01*
X0228133Y0142677D01*
X0227677Y0143780D01*
X0226833Y0144623D01*
X0225730Y0145080D01*
X0217037Y0145080D01*
X0215934Y0144623D01*
X0215090Y0143780D01*
X0214633Y0142677D01*
X0214633Y0128580D01*
X0213088Y0128580D01*
X0211618Y0127971D01*
X0210492Y0126846D01*
X0209883Y0125376D01*
X0209883Y0123785D01*
X0210492Y0122314D01*
X0210983Y0121823D01*
X0210983Y0120730D01*
X0080033Y0120730D01*
X0080033Y0121527D02*
X0210983Y0121527D01*
X0210156Y0123126D02*
X0160985Y0123126D01*
X0163456Y0124724D02*
X0209883Y0124724D01*
X0210276Y0126323D02*
X0164432Y0126323D01*
X0164815Y0127921D02*
X0211568Y0127921D01*
X0214633Y0129520D02*
X0164815Y0129520D01*
X0164815Y0131118D02*
X0179494Y0131118D01*
X0178498Y0132717D02*
X0164815Y0132717D01*
X0164815Y0134315D02*
X0178483Y0134315D01*
X0178483Y0135914D02*
X0164600Y0135914D01*
X0163860Y0137512D02*
X0178483Y0137512D01*
X0178483Y0139111D02*
X0161961Y0139111D01*
X0156869Y0139111D02*
X0152483Y0139111D01*
X0152483Y0140709D02*
X0178483Y0140709D01*
X0178483Y0142308D02*
X0152483Y0142308D01*
X0152483Y0143906D02*
X0177627Y0143906D01*
X0176029Y0145505D02*
X0152483Y0145505D01*
X0152483Y0147103D02*
X0175338Y0147103D01*
X0175233Y0148702D02*
X0152483Y0148702D01*
X0152483Y0150300D02*
X0175233Y0150300D01*
X0175233Y0151899D02*
X0152483Y0151899D01*
X0152483Y0153497D02*
X0175233Y0153497D01*
X0175233Y0155096D02*
X0152483Y0155096D01*
X0152483Y0156694D02*
X0175233Y0156694D01*
X0175233Y0158293D02*
X0153937Y0158293D01*
X0155536Y0159891D02*
X0175233Y0159891D01*
X0175233Y0161490D02*
X0157134Y0161490D01*
X0158733Y0163089D02*
X0175233Y0163089D01*
X0175233Y0164687D02*
X0160331Y0164687D01*
X0161930Y0166286D02*
X0175233Y0166286D01*
X0175233Y0167884D02*
X0163528Y0167884D01*
X0165127Y0169483D02*
X0175233Y0169483D01*
X0175233Y0171081D02*
X0166116Y0171081D01*
X0166233Y0172680D02*
X0175233Y0172680D01*
X0175233Y0174278D02*
X0166233Y0174278D01*
X0166233Y0175877D02*
X0175233Y0175877D01*
X0175233Y0177475D02*
X0166233Y0177475D01*
X0166233Y0179074D02*
X0175233Y0179074D01*
X0175233Y0180672D02*
X0166233Y0180672D01*
X0166233Y0182271D02*
X0175233Y0182271D01*
X0175233Y0183869D02*
X0166233Y0183869D01*
X0166233Y0185468D02*
X0175233Y0185468D01*
X0175233Y0187066D02*
X0166233Y0187066D01*
X0166233Y0188665D02*
X0175233Y0188665D01*
X0175233Y0190263D02*
X0166233Y0190263D01*
X0166233Y0191862D02*
X0175233Y0191862D01*
X0175233Y0193460D02*
X0166233Y0193460D01*
X0166233Y0195059D02*
X0175233Y0195059D01*
X0175233Y0196657D02*
X0166233Y0196657D01*
X0166233Y0198256D02*
X0175233Y0198256D01*
X0175233Y0199854D02*
X0166233Y0199854D01*
X0166233Y0201453D02*
X0175233Y0201453D01*
X0175233Y0203051D02*
X0166233Y0203051D01*
X0166233Y0204650D02*
X0175233Y0204650D01*
X0175233Y0206248D02*
X0166233Y0206248D01*
X0166233Y0207847D02*
X0175233Y0207847D01*
X0175233Y0209445D02*
X0166233Y0209445D01*
X0166233Y0211044D02*
X0175233Y0211044D01*
X0175233Y0212642D02*
X0166633Y0212642D01*
X0166586Y0214241D02*
X0175233Y0214241D01*
X0175233Y0215839D02*
X0166233Y0215839D01*
X0166233Y0217438D02*
X0175233Y0217438D01*
X0175233Y0219036D02*
X0166233Y0219036D01*
X0166233Y0220635D02*
X0175233Y0220635D01*
X0175233Y0222233D02*
X0166233Y0222233D01*
X0166233Y0223832D02*
X0175233Y0223832D01*
X0175233Y0225430D02*
X0166233Y0225430D01*
X0166233Y0227029D02*
X0175233Y0227029D01*
X0175233Y0228627D02*
X0166233Y0228627D01*
X0166233Y0230226D02*
X0175233Y0230226D01*
X0175241Y0231825D02*
X0166233Y0231825D01*
X0166233Y0233423D02*
X0175904Y0233423D01*
X0177395Y0235022D02*
X0166233Y0235022D01*
X0166233Y0236620D02*
X0178994Y0236620D01*
X0180592Y0238219D02*
X0166233Y0238219D01*
X0166233Y0239817D02*
X0182191Y0239817D01*
X0183789Y0241416D02*
X0166233Y0241416D01*
X0166233Y0243014D02*
X0185388Y0243014D01*
X0186986Y0244613D02*
X0166233Y0244613D01*
X0166233Y0246211D02*
X0188585Y0246211D01*
X0190183Y0247810D02*
X0166233Y0247810D01*
X0176260Y0249408D02*
X0191782Y0249408D01*
X0193380Y0251007D02*
X0177828Y0251007D01*
X0178033Y0252605D02*
X0194979Y0252605D01*
X0196577Y0254204D02*
X0178033Y0254204D01*
X0178033Y0255802D02*
X0198176Y0255802D01*
X0199774Y0257401D02*
X0178033Y0257401D01*
X0178033Y0258999D02*
X0201373Y0258999D01*
X0202971Y0260598D02*
X0178033Y0260598D01*
X0178033Y0262196D02*
X0204570Y0262196D01*
X0205233Y0263795D02*
X0178033Y0263795D01*
X0177171Y0265393D02*
X0205233Y0265393D01*
X0205233Y0266992D02*
X0176633Y0266992D01*
X0176633Y0268590D02*
X0205233Y0268590D01*
X0205233Y0270189D02*
X0176633Y0270189D01*
X0179595Y0271787D02*
X0180062Y0271787D01*
X0180062Y0270654D02*
X0182132Y0270654D01*
X0182590Y0270777D01*
X0183000Y0271014D01*
X0183335Y0271349D01*
X0183572Y0271759D01*
X0183695Y0272217D01*
X0183695Y0274347D01*
X0180062Y0274347D01*
X0180062Y0270654D01*
X0180062Y0273386D02*
X0179595Y0273386D01*
X0179828Y0274580D02*
X0188883Y0274580D01*
X0188650Y0278181D02*
X0189117Y0278181D01*
X0189117Y0279780D02*
X0188650Y0279780D01*
X0188883Y0281135D02*
X0186688Y0283330D01*
X0186383Y0283330D01*
X0185133Y0284580D01*
X0181502Y0284580D01*
X0183695Y0276583D02*
X0195138Y0276583D01*
X0196737Y0274984D02*
X0183695Y0274984D01*
X0183695Y0273386D02*
X0197548Y0273386D01*
X0198519Y0271787D02*
X0183580Y0271787D01*
X0168550Y0271787D02*
X0128242Y0271787D01*
X0128242Y0270189D02*
X0168633Y0270189D01*
X0168633Y0268590D02*
X0127833Y0268590D01*
X0126233Y0266992D02*
X0168633Y0266992D01*
X0168472Y0273386D02*
X0128242Y0273386D01*
X0128242Y0274984D02*
X0152342Y0274984D01*
X0152153Y0276583D02*
X0127993Y0276583D01*
X0124502Y0278181D02*
X0152153Y0278181D01*
X0142082Y0279780D02*
X0124502Y0279780D01*
X0124502Y0281378D02*
X0141035Y0281378D01*
X0132895Y0282977D02*
X0124502Y0282977D01*
X0124502Y0284575D02*
X0131297Y0284575D01*
X0129698Y0286174D02*
X0123489Y0286174D01*
X0126501Y0289371D02*
X0113838Y0289371D01*
X0113838Y0290969D02*
X0124903Y0290969D01*
X0123304Y0292568D02*
X0113952Y0292568D01*
X0115234Y0294166D02*
X0121926Y0294166D01*
X0121533Y0295765D02*
X0115896Y0295765D01*
X0115938Y0297363D02*
X0121533Y0297363D01*
X0121533Y0298962D02*
X0115661Y0298962D01*
X0114984Y0300560D02*
X0121533Y0300560D01*
X0121533Y0302159D02*
X0113386Y0302159D01*
X0116536Y0308553D02*
X0098733Y0308553D01*
X0098733Y0306955D02*
X0122416Y0306955D01*
X0121558Y0305356D02*
X0098733Y0305356D01*
X0098733Y0303758D02*
X0121533Y0303758D01*
X0123731Y0308553D02*
X0124015Y0308553D01*
X0115568Y0310152D02*
X0098733Y0310152D01*
X0098733Y0311750D02*
X0112612Y0311750D01*
X0111014Y0313349D02*
X0098733Y0313349D01*
X0098733Y0314947D02*
X0109415Y0314947D01*
X0106043Y0316546D02*
X0098733Y0316546D01*
X0098733Y0318144D02*
X0105568Y0318144D01*
X0105568Y0319743D02*
X0098733Y0319743D01*
X0098733Y0321341D02*
X0105568Y0321341D01*
X0105779Y0322940D02*
X0098733Y0322940D01*
X0098733Y0324538D02*
X0106168Y0324538D01*
X0106168Y0326137D02*
X0098733Y0326137D01*
X0098733Y0327735D02*
X0106168Y0327735D01*
X0105860Y0329334D02*
X0103769Y0329334D01*
X0103700Y0329213D02*
X0103937Y0329624D01*
X0104059Y0330081D01*
X0104059Y0332152D01*
X0100367Y0332152D01*
X0100367Y0328518D01*
X0102496Y0328518D01*
X0102954Y0328641D01*
X0103365Y0328878D01*
X0103700Y0329213D01*
X0104059Y0330932D02*
X0105568Y0330932D01*
X0105568Y0332531D02*
X0100367Y0332531D01*
X0100367Y0330932D02*
X0099900Y0330932D01*
X0099900Y0329334D02*
X0100367Y0329334D01*
X0104059Y0334129D02*
X0105568Y0334129D01*
X0105899Y0335728D02*
X0104173Y0335728D01*
X0104659Y0337326D02*
X0105568Y0337326D01*
X0105568Y0338925D02*
X0104659Y0338925D01*
X0104659Y0340523D02*
X0105568Y0340523D01*
X0105775Y0342122D02*
X0104534Y0342122D01*
X0096533Y0343720D02*
X0080033Y0343720D01*
X0080033Y0342122D02*
X0095733Y0342122D01*
X0094735Y0340523D02*
X0080033Y0340523D01*
X0080033Y0338925D02*
X0093137Y0338925D01*
X0091856Y0337326D02*
X0080033Y0337326D01*
X0080033Y0335728D02*
X0091533Y0335728D01*
X0091533Y0334129D02*
X0080033Y0334129D01*
X0080033Y0332531D02*
X0091533Y0332531D01*
X0091533Y0330932D02*
X0080033Y0330932D01*
X0080033Y0329334D02*
X0091533Y0329334D01*
X0091533Y0327735D02*
X0080033Y0327735D01*
X0080033Y0326137D02*
X0091533Y0326137D01*
X0091533Y0324538D02*
X0080033Y0324538D01*
X0080033Y0322940D02*
X0091533Y0322940D01*
X0091533Y0321341D02*
X0080033Y0321341D01*
X0080033Y0319743D02*
X0091533Y0319743D01*
X0091533Y0318144D02*
X0080033Y0318144D01*
X0080033Y0316546D02*
X0091533Y0316546D01*
X0091533Y0314947D02*
X0080033Y0314947D01*
X0080033Y0313349D02*
X0091533Y0313349D01*
X0091533Y0311750D02*
X0080033Y0311750D01*
X0080033Y0310152D02*
X0091533Y0310152D01*
X0091533Y0308553D02*
X0080033Y0308553D01*
X0080033Y0306955D02*
X0091533Y0306955D01*
X0091533Y0305356D02*
X0080033Y0305356D01*
X0080033Y0303758D02*
X0091533Y0303758D01*
X0091533Y0302159D02*
X0080033Y0302159D01*
X0080033Y0300560D02*
X0091533Y0300560D01*
X0091533Y0298962D02*
X0080033Y0298962D01*
X0080033Y0297363D02*
X0091533Y0297363D01*
X0091533Y0295765D02*
X0080033Y0295765D01*
X0080033Y0294166D02*
X0091533Y0294166D01*
X0091533Y0292568D02*
X0080033Y0292568D01*
X0080033Y0290969D02*
X0091533Y0290969D01*
X0091533Y0289371D02*
X0080033Y0289371D01*
X0080033Y0287772D02*
X0091533Y0287772D01*
X0091533Y0286174D02*
X0080033Y0286174D01*
X0080033Y0284575D02*
X0091533Y0284575D01*
X0091533Y0282977D02*
X0080033Y0282977D01*
X0080033Y0281378D02*
X0091533Y0281378D01*
X0091533Y0279780D02*
X0080033Y0279780D01*
X0080033Y0278181D02*
X0091533Y0278181D01*
X0091533Y0276583D02*
X0080033Y0276583D01*
X0080033Y0274984D02*
X0091533Y0274984D01*
X0091731Y0273386D02*
X0080033Y0273386D01*
X0080033Y0271787D02*
X0092835Y0271787D01*
X0094434Y0270189D02*
X0080033Y0270189D01*
X0080033Y0268590D02*
X0096032Y0268590D01*
X0097631Y0266992D02*
X0080033Y0266992D01*
X0080033Y0265393D02*
X0099229Y0265393D01*
X0100828Y0263795D02*
X0080033Y0263795D01*
X0080033Y0262196D02*
X0102426Y0262196D01*
X0104025Y0260598D02*
X0080033Y0260598D01*
X0080033Y0258999D02*
X0105100Y0258999D01*
X0107813Y0266992D02*
X0117454Y0266992D01*
X0116577Y0268590D02*
X0116209Y0268590D01*
X0116209Y0270189D02*
X0116577Y0270189D01*
X0116577Y0271787D02*
X0116209Y0271787D01*
X0113282Y0268590D02*
X0106214Y0268590D01*
X0107098Y0270189D02*
X0104616Y0270189D01*
X0106291Y0271070D02*
X0106528Y0270660D01*
X0106863Y0270325D01*
X0107273Y0270088D01*
X0107731Y0269965D01*
X0109949Y0269965D01*
X0109949Y0273549D01*
X0106168Y0273549D01*
X0106168Y0271528D01*
X0106291Y0271070D01*
X0106168Y0271787D02*
X0103017Y0271787D01*
X0101419Y0273386D02*
X0106168Y0273386D01*
X0106168Y0274984D02*
X0099820Y0274984D01*
X0098733Y0276583D02*
X0106398Y0276583D01*
X0105568Y0278181D02*
X0098733Y0278181D01*
X0098733Y0279780D02*
X0105568Y0279780D01*
X0105568Y0281378D02*
X0098733Y0281378D01*
X0098733Y0282977D02*
X0105611Y0282977D01*
X0105838Y0284575D02*
X0098733Y0284575D01*
X0098733Y0286174D02*
X0105838Y0286174D01*
X0105838Y0287772D02*
X0098733Y0287772D01*
X0098733Y0289371D02*
X0105838Y0289371D01*
X0105838Y0290969D02*
X0098733Y0290969D01*
X0098733Y0292568D02*
X0105724Y0292568D01*
X0104442Y0294166D02*
X0098733Y0294166D01*
X0098733Y0295765D02*
X0103780Y0295765D01*
X0103738Y0297363D02*
X0098733Y0297363D01*
X0098733Y0298962D02*
X0104015Y0298962D01*
X0104692Y0300560D02*
X0098733Y0300560D01*
X0098733Y0302159D02*
X0106290Y0302159D01*
X0113838Y0287772D02*
X0128100Y0287772D01*
X0116778Y0286174D02*
X0113838Y0286174D01*
X0110318Y0273386D02*
X0109949Y0273386D01*
X0109949Y0271787D02*
X0110318Y0271787D01*
X0110318Y0270189D02*
X0109949Y0270189D01*
X0121242Y0260598D02*
X0157233Y0260598D01*
X0157233Y0262196D02*
X0122841Y0262196D01*
X0124439Y0263795D02*
X0157233Y0263795D01*
X0158095Y0265393D02*
X0125831Y0265393D01*
X0120167Y0258999D02*
X0157233Y0258999D01*
X0157233Y0257401D02*
X0080033Y0257401D01*
X0080033Y0255802D02*
X0130045Y0255802D01*
X0130210Y0255968D02*
X0129582Y0255340D01*
X0129061Y0254622D01*
X0128658Y0253831D01*
X0128384Y0252987D01*
X0128250Y0252146D01*
X0133404Y0252146D01*
X0133404Y0257300D01*
X0132563Y0257167D01*
X0131719Y0256892D01*
X0130928Y0256489D01*
X0130210Y0255968D01*
X0128848Y0254204D02*
X0080033Y0254204D01*
X0080033Y0252605D02*
X0128323Y0252605D01*
X0128279Y0251007D02*
X0080033Y0251007D01*
X0080033Y0249408D02*
X0128706Y0249408D01*
X0129766Y0247810D02*
X0080033Y0247810D01*
X0080033Y0246211D02*
X0132427Y0246211D01*
X0133404Y0247810D02*
X0134363Y0247810D01*
X0134363Y0249408D02*
X0133404Y0249408D01*
X0133404Y0251007D02*
X0134363Y0251007D01*
X0134363Y0252605D02*
X0133404Y0252605D01*
X0133404Y0254204D02*
X0134363Y0254204D01*
X0134363Y0255802D02*
X0133404Y0255802D01*
X0137722Y0255802D02*
X0141948Y0255802D01*
X0141166Y0254204D02*
X0138919Y0254204D01*
X0139444Y0252605D02*
X0141133Y0252605D01*
X0141800Y0251007D02*
X0139488Y0251007D01*
X0139061Y0249408D02*
X0144150Y0249408D01*
X0144883Y0247810D02*
X0138000Y0247810D01*
X0131065Y0244613D02*
X0080033Y0244613D01*
X0080033Y0243014D02*
X0129466Y0243014D01*
X0127867Y0241416D02*
X0080033Y0241416D01*
X0080033Y0239817D02*
X0126269Y0239817D01*
X0124670Y0238219D02*
X0080033Y0238219D01*
X0080033Y0236620D02*
X0123572Y0236620D01*
X0123483Y0235022D02*
X0080033Y0235022D01*
X0080033Y0233423D02*
X0123483Y0233423D01*
X0123483Y0231825D02*
X0080033Y0231825D01*
X0080033Y0230226D02*
X0123483Y0230226D01*
X0123483Y0228627D02*
X0080033Y0228627D01*
X0080033Y0227029D02*
X0123175Y0227029D01*
X0122406Y0225430D02*
X0080033Y0225430D01*
X0080033Y0223832D02*
X0122383Y0223832D01*
X0123073Y0222233D02*
X0080033Y0222233D01*
X0080033Y0220635D02*
X0125302Y0220635D01*
X0125302Y0219036D02*
X0080033Y0219036D01*
X0080033Y0217438D02*
X0125302Y0217438D01*
X0125302Y0215839D02*
X0080033Y0215839D01*
X0080033Y0214241D02*
X0125809Y0214241D01*
X0127465Y0200219D02*
X0127007Y0200096D01*
X0126597Y0199859D01*
X0126262Y0199524D01*
X0126025Y0199114D01*
X0125902Y0198656D01*
X0125902Y0196057D01*
X0128883Y0196057D01*
X0128883Y0200219D01*
X0127465Y0200219D01*
X0126592Y0199854D02*
X0080033Y0199854D01*
X0080033Y0198256D02*
X0125902Y0198256D01*
X0125902Y0196657D02*
X0080033Y0196657D01*
X0080033Y0195059D02*
X0125902Y0195059D01*
X0125902Y0196057D02*
X0125902Y0193457D01*
X0126025Y0193000D01*
X0126262Y0192589D01*
X0126597Y0192254D01*
X0127007Y0192017D01*
X0127465Y0191894D01*
X0128606Y0191894D01*
X0128094Y0191382D01*
X0127081Y0190369D01*
X0126533Y0189046D01*
X0126533Y0180080D01*
X0123287Y0180080D01*
X0122184Y0179623D01*
X0120934Y0178373D01*
X0120090Y0177530D01*
X0119633Y0176427D01*
X0119633Y0167733D01*
X0120090Y0166631D01*
X0121340Y0165381D01*
X0122184Y0164537D01*
X0123287Y0164080D01*
X0143230Y0164080D01*
X0144333Y0164537D01*
X0145583Y0165787D01*
X0146427Y0166631D01*
X0146883Y0167733D01*
X0146883Y0176427D01*
X0146427Y0177530D01*
X0145177Y0178780D01*
X0144333Y0179623D01*
X0143230Y0180080D01*
X0143132Y0180080D01*
X0143331Y0180559D01*
X0143331Y0188601D01*
X0142965Y0189483D01*
X0142562Y0189886D01*
X0142562Y0191294D01*
X0144578Y0191294D01*
X0145283Y0190589D01*
X0145283Y0189965D01*
X0144801Y0189483D01*
X0144436Y0188601D01*
X0144436Y0180559D01*
X0144801Y0179677D01*
X0145477Y0179002D01*
X0146359Y0178637D01*
X0151250Y0178637D01*
X0152133Y0179002D01*
X0152808Y0179677D01*
X0153173Y0180559D01*
X0153173Y0188601D01*
X0152808Y0189483D01*
X0152483Y0189807D01*
X0152483Y0192796D01*
X0151935Y0194119D01*
X0150923Y0195132D01*
X0147464Y0198590D01*
X0147464Y0198896D01*
X0147099Y0199778D01*
X0146424Y0200453D01*
X0145542Y0200819D01*
X0142225Y0200819D01*
X0141383Y0200470D01*
X0140542Y0200819D01*
X0137225Y0200819D01*
X0136383Y0200470D01*
X0135542Y0200819D01*
X0132225Y0200819D01*
X0131343Y0200453D01*
X0130903Y0200013D01*
X0130759Y0200096D01*
X0130301Y0200219D01*
X0128883Y0200219D01*
X0128883Y0196057D01*
X0128883Y0196057D01*
X0128883Y0196057D01*
X0125902Y0196057D01*
X0125902Y0193460D02*
X0080033Y0193460D01*
X0080033Y0191862D02*
X0128574Y0191862D01*
X0127037Y0190263D02*
X0080033Y0190263D01*
X0080033Y0188665D02*
X0126533Y0188665D01*
X0126533Y0187066D02*
X0080033Y0187066D01*
X0080033Y0185468D02*
X0126533Y0185468D01*
X0126533Y0183869D02*
X0080033Y0183869D01*
X0080033Y0182271D02*
X0126533Y0182271D01*
X0126533Y0180672D02*
X0080033Y0180672D01*
X0080033Y0179074D02*
X0121634Y0179074D01*
X0120068Y0177475D02*
X0080033Y0177475D01*
X0080033Y0175877D02*
X0119633Y0175877D01*
X0119633Y0174278D02*
X0080033Y0174278D01*
X0080033Y0172680D02*
X0119633Y0172680D01*
X0119633Y0171081D02*
X0080033Y0171081D01*
X0080033Y0169483D02*
X0119633Y0169483D01*
X0119633Y0167884D02*
X0080033Y0167884D01*
X0080033Y0166286D02*
X0120435Y0166286D01*
X0122034Y0164687D02*
X0080033Y0164687D01*
X0080033Y0163089D02*
X0148550Y0163089D01*
X0146952Y0161490D02*
X0080033Y0161490D01*
X0080033Y0159891D02*
X0145633Y0159891D01*
X0145283Y0158293D02*
X0080033Y0158293D01*
X0080033Y0156694D02*
X0145283Y0156694D01*
X0145283Y0155096D02*
X0080033Y0155096D01*
X0080033Y0153497D02*
X0145283Y0153497D01*
X0145283Y0151899D02*
X0080033Y0151899D01*
X0080033Y0150300D02*
X0095255Y0150300D01*
X0095627Y0150455D02*
X0092502Y0149160D01*
X0090110Y0146768D01*
X0088816Y0143643D01*
X0088816Y0140261D01*
X0090110Y0137136D01*
X0092502Y0134744D01*
X0095627Y0133450D01*
X0099010Y0133450D01*
X0102135Y0134744D01*
X0104526Y0137136D01*
X0105821Y0140261D01*
X0105821Y0143643D01*
X0104526Y0146768D01*
X0102135Y0149160D01*
X0099010Y0150455D01*
X0095627Y0150455D01*
X0099382Y0150300D02*
X0145283Y0150300D01*
X0145283Y0148702D02*
X0102593Y0148702D01*
X0104191Y0147103D02*
X0145283Y0147103D01*
X0145283Y0145505D02*
X0105050Y0145505D01*
X0105712Y0143906D02*
X0145283Y0143906D01*
X0145283Y0142308D02*
X0105821Y0142308D01*
X0105821Y0140709D02*
X0145283Y0140709D01*
X0145283Y0139111D02*
X0105344Y0139111D01*
X0104682Y0137512D02*
X0144970Y0137512D01*
X0144230Y0135914D02*
X0103304Y0135914D01*
X0101099Y0134315D02*
X0144015Y0134315D01*
X0144015Y0132717D02*
X0080033Y0132717D01*
X0080033Y0134315D02*
X0093538Y0134315D01*
X0091333Y0135914D02*
X0080033Y0135914D01*
X0080033Y0137512D02*
X0089955Y0137512D01*
X0089292Y0139111D02*
X0080033Y0139111D01*
X0080033Y0140709D02*
X0088816Y0140709D01*
X0088816Y0142308D02*
X0080033Y0142308D01*
X0080033Y0143906D02*
X0088925Y0143906D01*
X0089587Y0145505D02*
X0080033Y0145505D01*
X0080033Y0147103D02*
X0090445Y0147103D01*
X0092044Y0148702D02*
X0080033Y0148702D01*
X0080033Y0131118D02*
X0144015Y0131118D01*
X0144015Y0129520D02*
X0080033Y0129520D01*
X0080033Y0127921D02*
X0144015Y0127921D01*
X0144397Y0126323D02*
X0080033Y0126323D01*
X0080033Y0124724D02*
X0145374Y0124724D01*
X0147845Y0123126D02*
X0080033Y0123126D01*
X0144483Y0164687D02*
X0150149Y0164687D01*
X0151748Y0166286D02*
X0146081Y0166286D01*
X0146883Y0167884D02*
X0153346Y0167884D01*
X0154945Y0169483D02*
X0146883Y0169483D01*
X0146883Y0171081D02*
X0156543Y0171081D01*
X0158142Y0172680D02*
X0146883Y0172680D01*
X0146883Y0174278D02*
X0159033Y0174278D01*
X0159033Y0175877D02*
X0146883Y0175877D01*
X0146449Y0177475D02*
X0159033Y0177475D01*
X0159033Y0179074D02*
X0152204Y0179074D01*
X0153173Y0180672D02*
X0159033Y0180672D01*
X0159033Y0182271D02*
X0153173Y0182271D01*
X0153173Y0183869D02*
X0159033Y0183869D01*
X0159033Y0185468D02*
X0153173Y0185468D01*
X0153173Y0187066D02*
X0159033Y0187066D01*
X0159033Y0188665D02*
X0153147Y0188665D01*
X0152483Y0190263D02*
X0159033Y0190263D01*
X0159033Y0191862D02*
X0152483Y0191862D01*
X0152208Y0193460D02*
X0159033Y0193460D01*
X0159033Y0195059D02*
X0150996Y0195059D01*
X0149397Y0196657D02*
X0159033Y0196657D01*
X0159033Y0198256D02*
X0147799Y0198256D01*
X0147023Y0199854D02*
X0151200Y0199854D01*
X0149957Y0201453D02*
X0080033Y0201453D01*
X0080033Y0203051D02*
X0149957Y0203051D01*
X0149957Y0204650D02*
X0080033Y0204650D01*
X0080033Y0206248D02*
X0150040Y0206248D01*
X0149413Y0207847D02*
X0080033Y0207847D01*
X0080033Y0209445D02*
X0149357Y0209445D01*
X0149357Y0211044D02*
X0080033Y0211044D01*
X0080033Y0212642D02*
X0149357Y0212642D01*
X0154117Y0203402D02*
X0157809Y0203402D01*
X0157809Y0201331D01*
X0157687Y0200874D01*
X0157450Y0200463D01*
X0157115Y0200128D01*
X0156704Y0199891D01*
X0156246Y0199768D01*
X0154117Y0199768D01*
X0154117Y0203402D01*
X0154117Y0203051D02*
X0153650Y0203051D01*
X0153650Y0201453D02*
X0154117Y0201453D01*
X0154117Y0199854D02*
X0153650Y0199854D01*
X0156567Y0199854D02*
X0159033Y0199854D01*
X0159033Y0201453D02*
X0157809Y0201453D01*
X0157809Y0203051D02*
X0159033Y0203051D01*
X0159033Y0204650D02*
X0157809Y0204650D01*
X0157726Y0206248D02*
X0159033Y0206248D01*
X0145283Y0190263D02*
X0142562Y0190263D01*
X0143304Y0188665D02*
X0144463Y0188665D01*
X0144436Y0187066D02*
X0143331Y0187066D01*
X0143331Y0185468D02*
X0144436Y0185468D01*
X0144436Y0183869D02*
X0143331Y0183869D01*
X0143331Y0182271D02*
X0144436Y0182271D01*
X0144436Y0180672D02*
X0143331Y0180672D01*
X0144883Y0179074D02*
X0145405Y0179074D01*
X0128883Y0196657D02*
X0128883Y0196657D01*
X0128883Y0198256D02*
X0128883Y0198256D01*
X0128883Y0199854D02*
X0128883Y0199854D01*
X0157111Y0254204D02*
X0157233Y0254204D01*
X0157233Y0255802D02*
X0155494Y0255802D01*
X0165425Y0274984D02*
X0167461Y0274984D01*
X0189593Y0298962D02*
X0191983Y0298962D01*
X0191983Y0300560D02*
X0187994Y0300560D01*
X0186396Y0302159D02*
X0191983Y0302159D01*
X0191983Y0303758D02*
X0184797Y0303758D01*
X0187816Y0305356D02*
X0191983Y0305356D01*
X0191983Y0306955D02*
X0188893Y0306955D01*
X0189133Y0308553D02*
X0191983Y0308553D01*
X0191983Y0310152D02*
X0188708Y0310152D01*
X0187330Y0311750D02*
X0191983Y0311750D01*
X0191983Y0313349D02*
X0146716Y0313349D01*
X0145533Y0314947D02*
X0191983Y0314947D01*
X0191983Y0316546D02*
X0145533Y0316546D01*
X0145533Y0318144D02*
X0191983Y0318144D01*
X0191983Y0319743D02*
X0145533Y0319743D01*
X0145533Y0321341D02*
X0191983Y0321341D01*
X0191983Y0322940D02*
X0145533Y0322940D01*
X0145533Y0324538D02*
X0191983Y0324538D01*
X0191983Y0326137D02*
X0145533Y0326137D01*
X0145533Y0327735D02*
X0156627Y0327735D01*
X0156425Y0327937D02*
X0157241Y0327122D01*
X0158306Y0326680D01*
X0175710Y0326680D01*
X0176776Y0327122D01*
X0177592Y0327937D01*
X0178033Y0329003D01*
X0178033Y0336407D01*
X0177911Y0336701D01*
X0199899Y0358689D01*
X0201024Y0359814D01*
X0201633Y0361285D01*
X0201633Y0382876D01*
X0201024Y0384346D01*
X0196024Y0389346D01*
X0194899Y0390471D01*
X0193429Y0391080D01*
X0183985Y0391080D01*
X0183026Y0392039D01*
X0181960Y0392480D01*
X0165806Y0392480D01*
X0164741Y0392039D01*
X0163925Y0391223D01*
X0162675Y0389973D01*
X0162233Y0388907D01*
X0162233Y0381503D01*
X0162675Y0380437D01*
X0163491Y0379622D01*
X0165991Y0377122D01*
X0167056Y0376680D01*
X0180710Y0376680D01*
X0181776Y0377122D01*
X0182592Y0377937D01*
X0182592Y0377937D01*
X0184276Y0379622D01*
X0185092Y0380437D01*
X0185533Y0381503D01*
X0185533Y0383080D01*
X0190976Y0383080D01*
X0193633Y0380423D01*
X0193633Y0363737D01*
X0173476Y0343580D01*
X0171485Y0343580D01*
X0170092Y0344973D01*
X0169276Y0345789D01*
X0168210Y0346230D01*
X0158306Y0346230D01*
X0157241Y0345789D01*
X0156425Y0344973D01*
X0154741Y0343289D01*
X0153925Y0342473D01*
X0153483Y0341407D01*
X0153483Y0331503D01*
X0153925Y0330437D01*
X0156425Y0327937D01*
X0155029Y0329334D02*
X0145533Y0329334D01*
X0145533Y0330932D02*
X0153720Y0330932D01*
X0153483Y0332531D02*
X0145533Y0332531D01*
X0145533Y0334129D02*
X0153483Y0334129D01*
X0153483Y0335728D02*
X0145297Y0335728D01*
X0143988Y0337326D02*
X0153483Y0337326D01*
X0153483Y0338925D02*
X0142390Y0338925D01*
X0137041Y0340523D02*
X0153483Y0340523D01*
X0153779Y0342122D02*
X0135443Y0342122D01*
X0133844Y0343720D02*
X0155172Y0343720D01*
X0156425Y0344973D02*
X0156425Y0344973D01*
X0156771Y0345319D02*
X0132246Y0345319D01*
X0130647Y0346917D02*
X0176814Y0346917D01*
X0176383Y0348330D02*
X0170133Y0348330D01*
X0169338Y0349330D02*
X0170929Y0349330D01*
X0172399Y0349939D01*
X0173524Y0351064D01*
X0174133Y0352535D01*
X0174133Y0354126D01*
X0173524Y0355596D01*
X0172399Y0356721D01*
X0170929Y0357330D01*
X0170235Y0357330D01*
X0136783Y0390781D01*
X0136783Y0398073D01*
X0137274Y0398564D01*
X0137883Y0400035D01*
X0137883Y0401626D01*
X0137274Y0403096D01*
X0136149Y0404221D01*
X0134679Y0404830D01*
X0133088Y0404830D01*
X0131618Y0404221D01*
X0130492Y0403096D01*
X0129883Y0401626D01*
X0129883Y0400035D01*
X0130492Y0398564D01*
X0130983Y0398073D01*
X0130983Y0389003D01*
X0131425Y0387937D01*
X0132241Y0387122D01*
X0166133Y0353229D01*
X0166133Y0352535D01*
X0166742Y0351064D01*
X0167868Y0349939D01*
X0169338Y0349330D01*
X0167692Y0350114D02*
X0127450Y0350114D01*
X0125852Y0351713D02*
X0166474Y0351713D01*
X0166051Y0353311D02*
X0124253Y0353311D01*
X0122655Y0354910D02*
X0164452Y0354910D01*
X0162854Y0356508D02*
X0121056Y0356508D01*
X0119458Y0358107D02*
X0161255Y0358107D01*
X0159657Y0359705D02*
X0117885Y0359705D01*
X0111750Y0361304D02*
X0158058Y0361304D01*
X0156460Y0362902D02*
X0080033Y0362902D01*
X0080033Y0361304D02*
X0098516Y0361304D01*
X0097418Y0359705D02*
X0080033Y0359705D01*
X0080033Y0358107D02*
X0097418Y0358107D01*
X0097418Y0356508D02*
X0080033Y0356508D01*
X0080033Y0354910D02*
X0097418Y0354910D01*
X0098028Y0353311D02*
X0080033Y0353311D01*
X0080033Y0351713D02*
X0098187Y0351713D01*
X0097400Y0350114D02*
X0080033Y0350114D01*
X0080033Y0348516D02*
X0097222Y0348516D01*
X0096813Y0346917D02*
X0080033Y0346917D01*
X0080033Y0345319D02*
X0096533Y0345319D01*
X0105058Y0361304D02*
X0105209Y0361304D01*
X0080033Y0364501D02*
X0154861Y0364501D01*
X0153263Y0366099D02*
X0080033Y0366099D01*
X0080033Y0367698D02*
X0151664Y0367698D01*
X0150066Y0369296D02*
X0080033Y0369296D01*
X0080033Y0370895D02*
X0148467Y0370895D01*
X0146869Y0372494D02*
X0080033Y0372494D01*
X0080033Y0374092D02*
X0145270Y0374092D01*
X0143672Y0375691D02*
X0080033Y0375691D01*
X0080033Y0377289D02*
X0142073Y0377289D01*
X0140475Y0378888D02*
X0080033Y0378888D01*
X0080033Y0380486D02*
X0138876Y0380486D01*
X0137278Y0382085D02*
X0080033Y0382085D01*
X0080033Y0383683D02*
X0135679Y0383683D01*
X0134081Y0385282D02*
X0080033Y0385282D01*
X0080033Y0386880D02*
X0132482Y0386880D01*
X0131201Y0388479D02*
X0080033Y0388479D01*
X0080033Y0390077D02*
X0130983Y0390077D01*
X0130983Y0391676D02*
X0080033Y0391676D01*
X0080033Y0393274D02*
X0130983Y0393274D01*
X0130983Y0394873D02*
X0080033Y0394873D01*
X0080033Y0396471D02*
X0130983Y0396471D01*
X0130983Y0398070D02*
X0080033Y0398070D01*
X0080033Y0399668D02*
X0130035Y0399668D01*
X0129883Y0401267D02*
X0080033Y0401267D01*
X0080033Y0402865D02*
X0130397Y0402865D01*
X0132203Y0404464D02*
X0080033Y0404464D01*
X0080033Y0406062D02*
X0137050Y0406062D01*
X0135564Y0404464D02*
X0214566Y0404464D01*
X0214566Y0406062D02*
X0151967Y0406062D01*
X0153565Y0407661D02*
X0214566Y0407661D01*
X0215287Y0409259D02*
X0155164Y0409259D01*
X0156516Y0410858D02*
X0216885Y0410858D01*
X0218484Y0412456D02*
X0156783Y0412456D01*
X0156783Y0414055D02*
X0220082Y0414055D01*
X0221681Y0415653D02*
X0156783Y0415653D01*
X0156783Y0417252D02*
X0223279Y0417252D01*
X0225133Y0414580D02*
X0217766Y0407213D01*
X0217766Y0386489D01*
X0212366Y0386880D02*
X0198490Y0386880D01*
X0196892Y0388479D02*
X0212366Y0388479D01*
X0212366Y0390077D02*
X0195293Y0390077D01*
X0200089Y0385282D02*
X0212366Y0385282D01*
X0212366Y0383683D02*
X0201299Y0383683D01*
X0201633Y0382085D02*
X0212503Y0382085D01*
X0213165Y0380486D02*
X0201633Y0380486D01*
X0201633Y0378888D02*
X0214764Y0378888D01*
X0220768Y0378888D02*
X0223233Y0378888D01*
X0223233Y0377289D02*
X0201633Y0377289D01*
X0201633Y0375691D02*
X0223233Y0375691D01*
X0223233Y0374092D02*
X0201633Y0374092D01*
X0201633Y0372494D02*
X0223233Y0372494D01*
X0222564Y0370895D02*
X0201633Y0370895D01*
X0201633Y0369296D02*
X0220826Y0369296D01*
X0219089Y0367698D02*
X0201633Y0367698D01*
X0201633Y0366099D02*
X0217351Y0366099D01*
X0215614Y0364501D02*
X0201633Y0364501D01*
X0201633Y0362902D02*
X0213876Y0362902D01*
X0212139Y0361304D02*
X0201633Y0361304D01*
X0200915Y0359705D02*
X0210401Y0359705D01*
X0208664Y0358107D02*
X0199317Y0358107D01*
X0197718Y0356508D02*
X0206926Y0356508D01*
X0205189Y0354910D02*
X0196120Y0354910D01*
X0194521Y0353311D02*
X0203451Y0353311D01*
X0201714Y0351713D02*
X0192923Y0351713D01*
X0191324Y0350114D02*
X0199976Y0350114D01*
X0198239Y0348516D02*
X0189726Y0348516D01*
X0188127Y0346917D02*
X0196501Y0346917D01*
X0194764Y0345319D02*
X0186529Y0345319D01*
X0184930Y0343720D02*
X0193026Y0343720D01*
X0192132Y0342122D02*
X0183332Y0342122D01*
X0181733Y0340523D02*
X0191967Y0340523D01*
X0191983Y0338925D02*
X0180135Y0338925D01*
X0178536Y0337326D02*
X0191983Y0337326D01*
X0191983Y0335728D02*
X0178033Y0335728D01*
X0178033Y0334129D02*
X0191983Y0334129D01*
X0191983Y0332531D02*
X0178033Y0332531D01*
X0178033Y0330932D02*
X0191983Y0330932D01*
X0191983Y0329334D02*
X0178033Y0329334D01*
X0177390Y0327735D02*
X0191983Y0327735D01*
X0200783Y0327735D02*
X0218068Y0327735D01*
X0218068Y0327873D02*
X0218068Y0322981D01*
X0218433Y0322099D01*
X0218452Y0322080D01*
X0218433Y0322062D01*
X0218068Y0321180D01*
X0218068Y0316288D01*
X0218433Y0315406D01*
X0219108Y0314731D01*
X0219288Y0314656D01*
X0219288Y0313998D01*
X0218760Y0313998D01*
X0217878Y0313633D01*
X0217203Y0312957D01*
X0216838Y0312075D01*
X0216838Y0307184D01*
X0217191Y0306330D01*
X0206540Y0306330D01*
X0206149Y0306721D01*
X0204679Y0307330D01*
X0203088Y0307330D01*
X0201618Y0306721D01*
X0200783Y0305887D01*
X0200783Y0338899D01*
X0230038Y0365814D01*
X0230126Y0365850D01*
X0230680Y0366404D01*
X0231256Y0366935D01*
X0231296Y0367021D01*
X0231363Y0367088D01*
X0231663Y0367812D01*
X0231993Y0368523D01*
X0231997Y0368617D01*
X0232033Y0368705D01*
X0232033Y0369489D01*
X0232066Y0370271D01*
X0232033Y0370361D01*
X0232033Y0380119D01*
X0232344Y0380430D01*
X0233111Y0382282D01*
X0233318Y0381646D01*
X0233661Y0380973D01*
X0234105Y0380362D01*
X0234639Y0379828D01*
X0235250Y0379383D01*
X0235923Y0379040D01*
X0236642Y0378807D01*
X0237388Y0378689D01*
X0237566Y0378689D01*
X0237566Y0386289D01*
X0237966Y0386289D01*
X0237966Y0378689D01*
X0238144Y0378689D01*
X0238890Y0378807D01*
X0239609Y0379040D01*
X0240282Y0379383D01*
X0240893Y0379828D01*
X0241427Y0380362D01*
X0241871Y0380973D01*
X0242214Y0381646D01*
X0242421Y0382282D01*
X0243188Y0380430D01*
X0244707Y0378911D01*
X0246692Y0378089D01*
X0248840Y0378089D01*
X0250825Y0378911D01*
X0252344Y0380430D01*
X0253166Y0382415D01*
X0253166Y0390563D01*
X0252344Y0392548D01*
X0250825Y0394067D01*
X0248840Y0394889D01*
X0246692Y0394889D01*
X0244707Y0394067D01*
X0243188Y0392548D01*
X0242421Y0390695D01*
X0242214Y0391331D01*
X0241871Y0392005D01*
X0241427Y0392616D01*
X0240893Y0393150D01*
X0240282Y0393594D01*
X0239609Y0393937D01*
X0238890Y0394171D01*
X0238144Y0394289D01*
X0237966Y0394289D01*
X0237966Y0386689D01*
X0237566Y0386689D01*
X0237566Y0394289D01*
X0237388Y0394289D01*
X0236642Y0394171D01*
X0235923Y0393937D01*
X0235250Y0393594D01*
X0234639Y0393150D01*
X0234105Y0392616D01*
X0233661Y0392005D01*
X0233588Y0391863D01*
X0233588Y0395704D01*
X0233774Y0395654D01*
X0235845Y0395654D01*
X0235845Y0399347D01*
X0236312Y0399347D01*
X0236312Y0399814D01*
X0235845Y0399814D01*
X0235845Y0403506D01*
X0233774Y0403506D01*
X0233316Y0403384D01*
X0233098Y0403257D01*
X0232615Y0403741D01*
X0231733Y0404106D01*
X0226644Y0404106D01*
X0225762Y0403741D01*
X0225087Y0403066D01*
X0224722Y0402184D01*
X0224722Y0396977D01*
X0224788Y0396815D01*
X0224788Y0394100D01*
X0224707Y0394067D01*
X0223188Y0392548D01*
X0222766Y0391529D01*
X0222344Y0392548D01*
X0220966Y0393926D01*
X0220966Y0405887D01*
X0226459Y0411380D01*
X0228709Y0411380D01*
X0229108Y0410981D01*
X0229991Y0410615D01*
X0235276Y0410615D01*
X0236158Y0410981D01*
X0236833Y0411656D01*
X0237199Y0412538D01*
X0237199Y0417430D01*
X0236833Y0418312D01*
X0236815Y0418330D01*
X0236833Y0418349D01*
X0237199Y0419231D01*
X0237199Y0421717D01*
X0249577Y0434094D01*
X0250477Y0434995D01*
X0250964Y0436171D01*
X0250964Y0449788D01*
X0252342Y0451165D01*
X0253164Y0453150D01*
X0253164Y0461298D01*
X0252342Y0463283D01*
X0250823Y0464802D01*
X0248838Y0465624D01*
X0246690Y0465624D01*
X0244705Y0464802D01*
X0243186Y0463283D01*
X0242419Y0461431D01*
X0242212Y0462067D01*
X0241869Y0462740D01*
X0241425Y0463351D01*
X0240891Y0463886D01*
X0240280Y0464330D01*
X0239606Y0464673D01*
X0239269Y0464782D01*
X0239585Y0465099D01*
X0239822Y0465509D01*
X0239945Y0465967D01*
X0239945Y0468097D01*
X0236312Y0468097D01*
X0236312Y0468564D01*
X0239945Y0468564D01*
X0239945Y0470693D01*
X0239822Y0471151D01*
X0239690Y0471380D01*
X0250058Y0471380D01*
X0254433Y0467005D01*
X0254433Y0353406D01*
X0250058Y0349030D01*
X0236997Y0349030D01*
X0235821Y0348543D01*
X0234920Y0347643D01*
X0219920Y0332643D01*
X0219433Y0331467D01*
X0219433Y0329564D01*
X0219108Y0329430D01*
X0218433Y0328755D01*
X0218068Y0327873D01*
X0218068Y0326137D02*
X0200783Y0326137D01*
X0200783Y0324538D02*
X0218068Y0324538D01*
X0218085Y0322940D02*
X0200783Y0322940D01*
X0200783Y0321341D02*
X0218135Y0321341D01*
X0218068Y0319743D02*
X0200783Y0319743D01*
X0200783Y0318144D02*
X0218068Y0318144D01*
X0218068Y0316546D02*
X0200783Y0316546D01*
X0200783Y0314947D02*
X0218892Y0314947D01*
X0217594Y0313349D02*
X0200783Y0313349D01*
X0200783Y0311750D02*
X0216838Y0311750D01*
X0216838Y0310152D02*
X0200783Y0310152D01*
X0200783Y0308553D02*
X0216838Y0308553D01*
X0216933Y0306955D02*
X0205586Y0306955D01*
X0202181Y0306955D02*
X0200783Y0306955D01*
X0191983Y0297363D02*
X0191191Y0297363D01*
X0182937Y0311750D02*
X0148315Y0311750D01*
X0171344Y0343720D02*
X0173617Y0343720D01*
X0175215Y0345319D02*
X0169746Y0345319D01*
X0172574Y0350114D02*
X0180011Y0350114D01*
X0181609Y0351713D02*
X0173793Y0351713D01*
X0174133Y0353311D02*
X0183208Y0353311D01*
X0184806Y0354910D02*
X0173809Y0354910D01*
X0172612Y0356508D02*
X0186405Y0356508D01*
X0188003Y0358107D02*
X0169458Y0358107D01*
X0167859Y0359705D02*
X0189602Y0359705D01*
X0191200Y0361304D02*
X0166261Y0361304D01*
X0164662Y0362902D02*
X0192799Y0362902D01*
X0193633Y0364501D02*
X0163064Y0364501D01*
X0161465Y0366099D02*
X0193633Y0366099D01*
X0193633Y0367698D02*
X0159867Y0367698D01*
X0158268Y0369296D02*
X0193633Y0369296D01*
X0193633Y0370895D02*
X0156670Y0370895D01*
X0155071Y0372494D02*
X0193633Y0372494D01*
X0193633Y0374092D02*
X0153473Y0374092D01*
X0151874Y0375691D02*
X0193633Y0375691D01*
X0193633Y0377289D02*
X0181943Y0377289D01*
X0183542Y0378888D02*
X0193633Y0378888D01*
X0193571Y0380486D02*
X0185112Y0380486D01*
X0184276Y0379622D02*
X0184276Y0379622D01*
X0185533Y0382085D02*
X0191972Y0382085D01*
X0183389Y0391676D02*
X0212827Y0391676D01*
X0213915Y0393274D02*
X0136783Y0393274D01*
X0136783Y0391676D02*
X0164378Y0391676D01*
X0162779Y0390077D02*
X0137488Y0390077D01*
X0139086Y0388479D02*
X0162233Y0388479D01*
X0162233Y0386880D02*
X0140685Y0386880D01*
X0142283Y0385282D02*
X0162233Y0385282D01*
X0162233Y0383683D02*
X0143882Y0383683D01*
X0145480Y0382085D02*
X0162233Y0382085D01*
X0162655Y0380486D02*
X0147079Y0380486D01*
X0148677Y0378888D02*
X0164225Y0378888D01*
X0163491Y0379622D02*
X0163491Y0379622D01*
X0165823Y0377289D02*
X0150276Y0377289D01*
X0136783Y0394873D02*
X0214566Y0394873D01*
X0214566Y0396471D02*
X0136783Y0396471D01*
X0136783Y0398070D02*
X0214566Y0398070D01*
X0214566Y0399668D02*
X0137732Y0399668D01*
X0137883Y0401267D02*
X0214566Y0401267D01*
X0214566Y0402865D02*
X0137370Y0402865D01*
X0135452Y0407661D02*
X0080033Y0407661D01*
X0080033Y0409259D02*
X0133853Y0409259D01*
X0132501Y0410858D02*
X0080033Y0410858D01*
X0080033Y0412456D02*
X0132233Y0412456D01*
X0132233Y0414055D02*
X0080033Y0414055D01*
X0080033Y0415653D02*
X0132233Y0415653D01*
X0132233Y0417252D02*
X0080033Y0417252D01*
X0080033Y0418850D02*
X0132233Y0418850D01*
X0132233Y0420449D02*
X0080033Y0420449D01*
X0080033Y0422047D02*
X0132233Y0422047D01*
X0132233Y0423646D02*
X0080033Y0423646D01*
X0080033Y0425244D02*
X0132233Y0425244D01*
X0132233Y0426843D02*
X0080033Y0426843D01*
X0080033Y0428441D02*
X0132233Y0428441D01*
X0132233Y0430040D02*
X0080033Y0430040D01*
X0080033Y0431638D02*
X0133090Y0431638D01*
X0134689Y0433237D02*
X0080033Y0433237D01*
X0080033Y0434835D02*
X0141133Y0434835D01*
X0141133Y0436434D02*
X0080033Y0436434D01*
X0080033Y0438032D02*
X0141133Y0438032D01*
X0141133Y0439631D02*
X0080033Y0439631D01*
X0080033Y0441229D02*
X0141133Y0441229D01*
X0141133Y0442828D02*
X0080033Y0442828D01*
X0080033Y0444427D02*
X0141133Y0444427D01*
X0141133Y0446025D02*
X0080033Y0446025D01*
X0080033Y0447624D02*
X0141133Y0447624D01*
X0141133Y0449222D02*
X0080033Y0449222D01*
X0080033Y0450821D02*
X0141133Y0450821D01*
X0141133Y0452419D02*
X0080033Y0452419D01*
X0080033Y0454018D02*
X0141606Y0454018D01*
X0143012Y0455616D02*
X0080033Y0455616D01*
X0080033Y0457215D02*
X0093382Y0457215D01*
X0092502Y0457579D02*
X0095627Y0456285D01*
X0099010Y0456285D01*
X0102135Y0457579D01*
X0104526Y0459971D01*
X0105821Y0463096D01*
X0105821Y0466478D01*
X0104526Y0469603D01*
X0102135Y0471995D01*
X0099010Y0473289D01*
X0095627Y0473289D01*
X0092502Y0471995D01*
X0090110Y0469603D01*
X0088816Y0466478D01*
X0088816Y0463096D01*
X0090110Y0459971D01*
X0092502Y0457579D01*
X0091268Y0458813D02*
X0080033Y0458813D01*
X0080033Y0460412D02*
X0089928Y0460412D01*
X0089266Y0462010D02*
X0080033Y0462010D01*
X0080033Y0463609D02*
X0088816Y0463609D01*
X0088816Y0465207D02*
X0080033Y0465207D01*
X0080033Y0466806D02*
X0088952Y0466806D01*
X0089614Y0468404D02*
X0080033Y0468404D01*
X0080033Y0470003D02*
X0090510Y0470003D01*
X0092109Y0471601D02*
X0080033Y0471601D01*
X0080033Y0473200D02*
X0095411Y0473200D01*
X0099226Y0473200D02*
X0160596Y0473200D01*
X0162195Y0474798D02*
X0080033Y0474798D01*
X0080033Y0476397D02*
X0163793Y0476397D01*
X0165392Y0477995D02*
X0080033Y0477995D01*
X0080033Y0479594D02*
X0166990Y0479594D01*
X0168589Y0481192D02*
X0080033Y0481192D01*
X0080033Y0482791D02*
X0170187Y0482791D01*
X0172023Y0484389D02*
X0080033Y0484389D01*
X0080033Y0485988D02*
X0386257Y0485988D01*
X0386257Y0484389D02*
X0335743Y0484389D01*
X0337580Y0482791D02*
X0386257Y0482791D01*
X0386257Y0481192D02*
X0339178Y0481192D01*
X0340777Y0479594D02*
X0386257Y0479594D01*
X0386257Y0477995D02*
X0342375Y0477995D01*
X0343974Y0476397D02*
X0386257Y0476397D01*
X0386257Y0474798D02*
X0345572Y0474798D01*
X0347171Y0473200D02*
X0367065Y0473200D01*
X0367281Y0473289D02*
X0364156Y0471995D01*
X0361764Y0469603D01*
X0360470Y0466478D01*
X0360470Y0463096D01*
X0361764Y0459971D01*
X0364156Y0457579D01*
X0367281Y0456285D01*
X0370663Y0456285D01*
X0373788Y0457579D01*
X0376180Y0459971D01*
X0377474Y0463096D01*
X0377474Y0466478D01*
X0376180Y0469603D01*
X0373788Y0471995D01*
X0370663Y0473289D01*
X0367281Y0473289D01*
X0370879Y0473200D02*
X0386257Y0473200D01*
X0386257Y0471601D02*
X0374182Y0471601D01*
X0375780Y0470003D02*
X0386257Y0470003D01*
X0386257Y0468404D02*
X0376676Y0468404D01*
X0377339Y0466806D02*
X0386257Y0466806D01*
X0386257Y0465207D02*
X0377474Y0465207D01*
X0377474Y0463609D02*
X0386257Y0463609D01*
X0386257Y0462010D02*
X0377025Y0462010D01*
X0376362Y0460412D02*
X0386257Y0460412D01*
X0386257Y0458813D02*
X0375022Y0458813D01*
X0372909Y0457215D02*
X0386257Y0457215D01*
X0386257Y0455616D02*
X0362883Y0455616D01*
X0362883Y0454018D02*
X0386257Y0454018D01*
X0386257Y0452419D02*
X0362883Y0452419D01*
X0362883Y0450821D02*
X0386257Y0450821D01*
X0386257Y0449222D02*
X0368343Y0449222D01*
X0369941Y0447624D02*
X0386257Y0447624D01*
X0386257Y0446025D02*
X0370533Y0446025D01*
X0370533Y0444427D02*
X0386257Y0444427D01*
X0386257Y0442828D02*
X0370533Y0442828D01*
X0370533Y0441229D02*
X0386257Y0441229D01*
X0386257Y0439631D02*
X0370533Y0439631D01*
X0370533Y0438032D02*
X0386257Y0438032D01*
X0386257Y0436434D02*
X0370505Y0436434D01*
X0369490Y0434835D02*
X0386257Y0434835D01*
X0386257Y0433237D02*
X0367701Y0433237D01*
X0354883Y0450821D02*
X0260833Y0450821D01*
X0260833Y0452419D02*
X0354883Y0452419D01*
X0354883Y0454018D02*
X0260833Y0454018D01*
X0260833Y0455616D02*
X0353441Y0455616D01*
X0351842Y0457215D02*
X0260833Y0457215D01*
X0260833Y0458813D02*
X0350244Y0458813D01*
X0348645Y0460412D02*
X0260833Y0460412D01*
X0260833Y0462010D02*
X0347047Y0462010D01*
X0345448Y0463609D02*
X0260833Y0463609D01*
X0260833Y0465207D02*
X0343850Y0465207D01*
X0342251Y0466806D02*
X0260833Y0466806D01*
X0260833Y0468404D02*
X0340652Y0468404D01*
X0339054Y0470003D02*
X0260404Y0470003D01*
X0258888Y0471601D02*
X0337455Y0471601D01*
X0335857Y0473200D02*
X0257289Y0473200D01*
X0255691Y0474798D02*
X0334258Y0474798D01*
X0332660Y0476397D02*
X0254092Y0476397D01*
X0251383Y0474580D02*
X0257633Y0468330D01*
X0257633Y0352080D01*
X0251383Y0345830D01*
X0237633Y0345830D01*
X0222633Y0330830D01*
X0222633Y0325427D01*
X0227199Y0326137D02*
X0233695Y0326137D01*
X0233633Y0327735D02*
X0227199Y0327735D01*
X0226254Y0329334D02*
X0234237Y0329334D01*
X0236480Y0330932D02*
X0227261Y0330932D01*
X0228859Y0332531D02*
X0248841Y0332531D01*
X0250440Y0334129D02*
X0230458Y0334129D01*
X0232056Y0335728D02*
X0252038Y0335728D01*
X0253637Y0337326D02*
X0233655Y0337326D01*
X0235253Y0338925D02*
X0255235Y0338925D01*
X0256834Y0340523D02*
X0236852Y0340523D01*
X0238450Y0342122D02*
X0258432Y0342122D01*
X0260031Y0343720D02*
X0253799Y0343720D01*
X0255397Y0345319D02*
X0261629Y0345319D01*
X0263228Y0346917D02*
X0256996Y0346917D01*
X0258594Y0348516D02*
X0264826Y0348516D01*
X0266425Y0350114D02*
X0260193Y0350114D01*
X0260833Y0351713D02*
X0268023Y0351713D01*
X0269622Y0353311D02*
X0260833Y0353311D01*
X0260833Y0354910D02*
X0271220Y0354910D01*
X0272819Y0356508D02*
X0260833Y0356508D01*
X0260833Y0358107D02*
X0274417Y0358107D01*
X0276016Y0359705D02*
X0260833Y0359705D01*
X0260833Y0361304D02*
X0277614Y0361304D01*
X0279213Y0362902D02*
X0260833Y0362902D01*
X0260833Y0364501D02*
X0280811Y0364501D01*
X0282410Y0366099D02*
X0260833Y0366099D01*
X0260833Y0367698D02*
X0284008Y0367698D01*
X0292626Y0356580D02*
X0302891Y0356580D01*
X0302590Y0356280D01*
X0297590Y0351280D01*
X0297133Y0350177D01*
X0297133Y0325987D01*
X0296742Y0325596D01*
X0296133Y0324126D01*
X0296133Y0322535D01*
X0296742Y0321064D01*
X0297868Y0319939D01*
X0299338Y0319330D01*
X0300929Y0319330D01*
X0302399Y0319939D01*
X0303524Y0321064D01*
X0304133Y0322535D01*
X0304133Y0324126D01*
X0303524Y0325596D01*
X0303133Y0325987D01*
X0303133Y0348338D01*
X0306376Y0351580D01*
X0329480Y0351580D01*
X0330583Y0352037D01*
X0333083Y0354537D01*
X0333383Y0354838D01*
X0333383Y0341483D01*
X0333840Y0340381D01*
X0336133Y0338088D01*
X0336133Y0337535D01*
X0336742Y0336064D01*
X0337868Y0334939D01*
X0339338Y0334330D01*
X0340641Y0334330D01*
X0340141Y0333830D01*
X0338287Y0333830D01*
X0337184Y0333373D01*
X0336340Y0332530D01*
X0332590Y0328780D01*
X0332133Y0327677D01*
X0332133Y0323983D01*
X0332590Y0322881D01*
X0333434Y0322037D01*
X0339684Y0315787D01*
X0340787Y0315330D01*
X0354976Y0315330D01*
X0355368Y0314939D01*
X0356838Y0314330D01*
X0358429Y0314330D01*
X0359899Y0314939D01*
X0361024Y0316064D01*
X0361383Y0316931D01*
X0361742Y0316064D01*
X0362868Y0314939D01*
X0364338Y0314330D01*
X0365929Y0314330D01*
X0367399Y0314939D01*
X0368524Y0316064D01*
X0369133Y0317535D01*
X0369133Y0319126D01*
X0368524Y0320596D01*
X0368133Y0320987D01*
X0368133Y0344588D01*
X0376626Y0353080D01*
X0377179Y0353080D01*
X0378383Y0353579D01*
X0378383Y0323185D01*
X0377868Y0322971D01*
X0376742Y0321846D01*
X0376133Y0320376D01*
X0376133Y0318785D01*
X0376742Y0317314D01*
X0377133Y0316923D01*
X0377133Y0310823D01*
X0376391Y0310080D01*
X0258876Y0310080D01*
X0248927Y0320030D01*
X0248626Y0320330D01*
X0255730Y0320330D01*
X0256833Y0320787D01*
X0257677Y0321631D01*
X0292626Y0356580D01*
X0292554Y0356508D02*
X0302819Y0356508D01*
X0301220Y0354910D02*
X0290956Y0354910D01*
X0289357Y0353311D02*
X0299622Y0353311D01*
X0298023Y0351713D02*
X0287759Y0351713D01*
X0286160Y0350114D02*
X0297133Y0350114D01*
X0297133Y0348516D02*
X0284562Y0348516D01*
X0282963Y0346917D02*
X0297133Y0346917D01*
X0297133Y0345319D02*
X0281365Y0345319D01*
X0279766Y0343720D02*
X0297133Y0343720D01*
X0297133Y0342122D02*
X0278168Y0342122D01*
X0276569Y0340523D02*
X0297133Y0340523D01*
X0297133Y0338925D02*
X0274971Y0338925D01*
X0273372Y0337326D02*
X0297133Y0337326D01*
X0297133Y0335728D02*
X0271774Y0335728D01*
X0270175Y0334129D02*
X0297133Y0334129D01*
X0297133Y0332531D02*
X0268576Y0332531D01*
X0266978Y0330932D02*
X0297133Y0330932D01*
X0297133Y0329334D02*
X0265379Y0329334D01*
X0263781Y0327735D02*
X0297133Y0327735D01*
X0297133Y0326137D02*
X0262182Y0326137D01*
X0260584Y0324538D02*
X0296304Y0324538D01*
X0296133Y0322940D02*
X0258985Y0322940D01*
X0257387Y0321341D02*
X0296628Y0321341D01*
X0298342Y0319743D02*
X0249214Y0319743D01*
X0250812Y0318144D02*
X0337327Y0318144D01*
X0338925Y0316546D02*
X0252411Y0316546D01*
X0254009Y0314947D02*
X0355360Y0314947D01*
X0359907Y0314947D02*
X0362860Y0314947D01*
X0361543Y0316546D02*
X0361224Y0316546D01*
X0367407Y0314947D02*
X0377133Y0314947D01*
X0377133Y0313349D02*
X0255608Y0313349D01*
X0257206Y0311750D02*
X0377133Y0311750D01*
X0376462Y0310152D02*
X0258805Y0310152D01*
X0253941Y0306530D02*
X0248284Y0306530D01*
X0248111Y0306581D01*
X0247652Y0306530D01*
X0247444Y0306530D01*
X0247469Y0306556D01*
X0247706Y0306966D01*
X0247829Y0307424D01*
X0247829Y0309445D01*
X0242963Y0309445D01*
X0242963Y0305861D01*
X0245789Y0305861D01*
X0245729Y0305828D01*
X0245441Y0305469D01*
X0245115Y0305143D01*
X0245046Y0304976D01*
X0242180Y0301399D01*
X0239052Y0301399D01*
X0238170Y0301034D01*
X0237494Y0300359D01*
X0237129Y0299477D01*
X0237129Y0294585D01*
X0237494Y0293703D01*
X0238170Y0293028D01*
X0239052Y0292662D01*
X0246506Y0292662D01*
X0247388Y0293028D01*
X0248064Y0293703D01*
X0248429Y0294585D01*
X0248429Y0298963D01*
X0249364Y0300130D01*
X0254049Y0300130D01*
X0253633Y0299126D01*
X0253633Y0297535D01*
X0254242Y0296064D01*
X0254633Y0295673D01*
X0254633Y0281483D01*
X0255090Y0280381D01*
X0255934Y0279537D01*
X0258434Y0277037D01*
X0258749Y0276906D01*
X0258633Y0276626D01*
X0258633Y0275996D01*
X0258429Y0276080D01*
X0256838Y0276080D01*
X0255368Y0275471D01*
X0254242Y0274346D01*
X0253883Y0273479D01*
X0253524Y0274346D01*
X0252399Y0275471D01*
X0250929Y0276080D01*
X0249338Y0276080D01*
X0247868Y0275471D01*
X0246742Y0274346D01*
X0246133Y0272876D01*
X0246133Y0271285D01*
X0246742Y0269814D01*
X0247133Y0269423D01*
X0247133Y0262073D01*
X0244441Y0259380D01*
X0243920Y0259380D01*
X0241678Y0258452D01*
X0240133Y0256907D01*
X0238589Y0258452D01*
X0236347Y0259380D01*
X0233920Y0259380D01*
X0231678Y0258452D01*
X0230133Y0256907D01*
X0228589Y0258452D01*
X0226347Y0259380D01*
X0223920Y0259380D01*
X0221678Y0258452D01*
X0219962Y0256736D01*
X0219766Y0256262D01*
X0219328Y0256863D01*
X0218716Y0257475D01*
X0218016Y0257984D01*
X0217245Y0258377D01*
X0216421Y0258645D01*
X0215566Y0258780D01*
X0215433Y0258780D01*
X0215433Y0249880D01*
X0214833Y0249880D01*
X0214833Y0249280D01*
X0209633Y0249280D01*
X0209633Y0245447D01*
X0209769Y0244592D01*
X0210036Y0243769D01*
X0210429Y0242998D01*
X0210938Y0242297D01*
X0211550Y0241685D01*
X0212251Y0241176D01*
X0213022Y0240783D01*
X0213845Y0240516D01*
X0214700Y0240380D01*
X0214833Y0240380D01*
X0214833Y0249280D01*
X0215433Y0249280D01*
X0215433Y0240380D01*
X0215566Y0240380D01*
X0216421Y0240516D01*
X0217245Y0240783D01*
X0218016Y0241176D01*
X0218716Y0241685D01*
X0219328Y0242297D01*
X0219766Y0242899D01*
X0219962Y0242425D01*
X0221678Y0240709D01*
X0223920Y0239780D01*
X0226347Y0239780D01*
X0228589Y0240709D01*
X0230133Y0242254D01*
X0231678Y0240709D01*
X0232133Y0240520D01*
X0232133Y0228983D01*
X0232590Y0227881D01*
X0233434Y0227037D01*
X0237184Y0223287D01*
X0238287Y0222830D01*
X0238726Y0222830D01*
X0239088Y0222468D01*
X0239067Y0222447D01*
X0238830Y0222037D01*
X0238707Y0221579D01*
X0238707Y0219509D01*
X0242400Y0219509D01*
X0242400Y0219042D01*
X0238707Y0219042D01*
X0238707Y0216971D01*
X0238830Y0216513D01*
X0238956Y0216295D01*
X0238473Y0215812D01*
X0238296Y0215385D01*
X0238221Y0215385D01*
X0238044Y0215812D01*
X0237561Y0216295D01*
X0237687Y0216513D01*
X0237809Y0216971D01*
X0237809Y0219042D01*
X0234117Y0219042D01*
X0234117Y0219509D01*
X0233650Y0219509D01*
X0233650Y0223142D01*
X0231520Y0223142D01*
X0231063Y0223019D01*
X0230652Y0222782D01*
X0230317Y0222447D01*
X0230080Y0222037D01*
X0229957Y0221579D01*
X0229957Y0219509D01*
X0233650Y0219509D01*
X0233650Y0219042D01*
X0229957Y0219042D01*
X0229957Y0216971D01*
X0230080Y0216513D01*
X0230206Y0216295D01*
X0229723Y0215812D01*
X0229357Y0214930D01*
X0229357Y0211697D01*
X0228409Y0212645D01*
X0228409Y0214930D01*
X0228044Y0215812D01*
X0227561Y0216295D01*
X0227687Y0216513D01*
X0227809Y0216971D01*
X0227809Y0219042D01*
X0224117Y0219042D01*
X0224117Y0219509D01*
X0223650Y0219509D01*
X0223650Y0223142D01*
X0221520Y0223142D01*
X0221063Y0223019D01*
X0220652Y0222782D01*
X0220317Y0222447D01*
X0220080Y0222037D01*
X0219957Y0221579D01*
X0219957Y0219509D01*
X0223650Y0219509D01*
X0223650Y0219042D01*
X0219957Y0219042D01*
X0219957Y0216971D01*
X0220080Y0216513D01*
X0220206Y0216295D01*
X0219723Y0215812D01*
X0219668Y0215680D01*
X0219348Y0215680D01*
X0219294Y0215812D01*
X0218811Y0216295D01*
X0218937Y0216513D01*
X0219059Y0216971D01*
X0219059Y0219042D01*
X0215367Y0219042D01*
X0215367Y0219509D01*
X0214900Y0219509D01*
X0214900Y0223142D01*
X0212770Y0223142D01*
X0212313Y0223019D01*
X0211902Y0222782D01*
X0211567Y0222447D01*
X0211330Y0222037D01*
X0211207Y0221579D01*
X0211207Y0219509D01*
X0214900Y0219509D01*
X0214900Y0219042D01*
X0211207Y0219042D01*
X0211207Y0216971D01*
X0211330Y0216513D01*
X0211456Y0216295D01*
X0210973Y0215812D01*
X0210607Y0214930D01*
X0210607Y0209841D01*
X0210973Y0208959D01*
X0211648Y0208284D01*
X0212233Y0208041D01*
X0212233Y0194003D01*
X0212675Y0192937D01*
X0213491Y0192122D01*
X0214556Y0191680D01*
X0225182Y0191680D01*
X0229883Y0186979D01*
X0229883Y0186285D01*
X0230492Y0184814D01*
X0231618Y0183689D01*
X0232993Y0183119D01*
X0232633Y0182970D01*
X0231792Y0183319D01*
X0228475Y0183319D01*
X0227633Y0182970D01*
X0226792Y0183319D01*
X0223475Y0183319D01*
X0222633Y0182970D01*
X0221792Y0183319D01*
X0218931Y0183319D01*
X0208833Y0193416D01*
X0208833Y0205808D01*
X0208468Y0206690D01*
X0207793Y0207365D01*
X0206911Y0207730D01*
X0198356Y0207730D01*
X0197474Y0207365D01*
X0196799Y0206690D01*
X0196433Y0205808D01*
X0196433Y0198214D01*
X0190372Y0198214D01*
X0189882Y0198417D01*
X0185384Y0198417D01*
X0185033Y0198272D01*
X0185033Y0228801D01*
X0209633Y0253401D01*
X0209633Y0249880D01*
X0214833Y0249880D01*
X0214833Y0258780D01*
X0214700Y0258780D01*
X0214580Y0258761D01*
X0215033Y0259856D01*
X0215033Y0276177D01*
X0217047Y0276177D01*
X0217183Y0275849D01*
X0217202Y0275830D01*
X0217183Y0275812D01*
X0216818Y0274930D01*
X0216818Y0270038D01*
X0217183Y0269156D01*
X0217858Y0268481D01*
X0218741Y0268115D01*
X0218743Y0268115D01*
X0218840Y0267881D01*
X0219684Y0267037D01*
X0222184Y0264537D01*
X0223287Y0264080D01*
X0234480Y0264080D01*
X0235583Y0264537D01*
X0236427Y0265381D01*
X0238639Y0267594D01*
X0238819Y0267594D01*
X0239701Y0267959D01*
X0240377Y0268634D01*
X0240742Y0269516D01*
X0240742Y0275983D01*
X0240377Y0276865D01*
X0239701Y0277540D01*
X0238819Y0277905D01*
X0236889Y0277905D01*
X0237002Y0278178D01*
X0237002Y0284644D01*
X0236636Y0285526D01*
X0235961Y0286201D01*
X0235079Y0286567D01*
X0234945Y0286567D01*
X0234945Y0288097D01*
X0231312Y0288097D01*
X0231312Y0288564D01*
X0230845Y0288564D01*
X0230845Y0292256D01*
X0228774Y0292256D01*
X0228316Y0292134D01*
X0228098Y0292007D01*
X0227615Y0292491D01*
X0226733Y0292856D01*
X0226683Y0292856D01*
X0227097Y0293028D01*
X0227772Y0293703D01*
X0228138Y0294585D01*
X0228138Y0299477D01*
X0227784Y0300330D01*
X0228230Y0300330D01*
X0229333Y0300787D01*
X0230177Y0301631D01*
X0232677Y0304131D01*
X0233133Y0305233D01*
X0233133Y0314588D01*
X0233876Y0315330D01*
X0245141Y0315330D01*
X0253941Y0306530D01*
X0253516Y0306955D02*
X0247700Y0306955D01*
X0247829Y0308553D02*
X0251918Y0308553D01*
X0250319Y0310152D02*
X0247829Y0310152D01*
X0247829Y0309814D02*
X0247829Y0311835D01*
X0247706Y0312293D01*
X0247469Y0312703D01*
X0247134Y0313038D01*
X0246724Y0313275D01*
X0246266Y0313398D01*
X0242963Y0313398D01*
X0242963Y0309814D01*
X0242595Y0309814D01*
X0242595Y0313398D01*
X0239292Y0313398D01*
X0238834Y0313275D01*
X0238424Y0313038D01*
X0238089Y0312703D01*
X0237852Y0312293D01*
X0237729Y0311835D01*
X0237729Y0309814D01*
X0242595Y0309814D01*
X0242595Y0309445D01*
X0242963Y0309445D01*
X0242963Y0309814D01*
X0247829Y0309814D01*
X0247829Y0311750D02*
X0248721Y0311750D01*
X0247122Y0313349D02*
X0246450Y0313349D01*
X0245524Y0314947D02*
X0233493Y0314947D01*
X0233133Y0313349D02*
X0239108Y0313349D01*
X0237729Y0311750D02*
X0233133Y0311750D01*
X0233133Y0310152D02*
X0237729Y0310152D01*
X0237729Y0309445D02*
X0237729Y0307424D01*
X0237852Y0306966D01*
X0238089Y0306556D01*
X0238424Y0306221D01*
X0238834Y0305984D01*
X0239292Y0305861D01*
X0242595Y0305861D01*
X0242595Y0309445D01*
X0237729Y0309445D01*
X0237729Y0308553D02*
X0233133Y0308553D01*
X0233133Y0306955D02*
X0237858Y0306955D01*
X0242595Y0306955D02*
X0242963Y0306955D01*
X0242963Y0308553D02*
X0242595Y0308553D01*
X0242595Y0310152D02*
X0242963Y0310152D01*
X0242963Y0311750D02*
X0242595Y0311750D01*
X0242595Y0313349D02*
X0242963Y0313349D01*
X0245329Y0305356D02*
X0233133Y0305356D01*
X0232303Y0303758D02*
X0244070Y0303758D01*
X0242788Y0302159D02*
X0230705Y0302159D01*
X0228786Y0300560D02*
X0237696Y0300560D01*
X0237129Y0298962D02*
X0228138Y0298962D01*
X0228138Y0297363D02*
X0237129Y0297363D01*
X0237129Y0295765D02*
X0228138Y0295765D01*
X0227964Y0294166D02*
X0237302Y0294166D01*
X0234585Y0291561D02*
X0234250Y0291897D01*
X0233840Y0292134D01*
X0233382Y0292256D01*
X0231312Y0292256D01*
X0231312Y0288564D01*
X0234945Y0288564D01*
X0234945Y0290693D01*
X0234822Y0291151D01*
X0234585Y0291561D01*
X0234871Y0290969D02*
X0254633Y0290969D01*
X0254633Y0289371D02*
X0234945Y0289371D01*
X0234945Y0287772D02*
X0254633Y0287772D01*
X0254633Y0286174D02*
X0235989Y0286174D01*
X0237002Y0284575D02*
X0254633Y0284575D01*
X0254633Y0282977D02*
X0237002Y0282977D01*
X0237002Y0281378D02*
X0254677Y0281378D01*
X0255691Y0279780D02*
X0237002Y0279780D01*
X0237002Y0278181D02*
X0257290Y0278181D01*
X0258633Y0276583D02*
X0240493Y0276583D01*
X0240742Y0274984D02*
X0247381Y0274984D01*
X0246345Y0273386D02*
X0240742Y0273386D01*
X0240742Y0271787D02*
X0246133Y0271787D01*
X0246587Y0270189D02*
X0240742Y0270189D01*
X0240333Y0268590D02*
X0247133Y0268590D01*
X0247133Y0266992D02*
X0238038Y0266992D01*
X0236439Y0265393D02*
X0247133Y0265393D01*
X0247133Y0263795D02*
X0215033Y0263795D01*
X0215033Y0265393D02*
X0221328Y0265393D01*
X0219729Y0266992D02*
X0215033Y0266992D01*
X0215033Y0268590D02*
X0217749Y0268590D01*
X0216818Y0270189D02*
X0215033Y0270189D01*
X0215033Y0271787D02*
X0216818Y0271787D01*
X0216818Y0273386D02*
X0215033Y0273386D01*
X0215033Y0274984D02*
X0216841Y0274984D01*
X0215033Y0262196D02*
X0247133Y0262196D01*
X0245658Y0260598D02*
X0215033Y0260598D01*
X0214679Y0258999D02*
X0223000Y0258999D01*
X0220627Y0257401D02*
X0218791Y0257401D01*
X0215433Y0257401D02*
X0214833Y0257401D01*
X0214833Y0255802D02*
X0215433Y0255802D01*
X0215433Y0254204D02*
X0214833Y0254204D01*
X0214833Y0252605D02*
X0215433Y0252605D01*
X0215433Y0251007D02*
X0214833Y0251007D01*
X0214833Y0249408D02*
X0205641Y0249408D01*
X0204042Y0247810D02*
X0209633Y0247810D01*
X0209633Y0246211D02*
X0202444Y0246211D01*
X0200845Y0244613D02*
X0209766Y0244613D01*
X0210421Y0243014D02*
X0199247Y0243014D01*
X0197648Y0241416D02*
X0211921Y0241416D01*
X0214833Y0241416D02*
X0215433Y0241416D01*
X0215433Y0243014D02*
X0214833Y0243014D01*
X0214833Y0244613D02*
X0215433Y0244613D01*
X0215433Y0246211D02*
X0214833Y0246211D01*
X0214833Y0247810D02*
X0215433Y0247810D01*
X0209633Y0251007D02*
X0207239Y0251007D01*
X0208838Y0252605D02*
X0209633Y0252605D01*
X0218345Y0241416D02*
X0220971Y0241416D01*
X0223831Y0239817D02*
X0196050Y0239817D01*
X0194451Y0238219D02*
X0232133Y0238219D01*
X0232133Y0239817D02*
X0226436Y0239817D01*
X0229295Y0241416D02*
X0230971Y0241416D01*
X0232133Y0236620D02*
X0192853Y0236620D01*
X0191254Y0235022D02*
X0232133Y0235022D01*
X0232133Y0233423D02*
X0189656Y0233423D01*
X0188057Y0231825D02*
X0232133Y0231825D01*
X0232133Y0230226D02*
X0186459Y0230226D01*
X0185033Y0228627D02*
X0232281Y0228627D01*
X0233442Y0227029D02*
X0185033Y0227029D01*
X0185033Y0225430D02*
X0235040Y0225430D01*
X0236639Y0223832D02*
X0185033Y0223832D01*
X0185033Y0222233D02*
X0211444Y0222233D01*
X0211207Y0220635D02*
X0185033Y0220635D01*
X0185033Y0219036D02*
X0211207Y0219036D01*
X0211207Y0217438D02*
X0185033Y0217438D01*
X0185033Y0215839D02*
X0211000Y0215839D01*
X0210607Y0214241D02*
X0185033Y0214241D01*
X0185033Y0212642D02*
X0210607Y0212642D01*
X0210607Y0211044D02*
X0185033Y0211044D01*
X0185033Y0209445D02*
X0210771Y0209445D01*
X0212233Y0207847D02*
X0185033Y0207847D01*
X0185033Y0206248D02*
X0196616Y0206248D01*
X0196433Y0204650D02*
X0185033Y0204650D01*
X0185033Y0203051D02*
X0196433Y0203051D01*
X0196433Y0201453D02*
X0185033Y0201453D01*
X0185033Y0199854D02*
X0196433Y0199854D01*
X0196433Y0198256D02*
X0190272Y0198256D01*
X0191122Y0191446D02*
X0196433Y0191446D01*
X0196433Y0183853D01*
X0196697Y0183215D01*
X0196690Y0183197D01*
X0196690Y0178306D01*
X0197055Y0177423D01*
X0197731Y0176748D01*
X0198613Y0176383D01*
X0206654Y0176383D01*
X0207536Y0176748D01*
X0208211Y0177423D01*
X0208577Y0178306D01*
X0208577Y0183197D01*
X0208569Y0183215D01*
X0208831Y0183847D01*
X0216552Y0176125D01*
X0216552Y0175717D01*
X0216657Y0175464D01*
X0211960Y0175464D01*
X0210716Y0174949D01*
X0208577Y0172810D01*
X0208577Y0173355D01*
X0208211Y0174237D01*
X0207536Y0174912D01*
X0206654Y0175277D01*
X0198613Y0175277D01*
X0197731Y0174912D01*
X0197055Y0174237D01*
X0196690Y0173355D01*
X0196690Y0168463D01*
X0196697Y0168445D01*
X0196433Y0167808D01*
X0196433Y0160405D01*
X0191173Y0160405D01*
X0191205Y0160524D01*
X0191205Y0162139D01*
X0187633Y0162139D01*
X0187633Y0165317D01*
X0185625Y0165317D01*
X0185167Y0165195D01*
X0185033Y0165117D01*
X0185033Y0186543D01*
X0185167Y0186466D01*
X0185625Y0186343D01*
X0187633Y0186343D01*
X0187633Y0189521D01*
X0187633Y0189521D01*
X0187633Y0186343D01*
X0189642Y0186343D01*
X0190100Y0186466D01*
X0190510Y0186703D01*
X0190845Y0187038D01*
X0191082Y0187448D01*
X0191205Y0187906D01*
X0191205Y0189521D01*
X0187633Y0189521D01*
X0187633Y0189521D01*
X0191205Y0189521D01*
X0191205Y0191136D01*
X0191122Y0191446D01*
X0191205Y0190263D02*
X0196433Y0190263D01*
X0196433Y0188665D02*
X0191205Y0188665D01*
X0190862Y0187066D02*
X0196433Y0187066D01*
X0196433Y0185468D02*
X0185033Y0185468D01*
X0185033Y0183869D02*
X0196433Y0183869D01*
X0196690Y0182271D02*
X0185033Y0182271D01*
X0185033Y0180672D02*
X0196690Y0180672D01*
X0196690Y0179074D02*
X0185033Y0179074D01*
X0185033Y0177475D02*
X0197034Y0177475D01*
X0197097Y0174278D02*
X0185033Y0174278D01*
X0185033Y0172680D02*
X0196690Y0172680D01*
X0196690Y0171081D02*
X0185033Y0171081D01*
X0185033Y0169483D02*
X0196690Y0169483D01*
X0196465Y0167884D02*
X0185033Y0167884D01*
X0185033Y0166286D02*
X0196433Y0166286D01*
X0196433Y0164687D02*
X0190781Y0164687D01*
X0190845Y0164622D02*
X0190510Y0164958D01*
X0190100Y0165195D01*
X0189642Y0165317D01*
X0187633Y0165317D01*
X0187633Y0162139D01*
X0187633Y0162139D01*
X0187633Y0162139D01*
X0191205Y0162139D01*
X0191205Y0163754D01*
X0191082Y0164212D01*
X0190845Y0164622D01*
X0191205Y0163089D02*
X0196433Y0163089D01*
X0196433Y0161490D02*
X0191205Y0161490D01*
X0187633Y0163089D02*
X0187633Y0163089D01*
X0187633Y0164687D02*
X0187633Y0164687D01*
X0185033Y0175877D02*
X0216552Y0175877D01*
X0215202Y0177475D02*
X0208233Y0177475D01*
X0208577Y0179074D02*
X0213604Y0179074D01*
X0212005Y0180672D02*
X0208577Y0180672D01*
X0208577Y0182271D02*
X0210407Y0182271D01*
X0215183Y0187066D02*
X0229796Y0187066D01*
X0230222Y0185468D02*
X0216782Y0185468D01*
X0218380Y0183869D02*
X0231437Y0183869D01*
X0228198Y0188665D02*
X0213585Y0188665D01*
X0211986Y0190263D02*
X0226599Y0190263D01*
X0214118Y0191862D02*
X0210388Y0191862D01*
X0208833Y0193460D02*
X0212458Y0193460D01*
X0212233Y0195059D02*
X0208833Y0195059D01*
X0208833Y0196657D02*
X0212233Y0196657D01*
X0212233Y0198256D02*
X0208833Y0198256D01*
X0208833Y0199854D02*
X0212233Y0199854D01*
X0212233Y0201453D02*
X0208833Y0201453D01*
X0208833Y0203051D02*
X0212233Y0203051D01*
X0212233Y0204650D02*
X0208833Y0204650D01*
X0208651Y0206248D02*
X0212233Y0206248D01*
X0219266Y0215839D02*
X0219750Y0215839D01*
X0219957Y0217438D02*
X0219059Y0217438D01*
X0219059Y0219036D02*
X0219957Y0219036D01*
X0219059Y0219509D02*
X0219059Y0221579D01*
X0218937Y0222037D01*
X0218700Y0222447D01*
X0218365Y0222782D01*
X0217954Y0223019D01*
X0217496Y0223142D01*
X0215367Y0223142D01*
X0215367Y0219509D01*
X0219059Y0219509D01*
X0219059Y0220635D02*
X0219957Y0220635D01*
X0220194Y0222233D02*
X0218823Y0222233D01*
X0215367Y0222233D02*
X0214900Y0222233D01*
X0214900Y0220635D02*
X0215367Y0220635D01*
X0223650Y0220635D02*
X0224117Y0220635D01*
X0224117Y0219509D02*
X0224117Y0223142D01*
X0226246Y0223142D01*
X0226704Y0223019D01*
X0227115Y0222782D01*
X0227450Y0222447D01*
X0227687Y0222037D01*
X0227809Y0221579D01*
X0227809Y0219509D01*
X0224117Y0219509D01*
X0224117Y0222233D02*
X0223650Y0222233D01*
X0227573Y0222233D02*
X0230194Y0222233D01*
X0229957Y0220635D02*
X0227809Y0220635D01*
X0227809Y0219036D02*
X0229957Y0219036D01*
X0229957Y0217438D02*
X0227809Y0217438D01*
X0228016Y0215839D02*
X0229750Y0215839D01*
X0229357Y0214241D02*
X0228409Y0214241D01*
X0228412Y0212642D02*
X0229357Y0212642D01*
X0234117Y0219509D02*
X0237809Y0219509D01*
X0237809Y0221579D01*
X0237687Y0222037D01*
X0237450Y0222447D01*
X0237115Y0222782D01*
X0236704Y0223019D01*
X0236246Y0223142D01*
X0234117Y0223142D01*
X0234117Y0219509D01*
X0234117Y0220635D02*
X0233650Y0220635D01*
X0233650Y0222233D02*
X0234117Y0222233D01*
X0237573Y0222233D02*
X0238944Y0222233D01*
X0238707Y0220635D02*
X0237809Y0220635D01*
X0237809Y0219036D02*
X0238707Y0219036D01*
X0238707Y0217438D02*
X0237809Y0217438D01*
X0238016Y0215839D02*
X0238500Y0215839D01*
X0251383Y0212080D02*
X0251964Y0212661D01*
X0258893Y0212661D01*
X0261376Y0230080D02*
X0258133Y0233323D01*
X0258133Y0240520D01*
X0258589Y0240709D01*
X0260133Y0242254D01*
X0261678Y0240709D01*
X0263920Y0239780D01*
X0266347Y0239780D01*
X0268589Y0240709D01*
X0270305Y0242425D01*
X0271233Y0244667D01*
X0271233Y0254494D01*
X0270305Y0256736D01*
X0268589Y0258452D01*
X0266347Y0259380D01*
X0263920Y0259380D01*
X0261678Y0258452D01*
X0260133Y0256907D01*
X0259043Y0257997D01*
X0260177Y0259131D01*
X0260633Y0260233D01*
X0260633Y0269423D01*
X0261024Y0269814D01*
X0261633Y0271285D01*
X0261633Y0271338D01*
X0272133Y0260838D01*
X0272133Y0243983D01*
X0272590Y0242881D01*
X0283633Y0231838D01*
X0283633Y0231285D01*
X0284242Y0229814D01*
X0285368Y0228689D01*
X0286838Y0228080D01*
X0288429Y0228080D01*
X0289899Y0228689D01*
X0291024Y0229814D01*
X0291383Y0230681D01*
X0291742Y0229814D01*
X0292868Y0228689D01*
X0294338Y0228080D01*
X0295929Y0228080D01*
X0297399Y0228689D01*
X0298524Y0229814D01*
X0298883Y0230681D01*
X0299242Y0229814D01*
X0300368Y0228689D01*
X0301838Y0228080D01*
X0303429Y0228080D01*
X0304899Y0228689D01*
X0306024Y0229814D01*
X0306355Y0230613D01*
X0307037Y0230330D01*
X0311391Y0230330D01*
X0323633Y0218088D01*
X0323633Y0217535D01*
X0324242Y0216064D01*
X0325368Y0214939D01*
X0326838Y0214330D01*
X0328429Y0214330D01*
X0329899Y0214939D01*
X0331024Y0216064D01*
X0331633Y0217535D01*
X0331633Y0219126D01*
X0331024Y0220596D01*
X0329899Y0221721D01*
X0328429Y0222330D01*
X0327876Y0222330D01*
X0314333Y0235873D01*
X0313575Y0236187D01*
X0314133Y0237535D01*
X0314133Y0239080D01*
X0320141Y0239080D01*
X0323633Y0235588D01*
X0323633Y0235035D01*
X0324242Y0233564D01*
X0325368Y0232439D01*
X0326838Y0231830D01*
X0328429Y0231830D01*
X0329899Y0232439D01*
X0331024Y0233564D01*
X0331312Y0234259D01*
X0331456Y0234115D01*
X0331330Y0233897D01*
X0331207Y0233439D01*
X0331207Y0231369D01*
X0334900Y0231369D01*
X0334900Y0230902D01*
X0331207Y0230902D01*
X0331207Y0228831D01*
X0331330Y0228374D01*
X0331567Y0227963D01*
X0331902Y0227628D01*
X0332313Y0227391D01*
X0332770Y0227268D01*
X0334900Y0227268D01*
X0334900Y0230902D01*
X0335367Y0230902D01*
X0335367Y0231369D01*
X0342400Y0231369D01*
X0342400Y0230902D01*
X0338707Y0230902D01*
X0335367Y0230902D01*
X0335367Y0227268D01*
X0337496Y0227268D01*
X0337954Y0227391D01*
X0338365Y0227628D01*
X0338700Y0227963D01*
X0338883Y0228281D01*
X0339067Y0227963D01*
X0339402Y0227628D01*
X0339813Y0227391D01*
X0340270Y0227268D01*
X0342400Y0227268D01*
X0342400Y0230902D01*
X0342867Y0230902D01*
X0342867Y0227268D01*
X0344633Y0227268D01*
X0344633Y0224795D01*
X0343741Y0224795D01*
X0342858Y0224430D01*
X0342183Y0223755D01*
X0342088Y0223525D01*
X0341971Y0223525D01*
X0341794Y0223952D01*
X0341119Y0224627D01*
X0340237Y0224992D01*
X0335030Y0224992D01*
X0334148Y0224627D01*
X0333473Y0223952D01*
X0333107Y0223069D01*
X0333107Y0217981D01*
X0333473Y0217099D01*
X0333956Y0216615D01*
X0333830Y0216397D01*
X0333707Y0215939D01*
X0333707Y0213869D01*
X0337400Y0213869D01*
X0337400Y0213402D01*
X0333707Y0213402D01*
X0333707Y0211331D01*
X0333830Y0210874D01*
X0334067Y0210463D01*
X0334402Y0210128D01*
X0334813Y0209891D01*
X0335270Y0209768D01*
X0337400Y0209768D01*
X0337400Y0213402D01*
X0337867Y0213402D01*
X0337867Y0213869D01*
X0341559Y0213869D01*
X0341559Y0215939D01*
X0341437Y0216397D01*
X0341311Y0216615D01*
X0341794Y0217099D01*
X0341971Y0217525D01*
X0342007Y0217525D01*
X0342183Y0217099D01*
X0342667Y0216615D01*
X0342541Y0216397D01*
X0342418Y0215939D01*
X0342418Y0213918D01*
X0346199Y0213918D01*
X0346199Y0213549D01*
X0346568Y0213549D01*
X0346568Y0213918D01*
X0350349Y0213918D01*
X0350349Y0215939D01*
X0350226Y0216397D01*
X0350100Y0216615D01*
X0350583Y0217099D01*
X0350883Y0217823D01*
X0350883Y0209573D01*
X0349060Y0207750D01*
X0348930Y0208066D01*
X0348255Y0208741D01*
X0347373Y0209106D01*
X0342284Y0209106D01*
X0341402Y0208741D01*
X0340918Y0208257D01*
X0340700Y0208384D01*
X0340242Y0208506D01*
X0338172Y0208506D01*
X0338172Y0204814D01*
X0337705Y0204814D01*
X0337705Y0208506D01*
X0335635Y0208506D01*
X0335177Y0208384D01*
X0334766Y0208147D01*
X0334431Y0207811D01*
X0334194Y0207401D01*
X0334072Y0206943D01*
X0334072Y0204814D01*
X0337705Y0204814D01*
X0337705Y0204347D01*
X0334072Y0204347D01*
X0334072Y0202580D01*
X0330126Y0202580D01*
X0328083Y0204623D01*
X0326980Y0205080D01*
X0298287Y0205080D01*
X0297184Y0204623D01*
X0296898Y0204337D01*
X0296618Y0204221D01*
X0295492Y0203096D01*
X0294883Y0201626D01*
X0294883Y0201573D01*
X0294071Y0202385D01*
X0294133Y0202535D01*
X0294133Y0204126D01*
X0293524Y0205596D01*
X0292399Y0206721D01*
X0290929Y0207330D01*
X0289338Y0207330D01*
X0287868Y0206721D01*
X0287476Y0206330D01*
X0280633Y0206330D01*
X0280633Y0209829D01*
X0281838Y0209330D01*
X0283429Y0209330D01*
X0284899Y0209939D01*
X0286024Y0211064D01*
X0286633Y0212535D01*
X0286633Y0214126D01*
X0286024Y0215596D01*
X0285633Y0215987D01*
X0285633Y0220177D01*
X0285177Y0221280D01*
X0277677Y0228780D01*
X0276833Y0229623D01*
X0275730Y0230080D01*
X0261376Y0230080D01*
X0261230Y0230226D02*
X0284072Y0230226D01*
X0283633Y0231825D02*
X0259632Y0231825D01*
X0258133Y0233423D02*
X0282048Y0233423D01*
X0280449Y0235022D02*
X0258133Y0235022D01*
X0258133Y0236620D02*
X0278851Y0236620D01*
X0277252Y0238219D02*
X0258133Y0238219D01*
X0258133Y0239817D02*
X0263831Y0239817D01*
X0266436Y0239817D02*
X0275654Y0239817D01*
X0274055Y0241416D02*
X0269295Y0241416D01*
X0270549Y0243014D02*
X0272535Y0243014D01*
X0272133Y0244613D02*
X0271211Y0244613D01*
X0271233Y0246211D02*
X0272133Y0246211D01*
X0272133Y0247810D02*
X0271233Y0247810D01*
X0271233Y0249408D02*
X0272133Y0249408D01*
X0272133Y0251007D02*
X0271233Y0251007D01*
X0271233Y0252605D02*
X0272133Y0252605D01*
X0272133Y0254204D02*
X0271233Y0254204D01*
X0270691Y0255802D02*
X0272133Y0255802D01*
X0272133Y0257401D02*
X0269640Y0257401D01*
X0267266Y0258999D02*
X0272133Y0258999D01*
X0272133Y0260598D02*
X0260633Y0260598D01*
X0260633Y0262196D02*
X0270775Y0262196D01*
X0269176Y0263795D02*
X0260633Y0263795D01*
X0260633Y0265393D02*
X0267578Y0265393D01*
X0265979Y0266992D02*
X0260633Y0266992D01*
X0260633Y0268590D02*
X0264381Y0268590D01*
X0262782Y0270189D02*
X0261179Y0270189D01*
X0254881Y0274984D02*
X0252886Y0274984D01*
X0260979Y0282977D02*
X0271693Y0282977D01*
X0271742Y0283096D02*
X0271133Y0281626D01*
X0271133Y0280035D01*
X0271742Y0278564D01*
X0272868Y0277439D01*
X0274338Y0276830D01*
X0274891Y0276830D01*
X0282133Y0269588D01*
X0282133Y0268073D01*
X0268927Y0281280D01*
X0268083Y0282123D01*
X0266980Y0282580D01*
X0261376Y0282580D01*
X0260633Y0283323D01*
X0260633Y0295673D01*
X0261024Y0296064D01*
X0261633Y0297535D01*
X0261633Y0299126D01*
X0261217Y0300130D01*
X0340176Y0300130D01*
X0340368Y0299939D01*
X0341838Y0299330D01*
X0343429Y0299330D01*
X0344899Y0299939D01*
X0346024Y0301064D01*
X0346633Y0302535D01*
X0346633Y0304080D01*
X0376391Y0304080D01*
X0378383Y0302088D01*
X0378383Y0298073D01*
X0376633Y0299823D01*
X0376633Y0300376D01*
X0376024Y0301846D01*
X0374899Y0302971D01*
X0373429Y0303580D01*
X0371838Y0303580D01*
X0370368Y0302971D01*
X0369242Y0301846D01*
X0368633Y0300376D01*
X0368633Y0298785D01*
X0369242Y0297314D01*
X0370368Y0296189D01*
X0371838Y0295580D01*
X0372391Y0295580D01*
X0374633Y0293338D01*
X0374633Y0286831D01*
X0373429Y0287330D01*
X0371838Y0287330D01*
X0370368Y0286721D01*
X0369976Y0286330D01*
X0355040Y0286330D01*
X0356024Y0287314D01*
X0356633Y0288785D01*
X0356633Y0290376D01*
X0356024Y0291846D01*
X0355040Y0292830D01*
X0362476Y0292830D01*
X0362868Y0292439D01*
X0364338Y0291830D01*
X0365929Y0291830D01*
X0367399Y0292439D01*
X0368524Y0293564D01*
X0369133Y0295035D01*
X0369133Y0296626D01*
X0368524Y0298096D01*
X0367399Y0299221D01*
X0365929Y0299830D01*
X0364338Y0299830D01*
X0362868Y0299221D01*
X0362476Y0298830D01*
X0352037Y0298830D01*
X0350934Y0298373D01*
X0348891Y0296330D01*
X0327790Y0296330D01*
X0327399Y0296721D01*
X0325929Y0297330D01*
X0324338Y0297330D01*
X0322868Y0296721D01*
X0321742Y0295596D01*
X0321133Y0294126D01*
X0321133Y0292580D01*
X0315290Y0292580D01*
X0314899Y0292971D01*
X0313429Y0293580D01*
X0311838Y0293580D01*
X0310368Y0292971D01*
X0309242Y0291846D01*
X0308633Y0290376D01*
X0308633Y0288785D01*
X0309242Y0287314D01*
X0310368Y0286189D01*
X0311838Y0285580D01*
X0313429Y0285580D01*
X0314899Y0286189D01*
X0315290Y0286580D01*
X0349976Y0286580D01*
X0350226Y0286330D01*
X0320787Y0286330D01*
X0319684Y0285873D01*
X0309684Y0275873D01*
X0308840Y0275030D01*
X0308383Y0273927D01*
X0308383Y0255987D01*
X0308133Y0255737D01*
X0308133Y0278173D01*
X0308524Y0278564D01*
X0309133Y0280035D01*
X0309133Y0281626D01*
X0308524Y0283096D01*
X0307399Y0284221D01*
X0305929Y0284830D01*
X0304338Y0284830D01*
X0303133Y0284331D01*
X0303133Y0288173D01*
X0303524Y0288564D01*
X0304133Y0290035D01*
X0304133Y0291626D01*
X0303524Y0293096D01*
X0302399Y0294221D01*
X0300929Y0294830D01*
X0299338Y0294830D01*
X0297868Y0294221D01*
X0296742Y0293096D01*
X0296133Y0291626D01*
X0296133Y0290035D01*
X0296742Y0288564D01*
X0297133Y0288173D01*
X0297133Y0248073D01*
X0291883Y0253323D01*
X0291883Y0259423D01*
X0292274Y0259814D01*
X0292883Y0261285D01*
X0292883Y0262876D01*
X0292274Y0264346D01*
X0291149Y0265471D01*
X0289679Y0266080D01*
X0288133Y0266080D01*
X0288133Y0271427D01*
X0287677Y0272530D01*
X0279133Y0281073D01*
X0279133Y0281626D01*
X0278524Y0283096D01*
X0277399Y0284221D01*
X0275929Y0284830D01*
X0274338Y0284830D01*
X0272868Y0284221D01*
X0271742Y0283096D01*
X0271133Y0281378D02*
X0268828Y0281378D01*
X0270426Y0279780D02*
X0271239Y0279780D01*
X0272025Y0278181D02*
X0272125Y0278181D01*
X0273623Y0276583D02*
X0275138Y0276583D01*
X0275222Y0274984D02*
X0276737Y0274984D01*
X0276820Y0273386D02*
X0278335Y0273386D01*
X0278419Y0271787D02*
X0279934Y0271787D01*
X0280017Y0270189D02*
X0281532Y0270189D01*
X0281616Y0268590D02*
X0282133Y0268590D01*
X0288133Y0268590D02*
X0297133Y0268590D01*
X0297133Y0266992D02*
X0288133Y0266992D01*
X0288133Y0270189D02*
X0297133Y0270189D01*
X0297133Y0271787D02*
X0287984Y0271787D01*
X0286820Y0273386D02*
X0297133Y0273386D01*
X0297133Y0274984D02*
X0285222Y0274984D01*
X0283623Y0276583D02*
X0297133Y0276583D01*
X0297133Y0278181D02*
X0282025Y0278181D01*
X0280426Y0279780D02*
X0297133Y0279780D01*
X0297133Y0281378D02*
X0279133Y0281378D01*
X0278574Y0282977D02*
X0297133Y0282977D01*
X0297133Y0284575D02*
X0276544Y0284575D01*
X0273723Y0284575D02*
X0260633Y0284575D01*
X0260633Y0286174D02*
X0297133Y0286174D01*
X0297133Y0287772D02*
X0260633Y0287772D01*
X0260633Y0289371D02*
X0296408Y0289371D01*
X0296133Y0290969D02*
X0260633Y0290969D01*
X0260633Y0292568D02*
X0296524Y0292568D01*
X0297813Y0294166D02*
X0260633Y0294166D01*
X0260725Y0295765D02*
X0321911Y0295765D01*
X0321150Y0294166D02*
X0302454Y0294166D01*
X0303743Y0292568D02*
X0309964Y0292568D01*
X0308879Y0290969D02*
X0304133Y0290969D01*
X0303858Y0289371D02*
X0308633Y0289371D01*
X0309053Y0287772D02*
X0303133Y0287772D01*
X0303133Y0286174D02*
X0310404Y0286174D01*
X0308574Y0282977D02*
X0316787Y0282977D01*
X0315189Y0281378D02*
X0309133Y0281378D01*
X0309028Y0279780D02*
X0313590Y0279780D01*
X0311992Y0278181D02*
X0308141Y0278181D01*
X0308133Y0276583D02*
X0310393Y0276583D01*
X0308821Y0274984D02*
X0308133Y0274984D01*
X0308133Y0273386D02*
X0308383Y0273386D01*
X0308383Y0271787D02*
X0308133Y0271787D01*
X0308133Y0270189D02*
X0308383Y0270189D01*
X0308383Y0268590D02*
X0308133Y0268590D01*
X0308133Y0266992D02*
X0308383Y0266992D01*
X0308383Y0265393D02*
X0308133Y0265393D01*
X0308133Y0263795D02*
X0308383Y0263795D01*
X0308383Y0262196D02*
X0308133Y0262196D01*
X0308133Y0260598D02*
X0308383Y0260598D01*
X0308383Y0258999D02*
X0308133Y0258999D01*
X0308133Y0257401D02*
X0308383Y0257401D01*
X0308198Y0255802D02*
X0308133Y0255802D01*
X0297133Y0255802D02*
X0291883Y0255802D01*
X0291883Y0254204D02*
X0297133Y0254204D01*
X0297133Y0252605D02*
X0292601Y0252605D01*
X0294200Y0251007D02*
X0297133Y0251007D01*
X0297133Y0249408D02*
X0295798Y0249408D01*
X0297133Y0257401D02*
X0291883Y0257401D01*
X0291883Y0258999D02*
X0297133Y0258999D01*
X0297133Y0260598D02*
X0292599Y0260598D01*
X0292883Y0262196D02*
X0297133Y0262196D01*
X0297133Y0263795D02*
X0292503Y0263795D01*
X0291227Y0265393D02*
X0297133Y0265393D01*
X0303133Y0284575D02*
X0303723Y0284575D01*
X0306544Y0284575D02*
X0318386Y0284575D01*
X0320409Y0286174D02*
X0314862Y0286174D01*
X0342633Y0303330D02*
X0247828Y0303330D01*
X0242779Y0297031D01*
X0248429Y0297363D02*
X0253704Y0297363D01*
X0253633Y0298962D02*
X0248429Y0298962D01*
X0248429Y0295765D02*
X0254542Y0295765D01*
X0254633Y0294166D02*
X0248256Y0294166D01*
X0254633Y0292568D02*
X0227429Y0292568D01*
X0230845Y0290969D02*
X0231312Y0290969D01*
X0231312Y0289371D02*
X0230845Y0289371D01*
X0222488Y0309629D02*
X0222488Y0318588D01*
X0222633Y0318734D01*
X0227199Y0318144D02*
X0228205Y0318144D01*
X0227199Y0319743D02*
X0229803Y0319743D01*
X0227132Y0321341D02*
X0239130Y0321341D01*
X0237531Y0322940D02*
X0227182Y0322940D01*
X0227199Y0324538D02*
X0234519Y0324538D01*
X0238786Y0330932D02*
X0243328Y0330932D01*
X0242469Y0329334D02*
X0241029Y0329334D01*
X0241633Y0327735D02*
X0242383Y0327735D01*
X0229399Y0342122D02*
X0204286Y0342122D01*
X0206023Y0343720D02*
X0230998Y0343720D01*
X0232596Y0345319D02*
X0207761Y0345319D01*
X0209498Y0346917D02*
X0234195Y0346917D01*
X0235793Y0348516D02*
X0211236Y0348516D01*
X0212973Y0350114D02*
X0251142Y0350114D01*
X0252741Y0351713D02*
X0214711Y0351713D01*
X0216449Y0353311D02*
X0254339Y0353311D01*
X0254433Y0354910D02*
X0218186Y0354910D01*
X0219924Y0356508D02*
X0254433Y0356508D01*
X0254433Y0358107D02*
X0221661Y0358107D01*
X0223399Y0359705D02*
X0254433Y0359705D01*
X0254433Y0361304D02*
X0225136Y0361304D01*
X0226874Y0362902D02*
X0254433Y0362902D01*
X0254433Y0364501D02*
X0228611Y0364501D01*
X0230375Y0366099D02*
X0254433Y0366099D01*
X0254433Y0367698D02*
X0231616Y0367698D01*
X0232033Y0369296D02*
X0254433Y0369296D01*
X0254433Y0370895D02*
X0232033Y0370895D01*
X0232033Y0372494D02*
X0254433Y0372494D01*
X0254433Y0374092D02*
X0232033Y0374092D01*
X0232033Y0375691D02*
X0254433Y0375691D01*
X0254433Y0377289D02*
X0232033Y0377289D01*
X0232033Y0378888D02*
X0236394Y0378888D01*
X0237566Y0378888D02*
X0237966Y0378888D01*
X0239138Y0378888D02*
X0244764Y0378888D01*
X0243165Y0380486D02*
X0241518Y0380486D01*
X0242357Y0382085D02*
X0242503Y0382085D01*
X0237966Y0382085D02*
X0237566Y0382085D01*
X0237566Y0383683D02*
X0237966Y0383683D01*
X0237966Y0385282D02*
X0237566Y0385282D01*
X0237566Y0386880D02*
X0237966Y0386880D01*
X0237966Y0388479D02*
X0237566Y0388479D01*
X0237566Y0390077D02*
X0237966Y0390077D01*
X0237966Y0391676D02*
X0237566Y0391676D01*
X0237566Y0393274D02*
X0237966Y0393274D01*
X0238382Y0395654D02*
X0238840Y0395777D01*
X0239250Y0396014D01*
X0239585Y0396349D01*
X0239822Y0396759D01*
X0239945Y0397217D01*
X0239945Y0399347D01*
X0236312Y0399347D01*
X0236312Y0395654D01*
X0238382Y0395654D01*
X0239656Y0396471D02*
X0254433Y0396471D01*
X0254433Y0394873D02*
X0248879Y0394873D01*
X0246653Y0394873D02*
X0233588Y0394873D01*
X0233588Y0393274D02*
X0234810Y0393274D01*
X0235845Y0396471D02*
X0236312Y0396471D01*
X0236312Y0398070D02*
X0235845Y0398070D01*
X0236312Y0399668D02*
X0254433Y0399668D01*
X0254433Y0398070D02*
X0239945Y0398070D01*
X0239945Y0399814D02*
X0239945Y0401943D01*
X0239822Y0402401D01*
X0239585Y0402811D01*
X0239250Y0403147D01*
X0238840Y0403384D01*
X0238382Y0403506D01*
X0236312Y0403506D01*
X0236312Y0399814D01*
X0239945Y0399814D01*
X0239945Y0401267D02*
X0254433Y0401267D01*
X0254433Y0402865D02*
X0239532Y0402865D01*
X0236312Y0402865D02*
X0235845Y0402865D01*
X0235845Y0401267D02*
X0236312Y0401267D01*
X0240722Y0393274D02*
X0243915Y0393274D01*
X0242827Y0391676D02*
X0242039Y0391676D01*
X0251617Y0393274D02*
X0254433Y0393274D01*
X0254433Y0391676D02*
X0252705Y0391676D01*
X0253166Y0390077D02*
X0254433Y0390077D01*
X0254433Y0388479D02*
X0253166Y0388479D01*
X0253166Y0386880D02*
X0254433Y0386880D01*
X0254433Y0385282D02*
X0253166Y0385282D01*
X0253166Y0383683D02*
X0254433Y0383683D01*
X0254433Y0382085D02*
X0253029Y0382085D01*
X0252367Y0380486D02*
X0254433Y0380486D01*
X0254433Y0378888D02*
X0250768Y0378888D01*
X0260833Y0378888D02*
X0382133Y0378888D01*
X0382133Y0380486D02*
X0260833Y0380486D01*
X0260833Y0382085D02*
X0382133Y0382085D01*
X0382133Y0383683D02*
X0260833Y0383683D01*
X0260833Y0385282D02*
X0382133Y0385282D01*
X0382133Y0386880D02*
X0260833Y0386880D01*
X0260833Y0388479D02*
X0382133Y0388479D01*
X0382133Y0390077D02*
X0260833Y0390077D01*
X0260833Y0391676D02*
X0382133Y0391676D01*
X0382133Y0393274D02*
X0260833Y0393274D01*
X0260833Y0394873D02*
X0382133Y0394873D01*
X0381500Y0396471D02*
X0260833Y0396471D01*
X0260833Y0398070D02*
X0379901Y0398070D01*
X0378303Y0399668D02*
X0260833Y0399668D01*
X0260833Y0401267D02*
X0376704Y0401267D01*
X0375106Y0402865D02*
X0260833Y0402865D01*
X0260833Y0404464D02*
X0373507Y0404464D01*
X0371909Y0406062D02*
X0260833Y0406062D01*
X0260833Y0407661D02*
X0368896Y0407661D01*
X0367704Y0409259D02*
X0260833Y0409259D01*
X0260833Y0410858D02*
X0367383Y0410858D01*
X0367727Y0412456D02*
X0260833Y0412456D01*
X0260833Y0414055D02*
X0368951Y0414055D01*
X0373816Y0414055D02*
X0386257Y0414055D01*
X0386257Y0415653D02*
X0260833Y0415653D01*
X0260833Y0417252D02*
X0386257Y0417252D01*
X0386257Y0418850D02*
X0260833Y0418850D01*
X0260833Y0420449D02*
X0386257Y0420449D01*
X0386257Y0422047D02*
X0260833Y0422047D01*
X0260833Y0423646D02*
X0386257Y0423646D01*
X0386257Y0425244D02*
X0260833Y0425244D01*
X0260833Y0426843D02*
X0386257Y0426843D01*
X0386257Y0428441D02*
X0260833Y0428441D01*
X0260833Y0430040D02*
X0386257Y0430040D01*
X0386257Y0431638D02*
X0260833Y0431638D01*
X0260833Y0433237D02*
X0352566Y0433237D01*
X0351425Y0434187D02*
X0351425Y0434187D01*
X0350777Y0434835D02*
X0260833Y0434835D01*
X0260833Y0436434D02*
X0349762Y0436434D01*
X0349733Y0438032D02*
X0260833Y0438032D01*
X0260833Y0439631D02*
X0349733Y0439631D01*
X0349733Y0441229D02*
X0260833Y0441229D01*
X0260833Y0442828D02*
X0349733Y0442828D01*
X0349733Y0444427D02*
X0260833Y0444427D01*
X0260833Y0446025D02*
X0349733Y0446025D01*
X0349733Y0447624D02*
X0260833Y0447624D01*
X0260833Y0449222D02*
X0350674Y0449222D01*
X0359959Y0460412D02*
X0361581Y0460412D01*
X0361557Y0458813D02*
X0362922Y0458813D01*
X0362639Y0457215D02*
X0365035Y0457215D01*
X0360919Y0462010D02*
X0358360Y0462010D01*
X0356762Y0463609D02*
X0360470Y0463609D01*
X0360470Y0465207D02*
X0355163Y0465207D01*
X0353565Y0466806D02*
X0360605Y0466806D01*
X0361267Y0468404D02*
X0351966Y0468404D01*
X0350368Y0470003D02*
X0362164Y0470003D01*
X0363762Y0471601D02*
X0348769Y0471601D01*
X0375039Y0412456D02*
X0386257Y0412456D01*
X0386257Y0410858D02*
X0375598Y0410858D01*
X0377197Y0409259D02*
X0386257Y0409259D01*
X0386257Y0407661D02*
X0378795Y0407661D01*
X0380394Y0406062D02*
X0386257Y0406062D01*
X0386257Y0404464D02*
X0381992Y0404464D01*
X0383591Y0402865D02*
X0386257Y0402865D01*
X0386257Y0401267D02*
X0385189Y0401267D01*
X0382133Y0377289D02*
X0319778Y0377289D01*
X0317988Y0377289D02*
X0260833Y0377289D01*
X0260833Y0375691D02*
X0315587Y0375691D01*
X0314883Y0374092D02*
X0260833Y0374092D01*
X0260833Y0372494D02*
X0314900Y0372494D01*
X0315662Y0370895D02*
X0260833Y0370895D01*
X0260833Y0369296D02*
X0316799Y0369296D01*
X0322180Y0375691D02*
X0382133Y0375691D01*
X0382133Y0374092D02*
X0336342Y0374092D01*
X0333383Y0353311D02*
X0331857Y0353311D01*
X0333383Y0351713D02*
X0329800Y0351713D01*
X0333383Y0350114D02*
X0304910Y0350114D01*
X0303312Y0348516D02*
X0333383Y0348516D01*
X0333383Y0346917D02*
X0303133Y0346917D01*
X0303133Y0345319D02*
X0333383Y0345319D01*
X0333383Y0343720D02*
X0303133Y0343720D01*
X0303133Y0342122D02*
X0333383Y0342122D01*
X0333781Y0340523D02*
X0303133Y0340523D01*
X0303133Y0338925D02*
X0335296Y0338925D01*
X0336220Y0337326D02*
X0303133Y0337326D01*
X0303133Y0335728D02*
X0337079Y0335728D01*
X0336341Y0332531D02*
X0303133Y0332531D01*
X0303133Y0334129D02*
X0340440Y0334129D01*
X0334743Y0330932D02*
X0303133Y0330932D01*
X0303133Y0329334D02*
X0333144Y0329334D01*
X0332157Y0327735D02*
X0303133Y0327735D01*
X0303133Y0326137D02*
X0332133Y0326137D01*
X0332133Y0324538D02*
X0303963Y0324538D01*
X0304133Y0322940D02*
X0332566Y0322940D01*
X0334130Y0321341D02*
X0303639Y0321341D01*
X0301925Y0319743D02*
X0335728Y0319743D01*
X0346633Y0303758D02*
X0376713Y0303758D01*
X0375711Y0302159D02*
X0378312Y0302159D01*
X0378383Y0300560D02*
X0376557Y0300560D01*
X0377494Y0298962D02*
X0378383Y0298962D01*
X0373804Y0294166D02*
X0368774Y0294166D01*
X0369133Y0295765D02*
X0371392Y0295765D01*
X0369222Y0297363D02*
X0368828Y0297363D01*
X0368633Y0298962D02*
X0367658Y0298962D01*
X0368710Y0300560D02*
X0345520Y0300560D01*
X0346478Y0302159D02*
X0369555Y0302159D01*
X0362608Y0298962D02*
X0261633Y0298962D01*
X0261562Y0297363D02*
X0349924Y0297363D01*
X0355302Y0292568D02*
X0362739Y0292568D01*
X0367528Y0292568D02*
X0374633Y0292568D01*
X0374633Y0290969D02*
X0356387Y0290969D01*
X0356633Y0289371D02*
X0374633Y0289371D01*
X0374633Y0287772D02*
X0356214Y0287772D01*
X0368724Y0316546D02*
X0377133Y0316546D01*
X0376399Y0318144D02*
X0369133Y0318144D01*
X0368878Y0319743D02*
X0376133Y0319743D01*
X0376533Y0321341D02*
X0368133Y0321341D01*
X0368133Y0322940D02*
X0377836Y0322940D01*
X0378383Y0324538D02*
X0368133Y0324538D01*
X0368133Y0326137D02*
X0378383Y0326137D01*
X0378383Y0327735D02*
X0368133Y0327735D01*
X0368133Y0329334D02*
X0378383Y0329334D01*
X0378383Y0330932D02*
X0368133Y0330932D01*
X0368133Y0332531D02*
X0378383Y0332531D01*
X0378383Y0334129D02*
X0368133Y0334129D01*
X0368133Y0335728D02*
X0378383Y0335728D01*
X0378383Y0337326D02*
X0368133Y0337326D01*
X0368133Y0338925D02*
X0378383Y0338925D01*
X0378383Y0340523D02*
X0368133Y0340523D01*
X0368133Y0342122D02*
X0378383Y0342122D01*
X0378383Y0343720D02*
X0368133Y0343720D01*
X0368865Y0345319D02*
X0378383Y0345319D01*
X0378383Y0346917D02*
X0370463Y0346917D01*
X0372062Y0348516D02*
X0378383Y0348516D01*
X0378383Y0350114D02*
X0373660Y0350114D01*
X0375259Y0351713D02*
X0378383Y0351713D01*
X0378383Y0353311D02*
X0377737Y0353311D01*
X0381955Y0364501D02*
X0382133Y0364501D01*
X0382133Y0366099D02*
X0380357Y0366099D01*
X0378758Y0367698D02*
X0382133Y0367698D01*
X0382133Y0369296D02*
X0377160Y0369296D01*
X0375561Y0370895D02*
X0382133Y0370895D01*
X0382133Y0372494D02*
X0373963Y0372494D01*
X0330133Y0243330D02*
X0335133Y0238330D01*
X0335133Y0238025D01*
X0342633Y0238025D01*
X0342633Y0231135D02*
X0342328Y0230830D01*
X0335133Y0230830D01*
X0332633Y0228330D01*
X0332633Y0210830D01*
X0333784Y0211044D02*
X0286004Y0211044D01*
X0286633Y0212642D02*
X0333707Y0212642D01*
X0333707Y0214241D02*
X0286586Y0214241D01*
X0285781Y0215839D02*
X0324467Y0215839D01*
X0323673Y0217438D02*
X0285633Y0217438D01*
X0285633Y0219036D02*
X0322684Y0219036D01*
X0321086Y0220635D02*
X0285444Y0220635D01*
X0284223Y0222233D02*
X0319487Y0222233D01*
X0317889Y0223832D02*
X0282624Y0223832D01*
X0281026Y0225430D02*
X0316290Y0225430D01*
X0314692Y0227029D02*
X0279427Y0227029D01*
X0277829Y0228627D02*
X0285516Y0228627D01*
X0289750Y0228627D02*
X0293016Y0228627D01*
X0291572Y0230226D02*
X0291195Y0230226D01*
X0297250Y0228627D02*
X0300516Y0228627D01*
X0299072Y0230226D02*
X0298695Y0230226D01*
X0304750Y0228627D02*
X0313093Y0228627D01*
X0311495Y0230226D02*
X0306195Y0230226D01*
X0313755Y0236620D02*
X0322601Y0236620D01*
X0323639Y0235022D02*
X0315185Y0235022D01*
X0316783Y0233423D02*
X0324384Y0233423D01*
X0319980Y0230226D02*
X0331207Y0230226D01*
X0331207Y0231825D02*
X0318382Y0231825D01*
X0321579Y0228627D02*
X0331262Y0228627D01*
X0334900Y0228627D02*
X0335367Y0228627D01*
X0335367Y0230226D02*
X0334900Y0230226D01*
X0335133Y0231135D02*
X0342633Y0231135D01*
X0342400Y0230226D02*
X0342867Y0230226D01*
X0342867Y0228627D02*
X0342400Y0228627D01*
X0344633Y0227029D02*
X0323177Y0227029D01*
X0324776Y0225430D02*
X0344633Y0225430D01*
X0342261Y0223832D02*
X0341843Y0223832D01*
X0341934Y0217438D02*
X0342043Y0217438D01*
X0342418Y0215839D02*
X0341559Y0215839D01*
X0341559Y0214241D02*
X0342418Y0214241D01*
X0342418Y0213549D02*
X0342418Y0211528D01*
X0342541Y0211070D01*
X0342778Y0210660D01*
X0343113Y0210325D01*
X0343523Y0210088D01*
X0343981Y0209965D01*
X0346199Y0209965D01*
X0346199Y0213549D01*
X0342418Y0213549D01*
X0341559Y0213402D02*
X0337867Y0213402D01*
X0337867Y0209768D01*
X0339996Y0209768D01*
X0340454Y0209891D01*
X0340865Y0210128D01*
X0341200Y0210463D01*
X0341437Y0210874D01*
X0341559Y0211331D01*
X0341559Y0213402D01*
X0341559Y0212642D02*
X0342418Y0212642D01*
X0342556Y0211044D02*
X0341482Y0211044D01*
X0337867Y0211044D02*
X0337400Y0211044D01*
X0337400Y0212642D02*
X0337867Y0212642D01*
X0337705Y0207847D02*
X0338172Y0207847D01*
X0338172Y0206248D02*
X0337705Y0206248D01*
X0337705Y0204650D02*
X0328019Y0204650D01*
X0329655Y0203051D02*
X0334072Y0203051D01*
X0334072Y0206248D02*
X0292872Y0206248D01*
X0293916Y0204650D02*
X0297248Y0204650D01*
X0295474Y0203051D02*
X0294133Y0203051D01*
X0283707Y0209445D02*
X0350756Y0209445D01*
X0349654Y0210325D02*
X0349989Y0210660D01*
X0350226Y0211070D01*
X0350349Y0211528D01*
X0350349Y0213549D01*
X0346568Y0213549D01*
X0346568Y0209965D01*
X0348786Y0209965D01*
X0349243Y0210088D01*
X0349654Y0210325D01*
X0350211Y0211044D02*
X0350883Y0211044D01*
X0350883Y0212642D02*
X0350349Y0212642D01*
X0350349Y0214241D02*
X0350883Y0214241D01*
X0350883Y0215839D02*
X0350349Y0215839D01*
X0350724Y0217438D02*
X0350883Y0217438D01*
X0346568Y0212642D02*
X0346199Y0212642D01*
X0346199Y0211044D02*
X0346568Y0211044D01*
X0349020Y0207847D02*
X0349157Y0207847D01*
X0353133Y0198256D02*
X0353914Y0198256D01*
X0353133Y0196657D02*
X0356497Y0196657D01*
X0357748Y0195059D02*
X0353133Y0195059D01*
X0353133Y0193460D02*
X0364670Y0193460D01*
X0362891Y0195059D02*
X0362519Y0195059D01*
X0368096Y0193460D02*
X0372170Y0193460D01*
X0370391Y0195059D02*
X0369876Y0195059D01*
X0375596Y0193460D02*
X0383983Y0193460D01*
X0383983Y0191862D02*
X0353133Y0191862D01*
X0353133Y0190263D02*
X0383983Y0190263D01*
X0383983Y0188665D02*
X0353133Y0188665D01*
X0353133Y0187066D02*
X0384309Y0187066D01*
X0386257Y0185468D02*
X0353133Y0185468D01*
X0353133Y0183869D02*
X0386257Y0183869D01*
X0386257Y0182271D02*
X0353133Y0182271D01*
X0353133Y0180672D02*
X0386257Y0180672D01*
X0386257Y0179074D02*
X0353133Y0179074D01*
X0353133Y0177475D02*
X0386257Y0177475D01*
X0386257Y0175877D02*
X0353133Y0175877D01*
X0353133Y0174278D02*
X0386257Y0174278D01*
X0386257Y0172680D02*
X0362691Y0172680D01*
X0363841Y0171081D02*
X0386257Y0171081D01*
X0386257Y0169483D02*
X0364133Y0169483D01*
X0363760Y0167884D02*
X0386257Y0167884D01*
X0386257Y0166286D02*
X0362496Y0166286D01*
X0360006Y0164687D02*
X0386257Y0164687D01*
X0386257Y0163089D02*
X0358698Y0163089D01*
X0357390Y0161490D02*
X0386257Y0161490D01*
X0386257Y0159891D02*
X0356082Y0159891D01*
X0354774Y0158293D02*
X0386257Y0158293D01*
X0386257Y0156694D02*
X0353467Y0156694D01*
X0352159Y0155096D02*
X0386257Y0155096D01*
X0386257Y0153497D02*
X0350851Y0153497D01*
X0348330Y0159891D02*
X0325383Y0159891D01*
X0324922Y0161490D02*
X0349638Y0161490D01*
X0350384Y0163089D02*
X0350946Y0163089D01*
X0351983Y0164687D02*
X0352254Y0164687D01*
X0353051Y0166286D02*
X0353562Y0166286D01*
X0353133Y0167884D02*
X0354869Y0167884D01*
X0356133Y0169483D02*
X0353133Y0169483D01*
X0353133Y0171081D02*
X0356425Y0171081D01*
X0357576Y0172680D02*
X0353133Y0172680D01*
X0364156Y0149160D02*
X0361764Y0146768D01*
X0360470Y0143643D01*
X0360470Y0140261D01*
X0361764Y0137136D01*
X0364156Y0134744D01*
X0367281Y0133450D01*
X0370663Y0133450D01*
X0373788Y0134744D01*
X0376180Y0137136D01*
X0377474Y0140261D01*
X0377474Y0143643D01*
X0376180Y0146768D01*
X0373788Y0149160D01*
X0370663Y0150455D01*
X0367281Y0150455D01*
X0364156Y0149160D01*
X0363697Y0148702D02*
X0341504Y0148702D01*
X0343103Y0147103D02*
X0362099Y0147103D01*
X0361241Y0145505D02*
X0344701Y0145505D01*
X0346300Y0143906D02*
X0360578Y0143906D01*
X0360470Y0142308D02*
X0349312Y0142308D01*
X0350245Y0140709D02*
X0360470Y0140709D01*
X0360946Y0139111D02*
X0350383Y0139111D01*
X0349856Y0137512D02*
X0361608Y0137512D01*
X0362986Y0135914D02*
X0347984Y0135914D01*
X0344782Y0135914D02*
X0286331Y0135914D01*
X0283936Y0135914D02*
X0249383Y0135914D01*
X0249383Y0137512D02*
X0342910Y0137512D01*
X0342383Y0139111D02*
X0249383Y0139111D01*
X0249383Y0140709D02*
X0341012Y0140709D01*
X0339413Y0142308D02*
X0249018Y0142308D01*
X0249383Y0134315D02*
X0281730Y0134315D01*
X0281133Y0132717D02*
X0249383Y0132717D01*
X0249383Y0131118D02*
X0281202Y0131118D01*
X0282037Y0129520D02*
X0249383Y0129520D01*
X0249383Y0127921D02*
X0282233Y0127921D01*
X0281525Y0126323D02*
X0249317Y0126323D01*
X0248579Y0124724D02*
X0279926Y0124724D01*
X0284932Y0121527D02*
X0386257Y0121527D01*
X0386257Y0123126D02*
X0286530Y0123126D01*
X0287814Y0124724D02*
X0386257Y0124724D01*
X0386257Y0126323D02*
X0288033Y0126323D01*
X0288033Y0127921D02*
X0386257Y0127921D01*
X0386257Y0129520D02*
X0288230Y0129520D01*
X0289064Y0131118D02*
X0386257Y0131118D01*
X0386257Y0132717D02*
X0289133Y0132717D01*
X0288537Y0134315D02*
X0365191Y0134315D01*
X0372752Y0134315D02*
X0386257Y0134315D01*
X0386257Y0135914D02*
X0374958Y0135914D01*
X0376336Y0137512D02*
X0386257Y0137512D01*
X0386257Y0139111D02*
X0376998Y0139111D01*
X0377474Y0140709D02*
X0386257Y0140709D01*
X0386257Y0142308D02*
X0377474Y0142308D01*
X0377365Y0143906D02*
X0386257Y0143906D01*
X0386257Y0145505D02*
X0376703Y0145505D01*
X0375845Y0147103D02*
X0386257Y0147103D01*
X0386257Y0148702D02*
X0374246Y0148702D01*
X0371035Y0150300D02*
X0386257Y0150300D01*
X0386257Y0151899D02*
X0332770Y0151899D01*
X0332883Y0150300D02*
X0366908Y0150300D01*
X0337814Y0143906D02*
X0227550Y0143906D01*
X0228133Y0142308D02*
X0238748Y0142308D01*
X0238383Y0140709D02*
X0228133Y0140709D01*
X0228133Y0139111D02*
X0238086Y0139111D01*
X0238206Y0137512D02*
X0228133Y0137512D01*
X0228133Y0135914D02*
X0238383Y0135914D01*
X0238383Y0134315D02*
X0228133Y0134315D01*
X0214633Y0134315D02*
X0206783Y0134315D01*
X0206768Y0132717D02*
X0214633Y0132717D01*
X0214633Y0131118D02*
X0205773Y0131118D01*
X0206783Y0135914D02*
X0214633Y0135914D01*
X0214633Y0137512D02*
X0206783Y0137512D01*
X0206783Y0139111D02*
X0214633Y0139111D01*
X0214633Y0140709D02*
X0206783Y0140709D01*
X0206783Y0142308D02*
X0214633Y0142308D01*
X0215217Y0143906D02*
X0206783Y0143906D01*
X0208689Y0145505D02*
X0269802Y0145505D01*
X0269242Y0146064D02*
X0270368Y0144939D01*
X0271838Y0144330D01*
X0273429Y0144330D01*
X0274899Y0144939D01*
X0275290Y0145330D01*
X0278726Y0145330D01*
X0279118Y0144939D01*
X0280588Y0144330D01*
X0282179Y0144330D01*
X0283649Y0144939D01*
X0284774Y0146064D01*
X0285383Y0147535D01*
X0285383Y0149126D01*
X0284774Y0150596D01*
X0283649Y0151721D01*
X0282179Y0152330D01*
X0280588Y0152330D01*
X0279118Y0151721D01*
X0278726Y0151330D01*
X0275290Y0151330D01*
X0274899Y0151721D01*
X0273429Y0152330D01*
X0271838Y0152330D01*
X0270368Y0151721D01*
X0269242Y0150596D01*
X0268633Y0149126D01*
X0268633Y0147535D01*
X0269242Y0146064D01*
X0268812Y0147103D02*
X0208833Y0147103D01*
X0208833Y0148702D02*
X0227698Y0148702D01*
X0226389Y0150300D02*
X0208833Y0150300D01*
X0208833Y0151899D02*
X0225983Y0151899D01*
X0226239Y0153497D02*
X0223186Y0153497D01*
X0224891Y0155096D02*
X0226615Y0155096D01*
X0226615Y0156694D02*
X0225383Y0156694D01*
X0225211Y0158293D02*
X0226615Y0158293D01*
X0219580Y0153497D02*
X0208833Y0153497D01*
X0208833Y0155096D02*
X0217876Y0155096D01*
X0217383Y0156694D02*
X0208833Y0156694D01*
X0208833Y0158293D02*
X0217556Y0158293D01*
X0216498Y0159891D02*
X0208833Y0159891D01*
X0208833Y0161490D02*
X0216168Y0161490D01*
X0216168Y0163089D02*
X0208833Y0163089D01*
X0210026Y0164687D02*
X0216168Y0164687D01*
X0216298Y0166286D02*
X0211625Y0166286D01*
X0213223Y0167884D02*
X0218063Y0167884D01*
X0223011Y0167884D02*
X0223108Y0167884D01*
X0210045Y0174278D02*
X0208170Y0174278D01*
X0187633Y0187066D02*
X0187633Y0187066D01*
X0187633Y0188665D02*
X0187633Y0188665D01*
X0232300Y0148702D02*
X0268633Y0148702D01*
X0269120Y0150300D02*
X0237895Y0150300D01*
X0239004Y0151899D02*
X0270797Y0151899D01*
X0274470Y0151899D02*
X0279547Y0151899D01*
X0276578Y0153497D02*
X0261936Y0153497D01*
X0262399Y0153689D02*
X0263524Y0154814D01*
X0264133Y0156285D01*
X0264133Y0157876D01*
X0263524Y0159346D01*
X0263033Y0159837D01*
X0263033Y0164323D01*
X0263524Y0164814D01*
X0264133Y0166285D01*
X0264133Y0167876D01*
X0263524Y0169346D01*
X0262399Y0170471D01*
X0260929Y0171080D01*
X0259338Y0171080D01*
X0258170Y0170597D01*
X0255062Y0170597D01*
X0255062Y0166904D01*
X0256133Y0166904D01*
X0256133Y0166285D01*
X0256742Y0164814D01*
X0257233Y0164323D01*
X0257233Y0159837D01*
X0256742Y0159346D01*
X0256133Y0157876D01*
X0256133Y0156285D01*
X0256742Y0154814D01*
X0257868Y0153689D01*
X0259338Y0153080D01*
X0260929Y0153080D01*
X0262399Y0153689D01*
X0263641Y0155096D02*
X0275174Y0155096D01*
X0274966Y0156694D02*
X0264133Y0156694D01*
X0263961Y0158293D02*
X0274978Y0158293D01*
X0274978Y0159891D02*
X0263033Y0159891D01*
X0263033Y0161490D02*
X0274978Y0161490D01*
X0274978Y0163089D02*
X0263033Y0163089D01*
X0263397Y0164687D02*
X0274978Y0164687D01*
X0274978Y0166286D02*
X0264133Y0166286D01*
X0264130Y0167884D02*
X0274978Y0167884D01*
X0274978Y0169483D02*
X0263388Y0169483D01*
X0263883Y0170830D02*
X0254828Y0170830D01*
X0254595Y0169483D02*
X0255062Y0169483D01*
X0255062Y0167884D02*
X0254595Y0167884D01*
X0254085Y0166286D02*
X0256133Y0166286D01*
X0256870Y0164687D02*
X0255151Y0164687D01*
X0255383Y0163089D02*
X0257233Y0163089D01*
X0257233Y0161490D02*
X0254951Y0161490D01*
X0253534Y0159891D02*
X0257233Y0159891D01*
X0256306Y0158293D02*
X0236018Y0158293D01*
X0237560Y0156694D02*
X0256133Y0156694D01*
X0256626Y0155096D02*
X0238866Y0155096D01*
X0239268Y0153497D02*
X0258330Y0153497D01*
X0249233Y0159891D02*
X0247519Y0159891D01*
X0258695Y0171081D02*
X0274978Y0171081D01*
X0274228Y0172680D02*
X0258695Y0172680D01*
X0258119Y0174278D02*
X0272630Y0174278D01*
X0270191Y0175877D02*
X0258093Y0175877D01*
X0258114Y0177475D02*
X0268058Y0177475D01*
X0267477Y0179074D02*
X0258114Y0179074D01*
X0258114Y0178557D02*
X0255133Y0178557D01*
X0255133Y0178557D01*
X0258114Y0178557D01*
X0258114Y0180672D02*
X0267561Y0180672D01*
X0259068Y0182271D02*
X0257508Y0182271D01*
X0280063Y0175330D02*
X0288726Y0175330D01*
X0289118Y0174939D01*
X0290588Y0174330D01*
X0292179Y0174330D01*
X0293649Y0174939D01*
X0294040Y0175330D01*
X0295141Y0175330D01*
X0295883Y0174588D01*
X0295883Y0166483D01*
X0296340Y0165381D01*
X0311641Y0150080D01*
X0293876Y0150080D01*
X0286427Y0157530D01*
X0285583Y0158373D01*
X0284480Y0158830D01*
X0280978Y0158830D01*
X0280978Y0173769D01*
X0280521Y0174872D01*
X0280063Y0175330D01*
X0280767Y0174278D02*
X0295883Y0174278D01*
X0295883Y0172680D02*
X0280978Y0172680D01*
X0280978Y0171081D02*
X0295883Y0171081D01*
X0295883Y0169483D02*
X0280978Y0169483D01*
X0280978Y0167884D02*
X0295883Y0167884D01*
X0295965Y0166286D02*
X0280978Y0166286D01*
X0280978Y0164687D02*
X0297034Y0164687D01*
X0298632Y0163089D02*
X0280978Y0163089D01*
X0280978Y0161490D02*
X0300231Y0161490D01*
X0301829Y0159891D02*
X0280978Y0159891D01*
X0285663Y0158293D02*
X0303428Y0158293D01*
X0305026Y0156694D02*
X0287262Y0156694D01*
X0288860Y0155096D02*
X0306625Y0155096D01*
X0308223Y0153497D02*
X0290459Y0153497D01*
X0292057Y0151899D02*
X0309822Y0151899D01*
X0311420Y0150300D02*
X0293656Y0150300D01*
X0289966Y0145505D02*
X0284215Y0145505D01*
X0285205Y0147103D02*
X0288367Y0147103D01*
X0286769Y0148702D02*
X0285383Y0148702D01*
X0285170Y0150300D02*
X0284897Y0150300D01*
X0283572Y0151899D02*
X0283220Y0151899D01*
X0280633Y0207847D02*
X0334467Y0207847D01*
X0333707Y0215839D02*
X0330799Y0215839D01*
X0331593Y0217438D02*
X0333332Y0217438D01*
X0333107Y0219036D02*
X0331633Y0219036D01*
X0330985Y0220635D02*
X0333107Y0220635D01*
X0333107Y0222233D02*
X0328663Y0222233D01*
X0326374Y0223832D02*
X0333423Y0223832D01*
X0331207Y0233423D02*
X0330883Y0233423D01*
X0321002Y0238219D02*
X0314133Y0238219D01*
X0281560Y0209445D02*
X0280633Y0209445D01*
X0260971Y0241416D02*
X0259295Y0241416D01*
X0259640Y0257401D02*
X0260627Y0257401D01*
X0260045Y0258999D02*
X0263000Y0258999D01*
X0243000Y0258999D02*
X0237266Y0258999D01*
X0239640Y0257401D02*
X0240627Y0257401D01*
X0233000Y0258999D02*
X0227266Y0258999D01*
X0229640Y0257401D02*
X0230627Y0257401D01*
X0205233Y0271787D02*
X0204247Y0271787D01*
X0205218Y0273386D02*
X0205233Y0273386D01*
X0200783Y0329334D02*
X0219012Y0329334D01*
X0219433Y0330932D02*
X0200783Y0330932D01*
X0200783Y0332531D02*
X0219874Y0332531D01*
X0221407Y0334129D02*
X0200783Y0334129D01*
X0200783Y0335728D02*
X0223005Y0335728D01*
X0224604Y0337326D02*
X0200783Y0337326D01*
X0200811Y0338925D02*
X0226202Y0338925D01*
X0227801Y0340523D02*
X0202548Y0340523D01*
X0178412Y0348516D02*
X0129049Y0348516D01*
X0115312Y0329730D02*
X0115312Y0329723D01*
X0115677Y0328841D01*
X0115912Y0328606D01*
X0115912Y0328330D01*
X0115912Y0328210D01*
X0114099Y0326397D01*
X0114099Y0326492D01*
X0110318Y0326492D01*
X0110318Y0326861D01*
X0114099Y0326861D01*
X0114099Y0328882D01*
X0114090Y0328913D01*
X0114333Y0329156D01*
X0114571Y0329730D01*
X0115312Y0329730D01*
X0115473Y0329334D02*
X0114407Y0329334D01*
X0114099Y0327735D02*
X0115437Y0327735D01*
X0115912Y0328330D02*
X0116174Y0328330D01*
X0116174Y0328330D01*
X0115912Y0328330D01*
X0156783Y0418850D02*
X0228226Y0418850D01*
X0228068Y0420449D02*
X0156783Y0420449D01*
X0156783Y0422047D02*
X0228068Y0422047D01*
X0228068Y0423646D02*
X0156783Y0423646D01*
X0156783Y0425244D02*
X0228673Y0425244D01*
X0233274Y0426843D02*
X0156783Y0426843D01*
X0156783Y0428441D02*
X0234873Y0428441D01*
X0236471Y0430040D02*
X0156783Y0430040D01*
X0155926Y0431638D02*
X0238070Y0431638D01*
X0239668Y0433237D02*
X0154328Y0433237D01*
X0149133Y0434835D02*
X0241267Y0434835D01*
X0242865Y0436434D02*
X0149133Y0436434D01*
X0149133Y0438032D02*
X0244464Y0438032D01*
X0244564Y0439631D02*
X0149133Y0439631D01*
X0149133Y0441229D02*
X0244564Y0441229D01*
X0244564Y0442828D02*
X0149133Y0442828D01*
X0149133Y0444427D02*
X0244564Y0444427D01*
X0244564Y0446025D02*
X0149133Y0446025D01*
X0149133Y0447624D02*
X0244564Y0447624D01*
X0244564Y0449222D02*
X0229798Y0449222D01*
X0231997Y0450821D02*
X0234379Y0450821D01*
X0233303Y0452419D02*
X0232861Y0452419D01*
X0237564Y0452419D02*
X0237964Y0452419D01*
X0237964Y0450821D02*
X0237564Y0450821D01*
X0237564Y0454018D02*
X0237964Y0454018D01*
X0237964Y0455616D02*
X0237564Y0455616D01*
X0242224Y0452419D02*
X0242667Y0452419D01*
X0243531Y0450821D02*
X0241148Y0450821D01*
X0247764Y0457224D02*
X0247764Y0436807D01*
X0232633Y0421677D01*
X0237199Y0420449D02*
X0254433Y0420449D01*
X0254433Y0422047D02*
X0237530Y0422047D01*
X0239128Y0423646D02*
X0254433Y0423646D01*
X0254433Y0425244D02*
X0240727Y0425244D01*
X0242325Y0426843D02*
X0254433Y0426843D01*
X0254433Y0428441D02*
X0243924Y0428441D01*
X0245522Y0430040D02*
X0254433Y0430040D01*
X0254433Y0431638D02*
X0247121Y0431638D01*
X0248719Y0433237D02*
X0254433Y0433237D01*
X0254433Y0434835D02*
X0250318Y0434835D01*
X0250964Y0436434D02*
X0254433Y0436434D01*
X0254433Y0438032D02*
X0250964Y0438032D01*
X0250964Y0439631D02*
X0254433Y0439631D01*
X0254433Y0441229D02*
X0250964Y0441229D01*
X0250964Y0442828D02*
X0254433Y0442828D01*
X0254433Y0444427D02*
X0250964Y0444427D01*
X0250964Y0446025D02*
X0254433Y0446025D01*
X0254433Y0447624D02*
X0250964Y0447624D01*
X0250964Y0449222D02*
X0254433Y0449222D01*
X0254433Y0450821D02*
X0251997Y0450821D01*
X0252861Y0452419D02*
X0254433Y0452419D01*
X0254433Y0454018D02*
X0253164Y0454018D01*
X0253164Y0455616D02*
X0254433Y0455616D01*
X0254433Y0457215D02*
X0253164Y0457215D01*
X0253164Y0458813D02*
X0254433Y0458813D01*
X0254433Y0460412D02*
X0253164Y0460412D01*
X0252869Y0462010D02*
X0254433Y0462010D01*
X0254433Y0463609D02*
X0252016Y0463609D01*
X0249845Y0465207D02*
X0254433Y0465207D01*
X0254433Y0466806D02*
X0239945Y0466806D01*
X0239648Y0465207D02*
X0245683Y0465207D01*
X0243511Y0463609D02*
X0241168Y0463609D01*
X0242231Y0462010D02*
X0242659Y0462010D01*
X0239945Y0470003D02*
X0251435Y0470003D01*
X0253034Y0468404D02*
X0236312Y0468404D01*
X0225133Y0474580D02*
X0251383Y0474580D01*
X0225133Y0474580D02*
X0217633Y0467080D01*
X0217633Y0457355D01*
X0217764Y0457224D01*
X0212364Y0457215D02*
X0155925Y0457215D01*
X0157523Y0458813D02*
X0212364Y0458813D01*
X0212364Y0460412D02*
X0159122Y0460412D01*
X0160720Y0462010D02*
X0212659Y0462010D01*
X0213511Y0463609D02*
X0162319Y0463609D01*
X0163917Y0465207D02*
X0214433Y0465207D01*
X0214433Y0466806D02*
X0165516Y0466806D01*
X0167114Y0468404D02*
X0214718Y0468404D01*
X0216030Y0470003D02*
X0168713Y0470003D01*
X0170311Y0471601D02*
X0217629Y0471601D01*
X0219227Y0473200D02*
X0171910Y0473200D01*
X0173508Y0474798D02*
X0220826Y0474798D01*
X0222424Y0476397D02*
X0175107Y0476397D01*
X0158997Y0471601D02*
X0102528Y0471601D01*
X0104127Y0470003D02*
X0157399Y0470003D01*
X0155800Y0468404D02*
X0105023Y0468404D01*
X0105685Y0466806D02*
X0154202Y0466806D01*
X0152603Y0465207D02*
X0105821Y0465207D01*
X0105821Y0463609D02*
X0151005Y0463609D01*
X0149406Y0462010D02*
X0105371Y0462010D01*
X0104709Y0460412D02*
X0147808Y0460412D01*
X0146209Y0458813D02*
X0103369Y0458813D01*
X0101255Y0457215D02*
X0144611Y0457215D01*
X0149531Y0450821D02*
X0213531Y0450821D01*
X0212667Y0452419D02*
X0151129Y0452419D01*
X0152728Y0454018D02*
X0212364Y0454018D01*
X0212364Y0455616D02*
X0154326Y0455616D01*
X0149133Y0449222D02*
X0215729Y0449222D01*
X0219798Y0449222D02*
X0225729Y0449222D01*
X0223531Y0450821D02*
X0221997Y0450821D01*
X0237041Y0418850D02*
X0254433Y0418850D01*
X0254433Y0417252D02*
X0237199Y0417252D01*
X0237199Y0415653D02*
X0254433Y0415653D01*
X0254433Y0414055D02*
X0237199Y0414055D01*
X0237165Y0412456D02*
X0254433Y0412456D01*
X0254433Y0410858D02*
X0235862Y0410858D01*
X0232230Y0414580D02*
X0225133Y0414580D01*
X0225936Y0410858D02*
X0229405Y0410858D01*
X0232230Y0414580D02*
X0232633Y0414984D01*
X0224338Y0409259D02*
X0254433Y0409259D01*
X0254433Y0407661D02*
X0222739Y0407661D01*
X0221141Y0406062D02*
X0254433Y0406062D01*
X0254433Y0404464D02*
X0220966Y0404464D01*
X0220966Y0402865D02*
X0225004Y0402865D01*
X0224722Y0401267D02*
X0220966Y0401267D01*
X0220966Y0399668D02*
X0224722Y0399668D01*
X0224722Y0398070D02*
X0220966Y0398070D01*
X0220966Y0396471D02*
X0224788Y0396471D01*
X0224788Y0394873D02*
X0220966Y0394873D01*
X0221617Y0393274D02*
X0223915Y0393274D01*
X0222827Y0391676D02*
X0222705Y0391676D01*
X0222367Y0380486D02*
X0223165Y0380486D01*
X0232367Y0380486D02*
X0234015Y0380486D01*
X0233175Y0382085D02*
X0233029Y0382085D01*
X0237566Y0380486D02*
X0237966Y0380486D01*
X0383133Y0199854D02*
X0383983Y0199854D01*
X0383983Y0198256D02*
X0383133Y0198256D01*
X0383133Y0196657D02*
X0383983Y0196657D01*
X0383983Y0195059D02*
X0382355Y0195059D01*
X0157845Y0123126D02*
X0150985Y0123126D01*
X0153456Y0124724D02*
X0155374Y0124724D01*
X0154970Y0137512D02*
X0153860Y0137512D01*
D37*
X0181383Y0137302D02*
X0203883Y0137302D01*
X0203883Y0138300D02*
X0181383Y0138300D01*
X0181383Y0139299D02*
X0203883Y0139299D01*
X0203883Y0140297D02*
X0181383Y0140297D01*
X0181383Y0141296D02*
X0203883Y0141296D01*
X0203883Y0142294D02*
X0181383Y0142294D01*
X0181383Y0143293D02*
X0203883Y0143293D01*
X0203883Y0143330D02*
X0203883Y0133330D01*
X0181383Y0133330D01*
X0181383Y0143330D01*
X0203883Y0143330D01*
X0203883Y0136303D02*
X0181383Y0136303D01*
X0181383Y0135305D02*
X0203883Y0135305D01*
X0203883Y0134306D02*
X0181383Y0134306D01*
X0204508Y0163955D02*
X0202633Y0165830D01*
X0202633Y0170909D01*
X0202633Y0180751D02*
X0202633Y0190830D01*
X0204008Y0192205D01*
X0205258Y0192205D01*
X0215133Y0194580D02*
X0215133Y0212385D01*
X0223883Y0212385D01*
X0223883Y0219275D02*
X0233883Y0219275D01*
X0223883Y0219275D02*
X0215133Y0219275D01*
X0215133Y0194580D02*
X0226383Y0194580D01*
X0233883Y0187080D01*
X0260133Y0167080D02*
X0260133Y0157080D01*
X0256687Y0154277D02*
X0238883Y0154277D01*
X0238883Y0154580D02*
X0256383Y0154580D01*
X0258883Y0152080D01*
X0258883Y0144580D01*
X0238883Y0144580D01*
X0238883Y0154580D01*
X0238883Y0153278D02*
X0257685Y0153278D01*
X0258684Y0152280D02*
X0238883Y0152280D01*
X0238883Y0151281D02*
X0258883Y0151281D01*
X0258883Y0150283D02*
X0238883Y0150283D01*
X0238883Y0149284D02*
X0258883Y0149284D01*
X0258883Y0148286D02*
X0238883Y0148286D01*
X0238883Y0147287D02*
X0258883Y0147287D01*
X0258883Y0146289D02*
X0238883Y0146289D01*
X0238883Y0145290D02*
X0258883Y0145290D01*
X0280133Y0120830D02*
X0285133Y0125830D01*
X0285133Y0132080D01*
X0280133Y0120830D02*
X0213883Y0120830D01*
X0213883Y0124580D01*
X0131383Y0228330D02*
X0131383Y0232080D01*
X0136383Y0237080D01*
X0153883Y0237080D01*
X0156383Y0239580D01*
X0156383Y0250830D01*
X0153883Y0253330D01*
X0145133Y0253330D01*
X0148883Y0247080D02*
X0145133Y0243330D01*
X0133883Y0243330D01*
X0126383Y0235830D01*
X0126383Y0224580D01*
X0160133Y0252080D02*
X0160133Y0263330D01*
X0175133Y0263330D01*
X0175133Y0252080D01*
X0160133Y0252080D01*
X0160133Y0252131D02*
X0175133Y0252131D01*
X0175133Y0253129D02*
X0160133Y0253129D01*
X0160133Y0254128D02*
X0175133Y0254128D01*
X0175133Y0255126D02*
X0160133Y0255126D01*
X0160133Y0256125D02*
X0175133Y0256125D01*
X0175133Y0257123D02*
X0160133Y0257123D01*
X0160133Y0258122D02*
X0175133Y0258122D01*
X0175133Y0259120D02*
X0160133Y0259120D01*
X0160133Y0260119D02*
X0175133Y0260119D01*
X0175133Y0261117D02*
X0160133Y0261117D01*
X0160133Y0262116D02*
X0175133Y0262116D01*
X0175133Y0263114D02*
X0160133Y0263114D01*
X0171383Y0273330D02*
X0171383Y0278330D01*
X0170645Y0279068D01*
X0158883Y0279068D01*
X0171383Y0273330D02*
X0172633Y0272080D01*
X0178883Y0263330D02*
X0195133Y0263330D01*
X0195133Y0255830D01*
X0191383Y0252080D01*
X0178883Y0252080D01*
X0178883Y0263330D01*
X0178883Y0263114D02*
X0195133Y0263114D01*
X0195133Y0262116D02*
X0178883Y0262116D01*
X0178883Y0261117D02*
X0195133Y0261117D01*
X0195133Y0260119D02*
X0178883Y0260119D01*
X0178883Y0259120D02*
X0195133Y0259120D01*
X0195133Y0258122D02*
X0178883Y0258122D01*
X0178883Y0257123D02*
X0195133Y0257123D01*
X0195133Y0256125D02*
X0178883Y0256125D01*
X0178883Y0255126D02*
X0194429Y0255126D01*
X0193431Y0254128D02*
X0178883Y0254128D01*
X0178883Y0253129D02*
X0192432Y0253129D01*
X0191434Y0252131D02*
X0178883Y0252131D01*
X0185133Y0308330D02*
X0147633Y0308330D01*
X0142633Y0313330D01*
X0142633Y0334580D01*
X0140133Y0337080D01*
X0136383Y0337080D01*
X0116383Y0357080D01*
X0119287Y0338330D02*
X0119287Y0330889D01*
X0119287Y0325771D02*
X0117574Y0325771D01*
X0112633Y0320830D01*
X0110980Y0320830D01*
X0110133Y0319984D01*
X0110133Y0318330D01*
X0115133Y0313330D01*
X0119287Y0313330D01*
X0120133Y0312484D01*
X0120133Y0319177D02*
X0125940Y0319177D01*
X0125940Y0325732D01*
X0125980Y0325771D01*
X0125980Y0330889D02*
X0125980Y0338330D01*
X0125980Y0331775D02*
X0125980Y0330889D01*
X0125980Y0331775D02*
X0135133Y0331775D01*
X0135133Y0324885D02*
X0135980Y0324885D01*
X0135980Y0315830D01*
X0129287Y0315830D02*
X0125940Y0319177D01*
X0156383Y0332080D02*
X0156383Y0340830D01*
X0158883Y0343330D01*
X0167633Y0343330D01*
X0175133Y0335830D01*
X0175133Y0329580D01*
X0158883Y0329580D01*
X0156383Y0332080D01*
X0156452Y0332012D02*
X0175133Y0332012D01*
X0175133Y0333010D02*
X0156383Y0333010D01*
X0156383Y0334009D02*
X0175133Y0334009D01*
X0175133Y0335007D02*
X0156383Y0335007D01*
X0156383Y0336006D02*
X0174958Y0336006D01*
X0173959Y0337004D02*
X0156383Y0337004D01*
X0156383Y0338003D02*
X0172961Y0338003D01*
X0171962Y0339001D02*
X0156383Y0339001D01*
X0156383Y0340000D02*
X0170964Y0340000D01*
X0169965Y0340998D02*
X0156551Y0340998D01*
X0157550Y0341997D02*
X0168967Y0341997D01*
X0167968Y0342995D02*
X0158548Y0342995D01*
X0166383Y0348330D02*
X0170133Y0348330D01*
X0166383Y0348330D02*
X0156383Y0358330D01*
X0155133Y0358330D01*
X0149070Y0364393D01*
X0139070Y0364393D01*
X0133883Y0389580D02*
X0133883Y0400830D01*
X0138883Y0408330D02*
X0135133Y0412080D01*
X0135133Y0429580D01*
X0136383Y0430830D01*
X0152633Y0430830D01*
X0153883Y0429580D01*
X0153883Y0412080D01*
X0150133Y0408330D01*
X0138883Y0408330D01*
X0138317Y0408897D02*
X0150700Y0408897D01*
X0151699Y0409896D02*
X0137318Y0409896D01*
X0136320Y0410894D02*
X0152697Y0410894D01*
X0153696Y0411893D02*
X0135321Y0411893D01*
X0135133Y0412891D02*
X0153883Y0412891D01*
X0153883Y0413890D02*
X0135133Y0413890D01*
X0135133Y0414888D02*
X0153883Y0414888D01*
X0153883Y0415887D02*
X0135133Y0415887D01*
X0135133Y0416885D02*
X0153883Y0416885D01*
X0153883Y0417884D02*
X0135133Y0417884D01*
X0135133Y0418882D02*
X0153883Y0418882D01*
X0153883Y0419881D02*
X0135133Y0419881D01*
X0135133Y0420879D02*
X0153883Y0420879D01*
X0153883Y0421878D02*
X0135133Y0421878D01*
X0135133Y0422876D02*
X0153883Y0422876D01*
X0153883Y0423875D02*
X0135133Y0423875D01*
X0135133Y0424873D02*
X0153883Y0424873D01*
X0153883Y0425872D02*
X0135133Y0425872D01*
X0135133Y0426870D02*
X0153883Y0426870D01*
X0153883Y0427869D02*
X0135133Y0427869D01*
X0135133Y0428867D02*
X0153883Y0428867D01*
X0153598Y0429866D02*
X0135419Y0429866D01*
X0133883Y0389580D02*
X0170133Y0353330D01*
X0176383Y0348330D02*
X0176383Y0369580D01*
X0176383Y0372080D01*
X0178883Y0374580D01*
X0180133Y0379580D02*
X0167633Y0379580D01*
X0165133Y0382080D01*
X0165133Y0388330D01*
X0166383Y0389580D01*
X0181383Y0389580D01*
X0182633Y0388330D01*
X0182633Y0382080D01*
X0180133Y0379580D01*
X0180493Y0379940D02*
X0167273Y0379940D01*
X0166275Y0380939D02*
X0181492Y0380939D01*
X0182490Y0381937D02*
X0165276Y0381937D01*
X0165133Y0382936D02*
X0182633Y0382936D01*
X0182633Y0383934D02*
X0165133Y0383934D01*
X0165133Y0384933D02*
X0182633Y0384933D01*
X0182633Y0385931D02*
X0165133Y0385931D01*
X0165133Y0386930D02*
X0182633Y0386930D01*
X0182633Y0387928D02*
X0165133Y0387928D01*
X0165730Y0388927D02*
X0182037Y0388927D01*
X0175133Y0331013D02*
X0157450Y0331013D01*
X0158449Y0330015D02*
X0175133Y0330015D01*
X0332633Y0210830D02*
X0334828Y0210830D01*
X0337633Y0213635D01*
X0363883Y0230427D02*
X0363883Y0252080D01*
X0366383Y0435830D02*
X0353883Y0435830D01*
X0352633Y0437080D01*
X0352633Y0447080D01*
X0366383Y0447080D01*
X0367633Y0445830D01*
X0367633Y0437080D01*
X0366383Y0435830D01*
X0366410Y0435857D02*
X0353857Y0435857D01*
X0352858Y0436855D02*
X0367408Y0436855D01*
X0367633Y0437854D02*
X0352633Y0437854D01*
X0352633Y0438852D02*
X0367633Y0438852D01*
X0367633Y0439851D02*
X0352633Y0439851D01*
X0352633Y0440849D02*
X0367633Y0440849D01*
X0367633Y0441848D02*
X0352633Y0441848D01*
X0352633Y0442846D02*
X0367633Y0442846D01*
X0367633Y0443845D02*
X0352633Y0443845D01*
X0352633Y0444843D02*
X0367633Y0444843D01*
X0367622Y0445842D02*
X0352633Y0445842D01*
X0352633Y0446840D02*
X0366623Y0446840D01*
D38*
X0210133Y0288330D02*
X0210133Y0279580D01*
X0210133Y0260830D01*
X0180133Y0230830D01*
X0180133Y0148330D01*
X0188883Y0139580D01*
X0190133Y0139580D01*
X0193883Y0139580D01*
X0205133Y0125830D02*
X0210133Y0130830D01*
X0210133Y0140830D01*
X0215133Y0145830D01*
X0238211Y0145830D01*
X0238211Y0146408D01*
X0241383Y0149580D01*
X0205133Y0125830D02*
X0175133Y0125830D01*
X0175133Y0139580D01*
X0171383Y0143330D01*
X0171383Y0154580D01*
X0171383Y0234580D01*
X0185133Y0248330D01*
X0188883Y0252080D01*
X0188883Y0260830D01*
X0188883Y0274580D01*
X0188883Y0281135D01*
X0188883Y0288025D02*
X0191383Y0288025D01*
X0196285Y0288025D01*
X0196383Y0287927D01*
X0196787Y0288330D01*
X0210133Y0288330D01*
X0196787Y0288330D02*
X0196383Y0288330D01*
D39*
X0196383Y0340830D01*
X0227633Y0369580D01*
X0227633Y0384580D01*
X0227633Y0386356D01*
X0227766Y0386489D01*
X0229188Y0386135D02*
X0227633Y0384580D01*
X0229188Y0386135D02*
X0229188Y0399580D01*
X0236078Y0399580D02*
X0236078Y0388177D01*
X0237766Y0386489D01*
X0237764Y0457224D02*
X0236078Y0458910D01*
X0236078Y0468330D01*
X0229188Y0468330D02*
X0229188Y0458649D01*
X0227764Y0457224D01*
D40*
X0176383Y0369580D02*
X0177633Y0368330D01*
X0185133Y0368330D01*
X0227633Y0163734D02*
X0227230Y0163330D01*
X0236383Y0163734D02*
X0236787Y0163330D01*
X0199449Y0135830D02*
X0190133Y0139580D01*
D41*
X0215133Y0145830D02*
X0238883Y0145830D01*
X0242633Y0149580D01*
X0256383Y0149580D01*
D42*
X0251383Y0212080D03*
D43*
X0229999Y0152080D03*
D44*
X0223365Y0138895D03*
X0242664Y0138712D03*
D45*
X0243625Y0126872D03*
X0222183Y0126740D03*
M02*
